<?xml version="1.0" encoding="UTF-8"?><svg id="Calque_2" xmlns="http://www.w3.org/2000/svg" viewBox="0 0 389.8 692.25"><defs><style>.cls-1{fill:none;stroke:#fff;stroke-miterlimit:10;}</style></defs><g id="Calque_5"><rect class="cls-1" x=".5" y=".5" width="388.8" height="691.25"/></g><g id="Ville"><path d="M352.69,414.7v3.27h-.63v-3.27h.63Z"/><path d="M354.62,415.75c.23,0,.42.08.56.23s.21.36.21.61v1.39h-.57v-1.33c0-.14-.03-.25-.1-.34s-.16-.12-.28-.12c-.09,0-.17.03-.25.08s-.16.14-.26.26v1.46h-.58v-2.19h.58v.31c.11-.12.22-.21.33-.27s.23-.08.36-.08Z"/><path d="M357,415.75c.25,0,.49.05.69.15v.49c-.2-.12-.4-.18-.58-.18-.2,0-.36.06-.48.18s-.19.29-.19.5.06.37.19.49.29.19.5.19c.16,0,.36-.05.6-.15v.47c-.23.09-.46.14-.7.14-.35,0-.64-.1-.86-.3s-.33-.47-.33-.81.11-.63.32-.84.5-.32.84-.32Z"/><path d="M358.47,414.78c.09,0,.17.03.23.1s.1.14.1.23-.03.16-.09.23-.14.1-.23.1-.16-.03-.23-.1-.1-.14-.1-.23c0-.09.03-.17.1-.23s.14-.09.23-.09ZM358.75,415.79v2.19h-.58v-2.19h.58Z"/><path d="M360.6,415.75c.08,0,.15.02.23.05s.16.09.26.17l-.21.5c-.17-.12-.3-.19-.4-.19-.09,0-.18.03-.26.1s-.16.15-.21.26-.08.22-.08.33v1h-.58v-2.19h.58v.56h0c.1-.21.21-.36.32-.46s.22-.14.35-.14Z"/><path d="M361.95,414.7v3.27h-.58v-3.27h.58Z"/><path d="M362.85,414.78c.09,0,.17.03.23.1s.1.14.1.23-.03.16-.09.23-.14.1-.23.1-.16-.03-.23-.1-.1-.14-.1-.23c0-.09.03-.17.1-.23s.14-.09.23-.09ZM363.14,415.79v2.19h-.58v-2.19h.58Z"/><path d="M364.31,414.7v3.27h-.58v-3.27h.58ZM365.9,415.79l-.89,1.08,1,1.11h-.73l-.96-1.11.9-1.08h.68Z"/><path d="M369.27,382.17l1.08,1.29,1.08-1.29h.56v3.27h-.63v-2.3h-.02l-.95,1.15h-.09l-.95-1.15h-.02v2.3h-.63v-3.27h.57Z"/><path d="M373.42,383.21c.28,0,.5.06.64.18s.22.29.22.5v1.07c0,.08.03.12.1.12.03,0,.07-.01.12-.04s.09-.05.13-.08v.33c-.2.12-.39.19-.55.19-.1,0-.18-.02-.24-.05s-.09-.1-.12-.18c-.22.16-.44.23-.66.23-.16,0-.29-.05-.41-.16s-.17-.23-.17-.38c0-.19.06-.34.17-.45s.31-.2.59-.29l.47-.14v-.1c0-.21-.13-.32-.39-.32-.13,0-.26.03-.4.09s-.25.15-.36.27v-.52c.24-.19.52-.28.85-.28ZM373.07,384.85c0,.08.03.14.08.19s.11.07.19.07c.13,0,.25-.06.38-.17v-.58c-.16.05-.29.11-.38.15s-.16.1-.2.15-.06.11-.06.18Z"/><path d="M375.55,382.67h.05v.58h.75v.44h-.75v1.01c0,.1.03.18.09.24s.14.09.24.09c.13,0,.29-.05.46-.15v.46c-.21.09-.4.14-.59.14-.25,0-.44-.07-.58-.2s-.21-.32-.21-.55v-1.05h-.34v-.09l.87-.92Z"/><path d="M377.51,383.21c.28,0,.5.06.64.18s.22.29.22.5v1.07c0,.08.03.12.1.12.03,0,.07-.01.12-.04s.09-.05.13-.08v.33c-.2.12-.39.19-.55.19-.1,0-.18-.02-.24-.05s-.09-.1-.12-.18c-.22.16-.44.23-.66.23-.16,0-.29-.05-.41-.16s-.17-.23-.17-.38c0-.19.06-.34.17-.45s.31-.2.59-.29l.47-.14v-.1c0-.21-.13-.32-.39-.32-.13,0-.26.03-.4.09s-.25.15-.36.27v-.52c.24-.19.52-.28.85-.28ZM377.16,384.85c0,.08.03.14.08.19s.11.07.19.07c.13,0,.25-.06.38-.17v-.58c-.16.05-.29.11-.38.15s-.16.1-.2.15-.06.11-.06.18Z"/><path d="M379.64,382.17v3.27h-.58v-3.27h.58Z"/><path d="M380.57,383.25l.52,1.18.52-1.18h.62l-1.51,3.29h-.62l.7-1.51-.85-1.79h.62Z"/><path d="M383.31,383.21c.28,0,.5.06.64.18s.22.29.22.5v1.07c0,.08.03.12.1.12.03,0,.07-.01.12-.04s.09-.05.13-.08v.33c-.2.12-.39.19-.55.19-.1,0-.18-.02-.24-.05s-.09-.1-.12-.18c-.22.16-.44.23-.66.23-.16,0-.29-.05-.41-.16s-.17-.23-.17-.38c0-.19.06-.34.17-.45s.31-.2.59-.29l.47-.14v-.1c0-.21-.13-.32-.39-.32-.13,0-.26.03-.4.09s-.25.15-.36.27v-.52c.24-.19.52-.28.85-.28ZM382.96,384.85c0,.08.03.14.08.19s.11.07.19.07c.13,0,.25-.06.38-.17v-.58c-.16.05-.29.11-.38.15s-.16.1-.2.15-.06.11-.06.18Z"/></g></svg>