<?xml version="1.0" encoding="UTF-8"?><svg id="Calque_2" xmlns="http://www.w3.org/2000/svg" viewBox="0 0 389.8 692.25"><defs><style>.cls-1{stroke:#840b0b;stroke-linecap:round;}.cls-1,.cls-2{fill:none;}.cls-2{stroke:#fff;stroke-miterlimit:10;}.cls-3{fill:#fff;}</style></defs><g id="Calque_5"><rect class="cls-2" x=".5" y=".5" width="388.8" height="691.25"/></g><g id="Nom_de_Pays"><path class="cls-1" d="M319.34,213.91c.42,0,.76.12,1.02.35.26.23.4.53.4.91,0,.25-.07.47-.2.66-.13.19-.32.34-.58.44.14.08.27.18.38.31.11.13.25.35.41.67.27.54.47.91.61,1.12h-.96c-.07-.1-.16-.25-.27-.47-.25-.47-.43-.79-.54-.96-.11-.16-.23-.28-.33-.35-.11-.07-.23-.1-.37-.1h-.31v1.88h-.86v-4.46h1.6ZM319.15,215.81c.23,0,.4-.06.53-.17.13-.11.19-.27.19-.46s-.06-.36-.19-.46c-.13-.1-.31-.15-.55-.15h-.54v1.24h.55Z"/><path class="cls-1" d="M323.03,215.25v1.82c0,.19.03.33.08.44.06.11.15.2.27.27.13.07.27.11.44.11.18,0,.34-.03.47-.1.13-.07.22-.16.28-.28.06-.12.09-.28.09-.49v-1.78h.6v1.85c0,.42-.13.74-.38.97-.25.23-.61.34-1.07.34-.29,0-.54-.05-.75-.15-.21-.1-.37-.25-.49-.45-.11-.19-.17-.42-.17-.68v-1.88h.61Z"/><path class="cls-1" d="M327.3,215.21c.3,0,.6.08.88.23v.54c-.32-.19-.61-.29-.86-.29-.15,0-.27.03-.36.09-.09.06-.13.14-.13.24,0,.12.08.23.24.33.04.03.22.11.52.25.26.12.44.26.55.4.11.15.17.32.17.53,0,.27-.1.48-.29.65s-.44.25-.75.25c-.2,0-.37-.02-.51-.07s-.3-.12-.48-.23v-.59c.33.28.65.41.94.41.15,0,.27-.03.36-.1.09-.06.14-.15.14-.25,0-.14-.08-.26-.24-.35-.13-.07-.3-.16-.51-.26-.25-.11-.43-.24-.55-.39-.12-.15-.18-.32-.18-.52,0-.26.1-.47.29-.63.19-.16.45-.23.77-.23Z"/><path class="cls-1" d="M330.2,215.21c.3,0,.6.08.88.23v.54c-.32-.19-.61-.29-.86-.29-.15,0-.27.03-.36.09s-.13.14-.13.24c0,.12.08.23.24.33.04.03.22.11.52.25.26.12.44.26.55.4.11.15.17.32.17.53,0,.27-.1.48-.29.65-.19.16-.44.25-.75.25-.2,0-.37-.02-.51-.07-.14-.04-.3-.12-.48-.23v-.59c.33.28.65.41.94.41.15,0,.27-.03.36-.1.09-.06.14-.15.14-.25,0-.14-.08-.26-.24-.35-.13-.07-.3-.16-.51-.26-.25-.11-.43-.24-.55-.39s-.18-.32-.18-.52c0-.26.1-.47.29-.63.2-.16.45-.23.77-.23Z"/><path class="cls-1" d="M332.82,215.25v3.12h-.6v-3.12h.6Z"/><path class="cls-1" d="M335.99,215.25v.47h-1.41v.82h1.35v.47h-1.35v.89h1.45v.47h-2.05v-3.12h2.02Z"/><path class="cls-3" d="M319.34,213.91c.42,0,.76.12,1.02.35.26.23.4.53.4.91,0,.25-.07.47-.2.66-.13.19-.32.34-.58.44.14.08.27.18.38.31.11.13.25.35.41.67.27.54.47.91.61,1.12h-.96c-.07-.1-.16-.25-.27-.47-.25-.47-.43-.79-.54-.96-.11-.16-.23-.28-.33-.35-.11-.07-.23-.1-.37-.1h-.31v1.88h-.86v-4.46h1.6ZM319.15,215.81c.23,0,.4-.06.53-.17.13-.11.19-.27.19-.46s-.06-.36-.19-.46c-.13-.1-.31-.15-.55-.15h-.54v1.24h.55Z"/><path class="cls-3" d="M323.03,215.25v1.82c0,.19.03.33.08.44.06.11.15.2.27.27.13.07.27.11.44.11.18,0,.34-.03.47-.1.13-.07.22-.16.28-.28.06-.12.09-.28.09-.49v-1.78h.6v1.85c0,.42-.13.74-.38.97-.25.23-.61.34-1.07.34-.29,0-.54-.05-.75-.15-.21-.1-.37-.25-.49-.45-.11-.19-.17-.42-.17-.68v-1.88h.61Z"/><path class="cls-3" d="M327.3,215.21c.3,0,.6.08.88.23v.54c-.32-.19-.61-.29-.86-.29-.15,0-.27.03-.36.09-.09.06-.13.14-.13.24,0,.12.08.23.24.33.04.03.22.11.52.25.26.12.44.26.55.4.11.15.17.32.17.53,0,.27-.1.48-.29.65s-.44.25-.75.25c-.2,0-.37-.02-.51-.07s-.3-.12-.48-.23v-.59c.33.28.65.41.94.41.15,0,.27-.03.36-.1.09-.06.14-.15.14-.25,0-.14-.08-.26-.24-.35-.13-.07-.3-.16-.51-.26-.25-.11-.43-.24-.55-.39-.12-.15-.18-.32-.18-.52,0-.26.1-.47.29-.63.19-.16.45-.23.77-.23Z"/><path class="cls-3" d="M330.2,215.21c.3,0,.6.08.88.23v.54c-.32-.19-.61-.29-.86-.29-.15,0-.27.03-.36.09s-.13.14-.13.24c0,.12.08.23.24.33.04.03.22.11.52.25.26.12.44.26.55.4.11.15.17.32.17.53,0,.27-.1.48-.29.65-.19.16-.44.25-.75.25-.2,0-.37-.02-.51-.07-.14-.04-.3-.12-.48-.23v-.59c.33.28.65.41.94.41.15,0,.27-.03.36-.1.09-.06.14-.15.14-.25,0-.14-.08-.26-.24-.35-.13-.07-.3-.16-.51-.26-.25-.11-.43-.24-.55-.39s-.18-.32-.18-.52c0-.26.1-.47.29-.63.2-.16.45-.23.77-.23Z"/><path class="cls-3" d="M332.82,215.25v3.12h-.6v-3.12h.6Z"/><path class="cls-3" d="M335.99,215.25v.47h-1.41v.82h1.35v.47h-1.35v.89h1.45v.47h-2.05v-3.12h2.02Z"/><path class="cls-3" d="M319.34,213.91c.42,0,.76.12,1.02.35.26.23.4.53.4.91,0,.25-.07.47-.2.66-.13.19-.32.34-.58.44.14.08.27.18.38.31.11.13.25.35.41.67.27.54.47.91.61,1.12h-.96c-.07-.1-.16-.25-.27-.47-.25-.47-.43-.79-.54-.96-.11-.16-.23-.28-.33-.35-.11-.07-.23-.1-.37-.1h-.31v1.88h-.86v-4.46h1.6ZM319.15,215.81c.23,0,.4-.06.53-.17.13-.11.19-.27.19-.46s-.06-.36-.19-.46c-.13-.1-.31-.15-.55-.15h-.54v1.24h.55Z"/><path class="cls-3" d="M323.03,215.25v1.82c0,.19.03.33.08.44.06.11.15.2.27.27.13.07.27.11.44.11.18,0,.34-.03.47-.1.13-.07.22-.16.28-.28.06-.12.09-.28.09-.49v-1.78h.6v1.85c0,.42-.13.74-.38.97-.25.23-.61.34-1.07.34-.29,0-.54-.05-.75-.15-.21-.1-.37-.25-.49-.45-.11-.19-.17-.42-.17-.68v-1.88h.61Z"/><path class="cls-3" d="M327.3,215.21c.3,0,.6.08.88.23v.54c-.32-.19-.61-.29-.86-.29-.15,0-.27.03-.36.09-.09.06-.13.14-.13.24,0,.12.08.23.24.33.04.03.22.11.52.25.26.12.44.26.55.4.11.15.17.32.17.53,0,.27-.1.48-.29.65s-.44.25-.75.25c-.2,0-.37-.02-.51-.07s-.3-.12-.48-.23v-.59c.33.28.65.41.94.41.15,0,.27-.03.36-.1.09-.06.14-.15.14-.25,0-.14-.08-.26-.24-.35-.13-.07-.3-.16-.51-.26-.25-.11-.43-.24-.55-.39-.12-.15-.18-.32-.18-.52,0-.26.1-.47.29-.63.19-.16.45-.23.77-.23Z"/><path class="cls-3" d="M330.2,215.21c.3,0,.6.08.88.23v.54c-.32-.19-.61-.29-.86-.29-.15,0-.27.03-.36.09s-.13.14-.13.24c0,.12.08.23.24.33.04.03.22.11.52.25.26.12.44.26.55.4.11.15.17.32.17.53,0,.27-.1.48-.29.65-.19.16-.44.25-.75.25-.2,0-.37-.02-.51-.07-.14-.04-.3-.12-.48-.23v-.59c.33.28.65.41.94.41.15,0,.27-.03.36-.1.09-.06.14-.15.14-.25,0-.14-.08-.26-.24-.35-.13-.07-.3-.16-.51-.26-.25-.11-.43-.24-.55-.39s-.18-.32-.18-.52c0-.26.1-.47.29-.63.2-.16.45-.23.77-.23Z"/><path class="cls-3" d="M332.82,215.25v3.12h-.6v-3.12h.6Z"/><path class="cls-3" d="M335.99,215.25v.47h-1.41v.82h1.35v.47h-1.35v.89h1.45v.47h-2.05v-3.12h2.02Z"/><path class="cls-1" d="M246.93,269.16c.41,0,.74.11,1,.32.26.21.39.48.39.8,0,.2-.05.38-.16.54-.11.16-.26.28-.47.37v.04c.31.07.55.21.73.42.17.21.26.45.26.73,0,.25-.06.47-.19.66-.13.2-.3.34-.53.44-.22.1-.49.15-.79.15h-1.87v-4.46h1.63ZM246.7,271.01c.23,0,.41-.05.54-.16.13-.11.2-.26.2-.45,0-.17-.06-.31-.18-.41-.12-.1-.28-.15-.48-.15h-.62v1.18h.54ZM246.9,272.94c.29,0,.51-.05.66-.16.15-.11.22-.27.22-.48,0-.19-.07-.34-.22-.45-.15-.11-.35-.16-.59-.16h-.81v1.26h.74Z"/><path class="cls-1" d="M250.52,270.5v3.12h-.6v-3.12h.6Z"/><path class="cls-1" d="M253.69,270.5v.47h-1.41v.82h1.35v.47h-1.35v.89h1.44v.47h-2.05v-3.12h2.02ZM253.42,269.52l-.84.77h-.34l.43-.77h.75Z"/><path class="cls-1" d="M255.35,270.5v2.65h1.51v.47h-2.12v-3.12h.6Z"/><path class="cls-1" d="M259.24,270.46c.32,0,.61.07.87.2.26.13.46.33.62.58.15.25.23.53.23.82s-.07.56-.22.81c-.15.25-.35.44-.62.58-.26.14-.56.21-.88.21s-.62-.07-.88-.21-.47-.33-.62-.58-.22-.52-.22-.81.07-.55.22-.81c.15-.25.35-.45.61-.59s.56-.21.89-.21ZM258.14,272.06c0,.21.05.39.14.56s.22.29.39.38c.17.09.36.14.57.14.32,0,.58-.1.79-.3s.31-.46.31-.78c0-.21-.05-.39-.14-.56s-.22-.29-.39-.39c-.17-.09-.36-.14-.57-.14s-.4.05-.57.14c-.17.09-.3.22-.39.38-.09.16-.14.35-.14.56Z"/><path class="cls-1" d="M263.1,270.5c.29,0,.53.08.72.24.18.16.28.37.28.63,0,.18-.05.33-.14.46-.09.13-.23.24-.41.31.1.05.19.13.27.22.08.09.17.25.29.47.19.38.33.64.42.78h-.67c-.05-.07-.11-.18-.19-.33-.17-.33-.3-.56-.38-.67s-.16-.2-.23-.25c-.07-.05-.16-.07-.26-.07h-.22v1.32h-.6v-3.12h1.12ZM262.97,271.83c.16,0,.28-.04.37-.12.09-.08.13-.19.13-.32s-.04-.25-.13-.32-.22-.11-.38-.11h-.38v.87h.38Z"/><path class="cls-1" d="M265.87,270.5v1.82c0,.19.03.33.08.44.06.11.15.2.27.27.13.07.27.11.44.11.18,0,.34-.03.47-.1.13-.07.22-.16.28-.28.06-.12.09-.28.09-.49v-1.78h.6v1.85c0,.42-.13.74-.38.97-.25.23-.61.34-1.07.34-.29,0-.54-.05-.75-.15-.21-.1-.37-.25-.49-.45-.11-.19-.17-.42-.17-.68v-1.88h.61Z"/><path class="cls-1" d="M270.14,270.46c.3,0,.6.08.88.23v.54c-.32-.19-.61-.29-.86-.29-.15,0-.27.03-.36.09-.09.06-.13.14-.13.24,0,.12.08.23.24.33.04.03.22.11.52.25.26.12.44.26.55.4.11.15.17.32.17.53,0,.27-.1.48-.29.65s-.44.25-.75.25c-.2,0-.37-.02-.51-.07s-.3-.12-.48-.23v-.59c.33.28.65.41.94.41.15,0,.27-.03.36-.1.09-.06.14-.15.14-.25,0-.14-.08-.26-.24-.35-.13-.07-.3-.16-.51-.26-.25-.11-.43-.24-.55-.39-.12-.15-.18-.32-.18-.52,0-.26.1-.47.29-.63.19-.16.45-.23.77-.23Z"/><path class="cls-1" d="M273.04,270.46c.3,0,.6.08.88.23v.54c-.32-.19-.61-.29-.86-.29-.15,0-.27.03-.36.09s-.13.14-.13.24c0,.12.08.23.24.33.04.03.22.11.52.25.26.12.44.26.55.4.11.15.17.32.17.53,0,.27-.1.48-.29.65-.19.16-.44.25-.75.25-.2,0-.37-.02-.51-.07-.14-.04-.3-.12-.48-.23v-.59c.33.28.65.41.94.41.15,0,.27-.03.36-.1.09-.06.14-.15.14-.25,0-.14-.08-.26-.24-.35-.13-.07-.3-.16-.51-.26-.25-.11-.43-.24-.55-.39s-.18-.32-.18-.52c0-.26.1-.47.29-.63.2-.16.45-.23.77-.23Z"/><path class="cls-1" d="M275.66,270.5v3.12h-.6v-3.12h.6Z"/><path class="cls-1" d="M278.83,270.5v.47h-1.41v.82h1.35v.47h-1.35v.89h1.45v.47h-2.05v-3.12h2.02Z"/><path class="cls-3" d="M246.93,269.16c.41,0,.74.11,1,.32.26.21.39.48.39.8,0,.2-.05.38-.16.54-.11.16-.26.28-.47.37v.04c.31.07.55.21.73.42.17.21.26.45.26.73,0,.25-.06.47-.19.66-.13.2-.3.34-.53.44-.22.1-.49.15-.79.15h-1.87v-4.46h1.63ZM246.7,271.01c.23,0,.41-.05.54-.16.13-.11.2-.26.2-.45,0-.17-.06-.31-.18-.41-.12-.1-.28-.15-.48-.15h-.62v1.18h.54ZM246.9,272.94c.29,0,.51-.05.66-.16.15-.11.22-.27.22-.48,0-.19-.07-.34-.22-.45-.15-.11-.35-.16-.59-.16h-.81v1.26h.74Z"/><path class="cls-3" d="M250.52,270.5v3.12h-.6v-3.12h.6Z"/><path class="cls-3" d="M253.69,270.5v.47h-1.41v.82h1.35v.47h-1.35v.89h1.44v.47h-2.05v-3.12h2.02ZM253.42,269.52l-.84.77h-.34l.43-.77h.75Z"/><path class="cls-3" d="M255.35,270.5v2.65h1.51v.47h-2.12v-3.12h.6Z"/><path class="cls-3" d="M259.24,270.46c.32,0,.61.07.87.2.26.13.46.33.62.58.15.25.23.53.23.82s-.07.56-.22.81c-.15.25-.35.44-.62.58-.26.14-.56.21-.88.21s-.62-.07-.88-.21-.47-.33-.62-.58-.22-.52-.22-.81.07-.55.22-.81c.15-.25.35-.45.61-.59s.56-.21.89-.21ZM258.14,272.06c0,.21.05.39.14.56s.22.29.39.38c.17.09.36.14.57.14.32,0,.58-.1.79-.3s.31-.46.31-.78c0-.21-.05-.39-.14-.56s-.22-.29-.39-.39c-.17-.09-.36-.14-.57-.14s-.4.05-.57.14c-.17.09-.3.22-.39.38-.09.16-.14.35-.14.56Z"/><path class="cls-3" d="M263.1,270.5c.29,0,.53.08.72.24.18.16.28.37.28.63,0,.18-.05.33-.14.46-.09.13-.23.24-.41.31.1.05.19.13.27.22.08.09.17.25.29.47.19.38.33.64.42.78h-.67c-.05-.07-.11-.18-.19-.33-.17-.33-.3-.56-.38-.67s-.16-.2-.23-.25c-.07-.05-.16-.07-.26-.07h-.22v1.32h-.6v-3.12h1.12ZM262.97,271.83c.16,0,.28-.04.37-.12.09-.08.13-.19.13-.32s-.04-.25-.13-.32-.22-.11-.38-.11h-.38v.87h.38Z"/><path class="cls-3" d="M265.87,270.5v1.82c0,.19.03.33.08.44.06.11.15.2.27.27.13.07.27.11.44.11.18,0,.34-.03.47-.1.13-.07.22-.16.28-.28.06-.12.09-.28.09-.49v-1.78h.6v1.85c0,.42-.13.74-.38.97-.25.23-.61.34-1.07.34-.29,0-.54-.05-.75-.15-.21-.1-.37-.25-.49-.45-.11-.19-.17-.42-.17-.68v-1.88h.61Z"/><path class="cls-3" d="M270.14,270.46c.3,0,.6.08.88.23v.54c-.32-.19-.61-.29-.86-.29-.15,0-.27.03-.36.09-.09.06-.13.14-.13.24,0,.12.08.23.24.33.04.03.22.11.52.25.26.12.44.26.55.4.11.15.17.32.17.53,0,.27-.1.48-.29.65s-.44.25-.75.25c-.2,0-.37-.02-.51-.07s-.3-.12-.48-.23v-.59c.33.28.65.41.94.41.15,0,.27-.03.36-.1.09-.06.14-.15.14-.25,0-.14-.08-.26-.24-.35-.13-.07-.3-.16-.51-.26-.25-.11-.43-.24-.55-.39-.12-.15-.18-.32-.18-.52,0-.26.1-.47.29-.63.19-.16.45-.23.77-.23Z"/><path class="cls-3" d="M273.04,270.46c.3,0,.6.08.88.23v.54c-.32-.19-.61-.29-.86-.29-.15,0-.27.03-.36.09s-.13.14-.13.24c0,.12.08.23.24.33.04.03.22.11.52.25.26.12.44.26.55.4.11.15.17.32.17.53,0,.27-.1.48-.29.65-.19.16-.44.25-.75.25-.2,0-.37-.02-.51-.07-.14-.04-.3-.12-.48-.23v-.59c.33.28.65.41.94.41.15,0,.27-.03.36-.1.09-.06.14-.15.14-.25,0-.14-.08-.26-.24-.35-.13-.07-.3-.16-.51-.26-.25-.11-.43-.24-.55-.39s-.18-.32-.18-.52c0-.26.1-.47.29-.63.2-.16.45-.23.77-.23Z"/><path class="cls-3" d="M275.66,270.5v3.12h-.6v-3.12h.6Z"/><path class="cls-3" d="M278.83,270.5v.47h-1.41v.82h1.35v.47h-1.35v.89h1.45v.47h-2.05v-3.12h2.02Z"/><path class="cls-3" d="M246.93,269.16c.41,0,.74.11,1,.32.26.21.39.48.39.8,0,.2-.05.38-.16.54-.11.16-.26.28-.47.37v.04c.31.07.55.21.73.42.17.21.26.45.26.73,0,.25-.06.47-.19.66-.13.2-.3.34-.53.44-.22.1-.49.15-.79.15h-1.87v-4.46h1.63ZM246.7,271.01c.23,0,.41-.05.54-.16.13-.11.2-.26.2-.45,0-.17-.06-.31-.18-.41-.12-.1-.28-.15-.48-.15h-.62v1.18h.54ZM246.9,272.94c.29,0,.51-.05.66-.16.15-.11.22-.27.22-.48,0-.19-.07-.34-.22-.45-.15-.11-.35-.16-.59-.16h-.81v1.26h.74Z"/><path class="cls-3" d="M250.52,270.5v3.12h-.6v-3.12h.6Z"/><path class="cls-3" d="M253.69,270.5v.47h-1.41v.82h1.35v.47h-1.35v.89h1.44v.47h-2.05v-3.12h2.02ZM253.42,269.52l-.84.77h-.34l.43-.77h.75Z"/><path class="cls-3" d="M255.35,270.5v2.65h1.51v.47h-2.12v-3.12h.6Z"/><path class="cls-3" d="M259.24,270.46c.32,0,.61.07.87.2.26.13.46.33.62.58.15.25.23.53.23.82s-.07.56-.22.81c-.15.25-.35.44-.62.58-.26.14-.56.21-.88.21s-.62-.07-.88-.21-.47-.33-.62-.58-.22-.52-.22-.81.07-.55.22-.81c.15-.25.35-.45.61-.59s.56-.21.89-.21ZM258.14,272.06c0,.21.05.39.14.56s.22.29.39.38c.17.09.36.14.57.14.32,0,.58-.1.79-.3s.31-.46.31-.78c0-.21-.05-.39-.14-.56s-.22-.29-.39-.39c-.17-.09-.36-.14-.57-.14s-.4.05-.57.14c-.17.09-.3.22-.39.38-.09.16-.14.35-.14.56Z"/><path class="cls-3" d="M263.1,270.5c.29,0,.53.08.72.24.18.16.28.37.28.63,0,.18-.05.33-.14.46-.09.13-.23.24-.41.31.1.05.19.13.27.22.08.09.17.25.29.47.19.38.33.64.42.78h-.67c-.05-.07-.11-.18-.19-.33-.17-.33-.3-.56-.38-.67s-.16-.2-.23-.25c-.07-.05-.16-.07-.26-.07h-.22v1.32h-.6v-3.12h1.12ZM262.97,271.83c.16,0,.28-.04.37-.12.09-.08.13-.19.13-.32s-.04-.25-.13-.32-.22-.11-.38-.11h-.38v.87h.38Z"/><path class="cls-3" d="M265.87,270.5v1.82c0,.19.03.33.08.44.06.11.15.2.27.27.13.07.27.11.44.11.18,0,.34-.03.47-.1.13-.07.22-.16.28-.28.06-.12.09-.28.09-.49v-1.78h.6v1.85c0,.42-.13.74-.38.97-.25.23-.61.34-1.07.34-.29,0-.54-.05-.75-.15-.21-.1-.37-.25-.49-.45-.11-.19-.17-.42-.17-.68v-1.88h.61Z"/><path class="cls-3" d="M270.14,270.46c.3,0,.6.08.88.23v.54c-.32-.19-.61-.29-.86-.29-.15,0-.27.03-.36.09-.09.06-.13.14-.13.24,0,.12.08.23.24.33.04.03.22.11.52.25.26.12.44.26.55.4.11.15.17.32.17.53,0,.27-.1.48-.29.65s-.44.25-.75.25c-.2,0-.37-.02-.51-.07s-.3-.12-.48-.23v-.59c.33.28.65.41.94.41.15,0,.27-.03.36-.1.09-.06.14-.15.14-.25,0-.14-.08-.26-.24-.35-.13-.07-.3-.16-.51-.26-.25-.11-.43-.24-.55-.39-.12-.15-.18-.32-.18-.52,0-.26.1-.47.29-.63.19-.16.45-.23.77-.23Z"/><path class="cls-3" d="M273.04,270.46c.3,0,.6.08.88.23v.54c-.32-.19-.61-.29-.86-.29-.15,0-.27.03-.36.09s-.13.14-.13.24c0,.12.08.23.24.33.04.03.22.11.52.25.26.12.44.26.55.4.11.15.17.32.17.53,0,.27-.1.48-.29.65-.19.16-.44.25-.75.25-.2,0-.37-.02-.51-.07-.14-.04-.3-.12-.48-.23v-.59c.33.28.65.41.94.41.15,0,.27-.03.36-.1.09-.06.14-.15.14-.25,0-.14-.08-.26-.24-.35-.13-.07-.3-.16-.51-.26-.25-.11-.43-.24-.55-.39s-.18-.32-.18-.52c0-.26.1-.47.29-.63.2-.16.45-.23.77-.23Z"/><path class="cls-3" d="M275.66,270.5v3.12h-.6v-3.12h.6Z"/><path class="cls-3" d="M278.83,270.5v.47h-1.41v.82h1.35v.47h-1.35v.89h1.45v.47h-2.05v-3.12h2.02Z"/></g></svg>