<?xml version="1.0" encoding="UTF-8"?><svg id="Calque_2" xmlns="http://www.w3.org/2000/svg" viewBox="0 0 841.81 594.3"><defs><style>.cls-1{fill:none;opacity:0;stroke:#c16868;stroke-miterlimit:10;stroke-width:.1px;}</style></defs><g id="Ligne_de_front"><rect id="Cadre" class="cls-1" x=".05" y=".05" width="841.71" height="594.2"/></g><g id="Ville"><path d="M754.7,470.38v5.46h-1.05v-5.46h1.05Z"/><path d="M757.92,472.11c.39,0,.7.13.94.38s.35.59.35,1.01v2.32h-.96v-2.22c0-.24-.06-.42-.17-.56s-.27-.21-.46-.21c-.15,0-.29.04-.42.13s-.27.23-.43.44v2.43h-.96v-3.65h.96v.51c.18-.21.36-.36.54-.45s.39-.13.61-.13Z"/><path d="M761.89,472.11c.42,0,.81.08,1.15.25v.82c-.34-.2-.66-.3-.97-.3-.33,0-.6.1-.8.31s-.31.48-.31.83.1.62.31.82.49.31.84.31c.26,0,.59-.09,1-.26v.78c-.38.15-.77.23-1.17.23-.59,0-1.07-.17-1.44-.51s-.55-.79-.55-1.35.18-1.05.54-1.4.83-.53,1.4-.53Z"/><path d="M764.34,470.5c.15,0,.28.05.38.16s.16.23.16.38-.05.27-.16.38-.23.17-.38.17-.27-.06-.38-.17-.16-.24-.16-.38c0-.15.05-.28.16-.38s.24-.16.38-.16ZM764.82,472.18v3.65h-.96v-3.65h.96Z"/><path d="M767.89,472.11c.13,0,.25.03.38.09s.27.15.43.29l-.34.84c-.28-.21-.5-.31-.67-.31-.15,0-.29.06-.44.17s-.26.26-.35.44-.13.36-.13.55v1.66h-.96v-3.65h.96v.93h.02c.17-.35.35-.61.53-.76s.37-.24.58-.24Z"/><path d="M770.14,470.38v5.46h-.96v-5.46h.96Z"/><path d="M771.65,470.5c.15,0,.28.05.38.16s.16.23.16.38-.05.27-.16.38-.23.17-.38.17-.27-.06-.38-.17-.16-.24-.16-.38c0-.15.05-.28.16-.38s.24-.16.38-.16ZM772.13,472.18v3.65h-.96v-3.65h.96Z"/><path d="M774.08,470.38v5.46h-.96v-5.46h.96ZM776.73,472.18l-1.48,1.8,1.66,1.85h-1.22l-1.6-1.85,1.5-1.8h1.13Z"/><path d="M803.48,422.39l1.79,2.15,1.79-2.15h.94v5.46h-1.05v-3.83h-.03l-1.58,1.92h-.15l-1.58-1.92h-.03v3.83h-1.05v-5.46h.95Z"/><path d="M810.4,424.13c.47,0,.83.1,1.07.3s.37.48.37.83v1.79c0,.14.06.21.17.21.05,0,.11-.02.2-.06s.16-.09.21-.14v.55c-.34.21-.64.31-.92.31-.17,0-.3-.03-.4-.09s-.16-.16-.19-.3c-.37.26-.74.39-1.11.39-.26,0-.49-.09-.68-.27s-.28-.39-.28-.64c0-.32.09-.56.28-.75s.52-.34.98-.48l.78-.23v-.17c0-.36-.22-.54-.65-.54-.22,0-.44.05-.66.15s-.42.25-.6.45v-.86c.4-.32.87-.47,1.42-.47ZM809.81,426.88c0,.13.04.24.13.32s.19.12.31.12c.21,0,.42-.1.63-.29v-.96c-.27.09-.48.18-.63.26s-.26.16-.34.25-.11.18-.11.3Z"/><path d="M813.95,423.23h.08v.97h1.25v.73h-1.25v1.68c0,.16.05.3.15.4s.23.15.41.15c.22,0,.48-.08.77-.24v.77c-.35.15-.67.23-.98.23-.41,0-.73-.11-.96-.34s-.35-.53-.35-.91v-1.75h-.57v-.16l1.45-1.54Z"/><path d="M817.22,424.13c.47,0,.83.1,1.07.3s.37.48.37.83v1.79c0,.14.06.21.17.21.05,0,.11-.02.2-.06s.16-.09.21-.14v.55c-.34.21-.64.31-.92.31-.17,0-.3-.03-.4-.09s-.16-.16-.19-.3c-.37.26-.74.39-1.11.39-.26,0-.49-.09-.68-.27s-.28-.39-.28-.64c0-.32.09-.56.28-.75s.52-.34.98-.48l.78-.23v-.17c0-.36-.22-.54-.65-.54-.22,0-.44.05-.66.15s-.42.25-.6.45v-.86c.4-.32.87-.47,1.42-.47ZM816.63,426.88c0,.13.04.24.13.32s.19.12.31.12c.21,0,.42-.1.63-.29v-.96c-.27.09-.48.18-.63.26s-.26.16-.34.25-.11.18-.11.3Z"/><path d="M820.76,422.39v5.46h-.96v-5.46h.96Z"/><path d="M822.32,424.2l.86,1.96.88-1.96h1.03l-2.52,5.49h-1.03l1.16-2.51-1.42-2.98h1.04Z"/><path d="M826.89,424.13c.47,0,.83.1,1.07.3s.37.48.37.83v1.79c0,.14.06.21.17.21.05,0,.11-.02.2-.06s.16-.09.21-.14v.55c-.34.21-.64.31-.92.31-.17,0-.3-.03-.4-.09s-.16-.16-.19-.3c-.37.26-.74.39-1.11.39-.26,0-.49-.09-.68-.27s-.28-.39-.28-.64c0-.32.09-.56.28-.75s.52-.34.98-.48l.78-.23v-.17c0-.36-.22-.54-.65-.54-.22,0-.44.05-.66.15s-.42.25-.6.45v-.86c.4-.32.87-.47,1.42-.47ZM826.3,426.88c0,.13.04.24.13.32s.19.12.31.12c.21,0,.42-.1.63-.29v-.96c-.27.09-.48.18-.63.26s-.26.16-.34.25-.11.18-.11.3Z"/></g></svg>