<?xml version="1.0" encoding="UTF-8"?><svg id="Calque_2" xmlns="http://www.w3.org/2000/svg" xmlns:xlink="http://www.w3.org/1999/xlink" viewBox="0 0 388.8 691.25"><defs><style>.cls-1,.cls-2,.cls-3{fill:none;}.cls-2{stroke:#b23622;stroke-linecap:square;stroke-linejoin:bevel;stroke-width:.75px;}.cls-2,.cls-4{fill-rule:evenodd;}.cls-3{stroke:#9e4d4d;stroke-width:.5px;}.cls-4{fill:url(#Hachures_roses);}</style><pattern id="Hachures_roses" x="0" y="0" width="72" height="72" patternTransform="translate(-38.47 593.51)" patternUnits="userSpaceOnUse" viewBox="0 0 72 72"><rect class="cls-1" width="72" height="72"/><line class="cls-3" x1="71.75" y1="68.77" x2="144.25" y2="68.77"/><line class="cls-3" x1="71.75" y1="54.25" x2="144.25" y2="54.25"/><line class="cls-3" x1="71.75" y1="39.72" x2="144.25" y2="39.72"/><line class="cls-3" x1="71.75" y1="25.2" x2="144.25" y2="25.2"/><line class="cls-3" x1="71.75" y1="10.68" x2="144.25" y2="10.68"/><line class="cls-3" x1="71.75" y1="61.51" x2="144.25" y2="61.51"/><line class="cls-3" x1="71.75" y1="46.98" x2="144.25" y2="46.98"/><line class="cls-3" x1="71.75" y1="32.46" x2="144.25" y2="32.46"/><line class="cls-3" x1="71.75" y1="17.94" x2="144.25" y2="17.94"/><line class="cls-3" x1="71.75" y1="3.42" x2="144.25" y2="3.42"/><line class="cls-3" x1="71.75" y1="57.88" x2="144.25" y2="57.88"/><line class="cls-3" x1="71.75" y1="43.35" x2="144.25" y2="43.35"/><line class="cls-3" x1="71.75" y1="28.83" x2="144.25" y2="28.83"/><line class="cls-3" x1="71.75" y1="14.31" x2="144.25" y2="14.31"/><line class="cls-3" x1="71.75" y1="65.14" x2="144.25" y2="65.14"/><line class="cls-3" x1="71.75" y1="50.62" x2="144.25" y2="50.62"/><line class="cls-3" x1="71.75" y1="36.09" x2="144.25" y2="36.09"/><line class="cls-3" x1="71.75" y1="21.57" x2="144.25" y2="21.57"/><line class="cls-3" x1="71.75" y1="7.05" x2="144.25" y2="7.05"/><line class="cls-3" x1="71.75" y1="70.58" x2="144.25" y2="70.58"/><line class="cls-3" x1="71.75" y1="56.06" x2="144.25" y2="56.06"/><line class="cls-3" x1="71.75" y1="41.54" x2="144.25" y2="41.54"/><line class="cls-3" x1="71.75" y1="27.02" x2="144.25" y2="27.02"/><line class="cls-3" x1="71.75" y1="12.49" x2="144.25" y2="12.49"/><line class="cls-3" x1="71.75" y1="63.32" x2="144.25" y2="63.32"/><line class="cls-3" x1="71.75" y1="48.8" x2="144.25" y2="48.8"/><line class="cls-3" x1="71.75" y1="34.28" x2="144.25" y2="34.28"/><line class="cls-3" x1="71.75" y1="19.75" x2="144.25" y2="19.75"/><line class="cls-3" x1="71.75" y1="5.23" x2="144.25" y2="5.23"/><line class="cls-3" x1="71.75" y1="66.95" x2="144.25" y2="66.95"/><line class="cls-3" x1="71.75" y1="52.43" x2="144.25" y2="52.43"/><line class="cls-3" x1="71.75" y1="37.91" x2="144.25" y2="37.91"/><line class="cls-3" x1="71.75" y1="23.38" x2="144.25" y2="23.38"/><line class="cls-3" x1="71.75" y1="8.86" x2="144.25" y2="8.86"/><line class="cls-3" x1="71.75" y1="59.69" x2="144.25" y2="59.69"/><line class="cls-3" x1="71.75" y1="45.17" x2="144.25" y2="45.17"/><line class="cls-3" x1="71.75" y1="30.65" x2="144.25" y2="30.65"/><line class="cls-3" x1="71.75" y1="16.12" x2="144.25" y2="16.12"/><line class="cls-3" x1="71.75" y1="1.6" x2="144.25" y2="1.6"/><line class="cls-3" x1="-.25" y1="68.77" x2="72.25" y2="68.77"/><line class="cls-3" x1="-.25" y1="54.25" x2="72.25" y2="54.25"/><line class="cls-3" x1="-.25" y1="39.72" x2="72.25" y2="39.72"/><line class="cls-3" x1="-.25" y1="25.2" x2="72.25" y2="25.2"/><line class="cls-3" x1="-.25" y1="10.68" x2="72.25" y2="10.68"/><line class="cls-3" x1="-.25" y1="61.51" x2="72.25" y2="61.51"/><line class="cls-3" x1="-.25" y1="46.98" x2="72.25" y2="46.98"/><line class="cls-3" x1="-.25" y1="32.46" x2="72.25" y2="32.46"/><line class="cls-3" x1="-.25" y1="17.94" x2="72.25" y2="17.94"/><line class="cls-3" x1="-.25" y1="3.42" x2="72.25" y2="3.42"/><line class="cls-3" x1="-.25" y1="57.88" x2="72.25" y2="57.88"/><line class="cls-3" x1="-.25" y1="43.35" x2="72.25" y2="43.35"/><line class="cls-3" x1="-.25" y1="28.83" x2="72.25" y2="28.83"/><line class="cls-3" x1="-.25" y1="14.31" x2="72.25" y2="14.31"/><line class="cls-3" x1="-.25" y1="65.14" x2="72.25" y2="65.14"/><line class="cls-3" x1="-.25" y1="50.62" x2="72.25" y2="50.62"/><line class="cls-3" x1="-.25" y1="36.09" x2="72.25" y2="36.09"/><line class="cls-3" x1="-.25" y1="21.57" x2="72.25" y2="21.57"/><line class="cls-3" x1="-.25" y1="7.05" x2="72.25" y2="7.05"/><line class="cls-3" x1="-.25" y1="70.58" x2="72.25" y2="70.58"/><line class="cls-3" x1="-.25" y1="56.06" x2="72.25" y2="56.06"/><line class="cls-3" x1="-.25" y1="41.54" x2="72.25" y2="41.54"/><line class="cls-3" x1="-.25" y1="27.02" x2="72.25" y2="27.02"/><line class="cls-3" x1="-.25" y1="12.49" x2="72.25" y2="12.49"/><line class="cls-3" x1="-.25" y1="63.32" x2="72.25" y2="63.32"/><line class="cls-3" x1="-.25" y1="48.8" x2="72.25" y2="48.8"/><line class="cls-3" x1="-.25" y1="34.28" x2="72.25" y2="34.28"/><line class="cls-3" x1="-.25" y1="19.75" x2="72.25" y2="19.75"/><line class="cls-3" x1="-.25" y1="5.23" x2="72.25" y2="5.23"/><line class="cls-3" x1="-.25" y1="66.95" x2="72.25" y2="66.95"/><line class="cls-3" x1="-.25" y1="52.43" x2="72.25" y2="52.43"/><line class="cls-3" x1="-.25" y1="37.91" x2="72.25" y2="37.91"/><line class="cls-3" x1="-.25" y1="23.38" x2="72.25" y2="23.38"/><line class="cls-3" x1="-.25" y1="8.86" x2="72.25" y2="8.86"/><line class="cls-3" x1="-.25" y1="59.69" x2="72.25" y2="59.69"/><line class="cls-3" x1="-.25" y1="45.17" x2="72.25" y2="45.17"/><line class="cls-3" x1="-.25" y1="30.65" x2="72.25" y2="30.65"/><line class="cls-3" x1="-.25" y1="16.12" x2="72.25" y2="16.12"/><line class="cls-3" x1="-.25" y1="1.6" x2="72.25" y2="1.6"/><line class="cls-3" x1="-72.25" y1="68.77" x2=".25" y2="68.77"/><line class="cls-3" x1="-72.25" y1="54.25" x2=".25" y2="54.25"/><line class="cls-3" x1="-72.25" y1="39.72" x2=".25" y2="39.72"/><line class="cls-3" x1="-72.25" y1="25.2" x2=".25" y2="25.2"/><line class="cls-3" x1="-72.25" y1="10.68" x2=".25" y2="10.68"/><line class="cls-3" x1="-72.25" y1="61.51" x2=".25" y2="61.51"/><line class="cls-3" x1="-72.25" y1="46.98" x2=".25" y2="46.98"/><line class="cls-3" x1="-72.25" y1="32.46" x2=".25" y2="32.46"/><line class="cls-3" x1="-72.25" y1="17.94" x2=".25" y2="17.94"/><line class="cls-3" x1="-72.25" y1="3.42" x2=".25" y2="3.42"/><line class="cls-3" x1="-72.25" y1="57.88" x2=".25" y2="57.88"/><line class="cls-3" x1="-72.25" y1="43.35" x2=".25" y2="43.35"/><line class="cls-3" x1="-72.25" y1="28.83" x2=".25" y2="28.83"/><line class="cls-3" x1="-72.25" y1="14.31" x2=".25" y2="14.31"/><line class="cls-3" x1="-72.25" y1="65.14" x2=".25" y2="65.14"/><line class="cls-3" x1="-72.25" y1="50.62" x2=".25" y2="50.62"/><line class="cls-3" x1="-72.25" y1="36.09" x2=".25" y2="36.09"/><line class="cls-3" x1="-72.25" y1="21.57" x2=".25" y2="21.57"/><line class="cls-3" x1="-72.25" y1="7.05" x2=".25" y2="7.05"/><line class="cls-3" x1="-72.25" y1="70.58" x2=".25" y2="70.58"/><line class="cls-3" x1="-72.25" y1="56.06" x2=".25" y2="56.06"/><line class="cls-3" x1="-72.25" y1="41.54" x2=".25" y2="41.54"/><line class="cls-3" x1="-72.25" y1="27.02" x2=".25" y2="27.02"/><line class="cls-3" x1="-72.25" y1="12.49" x2=".25" y2="12.49"/><line class="cls-3" x1="-72.25" y1="63.32" x2=".25" y2="63.32"/><line class="cls-3" x1="-72.25" y1="48.8" x2=".25" y2="48.8"/><line class="cls-3" x1="-72.25" y1="34.28" x2=".25" y2="34.28"/><line class="cls-3" x1="-72.25" y1="19.75" x2=".25" y2="19.75"/><line class="cls-3" x1="-72.25" y1="5.23" x2=".25" y2="5.23"/><line class="cls-3" x1="-72.25" y1="66.95" x2=".25" y2="66.95"/><line class="cls-3" x1="-72.25" y1="52.43" x2=".25" y2="52.43"/><line class="cls-3" x1="-72.25" y1="37.91" x2=".25" y2="37.91"/><line class="cls-3" x1="-72.25" y1="23.38" x2=".25" y2="23.38"/><line class="cls-3" x1="-72.25" y1="8.86" x2=".25" y2="8.86"/><line class="cls-3" x1="-72.25" y1="59.69" x2=".25" y2="59.69"/><line class="cls-3" x1="-72.25" y1="45.17" x2=".25" y2="45.17"/><line class="cls-3" x1="-72.25" y1="30.65" x2=".25" y2="30.65"/><line class="cls-3" x1="-72.25" y1="16.12" x2=".25" y2="16.12"/><line class="cls-3" x1="-72.25" y1="1.6" x2=".25" y2="1.6"/></pattern></defs><g id="Calque_20"><polyline class="cls-2" points="244.49 198.52 244.76 197.92 245.06 197.37 245.13 197.2 245.56 196.11 245.93 195.66 246.18 194.88 246.66 193.98 246.83 193.76 247.21 193.53 247.31 193.19 247.31 193.19 247.33 192.97 247.38 192.8 247.57 192.4 247.64 192.11 247.69 191.99 247.92 191.76 248.15 191.33 248.35 191.07 248.92 190.43 249.16 190.02 249.31 189.51 249.34 189.36 249.36 189.23 249.43 188.98 249.88 188.06 249.9 187.83 249.92 187.57 249.95 187.4 250.03 187.27 250.28 187.05 250.39 186.89 250.81 185.91 250.85 185.72 250.85 185.36 250.9 185.18 251.32 184.34 251.71 182.94 252.16 181.32 252.16 181.32 252.17 181.31 252.57 180.39 252.88 179.42 252.9 179.07 252.93 178.96 252.99 178.87 253.13 178.72 253.4 178.19 253.78 177.65 253.83 177.53 253.86 177.39 253.87 177.03 253.9 176.91 254.29 175.99 254.3 175.75 254.32 175.63 254.36 175.53 254.54 175.31 254.54 175.31 254.55 175.31 254.6 175.16 254.61 174.94 254.56 174.44 254.57 174.19 254.66 173.81 254.66 173.58 254.56 172.6 254.55 172.16 254.61 171.75 254.73 170.86 254.54 170.78 254.39 170.57 254.25 170.35 254.08 170.21 254.01 170.18 253.88 170.11 253.45 169.76 253.28 169.67 252.93 169.54 252.77 169.42 252.67 169.3 252.56 169.12 252.47 168.92 252.4 168.74 252.3 168.56 252.16 168.43 252 168.34 250.92 168.01 249.99 167.38 248.29 166.99 248.13 166.93 247.99 166.77 247.61 166.46 246.86 166.16 245.42 165.19 245.25 164.96 245.31 164.89 245.48 164.66 246.04 164.19 246.19 163.75 246.26 163.04 246.72 161.89 246.72 161.89 246.81 161.55 246.84 161.23 246.76 160.9 246.52 160.52 246.39 160.36 246.29 160.22 246.23 160.06 246.24 159.85 246.21 159.64 246.07 159.53 245.91 159.48 245.65 159.49 245.5 159.38 245.35 159.24 245.18 159.1 244.92 159 244.19 158.97 243.83 158.87 243.61 158.76 243.47 158.6 243.42 158.34 243.44 158.07 243.39 157.84 243.19 157.69 242.96 157.63 242.96 157.56 242.94 157.54 242.89 157.53 242.87 157.5 242.86 157.48 242.86 157.45 242.85 157.42 242.8 157.34 242.75 157.26 242.69 157.09 242.67 157.08 242.64 157.07 242.62 157.05 242.62 156.99 242.63 156.94 243.23 156.38 243.29 156.25 243.33 156.06 243.29 155.87 243.16 155.7 242.94 155.56 242.87 155.5 242.79 155.41 242.76 155.36 242.75 155.3 242.72 155.17 242.71 155.07 242.71 155 242.68 154.94 242.59 154.89 242.4 154.85 241.64 155.07 241.2 155.09 240.74 154.77 240.26 154.19 239.83 153.44 239.74 153.01 239.77 152.71 239.89 152.51 240.46 152.18 240.52 152.01 240.5 151.87 240.44 151.86 240.36 151.86 240.29 151.79 240.26 151.7 240.27 151.62 240.3 151.54 240.31 151.45 240.17 151.09 239.87 151.05 239.31 151.24 239.05 151.1 239.09 150.73 239.34 150.04 239.27 149.68 238.95 148.84 238.87 148.47 238.87 148.47 238.87 148.41 238.88 148.26 239.08 147.77 239.09 147.64 238.9 147.48 238.53 147.34 238.35 147.18 238.54 146.92 239.4 146.36 239.69 146.44 239.84 146.45 239.88 146.34 239.82 146.13 239.72 145.9 239.32 145.05 239.23 144.88 238.96 144.52 238.69 144.07 238.59 143.93 238.31 143.58 238.21 143.42 237.86 142.71 237.66 142.36 237.49 142.14 237.02 141.79 236.14 140.92 235.73 140.43 235.55 140.15 235.37 139.84 235.29 139.66 235.12 139.27 235.03 139.12 234.35 138.51 234.29 138.44 234.24 138.35 234.21 138.25 234.17 138.17 234 138.02 233.99 138 233.67 137.53 232.31 136.28 231.96 135.64 231.89 134.79 231.89 134.79 232.41 132.12 232.53 131.83 232.54 131.76 232.54 131.69 232.53 131.5 232.54 131.39 233.37 128.95 233.38 128.76 233.33 128.3 233.31 128.16 233.14 127.54 233.11 127.41 233.12 127.3 233.15 127.15 231.74 126.45 231.41 126.22 230.37 125.1 230.14 124.85 229.64 124.31 229.48 124.18 229.34 124.13 228.16 123.99 226.99 123.85 226.83 123.79 226.67 123.61 225.25 121.32 225.1 121.06 224.98 120.85 224.94 120.7 224.94 120.57 225.31 118.54 225.32 118.2 225.29 117.42 224.94 117.21 224.63 117.23 223.94 117.48 223.87 117.46 223.79 117.38 223.73 117.2 223.88 117.14 224.58 116.24 224.95 115.97 225.24 115.44 225.25 115.44 225.29 115.36 225.41 115.3 225.61 115.24 225.76 115.08 225.88 114.82 225.95 114.48 225.97 114.31 225.96 114.16 225.91 113.78 225.91 113.69 225.93 113.53 225.93 113.44 225.9 113.35 225.88 113.26 225.86 113.19 225.87 113.09 225.81 112.81 225.8 112.67 225.87 112.4 226.03 112.23 226.61 112.04 226.77 111.89 226.92 111.55 226.98 111.49 227.49 111.33 227.62 111.19 227.66 111.11 227.71 110.87 227.98 110.3 227.99 110.17 227.96 110.06 227.92 109.95 227.89 109.81 227.88 109.66 227.89 109.59 227.96 109.49 227.99 109.38 228 109.26 227.97 109.07 227.88 108.85 227.79 108.68 227.73 108.63 227.5 108.6 227.39 108.53 227.34 108.47 227.41 108.41 227.55 108.34 227.72 108.34 227.98 108.43 228.85 108.95 228.99 109 229.86 108.88 230.17 108.73 230.26 108.5 230.25 108.16 230.21 108 229.94 107.27 229.79 107.15 229.69 107.03 229.66 106.97 229.62 106.86 229.55 106.7 229.48 106.6 229.35 106.47 229.2 106.1 229.08 106.28"/><polyline class="cls-2" points="221.54 257.73 221.54 257.78 221.95 257.32 222.08 257.27 222.29 257.42 222.74 257.97 222.97 258.1 223.55 258.03 223.8 258.11 224.25 258.35 224.37 258.47 224.48 258.53 224.89 258.56 225.11 258.69 225.23 258.75 225.44 258.77 225.59 258.83 225.65 258.85 225.7 258.82 225.83 258.68 225.97 258.64 226.05 258.68 226.08 258.78 226.11 258.95 226.19 259.1 226.34 259.19 226.5 259.21 226.63 259.18 226.72 259.08 226.77 258.98 226.83 258.89 227.41 258.62 227.52 258.62 228.49 258.57 229.05 258.29 229.2 258.34 229.24 258.38 229.31 258.43 229.4 258.62 229.58 259.05 229.69 259.26 229.78 259.36 229.89 259.4 230.2 259.34 230.26 259.35 230.31 259.38 230.36 259.44 230.42 259.49 230.51 259.51 230.47 259.65 230.53 259.72 230.9 259.82 230.98 259.89 231.05 260.01 231.21 260.39 231.27 260.57 231.28 260.75 231.24 260.94 231.17 261.05 231.02 261.21 230.96 261.35 230.93 261.42 230.84 261.49 230.79 261.55 230.74 261.57 230.72 261.6 230.72 261.64 230.74 261.69 230.76 261.73 230.77 261.77 230.68 261.98 230.67 262.05 230.68 262.15 230.76 262.37 230.79 262.48 230.79 262.66 230.75 263.16 230.85 263.94 230.95 264.32 231.17 264.63 231.63 265.19 231.25 265.39 230.16 265.52 228.8 265.69 227.18 265.87 225.56 266.06 223.03 266.32 220.95 266.54 219.26 266.7 217.58 266.85 215.32 267.05 214.11 267.15 213.66 267.19 213.36 267.13 213.22 267.04"/><polyline class="cls-2" points="290.96 379.84 290.91 379.75 290.93 379.62 290.89 379.49 290.81 379.37 290.71 379.3 290.73 379.29 290.75 379.28 290.76 379.27 290.74 379.22 290.65 379.18 290.57 379.12 290.51 379.04 290.52 378.92 290.41 378.91 290.33 378.84 290.26 378.75 289.81 378.6 289.63 378.36 289.56 378.31 289.31 378.23 289.32 378.2 289.33 378.12 289.33 378.08 289.24 378.06 289.12 377.99 289.02 377.92 288.97 377.86 288.92 377.8 288.62 377.69 288.62 377.65 288.62 377.64 288.65 377.61 288.44 377.5 288.36 377.33 288.41 377.13 288.55 376.93 288.48 376.9 288.43 376.85 288.42 376.8 288.45 376.74 288.44 376.67 288.33 376.71 288.24 376.76 288.16 376.79 288.04 376.77 287.94 376.69 287.87 376.56 287.85 376.43 287.89 376.32 287.82 376.32 287.79 376.3 287.71 376.22 287.81 376.14 287.85 376.11 287.83 376.04 287.75 376.08 287.69 376.08 287.64 376.04 287.6 375.95 287.46 376.12 287.34 376.12 287.24 376.01 287.16 375.86 287.18 375.83 287.2 375.83 287.2 375.82 287.19 375.77 287.09 375.77 287.02 375.81 286.96 375.87 286.87 375.93 286.8 375.91 286.73 375.86 286.67 375.87 286.62 375.98 286.47 375.9 286.41 375.96 286.38 376.09 286.31 376.2 286.23 376.19 285.95 376.01 285.94 376.22 285.98 376.25 285.98 376.25 285.97 376.27 285.97 376.35 285.91 376.2 285.9 376.15 285.91 376.08 285.8 376.01 285.77 375.86 285.82 375.75 285.96 375.79 285.99 375.52 285.98 375.27 286.03 375.04 286.22 374.87 286.89 374.73 287.02 374.76 286.92 374.61 286.78 374.35 286.71 374.1 286.82 373.95 286.97 373.89 287.25 373.67 287.44 373.59 287.32 373.56 287.25 373.5 287.22 373.41 287.22 373.3 287.24 373.15 287.27 373.08 287.34 373.05 287.67 372.98 288.07 372.95 288.43 372.84 288.43 372.77 288.41 372.58 288.3 372.11 288.2 371.87 288.1 371.67 288.06 371.51 288.18 371.36 288.11 371.22 288 370.55 287.93 370.36 287.72 369.94 287.66 369.72 287.66 369.61 287.7 369.52 287.75 369.44 287.78 369.34 287.77 368.84 287.81 368.38 287.79 368.26 287.73 368.2 287.44 368.08 287.42 368.01 287.49 367.99 287.54 367.96 287.6 367.89 288.06 367.64 288.16 367.51 288.22 367.33 288.38 366.19 288.39 366.1 288.52 365.78 288.76 365.55 288.9 365.5 289.37 365.4 289.49 365.34 289.73 365.14 289.88 365.06 290.22 365.04 290.42 365.07 290.52 365.14 290.6 365.19 290.96 365.28 291.09 365.39 291.05 365.22 291.06 365.09 291.11 364.98 291.36 364.58 291.43 364.52 291.51 364.39 291.57 364.09 291.61 363.75 291.62 363.48 291.58 363.34 291.5 363.25 291.4 363.15 291.29 363 291.24 362.88 290.98 361.68 290.97 361.55 290.98 361.44 290.95 361.34 290.92 361.23 290.92 361.13 290.93 361.04 290.87 360.95 290.87 360.86 290.89 360.75 290.87 360.19 290.88 360.09 290.97 359.7 290.96 359.57 290.99 359.26 290.98 359.07 291.03 358.96 291.02 358.88 291.01 358.82 290.77 358.34 290.46 357.58 290.37 357.41 290.39 357.31 290.44 357.21 290.52 357.17 290.62 357.2 290.56 357.15 290.56 357.06 290.51 356.91 290.33 356.63 290.17 356.45 290.12 356.34 290.04 355.97 290.02 355.82 290.03 355.7 290.08 355.56 290.15 355.46 290.25 355.38 290.35 355.43 290.35 355.3 290.37 355.06 290.79 354.06 291.05 353.72 291.29 352.72 291.31 352.54 291.31 352.33 291.29 352.54 291.26 352.69 291.19 352.82 291.07 352.89 290.96 352.97 290.87 353.14 290.73 353.48 290.62 353.61 290.57 353.7 290.58 353.94 290.56 354.06 290.53 354.15 290.47 354.15 290.39 353.97 290.38 353.69 290.4 353.42 290.43 353.27 290.32 353.22 290.21 353.19 290.2 353.23 290.16 353.29 290.14 353.34 290.11 353.19 290.19 353.07 290.44 352.91 290.34 352.9 290.26 352.86 290.22 352.79 290.23 352.68 290.14 352.71 290.14 352.57 290.19 352.49 290.27 352.44 290.38 352.43 290.38 352.54 290.32 352.8 290.39 352.69 290.68 352.42 290.79 352.32 290.95 352.04 291.06 351.9 291.07 351.83 291.09 351.77 291.12 351.74 291.16 351.73 291.28 351.77 291.4 351.71 291.41 351.67 291.34 351.62 291.32 351.54 291.5 351.59 291.52 351.76 291.46 351.98 291.38 352.17 291.52 352.08 291.6 351.9 291.61 351.69 291.54 351.52 291.41 351.47 290.89 351.44 291.04 351.62 290.95 351.84 290.83 352.03 290.69 352.17 290.34 352.33 290.27 352.31 290.21 352.15 290.21 352.01 290.33 351.93 290.33 351.8 290.24 351.91 290.19 351.87 290.17 351.74 290.2 351.59 290.25 351.5 290.61 351.14 290.67 351.09 290.98 350.99 291.06 350.95 291.11 350.88 291 350.82 290.92 350.74 290.91 350.65 290.98 350.57 290.96 350.5 290.93 350.49 290.85 350.45 290.91 350.43 290.94 350.39 291.01 350.27 290.59 350.01 290.42 349.98 290.35 349.94 290.28 349.88 290.24 349.8 290.25 349.76 290.27 349.74 290.3 349.7 290.3 349.64 290.27 349.58 290.19 349.55 290.17 349.5 290.16 349.28 290.2 349.15 290.4 348.84 290.46 348.79 290.61 348.74 290.68 348.68 290.69 348.59 290.69 348.49 290.71 348.44 290.77 348.4 291.01 348.42 291.22 348.36 291.32 348.38 291.66 348.5 291.75 348.59 291.7 348.73 291.41 348.94 291.38 349.14 291.55 349.73 291.62 349.9 291.74 350.02 291.82 349.97 291.9 349.87 292.02 349.86 291.99 349.76 291.96 349.68 291.88 349.54 292.14 349.7 292.26 349.81 292.33 349.92 292.35 350.15 292.26 350.36 292.14 350.51 291.88 350.65 291.66 350.85 291.5 350.92 291.36 351.03 291.44 351.17 291.58 351.32 291.61 351.47 291.67 351.53 291.79 351.23 291.94 350.98 292.51 350.31 292.74 350.17 293.58 349.88 294.87 349.31 294.93 349.27 294.99 349.22 295.06 349.18 295.22 349.22 295.26 349.16 295.32 348.98 295.38 348.92 295.44 348.89 295.48 348.84 295.5 348.71 295.36 348.56 295.47 348.24 295.37 348.04 295.4 347.93 295.38 347.79 295.35 347.63 295.33 347.48 295.35 347.18 295.35 347.01 295.18 346.13 295.2 345.84 295.31 345.63 295.08 345.67 294.93 345.57 294.81 345.42 294.67 345.3 294.66 345.24 294.83 345.19 294.9 345.18 294.91 345.1 294.91 345.02 294.88 344.96 294.83 344.91 294.84 344.6 294.71 344.23 294.51 343.93 294.32 343.82 294.23 343.8 293.84 343.6 292.81 343.51 292.27 343.6 292.2 343.59 292.11 343.58 292.04 343.58 291.99 343.64 291.96 343.7 291.92 343.76 291.87 343.82 291.82 343.86 291.67 343.9 291.56 343.91 291.45 343.94 291.32 344.06 291.24 344.18 291.2 344.27 291.19 344.34 291.17 344.38 291 344.43 290.95 344.48 290.88 344.61 290.78 344.69 290.52 344.85 290.24 345.23 290.16 345.3 290.01 345.35 289.96 345.38 289.92 345.43 289.9 345.52 289.92 345.72 289.91 345.79 289.77 345.89 289.61 345.85 289.47 345.76 289.37 345.72 289.2 345.73 288.99 345.64 288.88 345.64 288.71 345.73 288.73 345.87 288.78 346.01 288.61 346.17 288.61 346.24 288.65 346.33 288.71 346.39 288.76 346.42 288.98 346.46 288.92 346.57 288.85 346.63 288.63 346.69 288.39 346.79 287.43 346.82 286.79 346.67 286.14 346.66 285.87 346.58 285.74 346.58 285.56 346.52 285.37 346.31 285.04 345.83 285.03 345.63 284.85 345.48 284.63 345.42 284.48 345.47 284.46 345.48 284.34 345.39 284.11 345.21 284.04 345.12 283.96 344.79 283.94 344.77 283.92 344.76 283.88 344.7 283.72 344.52 283.53 344.44 283.1 344.33 283.16 344.2 283.25 344.06 283.34 343.95 283.42 343.9 283.65 343.84 283.73 343.77 283.66 343.65 283.64 343.49 283.34 342.53 283.27 342.45 283.09 342.24 282.91 341.97 282.83 341.7 282.84 341.64 282.92 341.55 282.93 341.5 282.9 341.46 282.81 341.35 282.78 341.28 282.77 341.21 282.78 341.12 282.78 341.05 282.73 340.97 282.67 340.92 282.64 340.86 282.6 340.76 282.32 340.31 282.27 340.17 282.26 340.07 282.26 339.71 282.24 339.66 282.2 339.64 282.18 339.59 282.19 339.53 282.23 339.48 282.25 339.33 282.25 339.28 282.29 338.92 282.27 338.67 282.29 338.42 282.25 338.34 282.2 338.28 282.14 338.24 281.97 338.06 281.93 337.98 282 337.93 282.08 337.89 282.08 337.83 282.02 337.67 282.03 337.59 282.08 337.54 282.15 337.5 282.21 337.45 282.27 337.35 282.32 337.12 282.32 337.09 282.28 336.97 282.21 336.77 282.21 336.7 282.28 336.65 282.3 336.6 282.27 336.29 282.3 336.24 282.35 336.2 282.36 336.19 282.38 336.13 282.3 336.01 282.38 335.94 282.4 335.86 282.39 335.77 282.32 335.47 282.29 335.39 282.26 335.38 282.24 335.4 282.2 335.38 282.07 335.23 282.04 335.16 281.97 334.79 281.97 334.71 282.02 334.65 281.93 334.5 281.93 334.35 281.97 334.22 281.99 334.1 281.95 333.96 281.91 333.86 281.9 333.83 281.77 333.58 281.21 332.92 281.17 332.73 280.79 332.34 280.61 332.09 280.6 332.01 280.58 331.89 280.57 331.82 280.47 331.74 280.45 331.62 280.42 331.51 280.29 331.46 280.31 331.3 280.3 331.27 280.25 331.13 280.03 330.81 279.9 330.67 279.63 330.45 279.62 330.44 279.53 330.3 279.41 330.39 279.25 330.36 279.07 330.3 278.9 330.31 278.86 330.17 278.76 330.12 278.55 330.04 278.29 329.86 278.22 329.83 278.15 329.83 278.11 329.8 278.14 329.72 278.12 329.66 277.8 329.57 277.69 329.48 277.76 329.44 277.76 329.39 277.73 329.34 277.69 329.27 277.68 329.26 277.54 329.01 277.32 328.84 277.22 328.73 277.2 328.61 277.01 328.41 276.92 328.35 276.75 328.35 276.69 328.33 276.63 328.3 276.55 328.27 276.36 328.27 276.3 328.26 276.18 328.13 275.93 327.79 275.84 327.74 275.83 327.73 275.72 327.69 275.7 327.38 275.56 327.3 275.55 327.18 275.55 327.07 275.57 326.99 275.61 326.93 275.55 326.85 275.44 326.79 275.33 326.76 275.23 326.74 275.22 326.75 275.05 326.79 275.01 326.78 274.98 326.76 274.94 326.75 274.88 326.75 274.79 326.71 274.72 326.57 274.61 326.32 274.59 326.32 274.52 326.33 274.49 326.32 274.46 326.28 274.45 326.19 274.43 326.15 274.4 326.1 274.34 325.98 274.31 325.93 274.3 325.9 274.07 325.87 273.85 325.73 273.29 325.26 273.08 325.04 272.97 324.84 273.11 324.77 273.09 324.71 273.04 324.64 273.03 324.54 272.99 324.46 272.98 324.44 272.94 324.42 272.81 324.36 272.77 324.32 272.72 324.25 272.61 324.12 272.49 324 272.4 323.95 272.59 323.76 272.52 323.68 272.44 323.67 272.36 323.66 272.27 323.62 272.27 323.56 272.18 323.26 272.18 323.22 272.03 323.1 271.86 323.05 271.77 322.98 271.85 322.8 271.84 322.75 271.83 322.74 271.79 322.72 271.63 322.64 271.69 322.55 271.71 322.46 271.68 322.37 271.59 322.3 271.51 322.37 271.42 322.25 271.31 322.14 271.16 322.26 271.13 322.23 271.12 322.2 271.1 322.17 271.08 322.13 271.2 322.04 271.18 321.96 270.99 321.91 270.8 321.8 270.64 321.64 270.54 321.41 270.54 321.35 270.59 321.25 270.58 321.2 270.58 321.19 270.54 321.15 270.47 321.11 270.41 321.1 270.34 321.19 270.21 321.17 270.01 321.11 269.99 321.04 270.12 321.01 270.18 320.92 270.16 320.83 269.91 320.8 269.84 320.7 269.78 320.6 269.68 320.55 269.64 320.62 269.59 320.74 269.53 320.79 269.47 320.63 269.41 320.57 269.07 320.35 269.01 320.41 268.82 320.25 268.7 320.22 268.44 320.34 268.31 320.34 268.2 320.21 268.16 320.34 268.08 320.34 267.9 320.24 267.76 320.28 267.48 320.5 267.3 320.64 266.52 321.01 266.42 321.07 266.11 321.15 266.01 321.21 265.82 321.36 265.71 321.42 265.59 321.44 265.53 321.43 265.56 321.77 265.61 321.98 265.61 322.31 265.57 322.64 265.52 322.87 265.46 322.98 265.32 323.17 265.26 323.29 265.19 323.66 265.15 323.77 264.87 323.99 264.72 324.02 264.24 324.14 263.85 324.35 263.53 324.39 263.42 324.44 263.24 324.57 262.91 324.69 262.51 324.96 259.36 326.01 259.11 326.26 258.69 327.46 258.47 327.79 258.46 327.79 258.09 328.06 257.61 328.25 257.52 328.28 257.32 328.37 257.18 328.31 256.97 328.1 256.67 327.74 256.57 327.64 256.45 327.57 255.88 327.47 255.63 327.38 255.48 327.26 255.43 327.15 255.4 327.02 255.32 326.87 255.2 326.76 255 326.66 254.72 326.56 254.66 326.54 254.52 326.53 254.15 326.61 253.76 326.6 253.63 326.63 253.5 326.74 253.28 327.02 252.96 327.09 252.56 327.4 252.41 327.42 251.99 327.35 251.98 327.36 251.86 327.36 251.58 327.17 251.44 327.14 251.09 327.11 250.97 327.05 250.76 327.08 250.15 327.49 250.01 327.51 249.93 327.37 249.53 327.12 249.41 327.08 248.96 327.19 248.8 327.2 248.51 327.16 248.07 327.19 247.94 327.17 247.7 327.26 247.64 327.3 247.58 327.37 247.56 327.44 247.53 327.51 247.51 327.56 247.49 327.58 247.47 327.6 247.33 327.64 246.86 327.5 246.85 327.5 246.84 327.5 246.83 327.5 246.82 327.51 246.77 327.54 246.73 327.55 246.68 327.56 246.62 327.54 246.45 327.4 246.08 327.18 245.75 326.91 245.62 326.84 245.13 326.77 244.98 326.77 244.86 326.86 244.76 327.08 244.69 327.57 244.63 327.76 244.39 328.03 244.29 328.07 244.18 328.06 244.06 328.01 243.95 327.96 243.82 327.92 243.72 327.95 243.69 328.08 243.78 328.27 243.74 328.41 243.64 328.51 243.51 328.58 243.23 328.42 243.16 328.31 243.25 328.15 243.23 327.99 243.26 327.9 243.27 327.79 243.19 327.61 243.1 327.49 242.99 327.39 242.76 327.24 242.5 327.15 242.47 327.1 242.35 327.05 242.24 327.1 242.14 327.2 242.03 327.26 241.55 327.34 241.47 327.4 241.46 327.41 241.41 327.37 241.26 327.16 241.12 326.86 240.99 326.67 240.4 326.1 240.37 326.09 240.34 326.09 240.31 326.1 240.2 326.19 240.09 326.21 239.99 326.21 239.85 326.18 239.82 326.18 239.79 326.19 239.77 326.2 239.72 326.26 239.68 326.28 239.62 326.27 239.58 326.24 239.17 325.79 239.07 325.6 239.04 325.47 239.03 325.35 239.02 325.25 238.95 325.18 238.91 325.17 238.73 325.22 238.7 325.06 238.75 324.74 238.5 324.66 238.27 324.67 238.07 324.8 238.01 324.88 238.01 324.88 238 324.88 237.84 324.88 237.73 324.17 237.77 323.99 237.77 323.83 237.63 323.44 237.61 323.24 237.68 323.06 238.05 322.64 238.08 322.56 238.12 322.39 238.16 322.32 238.23 322.25 238.4 322.16 238.47 322.1 238.55 321.94 238.6 321.74 238.61 321.52 238.56 321.31 238.56 321.18 238.6 321.1 238.65 321.04 238.7 320.95 238.73 320.83 238.73 320.76 238.66 320.43 238.63 320.35 238.62 320.27 238.65 320.14 238.66 320.12 238.69 320.04 238.83 319.88 238.88 319.78 238.88 319.72 238.86 319.59 238.86 319.54 238.91 319.35 238.98 318.91 239.08 318.8 239.32 318.72 239.41 318.62 239.38 318.45 239.37 318.22 239.38 317.98 239.4 317.81 239.51 317.66 239.65 317.67 239.94 317.9 240.12 317.98 240.26 317.98 240.4 317.94 240.63 317.91 240.77 317.85 240.84 317.84 240.92 317.89 241.07 318.04 241.15 318.05 241.27 318.09 241.44 318.2 241.58 318.23 241.63 318.06 241.61 318.03 241.6 318.01 241.46 317.85 241.42 317.76 241.4 317.62 241.43 317.42 241.41 317.33 241.32 317.24 241 317.13 240.86 317.06 240.63 316.85 240.4 316.74 240.42 316.73 240.43 316.72 240.31 316.67 240.25 316.79 240.22 316.82 240.17 316.77 240.19 316.64 240.25 316.41 240.28 316.04 240.34 315.72 240.34 315.57 240.1 314.68 240.04 314.53 239.99 314.46 239.83 314.34 239.72 314.22 239.69 314.17 239.65 314.06 239.54 313.64 239.47 313.51 239.29 313.17 239.38 312.76 239.75 312.02 239.81 311.68 239.84 311.59 239.9 311.51 240.03 311.46 240.1 311.42 240.19 311.29 240.46 310.5 240.5 310.42 240.56 310.37 240.66 310.31 240.71 310.24 240.72 310.16 240.74 309.96 240.76 309.87 240.98 309.55 241.49 308.4 241.69 308.08 241.89 307.85 242.03 307.52 243.19 305.67 243.43 305.4 243.73 305.07 243.73 305.07 243.89 304.88 244.28 304.25 244.35 304.1 244.35 304.09 244.38 303.81 244.42 303.65 244.49 303.55 244.59 303.48 244.79 303.36 245.93 303.13 246.23 302.93 246.31 302.58 246.31 302.47 246.3 302.34 246.25 302.15 246.25 302.02 246.61 301.73 246.71 301.58 246.76 301.45 246.77 301.43 246.73 301.41 246.66 301.29 246.5 300.83 246.6 300.55 246.6 300.55 246.36 300.19 246.28 299.99 246.27 299.76 246.09 299.75 245.91 299.68 245.79 299.55 245.84 299.36 245.82 299.29 245.65 299.31 245.48 299.27 245.37 299.16 245.32 298.97 245.36 298.79 245.49 298.65 245.65 298.59 245.84 298.66 245.95 298.57 246.16 298.53 246.34 298.46 246.38 298.27 246.28 298.16 245.7 297.98 245.21 297.67 245.09 297.53 245.03 297.41 245 297.32 244.97 297.24 244.88 297.15 244.8 297.11 244.71 297.09 244.66 297.06 244.67 296.98 244.66 296.92 244.51 296.52 244.43 296.4 244.22 296.17 244.09 296 244.09 295.9 244.19 295.83 244.09 295.72 243.74 295.48 243.39 295.34 243.22 295.19 242.73 294.5 242.62 294.46 242.5 294.48 242.39 294.44 242.31 294.24 242.32 294.1 242.38 293.94 242.46 293.8 242.57 293.74 242.51 293.61 242.49 293.51 242.52 293.43 242.59 293.38 242.52 293.28 242.2 292.95 242.17 292.89 242.23 292.67 242.14 292.63 242.02 292.61 241.91 292.56 241.84 292.43 241.82 292.37 241.77 292.24 241.67 292.21 241.57 292.19 241.46 292.05 241.51 292.05 241.55 292.03 241.37 291.83 241.29 291.7 241.24 291.56 241.23 291.29 241.2 291.19 241.11 291.13 241.1 291.06 241.15 291.04 241.19 291.01 241.25 290.9 241.21 290.86 241.16 290.8 241.13 290.74 241.15 290.71 241.2 290.67 241.17 290.61 241.12 290.55 241.09 290.5 241.08 290.27 241.08 290.16 241.09 290.08 241.17 289.94 241.29 289.84 241.38 289.7 241.41 289.45 241.27 289.32 241.14 289.16 241.19 289.07 241.17 288.85 241.24 288.79 241.23 288.75 241.22 288.74 241.21 288.74 241.19 288.73 241.2 288.61 241.15 288.29 241.15 288.1 241.22 287.81 241.27 287.66 241.35 287.58 241.25 287.42 241.09 287.06 241.02 286.95 240.99 286.84 240.95 286.73 240.86 286.69 240.8 286.67 240.75 286.62 240.71 286.54 240.65 286.47 240.53 286.43 240.24 286.49 240.11 286.47 239.88 286.17 239.9 286.13 239.89 286.01 239.86 285.94 239.78 286.05 239.73 286.02 239.66 285.98 239.62 285.94 239.56 286.05 239.5 286.05 239.44 286.01 239.35 285.99 239.27 286.04 239.25 286.02 239.28 285.93 239.27 285.86 239.14 285.87 238.74 285.8 238.64 285.74 238.56 285.79 238.1 285.75 237.95 285.69 237.96 285.5 237.92 285.38 237.84 285.29 237.78 285.26 237.73 285.23 237.71 285.23 237.89 284.61 237.97 284.41 238.15 284.07 238.68 282.8 239.12 282.26 239.59 281.85 240.54 281.37 241.23 280.67 241.41 280.33 241.41 279.89 241.34 279.59 241.06 278.41 241.03 278.33 240.99 278.29 240.96 278.23 240.93 278.13 240.93 278.05 240.98 277.9 240.98 277.84 240.96 277.76 240.86 277.49 240.85 277.43 240.84 277.31 240.81 277.23 240.71 277.1 240.49 276.9 240.41 276.75 240.38 276.55 240.41 276.4 240.46 276.27 240.48 276.12 240.45 275.87 240.36 275.77 240.25 275.71 240.12 275.61 240.02 275.47 239.94 275.34 239.86 275.21 239.72 275.09 239.57 274.83 239.15 273.94 238.97 273.65 238.58 273.12 237.79 271.68 237.52 271.01 237.39 270.41 237.2 270.23 237.1 270.04 236.95 269.52 236.84 269.28 236.72 269.07 236.61 268.84 236.55 268.55 236.76 268.56 237.35 268.78 237.45 268.8 237.54 268.77 237.8 268.6 238.16 268.47 238.24 268.38 238.33 268.33 238.37 268.33 238.48 268.37 238.54 268.37 238.58 268.36 238.97 268.01 239.06 267.98 239.16 268 239.35 268.08 239.45 268.08 239.82 268.01 239.98 267.92 240.3 267.66 240.48 267.58 240.68 267.61 240.88 267.78 241.04 268.04 241.12 268.13 241.23 268.12 241.43 268.08 241.63 268.1 241.83 268.05 242.02 267.9 242.56 267.17 242.82 266.94 243.17 266.79 243.29 266.66 243.31 266.65 243.33 266.65 243.36 266.66 243.47 266.83 243.57 266.9 243.68 266.89 244.04 266.75 244.13 266.67 244.17 266.49 244.17 266.49 244.17 266.49 244.13 266.21 244.04 266.04 243.92 265.88 243.81 265.69 243.75 265.54 243.75 265.51 243.79 265.49 243.83 265.42 243.92 265.33 243.92 265.29 243.9 265.23 243.88 265.15 243.89 265.08 244.04 264.94 244.06 264.92 244.32 264.84 244.6 264.82 245.09 264.9 245.34 264.8 245.55 264.59 245.73 264.27 245.78 264.05 245.8 263.56 245.84 263.41 245.94 263.37 246.33 263.42 246.8 263.3 246.92 263.18 247.07 262.78 247.2 262.68 247.28 262.68 247.32 262.71 247.37 262.76 247.89 263.23 247.85 263.28 247.71 263.3 247.61 263.39 247.62 263.49 247.77 263.53 247.82 263.61 247.8 263.69 247.65 263.79 247.62 263.87 247.7 264.03 247.86 264.13 248.03 264.17 248.56 264.15 248.69 264.11 248.74 264.06 248.8 263.92 248.85 263.88 249.08 263.86 249.14 263.83 249.25 263.7 249.26 263.54 249.17 263.09 249.18 263.04 249.22 262.93 249.23 262.88 249.2 262.83 249.17 262.81 249.13 262.81 249.1 262.78 249.04 262.68 248.98 262.6 248.91 262.54 248.84 262.49 248.81 262.49 248.75 262.53 248.73 262.53 248.7 262.49 248.6 262.33 248.56 262.24 248.51 262.17 248.42 262.14 248.34 262.18 248.03 262.44 247.79 262.51 247.66 262.49 247.55 262.38 247.5 262.13 247.56 261.89 247.75 261.52 247.81 261.28 247.79 261.09 247.74 260.88 247.7 260.62 247.72 260.41 247.78 260.27 248.08 259.99 248.17 259.85 248.21 259.68 248.2 259.47 248.12 259.29 247.9 258.97 247.82 258.79 247.8 258.66 247.8 258.56 247.81 258.46 247.81 258.35 247.8 258.25 247.66 257.75 247.65 257.62 247.69 257.52 247.79 257.38 247.84 257.34 247.88 257.33 247.9 257.3 247.91 257.21 247.88 257.13 247.79 256.95 247.76 256.86 247.78 256.66 247.87 256.52 247.97 256.39 248.06 256.22 248.07 256.11 248.06 256.02 248.07 255.95 248.12 255.87 248.31 255.73 248.41 255.71 248.63 255.71 248.73 255.69 249.38 255.4 249.56 255.23 249.62 255.12 249.68 254.95 249.74 254.78 249.85 254.28 249.85 254.19 249.83 254.07 249.77 253.83 249.76 253.71 249.87 253.39 250.11 253.29 250.77 253.31 250.82 253.3 250.87 253.26 250.89 253.22 250.91 253.15 250.95 253.09 251.03 253.06 251.68 253.19 251.8 253.14 251.85 252.98 251.84 252.68 251.81 252.4 251.83 252.28 251.89 252.14 252.01 251.94 252.08 251.87 252.28 251.76 252.42 251.69 252.53 251.55 252.55 251.38 252.46 251.23 252.31 251.16 251.35 251.22 251.03 251.39 250.94 251.4 250.58 251.36 250.47 251.32 250.42 251.22 250.43 251.03 250.51 250.75 250.53 250.64 250.51 250.26 250.53 250.14 250.68 249.9 250.67 249.78 250.52 249.6 250.49 249.35 250.55 249.15 250.65 248.96 250.71 248.76 250.71 248.54 250.67 248.27 250.58 248.02 250.47 247.79 250.54 247.56 250.66 247.45 250.81 247.44 251.13 247.48 251.25 247.44 251.64 247.11 251.72 246.96 251.89 246.3 252.11 245.83 252.21 245.73 252.22 245.72 252.9 245.45 253.14 245.44 253.27 245.47 253.68 245.68 253.86 245.73 253.95 245.66 254.14 245.35 254.22 245.18 254.4 245.31 254.6 245.37 254.79 245.38 255.49 245.27 255.64 245.21 255.65 245.05 255.65 244.83 255.57 244.35 255.6 243.89 256.05 243.39 256.15 243.02 256.11 242.78 256.24 242.56 256.53 242.18 256.56 242.04 256.58 241.9 256.6 241.78 256.66 241.67 256.72 241.62 256.93 241.51 257.14 241.34 257.26 241.19 257.33 241.1 257.54 240.95 257.78 241.04 257.84 240.82 257.83 240.59 257.8 240.36 257.79 240.11 257.81 240 257.83 239.92 257.84 239.84 257.82 239.69 257.77 239.59 257.38 238.98 257.29 238.8 257.21 238.57 257.14 238.24 257.09 238.14 257.03 238.07 256.66 237.78 256.59 237.7 256.55 237.61 256.55 237.49 256.66 237.32 256.67 237.22 256.61 237.12 256.49 237.07 256.01 236.97 255.89 236.89 255.77 236.75 255.69 236.55 255.57 236.11 255.47 235.96 254.85 235.72 254.71 235.58 254.72 235.4 254.79 235.14 254.83 234.89 254.77 234.75 254.63 234.69 254.35 234.5 254.22 234.44 253.96 234.43 253.75 234.55 253.38 234.91 253.28 234.91 253.19 234.91 253.21 234.53 253.36 233.68 253.35 233.57 253.31 233.37 253.3 233.27 253.31 233.15 253.34 232.92 253.34 232.81 253.24 232.56 253.09 232.5 252.94 232.46 252.82 232.3 252.88 232.13 253.31 231.76 253.42 231.57 253.42 231.34 253.38 231.04 253.26 230.48 253.17 230.26 253.07 230.14 252.95 230.08 252.33 229.88 252.24 229.82 251.87 229.57 251.26 229.45 251.09 229.34 251.06 229.16 251.07 228.95 250.99 228.72 250.93 228.36 250.01 228.6 249.95 228.5 249.86 228.36 249.78 228.21 249.74 228.08 249.77 227.99 249.83 227.95 249.9 227.93 249.95 227.88 249.98 227.82 249.98 227.78 249.94 227.57 249.92 227.54 249.9 227.51 249.86 227.39 249.83 227.35 249.82 227.3 249.8 227.2 249.81 227.12 249.83 227.05 249.89 226.95 250.28 226.69 250.35 226.56 250.32 226.44 250.19 226.18 250.18 226.01 250.2 225.91 250.26 225.83 250.39 225.72 250.25 225.65 250.2 225.64 250.26 225.58 250.35 225.54 251.07 225.24 251.36 225.02 251.46 224.9 251.49 224.75 251.39 224.57 251.28 224.5 250.7 224.41 250.65 224.37 250.58 224.24 250.57 224.12 250.58 224.01 250.57 223.88 250.48 223.65 250.36 223.59 250.25 223.58 250.17 223.3 250.14 223.03 250.03 222.76 249.67 222.46 249.35 222.06 249.19 221.87 249 221.63 248.81 221.19 248.74 220.68 248.86 219.86 248.22 218.58 247.65 217.43 247.42 216.96 247.21 216.54 247.22 215.87 247.24 215.28 247.73 214.54 248.07 214.02 248.07 214.01 248.12 213.84 248.12 213.61 248.22 213.15 248.25 212.92 248.32 212.02 248.28 211.25 248.31 211.02 248.22 210.86 248.29 210.69 248.52 210.46 249.11 210.32 249.17 210.16 249.06 210.19 248.66 210.14 248.79 210.02 249.19 209.88 249.35 209.64 249.49 209.69 249.47 209.5 249.39 209.45 249.24 209.37 249.16 209.32 249.09 209.24 248.89 208.98 248.76 208.89 248.5 208.83 248.36 208.68"/><path class="cls-4" d="M243.91,199.81c-.71-.32-1.03-1.16-.71-1.87l.27-.6s.03-.06.05-.1l.3-.58.43-1.08c.05-.13.12-.25.21-.36l.2-.25.17-.53c.03-.08.06-.15.1-.23l.48-.9c.04-.07.08-.13.13-.2l.17-.22c.07-.1.16-.18.25-.25,0-.01,0-.02,0-.03l.04-.17c.02-.08.05-.16.09-.24l.18-.45c.02-.07.04-.14.07-.21l.05-.12c.07-.16.17-.31.29-.43l.08-.08.13-.25c.03-.06.07-.12.11-.18l.2-.27s.05-.07.08-.1l.56-.67.11-.47s.02-.1.03-.15l.07-.25c.02-.08.05-.16.09-.24l.33-.68v-.16c0-.08.02-.15.04-.23l.04-.18c.03-.16.09-.31.17-.44l.08-.13c.08-.12.17-.23.28-.33l.08-.07.26-.61v-.19c0-.12.02-.24.05-.35l.05-.18c.02-.09.06-.18.1-.26l.36-.72.81-2.89c.02-.08.05-.16.09-.24l.35-.81.25-.92c0-.11.03-.21.06-.31l.03-.1c.04-.12.09-.24.16-.35l.06-.09c.04-.07.09-.13.15-.2h.01s.19-.38.19-.38c.03-.06.07-.12.11-.18l.21-.36c0-.1.01-.19.04-.29l.03-.12c.02-.08.04-.16.08-.24l.29-.7s0-.06,0-.09l.02-.12c.02-.12.05-.23.09-.34l.04-.1c.03-.08.07-.16.12-.24l-.02-.19c0-.06,0-.13,0-.2v-.25c.01-.09.02-.18.04-.26l.05-.22-.09-.9s0-.09,0-.14v-.45c0-.06,0-.12,0-.19l.08-.6h0c-.09-.05-.17-.1-.25-.17l-.32-.26-.22-.08c-.12-.04-.23-.1-.33-.17l-.16-.12c-.11-.08-.21-.17-.29-.28l-.1-.13s-.07-.1-.1-.15l-.11-.18s-.04-.07-.06-.11l-.08-.16-.71-.22c-.13-.04-.25-.1-.36-.17l-.72-.48-1.45-.33c-.09-.02-.17-.05-.25-.08l-.15-.07c-.18-.08-.34-.19-.47-.34l-.21-.19-.54-.22c-.09-.04-.19-.09-.27-.14l-1.44-.97c-.13-.09-.25-.2-.35-.34l-.17-.23c-.37-.51-.37-1.2.01-1.7l.23-.31c.06-.08.13-.15.21-.22l.23-.2.04-.47c.01-.14.05-.27.1-.4l.45-1.12-.09-.12s-.05-.06-.07-.09l-.1-.14c-.07-.1-.13-.21-.17-.32-.04-.02-.09-.05-.13-.08l-.15-.1c-.06-.04-.12-.09-.17-.14l-.4-.02c-.1,0-.2-.02-.3-.05l-.36-.1c-.09-.03-.19-.06-.27-.1l-.22-.11c-.15-.08-.29-.18-.4-.31l-.14-.16c-.18-.2-.31-.45-.35-.72l-.02-.13c-.09-.08-.18-.17-.25-.27-.03-.04-.06-.08-.09-.12-.05-.07-.11-.18-.14-.26,0-.01-.01-.03-.02-.04,0,0,0-.01,0-.02-.01-.02-.03-.06-.05-.1-.17-.23-.28-.52-.29-.81,0-.18.02-.41.08-.59h-.03c-.3.01-.6-.07-.85-.24l-.47-.32c-.11-.08-.21-.17-.3-.27l-.47-.58c-.05-.06-.09-.12-.13-.19l-.44-.75c-.08-.13-.13-.28-.16-.42l-.09-.42c-.03-.14-.04-.29-.02-.44l.03-.3c0-.07.02-.13.04-.2h-.03c-.5-.29-.79-.84-.73-1.41l.04-.37c.01-.11.04-.21.07-.31l.11-.31-.24-.62c-.02-.06-.04-.13-.06-.2l-.08-.37c-.02-.1-.03-.2-.03-.31,0-.04,0-.08,0-.12v-.07s-.06-.06-.06-.06c-.54-.49-.62-1.32-.18-1.9l.19-.25c.1-.13.21-.24.35-.33l.23-.16-.17-.22s-.05-.07-.07-.11l-.55-.8c-.04-.05-.08-.1-.11-.16l-.09-.15s-.04-.06-.05-.1l-.45-.88-.33-.26s-.09-.07-.13-.12l-.88-.86s-.07-.07-.1-.11l-.4-.49s-.06-.07-.08-.11l-.19-.28s-.04-.06-.06-.09l-.18-.31s-.04-.08-.06-.12l-.18-.41-.49-.45s-.09-.09-.13-.14c-.06-.08-.17-.22-.22-.31l-.05-.09s0,0,0,0c-.06-.06-.12-.13-.17-.21l-.23-.34-1.24-1.14c-.11-.1-.21-.22-.28-.35l-.35-.63c-.1-.18-.16-.38-.17-.58l-.07-.85c0-.13,0-.25.02-.38l.51-2.67c.02-.09.05-.19.08-.28l.02-.04c0-.06,0-.12,0-.18v-.11c.02-.1.04-.2.08-.3l.75-2.21-.02-.24-.11-.42-.7-.34c-.07-.03-.13-.07-.19-.11l-.33-.23c-.08-.06-.16-.12-.22-.19l-1.57-1.69-1.98-.24c-.11-.01-.23-.04-.33-.08l-.16-.06c-.21-.08-.39-.2-.54-.37l-.16-.17c-.06-.07-.11-.14-.16-.21l-1.73-2.83c-.05-.09-.09-.18-.11-.28l-.04-.14c-.04-.15-.06-.31-.06-.46v-.13c0-.06.02-.12.03-.19l.25-1.43c-.13-.01-.25-.04-.37-.09-.19-.07-.44-.22-.58-.36l-.08-.08c-.14-.14-.25-.31-.31-.5l-.06-.17c-.24-.64.02-1.35.58-1.7l.49-.63c.08-.1.17-.19.27-.27l.12-.09.14-.26c.05-.1.12-.19.19-.27.1-.12.22-.24.34-.32l-.03-.2s0-.08,0-.11c0-.06,0-.18,0-.27,0-.02,0-.04-.01-.05-.02-.08-.03-.21-.04-.31l-.03-.13c-.01-.05-.02-.11-.02-.16v-.14c-.02-.17,0-.33.04-.49l.07-.27c.06-.22.17-.42.33-.59l.16-.17c.16-.17.36-.3.58-.38l.11-.04c.05-.08.1-.16.16-.23.16-.18.4-.37.63-.46l.03-.05h0c-.01-.06-.02-.11-.02-.16v-.14c-.02-.06-.02-.13-.02-.19-.07-.06-.13-.12-.18-.19-.43-.55-.45-1.39.03-1.9.12-.13.33-.3.49-.38l.14-.07c.19-.09.39-.14.6-.14h.17s.07,0,.11,0c-.22-.44-.21-.99.09-1.43l.13-.19c.3-.44.8-.68,1.34-.62l-.29,1.6.13-.19.14.38.13.13.07.1.07.15.04.11.03.06.1.12.15.13.27.73.04.16v.34s-.07.23-.07.23l-.32.15-.87.12-.13-.06-.87-.52-.27-.09h-.17s-.14.07-.14.07l-.06.07.05.06.11.07.23.03.06.05.09.17.08.22.04.19v.13s-.04.11-.04.11l-.07.1v.08s0,.14,0,.14l.03.14.04.11.03.11v.13s-.28.57-.28.57l-.05.24-.04.09-.13.14-.51.15-.06.07-.14.34-.16.15-.58.2-.16.17-.07.27v.14s.07.28.07.28v.1s.01.07.01.07l.03.09.02.09v.1s-.02.15-.02.15v.1s.05.38.05.38v.14s-.01.18-.01.18l-.07.34-.12.26-.15.17-.2.06-.12.06-.04.09h0s-.29.52-.29.52l-.37.28-.7.9-.16.06.06.17.08.08.08.03.69-.25.31-.02.35.21.03.78v.34s-.38,2.03-.38,2.03v.13s.04.14.04.14l.12.22.15.25,1.42,2.3.16.17.16.06,1.17.14,1.17.14.14.05.15.12.5.54.23.25,1.04,1.13.33.23,1.42.7-.04.15v.11s.02.13.02.13l.17.63.03.13.04.46v.19s-.83,2.44-.83,2.44v.11s0,.18,0,.18v.08s-.02.07-.02.07l-.12.29-.51,2.67h0s.06.85.06.85l.35.63,1.36,1.26.32.47v.02s.18.15.18.15l.04.08.03.09.05.09.06.07.68.61.09.15.18.39.08.18.18.31.19.28.4.49.88.86.47.36.18.22.2.35.35.71.09.16.29.36.1.14.27.45.27.37.09.16.4.85.1.23.06.21-.03.11h-.15s-.3-.09-.3-.09l-.86.57-.19.25.18.16.37.14.19.15v.14s-.21.48-.21.48v.16s-.02.06-.02.06h0s.08.37.08.37l.32.84.07.36-.24.7-.04.37.25.14.56-.19.3.04.14.36v.09s-.04.08-.04.08l-.02.08.03.1.08.07h.08s.06.01.06.01l.02.13-.06.17-.57.33-.12.2-.03.3.09.42.44.76.47.58.47.32.43-.02.76-.22.19.03.09.05.03.06v.18s.05.12.05.12v.06s.03.05.03.05l.08.09.07.06.22.14.13.16.03.2-.03.19-.07.13-.59.56-.02.04v.06s.03.02.03.02h.03s.02.02.02.02l.06.17.04.08.06.08v.03s0,.03,0,.03v.03s.03.02.03.02h.05s.01.03.01.03v.07s.24.07.24.07l.2.15.04.23v.27s.03.26.03.26l.14.16.22.11.36.1.73.04.26.1.18.13.15.15.15.1h.26s.17.04.17.04l.14.12.03.21v.21s.04.16.04.16l.1.14.13.16.24.38.08.33-.03.32-.09.35h0s-.47,1.15-.47,1.15l-.06.71-.15.45-.55.47-.17.23-.06.08.17.23,1.44.97.74.3.39.31.14.15.15.07,1.7.39.94.62,1.08.34.15.08.15.13.1.18.06.18.1.2.11.18.1.13.16.12.35.13.17.1.43.35.13.07.07.03.17.14.14.22.15.2.19.08-.13.89-.05.41v.45s.1.97.1.97v.24l-.09.38v.25s.04.49.04.49v.23s-.06.14-.06.14h0s-.18.22-.18.22l-.04.1-.02.12v.23s-.4.93-.4.93l-.03.12v.36s-.04.14-.04.14l-.05.11-.38.54-.27.53-.14.15-.06.09-.03.1-.02.35-.31.98-.4.92h0s-.45,1.62-.45,1.62l-.4,1.4-.42.84-.05.18v.37s-.04.18-.04.18l-.42.98-.11.16-.25.22-.08.13-.04.18v.26s-.03.23-.03.23l-.45.92-.07.25-.02.13-.03.16-.15.51-.25.41-.57.63-.2.27-.23.43-.23.23-.05.12-.07.29-.19.41-.04.17-.02.22h0s-.1.34-.1.34l-.38.23-.17.22-.48.9-.25.77-.36.45-.43,1.09-.07.17-.3.55-.27.6-.58,1.29Z"/><path class="cls-4" d="M220.58,256.72l.29-.34c.17-.2.39-.34.64-.42l.14-.04c.43-.14.89-.06,1.26.2l.2.15c.1.07.19.16.27.25l.08.09c.17-.01.34.01.5.06l.25.08c.09.03.18.07.26.11l.45.25s.04.02.05.03c.19.01.38.06.54.15l.07-.02c.35-.09.71-.05,1.03.11.01,0,.03.02.04.02l.16-.07c.17-.08.35-.12.53-.13l.76-.04.29-.15c.34-.17.74-.2,1.1-.07l.15.05c.16.06.3.14.43.24.15.12.37.35.46.52l.1.19s.01.03.02.04c.16.05.32.13.45.22.04.03.09.08.14.12.08.06.16.12.23.2.1.05.2.11.28.18l.09.07c.13.11.25.24.34.39l.07.12c.03.06.06.11.08.17l.16.39s.03.07.04.11l.06.18c.03.09.05.19.06.29l.02.18c.02.15,0,.3-.03.45l-.04.19c-.04.16-.1.31-.19.45l-.07.11c-.04.06-.08.12-.13.18-.02.03-.03.06-.05.1,0,.01-.02.03-.03.04v.03c.03.09.04.18.04.28v.19c0,.06,0,.11,0,.17l-.03.35.12.65.42.51c.27.33.38.76.3,1.17-.08.42-.34.77-.71.97l-.37.2c-.16.09-.33.14-.51.16l-13.72,1.47-3.94.34s-.08,0-.12,0c-.09,0-.19,0-.28-.03l-.3-.06c-.17-.03-.33-.1-.47-.19l-.14-.09.75-1.2.14.09.3.06.46-.04,1.21-.1,2.26-.2,1.69-.16,1.68-.16,2.09-.21,2.53-.27,1.62-.18,1.62-.19,1.36-.16,1.09-.13.37-.2-.46-.56-.21-.31-.1-.38-.1-.78.04-.49v-.18s-.03-.11-.03-.11l-.08-.22-.02-.1v-.07s.1-.21.1-.21v-.04s-.03-.04-.03-.04l-.02-.05v-.05s.02-.02.02-.02l.05-.02.05-.06.09-.07.04-.06.05-.15.15-.16.07-.11.04-.19-.02-.18-.06-.18-.16-.39-.07-.12-.09-.07-.37-.1-.06-.07.04-.14-.08-.02-.07-.05-.05-.06-.04-.03h-.06s-.32.05-.32.05l-.1-.03-.09-.11-.12-.21-.18-.43-.1-.19-.07-.05-.04-.03-.15-.05-.56.28-.96.05h-.11s-.59.27-.59.27l-.06.09-.05.1-.09.1-.13.03-.16-.02-.14-.09-.08-.16-.03-.16-.04-.11-.08-.04-.14.04-.13.14-.05.03h-.06s-.15-.08-.15-.08l-.21-.02-.12-.05-.22-.14-.41-.02-.11-.07-.12-.11-.45-.25-.25-.08-.58.07-.23-.13-.45-.55-.2-.15-.14.04-.4.46v-.05s-.96-1-.96-1Z"/><path class="cls-4" d="M290.96,381.26c-.54,0-1.05-.3-1.29-.82l-.04-.09c-.04-.08-.06-.16-.08-.24,0-.01-.02-.03-.03-.04-.03-.03-.05-.06-.08-.1l-.08-.03c-.24-.08-.45-.22-.61-.41-.24-.11-.45-.28-.6-.5,0,0,0,0,0,0h0c-.26-.09-.47-.25-.63-.46-.16-.14-.28-.31-.37-.51l-.07-.17s-.03-.09-.05-.13c-.08-.07-.15-.15-.22-.24-.07.03-.15.05-.22.06-.09.05-.2.08-.3.1-.64.13-1.29-.14-1.58-.73l-.07-.14s-.02-.05-.03-.07c-.07-.12-.13-.25-.17-.39l-.04-.15c-.08-.31-.05-.64.08-.93l.05-.11s.04-.08.06-.12c0-.03,0-.05.01-.08l.05-.22c.06-.29.21-.54.42-.74l.19-.17s.05-.05.08-.07c.04-.18.12-.35.23-.5l.11-.15c.05-.07.1-.13.16-.18.02-.15.07-.29.14-.42.14-.28.41-.58.7-.72-.04-.19-.04-.38,0-.57l-.05-.31-.17-.35c-.04-.08-.07-.15-.09-.24l-.06-.22c-.04-.15-.06-.3-.05-.45v-.12c.01-.17.05-.34.12-.49v-.06c-.14-.17-.25-.37-.3-.6-.14-.62.13-1.28.64-1.6.06-.05.12-.09.18-.13l.09-.67s.02-.1.02-.11c.02-.11.05-.22.09-.33l.13-.32c.07-.18.19-.35.33-.49l.24-.23c.13-.13.29-.23.46-.29l.14-.06c.08-.03.17-.06.25-.07l.17-.04c.1-.08.2-.15.32-.21l.15-.07c.16-.08.34-.12.52-.13h.24c-.02-.05-.04-.09-.05-.14l-.05-.12c-.03-.07-.05-.14-.07-.22l-.26-1.19s-.01-.07-.02-.11l-.02-.14s0-.09-.01-.14l-.02-.09s-.02-.1-.02-.15c-.04-.13-.06-.26-.06-.4,0-.07,0-.2.02-.3v-.42c-.02-.06-.01-.12,0-.18v-.1c.02-.06.03-.12.04-.18l.04-.19c0-.05,0-.1,0-.15l.02-.22v-.1s0,0,0,0l-.06-.13s-.04-.07-.05-.11l-.33-.8c-.14-.27-.2-.58-.15-.88-.02-.03-.04-.07-.06-.1l-.06-.11c-.05-.11-.1-.22-.12-.34l-.08-.37c-.01-.05-.02-.11-.03-.16v-.14c-.02-.09-.02-.18-.01-.26v-.13c.02-.11.04-.22.08-.32l.04-.13c.04-.13.11-.26.19-.38l.07-.1s.02-.03.03-.04c0-.02.02-.05.03-.07v-.03c-.03-.11-.06-.22-.08-.34-.1-.14-.17-.29-.21-.46l-.04-.15c-.06-.23-.05-.47,0-.69,0-.03,0-.07,0-.1v-.13c0-.16.02-.32.06-.46h0s0-.05,0-.07l-.02-.13c-.02-.16-.02-.33.02-.49l.03-.16c.04-.17.1-.33.2-.48.02-.04.06-.09.1-.15-.04-.06-.08-.11-.1-.16-.07-.14-.12-.31-.16-.48-.05-.15-.1-.33-.1-.47v-.21c-.02-.17,0-.34.06-.51l.04-.13c.04-.11.08-.21.14-.3l.19-.31s.05-.07.07-.1c0,0-.01,0-.02,0l-.33.12c-.16.06-.32.1-.49.1l-.96.03c-.12,0-.25,0-.37-.04l-.48-.12h-.48c-.12,0-.25-.02-.37-.06l-.1-.03c-.12,0-.25-.03-.37-.07l-.18-.06c-.23-.08-.43-.21-.59-.39l-.19-.21s-.08-.1-.12-.15l-.21-.3c-.13-.05-.26-.11-.38-.2l-.36-.27c-.09-.07-.18-.15-.25-.24l-.07-.09c-.08-.1-.14-.2-.19-.31-.4-.1-.74-.38-.92-.76-.18-.38-.19-.82-.01-1.2l.06-.13c.03-.06.06-.12.1-.18l.09-.14s.02-.03.03-.04l-.07-.09s-.08-.1-.11-.15l-.18-.27c-.07-.11-.12-.22-.16-.35l-.09-.28c-.05-.16-.07-.33-.06-.5-.01-.04-.02-.09-.03-.13-.02-.04-.04-.08-.06-.12l-.2-.32c-.04-.06-.07-.13-.1-.2l-.06-.13c-.05-.12-.09-.26-.1-.39v-.1c-.02-.06-.02-.11-.02-.17v-.02c-.06-.19-.09-.44-.07-.63.01-.1.04-.21.07-.32l.02-.15c-.08-.1-.14-.21-.19-.32-.14-.33-.16-.71-.07-1.06,0-.04,0-.08.01-.11.03-.18.09-.37.18-.54,0-.05,0-.09,0-.14,0-.14.02-.29.06-.43,0-.11,0-.21.03-.31v-.03c-.04-.06-.07-.13-.1-.19-.04-.09-.1-.26-.12-.36l-.07-.37c-.02-.08-.02-.15-.03-.23-.03-.11-.04-.22-.04-.33v-.15s0-.04,0-.07l-.39-.46c-.09-.11-.17-.23-.22-.37l-.14-.15c-.05-.05-.1-.11-.14-.17l-.17-.25c-.09-.13-.16-.29-.21-.44-.02-.03-.03-.06-.05-.09-.15-.18-.25-.4-.3-.63-.01,0-.02,0-.03,0-.38-.01-.74-.17-.99-.44-.05-.03-.09-.05-.14-.08l-.08-.05c-.11-.04-.21-.09-.29-.14-.08-.05-.15-.11-.22-.18-.1-.05-.19-.11-.28-.19l-.11-.09c-.21-.19-.37-.43-.44-.7-.01-.02-.03-.03-.04-.05l-.1-.11s-.01-.02-.02-.02c-.04,0-.09-.01-.13-.02-.26-.06-.56-.21-.74-.4l-.12-.12c-.05-.05-.1-.11-.14-.17l-.04-.05c-.32-.19-.55-.49-.64-.84-.05-.02-.1-.04-.14-.06-.24-.13-.52-.37-.65-.61l-.02-.04c-.09-.08-.17-.17-.23-.27,0-.01-.02-.03-.03-.04l-.18-.11c-.05-.03-.11-.07-.16-.11l-.56-.47s-.08-.08-.12-.12l-.21-.22c-.08-.09-.15-.18-.21-.29l-.11-.2c-.07-.13-.12-.27-.15-.41-.29-.21-.49-.52-.56-.87-.01-.03-.03-.05-.04-.08l-.06-.05c-.21-.17-.37-.38-.46-.62-.12-.07-.23-.16-.33-.26-.06-.07-.14-.17-.19-.25-.01-.02-.05-.08-.06-.1,0,0,0,0,0-.01-.03-.02-.05-.05-.08-.07l-.16-.16c-.06-.07-.12-.14-.17-.21-.2-.08-.37-.21-.5-.36-.16-.07-.31-.17-.44-.29-.02,0-.05,0-.07,0h-.14s-.09,0-.13,0c-.08.06-.17.12-.26.16l-.86.41s-.02,0-.02.01c0,.05,0,.09,0,.14l-.04.33c0,.05-.02.1-.03.15l-.05.23c-.03.12-.07.23-.13.34l-.06.11c-.03.06-.07.12-.11.18l-.02.11c-.01.08-.04.15-.06.22l-.04.11c-.09.25-.25.47-.47.63l-.28.21c-.16.12-.35.21-.54.26l-.43.1-.22.12c-.17.09-.35.15-.53.17h0c-.09.06-.18.1-.28.14l-.16.06-.24.17c-.11.08-.23.14-.36.18l-2.67.88-.26.75c-.04.11-.1.22-.16.32l-.22.33c-.07.11-.16.21-.26.29-.03.02-.06.05-.09.07l-.38.27c-.09.06-.19.12-.29.16l-.48.19s-.09.04-.09.04l-.19.08c-.35.14-.74.14-1.09,0l-.14-.06c-.18-.08-.34-.19-.47-.33l-.35-.39-.17-.03c-.08-.02-.17-.04-.25-.07l-.25-.09c-.14-.05-.27-.12-.38-.22l-.14-.11c-.12-.1-.23-.22-.32-.35,0,0,0,0-.01,0-.18.18-.42.31-.67.37h-.02s-.15.12-.15.12c-.2.15-.43.25-.67.29l-.15.02c-.15.02-.3.02-.45,0l-.33-.05c-.26,0-.51-.08-.73-.22l-.18.12c-.15.1-.33.17-.5.21l-.14.03c-.43.09-.86-.03-1.18-.3-.03,0-.05,0-.08,0h-.16c-.09.01-.17,0-.26,0l-.11-.02c-.19.18-.44.34-.69.4l-.14.03c-.24.06-.49.05-.72-.02l-.11-.03c-.14.01-.31,0-.44-.02-.22-.05-.47-.15-.64-.29-.01.02-.03.03-.04.05l-.24.27c-.16.18-.37.32-.59.4l-.1.04s0,0-.01,0c0,0,0,0-.01.01l-.11.1c-.1.1-.22.19-.35.25l-.13.06c-.42.21-.92.2-1.33-.03l-.28-.15c-.19-.11-.35-.26-.48-.44l-.08-.11c-.07-.11-.13-.22-.17-.34-.05.01-.1.02-.16.03-.39.05-.81-.06-1.12-.32-.09-.08-.21-.2-.28-.3l-.15-.21c-.04-.06-.08-.13-.12-.2l-.06-.11c-.13.03-.26.03-.38.03-.27-.02-.57-.13-.79-.29-.07-.05-.18-.15-.24-.21l-.41-.45c-.07-.08-.14-.17-.19-.27l-.08-.15s-.02-.02-.03-.03c-.69-.01-1.27-.52-1.38-1.2l-.11-.71c-.02-.13-.02-.26,0-.4l-.02-.06c-.04-.11-.07-.23-.08-.35l-.02-.2c-.02-.23.01-.45.1-.66l.07-.18c.06-.15.14-.29.25-.41l.16-.18c.02-.07.05-.14.09-.21.06-.12.18-.3.28-.4v-.13c0-.19.03-.38.1-.56-.01-.05-.02-.1-.02-.13-.02-.13-.02-.35,0-.48l.02-.13c.03-.15.07-.29.14-.42.02-.04.04-.08.06-.12,0-.07.02-.13.03-.19l.09-.49c.04-.27.16-.52.35-.72l.04-.04s0-.08.01-.12l.02-.17c.03-.23.12-.45.25-.64l.11-.16c.12-.16.26-.29.42-.39,0-.06.02-.12.04-.18l.05-.34s0-.08.02-.12l.02-.1-.11-.39s-.02-.02-.03-.04l-.11-.12c-.07-.08-.13-.16-.18-.25-.03-.06-.09-.17-.12-.24l-.04-.11s-.03-.09-.04-.13l-.08-.3-.15-.27c-.17-.31-.22-.67-.14-1.01l.09-.41c.03-.11.06-.22.12-.32l.3-.67c.01-.08.03-.16.06-.24.05-.15.16-.38.26-.51.07-.08.15-.17.24-.25l.14-.41c.03-.08.06-.16.1-.23l.05-.09c.03-.06.07-.12.12-.18.04-.16.12-.35.2-.48l.15-.22.46-1.03c.03-.06.06-.11.09-.17l.2-.33c.04-.07.09-.13.14-.19l.1-.17c.03-.07.07-.14.11-.21l1.16-1.85c.04-.06.09-.13.14-.18l.61-.69.23-.39c0-.07.02-.14.04-.21l.04-.16c.04-.16.11-.31.2-.44l.07-.1c.08-.12.18-.23.3-.32l.1-.08c.06-.05.13-.09.2-.13l.21-.11c.12-.07.25-.11.39-.14l.33-.07c.02-.27.12-.53.29-.75-.03-.11-.04-.21-.04-.32-.09-.06-.17-.14-.24-.22l-.12-.13s-.03-.03-.04-.05c-.05-.04-.1-.08-.15-.12l-.12-.11c-.2-.19-.35-.43-.42-.7l-.05-.19c-.06-.22-.06-.46,0-.68l.04-.18s0-.02,0-.03c-.06-.07-.1-.14-.15-.22-.31-.24-.54-.61-.59-.99l-.07-.07s-.08-.09-.12-.14l-.13-.18c-.04-.06-.08-.13-.12-.19-.12-.05-.24-.13-.34-.21l-.17-.14c-.09-.08-.18-.17-.25-.27l-.17-.24c-.38-.14-.68-.44-.83-.82l-.08-.2c-.07-.18-.1-.38-.09-.58v-.14c.01-.12.04-.25.08-.37-.01-.02-.03-.05-.04-.07-.09-.08-.16-.17-.22-.27-.1-.08-.19-.17-.27-.27l-.11-.14c-.09-.12-.16-.26-.21-.4l-.04-.07c-.05-.08-.09-.17-.12-.26l-.05-.14c-.04-.1-.06-.2-.07-.3-.05-.11-.09-.23-.11-.35-.03-.18-.03-.36,0-.54-.03-.1-.05-.2-.05-.3v-.24s-.01-.07,0-.1v-.11c0-.05.01-.11.02-.16.02-.11.05-.25.1-.38-.07-.24-.08-.49-.02-.73,0-.06,0-.13.01-.19l-.02-.11c-.02-.09-.02-.19-.02-.28v-.19c0-.08.01-.15.03-.23-.27-.07-.51-.22-.7-.43-.21-.02-.4-.09-.57-.2,0,0-.01,0-.02-.01,0,0-.02,0-.02,0l-.46-.04c-.14-.01-.29-.05-.42-.1l-.15-.06c-.41-.17-.71-.52-.83-.93-.01-.02-.03-.04-.04-.06-.23-.34-.3-.77-.19-1.16l.17-.63s.03-.1.05-.15l.08-.2c.02-.05.05-.11.07-.16l.15-.27.49-1.2c.05-.13.13-.25.21-.36l.45-.54c.05-.06.11-.12.17-.17l.47-.41c.09-.08.18-.14.29-.19l.74-.37.27-.27-.24-1.02c-.06-.11-.12-.25-.14-.35l-.03-.11c-.03-.11-.04-.22-.04-.33,0-.05,0-.1,0-.16,0-.02,0-.03-.01-.04-.11-.1-.2-.23-.27-.36l-.08-.16c-.07-.14-.12-.29-.15-.45l-.03-.19c-.02-.11-.02-.22-.01-.33,0,0,0,0,0,0l-.1-.14s-.06-.08-.08-.13l-.02-.04c-.1-.09-.18-.2-.25-.31l-.16-.26s-.05-.08-.07-.12l-.49-.99-.35-.48c-.04-.05-.07-.1-.1-.16l-.79-1.44s-.05-.1-.07-.15l-.27-.66c-.03-.08-.06-.16-.08-.24l-.05-.22c-.05-.07-.1-.14-.14-.21l-.1-.19c-.04-.08-.07-.16-.1-.25l-.26-.67s-.04-.07-.05-.1l-.11-.23c-.04-.1-.08-.2-.1-.3l-.06-.29c-.09-.44.02-.89.31-1.23.29-.34.71-.53,1.17-.49h.21c.14.02.27.05.4.1l.07.02s0,0,.01,0l.07-.02s.05-.03.07-.05c.15-.1.36-.19.56-.24.12-.1.25-.18.39-.24.26-.11.63-.17.92-.12h.02s.03-.02.03-.02c.12-.1.25-.18.39-.23l.18-.07c.23-.09.48-.12.72-.08l.2.03c.18.03.35.08.51.17l.04-.05c.06-.08.12-.15.19-.21l.26-.23c.12-.11.25-.19.4-.25l.06-.03s0,0,0,0c0-.05,0-.1,0-.14.01-.2.06-.39.15-.57.06-.3.21-.63.43-.84l.15-.14c.15-.14.36-.27.55-.34l.26-.09c.12-.04.24-.06.36-.07h.15c0-.1.03-.19.05-.27l.04-.15c.12-.41.43-.75.83-.91l.1-.04c.16-.06.33-.1.5-.1.06-.09.14-.17.22-.24l.04-.17c.03-.1.06-.2.11-.29l.05-.1s-.01-.07-.02-.1l-.03-.26c-.01-.1-.01-.2,0-.29l.02-.21c.01-.15.05-.3.11-.45l.06-.14c.03-.07.06-.13.1-.2l-.06-.14c-.05-.11-.09-.23-.11-.36l-.02-.13c-.01-.08-.02-.17-.02-.25v-.1s0-.04,0-.07l-.09-.35c-.02-.08-.04-.16-.04-.25v-.14c-.03-.22,0-.44.08-.64l.03-.08c-.01-.1-.02-.19-.01-.28l.02-.2c.02-.22.09-.43.2-.61l.08-.14s0-.02.02-.03c.04-.23.12-.47.25-.64.09-.12.25-.3.37-.39l.19-.14c.17-.13.38-.21.59-.25l.1-.02c.07-.01.14-.02.22-.02h.02s.01-.07.01-.07v-.05c-.03-.07-.04-.15-.05-.23v-.12c-.03-.19,0-.39.06-.57l.11-.32c.13-.37.4-.68.76-.84-.03-.04-.05-.08-.07-.12l-.05-.1c-.12-.23-.17-.48-.16-.73v-.19c.02-.1.03-.19.06-.29l.04-.14v-.21c-.01-.1,0-.2.01-.3l.02-.11s-.02-.08-.02-.12l-.03-.24c-.03-.21,0-.42.06-.63l.07-.2c.02-.06.04-.11.06-.17l-.07-.13c-.15-.31-.19-.67-.09-1.01l.07-.23c.07-.26.22-.49.42-.67l.12-.11c.22-.19.49-.32.77-.35h0s.03-.11.03-.11c.02-.08.05-.17.09-.25l.22-.47c.07-.14.16-.27.27-.39l.08-.09c.15-.16.33-.28.53-.36l.69-.27c.13-.05.27-.08.41-.09l.23-.02c.11,0,.23,0,.34.02.14-.11.31-.19.49-.23.11-.03.21-.04.32-.04.03-.31.15-.6.36-.83l.14-.16c0-.24.06-.48.18-.69l.12-.22c.03-.06.07-.11.11-.17l.1-.21c.03-.14.08-.28.15-.4l.06-.11c.07-.13.16-.24.27-.34.1-.09.26-.22.38-.28l.14-.14c.04-.06.09-.11.15-.16,0,0,0-.01,0-.02l-.18-.28s-.06-.09-.08-.14l-.09-.19c-.03-.05-.05-.11-.07-.17l-.08-.22s-.02-.06-.03-.1l-.05-.04c-.07-.05-.13-.11-.18-.17l-.07-.07c-.09-.1-.17-.22-.23-.35-.02-.04-.04-.09-.06-.14,0,0-.01,0-.02-.01l-.12-.08c-.12-.08-.23-.18-.32-.29l-.11-.14c-.09-.11-.16-.23-.21-.36l-.08-.2s0-.02-.01-.04h-.03c-.2-.09-.37-.21-.52-.36l-.14-.14c-.07-.07-.13-.15-.18-.23-.04,0-.08,0-.13,0,0,0-.11,0-.12,0-.38,0-.79-.17-1.05-.45-.26-.28-.44-.65-.43-1.04l.02-.37c0-.06.01-.12.02-.18l.11-.62v-.02s-.02-.07-.02-.11v-.1s-.01-.01-.01-.02c-.03-.03-.06-.07-.09-.1l-.12-.16c-.29-.38-.36-.88-.2-1.33l.06-.17c.06-.17.15-.32.27-.46-.09-.04-.19-.09-.27-.14l-.22-.15-.33-.06c-.18-.04-.35-.11-.51-.21l-.17-.11c-.2-.13-.36-.31-.47-.52-.38-.05-.73-.25-.97-.57l-.21-.31s-.04-.08-.07-.12l-.08-.15c-.04-.08-.07-.16-.1-.25l-.04-.12c-.07-.24-.07-.49-.01-.73.01-.06.03-.12.06-.18,0-.04-.01-.08-.02-.11,0-.09-.02-.28-.01-.37,0-.1.04-.29.07-.39.03-.1.1-.27.15-.36l.06-.11s.06-.09.09-.14c0-.15,0-.3.04-.44,0-.37.12-.74.39-1.01l.02-.02s-.02-.07-.03-.11c-.14-.15-.24-.34-.3-.54l-.08-.28s-.02-.09-.03-.14l-.02-.02c-.07-.06-.13-.12-.19-.19l-.67-.81c-.09-.11-.17-.23-.22-.36l-.18-.44c-.05-.11-.08-.23-.09-.35l-.07-.51c-.02-.13-.02-.26,0-.39l.05-.38-1.46-2.93c-.1-.21-.15-.43-.15-.66l.03-1.26c0-.27.09-.53.23-.75l.65-.98c0-.08.02-.15.03-.23l.11-.55.05-.72-.04-.68s0-.04,0-.06c-.09-.31-.08-.64.04-.94l.07-.17c.07-.18.18-.34.32-.48l.03-.03h-.01c-.53-.59-.49-1.48.08-2.01l.96,1.04.15.16.25.06.14.09.2.26.07.08.08.05.16.08.07.05.03.19-.14-.05-.17.24-.39.14-.14.12.4.05.12-.04-.06.16-.58.14-.23.23-.07.17.09.16-.03.23.04.77-.07.89-.03.23-.11.46v.23s-.05.17-.05.17h0s-.34.53-.34.53l-.49.74v.59s-.03.67-.03.67l.21.42.23.47.57,1.15.64,1.29-.12.82.07.51.18.44.19.23.16.2.32.4.36.3.11.28.03.26.08.28.11.02.12.05.09.23v.13s0,.12,0,.12v.12s.08.13.08.13l.06.04.58.08.11.07.09.18-.03.15-.1.12-.29.22-.72.3-.09.04-.06.06h.05s.14.08.14.08l-.12.11-.06.08-.03.1.02.17.13.26.03.13-.06.12-.39.26-.06.11-.02.07v.08s0,.1,0,.1l.02.05.02.04.05.13.02.03.02.03.04.2v.05s-.03.06-.03.06l-.06.05-.07.02-.06.04-.02.09.03.12.08.15.09.14.07.09.91-.24.06.36.08.23v.21s.02.18.02.18l.17.11.61.12.36.25.09.06.62.2.12.06.1.12.09.22.12.55.04.31v.22s-.11.19-.11.19l-.43.36-.06.17.12.16.16.04.15.06.09.24v.11l-.03.23v.12s0,.1,0,.1l.04.2v.11s-.14.85-.14.85l-.02.37h.09s.09,0,.09,0l.38-.36.21-.12h.25s.14.08.14.08l.27.18.14.06.06.13-.04.25-.07.26v.18s.12.14.12.14l.62.24.1.15.12.44.08.2.11.14.12.08.49.1.11.05.06.11v.1s-.12.17-.12.17v.12s.04.09.04.09l.07.07.37.29.06.07.05.1.07.34.08.22.09.19.39.61.04.1.03.15v.09s-.04.07-.04.07l-.02.12v.24s.04.24.04.24v.23s-.05.22-.05.22l-.24-.09-.21.15-.07.09-.12.15-.2.17-.21.11-.06.05-.06.11-.03.12-.02.13-.03.15-.29.38-.12.22.04.24-.09.36-.45.5-.04.47.08.48v.22s0,.16,0,.16l-.15.06-.7.11h-.19s-.2-.07-.2-.07l-.18-.13-.08.16-.19.31-.09.07-.17-.05-.42-.21-.13-.04-.23.02-.69.27h0s-.1.11-.1.11l-.22.47-.17.66-.08.16-.38.33-.12.04-.32-.05-.15.02-.12.11-.07.23.11.22.08.26.05.26v.23l-.07.2-.1.19-.06.2.03.24.15.18v.12s-.14.24-.14.24l-.02.12v.38s0,.1,0,.1l-.07.28v.19s.04.1.04.1l.1.04.36.05.09-.02.31-.17.96-.06.15.07.09.15-.02.17-.11.14-.13.07-.2.11-.07.07-.12.2-.06.14-.02.11.03.28v.3s-.05.16-.05.16l-.12.05-.65-.13-.08.03-.04.06-.02.06-.03.05-.05.03h-.05s-.66,0-.66,0l-.24.1-.11.32v.12s.07.24.07.24l.02.12v.09s-.11.5-.11.5l-.06.18-.06.17-.06.11-.18.16-.65.3-.11.02h-.21l-.1.02-.19.14-.05.07v.08s0,.09,0,.09v.11s-.1.17-.1.17l-.11.13-.09.14-.02.2.03.09.09.19.02.08v.09s-.03.03-.03.03h-.04s-.05.05-.05.05l-.1.14-.04.1v.14s.15.5.15.5v.1s.01.11.01.11v.1s-.01.1-.01.1l.02.13.08.18.22.32.07.18.02.2-.05.17-.08.14-.3.28-.06.14-.02.21.03.26.05.2.02.19-.06.24-.19.38-.06.24.05.25.11.11.13.02.24-.07.3-.26.08-.04.09.03.05.07.04.09.1.16.03.03h.03l.06-.04h.03s.07.05.07.05l.07.06.06.08.06.1.03.03h.03s.03.02.03.02l.03.06v.05s-.05.11-.05.11v.05s.09.45.09.45v.17s-.12.13-.12.13l-.07.03-.22.02-.06.04-.06.15-.05.05-.12.03-.53.03-.17-.04-.16-.1-.08-.17.03-.08.15-.09.03-.08-.05-.08-.15-.04v-.1s.09-.09.09-.09l.14-.02.04-.05-.53-.47-.04-.05-.05-.03h-.08l-.13.1-.15.39-.12.12-.46.13-.39-.05-.1.04-.04.15-.02.49-.05.22-.18.32-.21.22-.25.1-.49-.08-.27.02-.26.09-.03.02-.15.14v.07s0,.08,0,.08l.02.06v.04s-.09.09-.09.09l-.04.08h-.04s0,.05,0,.05l.06.15.11.2.11.15.09.18.04.27h0s-.04.19-.04.19l-.09.08-.36.14-.11.02-.1-.07-.11-.18h-.03s-.02-.01-.02-.01h-.02s-.12.15-.12.15l-.35.15-.26.23-.54.73-.19.15-.21.04-.2-.02-.19.05h-.12s-.08-.08-.08-.08l-.16-.26-.2-.17-.2-.03-.18.07-.32.27-.16.08-.37.08h-.1s-.19-.08-.19-.08l-.1-.02-.08.03-.39.34-.04.02h-.05s-.12-.05-.12-.05h-.04l-.08.05-.09.09-.35.12-.26.18-.09.03-.11-.02-.58-.22h-.21s.06.27.06.27l.11.23.12.21.11.24.15.52.1.19.18.18.13.61.27.66.79,1.44.39.52.18.29.42.89.16.26.13.12.09.13.07.13.1.14.13.09.12.06.09.11.03.24-.03.15-.05.13-.03.15.03.19.08.16.22.2.1.13.03.07v.12s.02.06.02.06l.1.27.02.08v.06s-.05.15-.05.15v.08l.03.11.03.06.03.04.03.07.28,1.19.07.3v.44l-.18.34-.69.7-.94.48-.47.41-.45.54-.52,1.27-.19.34-.08.2-.17.63h.02s.05.03.05.03l.05.03.08.09.04.13-.02.18.15.06.46.04.09-.05.09.07.4.07h.13s.01.05.01.05l-.03.1h.02s.08-.04.08-.04l.08.02.06.05h.06l.06-.12.03.04.07.04.05.04.08-.12.04.07v.12s-.01.04-.01.04l.23.31.12.02.29-.06.13.05.06.07.05.07.05.06.06.02.08.04.05.11.03.11.07.12.16.36.1.16-.08.09-.06.14-.06.3v.19s.05.32.05.32l-.02.12h.03s0,0,0,0h0s.01.06.01.06l-.06.05.02.22-.05.09.13.16.14.13-.03.24-.09.14-.11.1-.08.14v.08s-.02.11-.02.11v.24s.04.05.04.05l.06.06.03.06-.05.04-.02.03.03.06.05.06.04.04-.06.11-.03.03-.05.02v.07s.1.06.1.06l.03.09.02.27.05.14.08.13.18.21h-.04s-.04.02-.04.02l.11.14.1.02.09.03.05.13.02.06.07.13.11.05.12.02.1.04-.06.22.02.06.32.32.07.11-.06.05-.03.08v.1s.07.12.07.12l-.1.07-.09.14-.06.16v.14s.07.2.07.2l.11.03.12-.02.12.05.49.69.17.14.35.14.35.24.09.11-.09.07v.09s.12.18.12.18l.21.22.08.12.15.4v.06s0,.08,0,.08l.05.03.08.02.09.04.09.09.03.08.02.09.06.12.12.14.49.31.58.18.1.11-.04.19-.18.08-.21.04-.12.08-.18-.06-.17.06-.12.14-.04.18.05.19.12.11.16.04h.18s.01.05.01.05l-.05.19.12.13.19.07h.18s0,.24,0,.24l.09.2.23.35h0s-.1.28-.1.28l.15.46.07.12.04.02v.02s-.06.13-.06.13l-.09.15-.36.29v.12s.05.19.05.19v.13s0,.11,0,.11l-.08.35-.3.2-1.14.23-.21.11-.1.08-.07.1-.04.16-.03.28h0s-.06.16-.06.16l-.4.64-.15.18h0l-.3.33-.24.28-1.16,1.85-.14.33-.2.23-.2.33-.51,1.14-.22.32-.02.09-.02.21-.02.08-.04.07-.11.06-.05.05-.05.09-.27.79-.09.13-.06.04-.13.05-.06.08-.03.09-.06.34-.37.74-.09.41.18.33.07.14.11.42.04.11.03.05.11.12.17.12.05.07.06.15.24.89v.15l-.06.32-.03.37-.06.23-.02.13.05.05.03-.03.07-.12.11.05h0s-.02.02-.02.02l.24.11.23.22.14.07.32.11.09.09.02.08-.03.21v.13s.06.09.06.09l.14.16v.02s.03.03.03.03l-.05.17-.14-.03-.16-.11-.13-.04h-.08s-.15-.16-.15-.16l-.08-.05h-.07s-.14.07-.14.07l-.24.02-.14.04h-.14s-.18-.08-.18-.08l-.29-.23-.14-.02-.11.16-.02.17v.24s0,.23,0,.23l.03.17-.09.1-.24.08-.1.11-.07.44-.05.19v.05l.02.13v.06s-.05.1-.05.1l-.13.16-.04.08v.02s-.03.13-.03.13v.08s.03.08.03.08l.07.33v.07s-.03.12-.03.12l-.04.09-.05.06-.04.07v.14s.05.21.05.21v.22s-.06.2-.06.2l-.08.16-.07.06-.16.09-.07.07-.04.08-.04.17-.03.08-.37.42-.07.18.02.2.14.39v.16s-.04.18-.04.18l.11.71h.16s.01,0,.01,0h0l.05-.08.2-.12h.23s.25.07.25.07l-.05.32.03.16.18-.04h.05s.06.08.06.08l.02.1v.12s.03.14.03.14l.1.19.41.45.05.04h.05s.05-.02.05-.02l.05-.05.02-.02h.03s.03,0,.03,0l.14.03h.11s.1-.02.1-.02l.12-.09h.03s.03,0,.03,0h.03s.6.57.6.57l.12.19.15.3.15.21.04.03h.02s.08-.06.08-.06l.48-.08.12-.06.1-.09.11-.05.12.05.03.04.26.09.23.15.11.1.09.12.08.18v.11s-.03.1-.03.1v.16s-.08.16-.08.16l.08.11.28.15.13-.06.11-.1.03-.14-.09-.19.03-.13.1-.03.13.03.11.05.12.05h.11s.1-.02.1-.02l.24-.27.06-.18.07-.49.09-.22.12-.09h.15s.49.07.49.07l.13.06.33.28.36.21.18.15h.05s.05,0,.05,0h.05s.05-.04.05-.04h0s.01,0,.01,0h.02l.47.14.14-.03.02-.03.02-.02.03-.05.03-.06.02-.07.06-.07.07-.03.24-.09.13.02.43-.03.29.04h.16s.46-.12.46-.12l.12.03.4.25.07.14.14-.03.61-.4.21-.03.12.06.34.03.14.04.28.18h.12s0,0,0,0l.42.07.15-.02.4-.31.33-.08.21-.27.13-.11.13-.03.4.02.37-.08h.13s.06.03.06.03l.28.1.19.1.13.11.08.15.03.13.05.12.14.11.25.09.58.1.11.06.11.1.3.36.2.21.14.06.21-.08.09-.03.48-.19.38-.27h0s.22-.33.22-.33l.43-1.2.24-.26,3.16-1.05.4-.27.33-.12.18-.13.11-.04.32-.04.39-.22.48-.11.15-.03.28-.21.04-.11.07-.37.06-.12.14-.18.06-.11.06-.23.04-.33v-.33s-.06-.22-.06-.22l-.02-.34h.06s.12,0,.12,0l.1-.06.19-.16.1-.06.3-.09.1-.05.78-.37.18-.14.28-.22.15-.04.18.1h.07l.05-.12.1.13h.14l.25-.12.12.03.19.15.06-.06.34.22.06.06.06.16.06-.05.05-.13.05-.07.1.05.06.11.07.09.24.03.02.09-.06.09-.12.04v.06s.21.06.21.06h.13s.07-.07.07-.07h.06s.07.05.07.05l.05.04h0s0,.06,0,.06l-.05.11v.06s.1.23.1.23l.16.16.19.1.19.06.02.07-.12.09.02.04.02.03.02.03.02.03.15-.12.12.11.09.12.08-.07.09.07.03.09-.03.1-.06.09.16.08h.05s0,.03,0,.03v.04s-.07.19-.07.19l.09.07.17.05.15.11v.05s.09.3.09.3v.06s.09.03.09.03h.08s.08.03.08.03l.07.07-.19.19.09.05.12.12.11.13.05.08.03.04.14.06.04.03v.02s.05.08.05.08v.11s.06.06.06.06l.02.06-.15.07.11.2.21.22.56.47.23.14.22.03v.03s.04.05.04.05l.06.12.03.06.02.03.02.09.03.04h.03s.07,0,.07,0h.02s.11.25.11.25l.07.13.09.05h.06s.04,0,.04,0l.03.02h.04s.17-.03.17-.03h0s.1,0,.1,0l.11.03.1.06.07.08-.04.06-.02.08v.11s0,.12,0,.12l.14.08.02.31.11.04h.02s.09.06.09.06l.25.35.12.12h.06s.19.01.19.01l.08.03.06.03.06.02h.18l.09.06.19.2.02.12.1.11.22.17.14.25h.01s.04.08.04.08l.03.05v.04s-.07.04-.07.04l.11.09.32.09.02.07-.02.08.03.02h.07s.07.03.07.03l.26.18.22.08.1.06.04.14h.17s.18.05.18.05l.16.03.12-.1.1.15h.01s.27.22.27.22l.13.14.22.32.05.14v.03s-.01.16-.01.16l.13.05.03.11.02.12.1.08.02.07.02.12v.08s.18.25.18.25l.38.4.04.18.56.66.13.25v.04s.05.1.05.1l.03.13-.02.12-.04.14v.15l.1.15-.05.06v.08s.07.37.07.37l.03.07.13.15.03.02.03-.02h.03s.03.08.03.08l.07.3v.09s0,.08,0,.08l-.08.07.08.12-.02.06h-.01s-.04.04-.04.04l-.03.06.03.31-.02.05-.07.05v.07l.07.19.04.12v.03s-.05.23-.05.23l-.06.1-.06.05-.07.04-.06.05v.08s.05.16.05.16v.06s-.07.04-.07.04l-.07.06.03.08.17.18.06.05.06.06.04.08-.02.25.02.25-.03.36v.06s-.02.15-.02.15l-.05.05v.06s0,.05,0,.05l.05.02.02.05v.36s0,.1,0,.1l.06.13.28.45.04.11.03.05.06.06.05.07v.08s0,.08,0,.08v.08s.04.07.04.07l.09.11.02.03v.05s-.08.09-.08.09l-.02.06.09.28.18.27.18.21.08.08.29.97.02.16.07.12-.09.07-.22.05-.08.06-.09.11-.09.14-.06.13.43.11.18.08.16.18.04.06.02.02.02.02.08.33.07.09.23.18.12.09h.01s.15-.06.15-.06l.23.06.18.15v.2s.34.48.34.48l.19.21.18.06h.12s.27.08.27.08h.65s.64.16.64.16l.96-.03.25-.1.21-.06.08-.06.06-.11-.22-.04-.06-.03-.05-.06-.04-.08v-.08s.17-.15.17-.15l-.05-.14-.03-.14.17-.09h.12s.21.09.21.09h.16s.1.03.1.03l.14.09.15.04.14-.1v-.07s-.01-.19-.01-.19l.02-.09.04-.05.06-.03.15-.05.08-.07.28-.38.26-.15.1-.09.07-.13.05-.04.16-.05.03-.04v-.08s.05-.09.05-.09l.08-.12.12-.12.11-.03h.12s.14-.05.14-.05l.05-.04.05-.06.04-.06.03-.06.05-.06h.08s.09.02.09.02h.07s.54-.08.54-.08l1.03.09.39.2.09.02.19.1.2.3.13.37-.02.3.06.05.03.07v.08s-.01.08-.01.08h-.06s-.18.06-.18.06l.02.06.14.12.12.15.15.1.23-.04-.11.21v.29s.15.87.15.87v.18s-.02.3-.02.3l.02.14.03.16.02.15-.03.11.1.2-.11.32.13.16-.02.13-.04.05-.06.03-.06.06-.06.18-.04.06-.15-.04-.07.03-.06.06-.06.04-1.29.57-.84.28-.23.15-.57.66-.15.25-.12.3-.06-.06-.03-.15-.14-.15-.08-.14.14-.1.16-.07.22-.2.26-.14.13-.15.08-.2v-.23s-.08-.11-.08-.11l-.12-.11-.26-.17.08.15.03.07.03.11h-.12s-.08.1-.08.1l-.08.05-.12-.12-.07-.17-.16-.58.03-.2.29-.21.05-.15-.09-.08-.35-.12h-.1s-.21.04-.21.04l-.23-.02-.07.03v.06s-.01.1-.01.1l-.02.1-.07.06-.15.05-.06.05-.19.31-.04.13v.21s.03.05.03.05l.08.03.03.06v.06l-.03.03-.03.03v.03s.04.08.04.08l.07.06.07.04.17.03.42.27-.06.12-.03.04-.06.03.08.04h.03s.02.08.02.08l-.07.08.02.09.08.09.11.06-.06.07-.08.04-.3.09-.07.05-.35.37-.05.08-.03.15.02.13.06.04.08-.11v.12l-.12.08v.15s.06.15.06.15l.07.03.35-.16.14-.14.12-.19.09-.22-.15-.17.52.03.13.05.07.16v.21s-.09.19-.09.19l-.15.09.08-.2.07-.22-.02-.17-.18-.05.02.07.07.05v.04s-.13.07-.13.07l-.12-.04h-.04s-.02.04-.02.04l-.02.05-.02.08-.11.13-.16.29-.11.1-.29.26-.07.11.07-.26v-.11s-.11.01-.11.01l-.08.04-.05.08v.13s.09-.02.09-.02l-.02.11.04.07.08.04h.1s-.25.17-.25.17l-.08.12.04.15.02-.05.03-.06v-.04s.12.03.12.03l.11.05-.03.15-.02.27v.28s.09.18.09.18h.06l.04-.09v-.12s0-.24,0-.24l.05-.09.12-.13.14-.34.09-.16.11-.09.12-.07.07-.13.03-.15.03-.21v.2l-.02.18-.24,1-.27.34-.42,1.01-.02.24v.12s-.1-.05-.1-.05l-.1.08-.07.1-.04.13v.13s0,.14,0,.14l.08.37.06.11.16.18.17.28.06.14v.09s.06.06.06.06l-.11-.03-.08.05-.05.09-.02.11.09.17.31.76.24.47.02.06v.09s-.04.11-.04.11v.19s-.02.31-.02.31v.14s-.08.38-.08.38v.1s0,.57,0,.57l-.02.1v.1l.06.09v.09s0,.1,0,.1l.02.11.03.1v.1s0,.14,0,.14l.26,1.19.05.12.11.15.1.1.07.09.04.14v.27s-.04.34-.04.34l-.06.3-.08.14-.06.06-.25.4-.05.11v.13s.03.17.03.17l-.13-.11-.36-.1-.08-.04-.1-.07-.19-.03-.35.02-.15.07-.24.2-.12.06-.47.09-.14.06-.24.23-.13.32v.09s-.17,1.14-.17,1.14l-.06.18-.1.12-.46.25-.07.08-.04.03-.07.02.02.07.29.12.07.06.02.12-.04.46v.5s-.02.1-.02.1l-.05.08-.04.08v.12s.06.22.06.22l.21.42.07.2.11.67.07.14-.12.15.03.16.11.2.1.25.11.47.02.19v.07s-.36.11-.36.11l-.4.03-.32.07-.07.03-.04.07-.02.15v.11l.03.09.07.06.12.03-.18.08-.28.21-.15.07-.11.15.07.25.14.25.1.15-.13-.03-.68.14-.18.17-.05.22v.25s-.03.26-.03.26l-.14-.03-.05.11.04.15.11.07v.07s0,.05,0,.05l.07.14v-.08s.01-.01.01-.01h0s-.03-.03-.03-.03v-.21s.28.18.28.18h.08s.07-.1.07-.1l.03-.13.06-.06.15.09.04-.12h.06s.07.04.07.04l.06.02.09-.05.06-.06.06-.04h.11s0,.06,0,.06h0s-.01.01-.01.01l-.02.02.08.16.1.1h.12s.15-.16.15-.16l.03.09.05.04h.06s.08-.04.08-.04l.02.07-.04.02-.1.08.08.08.03.02h.07s-.05.11-.05.11l.02.14.07.12.1.08.12.02.08-.03.08-.05.11-.03v.06s-.02.06-.02.06v.05s.06.04.06.04l.07.04-.15.19-.05.2.07.17.21.1-.03.03h0s0,.05,0,.05l.3.11.06.05.05.06.1.07.12.06.09.03v.04s0,.08,0,.08v.03s.23.07.23.07l.07.05.18.24.45.15.07.08.08.08h.11s0,.12,0,.12l.06.08.09.06.09.04v.05s0,.02,0,.02h-.02s-.02.02-.02.02l.1.07.08.11.04.13-.02.13.04.09v1.42ZM291.22,346.95c.07,0,.14,0,.21.01h.1c.09.03.18.05.27.08l.35.12c.19.07.37.18.52.32l.08.08c.26.25.41.59.43.94l.79-.35c0-.08,0-.16,0-.24h0c0-.05-.02-.1-.02-.14l-.02-.14c0-.08-.01-.16,0-.24l.02-.24-.17-.76c-.22-.18-.38-.43-.46-.71-.07-.23-.07-.48-.02-.71l-.43-.04-.14.02s0,0,0,0c-.1.07-.24.15-.37.21,0,0,0,.01-.01.02-.11.14-.25.28-.41.38-.04.04-.09.09-.13.13l-.1.08c-.05.04-.11.08-.17.12h0s-.11.15-.11.15c-.04.06-.09.12-.15.17-.1.28-.29.56-.53.72l-.06.04c.07,0,.14-.01.21,0,.11-.03.23-.04.35-.04Z"/><path class="cls-2" d="M330.45,280.5c.49,3.14,1.74,5.25,3.9,7.65s1.86,5.12,1.71,7.52-3.61,6.77-4.51,8.58-6.17,6.51-6.17,6.51c0,0-.86,1.48-1.85,1.48s-3.27-.17-3.64.33-1.6,2.01-1.9,2.28-.55,2.8-1.08,3.59-.03,2.51-.52,3.07-1.61,1.08-2.78,1.81-2.64,2.06-2.64,2.06"/><path class="cls-2" d="M322.14,282.68c.48.68,1.75,0,1.75,0"/></g></svg>