<?xml version="1.0" encoding="UTF-8"?><svg id="Calque_2" xmlns="http://www.w3.org/2000/svg" viewBox="0 0 389.8 692.25"><defs><style>.cls-1{fill:none;stroke:#fff;stroke-miterlimit:10;}</style></defs><g id="Calque_5"><rect class="cls-1" x=".5" y=".5" width="388.8" height="691.25"/></g><g id="Ville"><path d="M31.83,430.75c.31,0,.56.08.75.26s.29.39.29.67c0,.19-.05.35-.14.49s-.24.25-.43.33c.1.06.2.13.28.23s.18.26.3.49c.2.4.35.67.45.82h-.71c-.05-.07-.11-.19-.2-.34-.18-.35-.31-.58-.4-.7s-.17-.21-.24-.26-.17-.08-.27-.08h-.23v1.38h-.63v-3.27h1.18ZM31.69,432.15c.17,0,.3-.04.39-.12s.14-.2.14-.34-.05-.26-.14-.34-.23-.11-.4-.11h-.39v.91h.4Z"/><path d="M34.66,431.79c.23,0,.44.05.62.14s.33.23.43.4.15.37.15.58-.05.42-.15.6-.24.3-.43.4-.4.15-.63.15-.44-.05-.63-.15-.33-.23-.43-.4-.15-.37-.15-.6.05-.42.15-.59.25-.3.43-.4.39-.14.61-.14ZM34.07,432.92c0,.22.05.39.16.52s.25.2.43.2.34-.06.44-.19.16-.3.16-.54-.05-.39-.16-.51-.26-.18-.44-.18c-.17,0-.32.06-.43.19s-.16.3-.16.51Z"/><path d="M36.93,431.25h.05v.58h.75v.44h-.75v1.01c0,.1.03.18.09.24s.14.09.24.09c.13,0,.29-.05.46-.15v.46c-.21.09-.4.14-.59.14-.25,0-.44-.07-.58-.2s-.21-.32-.21-.55v-1.05h-.34v-.09l.87-.92Z"/><path d="M38.89,431.79c.28,0,.5.06.64.18s.22.29.22.5v1.07c0,.08.03.12.1.12.03,0,.07-.01.12-.04s.09-.05.13-.08v.33c-.2.12-.39.19-.55.19-.1,0-.18-.02-.24-.05s-.09-.1-.12-.18c-.22.16-.44.23-.66.23-.16,0-.29-.05-.41-.16s-.17-.23-.17-.38c0-.19.06-.34.17-.45s.31-.2.59-.29l.47-.14v-.1c0-.21-.13-.32-.39-.32-.13,0-.26.03-.4.09s-.25.15-.36.27v-.52c.24-.19.52-.28.85-.28ZM38.53,433.44c0,.08.03.14.08.19s.11.07.19.07c.13,0,.25-.06.38-.17v-.58c-.16.05-.29.11-.38.15s-.16.1-.2.15-.06.11-.06.18Z"/></g></svg>