<?xml version="1.0" encoding="UTF-8"?><svg id="Calque_2" xmlns="http://www.w3.org/2000/svg" viewBox="0 0 841.81 594.3"><defs><style>.cls-1{stroke:#000;stroke-width:2px;}.cls-1,.cls-2,.cls-3{fill:none;}.cls-1,.cls-3{stroke-linecap:square;stroke-linejoin:bevel;}.cls-4{fill:#772a2a;fill-rule:evenodd;}.cls-2{opacity:0;stroke:#c16868;stroke-miterlimit:10;stroke-width:.1px;}.cls-3{stroke:#fff;}</style></defs><g id="Ligne_de_front"><rect id="Cadre" class="cls-2" x=".05" y=".05" width="841.71" height="594.2"/></g><g id="Picto"><g vector-effect="non-scaling-stroke"><path class="cls-1" d="M425.89,395.71c0,1.79-1.45,3.23-3.23,3.23s-3.23-1.45-3.23-3.23,1.45-3.23,3.23-3.23,3.23,1.45,3.23,3.23"/><path class="cls-4" d="M425.89,395.71c0,1.79-1.45,3.23-3.23,3.23s-3.23-1.45-3.23-3.23,1.45-3.23,3.23-3.23,3.23,1.45,3.23,3.23"/><path class="cls-3" d="M425.89,395.71c0,1.79-1.45,3.23-3.23,3.23s-3.23-1.45-3.23-3.23,1.45-3.23,3.23-3.23,3.23,1.45,3.23,3.23"/></g><g vector-effect="non-scaling-stroke"><path class="cls-1" d="M337.33,232.6c0,1.79-1.45,3.23-3.23,3.23s-3.23-1.45-3.23-3.23,1.45-3.23,3.23-3.23,3.23,1.45,3.23,3.23"/><path class="cls-4" d="M337.33,232.6c0,1.79-1.45,3.23-3.23,3.23s-3.23-1.45-3.23-3.23,1.45-3.23,3.23-3.23,3.23,1.45,3.23,3.23"/><path class="cls-3" d="M337.33,232.6c0,1.79-1.45,3.23-3.23,3.23s-3.23-1.45-3.23-3.23,1.45-3.23,3.23-3.23,3.23,1.45,3.23,3.23"/></g></g></svg>