<?xml version="1.0" encoding="UTF-8"?><svg id="Calque_2" xmlns="http://www.w3.org/2000/svg" viewBox="0 0 841.81 594.3"><defs><style>.cls-1{fill:#fff;}.cls-2{stroke:#6d788c;}.cls-2,.cls-3{fill:none;}.cls-3{opacity:0;stroke:#c16868;stroke-miterlimit:10;stroke-width:.1px;}</style></defs><g id="Ligne_de_front"><rect id="Cadre" class="cls-3" x=".05" y=".05" width="841.71" height="594.2"/></g><g id="Nom_de_Pays"><path class="cls-2" d="M453.75,92.13c.66,0,1.3.17,1.92.5v1.17c-.71-.43-1.33-.64-1.88-.64-.33,0-.59.06-.78.19-.19.13-.28.3-.28.51,0,.26.17.5.52.71.1.07.47.25,1.13.55.56.26.96.56,1.21.88.25.32.37.71.37,1.16,0,.59-.21,1.06-.63,1.42-.42.36-.97.54-1.64.54-.44,0-.81-.05-1.13-.14-.31-.1-.67-.26-1.06-.5v-1.3c.73.61,1.42.91,2.06.91.32,0,.58-.07.78-.21.2-.14.3-.33.3-.56,0-.32-.17-.57-.52-.77-.29-.16-.66-.34-1.11-.56-.54-.24-.94-.53-1.2-.85-.26-.33-.4-.7-.4-1.13,0-.57.21-1.03.64-1.37.43-.34.99-.51,1.69-.51Z"/><path class="cls-2" d="M457.78,94.26v2.78c0,.29.04.51.13.68.09.17.22.31.42.42.19.11.42.16.68.16.28,0,.52-.05.72-.16.2-.1.34-.25.43-.42.09-.18.14-.43.14-.74v-2.72h.92v2.84c0,.64-.19,1.14-.58,1.48-.39.34-.93.52-1.63.52-.44,0-.83-.08-1.15-.24-.32-.16-.57-.38-.74-.68-.17-.3-.26-.65-.26-1.05v-2.87h.93Z"/><path class="cls-2" d="M465.32,94.26v.72h-2.16v1.25h2.07v.72h-2.07v1.36h2.21v.72h-3.13v-4.78h3.09ZM463.79,92.76l.65,1.18h-.52l-1.29-1.18h1.16Z"/><path class="cls-2" d="M468.23,94.26c.5,0,.94.1,1.33.3.39.2.69.49.9.85.21.37.32.78.32,1.24s-.11.88-.32,1.24c-.22.36-.52.64-.92.84-.4.2-.85.3-1.36.3h-1.94v-4.78h2ZM468.13,98.32c.51,0,.92-.15,1.23-.46.31-.31.46-.71.46-1.21s-.16-.92-.47-1.22c-.31-.3-.73-.45-1.26-.45h-.95v3.33h.98Z"/><path class="cls-2" d="M474.73,94.26v.72h-2.16v1.25h2.07v.72h-2.07v1.36h2.21v.72h-3.13v-4.78h3.09Z"/><path class="cls-1" d="M453.75,92.13c.66,0,1.3.17,1.92.5v1.17c-.71-.43-1.33-.64-1.88-.64-.33,0-.59.06-.78.19-.19.13-.28.3-.28.51,0,.26.17.5.52.71.1.07.47.25,1.13.55.56.26.96.56,1.21.88.25.32.37.71.37,1.16,0,.59-.21,1.06-.63,1.42-.42.36-.97.54-1.64.54-.44,0-.81-.05-1.13-.14-.31-.1-.67-.26-1.06-.5v-1.3c.73.61,1.42.91,2.06.91.32,0,.58-.07.78-.21.2-.14.3-.33.3-.56,0-.32-.17-.57-.52-.77-.29-.16-.66-.34-1.11-.56-.54-.24-.94-.53-1.2-.85-.26-.33-.4-.7-.4-1.13,0-.57.21-1.03.64-1.37.43-.34.99-.51,1.69-.51Z"/><path class="cls-1" d="M457.78,94.26v2.78c0,.29.04.51.13.68.09.17.22.31.42.42.19.11.42.16.68.16.28,0,.52-.05.72-.16.2-.1.34-.25.43-.42.09-.18.14-.43.14-.74v-2.72h.92v2.84c0,.64-.19,1.14-.58,1.48-.39.34-.93.52-1.63.52-.44,0-.83-.08-1.15-.24-.32-.16-.57-.38-.74-.68-.17-.3-.26-.65-.26-1.05v-2.87h.93Z"/><path class="cls-1" d="M465.32,94.26v.72h-2.16v1.25h2.07v.72h-2.07v1.36h2.21v.72h-3.13v-4.78h3.09ZM463.79,92.76l.65,1.18h-.52l-1.29-1.18h1.16Z"/><path class="cls-1" d="M468.23,94.26c.5,0,.94.1,1.33.3.39.2.69.49.9.85.21.37.32.78.32,1.24s-.11.88-.32,1.24c-.22.36-.52.64-.92.84-.4.2-.85.3-1.36.3h-1.94v-4.78h2ZM468.13,98.32c.51,0,.92-.15,1.23-.46.31-.31.46-.71.46-1.21s-.16-.92-.47-1.22c-.31-.3-.73-.45-1.26-.45h-.95v3.33h.98Z"/><path class="cls-1" d="M474.73,94.26v.72h-2.16v1.25h2.07v.72h-2.07v1.36h2.21v.72h-3.13v-4.78h3.09Z"/><path class="cls-2" d="M559.56,76.14v1.03h-2.84v1.76h2.84v1.04h-2.84v2.99h-1.32v-6.82h4.16Z"/><path class="cls-2" d="M561.48,78.18v4.78h-.92v-4.78h.92Z"/><path class="cls-2" d="M563.36,78.18l2.84,3.33v-3.33h.9v4.78h-.79l-2.85-3.39v3.39h-.9v-4.78h.81Z"/><path class="cls-2" d="M569.07,78.18v4.05h2.32v.72h-3.24v-4.78h.92Z"/><path class="cls-2" d="M574.44,78.18l2.11,4.78h-.97l-.5-1.16h-2.12l-.46,1.16h-.97l1.97-4.78h.94ZM573.24,81.1h1.54l-.81-1.89-.73,1.89Z"/><path class="cls-2" d="M577.92,78.18l2.84,3.33v-3.33h.9v4.78h-.79l-2.85-3.39v3.39h-.9v-4.78h.81Z"/><path class="cls-2" d="M584.71,78.18c.5,0,.94.1,1.33.3.39.2.69.49.9.85.21.37.32.78.32,1.24s-.11.88-.32,1.24c-.22.36-.52.64-.92.84-.4.2-.85.3-1.36.3h-1.95v-4.78h2ZM584.62,82.24c.51,0,.92-.15,1.23-.46s.46-.71.46-1.21-.16-.92-.47-1.22c-.31-.3-.73-.45-1.26-.45h-.95v3.33h.98Z"/><path class="cls-2" d="M591.21,78.18v.72h-2.16v1.25h2.07v.72h-2.07v1.36h2.21v.72h-3.13v-4.78h3.09Z"/><path class="cls-1" d="M559.56,76.14v1.03h-2.84v1.76h2.84v1.04h-2.84v2.99h-1.32v-6.82h4.16Z"/><path class="cls-1" d="M561.48,78.18v4.78h-.92v-4.78h.92Z"/><path class="cls-1" d="M563.36,78.18l2.84,3.33v-3.33h.9v4.78h-.79l-2.85-3.39v3.39h-.9v-4.78h.81Z"/><path class="cls-1" d="M569.07,78.18v4.05h2.32v.72h-3.24v-4.78h.92Z"/><path class="cls-1" d="M574.44,78.18l2.11,4.78h-.97l-.5-1.16h-2.12l-.46,1.16h-.97l1.97-4.78h.94ZM573.24,81.1h1.54l-.81-1.89-.73,1.89Z"/><path class="cls-1" d="M577.92,78.18l2.84,3.33v-3.33h.9v4.78h-.79l-2.85-3.39v3.39h-.9v-4.78h.81Z"/><path class="cls-1" d="M584.71,78.18c.5,0,.94.1,1.33.3.39.2.69.49.9.85.21.37.32.78.32,1.24s-.11.88-.32,1.24c-.22.36-.52.64-.92.84-.4.2-.85.3-1.36.3h-1.95v-4.78h2ZM584.62,82.24c.51,0,.92-.15,1.23-.46s.46-.71.46-1.21-.16-.92-.47-1.22c-.31-.3-.73-.45-1.26-.45h-.95v3.33h.98Z"/><path class="cls-1" d="M591.21,78.18v.72h-2.16v1.25h2.07v.72h-2.07v1.36h2.21v.72h-3.13v-4.78h3.09Z"/></g></svg>