<?xml version="1.0" encoding="UTF-8"?><svg id="Calque_2" xmlns="http://www.w3.org/2000/svg" viewBox="0 0 841.81 594.3"><defs><style>.cls-1{fill:#999;stroke:#353535;stroke-linecap:round;stroke-linejoin:round;}.cls-1,.cls-2{stroke-width:.1px;}.cls-3{fill:#224f91;}.cls-4{fill:#fff;stroke:#224f91;}.cls-4,.cls-2{stroke-miterlimit:10;}.cls-2{fill:none;opacity:0;stroke:#c16868;}</style></defs><g id="Ligne_de_front"><rect id="Cadre" class="cls-2" x=".05" y=".05" width="841.71" height="594.2"/></g><g id="Picto"><circle class="cls-4" cx="91.26" cy="460.26" r="5.32"/><path class="cls-3" d="M93.54,460.11c-.27.09-.79.55-.91,1.01.1.03.2.02.3,0-.35.64-.91.89-1.2.98-.11.03-.02,0-.02,0-.04,0-.08,0-.11-.02s-.05-.06-.05-.1v-.03s-.02-2.47-.02-2.47h.46c.04.1.14.16.25.16.15,0,.28-.12.28-.28s-.12-.28-.28-.28c-.11,0-.21.07-.25.16h-.47v-.53s0-.03,0-.03c0-.04.02-.09.06-.11,0,0,.02,0,.06-.04.13-.11.21-.27.21-.45,0-.33-.26-.59-.59-.59s-.59.26-.59.59c0,.18.08.34.21.45.04.03.06.04.06.04.04.02.06.07.06.11v.03s0,.53,0,.53h-.47c-.04-.1-.14-.16-.25-.16-.15,0-.28.12-.28.28s.12.28.28.28c.11,0,.21-.07.25-.16h.46l-.02,2.47v.03s-.02.08-.05.1-.07.03-.11.02c0,0,.09.03-.02,0-.29-.09-.85-.34-1.2-.98.1.02.2.02.3,0-.11-.47-.64-.93-.91-1.01-.27.3-.32.92-.13,1.36.11-.04.2-.13.27-.21.11.29.6,1.27,1.93,1.67.07.02.15.06.22.08.07-.03.15-.06.22-.08,1.33-.4,1.81-1.38,1.93-1.67.07.09.16.17.27.21.19-.44.13-1.06-.13-1.36ZM89.25,461.05s.02-.04.02-.04c0,0,0,0,.02,0l-.04.03ZM91.26,458.4c-.16,0-.29-.13-.29-.29s.13-.29.29-.29.29.13.29.29-.13.29-.29.29ZM93.23,461.03s.02,0,.02,0c0,0,0,.01.02.04l-.04-.03Z"/></g><g id="Calque_1-2"><g id="Destroyer1"><path class="cls-1" d="M113.42,479.15h.73s2.34.01,2.34.01l.58-.02c.37-.01.72-.01,1.09-.02h.62c.22-.02.43-.07.6-.2l.8-.03,3.13-.2,2.97-.31-.6.71c-.19.23-.35.45-.52.7h-3.85s-5.51,0-5.51,0h-4.42c-.17-.2-.25-.46-.24-.7l2.28.06ZM125.15,478.77c-.03.08.03.13.09.18l-.06.14.15-.08c.07-.03.14-.1.13-.18,0-.07-.09-.16-.16-.15-.03.06-.04.13,0,.21l.07-.15s.04.08.05.11-.09.11-.11.08l-.16-.16Z"/><path class="cls-1" d="M113.05,480.02c-.13.09-.26.15-.4.1l-.02.07s-.02,0-.08.01l-.03-.2h-.16s-.01.23-.01.23l-.24.02-.04-.27c-.21,0-.4,0-.58-.11h1.23s12.38,0,12.38,0c-.09.16-.25.27-.45.27h-9.79c-.36,0-.69-.04-1.03-.1-.11-.02-.21,0-.32.01-.14,0-.32-.13-.47-.03Z"/><path class="cls-1" d="M112.59,479.07v-.12s-.09,0-.09.01v.1s-.79-.02-.79-.02c0-.03,0-.05.02-.05l.09-.04h-.25s-.05.1-.05.1l-.04-.08s-.22-.06-.3.05v-.18s.28,0,.28,0h.26s.36,0,.36,0h.19s.32,0,.32,0c.17,0,.32,0,.49.02l-.02.23h-.2s0-.12,0-.12c0,0-.07,0-.07,0v.1s-.22,0-.22,0Z"/><path class="cls-1" d="M123.33,478.45l.05.17-.67.06-.02-.1s-.06-.03-.09-.04l.02-.19c0-.07.07-.13.15-.12l.47.07c.16.14.51,0,.74.09l-.65.07Z"/><path class="cls-1" d="M124.93,478.42c-.06.1-.29.12-.36.03l-.05.07s-.08,0-.11,0l.1-.06h-.12s.11-.06.11-.06c-.06-.02-.08-.02-.12-.05l1.05-.1.65-.06s.1-.14.12-.2v-.38s.05,0,.05,0v.73c-.09-.03-.15-.02-.23,0-.05.02-.08,0-.14.01h-.24s-.05.06-.06.05l-.06-.03-.27.02s-.04.08-.03.07-.04-.06-.05-.06l-.26.02Z"/><path class="cls-1" d="M124.31,478.43v.09s-.05.02-.07.02h-.09s0-.06,0-.11h.16Z"/><path class="cls-1" d="M113.37,479.02v-.28s.29,0,.29,0c.03,0,.08-.05.07-.1l-.62-.04v-.04s.54,0,.54,0c.07,0,.15-.05.21-.07.16-.04.34-.06.51-.07.1.04.11.22.1.32l.24-.07.03-.48h.26s.03-.07.01-.08l-.09-.03.23-.12s.05-.11.08-.1.08.04.1.07c.13.14.05.26.09.26h.1s0-.23,0-.23h.36s0-.27,0-.27c-.03,0-.09-.01-.09-.03v-.09s.07-.01.09-.01l.26-.02-.12-.06v-.19c0-.11.07-.17.16-.19s.2.04.2.16v.23s-.1.04-.1.04c.05.03.11.03.19.02v-.83s-.18-.2-.18-.2c.07.05.12.08.18.14v-.6c.1.05.04.29.05.54l.02.31.09.02s.02.06.02.09v.09s-.06.02-.11.02v.41c.05.02.09.06.09.08,0,.03-.05.07-.09.09v.56s.09.01.09,0v-.11s.18-.01.18-.01v-.16s.15,0,.15,0v.17s.2,0,.2,0v.12s.11,0,.12,0l-.14-.88s.02-.11.04-.18l.74-.25c.08.03.11.14.13.24l.02-.88.03-.51.05.07s.06,0,.07,0l.14-.2-.02-.07s.04,0,.08,0l.02-.11s-.05-.05-.08-.07c.03-.02.09-.04.08-.07l-.04-.11.06-.23.06.23-.04.09s.05.06.09.08c-.03.02-.07.03-.08.05v.13s.07-.01.07-.01c.03,0,.03-.08.03-.11,0-.11.07-.17.17-.16.11,0,.15.1.14.21v.11s-.05.04-.1.07c.24.1.43.03.46.09,0,.02-.02.09-.05.09l-.29.05v.16s.32-.01.32-.01v.09c-.11.03-.21.05-.3.14h.27s-.02.07-.03.08l-.2.12.05.36h.06c-.03-.15,0-.17.11-.22l-.07-.03s-.02-.06-.01-.08h.33s0,.1,0,.1c0,.02-.07,0-.1,0-.02,0-.03.05-.02.05h.08s0,.2,0,.2l.32-.02s.06.02.05.03l-.06.06s-.03.11-.01.16h.39s0,.51,0,.51c0,.14.01.27.03.4l.04-.15h.35s.01-.19.01-.19l.1-.1s.09-.06.1-.04l.06.09.15.09s.06,0,.08,0c.01,0,0,.04,0,.04l-.09.02s0,.08.01.08h.38s.07.4.07.4h.15s.08-.32.08-.32l.46.04s.14.05.19.08h.64s.01.04.01.04l-.54.04s-.11.03-.1.04l.07.1.08.37-2.2.13-.9.03c-.14.12-.31.17-.49.18l-.62.03-.96.02h-3.74s-.24-.01-.24-.01l.08-.06ZM118.73,475.69l-.2-.06v.27c.05-.06.06-.09.07-.14l.13-.06ZM118.15,477.21l.14-1.28c-.14.02-.12.12-.12.21v.6c-.01.16-.03.31-.01.47ZM118.38,475.99s-.02-.05-.03-.05l-.04.02-.08.81.02.02.13-.8ZM118.66,476.03l-.24-.07-.2,1.41.45-1.33ZM118.35,477.57s.09-.05.09-.07v-.21s.17-.02.17-.02c.01-.37.06-.7.04-1.08l-.41,1.28c-.02.06-.09.17-.08.23l.08.5s.12.03.12,0v-.63Z"/><path class="cls-1" d="M124.06,478.46s.03.09.01.1h-.09s-.08.03-.08,0v-.11s.15,0,.15,0Z"/><path class="cls-1" d="M125.15,478.77l.16.16s.12-.05.11-.08-.04-.1-.05-.11l-.07.15c-.04-.08-.04-.16,0-.21.07-.02.16.08.16.15,0,.08-.06.15-.13.18l-.15.08.06-.14c-.06-.05-.11-.1-.09-.18Z"/></g><g id="Destroyer2"><path class="cls-1" d="M128.54,470.08h.73s2.34.01,2.34.01l.58-.02c.37-.01.72-.01,1.09-.02h.62c.22-.02.43-.07.6-.2l.8-.03,3.13-.2,2.97-.31-.6.71c-.19.23-.35.45-.52.7h-3.85s-5.51,0-5.51,0h-4.42c-.17-.2-.25-.46-.24-.7l2.28.06ZM140.27,469.7c-.03.08.03.13.09.18l-.06.14.15-.08c.07-.03.14-.1.13-.18,0-.07-.09-.16-.16-.15-.03.06-.04.13,0,.21l.07-.15s.04.08.05.11-.09.11-.11.08l-.16-.16Z"/><path class="cls-1" d="M128.17,470.94c-.13.09-.26.15-.4.1l-.02.07s-.02,0-.08.01l-.03-.2h-.16s-.01.23-.01.23l-.24.02-.04-.27c-.21,0-.4,0-.58-.11h1.23s12.38,0,12.38,0c-.09.16-.25.27-.45.27h-9.79c-.36,0-.69-.04-1.03-.1-.11-.02-.21,0-.32.01-.14,0-.32-.13-.47-.03Z"/><path class="cls-1" d="M127.7,469.99v-.12s-.09,0-.09.01v.1s-.79-.02-.79-.02c0-.03,0-.05.02-.05l.09-.04h-.25s-.05.1-.05.1l-.04-.08s-.22-.06-.3.05v-.18s.28,0,.28,0h.26s.36,0,.36,0h.19s.32,0,.32,0c.17,0,.32,0,.49.02l-.02.23h-.2s0-.12,0-.12c0,0-.07,0-.07,0v.1s-.22,0-.22,0Z"/><path class="cls-1" d="M138.45,469.37l.05.17-.67.06-.02-.1s-.06-.03-.09-.04l.02-.19c0-.07.07-.13.15-.12l.47.07c.16.14.51,0,.74.09l-.65.07Z"/><path class="cls-1" d="M140.04,469.34c-.06.1-.29.12-.36.03l-.05.07s-.08,0-.11,0l.1-.06h-.12s.11-.06.11-.06c-.06-.02-.08-.02-.12-.05l1.05-.1.65-.06s.1-.14.12-.2v-.38s.05,0,.05,0v.73c-.09-.03-.15-.02-.23,0-.05.02-.08,0-.14.01h-.24s-.05.06-.06.05l-.06-.03-.27.02s-.04.08-.03.07-.04-.06-.05-.06l-.26.02Z"/><path class="cls-1" d="M139.43,469.36v.09s-.05.02-.07.02h-.09s0-.06,0-.11h.16Z"/><path class="cls-1" d="M128.49,469.94v-.28s.29,0,.29,0c.03,0,.08-.05.07-.1l-.62-.04v-.04s.54,0,.54,0c.07,0,.15-.05.21-.07.16-.04.34-.06.51-.07.1.04.11.22.1.32l.24-.07.03-.48h.26s.03-.07.01-.08l-.09-.03.23-.12s.05-.11.08-.1.08.04.1.07c.13.14.05.26.09.26h.1s0-.23,0-.23h.36s0-.27,0-.27c-.03,0-.09-.01-.09-.03v-.09s.07-.01.09-.01l.26-.02-.12-.06v-.19c0-.11.07-.17.16-.19s.2.04.2.16v.23s-.1.04-.1.04c.05.03.11.03.19.02v-.83s-.18-.2-.18-.2c.07.05.12.08.18.14v-.6c.1.05.04.29.05.54l.02.31.09.02s.02.06.02.09v.09s-.06.02-.11.02v.41c.05.02.09.06.09.08,0,.03-.05.07-.09.09v.56s.09.01.09,0v-.11s.18-.01.18-.01v-.16s.15,0,.15,0v.17s.2,0,.2,0v.12s.11,0,.12,0l-.14-.88s.02-.11.04-.18l.74-.25c.08.03.11.14.13.24l.02-.88.03-.51.05.07s.06,0,.07,0l.14-.2-.02-.07s.04,0,.08,0l.02-.11s-.05-.05-.08-.07c.03-.02.09-.04.08-.07l-.04-.11.06-.23.06.23-.04.09s.05.06.09.08c-.03.02-.07.03-.08.05v.13s.07-.01.07-.01c.03,0,.03-.08.03-.11,0-.11.07-.17.17-.16.11,0,.15.1.14.21v.11s-.05.04-.1.07c.24.1.43.03.46.09,0,.02-.02.09-.05.09l-.29.05v.16s.32-.01.32-.01v.09c-.11.03-.21.05-.3.14h.27s-.02.07-.03.08l-.2.12.05.36h.06c-.03-.15,0-.17.11-.22l-.07-.03s-.02-.06-.01-.08h.33s0,.1,0,.1c0,.02-.07,0-.1,0-.02,0-.03.05-.02.05h.08s0,.2,0,.2l.32-.02s.06.02.05.03l-.06.06s-.03.11-.01.16h.39s0,.51,0,.51c0,.14.01.27.03.4l.04-.15h.35s.01-.19.01-.19l.1-.1s.09-.06.1-.04l.06.09.15.09s.06,0,.08,0c.01,0,0,.04,0,.04l-.09.02s0,.08.01.08h.38s.07.4.07.4h.15s.08-.32.08-.32l.46.04s.14.05.19.08h.64s.01.04.01.04l-.54.04s-.11.03-.1.04l.07.1.08.37-2.2.13-.9.03c-.14.12-.31.17-.49.18l-.62.03-.96.02h-3.74s-.24-.01-.24-.01l.08-.06ZM133.84,466.62l-.2-.06v.27c.05-.06.06-.09.07-.14l.13-.06ZM133.26,468.14l.14-1.28c-.14.02-.12.12-.12.21v.6c-.01.16-.03.31-.01.47ZM133.5,466.92s-.02-.05-.03-.05l-.04.02-.08.81.02.02.13-.8ZM133.78,466.95l-.24-.07-.2,1.41.45-1.33ZM133.46,468.49s.09-.05.09-.07v-.21s.17-.02.17-.02c.01-.37.06-.7.04-1.08l-.41,1.28c-.02.06-.09.17-.08.23l.08.5s.12.03.12,0v-.63Z"/><path class="cls-1" d="M139.17,469.38s.03.09.01.1h-.09s-.08.03-.08,0v-.11s.15,0,.15,0Z"/><path class="cls-1" d="M140.27,469.7l.16.16s.12-.05.11-.08-.04-.1-.05-.11l-.07.15c-.04-.08-.04-.16,0-.21.07-.02.16.08.16.15,0,.08-.06.15-.13.18l-.15.08.06-.14c-.06-.05-.11-.1-.09-.18Z"/></g><g id="Destroyer3"><path class="cls-1" d="M138.59,479.77h.73s2.34.01,2.34.01l.58-.02c.37-.01.72-.01,1.09-.02h.62c.22-.02.43-.07.6-.2l.8-.03,3.13-.2,2.97-.31-.6.71c-.19.23-.35.45-.52.7h-3.85s-5.51,0-5.51,0h-4.42c-.17-.2-.25-.46-.24-.7l2.28.06ZM150.32,479.39c-.03.08.03.13.09.18l-.06.14.15-.08c.07-.03.14-.1.13-.18,0-.07-.09-.16-.16-.15-.03.06-.04.13,0,.21l.07-.15s.04.08.05.11-.09.11-.11.08l-.16-.16Z"/><path class="cls-1" d="M138.22,480.64c-.13.09-.26.15-.4.1l-.02.07s-.02,0-.08.01l-.03-.2h-.16s-.01.23-.01.23l-.24.02-.04-.27c-.21,0-.4,0-.58-.11h1.23s12.38,0,12.38,0c-.09.16-.25.27-.45.27h-9.79c-.36,0-.69-.04-1.03-.1-.11-.02-.21,0-.32.01-.14,0-.32-.13-.47-.03Z"/><path class="cls-1" d="M137.75,479.68v-.12s-.09,0-.09.01v.1s-.79-.02-.79-.02c0-.03,0-.05.02-.05l.09-.04h-.25s-.05.1-.05.1l-.04-.08s-.22-.06-.3.05v-.18s.28,0,.28,0h.26s.36,0,.36,0h.19s.32,0,.32,0c.17,0,.32,0,.49.02l-.02.23h-.2s0-.12,0-.12c0,0-.07,0-.07,0v.1s-.22,0-.22,0Z"/><path class="cls-1" d="M148.5,479.06l.05.17-.67.06-.02-.1s-.06-.03-.09-.04l.02-.19c0-.07.07-.13.15-.12l.47.07c.16.14.51,0,.74.09l-.65.07Z"/><path class="cls-1" d="M150.09,479.03c-.06.1-.29.12-.36.03l-.05.07s-.08,0-.11,0l.1-.06h-.12s.11-.06.11-.06c-.06-.02-.08-.02-.12-.05l1.05-.1.65-.06s.1-.14.12-.2v-.38s.05,0,.05,0v.73c-.09-.03-.15-.02-.23,0-.05.02-.08,0-.14.01h-.24s-.05.06-.06.05l-.06-.03-.27.02s-.04.08-.03.07-.04-.06-.05-.06l-.26.02Z"/><path class="cls-1" d="M149.48,479.05v.09s-.05.02-.07.02h-.09s0-.06,0-.11h.16Z"/><path class="cls-1" d="M138.54,479.63v-.28s.29,0,.29,0c.03,0,.08-.05.07-.1l-.62-.04v-.04s.54,0,.54,0c.07,0,.15-.05.21-.07.16-.04.34-.06.51-.07.1.04.11.22.1.32l.24-.07.03-.48h.26s.03-.07.01-.08l-.09-.03.23-.12s.05-.11.08-.1.08.04.1.07c.13.14.05.26.09.26h.1s0-.23,0-.23h.36s0-.27,0-.27c-.03,0-.09-.01-.09-.03v-.09s.07-.01.09-.01l.26-.02-.12-.06v-.19c0-.11.07-.17.16-.19s.2.04.2.16v.23s-.1.04-.1.04c.05.03.11.03.19.02v-.83s-.18-.2-.18-.2c.07.05.12.08.18.14v-.6c.1.05.04.29.05.54l.02.31.09.02s.02.06.02.09v.09s-.06.02-.11.02v.41c.05.02.09.06.09.08,0,.03-.05.07-.09.09v.56s.09.01.09,0v-.11s.18-.01.18-.01v-.16s.15,0,.15,0v.17s.2,0,.2,0v.12s.11,0,.12,0l-.14-.88s.02-.11.04-.18l.74-.25c.08.03.11.14.13.24l.02-.88.03-.51.05.07s.06,0,.07,0l.14-.2-.02-.07s.04,0,.08,0l.02-.11s-.05-.05-.08-.07c.03-.02.09-.04.08-.07l-.04-.11.06-.23.06.23-.04.09s.05.06.09.08c-.03.02-.07.03-.08.05v.13s.07-.01.07-.01c.03,0,.03-.08.03-.11,0-.11.07-.17.17-.16.11,0,.15.1.14.21v.11s-.05.04-.1.07c.24.1.43.03.46.09,0,.02-.02.09-.05.09l-.29.05v.16s.32-.01.32-.01v.09c-.11.03-.21.05-.3.14h.27s-.02.07-.03.08l-.2.12.05.36h.06c-.03-.15,0-.17.11-.22l-.07-.03s-.02-.06-.01-.08h.33s0,.1,0,.1c0,.02-.07,0-.1,0-.02,0-.03.05-.02.05h.08s0,.2,0,.2l.32-.02s.06.02.05.03l-.06.06s-.03.11-.01.16h.39s0,.51,0,.51c0,.14.01.27.03.4l.04-.15h.35s.01-.19.01-.19l.1-.1s.09-.06.1-.04l.06.09.15.09s.06,0,.08,0c.01,0,0,.04,0,.04l-.09.02s0,.08.01.08h.38s.07.4.07.4h.15s.08-.32.08-.32l.46.04s.14.05.19.08h.64s.01.04.01.04l-.54.04s-.11.03-.1.04l.07.1.08.37-2.2.13-.9.03c-.14.12-.31.17-.49.18l-.62.03-.96.02h-3.74s-.24-.01-.24-.01l.08-.06ZM143.89,476.31l-.2-.06v.27c.05-.06.06-.09.07-.14l.13-.06ZM143.31,477.83l.14-1.28c-.14.02-.12.12-.12.21v.6c-.01.16-.03.31-.01.47ZM143.55,476.61s-.02-.05-.03-.05l-.04.02-.08.81.02.02.13-.8ZM143.83,476.64l-.24-.07-.2,1.41.45-1.33ZM143.51,478.18s.09-.05.09-.07v-.21s.17-.02.17-.02c.01-.37.06-.7.04-1.08l-.41,1.28c-.02.06-.09.17-.08.23l.08.5s.12.03.12,0v-.63Z"/><path class="cls-1" d="M149.22,479.08s.03.09.01.1h-.09s-.08.03-.08,0v-.11s.15,0,.15,0Z"/><path class="cls-1" d="M150.32,479.39l.16.16s.12-.05.11-.08-.04-.1-.05-.11l-.07.15c-.04-.08-.04-.16,0-.21.07-.02.16.08.16.15,0,.08-.06.15-.13.18l-.15.08.06-.14c-.06-.05-.11-.1-.09-.18Z"/></g><g id="Destroyer4"><path class="cls-1" d="M153.7,470.69h.73s2.34.01,2.34.01l.58-.02c.37-.01.72-.01,1.09-.02h.62c.22-.02.43-.07.6-.2l.8-.03,3.13-.2,2.97-.31-.6.71c-.19.23-.35.45-.52.7h-3.85s-5.51,0-5.51,0h-4.42c-.17-.2-.25-.46-.24-.7l2.28.06ZM165.43,470.31c-.03.08.03.13.09.18l-.06.14.15-.08c.07-.03.14-.1.13-.18,0-.07-.09-.16-.16-.15-.03.06-.04.13,0,.21l.07-.15s.04.08.05.11-.09.11-.11.08l-.16-.16Z"/><path class="cls-1" d="M153.33,471.56c-.13.09-.26.15-.4.1l-.02.07s-.02,0-.08.01l-.03-.2h-.16s-.01.23-.01.23l-.24.02-.04-.27c-.21,0-.4,0-.58-.11h1.23s12.38,0,12.38,0c-.09.16-.25.27-.45.27h-9.79c-.36,0-.69-.04-1.03-.1-.11-.02-.21,0-.32.01-.14,0-.32-.13-.47-.03Z"/><path class="cls-1" d="M152.86,470.6v-.12s-.09,0-.09.01v.1s-.79-.02-.79-.02c0-.03,0-.05.02-.05l.09-.04h-.25s-.05.1-.05.1l-.04-.08s-.22-.06-.3.05v-.18s.28,0,.28,0h.26s.36,0,.36,0h.19s.32,0,.32,0c.17,0,.32,0,.49.02l-.02.23h-.2s0-.12,0-.12c0,0-.07,0-.07,0v.1s-.22,0-.22,0Z"/><path class="cls-1" d="M163.61,469.99l.05.17-.67.06-.02-.1s-.06-.03-.09-.04l.02-.19c0-.07.07-.13.15-.12l.47.07c.16.14.51,0,.74.09l-.65.07Z"/><path class="cls-1" d="M165.21,469.95c-.06.1-.29.12-.36.03l-.05.07s-.08,0-.11,0l.1-.06h-.12s.11-.06.11-.06c-.06-.02-.08-.02-.12-.05l1.05-.1.65-.06s.1-.14.12-.2v-.38s.05,0,.05,0v.73c-.09-.03-.15-.02-.23,0-.05.02-.08,0-.14.01h-.24s-.05.06-.06.05l-.06-.03-.27.02s-.04.08-.03.07-.04-.06-.05-.06l-.26.02Z"/><path class="cls-1" d="M164.59,469.97v.09s-.05.02-.07.02h-.09s0-.06,0-.11h.16Z"/><path class="cls-1" d="M153.65,470.55v-.28s.29,0,.29,0c.03,0,.08-.05.07-.1l-.62-.04v-.04s.54,0,.54,0c.07,0,.15-.05.21-.07.16-.04.34-.06.51-.07.1.04.11.22.1.32l.24-.07.03-.48h.26s.03-.07.01-.08l-.09-.03.23-.12s.05-.11.08-.1.08.04.1.07c.13.14.05.26.09.26h.1s0-.23,0-.23h.36s0-.27,0-.27c-.03,0-.09-.01-.09-.03v-.09s.07-.01.09-.01l.26-.02-.12-.06v-.19c0-.11.07-.17.16-.19s.2.04.2.16v.23s-.1.04-.1.04c.05.03.11.03.19.02v-.83s-.18-.2-.18-.2c.07.05.12.08.18.14v-.6c.1.05.04.29.05.54l.02.31.09.02s.02.06.02.09v.09s-.06.02-.11.02v.41c.05.02.09.06.09.08,0,.03-.05.07-.09.09v.56s.09.01.09,0v-.11s.18-.01.18-.01v-.16s.15,0,.15,0v.17s.2,0,.2,0v.12s.11,0,.12,0l-.14-.88s.02-.11.04-.18l.74-.25c.08.03.11.14.13.24l.02-.88.03-.51.05.07s.06,0,.07,0l.14-.2-.02-.07s.04,0,.08,0l.02-.11s-.05-.05-.08-.07c.03-.02.09-.04.08-.07l-.04-.11.06-.23.06.23-.04.09s.05.06.09.08c-.03.02-.07.03-.08.05v.13s.07-.01.07-.01c.03,0,.03-.08.03-.11,0-.11.07-.17.17-.16.11,0,.15.1.14.21v.11s-.05.04-.1.07c.24.1.43.03.46.09,0,.02-.02.09-.05.09l-.29.05v.16s.32-.01.32-.01v.09c-.11.03-.21.05-.3.14h.27s-.02.07-.03.08l-.2.12.05.36h.06c-.03-.15,0-.17.11-.22l-.07-.03s-.02-.06-.01-.08h.33s0,.1,0,.1c0,.02-.07,0-.1,0-.02,0-.03.05-.02.05h.08s0,.2,0,.2l.32-.02s.06.02.05.03l-.06.06s-.03.11-.01.16h.39s0,.51,0,.51c0,.14.01.27.03.4l.04-.15h.35s.01-.19.01-.19l.1-.1s.09-.06.1-.04l.06.09.15.09s.06,0,.08,0c.01,0,0,.04,0,.04l-.09.02s0,.08.01.08h.38s.07.4.07.4h.15s.08-.32.08-.32l.46.04s.14.05.19.08h.64s.01.04.01.04l-.54.04s-.11.03-.1.04l.07.1.08.37-2.2.13-.9.03c-.14.12-.31.17-.49.18l-.62.03-.96.02h-3.74s-.24-.01-.24-.01l.08-.06ZM159.01,467.23l-.2-.06v.27c.05-.06.06-.09.07-.14l.13-.06ZM158.43,468.75l.14-1.28c-.14.02-.12.12-.12.21v.6c-.01.16-.03.31-.01.47ZM158.66,467.53s-.02-.05-.03-.05l-.04.02-.08.81.02.02.13-.8ZM158.94,467.57l-.24-.07-.2,1.41.45-1.33ZM158.63,469.1s.09-.05.09-.07v-.21s.17-.02.17-.02c.01-.37.06-.7.04-1.08l-.41,1.28c-.02.06-.09.17-.08.23l.08.5s.12.03.12,0v-.63Z"/><path class="cls-1" d="M164.34,470s.03.09.01.1h-.09s-.08.03-.08,0v-.11s.15,0,.15,0Z"/><path class="cls-1" d="M165.43,470.31l.16.16s.12-.05.11-.08-.04-.1-.05-.11l-.07.15c-.04-.08-.04-.16,0-.21.07-.02.16.08.16.15,0,.08-.06.15-.13.18l-.15.08.06-.14c-.06-.05-.11-.1-.09-.18Z"/></g></g></svg>