<?xml version="1.0" encoding="UTF-8"?><svg id="Calque_2" xmlns="http://www.w3.org/2000/svg" viewBox="0 0 841.71 594.2"><defs><style>.cls-1{fill:none;stroke:#840b0b;stroke-linecap:round;stroke-width:2px;}.cls-2{fill:#fff;}</style></defs><g id="Nom_de_Pays"><path class="cls-1" d="M735.45,173.26c.77,0,1.4.21,1.88.64.48.43.73.98.73,1.66,0,.47-.12.87-.36,1.22-.24.34-.6.62-1.07.82.26.14.49.33.7.57.2.24.45.65.76,1.22.5.99.87,1.68,1.11,2.05h-1.76c-.12-.18-.29-.47-.49-.86-.45-.87-.79-1.46-1-1.76-.21-.3-.41-.52-.61-.64-.2-.13-.42-.19-.67-.19h-.57v3.46h-1.58v-8.19h2.95ZM735.09,176.76c.41,0,.74-.1.98-.31.24-.21.36-.49.36-.85s-.12-.66-.35-.84c-.23-.19-.57-.28-1-.28h-.98v2.28h1.01Z"/><path class="cls-1" d="M742.23,175.72v3.34c0,.34.05.61.15.82.1.2.27.37.5.5.23.13.5.2.81.2.34,0,.63-.06.86-.19.24-.12.41-.29.52-.51.11-.21.16-.51.16-.89v-3.26h1.11v3.41c0,.77-.23,1.36-.69,1.78-.46.41-1.12.62-1.96.62-.53,0-.99-.09-1.38-.28-.39-.19-.69-.46-.89-.82-.21-.36-.31-.78-.31-1.26v-3.45h1.11Z"/><path class="cls-1" d="M750.07,175.65c.56,0,1.09.14,1.61.42v.98c-.59-.36-1.12-.54-1.58-.54-.28,0-.5.05-.66.16-.16.11-.24.25-.24.43,0,.22.15.41.44.6.08.06.4.21.95.46.47.22.81.47,1.02.74.21.27.31.6.31.98,0,.49-.18.89-.53,1.19s-.81.45-1.38.45c-.37,0-.68-.04-.95-.12s-.56-.22-.89-.42v-1.09c.61.51,1.19.76,1.73.76.27,0,.49-.06.66-.18.17-.12.25-.27.25-.47,0-.26-.15-.48-.43-.65-.24-.13-.55-.29-.93-.47-.45-.21-.79-.45-1.01-.72-.22-.27-.33-.59-.33-.95,0-.48.18-.86.54-1.15.36-.29.83-.43,1.42-.43Z"/><path class="cls-1" d="M755.4,175.65c.56,0,1.1.14,1.61.42v.98c-.59-.36-1.12-.54-1.58-.54-.28,0-.5.05-.65.16s-.24.25-.24.43c0,.22.15.41.44.6.08.06.4.21.95.46.47.22.81.47,1.02.74.21.27.31.6.31.98,0,.49-.18.89-.53,1.19-.36.3-.81.45-1.38.45-.37,0-.68-.04-.94-.12-.26-.08-.56-.22-.89-.42v-1.09c.61.51,1.19.76,1.73.76.27,0,.49-.06.66-.18.17-.12.25-.27.25-.47,0-.26-.14-.48-.43-.65-.24-.13-.55-.29-.93-.47-.45-.21-.79-.45-1.01-.72s-.33-.59-.33-.95c0-.48.18-.86.54-1.15.36-.29.83-.43,1.42-.43Z"/><path class="cls-1" d="M760.2,175.72v5.73h-1.11v-5.73h1.11Z"/><path class="cls-1" d="M766.03,175.72v.87h-2.6v1.51h2.49v.86h-2.49v1.63h2.65v.86h-3.76v-5.73h3.7Z"/><path class="cls-2" d="M735.45,173.26c.77,0,1.4.21,1.88.64.48.43.73.98.73,1.66,0,.47-.12.87-.36,1.22-.24.34-.6.62-1.07.82.26.14.49.33.7.57.2.24.45.65.76,1.22.5.99.87,1.68,1.11,2.05h-1.76c-.12-.18-.29-.47-.49-.86-.45-.87-.79-1.46-1-1.76-.21-.3-.41-.52-.61-.64-.2-.13-.42-.19-.67-.19h-.57v3.46h-1.58v-8.19h2.95ZM735.09,176.76c.41,0,.74-.1.98-.31.24-.21.36-.49.36-.85s-.12-.66-.35-.84c-.23-.19-.57-.28-1-.28h-.98v2.28h1.01Z"/><path class="cls-2" d="M742.23,175.72v3.34c0,.34.05.61.15.82.1.2.27.37.5.5.23.13.5.2.81.2.34,0,.63-.06.86-.19.24-.12.41-.29.52-.51.11-.21.16-.51.16-.89v-3.26h1.11v3.41c0,.77-.23,1.36-.69,1.78-.46.41-1.12.62-1.96.62-.53,0-.99-.09-1.38-.28-.39-.19-.69-.46-.89-.82-.21-.36-.31-.78-.31-1.26v-3.45h1.11Z"/><path class="cls-2" d="M750.07,175.65c.56,0,1.09.14,1.61.42v.98c-.59-.36-1.12-.54-1.58-.54-.28,0-.5.05-.66.16-.16.11-.24.25-.24.43,0,.22.15.41.44.6.08.06.4.21.95.46.47.22.81.47,1.02.74.21.27.31.6.31.98,0,.49-.18.89-.53,1.19s-.81.45-1.38.45c-.37,0-.68-.04-.95-.12s-.56-.22-.89-.42v-1.09c.61.51,1.19.76,1.73.76.27,0,.49-.06.66-.18.17-.12.25-.27.25-.47,0-.26-.15-.48-.43-.65-.24-.13-.55-.29-.93-.47-.45-.21-.79-.45-1.01-.72-.22-.27-.33-.59-.33-.95,0-.48.18-.86.54-1.15.36-.29.83-.43,1.42-.43Z"/><path class="cls-2" d="M755.4,175.65c.56,0,1.1.14,1.61.42v.98c-.59-.36-1.12-.54-1.58-.54-.28,0-.5.05-.65.16s-.24.25-.24.43c0,.22.15.41.44.6.08.06.4.21.95.46.47.22.81.47,1.02.74.21.27.31.6.31.98,0,.49-.18.89-.53,1.19-.36.3-.81.45-1.38.45-.37,0-.68-.04-.94-.12-.26-.08-.56-.22-.89-.42v-1.09c.61.51,1.19.76,1.73.76.27,0,.49-.06.66-.18.17-.12.25-.27.25-.47,0-.26-.14-.48-.43-.65-.24-.13-.55-.29-.93-.47-.45-.21-.79-.45-1.01-.72s-.33-.59-.33-.95c0-.48.18-.86.54-1.15.36-.29.83-.43,1.42-.43Z"/><path class="cls-2" d="M760.2,175.72v5.73h-1.11v-5.73h1.11Z"/><path class="cls-2" d="M766.03,175.72v.87h-2.6v1.51h2.49v.86h-2.49v1.63h2.65v.86h-3.76v-5.73h3.7Z"/><path class="cls-2" d="M735.45,173.26c.77,0,1.4.21,1.88.64.48.43.73.98.73,1.66,0,.47-.12.87-.36,1.22-.24.34-.6.62-1.07.82.26.14.49.33.7.57.2.24.45.65.76,1.22.5.99.87,1.68,1.11,2.05h-1.76c-.12-.18-.29-.47-.49-.86-.45-.87-.79-1.46-1-1.76-.21-.3-.41-.52-.61-.64-.2-.13-.42-.19-.67-.19h-.57v3.46h-1.58v-8.19h2.95ZM735.09,176.76c.41,0,.74-.1.98-.31.24-.21.36-.49.36-.85s-.12-.66-.35-.84c-.23-.19-.57-.28-1-.28h-.98v2.28h1.01Z"/><path class="cls-2" d="M742.23,175.72v3.34c0,.34.05.61.15.82.1.2.27.37.5.5.23.13.5.2.81.2.34,0,.63-.06.86-.19.24-.12.41-.29.52-.51.11-.21.16-.51.16-.89v-3.26h1.11v3.41c0,.77-.23,1.36-.69,1.78-.46.41-1.12.62-1.96.62-.53,0-.99-.09-1.38-.28-.39-.19-.69-.46-.89-.82-.21-.36-.31-.78-.31-1.26v-3.45h1.11Z"/><path class="cls-2" d="M750.07,175.65c.56,0,1.09.14,1.61.42v.98c-.59-.36-1.12-.54-1.58-.54-.28,0-.5.05-.66.16-.16.11-.24.25-.24.43,0,.22.15.41.44.6.08.06.4.21.95.46.47.22.81.47,1.02.74.21.27.31.6.31.98,0,.49-.18.89-.53,1.19s-.81.45-1.38.45c-.37,0-.68-.04-.95-.12s-.56-.22-.89-.42v-1.09c.61.51,1.19.76,1.73.76.27,0,.49-.06.66-.18.17-.12.25-.27.25-.47,0-.26-.15-.48-.43-.65-.24-.13-.55-.29-.93-.47-.45-.21-.79-.45-1.01-.72-.22-.27-.33-.59-.33-.95,0-.48.18-.86.54-1.15.36-.29.83-.43,1.42-.43Z"/><path class="cls-2" d="M755.4,175.65c.56,0,1.1.14,1.61.42v.98c-.59-.36-1.12-.54-1.58-.54-.28,0-.5.05-.65.16s-.24.25-.24.43c0,.22.15.41.44.6.08.06.4.21.95.46.47.22.81.47,1.02.74.21.27.31.6.31.98,0,.49-.18.89-.53,1.19-.36.3-.81.45-1.38.45-.37,0-.68-.04-.94-.12-.26-.08-.56-.22-.89-.42v-1.09c.61.51,1.19.76,1.73.76.27,0,.49-.06.66-.18.17-.12.25-.27.25-.47,0-.26-.14-.48-.43-.65-.24-.13-.55-.29-.93-.47-.45-.21-.79-.45-1.01-.72s-.33-.59-.33-.95c0-.48.18-.86.54-1.15.36-.29.83-.43,1.42-.43Z"/><path class="cls-2" d="M760.2,175.72v5.73h-1.11v-5.73h1.11Z"/><path class="cls-2" d="M766.03,175.72v.87h-2.6v1.51h2.49v.86h-2.49v1.63h2.65v.86h-3.76v-5.73h3.7Z"/><path class="cls-1" d="M585.34,193.63c.75,0,1.36.2,1.83.59.47.39.71.88.71,1.46,0,.38-.1.71-.3.99-.2.28-.48.51-.86.68v.07c.57.13,1.01.38,1.33.76.32.38.48.83.48,1.34,0,.45-.12.86-.35,1.22-.23.36-.55.63-.97.81-.41.18-.9.27-1.46.27h-3.43v-8.19h3ZM584.92,197.02c.42,0,.75-.1.99-.3.24-.2.36-.48.36-.83,0-.32-.11-.57-.33-.75-.22-.19-.52-.28-.88-.28h-1.14v2.16h1ZM585.29,200.57c.53,0,.94-.1,1.21-.3.27-.2.41-.5.41-.89,0-.35-.14-.62-.41-.82-.27-.2-.64-.3-1.09-.3h-1.49v2.31h1.37Z"/><path class="cls-1" d="M591.94,196.08v5.73h-1.11v-5.73h1.11Z"/><path class="cls-1" d="M597.77,196.08v.87h-2.6v1.51h2.49v.86h-2.49v1.63h2.65v.86h-3.76v-5.73h3.7ZM597.26,194.28l-1.55,1.41h-.62l.78-1.41h1.39Z"/><path class="cls-1" d="M600.81,196.08v4.87h2.78v.86h-3.89v-5.73h1.11Z"/><path class="cls-1" d="M607.96,196.01c.59,0,1.13.12,1.6.37.47.24.85.6,1.13,1.06.28.46.42.97.42,1.52s-.14,1.03-.41,1.49c-.27.46-.65.81-1.13,1.07-.48.25-1.02.38-1.62.38s-1.13-.13-1.62-.39-.86-.61-1.13-1.06-.41-.95-.41-1.49.13-1.02.41-1.48c.27-.46.64-.82,1.12-1.08s1.02-.38,1.64-.38ZM605.94,198.95c0,.38.09.72.26,1.03s.41.54.72.71c.31.17.66.25,1.04.25.59,0,1.07-.19,1.45-.55s.57-.84.57-1.43c0-.38-.09-.72-.26-1.03s-.41-.54-.72-.71c-.31-.17-.66-.25-1.05-.25s-.74.08-1.05.25c-.31.17-.55.4-.72.71-.17.3-.25.64-.25,1.03Z"/><path class="cls-1" d="M615.06,196.08c.54,0,.98.15,1.32.45.34.3.51.69.51,1.16,0,.33-.08.61-.25.85-.17.24-.42.43-.75.57.18.1.35.23.49.4.14.17.32.45.53.86.35.69.61,1.17.78,1.44h-1.24c-.08-.13-.2-.33-.34-.6-.32-.61-.55-1.02-.7-1.23s-.29-.36-.43-.45c-.14-.09-.29-.13-.47-.13h-.4v2.42h-1.11v-5.73h2.06ZM614.81,198.52c.29,0,.52-.07.68-.22.17-.15.25-.34.25-.59s-.08-.46-.25-.59-.4-.19-.7-.19h-.69v1.59h.71Z"/><path class="cls-1" d="M620.14,196.08v3.34c0,.34.05.61.15.82.1.2.27.37.5.5.23.13.5.2.81.2.34,0,.63-.06.86-.19.24-.12.41-.29.52-.51.11-.21.16-.51.16-.89v-3.26h1.11v3.41c0,.77-.23,1.36-.69,1.78-.46.41-1.12.62-1.96.62-.53,0-.99-.09-1.38-.28-.39-.19-.69-.46-.89-.82-.21-.36-.31-.78-.31-1.26v-3.45h1.11Z"/><path class="cls-1" d="M627.99,196.01c.56,0,1.09.14,1.61.42v.98c-.59-.36-1.12-.54-1.58-.54-.28,0-.5.05-.66.16-.16.11-.24.25-.24.43,0,.22.15.41.44.6.08.06.4.21.95.46.47.22.81.47,1.02.74.21.27.31.6.31.98,0,.49-.18.89-.53,1.19s-.81.45-1.38.45c-.37,0-.68-.04-.95-.12s-.56-.22-.89-.42v-1.09c.61.51,1.19.76,1.73.76.27,0,.49-.06.66-.18.17-.12.25-.27.25-.47,0-.26-.15-.48-.43-.65-.24-.13-.55-.29-.93-.47-.45-.21-.79-.45-1.01-.72-.22-.27-.33-.59-.33-.95,0-.48.18-.86.54-1.15.36-.29.83-.43,1.42-.43Z"/><path class="cls-1" d="M633.32,196.01c.56,0,1.1.14,1.61.42v.98c-.59-.36-1.12-.54-1.58-.54-.28,0-.5.05-.65.16s-.24.25-.24.43c0,.22.15.41.44.6.08.06.4.21.95.46.47.22.81.47,1.02.74.21.27.31.6.31.98,0,.49-.18.89-.53,1.19-.36.3-.81.45-1.38.45-.37,0-.68-.04-.94-.12-.26-.08-.56-.22-.89-.42v-1.09c.61.51,1.19.76,1.73.76.27,0,.49-.06.66-.18.17-.12.25-.27.25-.47,0-.26-.14-.48-.43-.65-.24-.13-.55-.29-.93-.47-.45-.21-.79-.45-1.01-.72s-.33-.59-.33-.95c0-.48.18-.86.54-1.15.36-.29.83-.43,1.42-.43Z"/><path class="cls-1" d="M638.11,196.08v5.73h-1.11v-5.73h1.11Z"/><path class="cls-1" d="M643.95,196.08v.87h-2.6v1.51h2.49v.86h-2.49v1.63h2.65v.86h-3.76v-5.73h3.7Z"/><path class="cls-2" d="M585.34,193.63c.75,0,1.36.2,1.83.59.47.39.71.88.71,1.46,0,.38-.1.71-.3.99-.2.28-.48.51-.86.68v.07c.57.13,1.01.38,1.33.76.32.38.48.83.48,1.34,0,.45-.12.86-.35,1.22-.23.36-.55.63-.97.81-.41.18-.9.27-1.46.27h-3.43v-8.19h3ZM584.92,197.02c.42,0,.75-.1.99-.3.24-.2.36-.48.36-.83,0-.32-.11-.57-.33-.75-.22-.19-.52-.28-.88-.28h-1.14v2.16h1ZM585.29,200.57c.53,0,.94-.1,1.21-.3.27-.2.41-.5.41-.89,0-.35-.14-.62-.41-.82-.27-.2-.64-.3-1.09-.3h-1.49v2.31h1.37Z"/><path class="cls-2" d="M591.94,196.08v5.73h-1.11v-5.73h1.11Z"/><path class="cls-2" d="M597.77,196.08v.87h-2.6v1.51h2.49v.86h-2.49v1.63h2.65v.86h-3.76v-5.73h3.7ZM597.26,194.28l-1.55,1.41h-.62l.78-1.41h1.39Z"/><path class="cls-2" d="M600.81,196.08v4.87h2.78v.86h-3.89v-5.73h1.11Z"/><path class="cls-2" d="M607.96,196.01c.59,0,1.13.12,1.6.37.47.24.85.6,1.13,1.06.28.46.42.97.42,1.52s-.14,1.03-.41,1.49c-.27.46-.65.81-1.13,1.07-.48.25-1.02.38-1.62.38s-1.13-.13-1.62-.39-.86-.61-1.13-1.06-.41-.95-.41-1.49.13-1.02.41-1.48c.27-.46.64-.82,1.12-1.08s1.02-.38,1.64-.38ZM605.94,198.95c0,.38.09.72.26,1.03s.41.54.72.71c.31.17.66.25,1.04.25.59,0,1.07-.19,1.45-.55s.57-.84.57-1.43c0-.38-.09-.72-.26-1.03s-.41-.54-.72-.71c-.31-.17-.66-.25-1.05-.25s-.74.08-1.05.25c-.31.17-.55.4-.72.71-.17.3-.25.64-.25,1.03Z"/><path class="cls-2" d="M615.06,196.08c.54,0,.98.15,1.32.45.34.3.51.69.51,1.16,0,.33-.08.61-.25.85-.17.24-.42.43-.75.57.18.1.35.23.49.4.14.17.32.45.53.86.35.69.61,1.17.78,1.44h-1.24c-.08-.13-.2-.33-.34-.6-.32-.61-.55-1.02-.7-1.23s-.29-.36-.43-.45c-.14-.09-.29-.13-.47-.13h-.4v2.42h-1.11v-5.73h2.06ZM614.81,198.52c.29,0,.52-.07.68-.22.17-.15.25-.34.25-.59s-.08-.46-.25-.59-.4-.19-.7-.19h-.69v1.59h.71Z"/><path class="cls-2" d="M620.14,196.08v3.34c0,.34.05.61.15.82.1.2.27.37.5.5.23.13.5.2.81.2.34,0,.63-.06.86-.19.24-.12.41-.29.52-.51.11-.21.16-.51.16-.89v-3.26h1.11v3.41c0,.77-.23,1.36-.69,1.78-.46.41-1.12.62-1.96.62-.53,0-.99-.09-1.38-.28-.39-.19-.69-.46-.89-.82-.21-.36-.31-.78-.31-1.26v-3.45h1.11Z"/><path class="cls-2" d="M627.99,196.01c.56,0,1.09.14,1.61.42v.98c-.59-.36-1.12-.54-1.58-.54-.28,0-.5.05-.66.16-.16.11-.24.25-.24.43,0,.22.15.41.44.6.08.06.4.21.95.46.47.22.81.47,1.02.74.21.27.31.6.31.98,0,.49-.18.89-.53,1.19s-.81.45-1.38.45c-.37,0-.68-.04-.95-.12s-.56-.22-.89-.42v-1.09c.61.51,1.19.76,1.73.76.27,0,.49-.06.66-.18.17-.12.25-.27.25-.47,0-.26-.15-.48-.43-.65-.24-.13-.55-.29-.93-.47-.45-.21-.79-.45-1.01-.72-.22-.27-.33-.59-.33-.95,0-.48.18-.86.54-1.15.36-.29.83-.43,1.42-.43Z"/><path class="cls-2" d="M633.32,196.01c.56,0,1.1.14,1.61.42v.98c-.59-.36-1.12-.54-1.58-.54-.28,0-.5.05-.65.16s-.24.25-.24.43c0,.22.15.41.44.6.08.06.4.21.95.46.47.22.81.47,1.02.74.21.27.31.6.31.98,0,.49-.18.89-.53,1.19-.36.3-.81.45-1.38.45-.37,0-.68-.04-.94-.12-.26-.08-.56-.22-.89-.42v-1.09c.61.51,1.19.76,1.73.76.27,0,.49-.06.66-.18.17-.12.25-.27.25-.47,0-.26-.14-.48-.43-.65-.24-.13-.55-.29-.93-.47-.45-.21-.79-.45-1.01-.72s-.33-.59-.33-.95c0-.48.18-.86.54-1.15.36-.29.83-.43,1.42-.43Z"/><path class="cls-2" d="M638.11,196.08v5.73h-1.11v-5.73h1.11Z"/><path class="cls-2" d="M643.95,196.08v.87h-2.6v1.51h2.49v.86h-2.49v1.63h2.65v.86h-3.76v-5.73h3.7Z"/><path class="cls-2" d="M585.34,193.63c.75,0,1.36.2,1.83.59.47.39.71.88.71,1.46,0,.38-.1.71-.3.99-.2.28-.48.51-.86.68v.07c.57.13,1.01.38,1.33.76.32.38.48.83.48,1.34,0,.45-.12.86-.35,1.22-.23.36-.55.63-.97.81-.41.18-.9.27-1.46.27h-3.43v-8.19h3ZM584.92,197.02c.42,0,.75-.1.99-.3.24-.2.36-.48.36-.83,0-.32-.11-.57-.33-.75-.22-.19-.52-.28-.88-.28h-1.14v2.16h1ZM585.29,200.57c.53,0,.94-.1,1.21-.3.27-.2.41-.5.41-.89,0-.35-.14-.62-.41-.82-.27-.2-.64-.3-1.09-.3h-1.49v2.31h1.37Z"/><path class="cls-2" d="M591.94,196.08v5.73h-1.11v-5.73h1.11Z"/><path class="cls-2" d="M597.77,196.08v.87h-2.6v1.51h2.49v.86h-2.49v1.63h2.65v.86h-3.76v-5.73h3.7ZM597.26,194.28l-1.55,1.41h-.62l.78-1.41h1.39Z"/><path class="cls-2" d="M600.81,196.08v4.87h2.78v.86h-3.89v-5.73h1.11Z"/><path class="cls-2" d="M607.96,196.01c.59,0,1.13.12,1.6.37.47.24.85.6,1.13,1.06.28.46.42.97.42,1.52s-.14,1.03-.41,1.49c-.27.46-.65.81-1.13,1.07-.48.25-1.02.38-1.62.38s-1.13-.13-1.62-.39-.86-.61-1.13-1.06-.41-.95-.41-1.49.13-1.02.41-1.48c.27-.46.64-.82,1.12-1.08s1.02-.38,1.64-.38ZM605.94,198.95c0,.38.09.72.26,1.03s.41.54.72.71c.31.17.66.25,1.04.25.59,0,1.07-.19,1.45-.55s.57-.84.57-1.43c0-.38-.09-.72-.26-1.03s-.41-.54-.72-.71c-.31-.17-.66-.25-1.05-.25s-.74.08-1.05.25c-.31.17-.55.4-.72.71-.17.3-.25.64-.25,1.03Z"/><path class="cls-2" d="M615.06,196.08c.54,0,.98.15,1.32.45.34.3.51.69.51,1.16,0,.33-.08.61-.25.85-.17.24-.42.43-.75.57.18.1.35.23.49.4.14.17.32.45.53.86.35.69.61,1.17.78,1.44h-1.24c-.08-.13-.2-.33-.34-.6-.32-.61-.55-1.02-.7-1.23s-.29-.36-.43-.45c-.14-.09-.29-.13-.47-.13h-.4v2.42h-1.11v-5.73h2.06ZM614.81,198.52c.29,0,.52-.07.68-.22.17-.15.25-.34.25-.59s-.08-.46-.25-.59-.4-.19-.7-.19h-.69v1.59h.71Z"/><path class="cls-2" d="M620.14,196.08v3.34c0,.34.05.61.15.82.1.2.27.37.5.5.23.13.5.2.81.2.34,0,.63-.06.86-.19.24-.12.41-.29.52-.51.11-.21.16-.51.16-.89v-3.26h1.11v3.41c0,.77-.23,1.36-.69,1.78-.46.41-1.12.62-1.96.62-.53,0-.99-.09-1.38-.28-.39-.19-.69-.46-.89-.82-.21-.36-.31-.78-.31-1.26v-3.45h1.11Z"/><path class="cls-2" d="M627.99,196.01c.56,0,1.09.14,1.61.42v.98c-.59-.36-1.12-.54-1.58-.54-.28,0-.5.05-.66.16-.16.11-.24.25-.24.43,0,.22.15.41.44.6.08.06.4.21.95.46.47.22.81.47,1.02.74.21.27.31.6.31.98,0,.49-.18.89-.53,1.19s-.81.45-1.38.45c-.37,0-.68-.04-.95-.12s-.56-.22-.89-.42v-1.09c.61.51,1.19.76,1.73.76.27,0,.49-.06.66-.18.17-.12.25-.27.25-.47,0-.26-.15-.48-.43-.65-.24-.13-.55-.29-.93-.47-.45-.21-.79-.45-1.01-.72-.22-.27-.33-.59-.33-.95,0-.48.18-.86.54-1.15.36-.29.83-.43,1.42-.43Z"/><path class="cls-2" d="M633.32,196.01c.56,0,1.1.14,1.61.42v.98c-.59-.36-1.12-.54-1.58-.54-.28,0-.5.05-.65.16s-.24.25-.24.43c0,.22.15.41.44.6.08.06.4.21.95.46.47.22.81.47,1.02.74.21.27.31.6.31.98,0,.49-.18.89-.53,1.19-.36.3-.81.45-1.38.45-.37,0-.68-.04-.94-.12-.26-.08-.56-.22-.89-.42v-1.09c.61.51,1.19.76,1.73.76.27,0,.49-.06.66-.18.17-.12.25-.27.25-.47,0-.26-.14-.48-.43-.65-.24-.13-.55-.29-.93-.47-.45-.21-.79-.45-1.01-.72s-.33-.59-.33-.95c0-.48.18-.86.54-1.15.36-.29.83-.43,1.42-.43Z"/><path class="cls-2" d="M638.11,196.08v5.73h-1.11v-5.73h1.11Z"/><path class="cls-2" d="M643.95,196.08v.87h-2.6v1.51h2.49v.86h-2.49v1.63h2.65v.86h-3.76v-5.73h3.7Z"/></g></svg>