<?xml version="1.0" encoding="UTF-8"?><svg id="Calque_2" xmlns="http://www.w3.org/2000/svg" viewBox="0 0 389.8 692.25"><defs><style>.cls-1{fill:none;stroke:#fff;stroke-miterlimit:10;}</style></defs><g id="Calque_5"><rect class="cls-1" x=".5" y=".5" width="388.8" height="691.25"/></g><g id="Ville"><path d="M179.83,397.77l1.95,2.29v-2.29h.62v3.27h-.54l-1.96-2.32v2.32h-.62v-3.27h.56Z"/><path d="M183.82,398.81c.28,0,.5.06.64.18s.22.29.22.5v1.07c0,.08.03.12.1.12.03,0,.07-.01.12-.04s.09-.05.13-.08v.33c-.2.12-.39.19-.55.19-.1,0-.18-.02-.24-.05s-.09-.1-.12-.18c-.22.16-.44.23-.66.23-.16,0-.29-.05-.41-.16s-.17-.23-.17-.38c0-.19.06-.34.17-.45s.31-.2.59-.29l.47-.14v-.1c0-.21-.13-.32-.39-.32-.13,0-.26.03-.4.09s-.25.15-.36.27v-.52c.24-.19.52-.28.85-.28ZM183.47,400.46c0,.08.03.14.08.19s.11.07.19.07c.13,0,.25-.06.38-.17v-.58c-.16.05-.29.11-.38.15s-.16.1-.2.15-.06.11-.06.18Z"/><path d="M186.48,398.81c.31,0,.56.1.76.31.19.21.29.48.29.82,0,.22-.05.42-.13.59-.09.17-.22.31-.38.41-.17.1-.35.15-.56.15-.17,0-.34-.04-.51-.13v1.19h-.58v-3.29h.57v.14c.17-.12.36-.18.56-.18ZM185.93,400.54c.14.08.28.12.4.12.18,0,.33-.07.44-.19.11-.13.16-.3.16-.5,0-.22-.05-.4-.15-.53-.1-.13-.24-.19-.42-.19-.07,0-.13.01-.19.03-.06.02-.14.07-.25.14v1.11Z"/><path d="M188.58,397.77v3.27h-.58v-3.27h.58Z"/><path d="M190.16,398.81c.32,0,.58.1.76.31s.28.49.28.86v.09h-1.55c.02.2.1.35.22.45.12.11.29.16.51.16.14,0,.27-.02.4-.07s.26-.12.39-.22v.43c-.26.18-.57.27-.93.27-.35,0-.63-.1-.85-.31-.22-.21-.33-.48-.33-.83s.1-.6.3-.82c.2-.21.47-.32.79-.32ZM190.66,399.72c-.02-.16-.06-.28-.15-.37s-.19-.13-.34-.13-.26.04-.35.13c-.09.09-.14.21-.17.38h1Z"/><path d="M192.36,398.81c.12,0,.23.01.34.04s.22.07.34.13v.46c-.11-.07-.23-.13-.35-.17s-.24-.06-.34-.06c-.08,0-.15.02-.19.05s-.07.08-.07.13c0,.03.02.07.06.1s.15.09.32.18c.25.13.43.24.53.35s.15.24.15.39c0,.21-.07.38-.22.5s-.35.18-.6.18c-.16,0-.3-.02-.44-.05s-.25-.08-.34-.12v-.48c.28.16.52.23.71.23.1,0,.18-.02.24-.05s.09-.08.09-.14c0-.03-.01-.07-.03-.09s-.05-.06-.1-.09-.18-.1-.41-.21c-.18-.08-.31-.18-.39-.28s-.13-.22-.13-.35c0-.19.08-.35.23-.46s.35-.17.6-.17Z"/><path d="M135.25,307.83c.3,0,.54.08.73.23s.28.35.28.59c0,.15-.04.28-.12.4s-.19.2-.34.27v.03c.23.05.41.15.53.31s.19.33.19.54c0,.18-.05.34-.14.49s-.22.25-.39.32-.36.11-.58.11h-1.37v-3.27h1.2ZM135.08,309.19c.17,0,.3-.04.4-.12s.15-.19.15-.33c0-.13-.04-.23-.13-.3s-.21-.11-.35-.11h-.45v.86h.4ZM135.23,310.61c.21,0,.38-.04.49-.12s.16-.2.16-.36c0-.14-.05-.25-.16-.33s-.25-.12-.44-.12h-.6v.93h.55Z"/><path d="M138.24,308.87c.08,0,.15.02.23.05s.16.09.26.17l-.21.5c-.17-.12-.3-.19-.4-.19-.09,0-.18.03-.26.1s-.16.15-.21.26-.08.22-.08.33v1h-.58v-2.19h.58v.56h0c.1-.21.21-.36.32-.46s.22-.14.35-.14Z"/><path d="M139.55,308.92v1.35c0,.14.04.25.11.32s.17.11.28.11c.1,0,.19-.03.28-.09s.16-.14.22-.25v-1.45h.58v2.19h-.58v-.3c-.21.23-.43.34-.68.34s-.42-.08-.57-.23-.22-.35-.22-.6v-1.4h.57Z"/><path d="M142.86,308.87c.23,0,.42.08.56.23s.21.36.21.61v1.39h-.57v-1.33c0-.14-.03-.25-.1-.34s-.16-.12-.28-.12c-.09,0-.17.03-.25.08s-.16.14-.26.26v1.46h-.58v-2.19h.58v.31c.11-.12.22-.21.33-.27s.23-.08.36-.08Z"/><path d="M144.9,308.87c.12,0,.23.01.34.04s.22.07.34.13v.46c-.11-.07-.23-.13-.35-.17s-.24-.06-.34-.06c-.08,0-.15.02-.19.05s-.07.08-.07.13c0,.03.02.07.06.1s.15.09.32.18c.25.13.43.24.53.35s.15.24.15.39c0,.21-.07.38-.22.5s-.35.18-.6.18c-.16,0-.3-.02-.44-.05s-.25-.08-.34-.12v-.48c.28.16.52.23.71.23.1,0,.18-.02.24-.05s.09-.08.09-.14c0-.03-.01-.07-.03-.09s-.05-.06-.1-.09-.18-.1-.41-.21c-.18-.08-.31-.18-.39-.28s-.13-.22-.13-.35c0-.19.08-.35.23-.46s.35-.17.6-.17Z"/><path d="M146.83,308.87c.12,0,.23.01.34.04s.22.07.34.13v.46c-.11-.07-.23-.13-.35-.17s-.24-.06-.34-.06c-.08,0-.15.02-.19.05s-.07.08-.07.13c0,.03.02.07.06.1s.15.09.32.18c.25.13.43.24.53.35s.15.24.15.39c0,.21-.07.38-.22.5s-.35.18-.6.18c-.16,0-.3-.02-.44-.05s-.25-.08-.34-.12v-.48c.28.16.52.23.71.23.1,0,.18-.02.24-.05s.09-.08.09-.14c0-.03-.01-.07-.03-.09s-.05-.06-.1-.09-.18-.1-.41-.21c-.18-.08-.31-.18-.39-.28s-.13-.22-.13-.35c0-.19.08-.35.23-.46s.35-.17.6-.17Z"/><path d="M148.62,308.92v1.35c0,.14.04.25.11.32s.17.11.28.11c.1,0,.19-.03.28-.09s.16-.14.22-.25v-1.45h.58v2.19h-.58v-.3c-.21.23-.43.34-.68.34s-.42-.08-.57-.23-.22-.35-.22-.6v-1.4h.57Z"/><path d="M151.92,308.87c.17,0,.31.04.43.12s.2.18.26.32c.12-.15.25-.26.37-.33s.26-.1.4-.1c.23,0,.42.08.56.23s.21.35.21.6v1.4h-.58v-1.31c0-.15-.03-.27-.1-.36s-.16-.13-.28-.13c-.18,0-.35.11-.51.34v1.46h-.57v-1.31c0-.15-.03-.27-.1-.35s-.16-.13-.28-.13c-.09,0-.18.03-.26.08s-.16.14-.25.26v1.46h-.58v-2.19h.58v.31c.1-.12.21-.21.32-.26s.23-.09.37-.09Z"/><path d="M101.06,309c.3,0,.54.08.73.23s.28.35.28.59c0,.15-.04.28-.12.4s-.19.2-.34.27v.03c.23.05.41.15.53.31s.19.33.19.54c0,.18-.05.34-.14.49s-.22.25-.39.32-.36.11-.58.11h-1.37v-3.27h1.2ZM100.9,310.35c.17,0,.3-.04.4-.12s.15-.19.15-.33c0-.13-.04-.23-.13-.3s-.21-.11-.35-.11h-.45v.86h.4ZM101.04,311.78c.21,0,.38-.04.49-.12s.16-.2.16-.36c0-.14-.05-.25-.16-.33s-.25-.12-.44-.12h-.6v.93h.55Z"/><path d="M104.06,310.04c.08,0,.15.02.23.05s.16.09.26.17l-.21.5c-.17-.12-.3-.19-.4-.19-.09,0-.18.03-.26.1s-.16.15-.21.26-.08.22-.08.33v1h-.58v-2.19h.58v.56h0c.1-.21.21-.36.32-.46s.22-.14.35-.14Z"/><path d="M105.37,310.08v1.35c0,.14.04.25.11.32s.17.11.28.11c.1,0,.19-.03.28-.09s.16-.14.22-.25v-1.45h.58v2.19h-.58v-.3c-.21.23-.43.34-.67.34s-.42-.08-.57-.23-.22-.35-.22-.6v-1.4h.57Z"/><path d="M107.82,310.08l.55.69.52-.69h.69l-.88,1.08.94,1.11h-.69l-.59-.72-.56.72h-.67l.91-1.11-.91-1.08h.69Z"/><path d="M110.92,310.04c.32,0,.58.1.76.31s.28.49.28.86v.09h-1.55c.02.2.1.35.22.45.12.11.29.16.51.16.14,0,.27-.02.4-.07s.26-.12.39-.22v.43c-.26.18-.57.27-.93.27-.35,0-.63-.1-.85-.31s-.33-.48-.33-.83.1-.6.3-.82.47-.32.79-.32ZM111.43,310.94c-.02-.16-.06-.28-.15-.37s-.19-.13-.34-.13-.26.04-.35.13c-.09.09-.14.21-.17.38h1Z"/><path d="M113.01,309v3.27h-.58v-3.27h.58Z"/><path d="M114.21,309v3.27h-.58v-3.27h.58Z"/><path d="M115.78,310.04c.32,0,.58.1.76.31s.28.49.28.86v.09h-1.55c.02.2.1.35.22.45s.29.16.51.16c.14,0,.27-.02.4-.07s.26-.12.39-.22v.43c-.26.18-.57.27-.93.27-.35,0-.63-.1-.85-.31s-.33-.48-.33-.83.1-.6.3-.82.47-.32.79-.32ZM116.28,310.94c-.02-.16-.06-.28-.15-.37s-.19-.13-.34-.13-.26.04-.35.13-.14.21-.17.38h1Z"/><path d="M117.99,310.04c.12,0,.23.01.34.04s.22.07.34.13v.46c-.11-.07-.23-.13-.35-.17s-.24-.06-.34-.06c-.08,0-.15.02-.19.05s-.07.08-.07.13c0,.03.02.07.06.1s.15.09.32.18c.25.13.43.24.53.35s.15.24.15.39c0,.21-.07.38-.22.5s-.35.18-.6.18c-.16,0-.3-.02-.44-.05s-.25-.08-.34-.12v-.48c.28.16.52.23.71.23.1,0,.18-.02.24-.05s.09-.08.09-.14c0-.03-.01-.07-.03-.09s-.05-.06-.1-.09-.18-.1-.41-.21c-.18-.08-.31-.18-.39-.28s-.13-.22-.13-.35c0-.19.08-.35.23-.46s.35-.17.6-.17Z"/></g></svg>