<?xml version="1.0" encoding="UTF-8"?><svg id="Calque_2" xmlns="http://www.w3.org/2000/svg" viewBox="0 0 388.8 691.25"><defs><style>.cls-1{fill:#fff;}.cls-2{fill:none;stroke:#476d89;}</style></defs><g id="Nom_de_Pays"><path class="cls-2" d="M173.48,219.94c.43,0,.85.11,1.25.33v.77c-.46-.28-.87-.42-1.23-.42-.22,0-.39.04-.51.13-.12.08-.18.2-.18.34,0,.17.11.32.34.47.06.04.31.16.74.36.37.17.63.36.79.57.16.21.24.46.24.76,0,.38-.14.69-.41.93-.27.23-.63.35-1.07.35-.29,0-.53-.03-.74-.09-.2-.06-.44-.17-.69-.32v-.85c.48.4.93.59,1.35.59.21,0,.38-.05.51-.14.13-.09.19-.21.19-.36,0-.21-.11-.37-.34-.5-.19-.1-.43-.22-.72-.37-.35-.16-.61-.35-.79-.56-.17-.21-.26-.46-.26-.74,0-.37.14-.67.42-.89.28-.22.65-.33,1.1-.33Z"/><path class="cls-2" d="M176.12,221.33v1.82c0,.19.03.33.08.44.06.11.15.2.27.27.13.07.27.11.44.11.18,0,.34-.03.47-.1.13-.07.22-.16.28-.28.06-.12.09-.28.09-.49v-1.78h.6v1.85c0,.42-.13.74-.38.97-.25.23-.61.34-1.07.34-.29,0-.54-.05-.75-.15-.21-.1-.37-.25-.49-.45-.11-.19-.17-.42-.17-.68v-1.88h.61Z"/><path class="cls-2" d="M181.04,221.33v.47h-1.41v.82h1.35v.47h-1.35v.89h1.45v.47h-2.05v-3.12h2.02ZM180.04,220.35l.43.77h-.34l-.84-.77h.75Z"/><path class="cls-2" d="M182.94,221.33c.32,0,.61.07.87.2.25.13.45.32.59.56.14.24.21.51.21.81s-.07.58-.21.81c-.14.24-.34.42-.6.55-.26.13-.56.19-.89.19h-1.27v-3.12h1.31ZM182.88,223.98c.33,0,.6-.1.8-.3.2-.2.3-.46.3-.79s-.1-.6-.3-.8c-.2-.2-.48-.29-.82-.29h-.62v2.18h.64Z"/><path class="cls-2" d="M187.19,221.33v.47h-1.41v.82h1.35v.47h-1.35v.89h1.45v.47h-2.05v-3.12h2.02Z"/><path class="cls-1" d="M173.48,219.94c.43,0,.85.11,1.25.33v.77c-.46-.28-.87-.42-1.23-.42-.22,0-.39.04-.51.13-.12.08-.18.2-.18.34,0,.17.11.32.34.47.06.04.31.16.74.36.37.17.63.36.79.57.16.21.24.46.24.76,0,.38-.14.69-.41.93-.27.23-.63.35-1.07.35-.29,0-.53-.03-.74-.09-.2-.06-.44-.17-.69-.32v-.85c.48.4.93.59,1.35.59.21,0,.38-.05.51-.14.13-.09.19-.21.19-.36,0-.21-.11-.37-.34-.5-.19-.1-.43-.22-.72-.37-.35-.16-.61-.35-.79-.56-.17-.21-.26-.46-.26-.74,0-.37.14-.67.42-.89.28-.22.65-.33,1.1-.33Z"/><path class="cls-1" d="M176.12,221.33v1.82c0,.19.03.33.08.44.06.11.15.2.27.27.13.07.27.11.44.11.18,0,.34-.03.47-.1.13-.07.22-.16.28-.28.06-.12.09-.28.09-.49v-1.78h.6v1.85c0,.42-.13.74-.38.97-.25.23-.61.34-1.07.34-.29,0-.54-.05-.75-.15-.21-.1-.37-.25-.49-.45-.11-.19-.17-.42-.17-.68v-1.88h.61Z"/><path class="cls-1" d="M181.04,221.33v.47h-1.41v.82h1.35v.47h-1.35v.89h1.45v.47h-2.05v-3.12h2.02ZM180.04,220.35l.43.77h-.34l-.84-.77h.75Z"/><path class="cls-1" d="M182.94,221.33c.32,0,.61.07.87.2.25.13.45.32.59.56.14.24.21.51.21.81s-.07.58-.21.81c-.14.24-.34.42-.6.55-.26.13-.56.19-.89.19h-1.27v-3.12h1.31ZM182.88,223.98c.33,0,.6-.1.8-.3.2-.2.3-.46.3-.79s-.1-.6-.3-.8c-.2-.2-.48-.29-.82-.29h-.62v2.18h.64Z"/><path class="cls-1" d="M187.19,221.33v.47h-1.41v.82h1.35v.47h-1.35v.89h1.45v.47h-2.05v-3.12h2.02Z"/><path class="cls-2" d="M222.36,179.68v.67h-1.86v1.15h1.86v.68h-1.86v1.95h-.86v-4.46h2.72Z"/><path class="cls-2" d="M223.61,181.02v3.12h-.6v-3.12h.6Z"/><path class="cls-2" d="M224.84,181.02l1.85,2.18v-2.18h.59v3.12h-.52l-1.86-2.21v2.21h-.59v-3.12h.53Z"/><path class="cls-2" d="M228.57,181.02v2.65h1.51v.47h-2.12v-3.12h.6Z"/><path class="cls-2" d="M232.08,181.02l1.38,3.12h-.64l-.32-.76h-1.39l-.3.76h-.63l1.29-3.12h.62ZM231.29,182.92h1.01l-.53-1.23-.48,1.23Z"/><path class="cls-2" d="M234.35,181.02l1.85,2.18v-2.18h.59v3.12h-.52l-1.86-2.21v2.21h-.59v-3.12h.53Z"/><path class="cls-2" d="M238.79,181.02c.32,0,.61.07.87.2.25.13.45.32.59.56.14.24.21.51.21.81s-.07.58-.21.81c-.14.24-.34.42-.6.55-.26.13-.56.19-.89.19h-1.27v-3.12h1.31ZM238.72,183.67c.33,0,.6-.1.8-.3s.3-.46.3-.79-.1-.6-.3-.8c-.2-.2-.48-.29-.82-.29h-.62v2.18h.64Z"/><path class="cls-2" d="M243.03,181.02v.47h-1.41v.82h1.35v.47h-1.35v.89h1.44v.47h-2.05v-3.12h2.02Z"/><path class="cls-1" d="M222.36,179.68v.67h-1.86v1.15h1.86v.68h-1.86v1.95h-.86v-4.46h2.72Z"/><path class="cls-1" d="M223.61,181.02v3.12h-.6v-3.12h.6Z"/><path class="cls-1" d="M224.84,181.02l1.85,2.18v-2.18h.59v3.12h-.52l-1.86-2.21v2.21h-.59v-3.12h.53Z"/><path class="cls-1" d="M228.57,181.02v2.65h1.51v.47h-2.12v-3.12h.6Z"/><path class="cls-1" d="M232.08,181.02l1.38,3.12h-.64l-.32-.76h-1.39l-.3.76h-.63l1.29-3.12h.62ZM231.29,182.92h1.01l-.53-1.23-.48,1.23Z"/><path class="cls-1" d="M234.35,181.02l1.85,2.18v-2.18h.59v3.12h-.52l-1.86-2.21v2.21h-.59v-3.12h.53Z"/><path class="cls-1" d="M238.79,181.02c.32,0,.61.07.87.2.25.13.45.32.59.56.14.24.21.51.21.81s-.07.58-.21.81c-.14.24-.34.42-.6.55-.26.13-.56.19-.89.19h-1.27v-3.12h1.31ZM238.72,183.67c.33,0,.6-.1.8-.3s.3-.46.3-.79-.1-.6-.3-.8c-.2-.2-.48-.29-.82-.29h-.62v2.18h.64Z"/><path class="cls-1" d="M243.03,181.02v.47h-1.41v.82h1.35v.47h-1.35v.89h1.44v.47h-2.05v-3.12h2.02Z"/></g></svg>