<?xml version="1.0" encoding="UTF-8"?><svg id="Calque_2" xmlns="http://www.w3.org/2000/svg" viewBox="0 0 389.8 692.25"><defs><style>.cls-1{stroke:#3f3f3f;}.cls-1,.cls-2,.cls-3{fill:none;}.cls-2{stroke:#fff;stroke-miterlimit:10;}.cls-3{stroke:#1f476b;}.cls-4{fill:#fff;}</style></defs><g id="Calque_5"><rect class="cls-2" x=".5" y=".5" width="388.8" height="691.25"/></g><g id="Nom_de_Pays"><path class="cls-3" d="M98.23,342.93v.67h-1.86v1.15h1.86v.68h-1.86v1.95h-.86v-4.46h2.72Z"/><path class="cls-3" d="M99.99,344.27c.29,0,.53.08.72.24s.28.37.28.63c0,.18-.05.33-.14.46-.09.13-.23.24-.41.31.1.05.19.13.27.22.08.09.17.25.29.47.19.38.33.64.42.78h-.67c-.05-.07-.11-.18-.19-.33-.17-.33-.3-.56-.38-.67s-.16-.2-.23-.25-.16-.07-.26-.07h-.22v1.32h-.6v-3.12h1.12ZM99.85,345.6c.16,0,.28-.04.37-.12.09-.08.13-.19.13-.32s-.04-.25-.13-.32-.22-.11-.38-.11h-.38v.87h.38Z"/><path class="cls-3" d="M103.39,344.27l1.38,3.12h-.64l-.32-.76h-1.39l-.3.76h-.63l1.29-3.12h.62ZM102.61,346.17h1.01l-.53-1.23-.48,1.23Z"/><path class="cls-3" d="M105.67,344.27l1.85,2.18v-2.18h.59v3.12h-.52l-1.86-2.21v2.21h-.59v-3.12h.53Z"/><path class="cls-3" d="M110.43,344.23c.18,0,.35.02.52.06s.35.11.55.21v.57c-.19-.11-.37-.19-.53-.24-.16-.05-.33-.07-.51-.07-.22,0-.42.05-.6.14-.18.09-.32.22-.42.39-.1.17-.15.35-.15.56s.05.39.15.56c.1.16.24.29.42.38s.38.14.6.14c.17,0,.33-.02.49-.07.16-.05.35-.14.59-.27v.57c-.2.11-.39.18-.56.23s-.37.07-.59.07c-.33,0-.62-.07-.88-.2s-.46-.32-.61-.57c-.15-.25-.22-.52-.22-.81,0-.31.08-.6.23-.85.15-.25.36-.44.63-.58.27-.14.57-.2.9-.2Z"/><path class="cls-3" d="M114.13,344.27v.47h-1.41v.82h1.35v.47h-1.35v.89h1.44v.47h-2.05v-3.12h2.02Z"/><path class="cls-4" d="M98.23,342.93v.67h-1.86v1.15h1.86v.68h-1.86v1.95h-.86v-4.46h2.72Z"/><path class="cls-4" d="M99.99,344.27c.29,0,.53.08.72.24s.28.37.28.63c0,.18-.05.33-.14.46-.09.13-.23.24-.41.31.1.05.19.13.27.22.08.09.17.25.29.47.19.38.33.64.42.78h-.67c-.05-.07-.11-.18-.19-.33-.17-.33-.3-.56-.38-.67s-.16-.2-.23-.25-.16-.07-.26-.07h-.22v1.32h-.6v-3.12h1.12ZM99.85,345.6c.16,0,.28-.04.37-.12.09-.08.13-.19.13-.32s-.04-.25-.13-.32-.22-.11-.38-.11h-.38v.87h.38Z"/><path class="cls-4" d="M103.39,344.27l1.38,3.12h-.64l-.32-.76h-1.39l-.3.76h-.63l1.29-3.12h.62ZM102.61,346.17h1.01l-.53-1.23-.48,1.23Z"/><path class="cls-4" d="M105.67,344.27l1.85,2.18v-2.18h.59v3.12h-.52l-1.86-2.21v2.21h-.59v-3.12h.53Z"/><path class="cls-4" d="M110.43,344.23c.18,0,.35.02.52.06s.35.11.55.21v.57c-.19-.11-.37-.19-.53-.24-.16-.05-.33-.07-.51-.07-.22,0-.42.05-.6.14-.18.09-.32.22-.42.39-.1.17-.15.35-.15.56s.05.39.15.56c.1.16.24.29.42.38s.38.14.6.14c.17,0,.33-.02.49-.07.16-.05.35-.14.59-.27v.57c-.2.11-.39.18-.56.23s-.37.07-.59.07c-.33,0-.62-.07-.88-.2s-.46-.32-.61-.57c-.15-.25-.22-.52-.22-.81,0-.31.08-.6.23-.85.15-.25.36-.44.63-.58.27-.14.57-.2.9-.2Z"/><path class="cls-4" d="M114.13,344.27v.47h-1.41v.82h1.35v.47h-1.35v.89h1.44v.47h-2.05v-3.12h2.02Z"/><path class="cls-3" d="M229.46,235.38v3.78h2.16v.67h-3.02v-4.46h.86Z"/><path class="cls-3" d="M234.09,236.72v.47h-1.41v.82h1.35v.47h-1.35v.89h1.45v.47h-2.05v-3.12h2.02Z"/><path class="cls-3" d="M237.27,236.72v.47h-1.11v2.65h-.6v-2.65h-1.11v-.47h2.82Z"/><path class="cls-3" d="M240.31,236.72v.47h-1.11v2.65h-.6v-2.65h-1.11v-.47h2.82Z"/><path class="cls-3" d="M242.19,236.68c.32,0,.61.07.87.2.26.13.46.33.62.58.15.25.23.53.23.82s-.07.56-.22.81c-.15.25-.35.44-.62.58-.26.14-.56.21-.88.21s-.62-.07-.88-.21-.47-.33-.62-.58-.22-.52-.22-.81.07-.55.22-.81c.15-.25.35-.45.61-.59s.56-.21.89-.21ZM241.09,238.28c0,.21.05.39.14.56s.22.29.39.38c.17.09.36.14.57.14.32,0,.58-.1.79-.3s.31-.46.31-.78c0-.21-.05-.39-.14-.56s-.22-.29-.39-.39c-.17-.09-.36-.14-.57-.14s-.4.05-.57.14c-.17.09-.3.22-.39.38-.09.16-.14.35-.14.56Z"/><path class="cls-3" d="M245,236.72l1.85,2.18v-2.18h.59v3.12h-.52l-1.86-2.21v2.21h-.59v-3.12h.53Z"/><path class="cls-3" d="M248.75,236.72v3.12h-.6v-3.12h.6Z"/><path class="cls-3" d="M251.46,236.72v.47h-1.41v.82h1.35v.47h-1.35v.89h1.45v.47h-2.05v-3.12h2.02Z"/><path class="cls-4" d="M229.46,235.38v3.78h2.16v.67h-3.02v-4.46h.86Z"/><path class="cls-4" d="M234.09,236.72v.47h-1.41v.82h1.35v.47h-1.35v.89h1.45v.47h-2.05v-3.12h2.02Z"/><path class="cls-4" d="M237.27,236.72v.47h-1.11v2.65h-.6v-2.65h-1.11v-.47h2.82Z"/><path class="cls-4" d="M240.31,236.72v.47h-1.11v2.65h-.6v-2.65h-1.11v-.47h2.82Z"/><path class="cls-4" d="M242.19,236.68c.32,0,.61.07.87.2.26.13.46.33.62.58.15.25.23.53.23.82s-.07.56-.22.81c-.15.25-.35.44-.62.58-.26.14-.56.21-.88.21s-.62-.07-.88-.21-.47-.33-.62-.58-.22-.52-.22-.81.07-.55.22-.81c.15-.25.35-.45.61-.59s.56-.21.89-.21ZM241.09,238.28c0,.21.05.39.14.56s.22.29.39.38c.17.09.36.14.57.14.32,0,.58-.1.79-.3s.31-.46.31-.78c0-.21-.05-.39-.14-.56s-.22-.29-.39-.39c-.17-.09-.36-.14-.57-.14s-.4.05-.57.14c-.17.09-.3.22-.39.38-.09.16-.14.35-.14.56Z"/><path class="cls-4" d="M245,236.72l1.85,2.18v-2.18h.59v3.12h-.52l-1.86-2.21v2.21h-.59v-3.12h.53Z"/><path class="cls-4" d="M248.75,236.72v3.12h-.6v-3.12h.6Z"/><path class="cls-4" d="M251.46,236.72v.47h-1.41v.82h1.35v.47h-1.35v.89h1.45v.47h-2.05v-3.12h2.02Z"/><path class="cls-3" d="M224.91,251.46v3.78h2.16v.67h-3.02v-4.46h.86Z"/><path class="cls-3" d="M228.13,252.79v3.12h-.6v-3.12h.6Z"/><path class="cls-3" d="M231.42,252.79v.47h-1.11v2.65h-.6v-2.65h-1.11v-.47h2.82Z"/><path class="cls-3" d="M232.46,252.79v1.82c0,.19.03.33.08.44.06.11.15.2.27.27.13.07.27.11.44.11.19,0,.34-.03.47-.1s.22-.16.28-.28c.06-.12.09-.28.09-.49v-1.78h.6v1.85c0,.42-.13.74-.38.97-.25.23-.61.34-1.07.34-.29,0-.54-.05-.75-.15-.21-.1-.37-.25-.49-.45-.11-.19-.17-.42-.17-.68v-1.88h.6Z"/><path class="cls-3" d="M236.9,252.79l1.38,3.12h-.64l-.32-.76h-1.39l-.3.76h-.63l1.29-3.12h.62ZM236.12,254.7h1.01l-.53-1.23-.48,1.23Z"/><path class="cls-3" d="M239.18,252.79l1.85,2.18v-2.18h.59v3.12h-.52l-1.86-2.21v2.21h-.59v-3.12h.53Z"/><path class="cls-3" d="M242.92,252.79v3.12h-.6v-3.12h.6Z"/><path class="cls-3" d="M245.64,252.79v.47h-1.41v.82h1.35v.47h-1.35v.89h1.45v.47h-2.05v-3.12h2.02Z"/><path class="cls-4" d="M224.91,251.46v3.78h2.16v.67h-3.02v-4.46h.86Z"/><path class="cls-4" d="M228.13,252.79v3.12h-.6v-3.12h.6Z"/><path class="cls-4" d="M231.42,252.79v.47h-1.11v2.65h-.6v-2.65h-1.11v-.47h2.82Z"/><path class="cls-4" d="M232.46,252.79v1.82c0,.19.03.33.08.44.06.11.15.2.27.27.13.07.27.11.44.11.19,0,.34-.03.47-.1s.22-.16.28-.28c.06-.12.09-.28.09-.49v-1.78h.6v1.85c0,.42-.13.74-.38.97-.25.23-.61.34-1.07.34-.29,0-.54-.05-.75-.15-.21-.1-.37-.25-.49-.45-.11-.19-.17-.42-.17-.68v-1.88h.6Z"/><path class="cls-4" d="M236.9,252.79l1.38,3.12h-.64l-.32-.76h-1.39l-.3.76h-.63l1.29-3.12h.62ZM236.12,254.7h1.01l-.53-1.23-.48,1.23Z"/><path class="cls-4" d="M239.18,252.79l1.85,2.18v-2.18h.59v3.12h-.52l-1.86-2.21v2.21h-.59v-3.12h.53Z"/><path class="cls-4" d="M242.92,252.79v3.12h-.6v-3.12h.6Z"/><path class="cls-4" d="M245.64,252.79v.47h-1.41v.82h1.35v.47h-1.35v.89h1.45v.47h-2.05v-3.12h2.02Z"/><path class="cls-3" d="M233.5,216.16v.67h-2.02v1.17h1.93v.67h-1.93v1.27h2.06v.67h-2.93v-4.46h2.88Z"/><path class="cls-3" d="M235.11,217.45c.3,0,.6.08.88.23v.54c-.32-.19-.61-.29-.86-.29-.15,0-.27.03-.36.09s-.13.14-.13.24c0,.12.08.23.24.33.04.03.22.11.52.25.26.12.44.26.55.4.11.15.17.32.17.53,0,.27-.1.48-.29.65-.19.16-.44.25-.75.25-.2,0-.37-.02-.51-.07-.14-.04-.3-.12-.48-.23v-.59c.33.28.65.41.94.41.15,0,.27-.03.36-.1.09-.06.14-.15.14-.25,0-.14-.08-.26-.24-.35-.13-.07-.3-.16-.51-.26-.25-.11-.43-.24-.55-.39s-.18-.32-.18-.52c0-.26.1-.47.29-.63.2-.16.45-.23.77-.23Z"/><path class="cls-3" d="M239.14,217.49v.47h-1.11v2.65h-.6v-2.65h-1.11v-.47h2.82Z"/><path class="cls-3" d="M241.02,217.45c.32,0,.61.07.87.2s.46.33.62.58c.15.25.23.53.23.82s-.07.56-.22.81c-.15.25-.35.44-.62.58-.26.14-.56.21-.88.21s-.62-.07-.88-.21c-.26-.14-.47-.33-.62-.58s-.22-.52-.22-.81.07-.55.22-.81c.15-.25.35-.45.61-.59s.56-.21.89-.21ZM239.92,219.06c0,.21.05.39.14.56s.22.29.39.38c.17.09.36.14.57.14.32,0,.58-.1.79-.3.21-.2.31-.46.31-.78,0-.21-.05-.39-.14-.56-.09-.17-.22-.29-.39-.39-.17-.09-.36-.14-.57-.14s-.4.05-.57.14c-.17.09-.3.22-.39.38-.09.16-.14.35-.14.56Z"/><path class="cls-3" d="M243.83,217.49l1.85,2.18v-2.18h.59v3.12h-.52l-1.86-2.21v2.21h-.59v-3.12h.53Z"/><path class="cls-3" d="M247.57,217.49v3.12h-.6v-3.12h.6Z"/><path class="cls-3" d="M250.29,217.49v.47h-1.41v.82h1.35v.47h-1.35v.89h1.44v.47h-2.05v-3.12h2.02Z"/><path class="cls-4" d="M233.5,216.16v.67h-2.02v1.17h1.93v.67h-1.93v1.27h2.06v.67h-2.93v-4.46h2.88Z"/><path class="cls-4" d="M235.11,217.45c.3,0,.6.08.88.23v.54c-.32-.19-.61-.29-.86-.29-.15,0-.27.03-.36.09s-.13.14-.13.24c0,.12.08.23.24.33.04.03.22.11.52.25.26.12.44.26.55.4.11.15.17.32.17.53,0,.27-.1.48-.29.65-.19.16-.44.25-.75.25-.2,0-.37-.02-.51-.07-.14-.04-.3-.12-.48-.23v-.59c.33.28.65.41.94.41.15,0,.27-.03.36-.1.09-.06.14-.15.14-.25,0-.14-.08-.26-.24-.35-.13-.07-.3-.16-.51-.26-.25-.11-.43-.24-.55-.39s-.18-.32-.18-.52c0-.26.1-.47.29-.63.2-.16.45-.23.77-.23Z"/><path class="cls-4" d="M239.14,217.49v.47h-1.11v2.65h-.6v-2.65h-1.11v-.47h2.82Z"/><path class="cls-4" d="M241.02,217.45c.32,0,.61.07.87.2s.46.33.62.58c.15.25.23.53.23.82s-.07.56-.22.81c-.15.25-.35.44-.62.58-.26.14-.56.21-.88.21s-.62-.07-.88-.21c-.26-.14-.47-.33-.62-.58s-.22-.52-.22-.81.07-.55.22-.81c.15-.25.35-.45.61-.59s.56-.21.89-.21ZM239.92,219.06c0,.21.05.39.14.56s.22.29.39.38c.17.09.36.14.57.14.32,0,.58-.1.79-.3.21-.2.31-.46.31-.78,0-.21-.05-.39-.14-.56-.09-.17-.22-.29-.39-.39-.17-.09-.36-.14-.57-.14s-.4.05-.57.14c-.17.09-.3.22-.39.38-.09.16-.14.35-.14.56Z"/><path class="cls-4" d="M243.83,217.49l1.85,2.18v-2.18h.59v3.12h-.52l-1.86-2.21v2.21h-.59v-3.12h.53Z"/><path class="cls-4" d="M247.57,217.49v3.12h-.6v-3.12h.6Z"/><path class="cls-4" d="M250.29,217.49v.47h-1.41v.82h1.35v.47h-1.35v.89h1.44v.47h-2.05v-3.12h2.02Z"/><path class="cls-3" d="M260.12,373.24c.41,0,.74.11,1,.32s.39.48.39.8c0,.2-.05.38-.16.54-.11.16-.26.28-.47.37v.04c.31.07.55.21.73.42.17.21.26.45.26.73,0,.25-.06.47-.19.66-.13.2-.3.34-.53.44-.22.1-.49.15-.79.15h-1.87v-4.46h1.63ZM259.89,375.09c.23,0,.41-.05.54-.16s.2-.26.2-.45c0-.17-.06-.31-.18-.41-.12-.1-.28-.15-.48-.15h-.62v1.18h.54ZM260.09,377.02c.29,0,.51-.05.66-.16.15-.11.22-.27.22-.48,0-.19-.07-.34-.22-.45-.15-.11-.35-.16-.6-.16h-.81v1.26h.74Z"/><path class="cls-3" d="M263.02,374.57v1.82c0,.19.03.33.08.44.06.11.15.2.27.27s.27.11.44.11c.18,0,.34-.03.47-.1s.22-.16.28-.28c.06-.12.09-.28.09-.49v-1.78h.6v1.85c0,.42-.13.74-.38.97-.25.23-.61.34-1.07.34-.29,0-.54-.05-.75-.15-.21-.1-.37-.25-.49-.45-.11-.19-.17-.42-.17-.68v-1.88h.6Z"/><path class="cls-3" d="M266.54,374.57v2.65h1.51v.47h-2.12v-3.12h.6Z"/><path class="cls-3" d="M270.01,374.53c.38,0,.77.09,1.14.26v.55c-.38-.19-.75-.29-1.12-.29-.23,0-.43.05-.61.14-.18.09-.31.22-.41.39-.1.17-.15.36-.15.57,0,.32.11.57.32.77.21.19.49.29.84.29.1,0,.19,0,.27-.02.09-.02.19-.05.31-.09v-.52h-.52v-.47h1.12v1.29c-.15.11-.34.19-.55.25-.22.06-.44.09-.67.09-.33,0-.63-.07-.89-.2-.27-.14-.48-.32-.63-.57s-.22-.52-.22-.82.08-.58.23-.83c.15-.25.36-.44.63-.58.27-.14.57-.21.9-.21Z"/><path class="cls-3" d="M273.44,374.57l1.38,3.12h-.64l-.32-.76h-1.39l-.3.76h-.63l1.29-3.12h.62ZM272.65,376.48h1.01l-.53-1.23-.48,1.23Z"/><path class="cls-3" d="M276.31,374.57c.29,0,.53.08.72.24.18.16.28.37.28.63,0,.18-.05.33-.14.46-.09.13-.23.24-.41.31.1.05.19.13.27.22.08.09.17.25.29.47.19.38.33.64.42.78h-.67c-.05-.07-.11-.18-.19-.33-.17-.33-.3-.56-.38-.67s-.16-.2-.23-.25-.16-.07-.26-.07h-.22v1.32h-.6v-3.12h1.12ZM276.17,375.9c.16,0,.28-.04.37-.12.09-.08.13-.19.13-.32s-.04-.25-.13-.32-.22-.11-.38-.11h-.38v.87h.38Z"/><path class="cls-3" d="M278.74,374.57v3.12h-.6v-3.12h.6Z"/><path class="cls-3" d="M281.46,374.57v.47h-1.41v.82h1.35v.47h-1.35v.89h1.44v.47h-2.05v-3.12h2.02Z"/><path class="cls-4" d="M260.12,373.24c.41,0,.74.11,1,.32s.39.48.39.8c0,.2-.05.38-.16.54-.11.16-.26.28-.47.37v.04c.31.07.55.21.73.42.17.21.26.45.26.73,0,.25-.06.47-.19.66-.13.2-.3.34-.53.44-.22.1-.49.15-.79.15h-1.87v-4.46h1.63ZM259.89,375.09c.23,0,.41-.05.54-.16s.2-.26.2-.45c0-.17-.06-.31-.18-.41-.12-.1-.28-.15-.48-.15h-.62v1.18h.54ZM260.09,377.02c.29,0,.51-.05.66-.16.15-.11.22-.27.22-.48,0-.19-.07-.34-.22-.45-.15-.11-.35-.16-.6-.16h-.81v1.26h.74Z"/><path class="cls-4" d="M263.02,374.57v1.82c0,.19.03.33.08.44.06.11.15.2.27.27s.27.11.44.11c.18,0,.34-.03.47-.1s.22-.16.28-.28c.06-.12.09-.28.09-.49v-1.78h.6v1.85c0,.42-.13.74-.38.97-.25.23-.61.34-1.07.34-.29,0-.54-.05-.75-.15-.21-.1-.37-.25-.49-.45-.11-.19-.17-.42-.17-.68v-1.88h.6Z"/><path class="cls-4" d="M266.54,374.57v2.65h1.51v.47h-2.12v-3.12h.6Z"/><path class="cls-4" d="M270.01,374.53c.38,0,.77.09,1.14.26v.55c-.38-.19-.75-.29-1.12-.29-.23,0-.43.05-.61.14-.18.09-.31.22-.41.39-.1.17-.15.36-.15.57,0,.32.11.57.32.77.21.19.49.29.84.29.1,0,.19,0,.27-.02.09-.02.19-.05.31-.09v-.52h-.52v-.47h1.12v1.29c-.15.11-.34.19-.55.25-.22.06-.44.09-.67.09-.33,0-.63-.07-.89-.2-.27-.14-.48-.32-.63-.57s-.22-.52-.22-.82.08-.58.23-.83c.15-.25.36-.44.63-.58.27-.14.57-.21.9-.21Z"/><path class="cls-4" d="M273.44,374.57l1.38,3.12h-.64l-.32-.76h-1.39l-.3.76h-.63l1.29-3.12h.62ZM272.65,376.48h1.01l-.53-1.23-.48,1.23Z"/><path class="cls-4" d="M276.31,374.57c.29,0,.53.08.72.24.18.16.28.37.28.63,0,.18-.05.33-.14.46-.09.13-.23.24-.41.31.1.05.19.13.27.22.08.09.17.25.29.47.19.38.33.64.42.78h-.67c-.05-.07-.11-.18-.19-.33-.17-.33-.3-.56-.38-.67s-.16-.2-.23-.25-.16-.07-.26-.07h-.22v1.32h-.6v-3.12h1.12ZM276.17,375.9c.16,0,.28-.04.37-.12.09-.08.13-.19.13-.32s-.04-.25-.13-.32-.22-.11-.38-.11h-.38v.87h.38Z"/><path class="cls-4" d="M278.74,374.57v3.12h-.6v-3.12h.6Z"/><path class="cls-4" d="M281.46,374.57v.47h-1.41v.82h1.35v.47h-1.35v.89h1.44v.47h-2.05v-3.12h2.02Z"/><path class="cls-3" d="M248.04,345.14c.42,0,.76.12,1.02.35.26.23.4.53.4.91,0,.25-.07.47-.2.66-.13.19-.32.34-.58.44.14.08.27.18.38.31.11.13.25.35.41.67.27.54.47.91.61,1.12h-.96c-.07-.1-.16-.25-.27-.47-.25-.47-.43-.79-.54-.96-.11-.16-.23-.28-.33-.35-.11-.07-.23-.1-.37-.1h-.31v1.88h-.86v-4.46h1.6ZM247.85,347.04c.23,0,.4-.06.53-.17.13-.11.19-.27.19-.46s-.06-.36-.19-.46c-.13-.1-.31-.15-.55-.15h-.54v1.24h.55Z"/><path class="cls-3" d="M252.1,346.44c.32,0,.61.07.87.2.26.13.46.33.62.58.15.25.23.53.23.82s-.07.56-.22.81c-.15.25-.35.44-.62.58-.26.14-.56.21-.88.21s-.62-.07-.88-.21-.47-.33-.62-.58-.22-.52-.22-.81.07-.55.22-.81c.15-.25.35-.45.61-.59s.56-.21.89-.21ZM251,348.04c0,.21.05.39.14.56s.22.29.39.38c.17.09.36.14.57.14.32,0,.58-.1.79-.3s.31-.46.31-.78c0-.21-.05-.39-.14-.56s-.22-.29-.39-.39c-.17-.09-.36-.14-.57-.14s-.4.05-.57.14c-.17.09-.3.22-.39.38-.09.16-.14.35-.14.56Z"/><path class="cls-3" d="M254.96,346.48v1.82c0,.19.03.33.08.44.06.11.15.2.27.27.13.07.27.11.44.11.19,0,.34-.03.47-.1s.22-.16.28-.28c.06-.12.09-.28.09-.49v-1.78h.6v1.85c0,.42-.13.74-.38.97-.25.23-.61.34-1.07.34-.29,0-.54-.05-.75-.15-.21-.1-.37-.25-.49-.45-.11-.19-.17-.42-.17-.68v-1.88h.6Z"/><path class="cls-3" d="M258.41,346.48l1.03,1.23,1.02-1.23h.54v3.12h-.6v-2.19h-.02l-.9,1.1h-.08l-.9-1.1h-.02v2.19h-.6v-3.12h.54Z"/><path class="cls-3" d="M263.27,346.48l1.38,3.12h-.64l-.32-.76h-1.39l-.3.76h-.63l1.29-3.12h.62ZM262.49,348.38h1.01l-.53-1.23-.48,1.23Z"/><path class="cls-3" d="M265.55,346.48l1.85,2.18v-2.18h.59v3.12h-.52l-1.86-2.21v2.21h-.59v-3.12h.53Z"/><path class="cls-3" d="M269.29,346.48v3.12h-.6v-3.12h.6Z"/><path class="cls-3" d="M272.01,346.48v.47h-1.41v.82h1.35v.47h-1.35v.89h1.45v.47h-2.05v-3.12h2.02Z"/><path class="cls-4" d="M248.04,345.14c.42,0,.76.12,1.02.35.26.23.4.53.4.91,0,.25-.07.47-.2.66-.13.19-.32.34-.58.44.14.08.27.18.38.31.11.13.25.35.41.67.27.54.47.91.61,1.12h-.96c-.07-.1-.16-.25-.27-.47-.25-.47-.43-.79-.54-.96-.11-.16-.23-.28-.33-.35-.11-.07-.23-.1-.37-.1h-.31v1.88h-.86v-4.46h1.6ZM247.85,347.04c.23,0,.4-.06.53-.17.13-.11.19-.27.19-.46s-.06-.36-.19-.46c-.13-.1-.31-.15-.55-.15h-.54v1.24h.55Z"/><path class="cls-4" d="M252.1,346.44c.32,0,.61.07.87.2.26.13.46.33.62.58.15.25.23.53.23.82s-.07.56-.22.81c-.15.25-.35.44-.62.58-.26.14-.56.21-.88.21s-.62-.07-.88-.21-.47-.33-.62-.58-.22-.52-.22-.81.07-.55.22-.81c.15-.25.35-.45.61-.59s.56-.21.89-.21ZM251,348.04c0,.21.05.39.14.56s.22.29.39.38c.17.09.36.14.57.14.32,0,.58-.1.79-.3s.31-.46.31-.78c0-.21-.05-.39-.14-.56s-.22-.29-.39-.39c-.17-.09-.36-.14-.57-.14s-.4.05-.57.14c-.17.09-.3.22-.39.38-.09.16-.14.35-.14.56Z"/><path class="cls-4" d="M254.96,346.48v1.82c0,.19.03.33.08.44.06.11.15.2.27.27.13.07.27.11.44.11.19,0,.34-.03.47-.1s.22-.16.28-.28c.06-.12.09-.28.09-.49v-1.78h.6v1.85c0,.42-.13.74-.38.97-.25.23-.61.34-1.07.34-.29,0-.54-.05-.75-.15-.21-.1-.37-.25-.49-.45-.11-.19-.17-.42-.17-.68v-1.88h.6Z"/><path class="cls-4" d="M258.41,346.48l1.03,1.23,1.02-1.23h.54v3.12h-.6v-2.19h-.02l-.9,1.1h-.08l-.9-1.1h-.02v2.19h-.6v-3.12h.54Z"/><path class="cls-4" d="M263.27,346.48l1.38,3.12h-.64l-.32-.76h-1.39l-.3.76h-.63l1.29-3.12h.62ZM262.49,348.38h1.01l-.53-1.23-.48,1.23Z"/><path class="cls-4" d="M265.55,346.48l1.85,2.18v-2.18h.59v3.12h-.52l-1.86-2.21v2.21h-.59v-3.12h.53Z"/><path class="cls-4" d="M269.29,346.48v3.12h-.6v-3.12h.6Z"/><path class="cls-4" d="M272.01,346.48v.47h-1.41v.82h1.35v.47h-1.35v.89h1.45v.47h-2.05v-3.12h2.02Z"/><path class="cls-3" d="M205.48,287.37c.42,0,.76.12,1.02.36.26.24.39.55.39.93s-.13.7-.4.93c-.26.24-.61.36-1.04.36h-.83v1.87h-.86v-4.46h1.72ZM205.27,289.28c.23,0,.41-.05.54-.16.13-.11.19-.26.19-.47,0-.41-.26-.62-.79-.62h-.59v1.24h.65Z"/><path class="cls-3" d="M209.02,288.66c.32,0,.61.07.87.2s.46.33.62.58c.15.25.23.53.23.82s-.07.56-.22.81c-.15.25-.35.44-.62.58-.26.14-.56.21-.88.21s-.62-.07-.88-.21c-.26-.14-.47-.33-.62-.58s-.22-.52-.22-.81.07-.55.22-.81c.15-.25.35-.45.61-.59s.56-.21.89-.21ZM207.92,290.26c0,.21.05.39.14.56s.22.29.39.38c.17.09.36.14.57.14.32,0,.58-.1.79-.3.21-.2.31-.46.31-.78,0-.21-.05-.39-.14-.56-.09-.17-.22-.29-.39-.39-.17-.09-.36-.14-.57-.14s-.4.05-.57.14c-.17.09-.3.22-.39.38-.09.16-.14.35-.14.56Z"/><path class="cls-3" d="M211.91,288.7v2.65h1.51v.47h-2.12v-3.12h.6Z"/><path class="cls-3" d="M215.35,288.66c.32,0,.61.07.87.2.26.13.46.33.62.58.15.25.23.53.23.82s-.07.56-.22.81c-.15.25-.35.44-.62.58-.26.14-.56.21-.88.21s-.62-.07-.88-.21-.47-.33-.62-.58-.22-.52-.22-.81.07-.55.22-.81c.15-.25.35-.45.61-.59s.56-.21.89-.21ZM214.25,290.26c0,.21.05.39.14.56s.22.29.39.38c.17.09.36.14.57.14.32,0,.58-.1.79-.3s.31-.46.31-.78c0-.21-.05-.39-.14-.56s-.22-.29-.39-.39c-.17-.09-.36-.14-.57-.14s-.4.05-.57.14c-.17.09-.3.22-.39.38-.09.16-.14.35-.14.56Z"/><path class="cls-3" d="M219.27,288.66c.38,0,.76.09,1.14.26v.55c-.38-.19-.75-.29-1.12-.29-.23,0-.43.05-.61.14-.18.09-.31.22-.41.39s-.15.36-.15.57c0,.32.11.57.32.77.21.19.49.29.84.29.1,0,.19,0,.27-.02.09-.02.19-.05.31-.09v-.52h-.52v-.47h1.12v1.29c-.15.11-.34.19-.55.25-.22.06-.44.09-.67.09-.33,0-.63-.07-.89-.2-.27-.14-.48-.32-.63-.57-.15-.24-.22-.52-.22-.82s.08-.58.23-.83c.15-.25.36-.44.63-.58.27-.14.57-.21.9-.21Z"/><path class="cls-3" d="M221.65,288.7l1.85,2.18v-2.18h.59v3.12h-.52l-1.86-2.21v2.21h-.59v-3.12h.53Z"/><path class="cls-3" d="M226.79,288.7v.47h-1.41v.82h1.35v.47h-1.35v.89h1.44v.47h-2.05v-3.12h2.02Z"/><path class="cls-4" d="M205.48,287.37c.42,0,.76.12,1.02.36.26.24.39.55.39.93s-.13.7-.4.93c-.26.24-.61.36-1.04.36h-.83v1.87h-.86v-4.46h1.72ZM205.27,289.28c.23,0,.41-.05.54-.16.13-.11.19-.26.19-.47,0-.41-.26-.62-.79-.62h-.59v1.24h.65Z"/><path class="cls-4" d="M209.02,288.66c.32,0,.61.07.87.2s.46.33.62.58c.15.25.23.53.23.82s-.07.56-.22.81c-.15.25-.35.44-.62.58-.26.14-.56.21-.88.21s-.62-.07-.88-.21c-.26-.14-.47-.33-.62-.58s-.22-.52-.22-.81.07-.55.22-.81c.15-.25.35-.45.61-.59s.56-.21.89-.21ZM207.92,290.26c0,.21.05.39.14.56s.22.29.39.38c.17.09.36.14.57.14.32,0,.58-.1.79-.3.21-.2.31-.46.31-.78,0-.21-.05-.39-.14-.56-.09-.17-.22-.29-.39-.39-.17-.09-.36-.14-.57-.14s-.4.05-.57.14c-.17.09-.3.22-.39.38-.09.16-.14.35-.14.56Z"/><path class="cls-4" d="M211.91,288.7v2.65h1.51v.47h-2.12v-3.12h.6Z"/><path class="cls-4" d="M215.35,288.66c.32,0,.61.07.87.2.26.13.46.33.62.58.15.25.23.53.23.82s-.07.56-.22.81c-.15.25-.35.44-.62.58-.26.14-.56.21-.88.21s-.62-.07-.88-.21-.47-.33-.62-.58-.22-.52-.22-.81.07-.55.22-.81c.15-.25.35-.45.61-.59s.56-.21.89-.21ZM214.25,290.26c0,.21.05.39.14.56s.22.29.39.38c.17.09.36.14.57.14.32,0,.58-.1.79-.3s.31-.46.31-.78c0-.21-.05-.39-.14-.56s-.22-.29-.39-.39c-.17-.09-.36-.14-.57-.14s-.4.05-.57.14c-.17.09-.3.22-.39.38-.09.16-.14.35-.14.56Z"/><path class="cls-4" d="M219.27,288.66c.38,0,.76.09,1.14.26v.55c-.38-.19-.75-.29-1.12-.29-.23,0-.43.05-.61.14-.18.09-.31.22-.41.39s-.15.36-.15.57c0,.32.11.57.32.77.21.19.49.29.84.29.1,0,.19,0,.27-.02.09-.02.19-.05.31-.09v-.52h-.52v-.47h1.12v1.29c-.15.11-.34.19-.55.25-.22.06-.44.09-.67.09-.33,0-.63-.07-.89-.2-.27-.14-.48-.32-.63-.57-.15-.24-.22-.52-.22-.82s.08-.58.23-.83c.15-.25.36-.44.63-.58.27-.14.57-.21.9-.21Z"/><path class="cls-4" d="M221.65,288.7l1.85,2.18v-2.18h.59v3.12h-.52l-1.86-2.21v2.21h-.59v-3.12h.53Z"/><path class="cls-4" d="M226.79,288.7v.47h-1.41v.82h1.35v.47h-1.35v.89h1.44v.47h-2.05v-3.12h2.02Z"/><path class="cls-3" d="M182.56,347.43c.43,0,.85.11,1.25.33v.77c-.46-.28-.87-.42-1.23-.42-.22,0-.39.04-.51.13-.12.08-.18.2-.18.34,0,.17.11.32.34.47.06.04.31.16.74.36.37.17.63.36.79.57.16.21.24.46.24.76,0,.38-.14.69-.41.93-.27.23-.63.35-1.07.35-.29,0-.53-.03-.74-.09-.2-.06-.44-.17-.69-.32v-.85c.48.4.93.59,1.35.59.21,0,.38-.05.51-.14.13-.09.19-.21.19-.36,0-.21-.11-.37-.34-.5-.19-.1-.43-.22-.72-.37-.35-.16-.61-.35-.79-.56-.17-.21-.26-.46-.26-.74,0-.37.14-.67.42-.89.28-.22.65-.33,1.1-.33Z"/><path class="cls-3" d="M185.21,348.82v2.65h1.51v.47h-2.12v-3.12h.6Z"/><path class="cls-3" d="M188.64,348.78c.32,0,.61.07.87.2.26.13.46.33.62.58.15.25.23.53.23.82s-.07.56-.22.81c-.15.25-.35.44-.62.58-.26.14-.56.21-.88.21s-.62-.07-.88-.21-.47-.33-.62-.58-.22-.52-.22-.81.07-.55.22-.81c.15-.25.35-.45.61-.59s.56-.21.89-.21ZM187.54,350.38c0,.21.05.39.14.56s.22.29.39.38c.17.09.36.14.57.14.32,0,.58-.1.79-.3s.31-.46.31-.78c0-.21-.05-.39-.14-.56s-.22-.29-.39-.39c-.17-.09-.36-.14-.57-.14s-.4.05-.57.14c-.17.09-.3.22-.39.38-.09.16-.14.35-.14.56Z"/><path class="cls-3" d="M191.15,348.82l.88,2,.86-2h.63l-1.38,3.16h-.21l-1.42-3.16h.64Z"/><path class="cls-3" d="M195.91,348.82v.47h-1.41v.82h1.35v.47h-1.35v.89h1.44v.47h-2.05v-3.12h2.02ZM195.63,347.84l-.84.77h-.34l.43-.77h.75Z"/><path class="cls-3" d="M197.03,348.82l1.85,2.18v-2.18h.59v3.12h-.52l-1.86-2.21v2.21h-.59v-3.12h.53Z"/><path class="cls-3" d="M200.78,348.82v3.12h-.6v-3.12h.6Z"/><path class="cls-3" d="M203.49,348.82v.47h-1.41v.82h1.35v.47h-1.35v.89h1.45v.47h-2.05v-3.12h2.02Z"/><path class="cls-4" d="M182.56,347.43c.43,0,.85.11,1.25.33v.77c-.46-.28-.87-.42-1.23-.42-.22,0-.39.04-.51.13-.12.08-.18.2-.18.34,0,.17.11.32.34.47.06.04.31.16.74.36.37.17.63.36.79.57.16.21.24.46.24.76,0,.38-.14.69-.41.93-.27.23-.63.35-1.07.35-.29,0-.53-.03-.74-.09-.2-.06-.44-.17-.69-.32v-.85c.48.4.93.59,1.35.59.21,0,.38-.05.51-.14.13-.09.19-.21.19-.36,0-.21-.11-.37-.34-.5-.19-.1-.43-.22-.72-.37-.35-.16-.61-.35-.79-.56-.17-.21-.26-.46-.26-.74,0-.37.14-.67.42-.89.28-.22.65-.33,1.1-.33Z"/><path class="cls-4" d="M185.21,348.82v2.65h1.51v.47h-2.12v-3.12h.6Z"/><path class="cls-4" d="M188.64,348.78c.32,0,.61.07.87.2.26.13.46.33.62.58.15.25.23.53.23.82s-.07.56-.22.81c-.15.25-.35.44-.62.58-.26.14-.56.21-.88.21s-.62-.07-.88-.21-.47-.33-.62-.58-.22-.52-.22-.81.07-.55.22-.81c.15-.25.35-.45.61-.59s.56-.21.89-.21ZM187.54,350.38c0,.21.05.39.14.56s.22.29.39.38c.17.09.36.14.57.14.32,0,.58-.1.79-.3s.31-.46.31-.78c0-.21-.05-.39-.14-.56s-.22-.29-.39-.39c-.17-.09-.36-.14-.57-.14s-.4.05-.57.14c-.17.09-.3.22-.39.38-.09.16-.14.35-.14.56Z"/><path class="cls-4" d="M191.15,348.82l.88,2,.86-2h.63l-1.38,3.16h-.21l-1.42-3.16h.64Z"/><path class="cls-4" d="M195.91,348.82v.47h-1.41v.82h1.35v.47h-1.35v.89h1.44v.47h-2.05v-3.12h2.02ZM195.63,347.84l-.84.77h-.34l.43-.77h.75Z"/><path class="cls-4" d="M197.03,348.82l1.85,2.18v-2.18h.59v3.12h-.52l-1.86-2.21v2.21h-.59v-3.12h.53Z"/><path class="cls-4" d="M200.78,348.82v3.12h-.6v-3.12h.6Z"/><path class="cls-4" d="M203.49,348.82v.47h-1.41v.82h1.35v.47h-1.35v.89h1.45v.47h-2.05v-3.12h2.02Z"/><path class="cls-3" d="M226.91,401.9l1.97,4.46h-.91l-.46-1.08h-1.98l-.43,1.08h-.9l1.84-4.46h.88ZM225.79,404.62h1.44l-.75-1.76-.69,1.76Z"/><path class="cls-3" d="M229.86,403.24v2.65h1.51v.47h-2.12v-3.12h.6Z"/><path class="cls-3" d="M232.93,403.24c.29,0,.52.07.7.22.18.15.27.34.27.56,0,.14-.04.27-.11.38s-.18.2-.33.26v.03c.22.05.39.15.51.29.12.14.18.32.18.51,0,.17-.04.33-.13.46-.09.14-.21.24-.37.31s-.34.1-.56.1h-1.31v-3.12h1.14ZM232.77,404.53c.16,0,.29-.04.38-.11.09-.08.14-.18.14-.32,0-.12-.04-.22-.13-.29s-.2-.11-.33-.11h-.43v.82h.38ZM232.91,405.88c.2,0,.36-.04.46-.12.1-.08.16-.19.16-.34,0-.13-.05-.24-.16-.31-.1-.08-.24-.11-.42-.11h-.57v.88h.52Z"/><path class="cls-3" d="M236.24,403.24l1.38,3.12h-.64l-.32-.76h-1.39l-.3.76h-.63l1.29-3.12h.62ZM235.45,405.14h1.01l-.53-1.23-.48,1.23Z"/><path class="cls-3" d="M238.51,403.24l1.85,2.18v-2.18h.59v3.12h-.52l-1.86-2.21v2.21h-.59v-3.12h.53Z"/><path class="cls-3" d="M242.26,403.24v3.12h-.6v-3.12h.6Z"/><path class="cls-3" d="M244.97,403.24v.47h-1.41v.82h1.35v.47h-1.35v.89h1.45v.47h-2.05v-3.12h2.02Z"/><path class="cls-4" d="M226.91,401.9l1.97,4.46h-.91l-.46-1.08h-1.98l-.43,1.08h-.9l1.84-4.46h.88ZM225.79,404.62h1.44l-.75-1.76-.69,1.76Z"/><path class="cls-4" d="M229.86,403.24v2.65h1.51v.47h-2.12v-3.12h.6Z"/><path class="cls-4" d="M232.93,403.24c.29,0,.52.07.7.22.18.15.27.34.27.56,0,.14-.04.27-.11.38s-.18.2-.33.26v.03c.22.05.39.15.51.29.12.14.18.32.18.51,0,.17-.04.33-.13.46-.09.14-.21.24-.37.31s-.34.1-.56.1h-1.31v-3.12h1.14ZM232.77,404.53c.16,0,.29-.04.38-.11.09-.08.14-.18.14-.32,0-.12-.04-.22-.13-.29s-.2-.11-.33-.11h-.43v.82h.38ZM232.91,405.88c.2,0,.36-.04.46-.12.1-.08.16-.19.16-.34,0-.13-.05-.24-.16-.31-.1-.08-.24-.11-.42-.11h-.57v.88h.52Z"/><path class="cls-4" d="M236.24,403.24l1.38,3.12h-.64l-.32-.76h-1.39l-.3.76h-.63l1.29-3.12h.62ZM235.45,405.14h1.01l-.53-1.23-.48,1.23Z"/><path class="cls-4" d="M238.51,403.24l1.85,2.18v-2.18h.59v3.12h-.52l-1.86-2.21v2.21h-.59v-3.12h.53Z"/><path class="cls-4" d="M242.26,403.24v3.12h-.6v-3.12h.6Z"/><path class="cls-4" d="M244.97,403.24v.47h-1.41v.82h1.35v.47h-1.35v.89h1.45v.47h-2.05v-3.12h2.02Z"/><path class="cls-3" d="M209.6,380.82l1.46,1.76,1.46-1.76h.77v4.46h-.86v-3.13h-.03l-1.29,1.57h-.12l-1.29-1.57h-.03v3.13h-.86v-4.46h.78Z"/><path class="cls-3" d="M215.73,382.12c.32,0,.61.07.87.2.26.13.46.33.62.58.15.25.23.53.23.82s-.07.56-.22.81c-.15.25-.35.44-.62.58-.26.14-.56.21-.88.21s-.62-.07-.88-.21-.47-.33-.62-.58-.22-.52-.22-.81.07-.55.22-.81c.15-.25.35-.45.61-.59s.56-.21.89-.21ZM214.63,383.72c0,.21.05.39.14.56s.22.29.39.38c.17.09.36.14.57.14.32,0,.58-.1.79-.3s.31-.46.31-.78c0-.21-.05-.39-.14-.56s-.22-.29-.39-.39c-.17-.09-.36-.14-.57-.14s-.4.05-.57.14c-.17.09-.3.22-.39.38-.09.16-.14.35-.14.56Z"/><path class="cls-3" d="M218.55,382.16l1.85,2.18v-2.18h.59v3.12h-.52l-1.86-2.21v2.21h-.59v-3.12h.53Z"/><path class="cls-3" d="M224.26,382.16v.47h-1.11v2.65h-.6v-2.65h-1.11v-.47h2.82Z"/><path class="cls-3" d="M226.74,382.16v.47h-1.41v.82h1.35v.47h-1.35v.89h1.45v.47h-2.05v-3.12h2.02ZM226.46,381.18l-.84.77h-.34l.43-.77h.75Z"/><path class="cls-3" d="M227.86,382.16l1.85,2.18v-2.18h.59v3.12h-.52l-1.86-2.21v2.21h-.59v-3.12h.53Z"/><path class="cls-3" d="M233.01,382.16v.47h-1.41v.82h1.35v.47h-1.35v.89h1.44v.47h-2.05v-3.12h2.02ZM232.73,381.18l-.84.77h-.34l.43-.77h.75Z"/><path class="cls-3" d="M235.24,382.12c.38,0,.76.09,1.14.26v.55c-.38-.19-.75-.29-1.12-.29-.23,0-.43.05-.61.14-.18.09-.31.22-.41.39s-.15.36-.15.57c0,.32.11.57.32.77.21.19.49.29.84.29.1,0,.19,0,.27-.02.09-.02.19-.05.31-.09v-.52h-.52v-.47h1.12v1.29c-.15.11-.34.19-.55.25-.22.06-.44.09-.67.09-.33,0-.63-.07-.89-.2-.27-.14-.48-.32-.63-.57-.15-.24-.22-.52-.22-.82s.08-.58.23-.83c.15-.25.36-.44.63-.58.27-.14.57-.21.9-.21Z"/><path class="cls-3" d="M238.21,382.16c.29,0,.53.08.72.24.18.16.28.37.28.63,0,.18-.05.33-.14.46-.09.13-.23.24-.41.31.1.05.19.13.27.22.08.09.17.25.29.47.19.38.33.64.42.78h-.67c-.05-.07-.11-.18-.19-.33-.17-.33-.3-.56-.38-.67s-.16-.2-.23-.25c-.07-.05-.16-.07-.26-.07h-.22v1.32h-.6v-3.12h1.12ZM238.07,383.49c.16,0,.28-.04.37-.12.09-.08.13-.19.13-.32s-.04-.25-.13-.32-.22-.11-.38-.11h-.38v.87h.38Z"/><path class="cls-3" d="M241.49,382.12c.32,0,.61.07.87.2.26.13.46.33.62.58.15.25.23.53.23.82s-.07.56-.22.81c-.15.25-.35.44-.62.58-.26.14-.56.21-.88.21s-.62-.07-.88-.21-.47-.33-.62-.58-.22-.52-.22-.81.07-.55.22-.81c.15-.25.35-.45.61-.59s.56-.21.89-.21ZM240.39,383.72c0,.21.05.39.14.56s.22.29.39.38c.17.09.36.14.57.14.32,0,.58-.1.79-.3s.31-.46.31-.78c0-.21-.05-.39-.14-.56s-.22-.29-.39-.39c-.17-.09-.36-.14-.57-.14s-.4.05-.57.14c-.17.09-.3.22-.39.38-.09.16-.14.35-.14.56Z"/><path class="cls-4" d="M209.6,380.82l1.46,1.76,1.46-1.76h.77v4.46h-.86v-3.13h-.03l-1.29,1.57h-.12l-1.29-1.57h-.03v3.13h-.86v-4.46h.78Z"/><path class="cls-4" d="M215.73,382.12c.32,0,.61.07.87.2.26.13.46.33.62.58.15.25.23.53.23.82s-.07.56-.22.81c-.15.25-.35.44-.62.58-.26.14-.56.21-.88.21s-.62-.07-.88-.21-.47-.33-.62-.58-.22-.52-.22-.81.07-.55.22-.81c.15-.25.35-.45.61-.59s.56-.21.89-.21ZM214.63,383.72c0,.21.05.39.14.56s.22.29.39.38c.17.09.36.14.57.14.32,0,.58-.1.79-.3s.31-.46.31-.78c0-.21-.05-.39-.14-.56s-.22-.29-.39-.39c-.17-.09-.36-.14-.57-.14s-.4.05-.57.14c-.17.09-.3.22-.39.38-.09.16-.14.35-.14.56Z"/><path class="cls-4" d="M218.55,382.16l1.85,2.18v-2.18h.59v3.12h-.52l-1.86-2.21v2.21h-.59v-3.12h.53Z"/><path class="cls-4" d="M224.26,382.16v.47h-1.11v2.65h-.6v-2.65h-1.11v-.47h2.82Z"/><path class="cls-4" d="M226.74,382.16v.47h-1.41v.82h1.35v.47h-1.35v.89h1.45v.47h-2.05v-3.12h2.02ZM226.46,381.18l-.84.77h-.34l.43-.77h.75Z"/><path class="cls-4" d="M227.86,382.16l1.85,2.18v-2.18h.59v3.12h-.52l-1.86-2.21v2.21h-.59v-3.12h.53Z"/><path class="cls-4" d="M233.01,382.16v.47h-1.41v.82h1.35v.47h-1.35v.89h1.44v.47h-2.05v-3.12h2.02ZM232.73,381.18l-.84.77h-.34l.43-.77h.75Z"/><path class="cls-4" d="M235.24,382.12c.38,0,.76.09,1.14.26v.55c-.38-.19-.75-.29-1.12-.29-.23,0-.43.05-.61.14-.18.09-.31.22-.41.39s-.15.36-.15.57c0,.32.11.57.32.77.21.19.49.29.84.29.1,0,.19,0,.27-.02.09-.02.19-.05.31-.09v-.52h-.52v-.47h1.12v1.29c-.15.11-.34.19-.55.25-.22.06-.44.09-.67.09-.33,0-.63-.07-.89-.2-.27-.14-.48-.32-.63-.57-.15-.24-.22-.52-.22-.82s.08-.58.23-.83c.15-.25.36-.44.63-.58.27-.14.57-.21.9-.21Z"/><path class="cls-4" d="M238.21,382.16c.29,0,.53.08.72.24.18.16.28.37.28.63,0,.18-.05.33-.14.46-.09.13-.23.24-.41.31.1.05.19.13.27.22.08.09.17.25.29.47.19.38.33.64.42.78h-.67c-.05-.07-.11-.18-.19-.33-.17-.33-.3-.56-.38-.67s-.16-.2-.23-.25c-.07-.05-.16-.07-.26-.07h-.22v1.32h-.6v-3.12h1.12ZM238.07,383.49c.16,0,.28-.04.37-.12.09-.08.13-.19.13-.32s-.04-.25-.13-.32-.22-.11-.38-.11h-.38v.87h.38Z"/><path class="cls-4" d="M241.49,382.12c.32,0,.61.07.87.2.26.13.46.33.62.58.15.25.23.53.23.82s-.07.56-.22.81c-.15.25-.35.44-.62.58-.26.14-.56.21-.88.21s-.62-.07-.88-.21-.47-.33-.62-.58-.22-.52-.22-.81.07-.55.22-.81c.15-.25.35-.45.61-.59s.56-.21.89-.21ZM240.39,383.72c0,.21.05.39.14.56s.22.29.39.38c.17.09.36.14.57.14.32,0,.58-.1.79-.3s.31-.46.31-.78c0-.21-.05-.39-.14-.56s-.22-.29-.39-.39c-.17-.09-.36-.14-.57-.14s-.4.05-.57.14c-.17.09-.3.22-.39.38-.09.16-.14.35-.14.56Z"/><path class="cls-3" d="M233.14,389.77l1.46,1.76,1.46-1.76h.77v4.46h-.86v-3.13h-.03l-1.29,1.57h-.12l-1.29-1.57h-.03v3.13h-.86v-4.46h.78Z"/><path class="cls-3" d="M239.25,391.11l1.38,3.12h-.64l-.32-.76h-1.39l-.3.76h-.63l1.29-3.12h.62ZM238.47,393.01h1.01l-.53-1.23-.48,1.23Z"/><path class="cls-3" d="M242.5,391.07c.18,0,.35.02.52.06s.35.11.55.21v.57c-.19-.11-.37-.19-.53-.24-.16-.05-.33-.07-.51-.07-.22,0-.42.05-.6.14-.18.09-.32.22-.42.39-.1.17-.15.35-.15.56s.05.39.15.56c.1.16.24.29.42.38s.38.14.6.14c.17,0,.33-.02.49-.07.16-.05.35-.14.59-.27v.57c-.2.11-.39.18-.56.23s-.37.07-.59.07c-.33,0-.62-.07-.88-.2s-.46-.32-.61-.57-.22-.52-.22-.81c0-.31.08-.6.23-.85.15-.25.36-.44.63-.58.27-.14.57-.2.9-.2Z"/><path class="cls-3" d="M246.19,391.11v.47h-1.41v.82h1.35v.47h-1.35v.89h1.45v.47h-2.05v-3.12h2.02ZM245.91,390.13l-.84.77h-.34l.43-.77h.75Z"/><path class="cls-3" d="M248.09,391.11c.32,0,.61.07.87.2.25.13.45.32.59.56.14.24.21.51.21.81s-.07.58-.21.81c-.14.24-.34.42-.6.55-.26.13-.56.19-.89.19h-1.27v-3.12h1.31ZM248.03,393.76c.33,0,.6-.1.8-.3.2-.2.3-.46.3-.79s-.1-.6-.3-.8c-.2-.2-.48-.29-.82-.29h-.62v2.18h.64Z"/><path class="cls-3" d="M251.92,391.07c.32,0,.61.07.87.2s.46.33.62.58c.15.25.23.53.23.82s-.07.56-.22.81c-.15.25-.35.44-.62.58-.26.14-.56.21-.88.21s-.62-.07-.88-.21c-.26-.14-.47-.33-.62-.58s-.22-.52-.22-.81.07-.55.22-.81c.15-.25.35-.45.61-.59s.56-.21.89-.21ZM250.82,392.67c0,.21.05.39.14.56s.22.29.39.38c.17.09.36.14.57.14.32,0,.58-.1.79-.3.21-.2.31-.46.31-.78,0-.21-.05-.39-.14-.56-.09-.17-.22-.29-.39-.39-.17-.09-.36-.14-.57-.14s-.4.05-.57.14c-.17.09-.3.22-.39.38-.09.16-.14.35-.14.56Z"/><path class="cls-3" d="M254.82,391.11v3.12h-.6v-3.12h.6Z"/><path class="cls-3" d="M256.05,391.11l1.85,2.18v-2.18h.59v3.12h-.52l-1.86-2.21v2.21h-.59v-3.12h.53Z"/><path class="cls-3" d="M261.2,391.11v.47h-1.41v.82h1.35v.47h-1.35v.89h1.44v.47h-2.05v-3.12h2.02Z"/><path class="cls-4" d="M233.14,389.77l1.46,1.76,1.46-1.76h.77v4.46h-.86v-3.13h-.03l-1.29,1.57h-.12l-1.29-1.57h-.03v3.13h-.86v-4.46h.78Z"/><path class="cls-4" d="M239.25,391.11l1.38,3.12h-.64l-.32-.76h-1.39l-.3.76h-.63l1.29-3.12h.62ZM238.47,393.01h1.01l-.53-1.23-.48,1.23Z"/><path class="cls-4" d="M242.5,391.07c.18,0,.35.02.52.06s.35.11.55.21v.57c-.19-.11-.37-.19-.53-.24-.16-.05-.33-.07-.51-.07-.22,0-.42.05-.6.14-.18.09-.32.22-.42.39-.1.17-.15.35-.15.56s.05.39.15.56c.1.16.24.29.42.38s.38.14.6.14c.17,0,.33-.02.49-.07.16-.05.35-.14.59-.27v.57c-.2.11-.39.18-.56.23s-.37.07-.59.07c-.33,0-.62-.07-.88-.2s-.46-.32-.61-.57-.22-.52-.22-.81c0-.31.08-.6.23-.85.15-.25.36-.44.63-.58.27-.14.57-.2.9-.2Z"/><path class="cls-4" d="M246.19,391.11v.47h-1.41v.82h1.35v.47h-1.35v.89h1.45v.47h-2.05v-3.12h2.02ZM245.91,390.13l-.84.77h-.34l.43-.77h.75Z"/><path class="cls-4" d="M248.09,391.11c.32,0,.61.07.87.2.25.13.45.32.59.56.14.24.21.51.21.81s-.07.58-.21.81c-.14.24-.34.42-.6.55-.26.13-.56.19-.89.19h-1.27v-3.12h1.31ZM248.03,393.76c.33,0,.6-.1.8-.3.2-.2.3-.46.3-.79s-.1-.6-.3-.8c-.2-.2-.48-.29-.82-.29h-.62v2.18h.64Z"/><path class="cls-4" d="M251.92,391.07c.32,0,.61.07.87.2s.46.33.62.58c.15.25.23.53.23.82s-.07.56-.22.81c-.15.25-.35.44-.62.58-.26.14-.56.21-.88.21s-.62-.07-.88-.21c-.26-.14-.47-.33-.62-.58s-.22-.52-.22-.81.07-.55.22-.81c.15-.25.35-.45.61-.59s.56-.21.89-.21ZM250.82,392.67c0,.21.05.39.14.56s.22.29.39.38c.17.09.36.14.57.14.32,0,.58-.1.79-.3.21-.2.31-.46.31-.78,0-.21-.05-.39-.14-.56-.09-.17-.22-.29-.39-.39-.17-.09-.36-.14-.57-.14s-.4.05-.57.14c-.17.09-.3.22-.39.38-.09.16-.14.35-.14.56Z"/><path class="cls-4" d="M254.82,391.11v3.12h-.6v-3.12h.6Z"/><path class="cls-4" d="M256.05,391.11l1.85,2.18v-2.18h.59v3.12h-.52l-1.86-2.21v2.21h-.59v-3.12h.53Z"/><path class="cls-4" d="M261.2,391.11v.47h-1.41v.82h1.35v.47h-1.35v.89h1.44v.47h-2.05v-3.12h2.02Z"/><path class="cls-3" d="M32.86,138.49v4.46h-.86v-4.46h.86Z"/><path class="cls-3" d="M34.61,139.79c.3,0,.6.08.88.23v.54c-.32-.19-.61-.29-.86-.29-.15,0-.27.03-.36.09-.09.06-.13.14-.13.24,0,.12.08.23.24.33.04.03.22.11.52.25.26.12.44.26.55.4.11.15.17.32.17.53,0,.27-.1.48-.29.65-.19.16-.44.25-.75.25-.2,0-.37-.02-.51-.07-.14-.04-.3-.12-.48-.23v-.59c.33.28.65.41.94.41.15,0,.27-.03.36-.1s.14-.15.14-.25c0-.14-.08-.26-.24-.35-.13-.07-.3-.16-.51-.26-.25-.11-.43-.24-.55-.39-.12-.15-.18-.32-.18-.52,0-.26.1-.47.29-.63s.45-.23.77-.23Z"/><path class="cls-3" d="M36.76,139.83v2.65h1.51v.47h-2.12v-3.12h.6Z"/><path class="cls-3" d="M40.26,139.83l1.38,3.12h-.64l-.32-.76h-1.39l-.3.76h-.63l1.29-3.12h.62ZM39.48,141.73h1.01l-.53-1.23-.48,1.23Z"/><path class="cls-3" d="M42.54,139.83l1.85,2.18v-2.18h.59v3.12h-.52l-1.86-2.21v2.21h-.59v-3.12h.53Z"/><path class="cls-3" d="M46.97,139.83c.32,0,.61.07.87.2s.45.32.59.56.21.51.21.81-.07.58-.21.81c-.14.24-.34.42-.6.55-.26.13-.56.19-.89.19h-1.27v-3.12h1.31ZM46.91,142.48c.33,0,.6-.1.8-.3.2-.2.3-.46.3-.79s-.1-.6-.3-.8c-.2-.2-.48-.29-.82-.29h-.62v2.18h.64Z"/><path class="cls-3" d="M51.22,139.83v.47h-1.41v.82h1.35v.47h-1.35v.89h1.44v.47h-2.05v-3.12h2.02Z"/><path class="cls-4" d="M32.86,138.49v4.46h-.86v-4.46h.86Z"/><path class="cls-4" d="M34.61,139.79c.3,0,.6.08.88.23v.54c-.32-.19-.61-.29-.86-.29-.15,0-.27.03-.36.09-.09.06-.13.14-.13.24,0,.12.08.23.24.33.04.03.22.11.52.25.26.12.44.26.55.4.11.15.17.32.17.53,0,.27-.1.48-.29.65-.19.16-.44.25-.75.25-.2,0-.37-.02-.51-.07-.14-.04-.3-.12-.48-.23v-.59c.33.28.65.41.94.41.15,0,.27-.03.36-.1s.14-.15.14-.25c0-.14-.08-.26-.24-.35-.13-.07-.3-.16-.51-.26-.25-.11-.43-.24-.55-.39-.12-.15-.18-.32-.18-.52,0-.26.1-.47.29-.63s.45-.23.77-.23Z"/><path class="cls-4" d="M36.76,139.83v2.65h1.51v.47h-2.12v-3.12h.6Z"/><path class="cls-4" d="M40.26,139.83l1.38,3.12h-.64l-.32-.76h-1.39l-.3.76h-.63l1.29-3.12h.62ZM39.48,141.73h1.01l-.53-1.23-.48,1.23Z"/><path class="cls-4" d="M42.54,139.83l1.85,2.18v-2.18h.59v3.12h-.52l-1.86-2.21v2.21h-.59v-3.12h.53Z"/><path class="cls-4" d="M46.97,139.83c.32,0,.61.07.87.2s.45.32.59.56.21.51.21.81-.07.58-.21.81c-.14.24-.34.42-.6.55-.26.13-.56.19-.89.19h-1.27v-3.12h1.31ZM46.91,142.48c.33,0,.6-.1.8-.3.2-.2.3-.46.3-.79s-.1-.6-.3-.8c-.2-.2-.48-.29-.82-.29h-.62v2.18h.64Z"/><path class="cls-4" d="M51.22,139.83v.47h-1.41v.82h1.35v.47h-1.35v.89h1.44v.47h-2.05v-3.12h2.02Z"/><path class="cls-3" d="M111.41,304.89c.41,0,.74.11,1,.32s.39.48.39.8c0,.2-.05.38-.16.54s-.26.28-.47.37v.04c.31.07.55.21.73.42.17.21.26.45.26.73,0,.25-.06.47-.19.66-.13.2-.3.34-.53.44s-.49.15-.79.15h-1.87v-4.46h1.63ZM111.18,306.74c.23,0,.41-.05.54-.16s.2-.26.2-.45c0-.17-.06-.31-.18-.41-.12-.1-.28-.15-.48-.15h-.62v1.18h.54ZM111.38,308.67c.29,0,.51-.05.66-.16.15-.11.22-.27.22-.48,0-.19-.07-.34-.22-.45-.15-.11-.35-.16-.59-.16h-.81v1.26h.74Z"/><path class="cls-3" d="M115.75,306.23v.47h-1.41v.82h1.35v.47h-1.35v.89h1.44v.47h-2.05v-3.12h2.02Z"/><path class="cls-3" d="M116.95,306.23v2.65h1.51v.47h-2.12v-3.12h.6Z"/><path class="cls-3" d="M120.42,306.19c.38,0,.77.09,1.14.26v.55c-.38-.19-.75-.29-1.12-.29-.23,0-.43.05-.61.14-.18.09-.31.22-.41.39-.1.17-.15.36-.15.57,0,.32.11.57.32.77.21.19.49.29.84.29.1,0,.19,0,.27-.02.09-.02.19-.05.31-.09v-.52h-.52v-.47h1.12v1.29c-.15.11-.34.19-.55.25-.22.06-.44.09-.67.09-.33,0-.63-.07-.89-.2-.27-.14-.48-.32-.63-.57-.15-.24-.22-.52-.22-.82s.08-.58.23-.83c.15-.25.36-.44.63-.58.27-.14.57-.21.9-.21Z"/><path class="cls-3" d="M122.88,306.23v3.12h-.6v-3.12h.6Z"/><path class="cls-3" d="M125.21,306.19c.31,0,.6.07.86.21.26.14.46.33.61.58.15.25.22.52.22.81,0,.24-.05.46-.15.67-.1.21-.24.39-.43.54-.18.15-.39.25-.62.31v.03c.33.16.63.24.89.24.1,0,.19-.01.27-.04l.02.03-.5.45c-.51-.03-1.05-.26-1.63-.69-.24-.05-.47-.15-.66-.3-.2-.15-.35-.34-.46-.56-.11-.22-.16-.45-.16-.69,0-.29.08-.56.23-.82.15-.25.36-.45.62-.59.26-.14.56-.2.9-.2ZM124.08,307.79c0,.32.1.58.31.78.2.2.47.3.8.3.21,0,.39-.05.56-.14.17-.09.3-.22.39-.38.09-.16.14-.35.14-.55s-.05-.4-.14-.56-.22-.3-.39-.39c-.17-.09-.35-.14-.56-.14-.33,0-.6.1-.8.3-.2.2-.31.46-.31.79Z"/><path class="cls-3" d="M128.05,306.23v1.82c0,.19.03.33.08.44.06.11.15.2.27.27s.27.11.44.11c.18,0,.34-.03.47-.1.13-.07.22-.16.28-.28s.09-.28.09-.49v-1.78h.6v1.85c0,.42-.13.74-.38.97-.25.23-.61.34-1.07.34-.29,0-.54-.05-.75-.15-.21-.1-.37-.25-.49-.45-.11-.19-.17-.42-.17-.68v-1.88h.61Z"/><path class="cls-3" d="M132.97,306.23v.47h-1.41v.82h1.35v.47h-1.35v.89h1.44v.47h-2.05v-3.12h2.02Z"/><path class="cls-4" d="M111.41,304.89c.41,0,.74.11,1,.32s.39.48.39.8c0,.2-.05.38-.16.54s-.26.28-.47.37v.04c.31.07.55.21.73.42.17.21.26.45.26.73,0,.25-.06.47-.19.66-.13.2-.3.34-.53.44s-.49.15-.79.15h-1.87v-4.46h1.63ZM111.18,306.74c.23,0,.41-.05.54-.16s.2-.26.2-.45c0-.17-.06-.31-.18-.41-.12-.1-.28-.15-.48-.15h-.62v1.18h.54ZM111.38,308.67c.29,0,.51-.05.66-.16.15-.11.22-.27.22-.48,0-.19-.07-.34-.22-.45-.15-.11-.35-.16-.59-.16h-.81v1.26h.74Z"/><path class="cls-4" d="M115.75,306.23v.47h-1.41v.82h1.35v.47h-1.35v.89h1.44v.47h-2.05v-3.12h2.02Z"/><path class="cls-4" d="M116.95,306.23v2.65h1.51v.47h-2.12v-3.12h.6Z"/><path class="cls-4" d="M120.42,306.19c.38,0,.77.09,1.14.26v.55c-.38-.19-.75-.29-1.12-.29-.23,0-.43.05-.61.14-.18.09-.31.22-.41.39-.1.17-.15.36-.15.57,0,.32.11.57.32.77.21.19.49.29.84.29.1,0,.19,0,.27-.02.09-.02.19-.05.31-.09v-.52h-.52v-.47h1.12v1.29c-.15.11-.34.19-.55.25-.22.06-.44.09-.67.09-.33,0-.63-.07-.89-.2-.27-.14-.48-.32-.63-.57-.15-.24-.22-.52-.22-.82s.08-.58.23-.83c.15-.25.36-.44.63-.58.27-.14.57-.21.9-.21Z"/><path class="cls-4" d="M122.88,306.23v3.12h-.6v-3.12h.6Z"/><path class="cls-4" d="M125.21,306.19c.31,0,.6.07.86.21.26.14.46.33.61.58.15.25.22.52.22.81,0,.24-.05.46-.15.67-.1.21-.24.39-.43.54-.18.15-.39.25-.62.31v.03c.33.16.63.24.89.24.1,0,.19-.01.27-.04l.02.03-.5.45c-.51-.03-1.05-.26-1.63-.69-.24-.05-.47-.15-.66-.3-.2-.15-.35-.34-.46-.56-.11-.22-.16-.45-.16-.69,0-.29.08-.56.23-.82.15-.25.36-.45.62-.59.26-.14.56-.2.9-.2ZM124.08,307.79c0,.32.1.58.31.78.2.2.47.3.8.3.21,0,.39-.05.56-.14.17-.09.3-.22.39-.38.09-.16.14-.35.14-.55s-.05-.4-.14-.56-.22-.3-.39-.39c-.17-.09-.35-.14-.56-.14-.33,0-.6.1-.8.3-.2.2-.31.46-.31.79Z"/><path class="cls-4" d="M128.05,306.23v1.82c0,.19.03.33.08.44.06.11.15.2.27.27s.27.11.44.11c.18,0,.34-.03.47-.1.13-.07.22-.16.28-.28s.09-.28.09-.49v-1.78h.6v1.85c0,.42-.13.74-.38.97-.25.23-.61.34-1.07.34-.29,0-.54-.05-.75-.15-.21-.1-.37-.25-.49-.45-.11-.19-.17-.42-.17-.68v-1.88h.61Z"/><path class="cls-4" d="M132.97,306.23v.47h-1.41v.82h1.35v.47h-1.35v.89h1.44v.47h-2.05v-3.12h2.02Z"/><path class="cls-3" d="M127.87,312.63v3.78h2.16v.67h-3.02v-4.46h.86Z"/><path class="cls-3" d="M131.06,313.97v1.82c0,.19.03.33.08.44.06.11.15.2.27.27s.27.11.44.11c.18,0,.34-.03.47-.1.13-.07.22-.16.28-.28s.09-.28.09-.49v-1.78h.6v1.85c0,.42-.13.74-.38.97-.25.23-.61.34-1.07.34-.29,0-.54-.05-.75-.15-.21-.1-.37-.25-.49-.45-.11-.19-.17-.42-.17-.68v-1.88h.61Z"/><path class="cls-3" d="M134.5,313.97l.86,1.06.85-1.06h.75l-1.22,1.51,1.34,1.61h-.76l-.95-1.17-.95,1.17h-.76l1.32-1.61-1.23-1.51h.76Z"/><path class="cls-3" d="M137.92,316.17c.13,0,.24.05.34.14s.15.21.15.35-.05.25-.14.34c-.1.1-.21.15-.35.15s-.25-.05-.35-.15c-.1-.1-.15-.21-.15-.34s.05-.25.15-.35.21-.14.34-.14Z"/><path class="cls-4" d="M127.87,312.63v3.78h2.16v.67h-3.02v-4.46h.86Z"/><path class="cls-4" d="M131.06,313.97v1.82c0,.19.03.33.08.44.06.11.15.2.27.27s.27.11.44.11c.18,0,.34-.03.47-.1.13-.07.22-.16.28-.28s.09-.28.09-.49v-1.78h.6v1.85c0,.42-.13.74-.38.97-.25.23-.61.34-1.07.34-.29,0-.54-.05-.75-.15-.21-.1-.37-.25-.49-.45-.11-.19-.17-.42-.17-.68v-1.88h.61Z"/><path class="cls-4" d="M134.5,313.97l.86,1.06.85-1.06h.75l-1.22,1.51,1.34,1.61h-.76l-.95-1.17-.95,1.17h-.76l1.32-1.61-1.23-1.51h.76Z"/><path class="cls-4" d="M137.92,316.17c.13,0,.24.05.34.14s.15.21.15.35-.05.25-.14.34c-.1.1-.21.15-.35.15s-.25-.05-.35-.15c-.1-.1-.15-.21-.15-.34s.05-.25.15-.35.21-.14.34-.14Z"/><path class="cls-3" d="M124.85,285.76c.42,0,.76.12,1.02.36.26.24.39.55.39.93s-.13.7-.4.93-.61.36-1.04.36h-.83v1.87h-.86v-4.46h1.72ZM124.64,287.67c.23,0,.41-.05.54-.16.13-.11.19-.26.19-.47,0-.41-.26-.62-.79-.62h-.59v1.24h.65Z"/><path class="cls-3" d="M128.38,287.09l1.38,3.12h-.64l-.32-.76h-1.39l-.3.76h-.63l1.29-3.12h.62ZM127.59,289h1.01l-.53-1.23-.48,1.23Z"/><path class="cls-3" d="M130.21,287.09l.75,1.04.76-1.04h.72l-1.18,1.57v1.55h-.6v-1.55l-1.19-1.57h.73Z"/><path class="cls-3" d="M133.57,287.05c.3,0,.6.08.88.23v.54c-.32-.19-.61-.29-.86-.29-.15,0-.27.03-.36.09-.09.06-.13.14-.13.24,0,.12.08.23.24.33.04.03.22.11.52.25.26.12.44.26.55.4.11.15.17.32.17.53,0,.27-.1.48-.29.65-.19.16-.44.25-.75.25-.2,0-.37-.02-.51-.07-.14-.04-.3-.12-.48-.23v-.59c.33.28.65.41.94.41.15,0,.27-.03.36-.1s.14-.15.14-.25c0-.14-.08-.26-.24-.35-.13-.07-.3-.16-.51-.26-.25-.11-.43-.24-.55-.39-.12-.15-.18-.32-.18-.52,0-.26.1-.47.29-.63s.45-.23.77-.23Z"/><path class="cls-3" d="M138.71,285.76c.41,0,.74.11,1,.32s.39.48.39.8c0,.2-.05.38-.16.54s-.26.28-.47.37v.04c.31.07.55.21.73.42.17.21.26.45.26.73,0,.25-.06.47-.19.66-.13.2-.3.34-.53.44s-.49.15-.79.15h-1.87v-4.46h1.63ZM138.48,287.61c.23,0,.41-.05.54-.16s.2-.26.2-.45c0-.17-.06-.31-.18-.41-.12-.1-.28-.15-.48-.15h-.62v1.18h.54ZM138.68,289.54c.29,0,.51-.05.66-.16.15-.11.22-.27.22-.48,0-.19-.07-.34-.22-.45-.15-.11-.35-.16-.59-.16h-.81v1.26h.74Z"/><path class="cls-3" d="M142.61,287.09l1.38,3.12h-.64l-.32-.76h-1.39l-.3.76h-.63l1.29-3.12h.62ZM141.82,289h1.01l-.53-1.23-.48,1.23Z"/><path class="cls-3" d="M145.26,287.05c.3,0,.6.08.88.23v.54c-.32-.19-.61-.29-.86-.29-.15,0-.27.03-.36.09-.09.06-.13.14-.13.24,0,.12.08.23.24.33.04.03.22.11.52.25.26.12.44.26.55.4.11.15.17.32.17.53,0,.27-.1.48-.29.65-.19.16-.44.25-.75.25-.2,0-.37-.02-.51-.07-.14-.04-.3-.12-.48-.23v-.59c.33.28.65.41.94.41.15,0,.27-.03.36-.1s.14-.15.14-.25c0-.14-.08-.26-.24-.35-.13-.07-.3-.16-.51-.26-.25-.11-.43-.24-.55-.39-.12-.15-.18-.32-.18-.52,0-.26.1-.47.29-.63s.45-.23.77-.23Z"/><path class="cls-4" d="M124.85,285.76c.42,0,.76.12,1.02.36.26.24.39.55.39.93s-.13.7-.4.93-.61.36-1.04.36h-.83v1.87h-.86v-4.46h1.72ZM124.64,287.67c.23,0,.41-.05.54-.16.13-.11.19-.26.19-.47,0-.41-.26-.62-.79-.62h-.59v1.24h.65Z"/><path class="cls-4" d="M128.38,287.09l1.38,3.12h-.64l-.32-.76h-1.39l-.3.76h-.63l1.29-3.12h.62ZM127.59,289h1.01l-.53-1.23-.48,1.23Z"/><path class="cls-4" d="M130.21,287.09l.75,1.04.76-1.04h.72l-1.18,1.57v1.55h-.6v-1.55l-1.19-1.57h.73Z"/><path class="cls-4" d="M133.57,287.05c.3,0,.6.08.88.23v.54c-.32-.19-.61-.29-.86-.29-.15,0-.27.03-.36.09-.09.06-.13.14-.13.24,0,.12.08.23.24.33.04.03.22.11.52.25.26.12.44.26.55.4.11.15.17.32.17.53,0,.27-.1.48-.29.65-.19.16-.44.25-.75.25-.2,0-.37-.02-.51-.07-.14-.04-.3-.12-.48-.23v-.59c.33.28.65.41.94.41.15,0,.27-.03.36-.1s.14-.15.14-.25c0-.14-.08-.26-.24-.35-.13-.07-.3-.16-.51-.26-.25-.11-.43-.24-.55-.39-.12-.15-.18-.32-.18-.52,0-.26.1-.47.29-.63s.45-.23.77-.23Z"/><path class="cls-4" d="M138.71,285.76c.41,0,.74.11,1,.32s.39.48.39.8c0,.2-.05.38-.16.54s-.26.28-.47.37v.04c.31.07.55.21.73.42.17.21.26.45.26.73,0,.25-.06.47-.19.66-.13.2-.3.34-.53.44s-.49.15-.79.15h-1.87v-4.46h1.63ZM138.48,287.61c.23,0,.41-.05.54-.16s.2-.26.2-.45c0-.17-.06-.31-.18-.41-.12-.1-.28-.15-.48-.15h-.62v1.18h.54ZM138.68,289.54c.29,0,.51-.05.66-.16.15-.11.22-.27.22-.48,0-.19-.07-.34-.22-.45-.15-.11-.35-.16-.59-.16h-.81v1.26h.74Z"/><path class="cls-4" d="M142.61,287.09l1.38,3.12h-.64l-.32-.76h-1.39l-.3.76h-.63l1.29-3.12h.62ZM141.82,289h1.01l-.53-1.23-.48,1.23Z"/><path class="cls-4" d="M145.26,287.05c.3,0,.6.08.88.23v.54c-.32-.19-.61-.29-.86-.29-.15,0-.27.03-.36.09-.09.06-.13.14-.13.24,0,.12.08.23.24.33.04.03.22.11.52.25.26.12.44.26.55.4.11.15.17.32.17.53,0,.27-.1.48-.29.65-.19.16-.44.25-.75.25-.2,0-.37-.02-.51-.07-.14-.04-.3-.12-.48-.23v-.59c.33.28.65.41.94.41.15,0,.27-.03.36-.1s.14-.15.14-.25c0-.14-.08-.26-.24-.35-.13-.07-.3-.16-.51-.26-.25-.11-.43-.24-.55-.39-.12-.15-.18-.32-.18-.52,0-.26.1-.47.29-.63s.45-.23.77-.23Z"/><path class="cls-3" d="M210.98,338.96v1.88h2.31v-1.88h.86v4.46h-.86v-1.88h-2.31v1.88h-.86v-4.46h.86Z"/><path class="cls-3" d="M216.59,340.26c.32,0,.61.07.87.2.26.13.46.33.62.58.15.25.23.53.23.82s-.07.56-.22.81c-.15.25-.35.44-.62.58-.26.14-.56.21-.88.21s-.62-.07-.88-.21-.47-.33-.62-.58-.22-.52-.22-.81.07-.55.22-.81c.15-.25.35-.45.61-.59s.56-.21.89-.21ZM215.49,341.86c0,.21.05.39.14.56s.22.29.39.38c.17.09.36.14.57.14.32,0,.58-.1.79-.3s.31-.46.31-.78c0-.21-.05-.39-.14-.56s-.22-.29-.39-.39c-.17-.09-.36-.14-.57-.14s-.4.05-.57.14c-.17.09-.3.22-.39.38-.09.16-.14.35-.14.56Z"/><path class="cls-3" d="M219.41,340.3l1.85,2.18v-2.18h.59v3.12h-.52l-1.86-2.21v2.21h-.59v-3.12h.53Z"/><path class="cls-3" d="M224.17,340.26c.38,0,.76.09,1.14.26v.55c-.38-.19-.75-.29-1.12-.29-.23,0-.43.05-.61.14-.18.09-.31.22-.41.39s-.15.36-.15.57c0,.32.11.57.32.77.21.19.49.29.84.29.1,0,.19,0,.27-.02.09-.02.19-.05.31-.09v-.52h-.52v-.47h1.12v1.29c-.15.11-.34.19-.55.25-.22.06-.44.09-.67.09-.33,0-.63-.07-.89-.2-.27-.14-.48-.32-.63-.57-.15-.24-.22-.52-.22-.82s.08-.58.23-.83c.15-.25.36-.44.63-.58.27-.14.57-.21.9-.21Z"/><path class="cls-3" d="M227.14,340.3c.29,0,.53.08.72.24.18.16.28.37.28.63,0,.18-.05.33-.14.46-.09.13-.23.24-.41.31.1.05.19.13.27.22.08.09.17.25.29.47.19.38.33.64.42.78h-.67c-.05-.07-.11-.18-.19-.33-.17-.33-.3-.56-.38-.67s-.16-.2-.23-.25c-.07-.05-.16-.07-.26-.07h-.22v1.32h-.6v-3.12h1.12ZM227.01,341.63c.16,0,.28-.04.37-.12.09-.08.13-.19.13-.32s-.04-.25-.13-.32-.22-.11-.38-.11h-.38v.87h.38Z"/><path class="cls-3" d="M229.58,340.3v3.12h-.6v-3.12h.6Z"/><path class="cls-3" d="M232.3,340.3v.47h-1.41v.82h1.35v.47h-1.35v.89h1.45v.47h-2.05v-3.12h2.02Z"/><path class="cls-4" d="M210.98,338.96v1.88h2.31v-1.88h.86v4.46h-.86v-1.88h-2.31v1.88h-.86v-4.46h.86Z"/><path class="cls-4" d="M216.59,340.26c.32,0,.61.07.87.2.26.13.46.33.62.58.15.25.23.53.23.82s-.07.56-.22.81c-.15.25-.35.44-.62.58-.26.14-.56.21-.88.21s-.62-.07-.88-.21-.47-.33-.62-.58-.22-.52-.22-.81.07-.55.22-.81c.15-.25.35-.45.61-.59s.56-.21.89-.21ZM215.49,341.86c0,.21.05.39.14.56s.22.29.39.38c.17.09.36.14.57.14.32,0,.58-.1.79-.3s.31-.46.31-.78c0-.21-.05-.39-.14-.56s-.22-.29-.39-.39c-.17-.09-.36-.14-.57-.14s-.4.05-.57.14c-.17.09-.3.22-.39.38-.09.16-.14.35-.14.56Z"/><path class="cls-4" d="M219.41,340.3l1.85,2.18v-2.18h.59v3.12h-.52l-1.86-2.21v2.21h-.59v-3.12h.53Z"/><path class="cls-4" d="M224.17,340.26c.38,0,.76.09,1.14.26v.55c-.38-.19-.75-.29-1.12-.29-.23,0-.43.05-.61.14-.18.09-.31.22-.41.39s-.15.36-.15.57c0,.32.11.57.32.77.21.19.49.29.84.29.1,0,.19,0,.27-.02.09-.02.19-.05.31-.09v-.52h-.52v-.47h1.12v1.29c-.15.11-.34.19-.55.25-.22.06-.44.09-.67.09-.33,0-.63-.07-.89-.2-.27-.14-.48-.32-.63-.57-.15-.24-.22-.52-.22-.82s.08-.58.23-.83c.15-.25.36-.44.63-.58.27-.14.57-.21.9-.21Z"/><path class="cls-4" d="M227.14,340.3c.29,0,.53.08.72.24.18.16.28.37.28.63,0,.18-.05.33-.14.46-.09.13-.23.24-.41.31.1.05.19.13.27.22.08.09.17.25.29.47.19.38.33.64.42.78h-.67c-.05-.07-.11-.18-.19-.33-.17-.33-.3-.56-.38-.67s-.16-.2-.23-.25c-.07-.05-.16-.07-.26-.07h-.22v1.32h-.6v-3.12h1.12ZM227.01,341.63c.16,0,.28-.04.37-.12.09-.08.13-.19.13-.32s-.04-.25-.13-.32-.22-.11-.38-.11h-.38v.87h.38Z"/><path class="cls-4" d="M229.58,340.3v3.12h-.6v-3.12h.6Z"/><path class="cls-4" d="M232.3,340.3v.47h-1.41v.82h1.35v.47h-1.35v.89h1.45v.47h-2.05v-3.12h2.02Z"/><path class="cls-3" d="M213.22,320.36c.43,0,.85.11,1.25.33v.77c-.46-.28-.87-.42-1.23-.42-.22,0-.39.04-.51.13-.12.08-.18.2-.18.34,0,.17.11.32.34.47.06.04.31.16.74.36.37.17.63.36.79.57.16.21.24.46.24.76,0,.38-.14.69-.41.93-.28.23-.63.35-1.07.35-.28,0-.53-.03-.73-.09-.21-.06-.44-.17-.69-.32v-.85c.48.4.93.59,1.35.59.21,0,.38-.05.51-.14.13-.09.19-.21.19-.36,0-.21-.11-.37-.34-.5-.19-.1-.43-.22-.72-.37-.35-.16-.61-.35-.79-.56-.17-.21-.26-.46-.26-.74,0-.37.14-.67.42-.89.28-.22.65-.33,1.1-.33Z"/><path class="cls-3" d="M215.88,321.76v2.65h1.51v.47h-2.12v-3.12h.6Z"/><path class="cls-3" d="M219.31,321.72c.32,0,.61.07.87.2s.46.33.62.58c.15.25.23.53.23.82s-.07.56-.22.81c-.15.25-.35.44-.62.58-.26.14-.56.21-.88.21s-.62-.07-.88-.21c-.26-.14-.47-.33-.62-.58s-.22-.52-.22-.81.07-.55.22-.81c.15-.25.35-.45.61-.59s.56-.21.89-.21ZM218.21,323.32c0,.21.05.39.14.56s.22.29.39.38c.17.09.36.14.57.14.32,0,.58-.1.79-.3.21-.2.31-.46.31-.78,0-.21-.05-.39-.14-.56-.09-.17-.22-.29-.39-.39-.17-.09-.36-.14-.57-.14s-.4.05-.57.14c-.17.09-.3.22-.39.38-.09.16-.14.35-.14.56Z"/><path class="cls-3" d="M221.82,321.76l.88,2,.86-2h.63l-1.38,3.16h-.21l-1.42-3.16h.64Z"/><path class="cls-3" d="M225.77,321.76l1.38,3.12h-.64l-.32-.76h-1.39l-.3.76h-.63l1.29-3.12h.62ZM224.99,323.66h1.01l-.53-1.23-.48,1.23Z"/><path class="cls-3" d="M229,321.72c.31,0,.6.07.86.21s.46.33.61.58.22.52.22.81c0,.24-.05.46-.15.67-.1.21-.24.39-.43.54-.18.15-.39.25-.62.31v.03c.33.16.63.24.89.24.1,0,.19-.01.27-.04l.02.03-.5.45c-.51-.03-1.05-.26-1.63-.69-.24-.05-.47-.15-.66-.3-.2-.15-.35-.34-.46-.56-.11-.22-.16-.45-.16-.69,0-.29.08-.56.23-.82.15-.25.36-.45.62-.59.26-.14.56-.2.9-.2ZM227.88,323.32c0,.32.1.58.31.78.2.2.47.3.8.3.21,0,.39-.05.56-.14.17-.09.3-.22.39-.38.09-.16.14-.35.14-.55s-.05-.4-.14-.56c-.09-.17-.22-.3-.39-.39-.17-.09-.35-.14-.56-.14-.33,0-.6.1-.8.3-.2.2-.31.46-.31.79Z"/><path class="cls-3" d="M231.84,321.76v1.82c0,.19.03.33.08.44.06.11.15.2.27.27.13.07.27.11.44.11.18,0,.34-.03.47-.1.13-.07.22-.16.28-.28.06-.12.09-.28.09-.49v-1.78h.6v1.85c0,.42-.13.74-.38.97-.25.23-.61.34-1.07.34-.29,0-.54-.05-.75-.15-.21-.1-.37-.25-.49-.45-.11-.19-.17-.42-.17-.68v-1.88h.61Z"/><path class="cls-3" d="M235.37,321.76v3.12h-.6v-3.12h.6Z"/><path class="cls-3" d="M238.09,321.76v.47h-1.41v.82h1.35v.47h-1.35v.89h1.45v.47h-2.05v-3.12h2.02Z"/><path class="cls-4" d="M213.22,320.36c.43,0,.85.11,1.25.33v.77c-.46-.28-.87-.42-1.23-.42-.22,0-.39.04-.51.13-.12.08-.18.2-.18.34,0,.17.11.32.34.47.06.04.31.16.74.36.37.17.63.36.79.57.16.21.24.46.24.76,0,.38-.14.69-.41.93-.28.23-.63.35-1.07.35-.28,0-.53-.03-.73-.09-.21-.06-.44-.17-.69-.32v-.85c.48.4.93.59,1.35.59.21,0,.38-.05.51-.14.13-.09.19-.21.19-.36,0-.21-.11-.37-.34-.5-.19-.1-.43-.22-.72-.37-.35-.16-.61-.35-.79-.56-.17-.21-.26-.46-.26-.74,0-.37.14-.67.42-.89.28-.22.65-.33,1.1-.33Z"/><path class="cls-4" d="M215.88,321.76v2.65h1.51v.47h-2.12v-3.12h.6Z"/><path class="cls-4" d="M219.31,321.72c.32,0,.61.07.87.2s.46.33.62.58c.15.25.23.53.23.82s-.07.56-.22.81c-.15.25-.35.44-.62.58-.26.14-.56.21-.88.21s-.62-.07-.88-.21c-.26-.14-.47-.33-.62-.58s-.22-.52-.22-.81.07-.55.22-.81c.15-.25.35-.45.61-.59s.56-.21.89-.21ZM218.21,323.32c0,.21.05.39.14.56s.22.29.39.38c.17.09.36.14.57.14.32,0,.58-.1.79-.3.21-.2.31-.46.31-.78,0-.21-.05-.39-.14-.56-.09-.17-.22-.29-.39-.39-.17-.09-.36-.14-.57-.14s-.4.05-.57.14c-.17.09-.3.22-.39.38-.09.16-.14.35-.14.56Z"/><path class="cls-4" d="M221.82,321.76l.88,2,.86-2h.63l-1.38,3.16h-.21l-1.42-3.16h.64Z"/><path class="cls-4" d="M225.77,321.76l1.38,3.12h-.64l-.32-.76h-1.39l-.3.76h-.63l1.29-3.12h.62ZM224.99,323.66h1.01l-.53-1.23-.48,1.23Z"/><path class="cls-4" d="M229,321.72c.31,0,.6.07.86.21s.46.33.61.58.22.52.22.81c0,.24-.05.46-.15.67-.1.21-.24.39-.43.54-.18.15-.39.25-.62.31v.03c.33.16.63.24.89.24.1,0,.19-.01.27-.04l.02.03-.5.45c-.51-.03-1.05-.26-1.63-.69-.24-.05-.47-.15-.66-.3-.2-.15-.35-.34-.46-.56-.11-.22-.16-.45-.16-.69,0-.29.08-.56.23-.82.15-.25.36-.45.62-.59.26-.14.56-.2.9-.2ZM227.88,323.32c0,.32.1.58.31.78.2.2.47.3.8.3.21,0,.39-.05.56-.14.17-.09.3-.22.39-.38.09-.16.14-.35.14-.55s-.05-.4-.14-.56c-.09-.17-.22-.3-.39-.39-.17-.09-.35-.14-.56-.14-.33,0-.6.1-.8.3-.2.2-.31.46-.31.79Z"/><path class="cls-4" d="M231.84,321.76v1.82c0,.19.03.33.08.44.06.11.15.2.27.27.13.07.27.11.44.11.18,0,.34-.03.47-.1.13-.07.22-.16.28-.28.06-.12.09-.28.09-.49v-1.78h.6v1.85c0,.42-.13.74-.38.97-.25.23-.61.34-1.07.34-.29,0-.54-.05-.75-.15-.21-.1-.37-.25-.49-.45-.11-.19-.17-.42-.17-.68v-1.88h.61Z"/><path class="cls-4" d="M235.37,321.76v3.12h-.6v-3.12h.6Z"/><path class="cls-4" d="M238.09,321.76v.47h-1.41v.82h1.35v.47h-1.35v.89h1.45v.47h-2.05v-3.12h2.02Z"/><path class="cls-3" d="M140.49,198.18l2.65,3.11v-3.11h.84v4.46h-.74l-2.66-3.16v3.16h-.84v-4.46h.76Z"/><path class="cls-3" d="M146.41,199.48c.32,0,.61.07.87.2.26.13.46.33.62.58s.23.53.23.82-.07.56-.22.81c-.15.25-.35.44-.62.58-.26.14-.56.21-.88.21s-.62-.07-.88-.21c-.26-.14-.47-.33-.62-.58s-.22-.52-.22-.81.07-.55.22-.81c.15-.25.35-.45.61-.59s.56-.21.89-.21ZM145.3,201.08c0,.21.05.39.14.56s.22.29.39.38c.17.09.36.14.57.14.32,0,.58-.1.79-.3.21-.2.31-.46.31-.78,0-.21-.05-.39-.14-.56-.09-.17-.22-.29-.39-.39-.17-.09-.36-.14-.57-.14s-.4.05-.57.14c-.17.09-.3.22-.39.38s-.14.35-.14.56Z"/><path class="cls-3" d="M149.81,199.52c.29,0,.53.08.72.24s.28.37.28.63c0,.18-.05.33-.14.46-.09.13-.23.24-.41.31.1.05.19.13.27.22.08.09.17.25.29.47.19.38.33.64.42.78h-.67c-.05-.07-.11-.18-.19-.33-.17-.33-.3-.56-.38-.67s-.16-.2-.23-.25-.16-.07-.26-.07h-.22v1.32h-.6v-3.12h1.12ZM149.68,200.85c.16,0,.28-.04.37-.12.09-.08.13-.19.13-.32s-.04-.25-.13-.32-.22-.11-.38-.11h-.38v.87h.38Z"/><path class="cls-3" d="M151.72,199.52l.88,2,.86-2h.63l-1.38,3.16h-.21l-1.42-3.16h.64Z"/><path class="cls-3" d="M156.48,199.52v.47h-1.41v.82h1.35v.47h-1.35v.89h1.44v.47h-2.05v-3.12h2.02ZM155.48,198.54l.43.77h-.34l-.84-.77h.75Z"/><path class="cls-3" d="M158.71,199.48c.38,0,.77.09,1.14.26v.55c-.38-.19-.75-.29-1.12-.29-.23,0-.43.05-.61.14-.18.09-.31.22-.41.39-.1.17-.15.36-.15.57,0,.32.11.57.32.77.21.19.49.29.84.29.1,0,.19,0,.27-.02.09-.02.19-.05.31-.09v-.52h-.52v-.47h1.12v1.29c-.15.11-.34.19-.55.25-.22.06-.44.09-.67.09-.33,0-.63-.07-.89-.2-.27-.14-.48-.32-.63-.57-.15-.24-.22-.52-.22-.82s.08-.58.23-.83c.15-.25.36-.44.63-.58.27-.14.57-.21.9-.21Z"/><path class="cls-3" d="M162.58,199.52v.47h-1.41v.82h1.35v.47h-1.35v.89h1.44v.47h-2.05v-3.12h2.02Z"/><path class="cls-4" d="M140.49,198.18l2.65,3.11v-3.11h.84v4.46h-.74l-2.66-3.16v3.16h-.84v-4.46h.76Z"/><path class="cls-4" d="M146.41,199.48c.32,0,.61.07.87.2.26.13.46.33.62.58s.23.53.23.82-.07.56-.22.81c-.15.25-.35.44-.62.58-.26.14-.56.21-.88.21s-.62-.07-.88-.21c-.26-.14-.47-.33-.62-.58s-.22-.52-.22-.81.07-.55.22-.81c.15-.25.35-.45.61-.59s.56-.21.89-.21ZM145.3,201.08c0,.21.05.39.14.56s.22.29.39.38c.17.09.36.14.57.14.32,0,.58-.1.79-.3.21-.2.31-.46.31-.78,0-.21-.05-.39-.14-.56-.09-.17-.22-.29-.39-.39-.17-.09-.36-.14-.57-.14s-.4.05-.57.14c-.17.09-.3.22-.39.38s-.14.35-.14.56Z"/><path class="cls-4" d="M149.81,199.52c.29,0,.53.08.72.24s.28.37.28.63c0,.18-.05.33-.14.46-.09.13-.23.24-.41.31.1.05.19.13.27.22.08.09.17.25.29.47.19.38.33.64.42.78h-.67c-.05-.07-.11-.18-.19-.33-.17-.33-.3-.56-.38-.67s-.16-.2-.23-.25-.16-.07-.26-.07h-.22v1.32h-.6v-3.12h1.12ZM149.68,200.85c.16,0,.28-.04.37-.12.09-.08.13-.19.13-.32s-.04-.25-.13-.32-.22-.11-.38-.11h-.38v.87h.38Z"/><path class="cls-4" d="M151.72,199.52l.88,2,.86-2h.63l-1.38,3.16h-.21l-1.42-3.16h.64Z"/><path class="cls-4" d="M156.48,199.52v.47h-1.41v.82h1.35v.47h-1.35v.89h1.44v.47h-2.05v-3.12h2.02ZM155.48,198.54l.43.77h-.34l-.84-.77h.75Z"/><path class="cls-4" d="M158.71,199.48c.38,0,.77.09,1.14.26v.55c-.38-.19-.75-.29-1.12-.29-.23,0-.43.05-.61.14-.18.09-.31.22-.41.39-.1.17-.15.36-.15.57,0,.32.11.57.32.77.21.19.49.29.84.29.1,0,.19,0,.27-.02.09-.02.19-.05.31-.09v-.52h-.52v-.47h1.12v1.29c-.15.11-.34.19-.55.25-.22.06-.44.09-.67.09-.33,0-.63-.07-.89-.2-.27-.14-.48-.32-.63-.57-.15-.24-.22-.52-.22-.82s.08-.58.23-.83c.15-.25.36-.44.63-.58.27-.14.57-.21.9-.21Z"/><path class="cls-4" d="M162.58,199.52v.47h-1.41v.82h1.35v.47h-1.35v.89h1.44v.47h-2.05v-3.12h2.02Z"/><path class="cls-1" d="M173.98,220.44c.43,0,.85.11,1.25.33v.77c-.46-.28-.87-.42-1.23-.42-.22,0-.39.04-.51.13-.12.08-.18.2-.18.34,0,.17.11.32.34.47.06.04.31.16.74.36.37.17.63.36.79.57.16.21.24.46.24.76,0,.38-.14.69-.41.93-.27.23-.63.35-1.07.35-.29,0-.53-.03-.74-.09-.2-.06-.44-.17-.69-.32v-.85c.48.4.93.59,1.35.59.21,0,.38-.05.51-.14.13-.09.19-.21.19-.36,0-.21-.11-.37-.34-.5-.19-.1-.43-.22-.72-.37-.35-.16-.61-.35-.79-.56-.17-.21-.26-.46-.26-.74,0-.37.14-.67.42-.89.28-.22.65-.33,1.1-.33Z"/><path class="cls-1" d="M176.62,221.83v1.82c0,.19.03.33.08.44.06.11.15.2.27.27.13.07.27.11.44.11.18,0,.34-.03.47-.1.13-.07.22-.16.28-.28.06-.12.09-.28.09-.49v-1.78h.6v1.85c0,.42-.13.74-.38.97-.25.23-.61.34-1.07.34-.29,0-.54-.05-.75-.15-.21-.1-.37-.25-.49-.45-.11-.19-.17-.42-.17-.68v-1.88h.61Z"/><path class="cls-1" d="M181.54,221.83v.47h-1.41v.82h1.35v.47h-1.35v.89h1.45v.47h-2.05v-3.12h2.02ZM180.54,220.85l.43.77h-.34l-.84-.77h.75Z"/><path class="cls-1" d="M183.44,221.83c.32,0,.61.07.87.2.25.13.45.32.59.56.14.24.21.51.21.81s-.07.58-.21.81c-.14.24-.34.42-.6.55-.26.13-.56.19-.89.19h-1.27v-3.12h1.31ZM183.38,224.48c.33,0,.6-.1.8-.3.2-.2.3-.46.3-.79s-.1-.6-.3-.8c-.2-.2-.48-.29-.82-.29h-.62v2.18h.64Z"/><path class="cls-1" d="M187.69,221.83v.47h-1.41v.82h1.35v.47h-1.35v.89h1.45v.47h-2.05v-3.12h2.02Z"/><path class="cls-4" d="M173.98,220.44c.43,0,.85.11,1.25.33v.77c-.46-.28-.87-.42-1.23-.42-.22,0-.39.04-.51.13-.12.08-.18.2-.18.34,0,.17.11.32.34.47.06.04.31.16.74.36.37.17.63.36.79.57.16.21.24.46.24.76,0,.38-.14.69-.41.93-.27.23-.63.35-1.07.35-.29,0-.53-.03-.74-.09-.2-.06-.44-.17-.69-.32v-.85c.48.4.93.59,1.35.59.21,0,.38-.05.51-.14.13-.09.19-.21.19-.36,0-.21-.11-.37-.34-.5-.19-.1-.43-.22-.72-.37-.35-.16-.61-.35-.79-.56-.17-.21-.26-.46-.26-.74,0-.37.14-.67.42-.89.28-.22.65-.33,1.1-.33Z"/><path class="cls-4" d="M176.62,221.83v1.82c0,.19.03.33.08.44.06.11.15.2.27.27.13.07.27.11.44.11.18,0,.34-.03.47-.1.13-.07.22-.16.28-.28.06-.12.09-.28.09-.49v-1.78h.6v1.85c0,.42-.13.74-.38.97-.25.23-.61.34-1.07.34-.29,0-.54-.05-.75-.15-.21-.1-.37-.25-.49-.45-.11-.19-.17-.42-.17-.68v-1.88h.61Z"/><path class="cls-4" d="M181.54,221.83v.47h-1.41v.82h1.35v.47h-1.35v.89h1.45v.47h-2.05v-3.12h2.02ZM180.54,220.85l.43.77h-.34l-.84-.77h.75Z"/><path class="cls-4" d="M183.44,221.83c.32,0,.61.07.87.2.25.13.45.32.59.56.14.24.21.51.21.81s-.07.58-.21.81c-.14.24-.34.42-.6.55-.26.13-.56.19-.89.19h-1.27v-3.12h1.31ZM183.38,224.48c.33,0,.6-.1.8-.3.2-.2.3-.46.3-.79s-.1-.6-.3-.8c-.2-.2-.48-.29-.82-.29h-.62v2.18h.64Z"/><path class="cls-4" d="M187.69,221.83v.47h-1.41v.82h1.35v.47h-1.35v.89h1.45v.47h-2.05v-3.12h2.02Z"/><path class="cls-1" d="M222.86,180.18v.67h-1.86v1.15h1.86v.68h-1.86v1.95h-.86v-4.46h2.72Z"/><path class="cls-1" d="M224.11,181.52v3.12h-.6v-3.12h.6Z"/><path class="cls-1" d="M225.34,181.52l1.85,2.18v-2.18h.59v3.12h-.52l-1.86-2.21v2.21h-.59v-3.12h.53Z"/><path class="cls-1" d="M229.07,181.52v2.65h1.51v.47h-2.12v-3.12h.6Z"/><path class="cls-1" d="M232.58,181.52l1.38,3.12h-.64l-.32-.76h-1.39l-.3.76h-.63l1.29-3.12h.62ZM231.79,183.42h1.01l-.53-1.23-.48,1.23Z"/><path class="cls-1" d="M234.85,181.52l1.85,2.18v-2.18h.59v3.12h-.52l-1.86-2.21v2.21h-.59v-3.12h.53Z"/><path class="cls-1" d="M239.29,181.52c.32,0,.61.07.87.2.25.13.45.32.59.56.14.24.21.51.21.81s-.07.58-.21.81c-.14.24-.34.42-.6.55-.26.13-.56.19-.89.19h-1.27v-3.12h1.31ZM239.22,184.17c.33,0,.6-.1.8-.3s.3-.46.3-.79-.1-.6-.3-.8c-.2-.2-.48-.29-.82-.29h-.62v2.18h.64Z"/><path class="cls-1" d="M243.53,181.52v.47h-1.41v.82h1.35v.47h-1.35v.89h1.44v.47h-2.05v-3.12h2.02Z"/><path class="cls-4" d="M222.86,180.18v.67h-1.86v1.15h1.86v.68h-1.86v1.95h-.86v-4.46h2.72Z"/><path class="cls-4" d="M224.11,181.52v3.12h-.6v-3.12h.6Z"/><path class="cls-4" d="M225.34,181.52l1.85,2.18v-2.18h.59v3.12h-.52l-1.86-2.21v2.21h-.59v-3.12h.53Z"/><path class="cls-4" d="M229.07,181.52v2.65h1.51v.47h-2.12v-3.12h.6Z"/><path class="cls-4" d="M232.58,181.52l1.38,3.12h-.64l-.32-.76h-1.39l-.3.76h-.63l1.29-3.12h.62ZM231.79,183.42h1.01l-.53-1.23-.48,1.23Z"/><path class="cls-4" d="M234.85,181.52l1.85,2.18v-2.18h.59v3.12h-.52l-1.86-2.21v2.21h-.59v-3.12h.53Z"/><path class="cls-4" d="M239.29,181.52c.32,0,.61.07.87.2.25.13.45.32.59.56.14.24.21.51.21.81s-.07.58-.21.81c-.14.24-.34.42-.6.55-.26.13-.56.19-.89.19h-1.27v-3.12h1.31ZM239.22,184.17c.33,0,.6-.1.8-.3s.3-.46.3-.79-.1-.6-.3-.8c-.2-.2-.48-.29-.82-.29h-.62v2.18h.64Z"/><path class="cls-4" d="M243.53,181.52v.47h-1.41v.82h1.35v.47h-1.35v.89h1.44v.47h-2.05v-3.12h2.02Z"/><path class="cls-3" d="M146.53,301.07l1.97,4.46h-.91l-.46-1.08h-1.98l-.43,1.08h-.9l1.84-4.46h.88ZM145.41,303.78h1.44l-.75-1.76-.69,1.76Z"/><path class="cls-3" d="M149.48,302.4v2.65h1.51v.47h-2.12v-3.12h.6Z"/><path class="cls-3" d="M152.01,302.4v2.65h1.51v.47h-2.12v-3.12h.6Z"/><path class="cls-3" d="M155.95,302.4v.47h-1.41v.82h1.35v.47h-1.35v.89h1.44v.47h-2.05v-3.12h2.02Z"/><path class="cls-3" d="M157.09,302.4l1.02,1.23,1.02-1.23h.54v3.12h-.6v-2.19h-.02l-.9,1.1h-.08l-.9-1.1h-.02v2.19h-.6v-3.12h.54Z"/><path class="cls-3" d="M161.94,302.4l1.38,3.12h-.64l-.32-.76h-1.39l-.3.76h-.63l1.29-3.12h.62ZM161.16,304.31h1.01l-.53-1.23-.48,1.23Z"/><path class="cls-3" d="M165.19,302.36c.38,0,.77.09,1.14.26v.55c-.38-.19-.75-.29-1.12-.29-.23,0-.43.05-.61.14-.18.09-.31.22-.41.39-.1.17-.15.36-.15.57,0,.32.11.57.32.77.21.19.49.29.84.29.1,0,.19,0,.27-.02.09-.02.19-.05.31-.09v-.52h-.52v-.47h1.12v1.29c-.15.11-.34.19-.55.25-.22.06-.44.09-.67.09-.33,0-.63-.07-.89-.2-.27-.14-.48-.32-.63-.57-.15-.24-.22-.52-.22-.82s.08-.58.23-.83c.15-.25.36-.44.63-.58.27-.14.57-.21.9-.21Z"/><path class="cls-3" d="M167.57,302.4l1.85,2.18v-2.18h.59v3.12h-.52l-1.86-2.21v2.21h-.59v-3.12h.53Z"/><path class="cls-3" d="M172.71,302.4v.47h-1.41v.82h1.35v.47h-1.35v.89h1.44v.47h-2.05v-3.12h2.02Z"/><path class="cls-4" d="M146.53,301.07l1.97,4.46h-.91l-.46-1.08h-1.98l-.43,1.08h-.9l1.84-4.46h.88ZM145.41,303.78h1.44l-.75-1.76-.69,1.76Z"/><path class="cls-4" d="M149.48,302.4v2.65h1.51v.47h-2.12v-3.12h.6Z"/><path class="cls-4" d="M152.01,302.4v2.65h1.51v.47h-2.12v-3.12h.6Z"/><path class="cls-4" d="M155.95,302.4v.47h-1.41v.82h1.35v.47h-1.35v.89h1.44v.47h-2.05v-3.12h2.02Z"/><path class="cls-4" d="M157.09,302.4l1.02,1.23,1.02-1.23h.54v3.12h-.6v-2.19h-.02l-.9,1.1h-.08l-.9-1.1h-.02v2.19h-.6v-3.12h.54Z"/><path class="cls-4" d="M161.94,302.4l1.38,3.12h-.64l-.32-.76h-1.39l-.3.76h-.63l1.29-3.12h.62ZM161.16,304.31h1.01l-.53-1.23-.48,1.23Z"/><path class="cls-4" d="M165.19,302.36c.38,0,.77.09,1.14.26v.55c-.38-.19-.75-.29-1.12-.29-.23,0-.43.05-.61.14-.18.09-.31.22-.41.39-.1.17-.15.36-.15.57,0,.32.11.57.32.77.21.19.49.29.84.29.1,0,.19,0,.27-.02.09-.02.19-.05.31-.09v-.52h-.52v-.47h1.12v1.29c-.15.11-.34.19-.55.25-.22.06-.44.09-.67.09-.33,0-.63-.07-.89-.2-.27-.14-.48-.32-.63-.57-.15-.24-.22-.52-.22-.82s.08-.58.23-.83c.15-.25.36-.44.63-.58.27-.14.57-.21.9-.21Z"/><path class="cls-4" d="M167.57,302.4l1.85,2.18v-2.18h.59v3.12h-.52l-1.86-2.21v2.21h-.59v-3.12h.53Z"/><path class="cls-4" d="M172.71,302.4v.47h-1.41v.82h1.35v.47h-1.35v.89h1.44v.47h-2.05v-3.12h2.02Z"/><path class="cls-3" d="M169.39,383.07v4.46h-.86v-4.46h.86Z"/><path class="cls-3" d="M172.83,384.41v.47h-1.11v2.65h-.6v-2.65h-1.11v-.47h2.82Z"/><path class="cls-3" d="M174.5,384.41l1.38,3.12h-.64l-.32-.76h-1.39l-.3.76h-.63l1.29-3.12h.62ZM173.71,386.31h1.01l-.53-1.23-.48,1.23Z"/><path class="cls-3" d="M176.85,384.41v2.65h1.51v.47h-2.12v-3.12h.6Z"/><path class="cls-3" d="M179.39,384.41v3.12h-.6v-3.12h.6Z"/><path class="cls-3" d="M182.11,384.41v.47h-1.41v.82h1.35v.47h-1.35v.89h1.44v.47h-2.05v-3.12h2.02Z"/><path class="cls-4" d="M169.39,383.07v4.46h-.86v-4.46h.86Z"/><path class="cls-4" d="M172.83,384.41v.47h-1.11v2.65h-.6v-2.65h-1.11v-.47h2.82Z"/><path class="cls-4" d="M174.5,384.41l1.38,3.12h-.64l-.32-.76h-1.39l-.3.76h-.63l1.29-3.12h.62ZM173.71,386.31h1.01l-.53-1.23-.48,1.23Z"/><path class="cls-4" d="M176.85,384.41v2.65h1.51v.47h-2.12v-3.12h.6Z"/><path class="cls-4" d="M179.39,384.41v3.12h-.6v-3.12h.6Z"/><path class="cls-4" d="M182.11,384.41v.47h-1.41v.82h1.35v.47h-1.35v.89h1.44v.47h-2.05v-3.12h2.02Z"/><path class="cls-3" d="M44.5,405.08v.67h-2.02v1.17h1.93v.67h-1.93v1.27h2.06v.67h-2.93v-4.46h2.88Z"/><path class="cls-3" d="M46.11,406.38c.3,0,.6.08.88.23v.54c-.32-.19-.61-.29-.86-.29-.15,0-.27.03-.36.09-.09.06-.13.14-.13.24,0,.12.08.23.24.33.04.03.22.11.52.25.26.12.44.26.55.4.11.15.17.32.17.53,0,.27-.1.48-.29.65-.19.16-.44.25-.75.25-.2,0-.37-.02-.51-.07-.14-.04-.3-.12-.48-.23v-.59c.33.28.65.41.94.41.15,0,.27-.03.36-.1s.14-.15.14-.25c0-.14-.08-.26-.24-.35-.13-.07-.3-.16-.51-.26-.25-.11-.43-.24-.55-.39-.12-.15-.18-.32-.18-.52,0-.26.1-.47.29-.63s.45-.23.77-.23Z"/><path class="cls-3" d="M48.85,406.42c.29,0,.53.08.71.25.18.17.27.39.27.65s-.09.49-.28.65-.43.25-.73.25h-.58v1.31h-.6v-3.12h1.21ZM48.7,407.76c.16,0,.29-.04.38-.11.09-.07.14-.18.14-.33,0-.29-.18-.43-.55-.43h-.41v.87h.45Z"/><path class="cls-3" d="M51.62,406.42l1.38,3.12h-.64l-.32-.76h-1.39l-.3.76h-.63l1.29-3.12h.62ZM50.84,408.32h1.01l-.53-1.23-.48,1.23Z"/><path class="cls-3" d="M54.87,406.38c.38,0,.77.09,1.14.26v.55c-.38-.19-.75-.29-1.12-.29-.23,0-.43.05-.61.14-.18.09-.31.22-.41.39-.1.17-.15.36-.15.57,0,.32.11.57.32.77.21.19.49.29.84.29.1,0,.19,0,.27-.02.09-.02.19-.05.31-.09v-.52h-.52v-.47h1.12v1.29c-.15.11-.34.19-.55.25-.22.06-.44.09-.67.09-.33,0-.63-.07-.89-.2-.27-.14-.48-.32-.63-.57-.15-.24-.22-.52-.22-.82s.08-.58.23-.83c.15-.25.36-.44.63-.58.27-.14.57-.21.9-.21Z"/><path class="cls-3" d="M57.25,406.42l1.85,2.18v-2.18h.59v3.12h-.52l-1.86-2.21v2.21h-.59v-3.12h.53Z"/><path class="cls-3" d="M62.39,406.42v.47h-1.41v.82h1.35v.47h-1.35v.89h1.44v.47h-2.05v-3.12h2.02Z"/><path class="cls-4" d="M44.5,405.08v.67h-2.02v1.17h1.93v.67h-1.93v1.27h2.06v.67h-2.93v-4.46h2.88Z"/><path class="cls-4" d="M46.11,406.38c.3,0,.6.08.88.23v.54c-.32-.19-.61-.29-.86-.29-.15,0-.27.03-.36.09-.09.06-.13.14-.13.24,0,.12.08.23.24.33.04.03.22.11.52.25.26.12.44.26.55.4.11.15.17.32.17.53,0,.27-.1.48-.29.65-.19.16-.44.25-.75.25-.2,0-.37-.02-.51-.07-.14-.04-.3-.12-.48-.23v-.59c.33.28.65.41.94.41.15,0,.27-.03.36-.1s.14-.15.14-.25c0-.14-.08-.26-.24-.35-.13-.07-.3-.16-.51-.26-.25-.11-.43-.24-.55-.39-.12-.15-.18-.32-.18-.52,0-.26.1-.47.29-.63s.45-.23.77-.23Z"/><path class="cls-4" d="M48.85,406.42c.29,0,.53.08.71.25.18.17.27.39.27.65s-.09.49-.28.65-.43.25-.73.25h-.58v1.31h-.6v-3.12h1.21ZM48.7,407.76c.16,0,.29-.04.38-.11.09-.07.14-.18.14-.33,0-.29-.18-.43-.55-.43h-.41v.87h.45Z"/><path class="cls-4" d="M51.62,406.42l1.38,3.12h-.64l-.32-.76h-1.39l-.3.76h-.63l1.29-3.12h.62ZM50.84,408.32h1.01l-.53-1.23-.48,1.23Z"/><path class="cls-4" d="M54.87,406.38c.38,0,.77.09,1.14.26v.55c-.38-.19-.75-.29-1.12-.29-.23,0-.43.05-.61.14-.18.09-.31.22-.41.39-.1.17-.15.36-.15.57,0,.32.11.57.32.77.21.19.49.29.84.29.1,0,.19,0,.27-.02.09-.02.19-.05.31-.09v-.52h-.52v-.47h1.12v1.29c-.15.11-.34.19-.55.25-.22.06-.44.09-.67.09-.33,0-.63-.07-.89-.2-.27-.14-.48-.32-.63-.57-.15-.24-.22-.52-.22-.82s.08-.58.23-.83c.15-.25.36-.44.63-.58.27-.14.57-.21.9-.21Z"/><path class="cls-4" d="M57.25,406.42l1.85,2.18v-2.18h.59v3.12h-.52l-1.86-2.21v2.21h-.59v-3.12h.53Z"/><path class="cls-4" d="M62.39,406.42v.47h-1.41v.82h1.35v.47h-1.35v.89h1.44v.47h-2.05v-3.12h2.02Z"/><path class="cls-3" d="M10.86,392.88c.42,0,.76.12,1.02.36.26.24.39.55.39.93s-.13.7-.4.93-.61.36-1.04.36h-.83v1.87h-.86v-4.46h1.72ZM10.65,394.8c.23,0,.41-.05.54-.16.13-.11.19-.26.19-.47,0-.41-.26-.62-.79-.62h-.59v1.24h.65Z"/><path class="cls-3" d="M14.4,394.18c.32,0,.61.07.87.2.26.13.46.33.62.58s.23.53.23.82-.07.56-.22.81c-.15.25-.35.44-.62.58-.26.14-.56.21-.88.21s-.62-.07-.88-.21c-.26-.14-.47-.33-.62-.58s-.22-.52-.22-.81.07-.55.22-.81c.15-.25.35-.45.61-.59s.56-.21.89-.21ZM13.3,395.78c0,.21.05.39.14.56s.22.29.39.38c.17.09.36.14.57.14.32,0,.58-.1.79-.3.21-.2.31-.46.31-.78,0-.21-.05-.39-.14-.56-.09-.17-.22-.29-.39-.39-.17-.09-.36-.14-.57-.14s-.4.05-.57.14c-.17.09-.3.22-.39.38s-.14.35-.14.56Z"/><path class="cls-3" d="M17.81,394.22c.29,0,.53.08.72.24s.28.37.28.63c0,.18-.05.33-.14.46-.09.13-.23.24-.41.31.1.05.19.13.27.22.08.09.17.25.29.47.19.38.33.64.42.78h-.67c-.05-.07-.11-.18-.19-.33-.17-.33-.3-.56-.38-.67s-.16-.2-.23-.25-.16-.07-.26-.07h-.22v1.32h-.6v-3.12h1.12ZM17.68,395.55c.16,0,.28-.04.37-.12.09-.08.13-.19.13-.32s-.04-.25-.13-.32-.22-.11-.38-.11h-.38v.87h.38Z"/><path class="cls-3" d="M21.99,394.22v.47h-1.11v2.65h-.6v-2.65h-1.11v-.47h2.82Z"/><path class="cls-3" d="M23.03,394.22v1.82c0,.19.03.33.08.44.06.11.15.2.27.27s.27.11.44.11c.18,0,.34-.03.47-.1.13-.07.22-.16.28-.28s.09-.28.09-.49v-1.78h.6v1.85c0,.42-.13.74-.38.97-.25.23-.61.34-1.07.34-.29,0-.54-.05-.75-.15-.21-.1-.37-.25-.49-.45-.11-.19-.17-.42-.17-.68v-1.88h.61Z"/><path class="cls-3" d="M27.58,394.18c.38,0,.77.09,1.14.26v.55c-.38-.19-.75-.29-1.12-.29-.23,0-.43.05-.61.14-.18.09-.31.22-.41.39-.1.17-.15.36-.15.57,0,.32.11.57.32.77.21.19.49.29.84.29.1,0,.19,0,.27-.02.09-.02.19-.05.31-.09v-.52h-.52v-.47h1.12v1.29c-.15.11-.34.19-.55.25-.22.06-.44.09-.67.09-.33,0-.63-.07-.89-.2-.27-.14-.48-.32-.63-.57-.15-.24-.22-.52-.22-.82s.08-.58.23-.83c.15-.25.36-.44.63-.58.27-.14.57-.21.9-.21Z"/><path class="cls-3" d="M31.01,394.22l1.38,3.12h-.64l-.32-.76h-1.39l-.3.76h-.63l1.29-3.12h.62ZM30.22,396.12h1.01l-.53-1.23-.48,1.23Z"/><path class="cls-3" d="M33.36,394.22v2.65h1.51v.47h-2.12v-3.12h.6Z"/><path class="cls-4" d="M10.86,392.88c.42,0,.76.12,1.02.36.26.24.39.55.39.93s-.13.7-.4.93-.61.36-1.04.36h-.83v1.87h-.86v-4.46h1.72ZM10.65,394.8c.23,0,.41-.05.54-.16.13-.11.19-.26.19-.47,0-.41-.26-.62-.79-.62h-.59v1.24h.65Z"/><path class="cls-4" d="M14.4,394.18c.32,0,.61.07.87.2.26.13.46.33.62.58s.23.53.23.82-.07.56-.22.81c-.15.25-.35.44-.62.58-.26.14-.56.21-.88.21s-.62-.07-.88-.21c-.26-.14-.47-.33-.62-.58s-.22-.52-.22-.81.07-.55.22-.81c.15-.25.35-.45.61-.59s.56-.21.89-.21ZM13.3,395.78c0,.21.05.39.14.56s.22.29.39.38c.17.09.36.14.57.14.32,0,.58-.1.79-.3.21-.2.31-.46.31-.78,0-.21-.05-.39-.14-.56-.09-.17-.22-.29-.39-.39-.17-.09-.36-.14-.57-.14s-.4.05-.57.14c-.17.09-.3.22-.39.38s-.14.35-.14.56Z"/><path class="cls-4" d="M17.81,394.22c.29,0,.53.08.72.24s.28.37.28.63c0,.18-.05.33-.14.46-.09.13-.23.24-.41.31.1.05.19.13.27.22.08.09.17.25.29.47.19.38.33.64.42.78h-.67c-.05-.07-.11-.18-.19-.33-.17-.33-.3-.56-.38-.67s-.16-.2-.23-.25-.16-.07-.26-.07h-.22v1.32h-.6v-3.12h1.12ZM17.68,395.55c.16,0,.28-.04.37-.12.09-.08.13-.19.13-.32s-.04-.25-.13-.32-.22-.11-.38-.11h-.38v.87h.38Z"/><path class="cls-4" d="M21.99,394.22v.47h-1.11v2.65h-.6v-2.65h-1.11v-.47h2.82Z"/><path class="cls-4" d="M23.03,394.22v1.82c0,.19.03.33.08.44.06.11.15.2.27.27s.27.11.44.11c.18,0,.34-.03.47-.1.13-.07.22-.16.28-.28s.09-.28.09-.49v-1.78h.6v1.85c0,.42-.13.74-.38.97-.25.23-.61.34-1.07.34-.29,0-.54-.05-.75-.15-.21-.1-.37-.25-.49-.45-.11-.19-.17-.42-.17-.68v-1.88h.61Z"/><path class="cls-4" d="M27.58,394.18c.38,0,.77.09,1.14.26v.55c-.38-.19-.75-.29-1.12-.29-.23,0-.43.05-.61.14-.18.09-.31.22-.41.39-.1.17-.15.36-.15.57,0,.32.11.57.32.77.21.19.49.29.84.29.1,0,.19,0,.27-.02.09-.02.19-.05.31-.09v-.52h-.52v-.47h1.12v1.29c-.15.11-.34.19-.55.25-.22.06-.44.09-.67.09-.33,0-.63-.07-.89-.2-.27-.14-.48-.32-.63-.57-.15-.24-.22-.52-.22-.82s.08-.58.23-.83c.15-.25.36-.44.63-.58.27-.14.57-.21.9-.21Z"/><path class="cls-4" d="M31.01,394.22l1.38,3.12h-.64l-.32-.76h-1.39l-.3.76h-.63l1.29-3.12h.62ZM30.22,396.12h1.01l-.53-1.23-.48,1.23Z"/><path class="cls-4" d="M33.36,394.22v2.65h1.51v.47h-2.12v-3.12h.6Z"/><path class="cls-3" d="M71.21,266.3c.42,0,.76.12,1.02.35s.4.53.4.91c0,.25-.07.47-.2.66-.13.19-.32.34-.58.44.14.08.27.18.38.31s.25.35.41.67c.27.54.47.91.61,1.12h-.96c-.07-.1-.16-.25-.27-.47-.25-.47-.43-.79-.54-.96-.11-.16-.23-.28-.33-.35-.11-.07-.23-.1-.37-.1h-.31v1.88h-.86v-4.46h1.6ZM71.02,268.2c.23,0,.4-.06.53-.17s.19-.27.19-.46-.06-.36-.19-.46c-.13-.1-.31-.15-.55-.15h-.54v1.24h.55Z"/><path class="cls-3" d="M75.27,267.59c.32,0,.61.07.87.2.26.13.46.33.62.58s.23.53.23.82-.07.56-.22.81c-.15.25-.35.44-.62.58-.26.14-.56.21-.88.21s-.62-.07-.88-.21c-.26-.14-.47-.33-.62-.58s-.22-.52-.22-.81.07-.55.22-.81c.15-.25.35-.45.61-.59s.56-.21.89-.21ZM74.17,269.19c0,.21.05.39.14.56s.22.29.39.38c.17.09.36.14.57.14.32,0,.58-.1.79-.3.21-.2.31-.46.31-.78,0-.21-.05-.39-.14-.56-.09-.17-.22-.29-.39-.39-.17-.09-.36-.14-.57-.14s-.4.05-.57.14c-.17.09-.3.22-.39.38s-.14.35-.14.56Z"/><path class="cls-3" d="M77.73,267.63l.75,1.04.76-1.04h.72l-1.18,1.57v1.55h-.6v-1.55l-1.19-1.57h.73Z"/><path class="cls-3" d="M81.59,267.63l1.38,3.12h-.64l-.32-.76h-1.39l-.3.76h-.63l1.29-3.12h.62ZM80.81,269.54h1.01l-.53-1.23-.48,1.23Z"/><path class="cls-3" d="M83.87,267.63v1.82c0,.19.03.33.08.44.06.11.15.2.27.27s.27.11.44.11c.18,0,.34-.03.47-.1.13-.07.22-.16.28-.28s.09-.28.09-.49v-1.78h.6v1.85c0,.42-.13.74-.38.97-.25.23-.61.34-1.07.34-.29,0-.54-.05-.75-.15-.21-.1-.37-.25-.49-.45-.11-.19-.17-.42-.17-.68v-1.88h.61Z"/><path class="cls-3" d="M87.32,267.63l1.02,1.23,1.02-1.23h.54v3.12h-.6v-2.19h-.02l-.9,1.1h-.08l-.9-1.1h-.02v2.19h-.6v-3.12h.54Z"/><path class="cls-3" d="M92.62,267.63v.47h-1.41v.82h1.35v.47h-1.35v.89h1.44v.47h-2.05v-3.12h2.02Z"/><path class="cls-3" d="M94.77,268.9v.75h-1.65v-.75h1.65Z"/><path class="cls-3" d="M96.34,266.3v2.59c0,.27.04.48.12.63s.21.29.39.39.39.15.63.15c.26,0,.49-.05.67-.14.18-.1.32-.23.4-.4.09-.17.13-.4.13-.69v-2.54h.86v2.65c0,.6-.18,1.06-.54,1.38-.36.32-.87.48-1.52.48-.41,0-.77-.07-1.07-.22s-.53-.36-.69-.64c-.16-.28-.24-.6-.24-.98v-2.68h.86Z"/><path class="cls-3" d="M100.88,267.63l1.85,2.18v-2.18h.59v3.12h-.52l-1.86-2.21v2.21h-.59v-3.12h.53Z"/><path class="cls-3" d="M104.62,267.63v3.12h-.6v-3.12h.6Z"/><path class="cls-4" d="M71.21,266.3c.42,0,.76.12,1.02.35s.4.53.4.91c0,.25-.07.47-.2.66-.13.19-.32.34-.58.44.14.08.27.18.38.31s.25.35.41.67c.27.54.47.91.61,1.12h-.96c-.07-.1-.16-.25-.27-.47-.25-.47-.43-.79-.54-.96-.11-.16-.23-.28-.33-.35-.11-.07-.23-.1-.37-.1h-.31v1.88h-.86v-4.46h1.6ZM71.02,268.2c.23,0,.4-.06.53-.17s.19-.27.19-.46-.06-.36-.19-.46c-.13-.1-.31-.15-.55-.15h-.54v1.24h.55Z"/><path class="cls-4" d="M75.27,267.59c.32,0,.61.07.87.2.26.13.46.33.62.58s.23.53.23.82-.07.56-.22.81c-.15.25-.35.44-.62.58-.26.14-.56.21-.88.21s-.62-.07-.88-.21c-.26-.14-.47-.33-.62-.58s-.22-.52-.22-.81.07-.55.22-.81c.15-.25.35-.45.61-.59s.56-.21.89-.21ZM74.17,269.19c0,.21.05.39.14.56s.22.29.39.38c.17.09.36.14.57.14.32,0,.58-.1.79-.3.21-.2.31-.46.31-.78,0-.21-.05-.39-.14-.56-.09-.17-.22-.29-.39-.39-.17-.09-.36-.14-.57-.14s-.4.05-.57.14c-.17.09-.3.22-.39.38s-.14.35-.14.56Z"/><path class="cls-4" d="M77.73,267.63l.75,1.04.76-1.04h.72l-1.18,1.57v1.55h-.6v-1.55l-1.19-1.57h.73Z"/><path class="cls-4" d="M81.59,267.63l1.38,3.12h-.64l-.32-.76h-1.39l-.3.76h-.63l1.29-3.12h.62ZM80.81,269.54h1.01l-.53-1.23-.48,1.23Z"/><path class="cls-4" d="M83.87,267.63v1.82c0,.19.03.33.08.44.06.11.15.2.27.27s.27.11.44.11c.18,0,.34-.03.47-.1.13-.07.22-.16.28-.28s.09-.28.09-.49v-1.78h.6v1.85c0,.42-.13.74-.38.97-.25.23-.61.34-1.07.34-.29,0-.54-.05-.75-.15-.21-.1-.37-.25-.49-.45-.11-.19-.17-.42-.17-.68v-1.88h.61Z"/><path class="cls-4" d="M87.32,267.63l1.02,1.23,1.02-1.23h.54v3.12h-.6v-2.19h-.02l-.9,1.1h-.08l-.9-1.1h-.02v2.19h-.6v-3.12h.54Z"/><path class="cls-4" d="M92.62,267.63v.47h-1.41v.82h1.35v.47h-1.35v.89h1.44v.47h-2.05v-3.12h2.02Z"/><path class="cls-4" d="M94.77,268.9v.75h-1.65v-.75h1.65Z"/><path class="cls-4" d="M96.34,266.3v2.59c0,.27.04.48.12.63s.21.29.39.39.39.15.63.15c.26,0,.49-.05.67-.14.18-.1.32-.23.4-.4.09-.17.13-.4.13-.69v-2.54h.86v2.65c0,.6-.18,1.06-.54,1.38-.36.32-.87.48-1.52.48-.41,0-.77-.07-1.07-.22s-.53-.36-.69-.64c-.16-.28-.24-.6-.24-.98v-2.68h.86Z"/><path class="cls-4" d="M100.88,267.63l1.85,2.18v-2.18h.59v3.12h-.52l-1.86-2.21v2.21h-.59v-3.12h.53Z"/><path class="cls-4" d="M104.62,267.63v3.12h-.6v-3.12h.6Z"/><path class="cls-3" d="M197.59,355.77c.25,0,.5.03.74.09s.5.16.78.29v.81c-.27-.16-.53-.27-.76-.34s-.48-.11-.73-.11c-.32,0-.6.07-.86.2-.26.13-.45.32-.59.55-.14.24-.21.5-.21.79s.07.56.21.8.34.42.59.55c.26.13.54.19.86.19.24,0,.48-.04.7-.11.22-.07.5-.2.84-.38v.81c-.29.15-.56.26-.8.32s-.53.1-.85.1c-.47,0-.89-.09-1.26-.28s-.66-.46-.87-.81c-.21-.35-.32-.74-.32-1.16,0-.45.11-.85.33-1.21.22-.36.52-.63.9-.83.38-.19.81-.29,1.29-.29Z"/><path class="cls-3" d="M200.96,357.17c.29,0,.53.08.72.24.19.16.28.37.28.63,0,.18-.05.33-.14.46-.09.13-.23.24-.41.31.1.05.19.13.27.22.08.09.17.25.29.47.19.38.33.64.42.78h-.67c-.05-.07-.11-.18-.19-.33-.17-.33-.3-.56-.38-.67s-.16-.2-.23-.25c-.07-.05-.16-.07-.26-.07h-.22v1.32h-.6v-3.12h1.12ZM200.83,358.5c.16,0,.28-.04.37-.12s.14-.19.14-.32-.04-.25-.13-.32-.22-.11-.38-.11h-.38v.87h.38Z"/><path class="cls-3" d="M204.25,357.13c.32,0,.61.07.87.2s.46.33.62.58c.15.25.23.53.23.82s-.07.56-.22.81c-.15.25-.35.44-.62.58-.26.14-.56.21-.88.21s-.62-.07-.88-.21c-.26-.14-.47-.33-.62-.58s-.22-.52-.22-.81.07-.55.22-.81c.15-.25.35-.45.61-.59s.56-.21.89-.21ZM203.15,358.73c0,.21.05.39.14.56s.22.29.39.38c.17.09.36.14.57.14.32,0,.58-.1.79-.3.21-.2.31-.46.31-.78,0-.21-.05-.39-.14-.56-.09-.17-.22-.29-.39-.39-.17-.09-.36-.14-.57-.14s-.4.05-.57.14c-.17.09-.3.22-.39.38-.09.16-.14.35-.14.56Z"/><path class="cls-3" d="M208.02,357.17l1.38,3.12h-.64l-.32-.76h-1.39l-.3.76h-.63l1.29-3.12h.62ZM207.23,359.07h1.01l-.53-1.23-.48,1.23Z"/><path class="cls-3" d="M211.99,357.17v.47h-1.11v2.65h-.6v-2.65h-1.11v-.47h2.82Z"/><path class="cls-3" d="M213.06,357.17v3.12h-.6v-3.12h.6Z"/><path class="cls-3" d="M215.78,357.17v.47h-1.41v.82h1.35v.47h-1.35v.89h1.44v.47h-2.05v-3.12h2.02Z"/><path class="cls-4" d="M197.59,355.77c.25,0,.5.03.74.09s.5.16.78.29v.81c-.27-.16-.53-.27-.76-.34s-.48-.11-.73-.11c-.32,0-.6.07-.86.2-.26.13-.45.32-.59.55-.14.24-.21.5-.21.79s.07.56.21.8.34.42.59.55c.26.13.54.19.86.19.24,0,.48-.04.7-.11.22-.07.5-.2.84-.38v.81c-.29.15-.56.26-.8.32s-.53.1-.85.1c-.47,0-.89-.09-1.26-.28s-.66-.46-.87-.81c-.21-.35-.32-.74-.32-1.16,0-.45.11-.85.33-1.21.22-.36.52-.63.9-.83.38-.19.81-.29,1.29-.29Z"/><path class="cls-4" d="M200.96,357.17c.29,0,.53.08.72.24.19.16.28.37.28.63,0,.18-.05.33-.14.46-.09.13-.23.24-.41.31.1.05.19.13.27.22.08.09.17.25.29.47.19.38.33.64.42.78h-.67c-.05-.07-.11-.18-.19-.33-.17-.33-.3-.56-.38-.67s-.16-.2-.23-.25c-.07-.05-.16-.07-.26-.07h-.22v1.32h-.6v-3.12h1.12ZM200.83,358.5c.16,0,.28-.04.37-.12s.14-.19.14-.32-.04-.25-.13-.32-.22-.11-.38-.11h-.38v.87h.38Z"/><path class="cls-4" d="M204.25,357.13c.32,0,.61.07.87.2s.46.33.62.58c.15.25.23.53.23.82s-.07.56-.22.81c-.15.25-.35.44-.62.58-.26.14-.56.21-.88.21s-.62-.07-.88-.21c-.26-.14-.47-.33-.62-.58s-.22-.52-.22-.81.07-.55.22-.81c.15-.25.35-.45.61-.59s.56-.21.89-.21ZM203.15,358.73c0,.21.05.39.14.56s.22.29.39.38c.17.09.36.14.57.14.32,0,.58-.1.79-.3.21-.2.31-.46.31-.78,0-.21-.05-.39-.14-.56-.09-.17-.22-.29-.39-.39-.17-.09-.36-.14-.57-.14s-.4.05-.57.14c-.17.09-.3.22-.39.38-.09.16-.14.35-.14.56Z"/><path class="cls-4" d="M208.02,357.17l1.38,3.12h-.64l-.32-.76h-1.39l-.3.76h-.63l1.29-3.12h.62ZM207.23,359.07h1.01l-.53-1.23-.48,1.23Z"/><path class="cls-4" d="M211.99,357.17v.47h-1.11v2.65h-.6v-2.65h-1.11v-.47h2.82Z"/><path class="cls-4" d="M213.06,357.17v3.12h-.6v-3.12h.6Z"/><path class="cls-4" d="M215.78,357.17v.47h-1.41v.82h1.35v.47h-1.35v.89h1.44v.47h-2.05v-3.12h2.02Z"/><path class="cls-3" d="M242.49,411.55c.55,0,1.09.12,1.63.37v.79c-.54-.27-1.07-.41-1.6-.41-.33,0-.62.07-.87.19-.25.13-.45.32-.59.56-.14.24-.21.52-.21.82,0,.45.15.82.45,1.1.3.28.7.42,1.2.42.14,0,.27-.01.39-.04s.27-.07.45-.13v-.74h-.74v-.67h1.6v1.84c-.22.15-.48.27-.79.36-.31.09-.63.13-.96.13-.47,0-.9-.1-1.28-.29-.38-.19-.68-.46-.89-.81s-.32-.74-.32-1.17.11-.83.32-1.18c.22-.35.52-.63.9-.82s.82-.29,1.29-.29Z"/><path class="cls-3" d="M246.11,412.94c.29,0,.53.08.72.24.18.16.28.37.28.63,0,.18-.05.33-.14.46-.09.13-.23.24-.41.31.1.05.19.13.27.22.08.09.17.25.29.47.19.38.33.64.42.78h-.67c-.05-.07-.11-.18-.19-.33-.17-.33-.3-.56-.38-.67s-.16-.2-.23-.25c-.07-.05-.16-.07-.26-.07h-.22v1.32h-.6v-3.12h1.12ZM245.97,414.27c.16,0,.28-.04.37-.12.09-.08.13-.19.13-.32s-.04-.25-.13-.32-.22-.11-.38-.11h-.38v.87h.38Z"/><path class="cls-3" d="M249.94,412.94v.47h-1.41v.82h1.35v.47h-1.35v.89h1.45v.47h-2.05v-3.12h2.02ZM248.95,411.96l.43.77h-.34l-.84-.77h.75Z"/><path class="cls-3" d="M252.17,412.9c.18,0,.35.02.52.06s.35.11.55.21v.57c-.19-.11-.37-.19-.53-.24-.16-.05-.33-.07-.51-.07-.22,0-.42.05-.6.14-.18.09-.32.22-.42.39-.1.17-.15.35-.15.56s.05.39.15.56c.1.16.24.29.42.38s.38.14.6.14c.17,0,.33-.02.49-.07.16-.05.35-.14.59-.27v.57c-.2.11-.39.18-.56.23s-.37.07-.59.07c-.33,0-.62-.07-.88-.2s-.46-.32-.61-.57-.22-.52-.22-.81c0-.31.08-.6.23-.85.15-.25.36-.44.63-.58.27-.14.57-.2.9-.2Z"/><path class="cls-3" d="M255.87,412.94v.47h-1.41v.82h1.35v.47h-1.35v.89h1.45v.47h-2.05v-3.12h2.02Z"/><path class="cls-4" d="M242.49,411.55c.55,0,1.09.12,1.63.37v.79c-.54-.27-1.07-.41-1.6-.41-.33,0-.62.07-.87.19-.25.13-.45.32-.59.56-.14.24-.21.52-.21.82,0,.45.15.82.45,1.1.3.28.7.42,1.2.42.14,0,.27-.01.39-.04s.27-.07.45-.13v-.74h-.74v-.67h1.6v1.84c-.22.15-.48.27-.79.36-.31.09-.63.13-.96.13-.47,0-.9-.1-1.28-.29-.38-.19-.68-.46-.89-.81s-.32-.74-.32-1.17.11-.83.32-1.18c.22-.35.52-.63.9-.82s.82-.29,1.29-.29Z"/><path class="cls-4" d="M246.11,412.94c.29,0,.53.08.72.24.18.16.28.37.28.63,0,.18-.05.33-.14.46-.09.13-.23.24-.41.31.1.05.19.13.27.22.08.09.17.25.29.47.19.38.33.64.42.78h-.67c-.05-.07-.11-.18-.19-.33-.17-.33-.3-.56-.38-.67s-.16-.2-.23-.25c-.07-.05-.16-.07-.26-.07h-.22v1.32h-.6v-3.12h1.12ZM245.97,414.27c.16,0,.28-.04.37-.12.09-.08.13-.19.13-.32s-.04-.25-.13-.32-.22-.11-.38-.11h-.38v.87h.38Z"/><path class="cls-4" d="M249.94,412.94v.47h-1.41v.82h1.35v.47h-1.35v.89h1.45v.47h-2.05v-3.12h2.02ZM248.95,411.96l.43.77h-.34l-.84-.77h.75Z"/><path class="cls-4" d="M252.17,412.9c.18,0,.35.02.52.06s.35.11.55.21v.57c-.19-.11-.37-.19-.53-.24-.16-.05-.33-.07-.51-.07-.22,0-.42.05-.6.14-.18.09-.32.22-.42.39-.1.17-.15.35-.15.56s.05.39.15.56c.1.16.24.29.42.38s.38.14.6.14c.17,0,.33-.02.49-.07.16-.05.35-.14.59-.27v.57c-.2.11-.39.18-.56.23s-.37.07-.59.07c-.33,0-.62-.07-.88-.2s-.46-.32-.61-.57-.22-.52-.22-.81c0-.31.08-.6.23-.85.15-.25.36-.44.63-.58.27-.14.57-.2.9-.2Z"/><path class="cls-4" d="M255.87,412.94v.47h-1.41v.82h1.35v.47h-1.35v.89h1.45v.47h-2.05v-3.12h2.02Z"/><path class="cls-3" d="M338.17,391.18v.67h-1.58v3.78h-.86v-3.78h-1.58v-.67h4.03Z"/><path class="cls-3" d="M339.26,392.52v1.82c0,.19.03.33.08.44.06.11.15.2.27.27.13.07.27.11.44.11.19,0,.34-.03.47-.1s.22-.16.28-.28c.06-.12.09-.28.09-.49v-1.78h.6v1.85c0,.42-.13.74-.38.97-.25.23-.61.34-1.07.34-.29,0-.54-.05-.75-.15-.21-.1-.37-.25-.49-.45-.11-.19-.17-.42-.17-.68v-1.88h.6Z"/><path class="cls-3" d="M343.29,392.52c.29,0,.53.08.72.24.18.16.28.37.28.63,0,.18-.05.33-.14.46-.09.13-.23.24-.41.31.1.05.19.13.27.22.08.09.17.25.29.47.19.38.33.64.42.78h-.67c-.05-.07-.11-.18-.19-.33-.17-.33-.3-.56-.38-.67s-.16-.2-.23-.25c-.07-.05-.16-.07-.26-.07h-.22v1.32h-.6v-3.12h1.12ZM343.16,393.85c.16,0,.28-.04.37-.12.09-.08.13-.19.13-.32s-.04-.25-.13-.32-.22-.11-.38-.11h-.38v.87h.38Z"/><path class="cls-3" d="M346.6,392.48c.31,0,.6.07.86.21.26.14.46.33.61.58.15.25.22.52.22.81,0,.24-.05.46-.15.67-.1.21-.24.39-.43.54s-.39.25-.62.31v.03c.33.16.63.24.89.24.1,0,.19-.01.27-.04l.02.03-.5.45c-.51-.03-1.05-.26-1.63-.69-.24-.05-.47-.15-.66-.3-.2-.15-.35-.34-.46-.56-.11-.22-.16-.45-.16-.69,0-.29.08-.56.23-.82.15-.25.36-.45.62-.59.26-.14.56-.2.9-.2ZM345.48,394.08c0,.32.1.58.31.78.2.2.47.3.8.3.21,0,.39-.05.56-.14.17-.09.3-.22.39-.38s.14-.35.14-.55-.05-.4-.14-.56c-.09-.17-.22-.3-.39-.39-.17-.09-.35-.14-.56-.14-.33,0-.6.1-.8.3-.2.2-.31.46-.31.79Z"/><path class="cls-3" d="M349.44,392.52v1.82c0,.19.03.33.08.44.06.11.15.2.27.27.13.07.27.11.44.11.19,0,.34-.03.47-.1s.22-.16.28-.28c.06-.12.09-.28.09-.49v-1.78h.6v1.85c0,.42-.13.74-.38.97-.25.23-.61.34-1.07.34-.29,0-.54-.05-.75-.15-.21-.1-.37-.25-.49-.45-.11-.19-.17-.42-.17-.68v-1.88h.6Z"/><path class="cls-3" d="M352.97,392.52v3.12h-.6v-3.12h.6Z"/><path class="cls-3" d="M355.69,392.52v.47h-1.41v.82h1.35v.47h-1.35v.89h1.44v.47h-2.05v-3.12h2.02Z"/><path class="cls-4" d="M338.17,391.18v.67h-1.58v3.78h-.86v-3.78h-1.58v-.67h4.03Z"/><path class="cls-4" d="M339.26,392.52v1.82c0,.19.03.33.08.44.06.11.15.2.27.27.13.07.27.11.44.11.19,0,.34-.03.47-.1s.22-.16.28-.28c.06-.12.09-.28.09-.49v-1.78h.6v1.85c0,.42-.13.74-.38.97-.25.23-.61.34-1.07.34-.29,0-.54-.05-.75-.15-.21-.1-.37-.25-.49-.45-.11-.19-.17-.42-.17-.68v-1.88h.6Z"/><path class="cls-4" d="M343.29,392.52c.29,0,.53.08.72.24.18.16.28.37.28.63,0,.18-.05.33-.14.46-.09.13-.23.24-.41.31.1.05.19.13.27.22.08.09.17.25.29.47.19.38.33.64.42.78h-.67c-.05-.07-.11-.18-.19-.33-.17-.33-.3-.56-.38-.67s-.16-.2-.23-.25c-.07-.05-.16-.07-.26-.07h-.22v1.32h-.6v-3.12h1.12ZM343.16,393.85c.16,0,.28-.04.37-.12.09-.08.13-.19.13-.32s-.04-.25-.13-.32-.22-.11-.38-.11h-.38v.87h.38Z"/><path class="cls-4" d="M346.6,392.48c.31,0,.6.07.86.21.26.14.46.33.61.58.15.25.22.52.22.81,0,.24-.05.46-.15.67-.1.21-.24.39-.43.54s-.39.25-.62.31v.03c.33.16.63.24.89.24.1,0,.19-.01.27-.04l.02.03-.5.45c-.51-.03-1.05-.26-1.63-.69-.24-.05-.47-.15-.66-.3-.2-.15-.35-.34-.46-.56-.11-.22-.16-.45-.16-.69,0-.29.08-.56.23-.82.15-.25.36-.45.62-.59.26-.14.56-.2.9-.2ZM345.48,394.08c0,.32.1.58.31.78.2.2.47.3.8.3.21,0,.39-.05.56-.14.17-.09.3-.22.39-.38s.14-.35.14-.55-.05-.4-.14-.56c-.09-.17-.22-.3-.39-.39-.17-.09-.35-.14-.56-.14-.33,0-.6.1-.8.3-.2.2-.31.46-.31.79Z"/><path class="cls-4" d="M349.44,392.52v1.82c0,.19.03.33.08.44.06.11.15.2.27.27.13.07.27.11.44.11.19,0,.34-.03.47-.1s.22-.16.28-.28c.06-.12.09-.28.09-.49v-1.78h.6v1.85c0,.42-.13.74-.38.97-.25.23-.61.34-1.07.34-.29,0-.54-.05-.75-.15-.21-.1-.37-.25-.49-.45-.11-.19-.17-.42-.17-.68v-1.88h.6Z"/><path class="cls-4" d="M352.97,392.52v3.12h-.6v-3.12h.6Z"/><path class="cls-4" d="M355.69,392.52v.47h-1.41v.82h1.35v.47h-1.35v.89h1.44v.47h-2.05v-3.12h2.02Z"/><path class="cls-3" d="M181.46,315.08v-4.46h1.12c.45,0,.81.11,1.07.33.27.22.4.53.4.91,0,.26-.06.48-.19.67s-.32.33-.56.42c.14.09.28.22.42.38s.33.44.57.85c.16.25.28.44.37.57l.24.32h-.76l-.19-.29s-.02-.03-.04-.05l-.12-.18-.2-.33-.21-.35c-.13-.18-.25-.33-.36-.44-.11-.11-.21-.19-.3-.23-.09-.05-.24-.07-.45-.07h-.17v1.94h-.64ZM182.29,311.17h-.19v1.41h.24c.32,0,.54-.03.66-.08.12-.06.21-.14.28-.25.07-.11.1-.24.1-.38s-.04-.27-.11-.38c-.07-.11-.18-.19-.31-.24-.13-.05-.36-.07-.67-.07Z"/><path class="cls-3" d="M185.24,311.96h1.77v.4h-1.32v.95h1.28v.4h-1.28v.97h1.36v.4h-1.81v-3.12ZM186.54,311.06l-.51.67h-.25l.3-.67h.45Z"/><path class="cls-3" d="M187.5,315.08v-3.12h.99c.3,0,.54.08.71.24.18.16.27.38.27.65,0,.18-.05.34-.14.48-.09.14-.22.24-.37.3s-.38.1-.68.1h-.33v1.35h-.45ZM188.41,312.36h-.46v.98h.49c.18,0,.32-.04.42-.13s.15-.21.15-.37c0-.32-.2-.48-.59-.48Z"/><path class="cls-3" d="M192.03,311.96h.45v1.77c0,.24-.02.42-.05.54-.04.12-.08.22-.13.3-.05.08-.11.15-.19.22-.25.21-.57.32-.97.32s-.73-.11-.98-.32c-.07-.07-.14-.14-.19-.22-.05-.08-.09-.18-.13-.3-.03-.12-.05-.3-.05-.55v-1.77h.45v1.77c0,.29.03.5.1.61.07.11.17.21.31.28.14.07.3.1.48.1.27,0,.48-.07.65-.21.09-.07.15-.16.19-.26.04-.1.06-.27.06-.52v-1.77Z"/><path class="cls-3" d="M194.15,315.08h-1.06v-3.12h.82c.26,0,.46.04.6.1.14.07.25.16.33.29s.11.26.11.42c0,.31-.16.53-.48.66.23.04.41.14.54.28.14.14.2.32.2.52,0,.16-.04.3-.12.43-.08.13-.2.23-.36.31-.16.08-.36.12-.6.12ZM193.93,312.36h-.38v.94h.3c.24,0,.41-.05.51-.14.1-.09.15-.21.15-.35,0-.3-.19-.45-.57-.45ZM193.96,313.7h-.42v.99h.44c.24,0,.41-.02.5-.06.09-.04.16-.1.21-.18.05-.08.08-.17.08-.26s-.03-.18-.08-.26c-.06-.08-.13-.14-.24-.18-.1-.04-.26-.06-.49-.06Z"/><path class="cls-3" d="M195.67,311.96h.45v2.71h1.4v.41h-1.85v-3.12Z"/><path class="cls-3" d="M197.92,311.96h.45v3.12h-.45v-3.12Z"/><path class="cls-3" d="M202.2,315.28l-.45.44c-.14,0-.29-.03-.44-.07-.15-.04-.31-.1-.46-.18-.16-.07-.37-.2-.63-.38-.38-.07-.69-.25-.94-.54s-.37-.63-.37-1.01c0-.47.16-.85.48-1.16.32-.3.72-.46,1.2-.46s.88.15,1.2.45.48.68.48,1.14c0,.39-.12.72-.36,1.02-.24.29-.55.48-.94.55l.12.04c.37.14.63.21.79.21.09,0,.19-.02.31-.06ZM200.59,312.34c-.35,0-.64.11-.87.34-.23.23-.34.51-.34.85s.12.61.35.84c.23.22.52.33.87.33s.63-.11.87-.34c.24-.23.35-.51.35-.84s-.12-.62-.35-.85c-.23-.22-.52-.33-.88-.33Z"/><path class="cls-3" d="M204.99,311.96h.45v1.77c0,.24-.02.42-.05.54-.03.12-.08.22-.13.3s-.11.15-.19.22c-.25.21-.57.32-.97.32s-.73-.11-.98-.32c-.07-.07-.14-.14-.19-.22s-.09-.18-.13-.3c-.03-.12-.05-.3-.05-.55v-1.77h.45v1.77c0,.29.03.5.1.61s.17.21.31.28c.14.07.3.1.48.1.27,0,.48-.07.65-.21.09-.07.15-.16.19-.26.04-.1.06-.27.06-.52v-1.77Z"/><path class="cls-3" d="M206.06,311.96h1.77v.4h-1.32v.95h1.28v.4h-1.28v.97h1.36v.4h-1.81v-3.12Z"/><path class="cls-3" d="M183.54,318.46h3.72v.57h-1.55v3.9h-.64v-3.9h-1.53v-.57Z"/><path class="cls-3" d="M190.41,322.2v.49c-.33.18-.71.27-1.13.27-.35,0-.64-.07-.89-.21-.24-.14-.44-.33-.58-.58-.14-.24-.21-.51-.21-.8,0-.45.16-.84.49-1.15.32-.31.72-.46,1.2-.46.33,0,.69.09,1.09.26v.48c-.36-.21-.72-.31-1.07-.31s-.65.11-.89.34c-.24.23-.35.51-.35.85s.12.62.35.84.53.33.89.33.75-.12,1.11-.35Z"/><path class="cls-3" d="M193.16,319.8h.45v3.12h-.45v-1.36h-1.75v1.36h-.45v-3.12h.45v1.35h1.75v-1.35Z"/><path class="cls-3" d="M194.29,319.8h1.77v.4h-1.32v.95h1.28v.4h-1.28v.97h1.36v.4h-1.81v-3.12ZM195.05,318.9l.31.67h-.25l-.51-.67h.46Z"/><path class="cls-3" d="M199.72,323.12l-.45.44c-.14,0-.29-.03-.44-.07-.15-.04-.31-.1-.46-.18-.16-.07-.37-.2-.63-.38-.38-.07-.69-.25-.94-.54s-.37-.63-.37-1.01c0-.47.16-.85.47-1.16.32-.3.72-.46,1.2-.46s.88.15,1.2.45c.32.3.48.68.48,1.14,0,.39-.12.72-.36,1.02-.24.29-.55.48-.94.55l.12.04c.37.14.63.21.79.21.09,0,.19-.02.31-.06ZM198.11,320.18c-.35,0-.64.11-.87.34-.23.23-.34.51-.34.85s.11.61.35.84c.23.22.52.33.87.33s.63-.11.87-.34c.23-.23.35-.51.35-.84s-.11-.62-.35-.85c-.23-.22-.52-.33-.87-.33Z"/><path class="cls-3" d="M202.51,319.8h.45v1.77c0,.24-.02.42-.05.54-.04.12-.08.22-.13.3-.05.08-.11.15-.19.22-.25.21-.57.32-.97.32s-.73-.11-.98-.32c-.07-.07-.14-.14-.19-.22-.05-.08-.09-.18-.13-.3s-.05-.3-.05-.55v-1.77h.45v1.77c0,.29.03.5.1.61s.17.21.31.28c.14.07.3.1.48.1.26,0,.48-.07.65-.21.09-.07.15-.16.19-.26.04-.1.06-.27.06-.52v-1.77Z"/><path class="cls-3" d="M203.58,319.8h1.77v.4h-1.32v.95h1.28v.4h-1.28v.97h1.36v.4h-1.81v-3.12Z"/><path class="cls-4" d="M181.46,315.08v-4.46h1.12c.45,0,.81.11,1.07.33.27.22.4.53.4.91,0,.26-.06.48-.19.67s-.32.33-.56.42c.14.09.28.22.42.38s.33.44.57.85c.16.25.28.44.37.57l.24.32h-.76l-.19-.29s-.02-.03-.04-.05l-.12-.18-.2-.33-.21-.35c-.13-.18-.25-.33-.36-.44-.11-.11-.21-.19-.3-.23-.09-.05-.24-.07-.45-.07h-.17v1.94h-.64ZM182.29,311.17h-.19v1.41h.24c.32,0,.54-.03.66-.08.12-.06.21-.14.28-.25.07-.11.1-.24.1-.38s-.04-.27-.11-.38c-.07-.11-.18-.19-.31-.24-.13-.05-.36-.07-.67-.07Z"/><path class="cls-4" d="M185.24,311.96h1.77v.4h-1.32v.95h1.28v.4h-1.28v.97h1.36v.4h-1.81v-3.12ZM186.54,311.06l-.51.67h-.25l.3-.67h.45Z"/><path class="cls-4" d="M187.5,315.08v-3.12h.99c.3,0,.54.08.71.24.18.16.27.38.27.65,0,.18-.05.34-.14.48-.09.14-.22.24-.37.3s-.38.1-.68.1h-.33v1.35h-.45ZM188.41,312.36h-.46v.98h.49c.18,0,.32-.04.42-.13s.15-.21.15-.37c0-.32-.2-.48-.59-.48Z"/><path class="cls-4" d="M192.03,311.96h.45v1.77c0,.24-.02.42-.05.54-.04.12-.08.22-.13.3-.05.08-.11.15-.19.22-.25.21-.57.32-.97.32s-.73-.11-.98-.32c-.07-.07-.14-.14-.19-.22-.05-.08-.09-.18-.13-.3-.03-.12-.05-.3-.05-.55v-1.77h.45v1.77c0,.29.03.5.1.61.07.11.17.21.31.28.14.07.3.1.48.1.27,0,.48-.07.65-.21.09-.07.15-.16.19-.26.04-.1.06-.27.06-.52v-1.77Z"/><path class="cls-4" d="M194.15,315.08h-1.06v-3.12h.82c.26,0,.46.04.6.1.14.07.25.16.33.29s.11.26.11.42c0,.31-.16.53-.48.66.23.04.41.14.54.28.14.14.2.32.2.52,0,.16-.04.3-.12.43-.08.13-.2.23-.36.31-.16.08-.36.12-.6.12ZM193.93,312.36h-.38v.94h.3c.24,0,.41-.05.51-.14.1-.09.15-.21.15-.35,0-.3-.19-.45-.57-.45ZM193.96,313.7h-.42v.99h.44c.24,0,.41-.02.5-.06.09-.04.16-.1.21-.18.05-.08.08-.17.08-.26s-.03-.18-.08-.26c-.06-.08-.13-.14-.24-.18-.1-.04-.26-.06-.49-.06Z"/><path class="cls-4" d="M195.67,311.96h.45v2.71h1.4v.41h-1.85v-3.12Z"/><path class="cls-4" d="M197.92,311.96h.45v3.12h-.45v-3.12Z"/><path class="cls-4" d="M202.2,315.28l-.45.44c-.14,0-.29-.03-.44-.07-.15-.04-.31-.1-.46-.18-.16-.07-.37-.2-.63-.38-.38-.07-.69-.25-.94-.54s-.37-.63-.37-1.01c0-.47.16-.85.48-1.16.32-.3.72-.46,1.2-.46s.88.15,1.2.45.48.68.48,1.14c0,.39-.12.72-.36,1.02-.24.29-.55.48-.94.55l.12.04c.37.14.63.21.79.21.09,0,.19-.02.31-.06ZM200.59,312.34c-.35,0-.64.11-.87.34-.23.23-.34.51-.34.85s.12.61.35.84c.23.22.52.33.87.33s.63-.11.87-.34c.24-.23.35-.51.35-.84s-.12-.62-.35-.85c-.23-.22-.52-.33-.88-.33Z"/><path class="cls-4" d="M204.99,311.96h.45v1.77c0,.24-.02.42-.05.54-.03.12-.08.22-.13.3s-.11.15-.19.22c-.25.21-.57.32-.97.32s-.73-.11-.98-.32c-.07-.07-.14-.14-.19-.22s-.09-.18-.13-.3c-.03-.12-.05-.3-.05-.55v-1.77h.45v1.77c0,.29.03.5.1.61s.17.21.31.28c.14.07.3.1.48.1.27,0,.48-.07.65-.21.09-.07.15-.16.19-.26.04-.1.06-.27.06-.52v-1.77Z"/><path class="cls-4" d="M206.06,311.96h1.77v.4h-1.32v.95h1.28v.4h-1.28v.97h1.36v.4h-1.81v-3.12Z"/><path class="cls-4" d="M183.54,318.46h3.72v.57h-1.55v3.9h-.64v-3.9h-1.53v-.57Z"/><path class="cls-4" d="M190.41,322.2v.49c-.33.18-.71.27-1.13.27-.35,0-.64-.07-.89-.21-.24-.14-.44-.33-.58-.58-.14-.24-.21-.51-.21-.8,0-.45.16-.84.49-1.15.32-.31.72-.46,1.2-.46.33,0,.69.09,1.09.26v.48c-.36-.21-.72-.31-1.07-.31s-.65.11-.89.34c-.24.23-.35.51-.35.85s.12.62.35.84.53.33.89.33.75-.12,1.11-.35Z"/><path class="cls-4" d="M193.16,319.8h.45v3.12h-.45v-1.36h-1.75v1.36h-.45v-3.12h.45v1.35h1.75v-1.35Z"/><path class="cls-4" d="M194.29,319.8h1.77v.4h-1.32v.95h1.28v.4h-1.28v.97h1.36v.4h-1.81v-3.12ZM195.05,318.9l.31.67h-.25l-.51-.67h.46Z"/><path class="cls-4" d="M199.72,323.12l-.45.44c-.14,0-.29-.03-.44-.07-.15-.04-.31-.1-.46-.18-.16-.07-.37-.2-.63-.38-.38-.07-.69-.25-.94-.54s-.37-.63-.37-1.01c0-.47.16-.85.47-1.16.32-.3.72-.46,1.2-.46s.88.15,1.2.45c.32.3.48.68.48,1.14,0,.39-.12.72-.36,1.02-.24.29-.55.48-.94.55l.12.04c.37.14.63.21.79.21.09,0,.19-.02.31-.06ZM198.11,320.18c-.35,0-.64.11-.87.34-.23.23-.34.51-.34.85s.11.61.35.84c.23.22.52.33.87.33s.63-.11.87-.34c.23-.23.35-.51.35-.84s-.11-.62-.35-.85c-.23-.22-.52-.33-.87-.33Z"/><path class="cls-4" d="M202.51,319.8h.45v1.77c0,.24-.02.42-.05.54-.04.12-.08.22-.13.3-.05.08-.11.15-.19.22-.25.21-.57.32-.97.32s-.73-.11-.98-.32c-.07-.07-.14-.14-.19-.22-.05-.08-.09-.18-.13-.3s-.05-.3-.05-.55v-1.77h.45v1.77c0,.29.03.5.1.61s.17.21.31.28c.14.07.3.1.48.1.26,0,.48-.07.65-.21.09-.07.15-.16.19-.26.04-.1.06-.27.06-.52v-1.77Z"/><path class="cls-4" d="M203.58,319.8h1.77v.4h-1.32v.95h1.28v.4h-1.28v.97h1.36v.4h-1.81v-3.12Z"/></g></svg>