<?xml version="1.0" encoding="UTF-8"?><svg id="Calque_2" xmlns="http://www.w3.org/2000/svg" viewBox="0 0 841.81 594.3"><defs><style>.cls-1{stroke:#9e2020;stroke-linecap:round;}.cls-1,.cls-2{fill:none;}.cls-3{fill:#fff;}.cls-2{opacity:0;stroke:#c16868;stroke-miterlimit:10;stroke-width:.1px;}</style></defs><g id="Ligne_de_front"><rect id="Cadre" class="cls-2" x=".05" y=".05" width="841.71" height="594.2"/></g><g id="Nom_de_Pays"><path class="cls-1" d="M737.81,174c.64,0,1.16.18,1.57.53.4.35.61.82.61,1.39,0,.39-.1.72-.3,1.01-.2.29-.5.51-.89.68.22.12.41.28.58.48.17.2.38.54.63,1.02.42.83.73,1.4.93,1.71h-1.47c-.1-.15-.24-.39-.41-.72-.38-.73-.65-1.21-.83-1.47-.18-.25-.35-.43-.51-.54-.16-.11-.35-.16-.56-.16h-.48v2.88h-1.32v-6.82h2.46ZM737.51,176.91c.34,0,.62-.09.81-.26.2-.17.3-.41.3-.71s-.1-.55-.29-.7c-.2-.16-.47-.23-.83-.23h-.82v1.9h.84Z"/><path class="cls-1" d="M743.46,176.05v2.78c0,.29.04.51.13.68.09.17.22.31.42.42.19.11.42.16.68.16.28,0,.52-.05.72-.16.2-.1.34-.25.43-.42.09-.18.14-.43.14-.74v-2.72h.92v2.84c0,.64-.19,1.14-.58,1.48-.39.34-.93.52-1.63.52-.44,0-.83-.08-1.15-.24-.32-.16-.57-.38-.74-.68-.17-.3-.26-.65-.26-1.05v-2.87h.93Z"/><path class="cls-1" d="M749.99,175.99c.46,0,.91.12,1.34.35v.82c-.49-.3-.93-.45-1.32-.45-.23,0-.41.04-.55.13-.13.09-.2.21-.2.36,0,.18.12.35.37.5.07.05.33.17.79.38.39.19.67.39.85.62.17.23.26.5.26.81,0,.41-.15.74-.44.99s-.68.38-1.15.38c-.31,0-.57-.03-.79-.1s-.47-.18-.74-.35v-.91c.51.42.99.63,1.44.63.23,0,.41-.05.55-.15.14-.1.21-.23.21-.39,0-.22-.12-.4-.36-.54-.2-.11-.46-.24-.78-.39-.38-.17-.66-.37-.84-.6-.19-.23-.28-.49-.28-.79,0-.4.15-.72.45-.96.3-.24.69-.36,1.18-.36Z"/><path class="cls-1" d="M754.43,175.99c.46,0,.91.12,1.34.35v.82c-.5-.3-.93-.45-1.32-.45-.23,0-.41.04-.54.13s-.2.21-.2.36c0,.18.12.35.37.5.07.05.33.17.79.38.39.19.67.39.85.62.17.23.26.5.26.81,0,.41-.15.74-.44.99-.3.25-.68.38-1.15.38-.3,0-.57-.03-.79-.1-.22-.07-.47-.18-.74-.35v-.91c.51.42.99.63,1.44.63.23,0,.41-.05.55-.15.14-.1.21-.23.21-.39,0-.22-.12-.4-.36-.54-.2-.11-.46-.24-.78-.39-.38-.17-.66-.37-.84-.6s-.28-.49-.28-.79c0-.4.15-.72.45-.96.3-.24.69-.36,1.18-.36Z"/><path class="cls-1" d="M758.43,176.05v4.78h-.92v-4.78h.92Z"/><path class="cls-1" d="M763.29,176.05v.72h-2.16v1.25h2.07v.72h-2.07v1.36h2.21v.72h-3.13v-4.78h3.09Z"/><path class="cls-3" d="M737.81,174c.64,0,1.16.18,1.57.53.4.35.61.82.61,1.39,0,.39-.1.72-.3,1.01-.2.29-.5.51-.89.68.22.12.41.28.58.48.17.2.38.54.63,1.02.42.83.73,1.4.93,1.71h-1.47c-.1-.15-.24-.39-.41-.72-.38-.73-.65-1.21-.83-1.47-.18-.25-.35-.43-.51-.54-.16-.11-.35-.16-.56-.16h-.48v2.88h-1.32v-6.82h2.46ZM737.51,176.91c.34,0,.62-.09.81-.26.2-.17.3-.41.3-.71s-.1-.55-.29-.7c-.2-.16-.47-.23-.83-.23h-.82v1.9h.84Z"/><path class="cls-3" d="M743.46,176.05v2.78c0,.29.04.51.13.68.09.17.22.31.42.42.19.11.42.16.68.16.28,0,.52-.05.72-.16.2-.1.34-.25.43-.42.09-.18.14-.43.14-.74v-2.72h.92v2.84c0,.64-.19,1.14-.58,1.48-.39.34-.93.52-1.63.52-.44,0-.83-.08-1.15-.24-.32-.16-.57-.38-.74-.68-.17-.3-.26-.65-.26-1.05v-2.87h.93Z"/><path class="cls-3" d="M749.99,175.99c.46,0,.91.12,1.34.35v.82c-.49-.3-.93-.45-1.32-.45-.23,0-.41.04-.55.13-.13.09-.2.21-.2.36,0,.18.12.35.37.5.07.05.33.17.79.38.39.19.67.39.85.62.17.23.26.5.26.81,0,.41-.15.74-.44.99s-.68.38-1.15.38c-.31,0-.57-.03-.79-.1s-.47-.18-.74-.35v-.91c.51.42.99.63,1.44.63.23,0,.41-.05.55-.15.14-.1.21-.23.21-.39,0-.22-.12-.4-.36-.54-.2-.11-.46-.24-.78-.39-.38-.17-.66-.37-.84-.6-.19-.23-.28-.49-.28-.79,0-.4.15-.72.45-.96.3-.24.69-.36,1.18-.36Z"/><path class="cls-3" d="M754.43,175.99c.46,0,.91.12,1.34.35v.82c-.5-.3-.93-.45-1.32-.45-.23,0-.41.04-.54.13s-.2.21-.2.36c0,.18.12.35.37.5.07.05.33.17.79.38.39.19.67.39.85.62.17.23.26.5.26.81,0,.41-.15.74-.44.99-.3.25-.68.38-1.15.38-.3,0-.57-.03-.79-.1-.22-.07-.47-.18-.74-.35v-.91c.51.42.99.63,1.44.63.23,0,.41-.05.55-.15.14-.1.21-.23.21-.39,0-.22-.12-.4-.36-.54-.2-.11-.46-.24-.78-.39-.38-.17-.66-.37-.84-.6s-.28-.49-.28-.79c0-.4.15-.72.45-.96.3-.24.69-.36,1.18-.36Z"/><path class="cls-3" d="M758.43,176.05v4.78h-.92v-4.78h.92Z"/><path class="cls-3" d="M763.29,176.05v.72h-2.16v1.25h2.07v.72h-2.07v1.36h2.21v.72h-3.13v-4.78h3.09Z"/><path class="cls-3" d="M737.81,174c.64,0,1.16.18,1.57.53.4.35.61.82.61,1.39,0,.39-.1.72-.3,1.01-.2.29-.5.51-.89.68.22.12.41.28.58.48.17.2.38.54.63,1.02.42.83.73,1.4.93,1.71h-1.47c-.1-.15-.24-.39-.41-.72-.38-.73-.65-1.21-.83-1.47-.18-.25-.35-.43-.51-.54-.16-.11-.35-.16-.56-.16h-.48v2.88h-1.32v-6.82h2.46ZM737.51,176.91c.34,0,.62-.09.81-.26.2-.17.3-.41.3-.71s-.1-.55-.29-.7c-.2-.16-.47-.23-.83-.23h-.82v1.9h.84Z"/><path class="cls-3" d="M743.46,176.05v2.78c0,.29.04.51.13.68.09.17.22.31.42.42.19.11.42.16.68.16.28,0,.52-.05.72-.16.2-.1.34-.25.43-.42.09-.18.14-.43.14-.74v-2.72h.92v2.84c0,.64-.19,1.14-.58,1.48-.39.34-.93.52-1.63.52-.44,0-.83-.08-1.15-.24-.32-.16-.57-.38-.74-.68-.17-.3-.26-.65-.26-1.05v-2.87h.93Z"/><path class="cls-3" d="M749.99,175.99c.46,0,.91.12,1.34.35v.82c-.49-.3-.93-.45-1.32-.45-.23,0-.41.04-.55.13-.13.09-.2.21-.2.36,0,.18.12.35.37.5.07.05.33.17.79.38.39.19.67.39.85.62.17.23.26.5.26.81,0,.41-.15.74-.44.99s-.68.38-1.15.38c-.31,0-.57-.03-.79-.1s-.47-.18-.74-.35v-.91c.51.42.99.63,1.44.63.23,0,.41-.05.55-.15.14-.1.21-.23.21-.39,0-.22-.12-.4-.36-.54-.2-.11-.46-.24-.78-.39-.38-.17-.66-.37-.84-.6-.19-.23-.28-.49-.28-.79,0-.4.15-.72.45-.96.3-.24.69-.36,1.18-.36Z"/><path class="cls-3" d="M754.43,175.99c.46,0,.91.12,1.34.35v.82c-.5-.3-.93-.45-1.32-.45-.23,0-.41.04-.54.13s-.2.21-.2.36c0,.18.12.35.37.5.07.05.33.17.79.38.39.19.67.39.85.62.17.23.26.5.26.81,0,.41-.15.74-.44.99-.3.25-.68.38-1.15.38-.3,0-.57-.03-.79-.1-.22-.07-.47-.18-.74-.35v-.91c.51.42.99.63,1.44.63.23,0,.41-.05.55-.15.14-.1.21-.23.21-.39,0-.22-.12-.4-.36-.54-.2-.11-.46-.24-.78-.39-.38-.17-.66-.37-.84-.6s-.28-.49-.28-.79c0-.4.15-.72.45-.96.3-.24.69-.36,1.18-.36Z"/><path class="cls-3" d="M758.43,176.05v4.78h-.92v-4.78h.92Z"/><path class="cls-3" d="M763.29,176.05v.72h-2.16v1.25h2.07v.72h-2.07v1.36h2.21v.72h-3.13v-4.78h3.09Z"/><path class="cls-1" d="M590.03,194.36c.62,0,1.13.16,1.53.49.39.33.59.73.59,1.22,0,.31-.08.59-.25.83-.16.24-.4.43-.71.57v.06c.47.11.85.32,1.11.64.27.32.4.69.4,1.12,0,.38-.1.72-.29,1.01-.19.3-.46.52-.81.67-.34.15-.75.22-1.21.22h-2.86v-6.82h2.5ZM589.68,197.2c.35,0,.62-.08.83-.25.2-.17.3-.4.3-.69,0-.26-.09-.47-.28-.63-.19-.16-.43-.23-.73-.23h-.95v1.8h.83ZM589.99,200.15c.45,0,.78-.08,1.01-.25.23-.17.34-.42.34-.74,0-.29-.11-.52-.34-.69-.23-.17-.53-.25-.91-.25h-1.24v1.93h1.14Z"/><path class="cls-1" d="M595.53,196.41v4.78h-.92v-4.78h.92Z"/><path class="cls-1" d="M600.39,196.41v.72h-2.16v1.25h2.07v.72h-2.07v1.36h2.21v.72h-3.13v-4.78h3.09ZM599.96,194.91l-1.29,1.18h-.52l.65-1.18h1.16Z"/><path class="cls-1" d="M602.92,196.41v4.05h2.32v.72h-3.24v-4.78h.92Z"/><path class="cls-1" d="M608.88,196.35c.49,0,.94.1,1.33.31.39.2.71.5.94.88.24.38.35.8.35,1.26s-.11.86-.34,1.24c-.23.38-.54.68-.94.89-.4.21-.85.32-1.35.32s-.94-.11-1.35-.32-.72-.51-.95-.88-.34-.79-.34-1.24.11-.85.34-1.23c.23-.39.54-.68.93-.9s.85-.32,1.37-.32ZM607.19,198.8c0,.32.07.6.22.85s.34.45.6.59c.26.14.55.21.87.21.49,0,.89-.15,1.21-.46s.47-.7.47-1.19c0-.32-.07-.6-.21-.86s-.34-.45-.6-.59c-.26-.14-.55-.21-.87-.21s-.62.07-.87.21c-.26.14-.46.34-.6.59-.14.25-.21.54-.21.86Z"/><path class="cls-1" d="M614.79,196.41c.45,0,.81.12,1.1.37.28.25.42.57.42.97,0,.27-.07.51-.21.71-.14.2-.35.36-.62.48.15.08.29.19.41.34.12.14.27.38.44.71.29.58.51.98.65,1.2h-1.03c-.07-.1-.17-.27-.29-.5-.26-.51-.46-.85-.58-1.03s-.24-.3-.36-.38c-.11-.07-.25-.11-.39-.11h-.33v2.02h-.92v-4.78h1.72ZM614.59,198.45c.24,0,.43-.06.57-.18.14-.12.21-.29.21-.5s-.07-.38-.21-.49-.33-.16-.58-.16h-.57v1.33h.59Z"/><path class="cls-1" d="M619.03,196.41v2.78c0,.29.04.51.13.68.09.17.22.31.42.42.19.11.42.16.68.16.28,0,.52-.05.72-.16.2-.1.34-.25.43-.42.09-.18.14-.43.14-.74v-2.72h.92v2.84c0,.64-.19,1.14-.58,1.48-.39.34-.93.52-1.63.52-.44,0-.83-.08-1.15-.24-.32-.16-.57-.38-.74-.68-.17-.3-.26-.65-.26-1.05v-2.87h.93Z"/><path class="cls-1" d="M625.57,196.35c.46,0,.91.12,1.34.35v.82c-.49-.3-.93-.45-1.32-.45-.23,0-.41.04-.55.13-.13.09-.2.21-.2.36,0,.18.12.35.37.5.07.05.33.17.79.38.39.19.67.39.85.62.17.23.26.5.26.81,0,.41-.15.74-.44.99s-.68.38-1.15.38c-.31,0-.57-.03-.79-.1s-.47-.18-.74-.35v-.91c.51.42.99.63,1.44.63.23,0,.41-.05.55-.15.14-.1.21-.23.21-.39,0-.22-.12-.4-.36-.54-.2-.11-.46-.24-.78-.39-.38-.17-.66-.37-.84-.6-.19-.23-.28-.49-.28-.79,0-.4.15-.72.45-.96.3-.24.69-.36,1.18-.36Z"/><path class="cls-1" d="M630.01,196.35c.46,0,.91.12,1.34.35v.82c-.5-.3-.93-.45-1.32-.45-.23,0-.41.04-.54.13s-.2.21-.2.36c0,.18.12.35.37.5.07.05.33.17.79.38.39.19.67.39.85.62.17.23.26.5.26.81,0,.41-.15.74-.44.99-.3.25-.68.38-1.15.38-.3,0-.57-.03-.79-.1-.22-.07-.47-.18-.74-.35v-.91c.51.42.99.63,1.44.63.23,0,.41-.05.55-.15.14-.1.21-.23.21-.39,0-.22-.12-.4-.36-.54-.2-.11-.46-.24-.78-.39-.38-.17-.66-.37-.84-.6s-.28-.49-.28-.79c0-.4.15-.72.45-.96.3-.24.69-.36,1.18-.36Z"/><path class="cls-1" d="M634.01,196.41v4.78h-.92v-4.78h.92Z"/><path class="cls-1" d="M638.87,196.41v.72h-2.16v1.25h2.07v.72h-2.07v1.36h2.21v.72h-3.13v-4.78h3.09Z"/><path class="cls-3" d="M590.03,194.36c.62,0,1.13.16,1.53.49.39.33.59.73.59,1.22,0,.31-.08.59-.25.83-.16.24-.4.43-.71.57v.06c.47.11.85.32,1.11.64.27.32.4.69.4,1.12,0,.38-.1.72-.29,1.01-.19.3-.46.52-.81.67-.34.15-.75.22-1.21.22h-2.86v-6.82h2.5ZM589.68,197.2c.35,0,.62-.08.83-.25.2-.17.3-.4.3-.69,0-.26-.09-.47-.28-.63-.19-.16-.43-.23-.73-.23h-.95v1.8h.83ZM589.99,200.15c.45,0,.78-.08,1.01-.25.23-.17.34-.42.34-.74,0-.29-.11-.52-.34-.69-.23-.17-.53-.25-.91-.25h-1.24v1.93h1.14Z"/><path class="cls-3" d="M595.53,196.41v4.78h-.92v-4.78h.92Z"/><path class="cls-3" d="M600.39,196.41v.72h-2.16v1.25h2.07v.72h-2.07v1.36h2.21v.72h-3.13v-4.78h3.09ZM599.96,194.91l-1.29,1.18h-.52l.65-1.18h1.16Z"/><path class="cls-3" d="M602.92,196.41v4.05h2.32v.72h-3.24v-4.78h.92Z"/><path class="cls-3" d="M608.88,196.35c.49,0,.94.1,1.33.31.39.2.71.5.94.88.24.38.35.8.35,1.26s-.11.86-.34,1.24c-.23.38-.54.68-.94.89-.4.21-.85.32-1.35.32s-.94-.11-1.35-.32-.72-.51-.95-.88-.34-.79-.34-1.24.11-.85.34-1.23c.23-.39.54-.68.93-.9s.85-.32,1.37-.32ZM607.19,198.8c0,.32.07.6.22.85s.34.45.6.59c.26.14.55.21.87.21.49,0,.89-.15,1.21-.46s.47-.7.47-1.19c0-.32-.07-.6-.21-.86s-.34-.45-.6-.59c-.26-.14-.55-.21-.87-.21s-.62.07-.87.21c-.26.14-.46.34-.6.59-.14.25-.21.54-.21.86Z"/><path class="cls-3" d="M614.79,196.41c.45,0,.81.12,1.1.37.28.25.42.57.42.97,0,.27-.07.51-.21.71-.14.2-.35.36-.62.48.15.08.29.19.41.34.12.14.27.38.44.71.29.58.51.98.65,1.2h-1.03c-.07-.1-.17-.27-.29-.5-.26-.51-.46-.85-.58-1.03s-.24-.3-.36-.38c-.11-.07-.25-.11-.39-.11h-.33v2.02h-.92v-4.78h1.72ZM614.59,198.45c.24,0,.43-.06.57-.18.14-.12.21-.29.21-.5s-.07-.38-.21-.49-.33-.16-.58-.16h-.57v1.33h.59Z"/><path class="cls-3" d="M619.03,196.41v2.78c0,.29.04.51.13.68.09.17.22.31.42.42.19.11.42.16.68.16.28,0,.52-.05.72-.16.2-.1.34-.25.43-.42.09-.18.14-.43.14-.74v-2.72h.92v2.84c0,.64-.19,1.14-.58,1.48-.39.34-.93.52-1.63.52-.44,0-.83-.08-1.15-.24-.32-.16-.57-.38-.74-.68-.17-.3-.26-.65-.26-1.05v-2.87h.93Z"/><path class="cls-3" d="M625.57,196.35c.46,0,.91.12,1.34.35v.82c-.49-.3-.93-.45-1.32-.45-.23,0-.41.04-.55.13-.13.09-.2.21-.2.36,0,.18.12.35.37.5.07.05.33.17.79.38.39.19.67.39.85.62.17.23.26.5.26.81,0,.41-.15.74-.44.99s-.68.38-1.15.38c-.31,0-.57-.03-.79-.1s-.47-.18-.74-.35v-.91c.51.42.99.63,1.44.63.23,0,.41-.05.55-.15.14-.1.21-.23.21-.39,0-.22-.12-.4-.36-.54-.2-.11-.46-.24-.78-.39-.38-.17-.66-.37-.84-.6-.19-.23-.28-.49-.28-.79,0-.4.15-.72.45-.96.3-.24.69-.36,1.18-.36Z"/><path class="cls-3" d="M630.01,196.35c.46,0,.91.12,1.34.35v.82c-.5-.3-.93-.45-1.32-.45-.23,0-.41.04-.54.13s-.2.21-.2.36c0,.18.12.35.37.5.07.05.33.17.79.38.39.19.67.39.85.62.17.23.26.5.26.81,0,.41-.15.74-.44.99-.3.25-.68.38-1.15.38-.3,0-.57-.03-.79-.1-.22-.07-.47-.18-.74-.35v-.91c.51.42.99.63,1.44.63.23,0,.41-.05.55-.15.14-.1.21-.23.21-.39,0-.22-.12-.4-.36-.54-.2-.11-.46-.24-.78-.39-.38-.17-.66-.37-.84-.6s-.28-.49-.28-.79c0-.4.15-.72.45-.96.3-.24.69-.36,1.18-.36Z"/><path class="cls-3" d="M634.01,196.41v4.78h-.92v-4.78h.92Z"/><path class="cls-3" d="M638.87,196.41v.72h-2.16v1.25h2.07v.72h-2.07v1.36h2.21v.72h-3.13v-4.78h3.09Z"/><path class="cls-3" d="M590.03,194.36c.62,0,1.13.16,1.53.49.39.33.59.73.59,1.22,0,.31-.08.59-.25.83-.16.24-.4.43-.71.57v.06c.47.11.85.32,1.11.64.27.32.4.69.4,1.12,0,.38-.1.72-.29,1.01-.19.3-.46.52-.81.67-.34.15-.75.22-1.21.22h-2.86v-6.82h2.5ZM589.68,197.2c.35,0,.62-.08.83-.25.2-.17.3-.4.3-.69,0-.26-.09-.47-.28-.63-.19-.16-.43-.23-.73-.23h-.95v1.8h.83ZM589.99,200.15c.45,0,.78-.08,1.01-.25.23-.17.34-.42.34-.74,0-.29-.11-.52-.34-.69-.23-.17-.53-.25-.91-.25h-1.24v1.93h1.14Z"/><path class="cls-3" d="M595.53,196.41v4.78h-.92v-4.78h.92Z"/><path class="cls-3" d="M600.39,196.41v.72h-2.16v1.25h2.07v.72h-2.07v1.36h2.21v.72h-3.13v-4.78h3.09ZM599.96,194.91l-1.29,1.18h-.52l.65-1.18h1.16Z"/><path class="cls-3" d="M602.92,196.41v4.05h2.32v.72h-3.24v-4.78h.92Z"/><path class="cls-3" d="M608.88,196.35c.49,0,.94.1,1.33.31.39.2.71.5.94.88.24.38.35.8.35,1.26s-.11.86-.34,1.24c-.23.38-.54.68-.94.89-.4.21-.85.32-1.35.32s-.94-.11-1.35-.32-.72-.51-.95-.88-.34-.79-.34-1.24.11-.85.34-1.23c.23-.39.54-.68.93-.9s.85-.32,1.37-.32ZM607.19,198.8c0,.32.07.6.22.85s.34.45.6.59c.26.14.55.21.87.21.49,0,.89-.15,1.21-.46s.47-.7.47-1.19c0-.32-.07-.6-.21-.86s-.34-.45-.6-.59c-.26-.14-.55-.21-.87-.21s-.62.07-.87.21c-.26.14-.46.34-.6.59-.14.25-.21.54-.21.86Z"/><path class="cls-3" d="M614.79,196.41c.45,0,.81.12,1.1.37.28.25.42.57.42.97,0,.27-.07.51-.21.71-.14.2-.35.36-.62.48.15.08.29.19.41.34.12.14.27.38.44.71.29.58.51.98.65,1.2h-1.03c-.07-.1-.17-.27-.29-.5-.26-.51-.46-.85-.58-1.03s-.24-.3-.36-.38c-.11-.07-.25-.11-.39-.11h-.33v2.02h-.92v-4.78h1.72ZM614.59,198.45c.24,0,.43-.06.57-.18.14-.12.21-.29.21-.5s-.07-.38-.21-.49-.33-.16-.58-.16h-.57v1.33h.59Z"/><path class="cls-3" d="M619.03,196.41v2.78c0,.29.04.51.13.68.09.17.22.31.42.42.19.11.42.16.68.16.28,0,.52-.05.72-.16.2-.1.34-.25.43-.42.09-.18.14-.43.14-.74v-2.72h.92v2.84c0,.64-.19,1.14-.58,1.48-.39.34-.93.52-1.63.52-.44,0-.83-.08-1.15-.24-.32-.16-.57-.38-.74-.68-.17-.3-.26-.65-.26-1.05v-2.87h.93Z"/><path class="cls-3" d="M625.57,196.35c.46,0,.91.12,1.34.35v.82c-.49-.3-.93-.45-1.32-.45-.23,0-.41.04-.55.13-.13.09-.2.21-.2.36,0,.18.12.35.37.5.07.05.33.17.79.38.39.19.67.39.85.62.17.23.26.5.26.81,0,.41-.15.74-.44.99s-.68.38-1.15.38c-.31,0-.57-.03-.79-.1s-.47-.18-.74-.35v-.91c.51.42.99.63,1.44.63.23,0,.41-.05.55-.15.14-.1.21-.23.21-.39,0-.22-.12-.4-.36-.54-.2-.11-.46-.24-.78-.39-.38-.17-.66-.37-.84-.6-.19-.23-.28-.49-.28-.79,0-.4.15-.72.45-.96.3-.24.69-.36,1.18-.36Z"/><path class="cls-3" d="M630.01,196.35c.46,0,.91.12,1.34.35v.82c-.5-.3-.93-.45-1.32-.45-.23,0-.41.04-.54.13s-.2.21-.2.36c0,.18.12.35.37.5.07.05.33.17.79.38.39.19.67.39.85.62.17.23.26.5.26.81,0,.41-.15.74-.44.99-.3.25-.68.38-1.15.38-.3,0-.57-.03-.79-.1-.22-.07-.47-.18-.74-.35v-.91c.51.42.99.63,1.44.63.23,0,.41-.05.55-.15.14-.1.21-.23.21-.39,0-.22-.12-.4-.36-.54-.2-.11-.46-.24-.78-.39-.38-.17-.66-.37-.84-.6s-.28-.49-.28-.79c0-.4.15-.72.45-.96.3-.24.69-.36,1.18-.36Z"/><path class="cls-3" d="M634.01,196.41v4.78h-.92v-4.78h.92Z"/><path class="cls-3" d="M638.87,196.41v.72h-2.16v1.25h2.07v.72h-2.07v1.36h2.21v.72h-3.13v-4.78h3.09Z"/></g></svg>