<?xml version="1.0" encoding="UTF-8"?><svg id="Calque_2" xmlns="http://www.w3.org/2000/svg" viewBox="0 0 841.71 594.2"><defs><style>.cls-1{fill:none;stroke:#476d89;stroke-width:2px;}.cls-2{fill:#fff;}</style></defs><g id="Nom_de_Pays"><path class="cls-1" d="M451.83,91.38c.8,0,1.56.2,2.3.6v1.41c-.85-.51-1.6-.77-2.26-.77-.4,0-.71.08-.94.23-.22.15-.34.36-.34.62,0,.31.21.59.63.86.12.08.57.3,1.35.66.67.32,1.16.67,1.45,1.05.3.39.45.85.45,1.39,0,.7-.25,1.27-.76,1.7-.51.43-1.16.65-1.97.65-.52,0-.97-.06-1.35-.17-.38-.11-.8-.31-1.27-.59v-1.56c.87.73,1.7,1.09,2.47,1.09.39,0,.7-.08.94-.25.24-.17.36-.39.36-.67,0-.38-.21-.69-.62-.93-.34-.19-.79-.41-1.33-.67-.64-.29-1.13-.64-1.44-1.03-.32-.39-.48-.84-.48-1.36,0-.69.26-1.24.77-1.64.51-.41,1.19-.61,2.03-.61Z"/><path class="cls-1" d="M456.67,93.94v3.34c0,.34.05.61.15.82.1.2.27.37.5.5.23.13.5.2.81.2.34,0,.63-.06.86-.19.24-.12.41-.29.52-.51.11-.21.16-.51.16-.89v-3.26h1.11v3.41c0,.77-.23,1.36-.69,1.78-.46.41-1.12.62-1.96.62-.53,0-.99-.09-1.38-.28-.39-.19-.69-.46-.89-.82-.21-.36-.31-.78-.31-1.26v-3.45h1.11Z"/><path class="cls-1" d="M465.71,93.94v.87h-2.6v1.51h2.49v.86h-2.49v1.63h2.65v.86h-3.76v-5.73h3.7ZM463.88,92.13l.78,1.41h-.62l-1.55-1.41h1.39Z"/><path class="cls-1" d="M469.2,93.94c.6,0,1.13.12,1.59.37.47.24.83.58,1.08,1.03.26.44.39.94.39,1.48s-.13,1.06-.39,1.49c-.26.43-.63.77-1.1,1.01-.48.24-1.02.36-1.64.36h-2.33v-5.73h2.4ZM469.09,98.8c.61,0,1.1-.18,1.48-.55.37-.37.56-.85.56-1.45s-.19-1.11-.56-1.46c-.37-.36-.88-.54-1.51-.54h-1.14v4h1.18Z"/><path class="cls-1" d="M477,93.94v.87h-2.6v1.51h2.49v.86h-2.49v1.63h2.65v.86h-3.76v-5.73h3.7Z"/><path class="cls-2" d="M451.83,91.38c.8,0,1.56.2,2.3.6v1.41c-.85-.51-1.6-.77-2.26-.77-.4,0-.71.08-.94.23-.22.15-.34.36-.34.62,0,.31.21.59.63.86.12.08.57.3,1.35.66.67.32,1.16.67,1.45,1.05.3.39.45.85.45,1.39,0,.7-.25,1.27-.76,1.7-.51.43-1.16.65-1.97.65-.52,0-.97-.06-1.35-.17-.38-.11-.8-.31-1.27-.59v-1.56c.87.73,1.7,1.09,2.47,1.09.39,0,.7-.08.94-.25.24-.17.36-.39.36-.67,0-.38-.21-.69-.62-.93-.34-.19-.79-.41-1.33-.67-.64-.29-1.13-.64-1.44-1.03-.32-.39-.48-.84-.48-1.36,0-.69.26-1.24.77-1.64.51-.41,1.19-.61,2.03-.61Z"/><path class="cls-2" d="M456.67,93.94v3.34c0,.34.05.61.15.82.1.2.27.37.5.5.23.13.5.2.81.2.34,0,.63-.06.86-.19.24-.12.41-.29.52-.51.11-.21.16-.51.16-.89v-3.26h1.11v3.41c0,.77-.23,1.36-.69,1.78-.46.41-1.12.62-1.96.62-.53,0-.99-.09-1.38-.28-.39-.19-.69-.46-.89-.82-.21-.36-.31-.78-.31-1.26v-3.45h1.11Z"/><path class="cls-2" d="M465.71,93.94v.87h-2.6v1.51h2.49v.86h-2.49v1.63h2.65v.86h-3.76v-5.73h3.7ZM463.88,92.13l.78,1.41h-.62l-1.55-1.41h1.39Z"/><path class="cls-2" d="M469.2,93.94c.6,0,1.13.12,1.59.37.47.24.83.58,1.08,1.03.26.44.39.94.39,1.48s-.13,1.06-.39,1.49c-.26.43-.63.77-1.1,1.01-.48.24-1.02.36-1.64.36h-2.33v-5.73h2.4ZM469.09,98.8c.61,0,1.1-.18,1.48-.55.37-.37.56-.85.56-1.45s-.19-1.11-.56-1.46c-.37-.36-.88-.54-1.51-.54h-1.14v4h1.18Z"/><path class="cls-2" d="M477,93.94v.87h-2.6v1.51h2.49v.86h-2.49v1.63h2.65v.86h-3.76v-5.73h3.7Z"/><path class="cls-1" d="M556.76,75.4v1.24h-3.41v2.12h3.41v1.25h-3.41v3.59h-1.58v-8.19h4.99Z"/><path class="cls-1" d="M559.06,77.86v5.73h-1.11v-5.73h1.11Z"/><path class="cls-1" d="M561.32,77.86l3.4,4v-4h1.08v5.73h-.95l-3.43-4.06v4.06h-1.08v-5.73h.97Z"/><path class="cls-1" d="M568.17,77.86v4.87h2.78v.86h-3.89v-5.73h1.11Z"/><path class="cls-1" d="M574.62,77.86l2.53,5.73h-1.17l-.6-1.39h-2.55l-.55,1.39h-1.16l2.36-5.73h1.13ZM573.17,81.35h1.85l-.97-2.27-.88,2.27Z"/><path class="cls-1" d="M578.79,77.86l3.4,4v-4h1.08v5.73h-.95l-3.43-4.06v4.06h-1.08v-5.73h.97Z"/><path class="cls-1" d="M586.94,77.86c.6,0,1.13.12,1.59.37.46.24.82.58,1.08,1.03.26.44.39.94.39,1.48s-.13,1.06-.39,1.49c-.26.43-.63.77-1.1,1.01-.48.24-1.02.36-1.64.36h-2.33v-5.73h2.4ZM586.82,82.73c.61,0,1.1-.18,1.47-.55s.56-.85.56-1.45-.19-1.11-.56-1.46c-.37-.36-.88-.54-1.51-.54h-1.14v4h1.18Z"/><path class="cls-1" d="M594.74,77.86v.87h-2.6v1.51h2.49v.86h-2.49v1.63h2.65v.86h-3.76v-5.73h3.7Z"/><path class="cls-2" d="M556.76,75.4v1.24h-3.41v2.12h3.41v1.25h-3.41v3.59h-1.58v-8.19h4.99Z"/><path class="cls-2" d="M559.06,77.86v5.73h-1.11v-5.73h1.11Z"/><path class="cls-2" d="M561.32,77.86l3.4,4v-4h1.08v5.73h-.95l-3.43-4.06v4.06h-1.08v-5.73h.97Z"/><path class="cls-2" d="M568.17,77.86v4.87h2.78v.86h-3.89v-5.73h1.11Z"/><path class="cls-2" d="M574.62,77.86l2.53,5.73h-1.17l-.6-1.39h-2.55l-.55,1.39h-1.16l2.36-5.73h1.13ZM573.17,81.35h1.85l-.97-2.27-.88,2.27Z"/><path class="cls-2" d="M578.79,77.86l3.4,4v-4h1.08v5.73h-.95l-3.43-4.06v4.06h-1.08v-5.73h.97Z"/><path class="cls-2" d="M586.94,77.86c.6,0,1.13.12,1.59.37.46.24.82.58,1.08,1.03.26.44.39.94.39,1.48s-.13,1.06-.39,1.49c-.26.43-.63.77-1.1,1.01-.48.24-1.02.36-1.64.36h-2.33v-5.73h2.4ZM586.82,82.73c.61,0,1.1-.18,1.47-.55s.56-.85.56-1.45-.19-1.11-.56-1.46c-.37-.36-.88-.54-1.51-.54h-1.14v4h1.18Z"/><path class="cls-2" d="M594.74,77.86v.87h-2.6v1.51h2.49v.86h-2.49v1.63h2.65v.86h-3.76v-5.73h3.7Z"/></g></svg>