<?xml version="1.0" encoding="UTF-8"?><svg id="Calque_2" xmlns="http://www.w3.org/2000/svg" viewBox="0 0 841.81 594.3"><defs><style>.cls-1{fill:none;opacity:0;stroke:#c16868;stroke-miterlimit:10;stroke-width:.1px;}</style></defs><g id="Ligne_de_front"><rect id="Cadre" class="cls-1" x=".05" y=".05" width="841.71" height="594.2"/></g><g id="Ville"><path d="M410.51,384.34l3.24,3.81v-3.81h1.03v5.46h-.91l-3.26-3.87v3.87h-1.03v-5.46h.93Z"/><path d="M417.18,386.07c.47,0,.83.1,1.07.3s.37.48.37.83v1.79c0,.14.06.21.17.21.05,0,.11-.02.2-.06s.16-.09.21-.14v.55c-.34.21-.64.31-.92.31-.17,0-.3-.03-.4-.09s-.16-.16-.19-.3c-.37.26-.74.39-1.11.39-.26,0-.49-.09-.68-.27s-.28-.39-.28-.64c0-.32.09-.56.28-.75s.52-.34.98-.48l.78-.23v-.17c0-.36-.22-.54-.65-.54-.22,0-.44.05-.66.15s-.42.25-.6.45v-.86c.4-.32.87-.47,1.42-.47ZM416.59,388.82c0,.13.04.24.13.32s.19.12.31.12c.21,0,.42-.1.63-.29v-.96c-.27.09-.48.18-.63.26s-.26.16-.34.25-.11.18-.11.3Z"/><path d="M421.61,386.07c.52,0,.94.17,1.26.52.32.35.48.8.48,1.36,0,.37-.08.7-.22.98-.15.29-.36.51-.64.68-.28.16-.59.24-.94.24-.28,0-.57-.07-.86-.21v1.98h-.96v-5.49h.95v.23c.29-.2.6-.3.93-.3ZM420.69,388.94c.24.14.46.21.67.21.3,0,.54-.11.73-.32.18-.22.27-.5.27-.84,0-.37-.08-.66-.24-.88-.16-.21-.39-.32-.69-.32-.11,0-.22.02-.32.06-.1.04-.24.12-.41.24v1.85Z"/><path d="M425.1,384.34v5.46h-.96v-5.46h.96Z"/><path d="M427.73,386.07c.54,0,.96.17,1.27.52s.47.82.47,1.43v.14h-2.58c.04.33.16.58.37.75.2.18.49.26.84.26.23,0,.45-.04.66-.12s.43-.2.66-.36v.71c-.43.3-.95.45-1.55.45-.58,0-1.05-.17-1.41-.52-.37-.35-.55-.81-.55-1.38s.17-1.01.51-1.36c.34-.35.78-.53,1.32-.53ZM428.57,387.58c-.03-.27-.11-.47-.24-.62s-.32-.22-.56-.22-.44.07-.58.21c-.15.14-.24.35-.28.63h1.66Z"/><path d="M431.41,386.07c.2,0,.39.02.57.07s.36.12.56.22v.77c-.18-.12-.38-.21-.59-.28s-.39-.11-.56-.11c-.14,0-.25.03-.32.08s-.12.13-.12.22c0,.05.03.11.1.16s.24.16.54.3c.42.21.71.41.88.58s.25.39.25.64c0,.35-.12.63-.37.83s-.58.3-.99.3c-.26,0-.5-.03-.73-.09s-.41-.13-.56-.21v-.8c.47.26.86.39,1.18.39.16,0,.3-.03.4-.09s.15-.14.15-.23c0-.06-.02-.11-.05-.16s-.09-.09-.16-.14-.3-.17-.68-.36c-.29-.14-.51-.29-.65-.46s-.21-.36-.21-.59c0-.32.13-.58.38-.77s.58-.29,1-.29Z"/><path d="M337.55,239.64c.5,0,.91.13,1.22.39s.47.59.47.98c0,.25-.07.47-.2.66s-.32.34-.57.45v.05c.38.09.68.26.89.51s.32.55.32.89c0,.3-.08.57-.23.81s-.37.42-.64.54-.6.18-.97.18h-2.29v-5.46h2ZM337.27,241.91c.28,0,.5-.07.66-.2s.24-.32.24-.55c0-.21-.07-.38-.22-.5s-.34-.19-.59-.19h-.76v1.44h.66ZM337.52,244.27c.36,0,.63-.07.81-.2s.27-.33.27-.59c0-.23-.09-.42-.27-.55s-.42-.2-.73-.2h-.99v1.54h.91Z"/><path d="M342.54,241.38c.13,0,.25.03.38.09s.27.15.43.29l-.34.84c-.28-.21-.5-.31-.67-.31-.15,0-.29.06-.44.17s-.26.26-.35.44-.13.36-.13.55v1.66h-.96v-3.65h.96v.93h.02c.17-.35.35-.61.53-.76s.37-.24.58-.24Z"/><path d="M344.72,241.45v2.26c0,.24.06.42.18.54s.28.19.47.19c.16,0,.32-.05.46-.15s.27-.24.36-.42v-2.42h.96v3.65h-.96v-.5c-.35.38-.72.57-1.12.57s-.71-.13-.95-.38-.36-.59-.36-1v-2.34h.96Z"/><path d="M350.23,241.38c.39,0,.7.13.94.38s.35.59.35,1.01v2.32h-.96v-2.22c0-.24-.06-.42-.17-.56s-.27-.21-.46-.21c-.15,0-.29.04-.42.13s-.27.23-.43.44v2.43h-.96v-3.65h.96v.51c.18-.21.36-.36.54-.45s.39-.13.61-.13Z"/><path d="M353.63,241.38c.2,0,.39.02.57.07s.36.12.56.22v.77c-.18-.12-.38-.21-.59-.28s-.39-.11-.56-.11c-.14,0-.25.03-.32.08s-.12.13-.12.22c0,.05.03.11.1.16s.24.16.54.3c.42.21.71.41.88.58s.25.39.25.64c0,.35-.12.63-.37.83s-.58.3-.99.3c-.26,0-.5-.03-.73-.09s-.41-.13-.56-.21v-.8c.47.26.86.39,1.18.39.16,0,.3-.03.4-.09s.15-.14.15-.23c0-.06-.02-.11-.05-.16s-.09-.09-.16-.14-.3-.17-.68-.36c-.29-.14-.51-.29-.65-.46s-.21-.36-.21-.59c0-.32.13-.58.38-.77s.58-.29,1-.29Z"/><path d="M356.86,241.38c.2,0,.39.02.57.07s.36.12.56.22v.77c-.18-.12-.38-.21-.59-.28s-.39-.11-.56-.11c-.14,0-.25.03-.32.08s-.12.13-.12.22c0,.05.03.11.1.16s.24.16.54.3c.42.21.71.41.88.58s.25.39.25.64c0,.35-.12.63-.37.83s-.58.3-.99.3c-.26,0-.5-.03-.73-.09s-.41-.13-.56-.21v-.8c.47.26.86.39,1.18.39.16,0,.3-.03.4-.09s.15-.14.15-.23c0-.06-.02-.11-.05-.16s-.09-.09-.16-.14-.3-.17-.68-.36c-.29-.14-.51-.29-.65-.46s-.21-.36-.21-.59c0-.32.13-.58.38-.77s.58-.29,1-.29Z"/><path d="M359.83,241.45v2.26c0,.24.06.42.18.54s.28.19.47.19c.16,0,.32-.05.46-.15s.27-.24.36-.42v-2.42h.96v3.65h-.96v-.5c-.35.38-.72.57-1.12.57s-.71-.13-.95-.38-.36-.59-.36-1v-2.34h.96Z"/><path d="M365.34,241.38c.28,0,.52.07.71.2s.34.31.44.53c.21-.25.41-.44.62-.55s.43-.17.67-.17c.39,0,.7.13.93.38s.36.59.36,1.01v2.34h-.96v-2.18c0-.25-.05-.45-.16-.6s-.26-.22-.47-.22c-.29,0-.58.19-.85.57v2.43h-.96v-2.19c0-.25-.06-.45-.17-.59s-.27-.21-.46-.21c-.16,0-.3.04-.43.13s-.27.23-.42.43v2.43h-.96v-3.65h.96v.51c.17-.2.35-.34.53-.44s.39-.14.62-.14Z"/><path d="M281.76,227.47c.5,0,.91.13,1.22.39s.47.59.47.98c0,.25-.07.47-.2.66s-.32.34-.57.45v.05c.38.09.68.26.89.51s.32.55.32.89c0,.3-.08.57-.23.81s-.37.42-.64.54-.6.18-.97.18h-2.29v-5.46h2ZM281.48,229.74c.28,0,.5-.07.66-.2s.24-.32.24-.55c0-.21-.07-.38-.22-.5s-.34-.19-.59-.19h-.76v1.44h.66ZM281.72,232.1c.36,0,.63-.07.81-.2s.27-.33.27-.59c0-.23-.09-.42-.27-.55s-.42-.2-.73-.2h-.99v1.54h.91Z"/><path d="M286.75,229.21c.13,0,.25.03.38.09s.27.15.43.29l-.34.84c-.28-.21-.5-.31-.67-.31-.15,0-.29.06-.44.17s-.26.26-.35.44-.13.36-.13.55v1.66h-.96v-3.65h.96v.93h.02c.17-.35.35-.61.53-.76s.37-.24.58-.24Z"/><path d="M288.93,229.28v2.26c0,.24.06.42.18.54s.28.19.47.19c.16,0,.32-.05.46-.15s.27-.24.36-.42v-2.42h.96v3.65h-.96v-.5c-.35.38-.72.57-1.12.57s-.71-.13-.95-.38-.36-.59-.36-1v-2.34h.96Z"/><path d="M293.01,229.28l.91,1.14.88-1.14h1.15l-1.46,1.79,1.57,1.86h-1.15l-.98-1.21-.94,1.21h-1.12l1.51-1.86-1.51-1.79h1.15Z"/><path d="M298.19,229.21c.54,0,.96.17,1.27.52s.47.82.47,1.43v.14h-2.58c.04.33.16.58.37.75.2.18.49.26.84.26.23,0,.45-.04.66-.12s.43-.2.66-.36v.71c-.43.3-.95.45-1.55.45-.58,0-1.05-.17-1.41-.52s-.55-.81-.55-1.38.17-1.01.51-1.36.78-.53,1.32-.53ZM299.03,230.71c-.03-.27-.11-.47-.24-.62s-.32-.22-.56-.22-.44.07-.58.21c-.15.14-.24.35-.28.63h1.66Z"/><path d="M301.68,227.47v5.46h-.96v-5.46h.96Z"/><path d="M303.66,227.47v5.46h-.96v-5.46h.96Z"/><path d="M306.29,229.21c.54,0,.96.17,1.27.52s.47.82.47,1.43v.14h-2.58c.04.33.16.58.37.75s.49.26.84.26c.23,0,.45-.04.66-.12s.43-.2.66-.36v.71c-.43.3-.95.45-1.55.45-.58,0-1.05-.17-1.41-.52s-.55-.81-.55-1.38.17-1.01.51-1.36.78-.53,1.32-.53ZM307.13,230.71c-.03-.27-.11-.47-.24-.62s-.32-.22-.56-.22-.44.07-.58.21-.24.35-.28.63h1.66Z"/><path d="M309.97,229.21c.2,0,.39.02.57.07s.36.12.56.22v.77c-.18-.12-.38-.21-.59-.28s-.39-.11-.56-.11c-.14,0-.25.03-.32.08s-.12.13-.12.22c0,.05.03.11.1.16s.24.16.54.3c.42.21.71.41.88.58s.25.39.25.64c0,.35-.12.63-.37.83s-.58.3-.99.3c-.26,0-.5-.03-.73-.09s-.41-.13-.56-.21v-.8c.47.26.86.39,1.18.39.16,0,.3-.03.4-.09s.15-.14.15-.23c0-.06-.02-.11-.05-.16s-.09-.09-.16-.14-.3-.17-.68-.36c-.29-.14-.51-.29-.65-.46s-.21-.36-.21-.59c0-.32.13-.58.38-.77s.58-.29,1-.29Z"/><path d="M347.83,226.19c.51,0,.93.14,1.25.43s.48.65.48,1.11c0,.31-.08.58-.24.81s-.4.41-.71.54c.17.09.33.22.46.38s.3.43.5.82c.33.66.58,1.12.74,1.37h-1.18c-.08-.12-.19-.31-.33-.57-.3-.58-.52-.97-.66-1.17s-.28-.34-.41-.43-.28-.13-.45-.13h-.38v2.3h-1.05v-5.46h1.96ZM347.6,228.51c.28,0,.49-.07.65-.21s.24-.33.24-.57-.08-.44-.23-.56-.38-.19-.67-.19h-.66v1.52h.67Z"/><path d="M352.21,227.92c.47,0,.83.1,1.07.3s.37.48.37.83v1.79c0,.14.06.21.17.21.05,0,.11-.02.2-.06s.16-.09.21-.14v.55c-.34.21-.64.31-.92.31-.17,0-.3-.03-.4-.09s-.16-.16-.19-.3c-.37.26-.74.39-1.11.39-.26,0-.49-.09-.68-.27s-.28-.39-.28-.64c0-.32.09-.56.28-.75s.52-.34.98-.48l.78-.23v-.17c0-.36-.22-.54-.65-.54-.22,0-.44.05-.66.15s-.42.25-.6.45v-.86c.4-.32.87-.47,1.42-.47ZM351.63,230.67c0,.13.04.24.13.32s.19.12.31.12c.21,0,.42-.1.63-.29v-.96c-.27.09-.48.18-.63.26s-.26.16-.34.25-.11.18-.11.3Z"/><path d="M356.88,227.92c.28,0,.52.07.71.2s.34.31.44.53c.21-.25.41-.44.62-.55s.43-.17.67-.17c.39,0,.7.13.93.38s.36.59.36,1.01v2.34h-.96v-2.18c0-.25-.05-.45-.16-.6s-.27-.22-.47-.22c-.29,0-.58.19-.85.57v2.43h-.96v-2.19c0-.25-.06-.45-.17-.59s-.27-.21-.46-.21c-.16,0-.3.04-.43.13s-.27.23-.42.43v2.43h-.96v-3.65h.96v.51c.17-.2.35-.34.53-.44s.39-.14.62-.14Z"/><path d="M362.72,227.92c.2,0,.39.02.57.07s.36.12.56.22v.77c-.18-.12-.38-.21-.59-.28s-.39-.11-.56-.11c-.14,0-.25.03-.32.08s-.12.13-.12.22c0,.05.03.11.1.16s.24.16.54.3c.42.21.71.41.88.58s.25.39.25.64c0,.35-.12.63-.37.83-.24.2-.58.3-.99.3-.26,0-.5-.03-.73-.09s-.41-.13-.56-.21v-.8c.47.26.86.39,1.18.39.16,0,.3-.03.4-.09s.15-.14.15-.23c0-.06-.02-.11-.05-.16s-.09-.09-.16-.14-.3-.17-.68-.36c-.29-.14-.51-.29-.65-.46s-.21-.36-.21-.59c0-.32.13-.58.38-.77s.58-.29,1-.29Z"/><path d="M365.76,227.03h.08v.97h1.25v.73h-1.25v1.68c0,.16.05.3.15.4s.23.15.41.15c.22,0,.48-.08.77-.24v.77c-.35.15-.67.23-.98.23-.41,0-.73-.11-.96-.34s-.35-.53-.35-.91v-1.75h-.57v-.16l1.45-1.54Z"/><path d="M369.35,227.92c.54,0,.96.17,1.27.52s.47.82.47,1.43v.14h-2.58c.04.33.16.58.37.75s.49.26.84.26c.23,0,.45-.04.66-.12s.43-.2.66-.36v.71c-.43.3-.95.45-1.55.45-.58,0-1.05-.17-1.41-.52s-.55-.81-.55-1.38.17-1.01.51-1.36.78-.53,1.32-.53ZM370.19,229.43c-.03-.27-.11-.47-.24-.62s-.32-.22-.56-.22-.44.07-.58.21-.24.35-.28.63h1.66Z"/><path d="M372.36,226.31c.15,0,.28.05.38.16s.16.23.16.38-.05.27-.16.38-.23.17-.38.17-.27-.06-.38-.17-.16-.24-.16-.38c0-.15.05-.28.16-.38s.24-.16.38-.16ZM372.84,227.99v3.65h-.96v-3.65h.96Z"/><path d="M375.94,227.92c.39,0,.7.13.94.38s.35.59.35,1.01v2.32h-.96v-2.22c0-.24-.06-.42-.17-.56s-.27-.21-.46-.21c-.15,0-.29.04-.42.13s-.27.23-.43.44v2.43h-.96v-3.65h.96v.51c.18-.21.36-.36.54-.45s.39-.13.61-.13Z"/><path d="M94.12,447.46c.51,0,.93.14,1.25.43s.48.65.48,1.11c0,.31-.08.58-.24.81s-.4.41-.71.54c.17.09.33.22.46.38s.3.43.5.82c.33.66.58,1.12.74,1.37h-1.18c-.08-.12-.19-.31-.33-.57-.3-.58-.52-.97-.66-1.17s-.28-.34-.41-.43-.28-.13-.45-.13h-.38v2.3h-1.05v-5.46h1.96ZM93.88,449.79c.28,0,.49-.07.65-.21s.24-.33.24-.57-.08-.44-.23-.56-.38-.19-.67-.19h-.66v1.52h.67Z"/><path d="M98.83,449.2c.38,0,.73.08,1.04.24s.55.38.72.67.25.61.25.97-.08.71-.24.99-.4.51-.72.67-.66.25-1.04.25-.73-.08-1.04-.25-.55-.39-.71-.67-.24-.61-.24-.99.09-.69.26-.98.41-.51.72-.66.65-.24,1.02-.24ZM97.84,451.08c0,.36.09.66.27.87s.42.33.72.33.56-.1.74-.31.27-.51.27-.89-.09-.66-.27-.86-.43-.3-.74-.3c-.29,0-.53.11-.71.32s-.27.5-.27.85Z"/><path d="M102.61,448.3h.08v.97h1.25v.73h-1.25v1.68c0,.16.05.3.15.4s.23.15.41.15c.22,0,.48-.08.77-.24v.77c-.35.15-.67.23-.98.23-.41,0-.73-.11-.96-.34s-.35-.53-.35-.91v-1.75h-.57v-.16l1.45-1.54Z"/><path d="M105.87,449.2c.47,0,.83.1,1.07.3s.37.48.37.83v1.79c0,.14.06.21.17.21.05,0,.11-.02.2-.06s.16-.09.21-.14v.55c-.34.21-.64.31-.92.31-.17,0-.3-.03-.4-.09s-.16-.16-.19-.3c-.37.26-.74.39-1.11.39-.26,0-.49-.09-.68-.27s-.28-.39-.28-.64c0-.32.09-.56.28-.75s.52-.34.98-.48l.78-.23v-.17c0-.36-.22-.54-.65-.54-.22,0-.44.05-.66.15s-.42.25-.6.45v-.86c.4-.32.87-.47,1.42-.47ZM105.29,451.94c0,.13.04.24.13.32s.19.12.31.12c.21,0,.42-.1.63-.29v-.96c-.27.09-.48.18-.63.26s-.26.16-.34.25-.11.18-.11.3Z"/><path d="M568.14,343.91c.57,0,1.07.12,1.52.35.44.23.79.56,1.03.98.25.42.37.89.37,1.41s-.12,1.01-.37,1.42-.6.73-1.05.96-.97.34-1.56.34h-2.22v-5.46h2.29ZM568.03,348.54c.58,0,1.05-.17,1.4-.53.35-.35.53-.81.53-1.38s-.18-1.05-.53-1.39-.83-.51-1.44-.51h-1.09v3.81h1.12Z"/><path d="M573.55,345.65c.54,0,.96.17,1.27.52s.47.82.47,1.43v.14h-2.58c.04.33.16.58.37.75.21.18.49.26.84.26.23,0,.45-.04.66-.12.21-.08.43-.2.66-.36v.71c-.43.3-.95.45-1.55.45-.58,0-1.04-.17-1.41-.52-.36-.35-.55-.81-.55-1.38s.17-1.01.51-1.36c.34-.35.78-.53,1.32-.53ZM574.39,347.15c-.03-.27-.11-.47-.24-.62-.13-.15-.32-.22-.56-.22s-.44.07-.58.21c-.15.14-.24.35-.28.63h1.66Z"/><path d="M576.61,345.72l.88,2.11.86-2.11h1.02l-1.65,3.72h-.46l-1.67-3.72h1.03Z"/><path d="M581.49,345.65c.54,0,.96.17,1.27.52s.47.82.47,1.43v.14h-2.58c.04.33.16.58.37.75.21.18.49.26.84.26.23,0,.45-.04.66-.12.21-.08.43-.2.66-.36v.71c-.43.3-.95.45-1.55.45-.58,0-1.04-.17-1.41-.52-.36-.35-.55-.81-.55-1.38s.17-1.01.51-1.36c.34-.35.78-.53,1.32-.53ZM582.33,347.15c-.03-.27-.11-.47-.24-.62-.13-.15-.32-.22-.56-.22s-.44.07-.58.21c-.15.14-.24.35-.28.63h1.66Z"/><path d="M585.17,345.65c.2,0,.39.02.57.07s.36.12.56.22v.77c-.18-.12-.38-.21-.59-.28s-.39-.11-.56-.11c-.14,0-.25.03-.32.08s-.12.13-.12.22c0,.05.03.11.1.16s.24.16.54.3c.42.21.71.41.88.58s.25.39.25.64c0,.35-.12.63-.37.83s-.58.3-.99.3c-.26,0-.5-.03-.73-.09s-.41-.13-.56-.21v-.8c.47.26.86.39,1.18.39.16,0,.3-.03.4-.09s.15-.14.15-.23c0-.06-.02-.11-.05-.16s-.09-.09-.16-.14-.3-.17-.68-.36c-.29-.14-.51-.29-.65-.46s-.21-.36-.21-.59c0-.32.13-.58.38-.77s.58-.29,1-.29Z"/><path d="M588.85,345.65c.54,0,.96.17,1.27.52s.47.82.47,1.43v.14h-2.58c.04.33.16.58.37.75s.49.26.84.26c.23,0,.45-.04.66-.12s.43-.2.66-.36v.71c-.43.3-.95.45-1.55.45-.58,0-1.05-.17-1.41-.52s-.55-.81-.55-1.38.17-1.01.51-1.36.78-.53,1.32-.53ZM589.69,347.15c-.03-.27-.11-.47-.24-.62s-.32-.22-.56-.22-.44.07-.58.21-.24.35-.28.63h1.66Z"/><path d="M592.34,343.91v5.46h-.96v-5.46h.96Z"/><path d="M594.26,345.72v2.26c0,.24.06.42.18.54s.28.19.47.19c.16,0,.32-.05.46-.15s.27-.24.36-.42v-2.42h.96v3.65h-.96v-.5c-.35.38-.72.57-1.12.57s-.71-.13-.95-.38-.36-.59-.36-1v-2.34h.96Z"/><path d="M464.46,187.77c.51,0,.93.14,1.25.43.32.28.48.65.48,1.11,0,.31-.08.58-.24.81s-.4.41-.71.54c.17.09.33.22.46.38.14.16.3.43.5.82.33.66.58,1.12.74,1.37h-1.18c-.08-.12-.19-.31-.33-.57-.3-.58-.52-.97-.66-1.17s-.28-.34-.41-.43c-.13-.08-.28-.13-.45-.13h-.38v2.3h-1.05v-5.46h1.96ZM464.22,190.1c.28,0,.49-.07.65-.21.16-.14.24-.33.24-.57s-.08-.44-.23-.56-.38-.19-.67-.19h-.66v1.52h.67Z"/><path d="M469,189.51c.54,0,.96.17,1.27.52s.47.82.47,1.43v.14h-2.58c.04.33.16.58.37.75.21.18.49.26.84.26.23,0,.45-.04.66-.12.21-.08.43-.2.66-.36v.71c-.43.3-.95.45-1.55.45-.58,0-1.04-.17-1.41-.52-.36-.35-.55-.81-.55-1.38s.17-1.01.51-1.36c.34-.35.78-.53,1.32-.53ZM469.84,191.02c-.03-.27-.11-.47-.24-.62-.13-.15-.32-.22-.56-.22s-.44.07-.58.21c-.15.14-.24.35-.28.63h1.66Z"/><path d="M473.96,189.67v-1.89h.96v5.46h-1.69c-.58,0-1.05-.17-1.4-.5-.35-.34-.53-.79-.53-1.38,0-.34.08-.66.24-.94.16-.28.39-.5.67-.66s.59-.24.92-.24c.26,0,.53.05.82.15ZM473.45,192.5h.5v-2.11c-.2-.1-.4-.15-.62-.15-.32,0-.58.1-.77.3s-.29.46-.29.79c0,.78.39,1.18,1.17,1.18Z"/><path d="M479.01,189.58l-1.9,2.93h1.91v.72h-3.5l1.9-2.92h-1.76v-.73h3.35Z"/><path d="M480.18,187.9c.15,0,.28.05.38.16s.16.23.16.38-.05.27-.16.38-.23.17-.38.17-.27-.06-.38-.17c-.11-.11-.16-.24-.16-.38,0-.15.05-.28.16-.38s.24-.16.38-.16ZM480.66,189.58v3.65h-.96v-3.65h.96Z"/><path d="M482.61,187.77v5.46h-.96v-5.46h.96ZM485.26,189.58l-1.48,1.8,1.66,1.85h-1.22l-1.6-1.85,1.5-1.8h1.13Z"/><path d="M487.61,189.51c.38,0,.73.08,1.04.24s.55.38.72.67.25.61.25.97-.08.71-.24.99-.4.51-.72.67-.67.25-1.04.25-.73-.08-1.04-.25-.55-.39-.71-.67-.24-.61-.24-.99.09-.69.26-.98.41-.51.72-.66.65-.24,1.02-.24ZM486.61,191.39c0,.36.09.66.27.87s.42.33.72.33.56-.1.74-.31.27-.51.27-.89-.09-.66-.27-.86-.43-.3-.74-.3c-.29,0-.53.11-.71.32s-.27.5-.27.85Z"/><path d="M490.9,189.58l.85,2.11.86-2.11h.62l.86,2.11.85-2.11h1l-1.62,3.72h-.41l-.98-2.23-.98,2.23h-.4l-1.64-3.72h1Z"/><path d="M498.23,189.51c.38,0,.73.08,1.04.24s.55.38.72.67.25.61.25.97-.08.71-.24.99-.4.51-.72.67-.67.25-1.04.25-.73-.08-1.04-.25-.55-.39-.71-.67-.24-.61-.24-.99.09-.69.26-.98.41-.51.72-.66.65-.24,1.02-.24ZM497.24,191.39c0,.36.09.66.27.87s.42.33.72.33.56-.1.74-.31.27-.51.27-.89-.09-.66-.27-.86-.43-.3-.74-.3c-.29,0-.53.11-.71.32s-.27.5-.27.85Z"/><path d="M788.68,443.36v2.52h.02l2-2.52h1.2l-2.03,2.57,2.63,2.89h-1.35l-2.47-2.68v2.68h-1.05v-5.46h1.05Z"/><path d="M793.87,445.17v2.26c0,.24.06.42.18.54.12.12.28.19.47.19.16,0,.32-.05.46-.15s.27-.24.36-.42v-2.42h.96v3.65h-.96v-.5c-.35.38-.72.57-1.12.57s-.71-.13-.95-.38c-.24-.25-.36-.59-.36-1v-2.34h.96ZM793.86,443.66c.12,0,.23.04.32.13.09.09.13.19.13.32s-.04.23-.13.32c-.09.09-.19.13-.32.13s-.23-.04-.32-.13-.13-.2-.13-.32.04-.23.13-.32c.09-.09.2-.13.32-.13ZM795.42,443.66c.12,0,.23.04.32.13.09.09.13.19.13.32s-.04.23-.13.32-.2.13-.32.13-.22-.04-.31-.13-.13-.19-.13-.32.04-.23.13-.32c.09-.09.19-.13.32-.13Z"/><path d="M799.35,445.1c.13,0,.25.03.38.09.12.06.27.15.43.29l-.34.84c-.28-.21-.5-.31-.67-.31-.15,0-.29.06-.44.17s-.26.26-.35.44c-.09.18-.13.36-.13.55v1.66h-.96v-3.65h.96v.93h.02c.17-.35.35-.61.53-.76.18-.16.37-.24.58-.24Z"/><path d="M802.08,445.1c.54,0,.96.17,1.27.52s.47.82.47,1.43v.14h-2.58c.04.33.16.58.37.75.21.18.49.26.84.26.23,0,.45-.04.66-.12.21-.08.43-.2.66-.36v.71c-.43.3-.95.45-1.55.45-.58,0-1.04-.17-1.41-.52-.36-.35-.55-.81-.55-1.38s.17-1.01.51-1.36c.34-.35.78-.53,1.32-.53ZM802.92,446.6c-.03-.27-.11-.47-.24-.62-.13-.15-.32-.22-.56-.22s-.44.07-.58.21c-.15.14-.24.35-.28.63h1.66Z"/><path d="M806.33,445.1c.42,0,.81.08,1.15.25v.82c-.34-.2-.66-.3-.97-.3-.33,0-.6.1-.8.31s-.31.48-.31.83.11.62.31.82c.21.21.49.31.84.31.26,0,.59-.09,1-.26v.78c-.38.15-.77.23-1.17.23-.59,0-1.07-.17-1.44-.51-.37-.34-.55-.79-.55-1.35s.18-1.05.54-1.4c.36-.35.83-.53,1.4-.53Z"/><path d="M808.78,443.48c.15,0,.28.05.38.16s.16.23.16.38-.05.27-.16.38-.23.17-.38.17-.27-.06-.38-.17-.16-.24-.16-.38c0-.15.05-.28.16-.38s.24-.16.38-.16ZM809.26,445.17v3.65h-.96v-3.65h.96Z"/><path d="M811.21,443.36v5.46h-.96v-5.46h.96ZM813.86,445.17l-1.48,1.8,1.66,1.85h-1.22l-1.6-1.85,1.5-1.8h1.13Z"/></g></svg>