<?xml version="1.0" encoding="UTF-8"?><svg xmlns="http://www.w3.org/2000/svg" viewBox="0 0 841.81 594.3"><defs><style>.cls-1{mix-blend-mode:multiply;opacity:.8;}.cls-2{isolation:isolate;}.cls-3{fill:#85a7cc;}.cls-4{fill:none;opacity:0;stroke:#c16868;stroke-miterlimit:10;stroke-width:.1px;}</style></defs><g class="cls-2"><g id="Calque_2"><g id="Noms_de_mer"><g class="cls-1"><path class="cls-3" d="M259.22,443.46l.87,6.77-.9.12-.66-5.15-2.07,5.5-1.86-5.03-1,5.39-.89.12,1.37-7.05.77-.1,1.64,4.45,1.84-4.89.89-.11Z"/><path class="cls-3" d="M267.46,448.1l-.02.82c-.41.39-.88.62-1.42.69-.56.07-1.04-.07-1.43-.42-.39-.35-.63-.85-.71-1.5-.09-.73.03-1.36.38-1.91.35-.55.81-.86,1.4-.94.45-.06.85.07,1.2.38.34.31.55.74.62,1.29.02.14.02.28.02.42l-2.78.35c0,.15,0,.3.02.43.05.41.21.72.46.93.25.21.55.29.89.25.41-.05.87-.32,1.37-.79ZM264.78,446.68l1.86-.24c-.04-.31-.14-.55-.3-.71-.16-.16-.37-.23-.63-.19-.49.06-.8.44-.93,1.14Z"/><path class="cls-3" d="M272.35,444.13l-.02.86.02.02c.22-.41.39-.69.53-.83.14-.14.32-.23.53-.25.13-.02.26,0,.38.02l.12.95c-.19-.08-.37-.11-.54-.08-.17.02-.31.08-.43.18-.12.1-.25.29-.4.59-.15.29-.22.47-.22.53l-.03,2.55-.84.11.05-4.54.84-.11Z"/><path class="cls-3" d="M289.41,439.6l.87,6.77-.9.12-.66-5.15-2.07,5.5-1.86-5.03-1,5.39-.89.12,1.37-7.05.77-.1,1.64,4.45,1.84-4.89.89-.11Z"/><path class="cls-3" d="M297.65,444.7l-.1.81c-.45.34-.94.52-1.49.54-.57.01-1.03-.18-1.38-.56-.35-.39-.54-.91-.55-1.57-.02-.73.18-1.35.58-1.86.4-.51.9-.77,1.49-.78.46-.01.84.16,1.15.5.31.34.47.79.48,1.34,0,.14,0,.28-.02.42l-2.8.06c-.02.15-.03.29-.03.43,0,.41.13.74.36.97.23.23.52.35.86.34.42,0,.9-.22,1.45-.64ZM295.13,443.01l1.88-.04c0-.31-.08-.56-.23-.73-.15-.18-.35-.26-.6-.26-.49.01-.84.36-1.05,1.03ZM296.43,439.2l1.01-.02-1.1,1.48h-.56s.65-1.46.65-1.46Z"/><path class="cls-3" d="M306.04,439.28l-1.12,6.8c-.33.09-.72.12-1.15.11-.76-.02-1.34-.21-1.74-.58s-.59-.89-.58-1.55c.02-.65.3-1.26.84-1.81.55-.56,1.27-.83,2.18-.8h.36s.36-2.18.36-2.18l.85.02ZM304.17,445.48l.55-3.33h-.22c-.64-.02-1.15.16-1.55.54-.4.38-.61.83-.62,1.37-.01.45.11.79.36,1.04.25.25.62.38,1.09.39.17,0,.3,0,.39,0Z"/><path class="cls-3" d="M310.6,441.72l-.74,4.47-.85-.02.74-4.48.85.02ZM309.87,440.3c0-.14.05-.25.15-.35.1-.09.21-.14.35-.14.13,0,.25.05.34.15.09.1.14.22.14.35,0,.13-.05.25-.15.34-.1.09-.21.14-.35.14-.13,0-.25-.05-.34-.15-.09-.1-.14-.21-.14-.35Z"/><path class="cls-3" d="M316.63,441.87l-.11.66-.89-.02-.5,2.44c-.03.12-.04.23-.04.31,0,.29.15.44.46.45.23,0,.51-.08.83-.25l-.07.83c-.32.12-.63.19-.94.18-.37,0-.66-.11-.87-.3-.21-.19-.31-.44-.3-.75,0-.08.01-.15.03-.23l.54-2.71-.79-.02.12-.66.82.02.19-.91.84.02-.19.91.87.02Z"/><path class="cls-3" d="M323.39,445.35l-.14.81c-.46.32-.97.48-1.51.47-.57-.01-1.02-.22-1.35-.62-.33-.4-.49-.94-.48-1.59.02-.73.24-1.34.66-1.83.42-.49.93-.73,1.53-.71.46.01.83.2,1.12.55s.43.81.42,1.37c0,.14-.02.28-.04.42l-2.8-.07c-.03.15-.05.29-.05.43,0,.41.09.74.32.99s.5.37.84.38c.42,0,.91-.18,1.47-.57ZM320.95,443.54l1.88.05c0-.31-.06-.56-.19-.75-.14-.18-.33-.28-.59-.29-.49-.01-.85.32-1.09.98Z"/><path class="cls-3" d="M328.8,442.16l-.15.85.02.02c.28-.38.49-.62.65-.74.16-.12.35-.18.56-.17.13,0,.26.03.37.08l-.02.96c-.18-.11-.35-.16-.52-.16-.17,0-.32.03-.45.11-.13.08-.29.25-.49.52-.19.27-.29.43-.3.49l-.41,2.52-.85-.02.74-4.48.85.02Z"/><path class="cls-3" d="M334.95,442.31l-.15.85.02.02c.28-.38.49-.62.65-.74.16-.12.35-.18.56-.17.13,0,.26.03.37.08l-.02.96c-.18-.11-.35-.16-.52-.17-.17,0-.32.03-.45.12-.13.08-.29.25-.49.52-.19.27-.29.43-.3.49l-.41,2.52-.85-.02.74-4.48.85.02Z"/><path class="cls-3" d="M343.47,442.52l-.74,4.47-.85-.02.1-.51-.02-.03c-.4.41-.81.61-1.23.6-.41,0-.75-.19-1.03-.55-.28-.35-.41-.78-.4-1.27.02-.85.3-1.55.85-2.09.55-.54,1.3-.8,2.26-.78.39,0,.74.06,1.06.16ZM342.09,445.68l.43-2.58c-.09,0-.18-.01-.26-.02-.67-.02-1.18.19-1.54.6s-.54.88-.56,1.41c0,.36.07.66.23.89.16.23.37.35.63.36.21,0,.43-.09.68-.29s.38-.32.39-.38Z"/><path class="cls-3" d="M348.79,443.08l-.22.77.02.02c.55-.52,1.08-.74,1.59-.67.35.05.6.21.75.49.16.28.21.62.15,1.02-.02.11-.04.23-.08.35l-.81,2.75-.83-.11.79-2.78c.03-.1.05-.19.06-.27.03-.23,0-.42-.07-.55-.08-.14-.19-.21-.34-.23-.08-.01-.18,0-.29.03s-.23.08-.36.15c-.13.07-.3.18-.5.34-.2.15-.31.25-.32.3l-.79,2.78-.83-.11,1.23-4.37.85.11Z"/><path class="cls-3" d="M358.04,447.69l-.23.79c-.5.27-1.02.37-1.55.3-.56-.08-.99-.33-1.27-.77-.29-.44-.39-.98-.3-1.63.1-.73.39-1.31.86-1.75.48-.44,1.01-.62,1.6-.54.45.06.8.29,1.06.67.25.39.34.86.27,1.41-.02.14-.05.27-.09.41l-2.78-.38c-.05.15-.08.29-.1.42-.06.41.01.75.21,1.02.19.27.46.42.79.47.41.06.92-.08,1.53-.41ZM355.81,445.62l1.86.25c.04-.31,0-.56-.11-.76s-.3-.31-.56-.35c-.48-.06-.88.22-1.2.86ZM357.69,442.06l1,.14-1.32,1.29-.55-.08.87-1.36Z"/><path class="cls-3" d="M365.35,448.68l-.23.79c-.5.27-1.01.37-1.55.3-.56-.08-.99-.33-1.27-.77-.29-.44-.39-.98-.3-1.63.1-.73.38-1.31.86-1.75.47-.44,1.01-.62,1.6-.54.45.06.8.29,1.06.67.25.39.34.86.27,1.4-.02.13-.05.27-.09.41l-2.78-.38c-.05.14-.08.29-.1.42-.06.41.01.75.21,1.02.19.27.46.42.8.47.41.06.92-.08,1.53-.41ZM363.13,446.61l1.86.25c.04-.31,0-.56-.11-.76-.12-.2-.3-.31-.56-.35-.48-.06-.88.22-1.2.86Z"/></g><g class="cls-1"><path class="cls-3" d="M707.52,346.28l.37,6.81-.9.05-.29-5.19-2.47,5.34-1.49-5.15-1.39,5.3-.9.05,1.88-6.93.78-.04,1.32,4.56,2.19-4.75.9-.05Z"/><path class="cls-3" d="M715.38,351.51l-.08.82c-.44.36-.93.55-1.47.58-.57.03-1.03-.14-1.39-.52-.36-.38-.56-.89-.6-1.55-.04-.73.13-1.36.52-1.88.38-.52.87-.8,1.47-.83.46-.02.84.13,1.16.46.32.33.5.78.53,1.33,0,.14,0,.28,0,.42l-2.8.15c-.02.15-.02.29-.02.43.02.41.15.73.39.96s.53.33.87.31c.42-.02.89-.25,1.42-.69ZM712.81,349.9l1.88-.1c-.02-.31-.1-.55-.25-.73-.15-.17-.36-.25-.61-.24-.49.03-.83.38-1.02,1.07Z"/><path class="cls-3" d="M720.82,348.2l-.17.85.02.02c.28-.37.51-.61.67-.73.16-.12.35-.17.56-.16.13,0,.26.03.37.08l-.04.96c-.18-.11-.35-.17-.52-.17-.17,0-.32.03-.45.1-.13.08-.3.25-.5.51s-.3.42-.31.48l-.47,2.51-.85-.04.83-4.46.85.04Z"/><path class="cls-3" d="M737.98,347.47l-1.62,6.7-.49-.05-2.89-5.29-1.18,4.89-.84-.08,1.61-6.7.46.05,2.9,5.32,1.19-4.92.85.08Z"/><path class="cls-3" d="M743.33,350.19c.5.05.89.27,1.16.65.27.38.38.87.32,1.46-.08.82-.35,1.47-.81,1.95-.46.49-.99.7-1.58.64-.52-.05-.92-.27-1.18-.65-.26-.38-.37-.89-.3-1.52.08-.78.35-1.41.81-1.9.46-.49,1-.7,1.6-.64ZM743.27,350.86c-.35-.03-.67.15-.96.56-.29.41-.47.9-.53,1.49-.04.35.01.64.14.88.13.24.31.36.53.38.35.04.68-.14.96-.51.29-.38.47-.87.52-1.48.04-.38,0-.68-.13-.92s-.31-.37-.55-.39Z"/><path class="cls-3" d="M750,350.98l-1.06,4.41-.84-.08,1.06-4.41.84.08ZM749.38,349.51c.01-.13.07-.25.18-.33.11-.09.22-.12.36-.11.13.01.24.07.33.18.09.1.12.23.11.36-.01.13-.07.24-.18.33-.11.09-.22.12-.36.11-.13-.01-.24-.07-.33-.18-.09-.11-.12-.22-.11-.36Z"/><path class="cls-3" d="M754.98,351.47l-.21.84.02.02c.3-.35.54-.58.71-.69.17-.11.36-.15.57-.13.13.01.25.05.36.1l-.09.96c-.17-.12-.34-.18-.5-.2-.17-.02-.32,0-.45.08-.14.07-.31.23-.52.48-.21.25-.32.41-.33.47l-.59,2.48-.85-.08,1.06-4.41.84.08Z"/><path class="cls-3" d="M762.69,355.56l-.2.79c-.49.29-1,.41-1.54.36-.56-.06-1-.3-1.3-.72-.3-.43-.42-.97-.36-1.62.07-.73.34-1.32.79-1.78s.98-.66,1.58-.6c.45.04.81.26,1.08.63.27.38.37.84.32,1.39-.01.14-.04.27-.07.42l-2.79-.27c-.04.15-.07.29-.08.42-.04.41.04.75.24,1.01.2.26.47.41.81.44.42.04.92-.11,1.51-.46ZM760.39,353.57l1.87.18c.03-.31-.02-.56-.14-.76-.12-.19-.31-.3-.57-.33-.49-.05-.87.25-1.16.9Z"/></g><path class="cls-3" d="M71.67,268.05c.72,0,1.3.26,1.75.79s.67,1.22.67,2.07c0,1.19-.32,2.17-.97,2.96s-1.42,1.18-2.32,1.18c-.71,0-1.29-.27-1.75-.81s-.68-1.23-.68-2.07c0-1.05.31-2,.93-2.85s1.41-1.27,2.38-1.27ZM70.81,274.22c.63,0,1.18-.34,1.65-1.02s.7-1.5.7-2.46c0-.59-.14-1.05-.41-1.38s-.63-.5-1.09-.5c-.7,0-1.28.35-1.72,1.05s-.66,1.49-.66,2.38c0,.6.14,1.07.42,1.41s.65.52,1.11.52Z"/><path class="cls-3" d="M80.98,273.95l-.1.82c-.39.21-.81.32-1.25.32-.6,0-1.08-.19-1.44-.56s-.54-.88-.54-1.51c0-.76.27-1.4.82-1.92s1.24-.78,2.09-.78c.21,0,.47.03.77.08l-.11.75c-.21-.05-.43-.07-.65-.07-.59,0-1.08.19-1.47.57s-.58.82-.58,1.32c0,.42.11.76.33,1s.52.36.9.36c.4,0,.81-.13,1.23-.38Z"/><path class="cls-3" d="M88.14,273.78l-.12.81c-.46.34-.96.5-1.5.5s-1.02-.2-1.36-.59-.52-.92-.52-1.58c0-.73.21-1.35.62-1.85s.92-.75,1.51-.75c.46,0,.83.17,1.14.52s.45.8.45,1.35c0,.14,0,.28-.03.42h-2.8c-.03.15-.04.29-.04.43,0,.41.11.74.34.98s.51.36.85.36c.42,0,.9-.2,1.46-.61ZM85.66,272.03h1.88c0-.31-.07-.56-.21-.74s-.34-.27-.6-.27c-.49,0-.85.34-1.07,1.01ZM87.04,268.26h1.01l-1.13,1.46h-.56l.68-1.46Z"/><path class="cls-3" d="M96.1,270.46l-.63,4.49h-.85l.08-.52-.02-.02c-.39.42-.8.63-1.21.63s-.76-.17-1.05-.52c-.29-.35-.43-.77-.43-1.26,0-.85.27-1.56.8-2.11s1.28-.83,2.24-.83c.39,0,.74.05,1.06.14ZM94.8,273.66l.37-2.59c-.09,0-.18,0-.26,0-.67,0-1.18.21-1.52.64s-.52.9-.52,1.42c0,.36.08.66.25.89s.38.34.64.34c.21,0,.43-.1.68-.31.24-.2.37-.33.38-.38Z"/><path class="cls-3" d="M101.11,270.46l-.11.79.02.02c.48-.59.97-.88,1.49-.88.35,0,.62.13.81.38.19.26.29.58.29.99,0,.11,0,.23-.03.36l-.43,2.83h-.84l.41-2.86c.02-.1.02-.19.02-.28,0-.23-.05-.41-.15-.54-.1-.12-.22-.19-.37-.19-.08,0-.18.02-.29.06-.11.04-.22.11-.34.2-.12.09-.27.22-.45.4s-.27.29-.28.34l-.41,2.86h-.84l.63-4.49h.85Z"/><path class="cls-3" d="M57.1,288.09l1.32,6.86h-.84l-.4-2.14h-2.15l-.9,2.14h-.91l3.02-6.86h.86ZM55.34,292.09h1.7l-.53-2.8-1.18,2.8Z"/><path class="cls-3" d="M64.63,290.46l-.09.66h-.89l-.44,2.46c-.02.12-.03.23-.03.31,0,.29.16.44.47.44.23,0,.51-.09.82-.27l-.05.83c-.31.13-.62.2-.93.2-.37,0-.66-.09-.87-.28s-.32-.43-.32-.74c0-.07,0-.15.02-.23l.47-2.72h-.79l.1-.66h.82l.16-.92h.84l-.16.92h.87Z"/><path class="cls-3" d="M69.63,288.13l-.96,6.82h-.85l.96-6.82h.85Z"/><path class="cls-3" d="M76.93,290.46l-.63,4.49h-.85l.08-.52-.02-.02c-.39.42-.8.63-1.21.63s-.76-.17-1.05-.52c-.29-.35-.43-.77-.43-1.26,0-.85.27-1.56.8-2.11s1.28-.83,2.24-.83c.39,0,.74.05,1.06.14ZM75.63,293.66l.37-2.59c-.09,0-.18,0-.26,0-.67,0-1.18.21-1.52.64s-.52.9-.52,1.42c0,.36.08.66.25.89s.38.34.64.34c.21,0,.43-.1.68-.31.24-.2.37-.33.38-.38Z"/><path class="cls-3" d="M81.94,290.46l-.11.79.02.02c.48-.59.97-.88,1.49-.88.35,0,.62.13.81.38.19.26.29.58.29.99,0,.11,0,.23-.03.36l-.43,2.83h-.84l.41-2.86c.02-.1.02-.19.02-.28,0-.23-.05-.41-.15-.54-.1-.12-.22-.19-.37-.19-.08,0-.18.02-.29.06-.11.04-.22.11-.34.2-.12.09-.27.22-.45.4s-.27.29-.28.34l-.41,2.86h-.84l.63-4.49h.85Z"/><path class="cls-3" d="M90.71,290.46l-.09.66h-.89l-.44,2.46c-.02.12-.03.23-.03.31,0,.29.16.44.47.44.23,0,.51-.09.82-.27l-.05.83c-.31.13-.62.2-.93.2-.37,0-.66-.09-.87-.28s-.32-.43-.32-.74c0-.07,0-.15.02-.23l.47-2.72h-.79l.1-.66h.82l.16-.92h.84l-.16.92h.87Z"/><path class="cls-3" d="M95.37,290.46l-.63,4.49h-.85l.63-4.49h.85ZM94.61,289.06c0-.14.05-.25.14-.35s.21-.14.34-.14.25.05.34.14.14.21.14.35-.05.25-.14.34-.21.14-.34.14-.25-.05-.34-.14-.14-.21-.14-.34Z"/><path class="cls-3" d="M102.98,290.33l-.97,6.93h-.85l.34-2.43c-.37.18-.68.27-.93.27-.51,0-.93-.19-1.25-.56s-.48-.86-.48-1.46c0-.78.28-1.44.83-1.96s1.34-.79,2.35-.79h.95ZM101.59,294.19l.44-3.17c-.73-.04-1.29.14-1.7.52s-.61.91-.61,1.57c0,.38.11.69.32.92s.5.35.85.35c.19,0,.42-.07.7-.2Z"/><path class="cls-3" d="M110.62,290.46l-.64,4.49h-.84l.08-.76c-.52.55-1.01.83-1.48.83-.3,0-.56-.11-.77-.32s-.31-.52-.31-.93c0-.11,0-.23.02-.35l.42-2.96h.85l-.42,2.96c-.01.1-.02.19-.02.27,0,.45.17.67.5.67s.8-.33,1.35-.99l.41-2.92h.85Z"/><path class="cls-3" d="M117.81,293.78l-.12.81c-.46.34-.96.5-1.5.5s-1.02-.2-1.36-.59-.52-.92-.52-1.58c0-.73.21-1.35.62-1.85s.92-.75,1.51-.75c.46,0,.83.17,1.14.52s.45.8.45,1.35c0,.14,0,.28-.03.42h-2.8c-.03.15-.04.29-.04.43,0,.41.11.74.34.98s.51.36.85.36c.42,0,.9-.2,1.46-.61ZM115.33,292.03h1.88c0-.31-.07-.56-.21-.74s-.34-.27-.6-.27c-.49,0-.85.34-1.07,1.01Z"/></g><g id="Ligne_de_front"><rect id="Cadre" class="cls-4" x=".05" y=".05" width="841.71" height="594.2"/></g></g></g></svg>