<?xml version="1.0" encoding="UTF-8"?><svg id="Calque_2" xmlns="http://www.w3.org/2000/svg" viewBox="0 0 388.8 691.25"><defs><style>.cls-1{fill:#999;stroke:#353535;stroke-linecap:round;stroke-linejoin:round;stroke-width:.1px;}.cls-2{fill:#224f91;}.cls-3{fill:#fff;stroke:#224f91;stroke-miterlimit:10;}</style></defs><g id="Picto"><circle class="cls-3" cx="26.23" cy="436.8" r="3.19"/><path class="cls-2" d="M27.6,436.71c-.16.05-.48.33-.54.61.06.02.12.01.18,0-.21.39-.55.54-.72.59-.07.02-.01,0-.01,0-.02,0-.05,0-.07-.01s-.03-.04-.03-.06v-.02s-.01-1.48-.01-1.48h.28c.03.06.08.1.15.1.09,0,.17-.07.17-.17s-.07-.17-.17-.17c-.07,0-.13.04-.15.1h-.28v-.32s0-.02,0-.02c0-.03.01-.05.04-.07,0,0,.01,0,.04-.02.08-.07.12-.16.12-.27,0-.2-.16-.35-.35-.35s-.35.16-.35.35c0,.11.05.2.12.27.02.02.04.02.04.02.02.01.04.04.04.07v.02s0,.32,0,.32h-.28c-.03-.06-.08-.1-.15-.1-.09,0-.17.07-.17.17s.07.17.17.17c.07,0,.13-.04.15-.1h.28v1.48s-.01.02-.01.02c0,.02-.01.05-.03.06s-.04.02-.07.01c0,0,.06.02-.01,0-.17-.05-.51-.2-.72-.59.06.01.12.01.18,0-.07-.28-.38-.56-.54-.61-.16.18-.19.55-.08.82.07-.03.12-.08.16-.13.07.17.36.76,1.16,1,.04.01.09.04.13.05.04-.02.09-.04.13-.05.8-.24,1.09-.83,1.16-1,.04.05.1.1.16.13.11-.26.08-.63-.08-.82ZM25.02,437.28s.01-.02.01-.02c0,0,0,0,.01,0l-.02.02ZM26.23,435.68c-.1,0-.17-.08-.17-.17s.08-.17.17-.17.17.08.17.17-.08.17-.17.17ZM27.41,437.26s.01,0,.01,0c0,0,0,0,.01.02l-.02-.02Z"/></g><g id="Calque_1-2"><g id="Destroyer1"><path class="cls-1" d="M41.94,447.24h.44s1.4,0,1.4,0h.35c.22-.02.43-.02.65-.02h.37c.13-.01.26-.04.36-.12l.48-.02,1.88-.12,1.78-.19-.36.42c-.11.14-.21.27-.31.42h-2.31s-3.31,0-3.31,0h-2.65c-.1-.12-.15-.27-.15-.42l1.37.04ZM48.98,447.01s.02.08.05.11l-.03.08.09-.05s.08-.06.08-.11c0-.04-.05-.1-.1-.09-.02.03-.02.08,0,.13l.04-.09s.02.05.03.07-.05.06-.07.05l-.09-.1Z"/><path class="cls-1" d="M41.72,447.76c-.08.05-.16.09-.24.06v.04s-.02,0-.06,0l-.02-.12h-.1s0,.14,0,.14h-.14s-.02-.15-.02-.15c-.13,0-.24,0-.35-.06h.74s7.43,0,7.43,0c-.05.09-.15.16-.27.16h-5.87c-.22,0-.41-.02-.62-.06-.07-.01-.13,0-.19,0-.09,0-.19-.08-.28-.02Z"/><path class="cls-1" d="M41.44,447.19v-.07s-.05,0-.05,0v.06s-.48-.01-.48-.01c0-.02,0-.03.01-.03l.05-.02h-.15s-.03.06-.03.06l-.02-.05s-.13-.04-.18.03v-.11s.17,0,.17,0h.16s.21,0,.21,0h.11s.19,0,.19,0c.1,0,.19,0,.29.01v.14s-.13,0-.13,0v-.07s-.04,0-.04,0v.06s-.13,0-.13,0Z"/><path class="cls-1" d="M47.88,446.82l.03.1-.4.03v-.06s-.05-.02-.07-.03v-.11s.05-.08.1-.07l.28.04c.1.09.3,0,.45.05l-.39.04Z"/><path class="cls-1" d="M48.84,446.8c-.03.06-.17.07-.22.02l-.03.04s-.05,0-.07,0l.06-.03h-.07s.07-.04.07-.04c-.03-.01-.05-.01-.07-.03l.63-.06.39-.03s.06-.08.07-.12v-.23s.03,0,.03,0v.44c-.05-.02-.09-.01-.14,0-.03.01-.05,0-.08,0h-.14s-.03.03-.03.03l-.03-.02h-.16s-.02.06-.02.05-.02-.03-.03-.03h-.16Z"/><path class="cls-1" d="M48.47,446.81v.06s-.03.01-.04.01h-.05s0-.04,0-.07h.1Z"/><path class="cls-1" d="M41.91,447.16v-.17s.18,0,.18,0c.02,0,.05-.03.04-.06l-.37-.03v-.03s.32,0,.32,0c.04,0,.09-.03.13-.04.1-.03.2-.04.31-.04.06.02.07.13.06.19l.14-.04.02-.29h.16s.02-.04,0-.05l-.06-.02.14-.07s.03-.06.05-.06.05.03.06.04c.08.08.03.15.05.16h.06s0-.14,0-.14h.22s0-.16,0-.16c-.02,0-.05,0-.05-.02v-.05s.04,0,.05,0h.16s-.07-.05-.07-.05v-.12c0-.06.04-.1.09-.11s.12.03.12.09v.14s-.06.03-.06.03c.03.02.06.02.11.01v-.5s-.11-.12-.11-.12c.04.03.07.05.11.08v-.36c.06.03.02.18.03.33v.18s.06.01.06.01c.01,0,.01.04.01.05v.06s-.04.01-.07.01v.25s.06.04.06.05c0,.02-.03.04-.06.06v.33s.06,0,.06,0v-.07s.11,0,.11,0v-.09s.09,0,.09,0v.1s.12,0,.12,0v.07s.06,0,.07,0l-.08-.53s0-.07.02-.11l.44-.15s.06.09.08.14v-.53s.03-.3.03-.3l.03.04s.04,0,.04,0l.08-.12v-.04s.01,0,.03,0v-.06s-.02-.03-.04-.04c.02-.01.05-.03.05-.04l-.02-.06.03-.14.04.14-.02.05s.03.04.05.05c-.02,0-.04.02-.05.03v.08s.04,0,.04,0c.02,0,.02-.05.02-.07,0-.07.04-.1.1-.1.06,0,.09.06.08.13v.07s-.03.02-.06.04c.15.06.26.02.28.05,0,.01-.01.05-.03.06l-.17.03v.09s.19,0,.19,0v.06c-.07.02-.13.03-.18.09h.16s0,.04-.02.05l-.12.07.03.21h.03c-.02-.09,0-.1.06-.13l-.04-.02s-.01-.04,0-.05h.2s0,.06,0,.06c0,.01-.04,0-.06,0,0,0-.02.03-.01.03h.05s0,.12,0,.12h.19s.04,0,.03,0l-.04.04s-.02.06,0,.1h.24s0,.31,0,.31c0,.08,0,.16.02.24l.02-.09h.21s0-.12,0-.12l.06-.06s.05-.03.06-.02l.04.05.09.05s.04,0,.05,0c0,0,0,.02,0,.03h-.05s0,.06,0,.06h.23s.04.24.04.24h.09s.05-.19.05-.19l.28.02s.09.03.11.05h.38s0,.03,0,.03l-.32.02s-.07.02-.06.03l.04.06.05.22-1.32.08-.54.02c-.08.07-.19.1-.3.11l-.37.02h-.58s-2.25.02-2.25.02h-.15s.05-.05.05-.05ZM45.12,445.17l-.12-.04v.16s.03-.05.04-.09l.08-.04ZM44.77,446.08l.08-.77c-.08.01-.07.07-.07.13v.36c0,.1-.02.18,0,.28ZM44.92,445.35s-.01-.03-.02-.03h-.02s-.05.5-.05.5h.01s.08-.47.08-.47ZM45.09,445.37l-.15-.04-.12.84.27-.8ZM44.9,446.29s.05-.03.05-.04v-.13s.1-.01.1-.01c0-.22.04-.42.02-.65l-.25.77s-.05.1-.05.14l.05.3s.07.02.07,0v-.38Z"/><path class="cls-1" d="M48.32,446.83s.02.06,0,.06h-.05s-.05.02-.05,0v-.07s.09,0,.09,0Z"/><path class="cls-1" d="M48.98,447.01l.09.1s.07-.03.07-.05-.02-.06-.03-.07l-.04.09c-.02-.05-.02-.1,0-.13.04,0,.1.05.1.09,0,.05-.04.09-.08.11l-.09.05.03-.08s-.07-.06-.05-.11Z"/></g><g id="Destroyer2"><path class="cls-1" d="M50.95,443.52h.44s1.4,0,1.4,0h.35c.22-.02.43-.02.65-.02h.37c.13-.01.26-.04.36-.12l.48-.02,1.88-.12,1.78-.19-.36.42c-.11.14-.21.27-.31.42h-2.31s-3.31,0-3.31,0h-2.65c-.1-.12-.15-.27-.15-.42l1.37.04ZM57.99,443.29s.02.08.05.11l-.03.08.09-.05s.08-.06.08-.11c0-.04-.05-.1-.1-.09-.02.03-.02.08,0,.13l.04-.09s.02.05.03.07-.05.06-.07.05l-.09-.1Z"/><path class="cls-1" d="M50.73,444.04c-.08.05-.16.09-.24.06v.04s-.02,0-.06,0l-.02-.12h-.1s0,.14,0,.14h-.14s-.02-.15-.02-.15c-.13,0-.24,0-.35-.06h.74s7.43,0,7.43,0c-.05.09-.15.16-.27.16h-5.87c-.22,0-.41-.02-.62-.06-.07-.01-.13,0-.19,0-.09,0-.19-.08-.28-.02Z"/><path class="cls-1" d="M50.45,443.46v-.07s-.05,0-.05,0v.06s-.48-.01-.48-.01c0-.02,0-.03.01-.03l.05-.02h-.15s-.03.06-.03.06l-.02-.05s-.13-.04-.18.03v-.11s.17,0,.17,0h.16s.21,0,.21,0h.11s.19,0,.19,0c.1,0,.19,0,.29.01v.14s-.13,0-.13,0v-.07s-.04,0-.04,0v.06s-.13,0-.13,0Z"/><path class="cls-1" d="M56.89,443.09l.03.1-.4.03v-.06s-.05-.02-.07-.03v-.11s.05-.08.1-.07l.28.04c.1.09.3,0,.45.05l-.39.04Z"/><path class="cls-1" d="M57.85,443.07c-.03.06-.17.07-.22.02l-.03.04s-.05,0-.07,0l.06-.03h-.07s.07-.04.07-.04c-.03-.01-.05-.01-.07-.03l.63-.06.39-.03s.06-.08.07-.12v-.23s.03,0,.03,0v.44c-.05-.02-.09-.01-.14,0-.03.01-.05,0-.08,0h-.14s-.03.03-.03.03l-.03-.02h-.16s-.02.06-.02.05-.02-.03-.03-.03h-.16Z"/><path class="cls-1" d="M57.48,443.08v.06s-.03.01-.04.01h-.05s0-.04,0-.07h.1Z"/><path class="cls-1" d="M50.92,443.43v-.17s.18,0,.18,0c.02,0,.05-.03.04-.06l-.37-.03v-.03s.32,0,.32,0c.04,0,.09-.03.13-.04.1-.03.2-.04.31-.04.06.02.07.13.06.19l.14-.04.02-.29h.16s.02-.04,0-.05l-.06-.02.14-.07s.03-.06.05-.06.05.03.06.04c.08.08.03.15.05.16h.06s0-.14,0-.14h.22s0-.16,0-.16c-.02,0-.05,0-.05-.02v-.05s.04,0,.05,0h.16s-.07-.05-.07-.05v-.12c0-.06.04-.1.09-.11s.12.03.12.09v.14s-.06.03-.06.03c.03.02.06.02.11.01v-.5s-.11-.12-.11-.12c.04.03.07.05.11.08v-.36c.06.03.02.18.03.33v.18s.06.01.06.01c.01,0,.01.04.01.05v.06s-.04.01-.07.01v.25s.06.04.06.05c0,.02-.03.04-.06.06v.33s.06,0,.06,0v-.07s.11,0,.11,0v-.09s.09,0,.09,0v.1s.12,0,.12,0v.07s.06,0,.07,0l-.08-.53s0-.07.02-.11l.44-.15s.06.09.08.14v-.53s.03-.3.03-.3l.03.04s.04,0,.04,0l.08-.12v-.04s.01,0,.03,0v-.06s-.02-.03-.04-.04c.02-.01.05-.03.05-.04l-.02-.06.03-.14.04.14-.02.05s.03.04.05.05c-.02,0-.04.02-.05.03v.08s.04,0,.04,0c.02,0,.02-.05.02-.07,0-.07.04-.1.1-.1.06,0,.09.06.08.13v.07s-.03.02-.06.04c.15.06.26.02.28.05,0,.01-.01.05-.03.06l-.17.03v.09s.19,0,.19,0v.06c-.07.02-.13.03-.18.09h.16s0,.04-.02.05l-.12.07.03.21h.03c-.02-.09,0-.1.06-.13l-.04-.02s-.01-.04,0-.05h.2s0,.06,0,.06c0,.01-.04,0-.06,0,0,0-.02.03-.01.03h.05s0,.12,0,.12h.19s.04,0,.03,0l-.04.04s-.02.06,0,.1h.24s0,.31,0,.31c0,.08,0,.16.02.24l.02-.09h.21s0-.12,0-.12l.06-.06s.05-.03.06-.02l.04.05.09.05s.04,0,.05,0c0,0,0,.02,0,.03h-.05s0,.06,0,.06h.23s.04.24.04.24h.09s.05-.19.05-.19l.28.02s.09.03.11.05h.38s0,.03,0,.03l-.32.02s-.07.02-.06.03l.04.06.05.22-1.32.08-.54.02c-.08.07-.19.1-.3.11l-.37.02h-.58s-2.25.02-2.25.02h-.15s.05-.05.05-.05ZM54.13,441.44l-.12-.04v.16s.03-.05.04-.09l.08-.04ZM53.78,442.35l.08-.77c-.08.01-.07.07-.07.13v.36c0,.1-.02.18,0,.28ZM53.92,441.62s-.01-.03-.02-.03h-.02s-.05.5-.05.5h.01s.08-.47.08-.47ZM54.09,441.64l-.15-.04-.12.84.27-.8ZM53.9,442.56s.05-.03.05-.04v-.13s.1-.01.1-.01c0-.22.04-.42.02-.65l-.25.77s-.05.1-.05.14l.05.3s.07.02.07,0v-.38Z"/><path class="cls-1" d="M57.33,443.1s.02.06,0,.06h-.05s-.05.02-.05,0v-.07s.09,0,.09,0Z"/><path class="cls-1" d="M57.99,443.29l.09.1s.07-.03.07-.05-.02-.06-.03-.07l-.04.09c-.02-.05-.02-.1,0-.13.04,0,.1.05.1.09,0,.05-.04.09-.08.11l-.09.05.03-.08s-.07-.06-.05-.11Z"/></g><g id="Destroyer3"><path class="cls-1" d="M58.26,449.68h.44s1.4,0,1.4,0h.35c.22-.02.43-.02.65-.02h.37c.13-.01.26-.04.36-.12l.48-.02,1.88-.12,1.78-.19-.36.42c-.11.14-.21.27-.31.42h-2.31s-3.31,0-3.31,0h-2.65c-.1-.12-.15-.27-.15-.42l1.37.04ZM65.3,449.45s.02.08.05.11l-.03.08.09-.05s.08-.06.08-.11c0-.04-.05-.1-.1-.09-.02.03-.02.08,0,.13l.04-.09s.02.05.03.07-.05.06-.07.05l-.09-.1Z"/><path class="cls-1" d="M58.04,450.2c-.08.05-.16.09-.24.06v.04s-.02,0-.06,0l-.02-.12h-.1s0,.14,0,.14h-.14s-.02-.15-.02-.15c-.13,0-.24,0-.35-.06h.74s7.43,0,7.43,0c-.05.09-.15.16-.27.16h-5.87c-.22,0-.41-.02-.62-.06-.07-.01-.13,0-.19,0-.09,0-.19-.08-.28-.02Z"/><path class="cls-1" d="M57.75,449.62v-.07s-.05,0-.05,0v.06s-.48-.01-.48-.01c0-.02,0-.03.01-.03l.05-.02h-.15s-.03.06-.03.06l-.02-.05s-.13-.04-.18.03v-.11s.17,0,.17,0h.16s.21,0,.21,0h.11s.19,0,.19,0c.1,0,.19,0,.29.01v.14s-.13,0-.13,0v-.07s-.04,0-.04,0v.06s-.13,0-.13,0Z"/><path class="cls-1" d="M64.2,449.25l.03.1-.4.03v-.06s-.05-.02-.07-.03v-.11s.05-.08.1-.07l.28.04c.1.09.3,0,.45.05l-.39.04Z"/><path class="cls-1" d="M65.16,449.23c-.03.06-.17.07-.22.02l-.03.04s-.05,0-.07,0l.06-.03h-.07s.07-.04.07-.04c-.03-.01-.05-.01-.07-.03l.63-.06.39-.03s.06-.08.07-.12v-.23s.03,0,.03,0v.44c-.05-.02-.09-.01-.14,0-.03.01-.05,0-.08,0h-.14s-.03.03-.03.03l-.03-.02h-.16s-.02.06-.02.05-.02-.03-.03-.03h-.16Z"/><path class="cls-1" d="M64.79,449.24v.06s-.03.01-.04.01h-.05s0-.04,0-.07h.1Z"/><path class="cls-1" d="M58.23,449.59v-.17s.18,0,.18,0c.02,0,.05-.03.04-.06l-.37-.03v-.03s.32,0,.32,0c.04,0,.09-.03.13-.04.1-.03.2-.04.31-.04.06.02.07.13.06.19l.14-.04.02-.29h.16s.02-.04,0-.05l-.06-.02.14-.07s.03-.06.05-.06.05.03.06.04c.08.08.03.15.05.16h.06s0-.14,0-.14h.22s0-.16,0-.16c-.02,0-.05,0-.05-.02v-.05s.04,0,.05,0h.16s-.07-.05-.07-.05v-.12c0-.06.04-.1.09-.11s.12.03.12.09v.14s-.06.03-.06.03c.03.02.06.02.11.01v-.5s-.11-.12-.11-.12c.04.03.07.05.11.08v-.36c.06.03.02.18.03.33v.18s.06.01.06.01c.01,0,.01.04.01.05v.06s-.04.01-.07.01v.25s.06.04.06.05c0,.02-.03.04-.06.06v.33s.06,0,.06,0v-.07s.11,0,.11,0v-.09s.09,0,.09,0v.1s.12,0,.12,0v.07s.06,0,.07,0l-.08-.53s0-.07.02-.11l.44-.15s.06.09.08.14v-.53s.03-.3.03-.3l.03.04s.04,0,.04,0l.08-.12v-.04s.01,0,.03,0v-.06s-.02-.03-.04-.04c.02-.01.05-.03.05-.04l-.02-.06.03-.14.04.14-.02.05s.03.04.05.05c-.02,0-.04.02-.05.03v.08s.04,0,.04,0c.02,0,.02-.05.02-.07,0-.07.04-.1.1-.1.06,0,.09.06.08.13v.07s-.03.02-.06.04c.15.06.26.02.28.05,0,.01-.01.05-.03.06l-.17.03v.09s.19,0,.19,0v.06c-.07.02-.13.03-.18.09h.16s0,.04-.02.05l-.12.07.03.21h.03c-.02-.09,0-.1.06-.13l-.04-.02s-.01-.04,0-.05h.2s0,.06,0,.06c0,.01-.04,0-.06,0,0,0-.02.03-.01.03h.05s0,.12,0,.12h.19s.04,0,.03,0l-.04.04s-.02.06,0,.1h.24s0,.31,0,.31c0,.08,0,.16.02.24l.02-.09h.21s0-.12,0-.12l.06-.06s.05-.03.06-.02l.04.05.09.05s.04,0,.05,0c0,0,0,.02,0,.03h-.05s0,.06,0,.06h.23s.04.24.04.24h.09s.05-.19.05-.19l.28.02s.09.03.11.05h.38s0,.03,0,.03l-.32.02s-.07.02-.06.03l.04.06.05.22-1.32.08-.54.02c-.08.07-.19.1-.3.11l-.37.02h-.58s-2.25.02-2.25.02h-.15s.05-.05.05-.05ZM61.44,447.6l-.12-.04v.16s.03-.05.04-.09l.08-.04ZM61.09,448.51l.08-.77c-.08.01-.07.07-.07.13v.36c0,.1-.02.18,0,.28ZM61.23,447.78s-.01-.03-.02-.03h-.02s-.05.5-.05.5h.01s.08-.47.08-.47ZM61.4,447.8l-.15-.04-.12.84.27-.8ZM61.21,448.72s.05-.03.05-.04v-.13s.1-.01.1-.01c0-.22.04-.42.02-.65l-.25.77s-.05.1-.05.14l.05.3s.07.02.07,0v-.38Z"/><path class="cls-1" d="M64.64,449.26s.02.06,0,.06h-.05s-.05.02-.05,0v-.07s.09,0,.09,0Z"/><path class="cls-1" d="M65.3,449.45l.09.1s.07-.03.07-.05-.02-.06-.03-.07l-.04.09c-.02-.05-.02-.1,0-.13.04,0,.1.05.1.09,0,.05-.04.09-.08.11l-.09.05.03-.08s-.07-.06-.05-.11Z"/></g><g id="Destroyer4"><path class="cls-1" d="M67.27,445.95h.44s1.4,0,1.4,0h.35c.22-.02.43-.02.65-.02h.37c.13-.01.26-.04.36-.12l.48-.02,1.88-.12,1.78-.19-.36.42c-.11.14-.21.27-.31.42h-2.31s-3.31,0-3.31,0h-2.65c-.1-.12-.15-.27-.15-.42l1.37.04ZM74.3,445.72s.02.08.05.11l-.03.08.09-.05s.08-.06.08-.11c0-.04-.05-.1-.1-.09-.02.03-.02.08,0,.13l.04-.09s.02.05.03.07-.05.06-.07.05l-.09-.1Z"/><path class="cls-1" d="M67.04,446.47c-.08.05-.16.09-.24.06v.04s-.02,0-.06,0l-.02-.12h-.1s0,.14,0,.14h-.14s-.02-.15-.02-.15c-.13,0-.24,0-.35-.06h.74s7.43,0,7.43,0c-.05.09-.15.16-.27.16h-5.87c-.22,0-.41-.02-.62-.06-.07-.01-.13,0-.19,0-.09,0-.19-.08-.28-.02Z"/><path class="cls-1" d="M66.76,445.9v-.07s-.05,0-.05,0v.06s-.48-.01-.48-.01c0-.02,0-.03.01-.03l.05-.02h-.15s-.03.06-.03.06l-.02-.05s-.13-.04-.18.03v-.11s.17,0,.17,0h.16s.21,0,.21,0h.11s.19,0,.19,0c.1,0,.19,0,.29.01v.14s-.13,0-.13,0v-.07s-.04,0-.04,0v.06s-.13,0-.13,0Z"/><path class="cls-1" d="M73.21,445.53l.03.1-.4.03v-.06s-.05-.02-.07-.03v-.11s.05-.08.1-.07l.28.04c.1.09.3,0,.45.05l-.39.04Z"/><path class="cls-1" d="M74.17,445.51c-.03.06-.17.07-.22.02l-.03.04s-.05,0-.07,0l.06-.03h-.07s.07-.04.07-.04c-.03-.01-.05-.01-.07-.03l.63-.06.39-.03s.06-.08.07-.12v-.23s.03,0,.03,0v.44c-.05-.02-.09-.01-.14,0-.03.01-.05,0-.08,0h-.14s-.03.03-.03.03l-.03-.02h-.16s-.02.06-.02.05-.02-.03-.03-.03h-.16Z"/><path class="cls-1" d="M73.8,445.52v.06s-.03.01-.04.01h-.05s0-.04,0-.07h.1Z"/><path class="cls-1" d="M67.24,445.87v-.17s.18,0,.18,0c.02,0,.05-.03.04-.06l-.37-.03v-.03s.32,0,.32,0c.04,0,.09-.03.13-.04.1-.03.2-.04.31-.04.06.02.07.13.06.19l.14-.04.02-.29h.16s.02-.04,0-.05l-.06-.02.14-.07s.03-.06.05-.06.05.03.06.04c.08.08.03.15.05.16h.06s0-.14,0-.14h.22s0-.16,0-.16c-.02,0-.05,0-.05-.02v-.05s.04,0,.05,0h.16s-.07-.05-.07-.05v-.12c0-.06.04-.1.09-.11s.12.03.12.09v.14s-.06.03-.06.03c.03.02.06.02.11.01v-.5s-.11-.12-.11-.12c.04.03.07.05.11.08v-.36c.06.03.02.18.03.33v.18s.06.01.06.01c.01,0,.01.04.01.05v.06s-.04.01-.07.01v.25s.06.04.06.05c0,.02-.03.04-.06.06v.33s.06,0,.06,0v-.07s.11,0,.11,0v-.09s.09,0,.09,0v.1s.12,0,.12,0v.07s.06,0,.07,0l-.08-.53s0-.07.02-.11l.44-.15s.06.09.08.14v-.53s.03-.3.03-.3l.03.04s.04,0,.04,0l.08-.12v-.04s.01,0,.03,0v-.06s-.02-.03-.04-.04c.02-.01.05-.03.05-.04l-.02-.06.03-.14.04.14-.02.05s.03.04.05.05c-.02,0-.04.02-.05.03v.08s.04,0,.04,0c.02,0,.02-.05.02-.07,0-.07.04-.1.1-.1.06,0,.09.06.08.13v.07s-.03.02-.06.04c.15.06.26.02.28.05,0,.01-.01.05-.03.06l-.17.03v.09s.19,0,.19,0v.06c-.07.02-.13.03-.18.09h.16s0,.04-.02.05l-.12.07.03.21h.03c-.02-.09,0-.1.06-.13l-.04-.02s-.01-.04,0-.05h.2s0,.06,0,.06c0,.01-.04,0-.06,0,0,0-.02.03-.01.03h.05s0,.12,0,.12h.19s.04,0,.03,0l-.04.04s-.02.06,0,.1h.24s0,.31,0,.31c0,.08,0,.16.02.24l.02-.09h.21s0-.12,0-.12l.06-.06s.05-.03.06-.02l.04.05.09.05s.04,0,.05,0c0,0,0,.02,0,.03h-.05s0,.06,0,.06h.23s.04.24.04.24h.09s.05-.19.05-.19l.28.02s.09.03.11.05h.38s0,.03,0,.03l-.32.02s-.07.02-.06.03l.04.06.05.22-1.32.08-.54.02c-.08.07-.19.1-.3.11l-.37.02h-.58s-2.25.02-2.25.02h-.15s.05-.05.05-.05ZM70.45,443.87l-.12-.04v.16s.03-.05.04-.09l.08-.04ZM70.1,444.78l.08-.77c-.08.01-.07.07-.07.13v.36c0,.1-.02.18,0,.28ZM70.24,444.05s-.01-.03-.02-.03h-.02s-.05.5-.05.5h.01s.08-.47.08-.47ZM70.41,444.08l-.15-.04-.12.84.27-.8ZM70.22,445s.05-.03.05-.04v-.13s.1-.01.1-.01c0-.22.04-.42.02-.65l-.25.77s-.05.1-.05.14l.05.3s.07.02.07,0v-.38Z"/><path class="cls-1" d="M73.65,445.53s.02.06,0,.06h-.05s-.05.02-.05,0v-.07s.09,0,.09,0Z"/><path class="cls-1" d="M74.3,445.72l.09.1s.07-.03.07-.05-.02-.06-.03-.07l-.04.09c-.02-.05-.02-.1,0-.13.04,0,.1.05.1.09,0,.05-.04.09-.08.11l-.09.05.03-.08s-.07-.06-.05-.11Z"/></g></g></svg>