<?xml version="1.0" encoding="UTF-8"?><svg id="Calque_2" xmlns="http://www.w3.org/2000/svg" viewBox="0 0 389.8 692.25"><defs><style>.cls-1{stroke:#fff;stroke-miterlimit:10;}.cls-1,.cls-2{fill:none;}.cls-2{stroke:#825402;}.cls-3{fill:#fff;}</style></defs><g id="Calque_5"><rect class="cls-1" x=".5" y=".5" width="388.8" height="691.25"/></g><g id="Nom_de_Pays"><path class="cls-2" d="M295.66,297.09v2.59c0,.27.04.48.12.63s.21.29.39.39c.18.1.39.15.63.15.26,0,.49-.05.67-.14.18-.1.32-.23.4-.4.08-.17.13-.4.13-.69v-2.54h.86v2.65c0,.6-.18,1.06-.54,1.38-.36.32-.87.48-1.52.48-.41,0-.77-.07-1.07-.22s-.53-.36-.69-.64c-.16-.28-.24-.6-.24-.98v-2.68h.86Z"/><path class="cls-2" d="M300.27,298.42v1.44h.01l1.14-1.44h.69l-1.16,1.47,1.51,1.65h-.77l-1.41-1.53v1.53h-.6v-3.12h.6Z"/><path class="cls-2" d="M303.9,298.42c.29,0,.53.08.72.24.19.16.28.37.28.63,0,.18-.05.33-.14.46-.09.13-.23.24-.41.31.1.05.19.13.27.22.08.09.17.25.29.47.19.38.33.64.42.78h-.67c-.05-.07-.11-.18-.19-.33-.17-.33-.3-.56-.38-.67s-.16-.2-.23-.25c-.07-.05-.16-.07-.26-.07h-.22v1.32h-.6v-3.12h1.12ZM303.76,299.75c.16,0,.28-.04.37-.12s.14-.19.14-.32-.04-.25-.13-.32-.22-.11-.38-.11h-.38v.87h.38Z"/><path class="cls-2" d="M307.3,298.42l1.38,3.12h-.64l-.32-.76h-1.39l-.3.76h-.63l1.29-3.12h.62ZM306.52,300.32h1.01l-.53-1.23-.48,1.23Z"/><path class="cls-2" d="M309.66,298.42v3.12h-.6v-3.12h.6Z"/><path class="cls-2" d="M310.89,298.42l1.85,2.18v-2.18h.59v3.12h-.52l-1.86-2.21v2.21h-.59v-3.12h.53Z"/><path class="cls-2" d="M316.04,298.42v.47h-1.41v.82h1.35v.47h-1.35v.89h1.45v.47h-2.05v-3.12h2.02Z"/><path class="cls-3" d="M295.66,297.09v2.59c0,.27.04.48.12.63s.21.29.39.39c.18.1.39.15.63.15.26,0,.49-.05.67-.14.18-.1.32-.23.4-.4.08-.17.13-.4.13-.69v-2.54h.86v2.65c0,.6-.18,1.06-.54,1.38-.36.32-.87.48-1.52.48-.41,0-.77-.07-1.07-.22s-.53-.36-.69-.64c-.16-.28-.24-.6-.24-.98v-2.68h.86Z"/><path class="cls-3" d="M300.27,298.42v1.44h.01l1.14-1.44h.69l-1.16,1.47,1.51,1.65h-.77l-1.41-1.53v1.53h-.6v-3.12h.6Z"/><path class="cls-3" d="M303.9,298.42c.29,0,.53.08.72.24.19.16.28.37.28.63,0,.18-.05.33-.14.46-.09.13-.23.24-.41.31.1.05.19.13.27.22.08.09.17.25.29.47.19.38.33.64.42.78h-.67c-.05-.07-.11-.18-.19-.33-.17-.33-.3-.56-.38-.67s-.16-.2-.23-.25c-.07-.05-.16-.07-.26-.07h-.22v1.32h-.6v-3.12h1.12ZM303.76,299.75c.16,0,.28-.04.37-.12s.14-.19.14-.32-.04-.25-.13-.32-.22-.11-.38-.11h-.38v.87h.38Z"/><path class="cls-3" d="M307.3,298.42l1.38,3.12h-.64l-.32-.76h-1.39l-.3.76h-.63l1.29-3.12h.62ZM306.52,300.32h1.01l-.53-1.23-.48,1.23Z"/><path class="cls-3" d="M309.66,298.42v3.12h-.6v-3.12h.6Z"/><path class="cls-3" d="M310.89,298.42l1.85,2.18v-2.18h.59v3.12h-.52l-1.86-2.21v2.21h-.59v-3.12h.53Z"/><path class="cls-3" d="M316.04,298.42v.47h-1.41v.82h1.35v.47h-1.35v.89h1.45v.47h-2.05v-3.12h2.02Z"/><path class="cls-3" d="M295.66,297.09v2.59c0,.27.04.48.12.63s.21.29.39.39c.18.1.39.15.63.15.26,0,.49-.05.67-.14.18-.1.32-.23.4-.4.08-.17.13-.4.13-.69v-2.54h.86v2.65c0,.6-.18,1.06-.54,1.38-.36.32-.87.48-1.52.48-.41,0-.77-.07-1.07-.22s-.53-.36-.69-.64c-.16-.28-.24-.6-.24-.98v-2.68h.86Z"/><path class="cls-3" d="M300.27,298.42v1.44h.01l1.14-1.44h.69l-1.16,1.47,1.51,1.65h-.77l-1.41-1.53v1.53h-.6v-3.12h.6Z"/><path class="cls-3" d="M303.9,298.42c.29,0,.53.08.72.24.19.16.28.37.28.63,0,.18-.05.33-.14.46-.09.13-.23.24-.41.31.1.05.19.13.27.22.08.09.17.25.29.47.19.38.33.64.42.78h-.67c-.05-.07-.11-.18-.19-.33-.17-.33-.3-.56-.38-.67s-.16-.2-.23-.25c-.07-.05-.16-.07-.26-.07h-.22v1.32h-.6v-3.12h1.12ZM303.76,299.75c.16,0,.28-.04.37-.12s.14-.19.14-.32-.04-.25-.13-.32-.22-.11-.38-.11h-.38v.87h.38Z"/><path class="cls-3" d="M307.3,298.42l1.38,3.12h-.64l-.32-.76h-1.39l-.3.76h-.63l1.29-3.12h.62ZM306.52,300.32h1.01l-.53-1.23-.48,1.23Z"/><path class="cls-3" d="M309.66,298.42v3.12h-.6v-3.12h.6Z"/><path class="cls-3" d="M310.89,298.42l1.85,2.18v-2.18h.59v3.12h-.52l-1.86-2.21v2.21h-.59v-3.12h.53Z"/><path class="cls-3" d="M316.04,298.42v.47h-1.41v.82h1.35v.47h-1.35v.89h1.45v.47h-2.05v-3.12h2.02Z"/><path class="cls-2" d="M202.89,368.72c.41,0,.74.11,1,.32.26.21.39.48.39.8,0,.2-.05.38-.16.54-.11.16-.26.28-.47.37v.04c.31.07.55.21.73.42.17.21.26.45.26.73,0,.25-.06.47-.19.66-.13.2-.3.34-.53.44-.22.1-.49.15-.79.15h-1.87v-4.46h1.63ZM202.66,370.57c.23,0,.41-.05.54-.16.13-.11.2-.26.2-.45,0-.17-.06-.31-.18-.41-.12-.1-.28-.15-.48-.15h-.62v1.18h.54ZM202.86,372.51c.29,0,.51-.05.66-.16.15-.11.22-.27.22-.48,0-.19-.07-.34-.22-.45-.15-.11-.35-.16-.6-.16h-.81v1.26h.74Z"/><path class="cls-2" d="M206.81,370.02c.32,0,.61.07.87.2s.46.33.62.58c.15.25.23.53.23.82s-.07.56-.22.81c-.15.25-.35.44-.62.58-.26.14-.56.21-.88.21s-.62-.07-.88-.21c-.26-.14-.47-.33-.62-.58s-.22-.52-.22-.81.07-.55.22-.81c.15-.25.35-.45.61-.59s.56-.21.89-.21ZM205.71,371.62c0,.21.05.39.14.56s.22.29.39.38c.17.09.36.14.57.14.32,0,.58-.1.79-.3.21-.2.31-.46.31-.78,0-.21-.05-.39-.14-.56-.09-.17-.22-.29-.39-.39-.17-.09-.36-.14-.57-.14s-.4.05-.57.14c-.17.09-.3.22-.39.38-.09.16-.14.35-.14.56Z"/><path class="cls-2" d="M210,370.02c.3,0,.6.08.88.23v.54c-.32-.19-.61-.29-.86-.29-.15,0-.27.03-.36.09s-.13.14-.13.24c0,.12.08.23.24.33.04.03.22.11.52.25.26.12.44.26.55.4.11.15.17.32.17.53,0,.27-.1.48-.29.65-.19.16-.44.25-.75.25-.2,0-.37-.02-.51-.07-.14-.04-.3-.12-.48-.23v-.59c.33.28.65.41.94.41.15,0,.27-.03.36-.1.09-.06.14-.15.14-.25,0-.14-.08-.26-.24-.35-.13-.07-.3-.16-.51-.26-.25-.11-.43-.24-.55-.39s-.18-.32-.18-.52c0-.26.1-.47.29-.63.2-.16.45-.23.77-.23Z"/><path class="cls-2" d="M212.06,370.06l1.85,2.18v-2.18h.59v3.12h-.52l-1.86-2.21v2.21h-.59v-3.12h.53Z"/><path class="cls-2" d="M215.81,370.06v3.12h-.6v-3.12h.6Z"/><path class="cls-2" d="M218.53,370.06v.47h-1.41v.82h1.35v.47h-1.35v.89h1.44v.47h-2.05v-3.12h2.02Z"/><path class="cls-2" d="M220.68,371.32v.75h-1.65v-.75h1.65Z"/><path class="cls-2" d="M222.28,368.72v1.88h2.31v-1.88h.86v4.46h-.86v-1.88h-2.31v1.88h-.86v-4.46h.86Z"/><path class="cls-2" d="M226.75,372.26c.13,0,.24.05.34.14s.15.21.15.35-.05.25-.14.34c-.1.1-.21.15-.35.15s-.25-.05-.35-.15c-.1-.1-.15-.21-.15-.34s.05-.25.15-.35c.1-.1.21-.14.34-.14Z"/><path class="cls-3" d="M202.89,368.72c.41,0,.74.11,1,.32.26.21.39.48.39.8,0,.2-.05.38-.16.54-.11.16-.26.28-.47.37v.04c.31.07.55.21.73.42.17.21.26.45.26.73,0,.25-.06.47-.19.66-.13.2-.3.34-.53.44-.22.1-.49.15-.79.15h-1.87v-4.46h1.63ZM202.66,370.57c.23,0,.41-.05.54-.16.13-.11.2-.26.2-.45,0-.17-.06-.31-.18-.41-.12-.1-.28-.15-.48-.15h-.62v1.18h.54ZM202.86,372.51c.29,0,.51-.05.66-.16.15-.11.22-.27.22-.48,0-.19-.07-.34-.22-.45-.15-.11-.35-.16-.6-.16h-.81v1.26h.74Z"/><path class="cls-3" d="M206.81,370.02c.32,0,.61.07.87.2s.46.33.62.58c.15.25.23.53.23.82s-.07.56-.22.81c-.15.25-.35.44-.62.58-.26.14-.56.21-.88.21s-.62-.07-.88-.21c-.26-.14-.47-.33-.62-.58s-.22-.52-.22-.81.07-.55.22-.81c.15-.25.35-.45.61-.59s.56-.21.89-.21ZM205.71,371.62c0,.21.05.39.14.56s.22.29.39.38c.17.09.36.14.57.14.32,0,.58-.1.79-.3.21-.2.31-.46.31-.78,0-.21-.05-.39-.14-.56-.09-.17-.22-.29-.39-.39-.17-.09-.36-.14-.57-.14s-.4.05-.57.14c-.17.09-.3.22-.39.38-.09.16-.14.35-.14.56Z"/><path class="cls-3" d="M210,370.02c.3,0,.6.08.88.23v.54c-.32-.19-.61-.29-.86-.29-.15,0-.27.03-.36.09s-.13.14-.13.24c0,.12.08.23.24.33.04.03.22.11.52.25.26.12.44.26.55.4.11.15.17.32.17.53,0,.27-.1.48-.29.65-.19.16-.44.25-.75.25-.2,0-.37-.02-.51-.07-.14-.04-.3-.12-.48-.23v-.59c.33.28.65.41.94.41.15,0,.27-.03.36-.1.09-.06.14-.15.14-.25,0-.14-.08-.26-.24-.35-.13-.07-.3-.16-.51-.26-.25-.11-.43-.24-.55-.39s-.18-.32-.18-.52c0-.26.1-.47.29-.63.2-.16.45-.23.77-.23Z"/><path class="cls-3" d="M212.06,370.06l1.85,2.18v-2.18h.59v3.12h-.52l-1.86-2.21v2.21h-.59v-3.12h.53Z"/><path class="cls-3" d="M215.81,370.06v3.12h-.6v-3.12h.6Z"/><path class="cls-3" d="M218.53,370.06v.47h-1.41v.82h1.35v.47h-1.35v.89h1.44v.47h-2.05v-3.12h2.02Z"/><path class="cls-3" d="M220.68,371.32v.75h-1.65v-.75h1.65Z"/><path class="cls-3" d="M222.28,368.72v1.88h2.31v-1.88h.86v4.46h-.86v-1.88h-2.31v1.88h-.86v-4.46h.86Z"/><path class="cls-3" d="M226.75,372.26c.13,0,.24.05.34.14s.15.21.15.35-.05.25-.14.34c-.1.1-.21.15-.35.15s-.25-.05-.35-.15c-.1-.1-.15-.21-.15-.34s.05-.25.15-.35c.1-.1.21-.14.34-.14Z"/><path class="cls-3" d="M202.89,368.72c.41,0,.74.11,1,.32.26.21.39.48.39.8,0,.2-.05.38-.16.54-.11.16-.26.28-.47.37v.04c.31.07.55.21.73.42.17.21.26.45.26.73,0,.25-.06.47-.19.66-.13.2-.3.34-.53.44-.22.1-.49.15-.79.15h-1.87v-4.46h1.63ZM202.66,370.57c.23,0,.41-.05.54-.16.13-.11.2-.26.2-.45,0-.17-.06-.31-.18-.41-.12-.1-.28-.15-.48-.15h-.62v1.18h.54ZM202.86,372.51c.29,0,.51-.05.66-.16.15-.11.22-.27.22-.48,0-.19-.07-.34-.22-.45-.15-.11-.35-.16-.6-.16h-.81v1.26h.74Z"/><path class="cls-3" d="M206.81,370.02c.32,0,.61.07.87.2s.46.33.62.58c.15.25.23.53.23.82s-.07.56-.22.81c-.15.25-.35.44-.62.58-.26.14-.56.21-.88.21s-.62-.07-.88-.21c-.26-.14-.47-.33-.62-.58s-.22-.52-.22-.81.07-.55.22-.81c.15-.25.35-.45.61-.59s.56-.21.89-.21ZM205.71,371.62c0,.21.05.39.14.56s.22.29.39.38c.17.09.36.14.57.14.32,0,.58-.1.79-.3.21-.2.31-.46.31-.78,0-.21-.05-.39-.14-.56-.09-.17-.22-.29-.39-.39-.17-.09-.36-.14-.57-.14s-.4.05-.57.14c-.17.09-.3.22-.39.38-.09.16-.14.35-.14.56Z"/><path class="cls-3" d="M210,370.02c.3,0,.6.08.88.23v.54c-.32-.19-.61-.29-.86-.29-.15,0-.27.03-.36.09s-.13.14-.13.24c0,.12.08.23.24.33.04.03.22.11.52.25.26.12.44.26.55.4.11.15.17.32.17.53,0,.27-.1.48-.29.65-.19.16-.44.25-.75.25-.2,0-.37-.02-.51-.07-.14-.04-.3-.12-.48-.23v-.59c.33.28.65.41.94.41.15,0,.27-.03.36-.1.09-.06.14-.15.14-.25,0-.14-.08-.26-.24-.35-.13-.07-.3-.16-.51-.26-.25-.11-.43-.24-.55-.39s-.18-.32-.18-.52c0-.26.1-.47.29-.63.2-.16.45-.23.77-.23Z"/><path class="cls-3" d="M212.06,370.06l1.85,2.18v-2.18h.59v3.12h-.52l-1.86-2.21v2.21h-.59v-3.12h.53Z"/><path class="cls-3" d="M215.81,370.06v3.12h-.6v-3.12h.6Z"/><path class="cls-3" d="M218.53,370.06v.47h-1.41v.82h1.35v.47h-1.35v.89h1.44v.47h-2.05v-3.12h2.02Z"/><path class="cls-3" d="M220.68,371.32v.75h-1.65v-.75h1.65Z"/><path class="cls-3" d="M222.28,368.72v1.88h2.31v-1.88h.86v4.46h-.86v-1.88h-2.31v1.88h-.86v-4.46h.86Z"/><path class="cls-3" d="M226.75,372.26c.13,0,.24.05.34.14s.15.21.15.35-.05.25-.14.34c-.1.1-.21.15-.35.15s-.25-.05-.35-.15c-.1-.1-.15-.21-.15-.34s.05-.25.15-.35c.1-.1.21-.14.34-.14Z"/></g></svg>