<?xml version="1.0" encoding="UTF-8"?><svg id="Calque_2" xmlns="http://www.w3.org/2000/svg" viewBox="0 0 388.8 691.25"><defs><style>.cls-1{fill:#0050a8;fill-rule:evenodd;}.cls-2{stroke:#000;stroke-linecap:round;stroke-linejoin:round;stroke-width:3px;}.cls-2,.cls-3{fill:none;}.cls-3{stroke:#fff;stroke-linecap:square;stroke-linejoin:bevel;}</style></defs><g id="Picto"><g vector-effect="non-scaling-stroke"><path class="cls-2" d="M339.61,411.51c0,1.07-.87,1.94-1.94,1.94s-1.94-.87-1.94-1.94.87-1.94,1.94-1.94,1.94.87,1.94,1.94"/><path class="cls-1" d="M339.61,411.51c0,1.07-.87,1.94-1.94,1.94s-1.94-.87-1.94-1.94.87-1.94,1.94-1.94,1.94.87,1.94,1.94"/><path class="cls-3" d="M339.61,411.51c0,1.07-.87,1.94-1.94,1.94s-1.94-.87-1.94-1.94.87-1.94,1.94-1.94,1.94.87,1.94,1.94"/></g><g vector-effect="non-scaling-stroke"><path class="cls-2" d="M178.98,435.67c0,1.07-.87,1.94-1.94,1.94s-1.94-.87-1.94-1.94.87-1.94,1.94-1.94,1.94.87,1.94,1.94"/><path class="cls-1" d="M178.98,435.67c0,1.07-.87,1.94-1.94,1.94s-1.94-.87-1.94-1.94.87-1.94,1.94-1.94,1.94.87,1.94,1.94"/><path class="cls-3" d="M178.98,435.67c0,1.07-.87,1.94-1.94,1.94s-1.94-.87-1.94-1.94.87-1.94,1.94-1.94,1.94.87,1.94,1.94"/></g><g vector-effect="non-scaling-stroke"><path class="cls-2" d="M138.53,303.83c0,1.07-.87,1.94-1.94,1.94s-1.94-.87-1.94-1.94.87-1.94,1.94-1.94,1.94.87,1.94,1.94"/><path class="cls-1" d="M138.53,303.83c0,1.07-.87,1.94-1.94,1.94s-1.94-.87-1.94-1.94.87-1.94,1.94-1.94,1.94.87,1.94,1.94"/><path class="cls-3" d="M138.53,303.83c0,1.07-.87,1.94-1.94,1.94s-1.94-.87-1.94-1.94.87-1.94,1.94-1.94,1.94.87,1.94,1.94"/></g><g vector-effect="non-scaling-stroke"><path class="cls-2" d="M158.56,179.28c0,1.07-.87,1.94-1.94,1.94s-1.94-.87-1.94-1.94.87-1.94,1.94-1.94,1.94.87,1.94,1.94"/><path class="cls-1" d="M158.56,179.28c0,1.07-.87,1.94-1.94,1.94s-1.94-.87-1.94-1.94.87-1.94,1.94-1.94,1.94.87,1.94,1.94"/><path class="cls-3" d="M158.56,179.28c0,1.07-.87,1.94-1.94,1.94s-1.94-.87-1.94-1.94.87-1.94,1.94-1.94,1.94.87,1.94,1.94"/></g></g></svg>