<?xml version="1.0" encoding="UTF-8"?><svg id="Calque_2" xmlns="http://www.w3.org/2000/svg" viewBox="0 0 841.81 594.3"><defs><style>.cls-1{fill:#0f0f0f;}.cls-2{fill:#dfdfdf;}.cls-3{fill:#939393;}.cls-4{fill:#bdbdbd;}.cls-5{fill:#ddd;}.cls-6{fill:#a7a7a7;}.cls-7{fill:#d6d6d6;}.cls-8{fill:#d2d2d2;}.cls-9{fill:#0a0a0a;}.cls-10{fill:#b6b6b6;}.cls-11{fill:#efefef;}.cls-12{fill:#d9d9d9;}.cls-13{fill:#1c1c1c;}.cls-14{fill:#b5b5b5;}.cls-15{fill:#111;}.cls-16{fill:#bbb;}.cls-17{fill:#979797;}.cls-18{fill:#c1c1c1;}.cls-19{fill:#4f4f4f;}.cls-20{fill:#e5e5e5;}.cls-21{fill:#d8d8d8;}.cls-22{fill:#b4b4b4;}.cls-23{fill:#c3c3c3;}.cls-24{fill:#b1b1b1;}.cls-25{fill:#c9c9c9;}.cls-26{fill:#c6c6c6;}.cls-27{fill:#bababa;}.cls-28{fill:#bebebe;}.cls-29{fill:#dadada;}.cls-30{fill:#b3b3b3;}.cls-31{fill:#b7b7b7;}.cls-32{fill:#f9f9f9;}.cls-33{fill:#cacaca;}.cls-34{fill:#d7d7d7;}.cls-35{fill:#bcbcbc;}.cls-36{fill:#dedede;}.cls-37{fill:#515151;}.cls-38{fill:#959595;}.cls-39{fill:#b8b8b8;}.cls-40{stroke:#7a7a7a;stroke-linecap:round;stroke-linejoin:round;stroke-width:.25px;}.cls-40,.cls-41{fill:none;}.cls-42{fill:#c5c5c5;}.cls-43{fill:#f8f8f8;}.cls-44{fill:#949494;}.cls-45{fill:#989898;}.cls-46{fill:#b9b9b9;}.cls-47{fill:#c2c2c2;}.cls-48{fill:#fcfcfc;}.cls-49{fill:#ededed;}.cls-50{fill:#dcdcdc;}.cls-51{fill:#aeaeae;}.cls-52{fill:#d3d3d3;}.cls-41{opacity:0;stroke:#c16868;stroke-miterlimit:10;stroke-width:.1px;}.cls-53{fill:#fbfbfb;}.cls-54{fill:#bfbfbf;}.cls-55{fill:#c8c8c8;}.cls-56{fill:#fdfdfd;}.cls-57{fill:#b2b2b2;}.cls-58{fill:#0e0e0e;}.cls-59{fill:#cfcfcf;}.cls-60{fill:#090909;}</style></defs><g id="Ligne_de_front"><rect id="Cadre" class="cls-41" x=".05" y=".05" width="841.71" height="594.2"/></g><g id="AWACS"><g id="AWACS4"><path class="cls-40" d="M364.83,230.08c-.09-.03-.17-.05-.24-.02l-2.11.91-.27.11-.24-.2-.07-.07-.27-.22-.26-.19-.18-.12s-.07-.07-.1-.09l-.24-.15h-.04c.04-.25,0-.49-.06-.72l-.22.15-2.3,1.36-.21.11c.57.6,1.49.69,2.14.2l.17.06.33.16.16.06.11.04.1.04.47.19.18.06.15.04.31,2.64c.11.13.25.22.4.28l.29.16.2-.84s.03.01.05.03c0,0,.02-.02.02-.03v-.05s-.03.04-.03.04c0,0-.01-.01-.02-.02l.28-1.17.06.02s.02-.01.02-.02c0,0,0-.03-.01-.03l-.07.02.09-.37s.04.01.04.02l.02.05v-.06s-.03-.04-.04-.05c0,0,0-.04,0-.04l-.07-.03-.04-.05.25.08s.05.01.05,0,0-.05-.02-.06l-.17-.14.02-.02.11.08s.08,0,.07-.02c0-.01,0-.02,0-.04l.25-.24h0s-.12.15-.12.15c.11-.07.18-.15.26-.24l-.09.05s0,0,0,0l.65-.61-.16.16h.03s.29-.29.29-.29h-.03s.7-.67.7-.67l-.06-.03.04-.03.02.06s.01,0,.02,0l.02-.05-.58-.35ZM363.1,231.94l-.08-.02c-.05-.02-.08-.09-.08-.14l.15.1.02.05ZM365.09,230.3l.11.06-.02.02-.19-.1s.08.02.1.03ZM365.21,230.39h0s.06,0,.1.02l-.02.03-.08-.05Z"/><path class="cls-40" d="M359.31,229.3l.29-.17.57-.33.21-.12c-.57-.59-1.45-.68-2.1-.22-.04,0-.09-.02-.13-.04l-.34-.2h0s.71-.76.71-.76l2.35-2.04,2.65-1.61s.08,0,.1,0l.14-.11.08-.05.72.42h.04s-.85-.51-.85-.51c-.17-.1-.37-.2-.57-.27h-.07s-.12-.02-.12-.02c-.05-.03-.14-.04-.2-.02l-.24.08-1.98.8-.09-.04c-.21-.14-.47-.25-.67-.41-.11-.09-.2-.16-.31-.22l-.08-.04s-.09-.04-.13-.06c0,0-.07-.05-.08-.03l-.12.18-.02.04-.08.16s.02.06.04.07l.14.09.06.04.18.1.18.06.42.23s.03.05.03.05l-1.79.73-.79-.47s-.04-.07-.06-.08l-.23-.14-.07-.04-.15-.08-.08-.02-.11.15-.06.1-.06.14s.03.06.04.07l.13.08.13.07.3.14.5.27s.05.05.05.06l-3.02,1.13s-.08-.02-.1-.03l-1.63-.94-.59-.34c-.35-.2-.72-.35-1.1-.45l-.52-.13s-.1,0-.12.01c-.27-.06-.68-.09-.59.07l.19.34c.05.09.14.17.21.27l.67.64s.06.07.1.09l.12.08.56.35,2.1,1.21.53,3.22-.1-.04c-.17-.08-.33-.17-.46-.29-.09-.08-.18-.15-.28-.2l-.11-.06-.11-.06s-.07-.02-.1-.02l-.1.15s-.05.06-.06.11l-.06.13s.04.05.06.06l.12.08.09.05c.1.05.26.11.38.17l.63.35.11.04.26,1.9-.02.04-.46-.28c-.11-.07-.19-.16-.29-.21l-.11-.05-.13-.06-.04-.02s-.05.02-.06.04l-.21.36.08.06.11.08.08.05.28.15h.08s.74.43.74.43l.32,2.26.04.12s.07-.03.1-.03l.08.02-.04.05s.05.12.06.16h-.06c.17.22.39.34.6.46l.86.49v-.03s-.74-.43-.74-.43l.02-.27.02-.3v-.41s.1-1.33.1-1.33v.03s.02.01.02.01v-.26s.02-.24.02-.24l.15-2.11v.02s.01-.21.01-.21l.49-1.67.2-.7.22.13.14.07c-.03.23,0,.45.07.66l.23-.15,1.27-.75.15-.09ZM359.88,225.52l.16-.1-.26.16.09-.06ZM356.1,229.41h0s.01-.07.02-.08v.08ZM356.88,227.68h0s.01,0,.01,0h-.01Z"/><path class="cls-40" d="M358.39,230.61l.23-.13.38-.22.46-.27.58-.34.24-.14.12-.07.06-.03s.01-.06,0-.08l-.26-.45-1.22.72-.21.12-.4.25-.26.15-.2.12.29.5.19-.12Z"/><path class="cls-5" d="M354.01,232.73v.1s-.04.14-.04.14l.19.07-.16-.11.11-.14c.1.05.18.14.29.21l.46.28.02-.04.03.27s-.02.06-.03.07c0,.02.01.03.03.05l.05.19-.74-.42s-.02-.08,0-.09l.09-.03-.18-.1-.03.08h.12s-.08.14-.08.14l-.28-.15c0-.06.04-.1.08-.13l-.05-.05s-.05.02-.05.03v.05s-.07.06-.07.06l-.11-.08.23-.44.13.06Z"/><path class="cls-56" d="M356.33,231.82s.09.01.13,0l.05.07s-.04.03-.08.03l-.02.34c0,.05-.02.13,0,.17l.03.08s-.05.05-.06.04l-.05-.03s-.09-.02-.15-.02v-.24s.02-.06.02-.09v-.25s.24-.02.24-.02l-.17-.02.03-.08s.04.01.05.02Z"/><path class="cls-56" d="M355.99,231.65s.08.02.11.03c.01,0,.06.02.05.03l-.03.07s-.02.09-.01.11c0,.02.04.03.06.03v.25s-.13,0-.13,0l.03-.27-.22-.02v-.21s.14,0,.14,0Z"/><path class="cls-3" d="M353.88,232.67l-.23.44-.08-.06.21-.36s.05-.04.06-.04l.04.02Z"/><path class="cls-59" d="M356.33,231.82s-.05-.03-.05-.02l-.03.08.17.02-.24.02s-.05-.02-.06-.03c0-.02,0-.09.01-.11l.03-.07s-.04-.02-.05-.03h.05s.02-.05.03-.07c.03.08.08.15.14.2Z"/><path class="cls-46" d="M363.76,223.7s.02-.03.01-.04l-.06-.04.02-.03s0-.02,0-.04l.85.5h-.04s-.72-.4-.72-.4l-.08.05Z"/><path class="cls-52" d="M356.35,231.16l-.04-.06s-.02-.05-.03-.05l-.29-.03c.08-.01.22,0,.31,0,.02,0,.05-.06.04-.07l-.09-.03h.13s.01-.07.01-.07h.02s-.06.3-.06.3Z"/><path class="cls-8" d="M356.4,232.43s0-.12,0-.17l.02-.34s.09-.01.08-.03l-.05-.07h.07s0,.2,0,.2l-.05-.11c-.03.11-.02.18-.03.28l-.04.23Z"/><path class="cls-17" d="M353.27,230.62s-.05-.05-.06-.06l.06-.13.04-.04.07.07-.1.17Z"/><path class="cls-45" d="M353.53,230.19l-.1.17-.1-.04.1-.15s.08,0,.1.02Z"/><polygon class="cls-31" points="354.11 232.78 354 232.92 354.16 233.04 353.97 232.97 354 232.83 354.01 232.73 354.11 232.78"/><path class="cls-34" d="M356.35,231.16l-.05.23-.05-.09s-.04-.02-.05-.02l.06-.02s0-.03.01-.04l.04-.11.04.06Z"/><path class="cls-14" d="M354.21,233.39h-.08s.08-.14.08-.14h-.12s.03-.09.03-.09l.18.1-.09.03s0,.07,0,.09Z"/><path class="cls-22" d="M353.49,230.76l-.09-.05.12-.18.07.06c-.06.03-.1.1-.1.17Z"/><path class="cls-7" d="M356.58,230.03s0-.09-.02-.1l-.12-.04h.13s.08-.06.1-.09c.02.04.02.11-.02.12-.04,0-.05.04-.07.11Z"/><path class="cls-22" d="M353.85,233.24l-.08-.05.07-.06v-.05s.04-.04.05-.03l.05.05s-.08.07-.08.13Z"/><path class="cls-5" d="M356.83,230.04l.03-.04s.04.04.04,0c.06.01.13.04.12.14l-.19-.1Z"/><path class="cls-56" d="M356.08,231.89l-.03.27h.14s-.02.07-.03.09c-.02.05-.02.14-.02.21h-.11s.18.06.18.06c-.17.05-.4.04-.39,0v-.05s.22,0,.22,0v-.02s-.21,0-.21,0v-.03s.02-.49.02-.49c0,0,.05-.03.06-.03h.18Z"/><path class="cls-5" d="M357.09,224.33l-.08.13h-.12s.27.15.27.15c0-.02.01-.07,0-.08l-.07-.06.08-.1.23.14s.05.05.06.08l.79.47s-.07.03-.12.03h-.11s-.01.03-.02.04l-.04.03s0,.03,0,.07l-.18.07s-.03-.05-.05-.06l-.5-.27-.3-.14s-.02-.09,0-.11l.07-.09-.09-.05c0,.07-.04.14-.1.17l-.13-.08.08-.11s.04-.07.02-.08l-.08-.02.06-.1.07.04s.05-.04.06-.05l.06-.11.15.07ZM357.41,224.9l-.05-.06c-.11,0-.18-.12-.2-.07l-.02.05.12.04.14.04Z"/><path class="cls-50" d="M359.4,223.41s0,.09-.02.11c-.04.02-.11.02-.15,0v.03s0,.05,0,.05c.01,0,.04-.03.05-.03s.06.02.07.03l.2.12v-.02s0-.07,0-.07l-.13-.08.07-.11c.11.06.21.13.31.22.2.16.46.27.67.41,0,.05-.05.09-.1.12l.19.1-.09.05c-.08-.02-.18-.04-.23-.12l-.22.1s-.02-.04-.03-.05l-.42-.23-.18-.06-.18-.1.11-.17-.09-.05-.09.18-.14-.09.12-.15-.08-.07.02-.04.11.02.09-.16s.1.03.13.06ZM359.57,223.73l.14.08s.02.05.03.05l.05-.03c-.05-.05-.09-.08-.15-.12v-.06s-.05.06-.05.06v.02ZM359.71,223.94l-.21-.11-.03.05s.01.04.02.04h.06s.04.06.06.05l.09-.03Z"/><path class="cls-56" d="M356.06,233.89l.17-.1c.06.02.07.07.06.11-.02.04-.04.05-.08.09l.04.05.11-.14v.07s0,.1,0,.1l-.23-.02h-.32s-.03-.02-.03-.02c-.02-.06-.02-.16-.01-.24l.02-.04s.05-.04.06-.04h.21s.02.19.02.19Z"/><path class="cls-42" d="M356.11,234.61h-.03s-.02-.02-.02-.02v-.02s.04-.06.04-.09l.02-.33h-.21s0,.15,0,.15l-.02-.06-.02-.09c.09-.04.18,0,.18-.03l.02-.08h-.27s.32-.02.32-.02l.23.02.02-.1v.39s-.02.26-.02.26h-.01s0-.33,0-.33h-.02s-.01.22-.01.22l-.02-.21c.09-.04.1-.12.06-.22h-.15s0,.06,0,.06l-.05.04-.03.24v.2Z"/><path class="cls-14" d="M359.48,223.45l-.07.11.13.08.02.07h.01s.05-.06.05-.06v.06c.07.04.11.07.16.12l-.05.03s-.02-.04-.03-.05l-.14-.08s0,0-.01,0l-.2-.12s-.05-.03-.07-.03-.04.02-.05.03v-.05s0-.03,0-.03c.04.02.11.02.15,0,.03-.02.03-.06.02-.11l.08.04Z"/><path class="cls-24" d="M357.16,224.38l-.08.1.07.06s0,.05,0,.08l-.27-.16h.12s.08-.12.08-.12l.07.04Z"/><path class="cls-45" d="M359.27,223.35l-.09.16-.11-.02.12-.18s.07.02.08.03Z"/><path class="cls-27" d="M356.93,224.85l-.13-.07c.06-.04.1-.1.1-.17l.09.05-.07.09s-.02.08,0,.11Z"/><path class="cls-38" d="M359.01,223.77s-.05-.05-.04-.07l.08-.16.08.07-.12.15Z"/><path class="cls-17" d="M356.94,224.26l-.06.11s-.04.06-.06.05l-.07-.04.11-.15.08.02Z"/><path class="cls-38" d="M356.68,224.69s-.04-.05-.04-.07l.06-.14.08.02s0,.06-.02.08l-.08.11Z"/><polygon class="cls-28" points="359.22 223.9 359.16 223.86 359.24 223.68 359.33 223.73 359.22 223.9"/><path class="cls-51" d="M357.41,224.9l-.14-.04-.12-.04.02-.05s.08.06.2.07l.05.06Z"/><path class="cls-51" d="M359.71,223.94l-.09.03s-.04-.03-.06-.06h-.06s-.03-.02-.02-.03l.03-.05.21.11Z"/><polygon class="cls-56" points="356.08 232.84 355.82 232.84 355.84 232.58 356.1 232.58 356.08 232.84"/><path class="cls-36" d="M351.33,224.73c.27.07.55.16.81.29l.08.04.86.48.07.04,1.7.98.24.14v.07s.05-.04.05-.04c.01,0,.05.02.06.03l.45.26,2.36,1.36v.04s-.01.03-.01.03c0,0,.04-.05.05-.04l.16.09c-.36.26-.58.66-.63,1.09l-.72-.41-.48-.29s-.05-.03-.09-.04l-1.09-.63-3.17-1.83-.57-.35s-.03-.05-.03-.04l-.03.04-.12-.08s-.08-.06-.1-.09h.04c.09-.01-.22-.18-.35-.33,0-.04,0-.07-.02-.1l-.08-.13.04-.09-.05.03s-.05-.04-.04-.05l.05-.05-.12.05v-.32s.07-.06.07-.06l.18-.09s.13.03.17.06l.04-.05c.07.01.15,0,.21,0ZM351.16,225.08s-.06-.01-.06,0l-.08.13h.07s.08-.07.08-.13Z"/><path class="cls-36" d="M362.98,223.27s-.1,0-.17,0c.07.05.13.09.17.09s.1-.04.12-.08h.07c.2.07.39.17.57.27,0,.02,0,.03,0,.04l-.02.03.06.04s-.01.03-.01.04l-.14.11s-.1.03-.1,0v-.09s-.3-.18-.3-.18l-.69.4v.04s0,0,0,0-.04-.02-.04-.02l-.39.22v.07s-.06-.04-.08-.03l-.39.22v.04s-.03-.03-.04-.03l-.17.09.07.11-.04.03s0,0,0-.01l-.05-.11-.52.32h-.07s-.78.5-.78.5l.02.03-.16.1-.73.46-.39.26-.16.1s0,.05.01.05c0,0-.01,0-.02,0l-.03-.02-.45.34.07.1v.02s-.1-.11-.1-.11l-.08.07.07.1s0,.01,0,.02l-.09-.11-.43.32s-.02.04-.02.08c-.05-.03-.17.02-.15.11-.06-.02-.08.01-.14.05l-.33.26s-.05.05-.04.06l-1.15-.66s0-.04-.02-.04h-.05s-.67-.38-.67-.38l2.46-1c.03.06.05.04.05-.02l.62-.24.18.11s.02.03.02.03c0,0,.05,0,.06,0l.23.13s.07.01.09,0c.02,0,.05-.08.03-.09l-.19-.14s0-.06-.02-.02l-.18-.12,1.95-.79c.05-.02.11-.04.15-.04l.37.2s.09.02.12-.03c.02-.03-.01-.08-.05-.1l-.23-.17,2.21-.89-.08-.16c.06-.02.15-.02.2.02ZM360.35,224.78c.07-.03.08-.04.08-.06,0-.01-.03-.05-.04-.04-.02.01-.08.04-.09.02l-.03-.09.2-.08-.03-.06-.27.11.16.39s.07-.02.06-.03l-.02-.05s-.03-.1-.03-.11ZM360.1,224.99c.07-.02.1.08.17.02l-.25-.35s-.07.03-.08.04l.07.43c.08-.02.05-.11.1-.13ZM359.81,225.2c.09-.04.1-.13.06-.2s-.13-.06-.2-.02c-.02.01-.08-.04-.07-.06,0-.02.05-.05.07-.05h.13c-.04-.11-.12-.09-.18-.06-.08.03-.11.11-.08.18.08.15.23-.01.27.06,0,.02-.02.08-.04.08l-.16.02c.04.07.12.08.19.04ZM359.22,224.98s-.06.03-.06.04l.13.3c.02.05.13.03.17.01.04-.02.1-.09.08-.12l-.13-.33-.07.03.12.31s-.11.08-.12.05l-.14-.3Z"/><path class="cls-36" d="M356.18,228.84l-.06.45s.05.03.05.04c0,0,0,.02,0,.01l-.06-.02s-.03.05-.02.07l.04.07s-.06.1-.05.17l.28.04c-.11.05-.28-.05-.29.01v.07c-.02.15-.04.3-.07.43l-.04.15v.16s-.02.34-.02.34l-.03.18s-.03-.02-.05-.02h-.15c-.08-.02-.15-.02-.23-.05l-.1.02s-.1-.04-.13-.04h-.26s-.1-.03-.14-.02h-.08s-.07-.47-.07-.47c.07-.02.05-.04,0-.05l-.2-1.45-.02-.12-.15-1.07.29.18c-.02.07.01.09.03.02l.36.2v.23s-.02.11,0,.15l.04-.35.57.33v.14s.02.01.02.01v-.14s.57.32.57.32ZM355.52,229.09c-.04-.06-.03-.07.02-.05.03.01.07,0,.02-.02l.04-.34-.02-.02-.03.26s0,.07-.02.07l-.09.03s.07.07.08.07ZM354.75,230.33h.02s.06-.49.06-.49l-.02-.03-.06.53Z"/><path class="cls-36" d="M355.89,231.02v.2s-.02.3-.02.3l-.03-.05v.47s0,.49,0,.49l-.04-.05v.39s-.02.3-.02.3l-.02.26v.31s-.03.05-.02.06l.03.04-.02.04c-.05.09,0,.22-.03.23l-.08.03-.15.03s-.13-.06-.16-.04c-.05.04-.09.05-.13.05l-.03-.19v-.08s.28.14.28.14c.02.01.08,0,.1-.02s.01-.08-.01-.1l-.4-.25-.22-1.48.06-.03v-.15s.01-.03.01-.04l.03-.43.2.1s.09-.02.1-.05c0-.02-.02-.08-.04-.09l-.24-.15v-.3s.2-.02.2-.02c.03,0,.09.02.13.04l.1-.02c.08.03.15.03.23.04h.15s.05.02.05.03ZM355.27,232.47c-.07.05-.12.14-.12.23,0,.25.2.23.22.35l.03.24.23-.03-.03-.32c.09-.05.13-.15.13-.25,0-.11-.07-.2-.17-.26l-.06-.05-.03-.26-.23.03.03.31Z"/><path class="cls-36" d="M360.85,230.03s.02.05.04.06l.31.19.18.12.26.19.27.22.07.07.24.2s.02.05.03.06l.24.2.25-.29,1-.47s.06-.02.09-.04l.87-.41h.07s.22.13.22.13l-.2.15s-.06.02-.05.04l.02.07-.08-.04-.26.18-.09.06-.29.18.06.1-.08-.08-.34.22.05.07h-.01s-.06-.05-.06-.05l-.33.22.02.05s0,0-.01,0l-.04-.03-.17.11s0,.06-.02.05-.04,0-.05,0l-.16.09c-.06-.02-.11-.06-.17-.13l-.03.07.13.1s.05.06.08.08l-.03.12.27.12-.02-.07-.03-.1.11.1.13-.1.11-.06s.03.02.02.02c0,0-.02.02-.03.02l-.17.15.2.15-.04.04-.02.03.17.15-.22-.08-.04.04s-.05.03-.07.02l-.05-.03.02-.04s-.02-.03-.03-.03l-.15-.08c-.05-.09-.15-.13-.25-.09-.11-.02-.21-.06-.32-.12-.02-.01-.04.04,0,.04.07.06.13.09.2.11-.05.12.02.25-.03.4-.02.05-.02.12-.03.19h-.27s-.01.02-.01.02h.28s.02.13.02.13c0,.02,0,.06-.03.06l-.02.11h-.32s-.08,0-.13,0l-.05-.61c-.01-.14.02-.26.05-.27h.07s-.08-.04-.08-.04l.07-.17-.36-.1-.15-.04.02-.02-.12-.07c.24-.02.39.14.63.16l-.24-.1v-.05s0,0,0,0l-.04.03-.23-.09c-.06-.02-.17.02-.19.08l-.47-.19-.1-.04-.11-.04-.16-.06v-.03s-.35-.17-.35-.17l-.08-.07c.33-.25.53-.63.59-1.04h.04ZM362.16,231.28s.06-.04.07-.04l.03.03s.05.02.07.03l-.34-.3-.08.02.27.2-.02.07ZM361.57,231.24l.05-.1.51.22-.43-.25h-.22s.02.02.03.03c0,0-.01.02-.02.02h-.06s.1.1.1.1c-.02,0-.04.02-.04.02.03,0,.25.21.42.23l-.35-.27ZM361.17,231.36s-.02-.05.03-.06l-.28-.13v.02s.04.02.04.02l-.02.02-.2-.08.05.04s-.09.04-.1.07c.04-.01.1-.04.13-.03l.36.12ZM362.71,231.79l-.56-.32s-.06,0-.05.02l.02.04.55.32.03-.06Z"/><path class="cls-38" d="M362.11,232.97l.03.39v.07s.04.36.04.36v.04s.06.63.06.63l-.11-.04-.31-2.64.36.1-.07.17.08.03h-.07s-.07.14-.05.28l.05.61Z"/><path class="cls-44" d="M364.77,230.13h-.07s-.87.42-.87.42c-.02.03-.06.03-.09.04l-1,.47-.25.29-.24-.2s-.03-.06-.03-.06l.27-.11,2.11-.91c.06,0,.12.03.17.07Z"/><path class="cls-48" d="M363.19,232.26l.05.03s.05,0,.07-.02l.07.08s0,.04,0,.05l-.06.24h-.15s.01.02.01.02h.13s-.16.61-.16.61c-.04-.04-.05-.11-.04-.15h-.17s.06-.46.06-.46l.14-.03h-.13s.05-.27.05-.27l-.02-.16.03.13.02-.11.1.03Z"/><path class="cls-5" d="M362.54,234.01l-.02.19.07.03-.06.03-.02.27s0,.08.02.12c0,0-.02.02-.02.02l.02.03c-.15-.06-.29-.15-.4-.28l.11.04-.05-.63.34.02.02.17Z"/><path class="cls-48" d="M363.13,233.38l-.03.1s0,.06,0,.08l-.06.26c-.05.09-.1.05-.16.09,0,0-.03-.02-.03-.02-.02-.05-.02-.13,0-.2l.05-.23.02-.18c.07.05.13.09.2.11Z"/><path class="cls-23" d="M362.95,233.12l-.02.15-.02.18-.05.23c-.01.06-.01.15,0,.2,0-.01-.03.02-.04.03l-.05.34.09.03h-.1s-.06.48-.06.48l.07.03s.03-.03.03-.03l.02.09-.29-.16h.09s.03-.06.03-.06l.03.09.36-2.35h-.03s0,.09,0,.09l-.06-.11h.07s.01-.04.01-.06l.03-.08.02.16-.05.26h.13s-.14.04-.14.04l-.06.46Z"/><path class="cls-8" d="M364.99,230.27l-.22-.14c-.05-.03-.11-.06-.17-.07.07-.03.15,0,.24.02l.58.35-.02.05s-.01,0-.02,0l-.02-.06-.13.09.09-.1s-.08-.04-.1-.02l-.07.05-.05.03s-.01-.03,0-.04l.1-.07-.11-.06s-.08-.03-.1-.03Z"/><path class="cls-23" d="M363.11,233.56s-.01-.06,0-.08l.03-.1.03-.1.16-.6h-.13s-.01-.03-.01-.03h.15s.06-.25.06-.25c0-.01,0-.05,0-.05h.05s0,.04,0,.04c.02.01.05.03.05.05v.06s-.03-.05-.03-.05c0,0-.02-.01-.05-.02l-.09.37.07-.02s.01.02.01.03c0,.01-.01.03-.02.02l-.06-.02-.19.74Z"/><path class="cls-22" d="M361.66,231.73l-.18-.06c.03-.06.13-.1.19-.08l.23.09.04-.03s.02,0,.01,0v.05s.24.1.24.1c-.24-.02-.39-.18-.63-.16l.12.07-.02.02Z"/><path class="cls-28" d="M362.89,231.64s.06.05.05.12h-.05s-.05-.04-.08-.07l-.13-.1.03-.07c.07.06.11.11.17.13Z"/><path class="cls-54" d="M362.94,231.76c-.01.05.02.13.08.15l.08.02.02.07-.27-.12.03-.12h.05Z"/><path class="cls-27" d="M363.3,232.28l.04-.04.22.08-.17-.15.02-.03.17.14s.02.05.02.06-.04,0-.05,0l-.25-.08Z"/><polygon class="cls-31" points="360.65 231.33 360.32 231.18 360.15 231.12 360.22 231.07 360.3 231.14 360.66 231.3 360.65 231.33"/><polygon class="cls-50" points="364.38 231.43 364.67 231.14 364.7 231.15 364.41 231.44 364.38 231.43"/><path class="cls-33" d="M362.89,233.9c.06-.04.11,0,.16-.09l-.03.16s.03.03.03.03c0,0,.01-.02.03-.04v.05s0,.03-.01.03c-.03-.02-.05-.04-.06-.03l-.03.06.02-.17h-.11Z"/><path class="cls-25" d="M363.61,232.19s-.06.03-.07.02l-.05-.06.19-.16-.1.12s0,.06.02.08Z"/><path class="cls-57" d="M361.19,230.27l-.31-.19s-.04-.05-.04-.06l.24.15s.07.07.1.09Z"/><polygon class="cls-47" points="364.42 231.28 364.69 231.01 364.72 231.02 364.45 231.29 364.42 231.28"/><path class="cls-21" d="M363.85,231.93v-.08s.03.04.05.03l.09-.05c-.07.09-.15.17-.26.24l.12-.14Z"/><path class="cls-56" d="M362.76,232.09l.29.11-.03.08s0,.05-.01.05h-.07s.06.11.06.11v-.08s.04,0,.04,0l-.36,2.35-.03-.09-.03.06h-.09s-.02-.02-.02-.02c0,0,.03-.02.02-.02-.01-.03-.02-.08-.02-.12l.02-.27.06-.03-.07-.03.02-.19v-.35s.02-.03.02-.04v-.19c.07,0,.09-.02.02-.02v-.13s0-.05,0-.06v-.35s.03-.04.03-.06v-.21s.11-.02.11-.02c-.03,0-.1,0-.1-.02v-.09c.05-.15-.02-.28.03-.4l.11.03Z"/><path class="cls-36" d="M362.24,232.98l.33.02v.21s0,.05,0,.06c-.01.03-.02.07-.03.13l-.21-.02-.19-.03-.03-.39c.05,0,.09,0,.13,0Z"/><path class="cls-39" d="M361.57,231.24l.35.27c-.16-.02-.39-.24-.42-.23,0,0,.02-.01.04-.02l-.1-.11h.06s.03,0,.02-.01c0,0-.03-.03-.03-.03h.22s.43.25.43.25l-.51-.22-.05.1Z"/><path class="cls-18" d="M362.71,231.79l-.03.06-.55-.32-.02-.04s.04-.02.05-.02l.56.32Z"/><path class="cls-42" d="M361.17,231.36l-.36-.12s-.09.02-.13.03c0-.03.05-.06.1-.07l-.05-.04.2.08.02-.02-.05-.02v-.02s.3.13.3.13c-.05.01-.05.02-.03.06Z"/><path class="cls-59" d="M363.02,232.11l.15.08s.03.02.03.03l-.02.04-.1-.03-.02.11-.03-.13-.29-.11s.02,0,.03,0l.13.04s.08,0,.1,0Z"/><path class="cls-46" d="M362.77,232.02v.06s-.01,0-.02,0l-.11-.03c-.08-.02-.14-.05-.2-.11-.03,0-.02-.05,0-.04.12.06.21.09.32.12Z"/><path class="cls-14" d="M362.16,231.28l.02-.07-.27-.2.08-.02.34.3s-.06-.02-.07-.03l-.03-.03s-.03,0-.07.04Z"/><path class="cls-32" d="M363.02,232.11s-.08.01-.1,0l-.13-.04v-.06c.08-.04.18,0,.23.09Z"/><path class="cls-47" d="M362.61,232.46v.09s.08.02.11.02l-.11.02v.21s-.02-.13-.02-.13h-.28s.01-.03.01-.03h.27c0-.07,0-.14.03-.19Z"/><polygon class="cls-23" points="362.58 232.86 362.58 233.21 362.57 233 362.24 232.98 362.56 232.97 362.58 232.86"/><path class="cls-36" d="M362.56,233.62s0,.03-.01.04c-.02.03-.02.07-.02.15h-.17s-.18-.02-.18-.02l-.03-.36s.09-.03.11-.03l.28.03.02.19Z"/><path class="cls-18" d="M362.56,233.62l-.02-.19-.28-.03s-.1.01-.11.03v-.07s.18.03.18.03l.21.02c0-.06.01-.1.03-.13v.13c.08,0,.06.02,0,.02v.19Z"/><path class="cls-47" d="M362.54,234.01l-.02-.17-.34-.02v-.04s.18.02.18.02h.17c0-.08,0-.11.02-.15v.35Z"/><path class="cls-56" d="M363.16,233.28l-.03.1c-.08-.02-.13-.06-.2-.11l.02-.15h.17s0,.11.04.15Z"/><path class="cls-60" d="M357.58,229.64v-.04c.06-.44.27-.84.63-1.09l.07-.05c.65-.46,1.54-.36,2.1.22l-.21.12-.57.33-.29.17-.15.09-1.27.75-.23.15c-.07-.21-.1-.43-.07-.66Z"/><path class="cls-60" d="M360.81,230.03c-.06.41-.26.79-.59,1.04l-.07.05c-.65.48-1.57.4-2.14-.2l.21-.11,2.3-1.36.22-.15c.07.23.1.47.06.72Z"/><path class="cls-56" d="M359,230.26l-.38.22-.23.13-.19.12-.29-.5.2-.12.26-.15.4-.25.21-.12,1.22-.72.26.45s0,.07,0,.08l-.06.03-.12.07-.24.14-.58.34-.46.27Z"/><path class="cls-36" d="M355.74,234.51s.09.06.12.06h.2s0,.02,0,.02h-.28s0,.1,0,.1l-.02.02v.8s.03-.08.03-.08v.12s0,.61,0,.61l-.09.03h.11s0,.21,0,.21l.3.18s.01.1,0,.13l-.03.14c-.21-.12-.43-.24-.6-.44h.06c-.01-.06-.04-.13-.06-.18l.04-.05-.08-.02h.07s-.28-2.03-.28-2.03l.35-.03h.17s0,.4,0,.4Z"/><path class="cls-38" d="M358.1,225.29l.03.04-.62.24c0,.06-.02.08-.05.02l-2.46,1-.14-.05-.11-.08s.01-.02.02-.03l3.02-1.13.18-.07s-.02-.06,0-.07l.04-.03-.02.07.13.09Z"/><path class="cls-38" d="M354.32,227.76l.15,1.07.02.12.2,1.45c.06,0,.08.03,0,.05l.07.48.02.13-.02.05s-.06-.04-.08-.04h-.1s-.01-.05,0-.05h.05s-.03-.18-.03-.18l-.53-3.22.25.15Z"/><path class="cls-5" d="M353.64,230.25l-.02.1s-.03.05-.04.05h-.1s.49.28.49.28v-.07s.06-.09.06-.09c.13.11.3.2.46.29l.1.04.03.19h-.05s0,.05,0,.04h.1s.05.05.05.05c.02,0,.06.03.06.05v.09s-.09-.02-.09-.02l-.1-.07-.02.04s-.01.03-.01.03h.04s.01.1.01.1l-.11-.04-.63-.35c-.12-.07-.28-.12-.38-.17,0-.08.04-.14.1-.17l-.07-.06-.12.18-.12-.08.1-.17-.07-.07-.04.04s.03-.08.06-.11l.1.04.1-.17.11.06ZM353.81,230.89c.04-.07.04-.08.06-.09l.08-.03-.17-.09s-.06.05-.05.07h.1s0,.08-.03.1c0,0,.02.05.02.04Z"/><path class="cls-38" d="M362.78,223.25l.08.16-2.21.89s-.07.01-.09,0l-.19-.1c.06-.03.09-.07.1-.12l.09.04,1.98-.8.24-.08Z"/><path class="cls-38" d="M355.12,233.73h.03s0,.03,0,.03l.02.13.03.19v.05s0,.02,0,.02l.28,2.02h-.07s-.06.02-.1.04l-.04-.12-.32-2.26-.05-.19.16.08.05.02Z"/><path class="cls-44" d="M360.47,224.36l-.02.05s-.1.01-.15.04l-1.95.79-.05.04-.26-.16-.04.02s.02-.04.02-.04h.11s.08-.02.12-.03l1.79-.73.22-.1c.06.08.15.1.23.12Z"/><path class="cls-38" d="M354.69,231.23l.07.04s.05.04.06.05v.08s.09.69.09.69l.22,1.48-.02.02-.12-.08s-.07-.02-.08-.02l-.03-.27-.26-1.9v-.1s-.05,0-.05,0c0,0,0-.02.01-.03l.02-.04.1.07Z"/><path class="cls-14" d="M356.87,229.19v.05s-.09-.04-.09-.04l-.16-.1-.43-.25-.56-.32v.14s-.03-.01-.03-.01v-.14s-.57-.33-.57-.33l-.04.35s0-.1,0-.15v-.23s-.34-.2-.34-.2c-.02.08-.05.05-.03-.02l-.29-.18-.25-.15-2.1-1.21-.56-.35.03-.04s.02.02.03.04l.57.35,3.17,1.83,1.09.63s.06.02.09.04l.48.29Z"/><path class="cls-9" d="M350.7,224.56l.14.03-.04.06-.22.12s-.04.01-.04.02v.05s0,.02,0,.02c0,0-.02.04-.02.05v.26s-.21-.2-.21-.2l-.19-.34c-.09-.16.32-.13.59-.07Z"/><path class="cls-18" d="M356.07,236.86l.03-.14s.02-.12,0-.13l.03-.15.02-.21-.18-.02.27-.02-.2-.04-.15-.04h.07s.03-.01.03-.01c0,0,0-.03,0-.04l.02-.24v-.19s-.21,0-.21,0v.42s.04.05.04.03c-.03,0-.04.07-.04.11h.15s-.01.03-.01.03h-.14s-.11,0-.11,0l.09-.03v-.61s.04.04.05.04h.2s.02-.33.02-.33v-.12s-.02-.04-.01-.04l.03-.03.02-.26v-.21s.04,0,.04,0l-.02.28-.02.3-.02.28-.03.41-.02.26h.22c-.01-.1-.03-.16.01-.24v.41s-.03.3-.03.3l-.02.27.74.43v.03s-.86-.49-.86-.49Z"/><path class="cls-4" d="M354.76,226.44s-.02.03-.02.03l.11.08v.02s-1.71-.98-1.71-.98l-.07-.04-.86-.48-.08-.04c-.26-.13-.54-.22-.81-.29l-.02-.03s.03-.01.03-.02c.38.1.75.25,1.1.45l.59.34,1.63.94s.08.03.1.03Z"/><path class="cls-59" d="M356.31,232.52c-.05,0-.13.04-.18.08v.31s-.02-.01-.02-.01l-.02-.12.02.46h-.02s0,.3,0,.3l-.03.36-.02-.18h-.21s-.07.02-.06.03l-.03-.04s.02-.05.02-.06v-.31s.02-.26.02-.26v-.3s.02-.39.02-.39l.04.05v.03s.19,0,.19,0v.02s-.2,0-.2,0v.05s.22.06.39,0l-.18-.05h.11c0-.09,0-.17.02-.23v.24c.06,0,.12,0,.16.02ZM356.08,232.84l.03-.26h-.26s-.02.26-.02.26h.25ZM356.1,233.22l-.02-.19v-.17s-.27,0-.27,0v.27s.26,0,.26,0v.11s.03-.01.03-.01ZM356.05,233.4v-.25s-.23,0-.23,0l-.03.26h.27ZM356.03,233.68v-.25s-.24,0-.24,0v.26s.24,0,.24,0Z"/><path class="cls-30" d="M356.88,227.68l.54.31.09.05.64.38s.09.04.13.04l-.07.05-.16-.09s-.04.04-.05.04c0,0,0-.02,0-.03v-.04s-2.35-1.36-2.35-1.36v-.04s.06,0,.06,0c.01,0,.01.03.02.04l1.15.66Z"/><path class="cls-30" d="M350.58,224.77s.03.07.06.07c.03,0,.07-.03.09-.04v.02s-.07.06-.07.06v.32s.11-.05.11-.05l-.05.05s.03.05.04.05l.05-.03-.04.09.08.13s.02.06.02.1c.13.15.44.32.35.32h-.04s-.67-.63-.67-.63c-.08-.1-.16-.18-.21-.27l.2.2v-.26s.01-.06.02-.05v.22s.07,0,.08-.02l.02-.11s0-.07-.01-.09c-.01-.02-.05-.02-.08-.02v-.05s.03-.02.05-.02Z"/><path class="cls-6" d="M351.34,224.68s-.03.01-.03.02l.02.03c-.06.02-.14.02-.21,0l-.04.05s-.13-.06-.17-.06l-.18.09v-.02s.09-.05.09-.05c.02-.01-.01-.09-.02-.1l.04-.06-.14-.03s.09-.02.12-.01l.52.13Z"/><path class="cls-12" d="M360.04,225.74l.22-.15s0-.04,0-.05c0-.01.04,0,.05,0l.54-.35.13-.1.1.02-1.01.67-.03-.05Z"/><path class="cls-50" d="M359.38,226.19l.05.04s.03.02.04.02h.02s.02.06.02.06c-.04-.02-.08-.03-.11-.03-.03,0-.07.04-.1.06l-.51.45c-.06-.05-.09-.09-.13-.16l.11.09.54-.48-.04-.08.06.03s.04,0,.05-.01Z"/><path class="cls-29" d="M353.75,230.31c.1.05.2.12.28.2l-.06.09-.11-.08-.2-.11.09-.11Z"/><path class="cls-55" d="M360.87,224.88l-.16.11s-.06.06-.08.08c-.08,0-.19.07-.23.15-.08.01-.19.07-.24.15-.03,0-.08.02-.11.04l-.02-.03.78-.5h.07Z"/><path class="cls-14" d="M353.75,230.31l-.09.11.2.11.11.08v.07s-.49-.28-.49-.28h.1s.04-.03.04-.05l.02-.1.11.06Z"/><polygon class="cls-30" points="357.59 229.6 357.58 229.64 357.44 229.57 356.94 229.28 356.87 229.24 356.87 229.19 357.59 229.6"/><path class="cls-52" d="M358.08,226.91s0-.02,0-.02c.02.01.05.02.06.01.02-.01.04-.05.04-.08v-.02s.11.04.11.04l-.08.06.2.21c.04-.05.06-.07.11-.06l-.15.12-.2-.24s-.05.04-.06.03l-.05-.06Z"/><path class="cls-26" d="M355.99,230.18s0,.07.02.07l.18.04.03-.09s0,.1-.03.15h.1s-.1.05-.1.05c-.02,0-.01.08-.01.1-.04-.1-.21-.09-.21-.07l-.02.06v-.16s.03-.15.03-.15ZM356.16,230.32l-.17-.05-.03.11.17.04.03-.1Z"/><path class="cls-35" d="M361.44,225.02s-.05.04-.08.05l-.07-.11.1-.07.03.05s.05,0,.06,0l-.04.09Z"/><path class="cls-53" d="M362.98,223.27l.12.02s-.08.07-.12.08-.09-.04-.17-.09c.06,0,.12-.01.17,0Z"/><path class="cls-59" d="M355.87,231.51v.12s.13.02.13.02h-.14s0,.22,0,.22l.22.02h-.18s-.06.02-.06.03v-.47s.03.05.03.05Z"/><path class="cls-42" d="M359.48,226.25h-.02s-.03,0-.04,0l-.05-.04.09-.13.07.12s-.04.06-.06.07Z"/><path class="cls-10" d="M354.99,226.6l.67.39v.04s-.46-.26-.46-.26c-.02,0-.05-.03-.06-.03l-.06.04v-.07s-.23-.14-.23-.14v-.02s.14.05.14.05Z"/><path class="cls-46" d="M351.16,225.08c0,.06-.07.15-.08.15h-.07s.08-.15.08-.15c0-.01.06-.02.06,0Z"/><path class="cls-58" d="M360.1,224.99s-.01.11-.1.13l-.07-.43s.06-.03.08-.04l.25.35c-.07.06-.1-.04-.17-.02Z"/><path class="cls-1" d="M359.81,225.2c-.07.03-.15.03-.19-.04l.16-.02s.05-.06.04-.08c-.04-.08-.19.09-.27-.06-.04-.07,0-.15.08-.18.06-.02.14-.05.18.05h-.13s-.07.04-.07.06c-.01.02.05.08.07.06.06-.04.16-.04.2.02s.03.15-.06.2Z"/><path class="cls-1" d="M359.22,224.98l.14.3s.12-.02.12-.05l-.12-.31.07-.03.13.33s-.05.11-.08.12c-.04.02-.15.04-.17-.01l-.13-.3s.04-.04.06-.04Z"/><path class="cls-15" d="M360.35,224.78s.02.08.03.11l.02.05s-.04.03-.06.03l-.16-.39.27-.11.03.06-.2.08.03.09s.06,0,.09-.02c.01,0,.04.03.04.04,0,.02-.02.03-.08.06Z"/><path class="cls-30" d="M358.13,225.34l-.03-.04.11.04.42.23s.08,0,.08,0-.02-.05-.03-.05l-.38-.23.05-.04.18.12s.03,0,.02.02l.19.14s0,.08-.03.09c-.02,0-.07,0-.09,0l-.23-.13s-.05,0-.06,0c0,0-.01-.03-.02-.03l-.18-.11Z"/><path class="cls-30" d="M360.65,224.3l.23.17s.07.07.05.1c-.03.05-.08.06-.12.03l-.37-.2.02-.05.09-.05s.06,0,.09,0ZM360.87,224.51l-.2-.13c-.06-.04-.12-.07-.18,0l.34.18s.05,0,.06,0,.02-.02.02-.03-.03-.03-.04-.04Z"/><path class="cls-56" d="M358.19,226.82s-.02.06-.04.08c-.02,0-.05,0-.06-.01l-.07-.1.08-.07.1.11Z"/><path class="cls-10" d="M355.24,230.93l-.19.02v.3s.23.15.23.15c.02.01.05.07.04.09,0,.03-.07.07-.1.05l-.2-.1-.03.43s0,.05-.02.04v-.32s.02-.13.02-.16l-.16-.11s-.05-.04-.06-.05l-.07-.04.08.02v-.09s-.03-.04-.05-.05l-.05-.05s.06.02.08.04l.02-.05s.03.07.06.08l.19.1v-.24s-.03-.07-.04-.07h.26ZM355.27,231.52c.02-.12-.09-.12-.15-.16l-.32-.21v.12s.27.14.27.14l.19.1Z"/><path class="cls-5" d="M354.98,230.92s.04.06.04.07v.24s-.19-.1-.19-.1c-.02-.01-.05-.06-.06-.08l-.02-.13h.08s.1-.02.14,0Z"/><path class="cls-35" d="M355.52,229.09s-.07-.04-.08-.07l.09-.03s.02-.05.02-.07l.03-.26.02.02-.04.34c.05.03.01.04-.02.02-.05-.02-.06,0-.02.05Z"/><polygon class="cls-16" points="354.75 230.33 354.81 229.8 354.83 229.83 354.77 230.34 354.75 230.33"/><path class="cls-13" d="M355.6,232.95l-.04.07s0-.04-.01-.04h-.04s-.05.02-.05.02c-.02,0-.05,0-.06.02l-.02.04c-.01-.13-.22-.1-.22-.35,0-.09.05-.18.12-.23l.04-.04h.05s.06,0,.06,0h.04s.04-.03.04-.04l.06.05c.1.06.17.14.17.26,0,.1-.04.2-.13.25ZM355.48,232.81l.17.02-.11-.12.08-.17-.17.07-.13-.12v.18s-.15.08-.15.08l.18.04.03.17.09-.15Z"/><path class="cls-36" d="M354.97,231.92v.15s-.06.03-.06.03l-.1-.69v-.08s.17.11.17.11c0,.04,0,.12-.01.16v.32Z"/><path class="cls-22" d="M355.17,233.88l-.02-.13.11.04s.06.03.07.01l.02-.05s-.03-.03-.04-.04l-.15-.09v.1s-.03,0-.03,0v-.13s.01-.02.01-.02l.4.25s.03.08.01.1-.08.03-.1.02l-.27-.14v.08ZM355.51,233.92c.04-.06-.09-.15-.15-.15-.02,0-.03.07-.01.08l.16.07Z"/><path class="cls-37" d="M355.37,233.05l.02-.04.05.25.04-.02-.02-.25h.05c.01.08.02.17.06.25.03-.08,0-.17,0-.22l.04-.07.03.32-.23.03-.03-.24Z"/><path class="cls-19" d="M355.51,232.39s-.03.04-.04.04c0-.09,0-.18-.06-.27v.27s-.05,0-.05,0l-.02-.21-.06-.03.03.25-.04.04-.03-.31.23-.03.03.26Z"/><path class="cls-42" d="M355.77,234.01l-.02.08s.06.03.09.03l-.09.03v.18s.13.02.13.02h-.13s-.01.16-.01.16v-.42s-.18.01-.18.01l-.35.03v-.02s.29-.03.29-.03l.26-.03-.11-.03.08-.03s-.02-.14.03-.23c0,.08,0,.18.01.24Z"/><path class="cls-36" d="M355.64,234.03l.11.03-.26.03-.29.03v-.05s.07-.01.12-.05c.03-.02.12,0,.16.04l.15-.03Z"/><polygon class="cls-56" points="356.05 234.59 356.07 234.61 356.07 234.82 356.05 235.08 355.97 235.09 355.77 235.08 355.77 234.7 355.77 234.58 356.05 234.59"/><path class="cls-48" d="M355.95,236.1h-.07s.15.06.15.06l.2.04-.27.02.18.02-.02.21-.03.15-.3-.18v-.21s.14,0,.14,0v-.02s-.14,0-.14,0c0-.03.02-.1.04-.11l.13-.05-.02.07Z"/><path class="cls-56" d="M356.05,235.08l-.03.03s.02.03.03.04v.12s-.03.33-.03.33h-.2s-.03-.04-.04-.04v-.12s-.01-.34-.01-.34h.19s.08-.02.08-.02Z"/><path class="cls-56" d="M356.06,234.57h-.2s-.08-.04-.12-.06v-.16s.14,0,.14,0c0,0,.04,0,.04,0s-.01-.03-.01-.04v-.15s.21,0,.21,0l-.02.33s-.02.07-.03.09Z"/><polygon class="cls-18" points="355.97 235.09 355.77 235.11 355.78 235.44 355.75 235.52 355.75 234.72 355.77 234.7 355.77 235.08 355.97 235.09"/><path class="cls-29" d="M358.3,225.28l.38.23s.03.04.03.05-.06.02-.08,0l-.42-.23-.11-.04-.13-.09.02-.07.04-.02.26.16Z"/><path class="cls-5" d="M355.11,233.6v.13s-.04-.02-.04-.02l-.16-.08s-.04-.03-.03-.05c0-.02.03-.06.03-.07.01,0,.07,0,.08.02l.12.08Z"/><path class="cls-6" d="M353.81,230.89s-.01-.03-.02-.04c.02-.02.05-.08.03-.09h-.1s.03-.09.05-.08l.17.09-.08.03s-.02.01-.06.09Z"/><path class="cls-50" d="M355.15,233.75v-.03s0-.1,0-.1l.15.09s.05.03.04.04l-.02.05s-.05,0-.07-.01l-.11-.04Z"/><path class="cls-7" d="M350.73,224.8s-.07.04-.09.04c-.02,0-.06-.05-.06-.07l.22-.12s.04.09.02.1l-.09.05Z"/><path class="cls-2" d="M350.53,224.86v-.02s.06,0,.08.02c.01.01.02.07.01.09l-.02.11s-.05.02-.08.02v-.22Z"/><path class="cls-56" d="M355.95,236.1l.02-.07-.13.05s-.04-.02-.04-.03v-.42s.22,0,.22,0v.19s-.03.24-.03.24c0,0,0,.04,0,.04h-.03Z"/><polygon class="cls-48" points="356.05 233.4 355.78 233.41 355.81 233.14 356.05 233.14 356.05 233.4"/><polygon class="cls-56" points="356.03 233.68 355.78 233.68 355.79 233.42 356.02 233.43 356.03 233.68"/><path class="cls-48" d="M355.79,234.04h.27s-.02.09-.02.09c0,.02-.09-.02-.18.03-.03.02-.08.02-.11,0l.09-.03s-.1,0-.09-.03l.02-.08.03.03Z"/><path class="cls-48" d="M355.86,234.16l.02.09.02.06s.01.04.01.04-.03,0-.04,0l-.13-.02v-.18s.08.02.11,0Z"/><polygon class="cls-53" points="356.16 230.32 356.13 230.42 355.96 230.38 355.99 230.27 356.16 230.32"/><path class="cls-5" d="M360.87,224.51s.03.03.04.04,0,.03-.02.03-.05,0-.06,0l-.34-.18c.06-.08.12-.05.18,0l.2.13Z"/><path class="cls-5" d="M355.27,231.52l-.19-.1-.27-.14v-.12s.32.21.32.21c.06.04.16.04.15.16Z"/><polygon class="cls-43" points="355.48 232.81 355.39 232.96 355.36 232.78 355.18 232.75 355.34 232.67 355.33 232.48 355.46 232.61 355.62 232.54 355.54 232.7 355.65 232.82 355.48 232.81"/><path class="cls-49" d="M355.45,232.99l.02.25-.04.02-.05-.25s.04-.02.06-.02Z"/><polygon class="cls-11" points="355.36 232.43 355.32 232.44 355.28 232.19 355.34 232.22 355.36 232.43"/><path class="cls-20" d="M355.47,232.43h-.04s-.01-.27-.01-.27c.06.09.06.18.06.27Z"/><path class="cls-49" d="M355.56,233.02c.01.06.03.14,0,.22-.04-.08-.05-.17-.06-.25h.04s0,.02.01.03Z"/><path class="cls-50" d="M355.51,233.92l-.16-.07s0-.07.01-.08c.06,0,.19.08.15.15Z"/><polygon class="cls-56" points="363.52 223.81 360.87 225.42 358.52 227.46 357.81 228.22 356.78 227.62 358.3 226.49 360.05 225.42 361.22 224.62 363.22 223.55 363.53 223.73 363.52 223.81"/><polygon class="cls-56" points="356.24 235.9 356.53 231.81 357.02 230.14 357.23 229.42 356.18 228.84 355.92 230.6 355.79 232.76 355.75 234.09 355.79 236.41 356.09 236.59 356.21 236.62 356.24 235.9"/><polygon class="cls-56" points="363.54 232.21 365.38 230.48 364.99 230.27 362.81 231.69 363.54 232.21"/><polygon class="cls-56" points="363.42 232.35 362.82 234.85 362.52 234.69 362.65 232.06 363.42 232.35"/></g><g id="AWACS3"><path class="cls-40" d="M715.43,434.61c-.09-.03-.17-.05-.24-.02l-2.11.91-.27.11-.24-.2-.07-.07-.27-.22-.26-.19-.18-.12s-.07-.07-.1-.09l-.24-.15h-.04c.04-.25,0-.49-.06-.72l-.22.15-2.3,1.36-.21.11c.57.6,1.49.69,2.14.2l.17.06.33.16.16.06.11.04.1.04.47.19.18.06.15.04.31,2.64c.11.13.25.22.4.28l.29.16.2-.84s.03.01.05.03c0,0,.02-.02.02-.03v-.05s-.03.04-.03.04c0,0-.01-.01-.02-.02l.28-1.17.06.02s.02-.01.02-.02c0,0,0-.03-.01-.03l-.07.02.09-.37s.04.01.04.02l.02.05v-.06s-.03-.04-.04-.05c0,0,0-.04,0-.04l-.07-.03-.04-.05.25.08s.05.01.05,0,0-.05-.02-.06l-.17-.14.02-.02.11.08s.08,0,.07-.02c0-.01,0-.02,0-.04l.25-.24h0s-.12.15-.12.15c.11-.07.18-.15.26-.24l-.09.05s0,0,0,0l.65-.61-.16.16h.03s.29-.29.29-.29h-.03s.7-.67.7-.67l-.06-.03.04-.03.02.06s.01,0,.02,0l.02-.05-.58-.35ZM713.7,436.47l-.08-.02c-.05-.02-.08-.09-.08-.14l.15.1.02.05ZM715.68,434.83l.11.06-.02.02-.19-.1s.08.02.1.03ZM715.81,434.92h0s.06,0,.1.02l-.02.03-.08-.05Z"/><path class="cls-40" d="M709.9,433.83l.29-.17.57-.33.21-.12c-.57-.59-1.45-.68-2.1-.22-.04,0-.09-.02-.13-.04l-.34-.2h0s.71-.76.71-.76l2.35-2.04,2.65-1.61s.08,0,.1,0l.14-.11.08-.05.72.42h.04s-.85-.51-.85-.51c-.17-.1-.37-.2-.57-.27h-.07s-.12-.02-.12-.02c-.05-.03-.14-.04-.2-.02l-.24.08-1.98.8-.09-.04c-.21-.14-.47-.25-.67-.41-.11-.09-.2-.16-.31-.22l-.08-.04s-.09-.04-.13-.06c0,0-.07-.05-.08-.03l-.12.18-.02.04-.08.16s.02.06.04.07l.14.09.06.04.18.1.18.06.42.23s.03.05.03.05l-1.79.73-.79-.47s-.04-.07-.06-.08l-.23-.14-.07-.04-.15-.08-.08-.02-.11.15-.06.1-.06.14s.03.06.04.07l.13.08.13.07.3.14.5.27s.05.05.05.06l-3.02,1.13s-.08-.02-.1-.03l-1.63-.94-.59-.34c-.35-.2-.72-.35-1.1-.45l-.52-.13s-.1,0-.12.01c-.27-.06-.68-.09-.59.07l.19.34c.05.09.14.17.21.27l.67.64s.06.07.1.09l.12.08.56.35,2.1,1.21.53,3.22-.1-.04c-.17-.08-.33-.17-.46-.29-.09-.08-.18-.15-.28-.2l-.11-.06-.11-.06s-.07-.02-.1-.02l-.1.15s-.05.06-.06.11l-.06.13s.04.05.06.06l.12.08.09.05c.1.05.26.11.38.17l.63.35.11.04.26,1.9-.02.04-.46-.28c-.11-.07-.19-.16-.29-.21l-.11-.05-.13-.06-.04-.02s-.05.02-.06.04l-.21.36.08.06.11.08.08.05.28.15h.08s.74.43.74.43l.32,2.26.04.12s.07-.03.1-.03l.08.02-.04.05s.05.12.06.16h-.06c.17.22.39.34.6.46l.86.49v-.03s-.74-.43-.74-.43l.02-.27.02-.3v-.41s.1-1.33.1-1.33v.03s.02.01.02.01v-.26s.02-.24.02-.24l.15-2.11v.02s.01-.21.01-.21l.49-1.67.2-.7.22.13.14.07c-.03.23,0,.45.07.66l.23-.15,1.27-.75.15-.09ZM710.48,430.05l.16-.1-.26.16.09-.06ZM706.69,433.94h0s.01-.07.02-.08v.08ZM707.47,432.21h0s.01,0,.01,0h-.01Z"/><path class="cls-40" d="M708.99,435.14l.23-.13.38-.22.46-.27.58-.34.24-.14.12-.07.06-.03s.01-.06,0-.08l-.26-.45-1.22.72-.21.12-.4.25-.26.15-.2.12.29.5.19-.12Z"/></g><g id="AWACS2"><path class="cls-40" d="M408.81,52.74c-.09-.03-.17-.05-.24-.02l-2.11.91-.27.11-.24-.2-.07-.07-.27-.22-.26-.19-.18-.12s-.07-.07-.1-.09l-.24-.15h-.04c.04-.25,0-.49-.06-.72l-.22.15-2.3,1.36-.21.11c.57.6,1.49.69,2.14.2l.17.06.33.16.16.06.11.04.1.04.47.19.18.06.15.04.31,2.64c.11.13.25.22.4.28l.29.16.2-.84s.03.01.05.03c0,0,.02-.02.02-.03v-.05s-.03.04-.03.04c0,0-.01-.01-.02-.02l.28-1.17.06.02s.02-.01.02-.02c0,0,0-.03-.01-.03l-.07.02.09-.37s.04.01.04.02l.02.05v-.06s-.03-.04-.04-.05c0,0,0-.04,0-.04l-.07-.03-.04-.05.25.08s.05.01.05,0,0-.05-.02-.06l-.17-.14.02-.02.11.08s.08,0,.07-.02c0-.01,0-.02,0-.04l.25-.24h0s-.12.15-.12.15c.11-.07.18-.15.26-.24l-.09.05s0,0,0,0l.65-.61-.16.16h.03s.29-.29.29-.29h-.03s.7-.67.7-.67l-.06-.03.04-.03.02.06s.01,0,.02,0l.02-.05-.58-.35ZM407.08,54.6l-.08-.02c-.05-.02-.08-.09-.08-.14l.15.1.02.05ZM409.06,52.96l.11.06-.02.02-.19-.1s.08.02.1.03ZM409.18,53.05h0s.06,0,.1.02l-.02.03-.08-.05Z"/><path class="cls-40" d="M403.28,51.96l.29-.17.57-.33.21-.12c-.57-.59-1.45-.68-2.1-.22-.04,0-.09-.02-.13-.04l-.34-.2h0s.71-.76.71-.76l2.35-2.04,2.65-1.61s.08,0,.1,0l.14-.11.08-.05.72.42h.04s-.85-.51-.85-.51c-.17-.1-.37-.2-.57-.27h-.07s-.12-.02-.12-.02c-.05-.03-.14-.04-.2-.02l-.24.08-1.98.8-.09-.04c-.21-.14-.47-.25-.67-.41-.11-.09-.2-.16-.31-.22l-.08-.04s-.09-.04-.13-.06c0,0-.07-.05-.08-.03l-.12.18-.02.04-.08.16s.02.06.04.07l.14.09.06.04.18.1.18.06.42.23s.03.05.03.05l-1.79.73-.79-.47s-.04-.07-.06-.08l-.23-.14-.07-.04-.15-.08-.08-.02-.11.15-.06.1-.06.14s.03.06.04.07l.13.08.13.07.3.14.5.27s.05.05.05.06l-3.02,1.13s-.08-.02-.1-.03l-1.63-.94-.59-.34c-.35-.2-.72-.35-1.1-.45l-.52-.13s-.1,0-.12.01c-.27-.06-.68-.09-.59.07l.19.34c.05.09.14.17.21.27l.67.64s.06.07.1.09l.12.08.56.35,2.1,1.21.53,3.22-.1-.04c-.17-.08-.33-.17-.46-.29-.09-.08-.18-.15-.28-.2l-.11-.06-.11-.06s-.07-.02-.1-.02l-.1.15s-.05.06-.06.11l-.06.13s.04.05.06.06l.12.08.09.05c.1.05.26.11.38.17l.63.35.11.04.26,1.9-.02.04-.46-.28c-.11-.07-.19-.16-.29-.21l-.11-.05-.13-.06-.04-.02s-.05.02-.06.04l-.21.36.08.06.11.08.08.05.28.15h.08s.74.43.74.43l.32,2.26.04.12s.07-.03.1-.03l.08.02-.04.05s.05.12.06.16h-.06c.17.22.39.34.6.46l.86.49v-.03s-.74-.43-.74-.43l.02-.27.02-.3v-.41s.1-1.33.1-1.33v.03s.02.01.02.01v-.26s.02-.24.02-.24l.15-2.11v.02s.01-.21.01-.21l.49-1.67.2-.7.22.13.14.07c-.03.23,0,.45.07.66l.23-.15,1.27-.75.15-.09ZM403.86,48.18l.16-.1-.26.16.09-.06ZM400.07,52.07h0s.01-.07.02-.08v.08ZM400.85,50.34h0s.01,0,.01,0h-.01Z"/><path class="cls-40" d="M402.37,53.27l.23-.13.38-.22.46-.27.58-.34.24-.14.12-.07.06-.03s.01-.06,0-.08l-.26-.45-1.22.72-.21.12-.4.25-.26.15-.2.12.29.5.19-.12Z"/></g><g id="AWACS1"><path class="cls-40" d="M494.43,448.24c-.09-.03-.17-.05-.24-.02l-2.11.91-.27.11-.24-.2-.07-.07-.27-.22-.26-.19-.18-.12s-.07-.07-.1-.09l-.24-.15h-.04c.04-.25,0-.49-.06-.72l-.22.15-2.3,1.36-.21.11c.57.6,1.49.69,2.14.2l.17.06.33.16.16.06.11.04.1.04.47.19.18.06.15.04.31,2.64c.11.13.25.22.4.28l.29.16.2-.84s.03.01.05.03c0,0,.02-.02.02-.03v-.05s-.03.04-.03.04c0,0-.01-.01-.02-.02l.28-1.17.06.02s.02-.01.02-.02c0,0,0-.03-.01-.03l-.07.02.09-.37s.04.01.04.02l.02.05v-.06s-.03-.04-.04-.05c0,0,0-.04,0-.04l-.07-.03-.04-.05.25.08s.05.01.05,0,0-.05-.02-.06l-.17-.14.02-.02.11.08s.08,0,.07-.02c0-.01,0-.02,0-.04l.25-.24h0s-.12.15-.12.15c.11-.07.18-.15.26-.24l-.09.05s0,0,0,0l.65-.61-.16.16h.03s.29-.29.29-.29h-.03s.7-.67.7-.67l-.06-.03.04-.03.02.06s.01,0,.02,0l.02-.05-.58-.35ZM492.7,450.09l-.08-.02c-.05-.02-.08-.09-.08-.14l.15.1.02.05ZM494.69,448.45l.11.06-.02.02-.19-.1s.08.02.1.03ZM494.81,448.55h0s.06,0,.1.02l-.02.03-.08-.05Z"/><path class="cls-40" d="M488.91,447.46l.29-.17.57-.33.21-.12c-.57-.59-1.45-.68-2.1-.22-.04,0-.09-.02-.13-.04l-.34-.2h0s.71-.76.71-.76l2.35-2.04,2.65-1.61s.08,0,.1,0l.14-.11.08-.05.72.42h.04s-.85-.51-.85-.51c-.17-.1-.37-.2-.57-.27h-.07s-.12-.02-.12-.02c-.05-.03-.14-.04-.2-.02l-.24.08-1.98.8-.09-.04c-.21-.14-.47-.25-.67-.41-.11-.09-.2-.16-.31-.22l-.08-.04s-.09-.04-.13-.06c0,0-.07-.05-.08-.03l-.12.18-.02.04-.08.16s.02.06.04.07l.14.09.06.04.18.1.18.06.42.23s.03.05.03.05l-1.79.73-.79-.47s-.04-.07-.06-.08l-.23-.14-.07-.04-.15-.08-.08-.02-.11.15-.06.1-.06.14s.03.06.04.07l.13.08.13.07.3.14.5.27s.05.05.05.06l-3.02,1.13s-.08-.02-.1-.03l-1.63-.94-.59-.34c-.35-.2-.72-.35-1.1-.45l-.52-.13s-.1,0-.12.01c-.27-.06-.68-.09-.59.07l.19.34c.05.09.14.17.21.27l.67.64s.06.07.1.09l.12.08.56.35,2.1,1.21.53,3.22-.1-.04c-.17-.08-.33-.17-.46-.29-.09-.08-.18-.15-.28-.2l-.11-.06-.11-.06s-.07-.02-.1-.02l-.1.15s-.05.06-.06.11l-.06.13s.04.05.06.06l.12.08.09.05c.1.05.26.11.38.17l.63.35.11.04.26,1.9-.02.04-.46-.28c-.11-.07-.19-.16-.29-.21l-.11-.05-.13-.06-.04-.02s-.05.02-.06.04l-.21.36.08.06.11.08.08.05.28.15h.08s.74.43.74.43l.32,2.26.04.12s.07-.03.1-.03l.08.02-.04.05s.05.12.06.16h-.06c.17.22.39.34.6.46l.86.49v-.03s-.74-.43-.74-.43l.02-.27.02-.3v-.41s.1-1.33.1-1.33v.03s.02.01.02.01v-.26s.02-.24.02-.24l.15-2.11v.02s.01-.21.01-.21l.49-1.67.2-.7.22.13.14.07c-.03.23,0,.45.07.66l.23-.15,1.27-.75.15-.09ZM489.49,443.68l.16-.1-.26.16.09-.06ZM485.7,447.57h0s.01-.07.02-.08v.08ZM486.48,445.84h0s.01,0,.01,0h-.01Z"/><path class="cls-40" d="M488,448.77l.23-.13.38-.22.46-.27.58-.34.24-.14.12-.07.06-.03s.01-.06,0-.08l-.26-.45-1.22.72-.21.12-.4.25-.26.15-.2.12.29.5.19-.12Z"/></g></g></svg>