<?xml version="1.0" encoding="UTF-8"?><svg id="Calque_2" xmlns="http://www.w3.org/2000/svg" viewBox="0 0 841.71 594.2"><defs><style>.cls-1{fill:none;stroke:#1f476b;stroke-width:2px;}.cls-2{fill:#fff;}</style></defs><g id="Nom_de_Pays"><path class="cls-1" d="M255.68,291.24v1.24h-3.41v2.12h3.41v1.25h-3.41v3.59h-1.58v-8.19h4.99Z"/><path class="cls-1" d="M258.92,293.69c.54,0,.98.15,1.32.45s.51.69.51,1.16c0,.33-.08.61-.25.85-.17.24-.42.43-.75.57.18.1.35.23.49.4.14.17.32.45.53.86.35.69.61,1.17.78,1.44h-1.23c-.08-.13-.2-.33-.34-.6-.32-.61-.55-1.02-.7-1.23s-.29-.36-.43-.45-.29-.13-.47-.13h-.4v2.42h-1.11v-5.73h2.06ZM258.67,296.14c.29,0,.52-.07.68-.22.17-.15.25-.34.25-.59s-.08-.46-.25-.59-.4-.19-.7-.19h-.69v1.59h.71Z"/><path class="cls-1" d="M265.17,293.69l2.53,5.73h-1.17l-.59-1.39h-2.55l-.55,1.39h-1.16l2.36-5.73h1.13ZM263.72,297.19h1.85l-.97-2.27-.88,2.27Z"/><path class="cls-1" d="M269.34,293.69l3.4,4v-4h1.08v5.73h-.95l-3.42-4.06v4.06h-1.08v-5.73h.97Z"/><path class="cls-1" d="M278.09,293.62c.33,0,.64.04.96.11s.65.2,1.01.38v1.04c-.35-.2-.68-.35-.98-.44-.3-.09-.61-.13-.94-.13-.41,0-.78.08-1.1.25-.33.17-.58.41-.77.71-.18.31-.27.65-.27,1.02s.09.73.27,1.03c.18.3.43.54.76.7s.7.25,1.11.25c.31,0,.61-.05.9-.14.29-.09.65-.25,1.08-.49v1.04c-.37.19-.71.33-1.03.41s-.68.12-1.09.12c-.6,0-1.14-.12-1.62-.36s-.85-.59-1.12-1.04c-.27-.45-.41-.95-.41-1.49,0-.58.14-1.1.42-1.56.28-.46.67-.81,1.16-1.06.49-.25,1.04-.37,1.66-.37Z"/><path class="cls-1" d="M284.88,293.69v.87h-2.6v1.51h2.49v.86h-2.49v1.63h2.65v.86h-3.76v-5.73h3.7Z"/><path class="cls-2" d="M255.68,291.24v1.24h-3.41v2.12h3.41v1.25h-3.41v3.59h-1.58v-8.19h4.99Z"/><path class="cls-2" d="M258.92,293.69c.54,0,.98.15,1.32.45s.51.69.51,1.16c0,.33-.08.61-.25.85-.17.24-.42.43-.75.57.18.1.35.23.49.4.14.17.32.45.53.86.35.69.61,1.17.78,1.44h-1.23c-.08-.13-.2-.33-.34-.6-.32-.61-.55-1.02-.7-1.23s-.29-.36-.43-.45-.29-.13-.47-.13h-.4v2.42h-1.11v-5.73h2.06ZM258.67,296.14c.29,0,.52-.07.68-.22.17-.15.25-.34.25-.59s-.08-.46-.25-.59-.4-.19-.7-.19h-.69v1.59h.71Z"/><path class="cls-2" d="M265.17,293.69l2.53,5.73h-1.17l-.59-1.39h-2.55l-.55,1.39h-1.16l2.36-5.73h1.13ZM263.72,297.19h1.85l-.97-2.27-.88,2.27Z"/><path class="cls-2" d="M269.34,293.69l3.4,4v-4h1.08v5.73h-.95l-3.42-4.06v4.06h-1.08v-5.73h.97Z"/><path class="cls-2" d="M278.09,293.62c.33,0,.64.04.96.11s.65.2,1.01.38v1.04c-.35-.2-.68-.35-.98-.44-.3-.09-.61-.13-.94-.13-.41,0-.78.08-1.1.25-.33.17-.58.41-.77.71-.18.31-.27.65-.27,1.02s.09.73.27,1.03c.18.3.43.54.76.7s.7.25,1.11.25c.31,0,.61-.05.9-.14.29-.09.65-.25,1.08-.49v1.04c-.37.19-.71.33-1.03.41s-.68.12-1.09.12c-.6,0-1.14-.12-1.62-.36s-.85-.59-1.12-1.04c-.27-.45-.41-.95-.41-1.49,0-.58.14-1.1.42-1.56.28-.46.67-.81,1.16-1.06.49-.25,1.04-.37,1.66-.37Z"/><path class="cls-2" d="M284.88,293.69v.87h-2.6v1.51h2.49v.86h-2.49v1.63h2.65v.86h-3.76v-5.73h3.7Z"/><path class="cls-1" d="M556.33,144.78v6.95h3.97v1.24h-5.55v-8.19h1.58Z"/><path class="cls-1" d="M564.82,147.24v.87h-2.6v1.51h2.49v.86h-2.49v1.63h2.65v.86h-3.76v-5.73h3.7Z"/><path class="cls-1" d="M570.67,147.24v.87h-2.03v4.86h-1.11v-4.86h-2.03v-.87h5.18Z"/><path class="cls-1" d="M576.26,147.24v.87h-2.03v4.86h-1.11v-4.86h-2.03v-.87h5.18Z"/><path class="cls-1" d="M579.7,147.16c.59,0,1.13.12,1.6.37.47.24.85.6,1.13,1.06.28.46.42.97.42,1.52s-.14,1.03-.41,1.49c-.27.46-.65.81-1.13,1.07-.48.25-1.02.38-1.62.38s-1.13-.13-1.62-.39-.86-.61-1.13-1.06-.41-.95-.41-1.49.13-1.02.41-1.48c.27-.46.64-.82,1.12-1.08s1.02-.38,1.64-.38ZM577.68,150.1c0,.38.09.72.26,1.03s.41.54.72.71c.31.17.66.25,1.04.25.59,0,1.07-.19,1.45-.55s.57-.84.57-1.43c0-.38-.09-.72-.26-1.03s-.41-.54-.72-.71c-.31-.17-.66-.25-1.05-.25s-.74.08-1.05.25c-.31.17-.55.4-.72.71-.17.3-.25.64-.25,1.03Z"/><path class="cls-1" d="M584.87,147.24l3.4,4v-4h1.08v5.73h-.95l-3.43-4.06v4.06h-1.08v-5.73h.97Z"/><path class="cls-1" d="M591.75,147.24v5.73h-1.11v-5.73h1.11Z"/><path class="cls-1" d="M596.74,147.24v.87h-2.6v1.51h2.49v.86h-2.49v1.63h2.65v.86h-3.76v-5.73h3.7Z"/><path class="cls-2" d="M556.33,144.78v6.95h3.97v1.24h-5.55v-8.19h1.58Z"/><path class="cls-2" d="M564.82,147.24v.87h-2.6v1.51h2.49v.86h-2.49v1.63h2.65v.86h-3.76v-5.73h3.7Z"/><path class="cls-2" d="M570.67,147.24v.87h-2.03v4.86h-1.11v-4.86h-2.03v-.87h5.18Z"/><path class="cls-2" d="M576.26,147.24v.87h-2.03v4.86h-1.11v-4.86h-2.03v-.87h5.18Z"/><path class="cls-2" d="M579.7,147.16c.59,0,1.13.12,1.6.37.47.24.85.6,1.13,1.06.28.46.42.97.42,1.52s-.14,1.03-.41,1.49c-.27.46-.65.81-1.13,1.07-.48.25-1.02.38-1.62.38s-1.13-.13-1.62-.39-.86-.61-1.13-1.06-.41-.95-.41-1.49.13-1.02.41-1.48c.27-.46.64-.82,1.12-1.08s1.02-.38,1.64-.38ZM577.68,150.1c0,.38.09.72.26,1.03s.41.54.72.71c.31.17.66.25,1.04.25.59,0,1.07-.19,1.45-.55s.57-.84.57-1.43c0-.38-.09-.72-.26-1.03s-.41-.54-.72-.71c-.31-.17-.66-.25-1.05-.25s-.74.08-1.05.25c-.31.17-.55.4-.72.71-.17.3-.25.64-.25,1.03Z"/><path class="cls-2" d="M584.87,147.24l3.4,4v-4h1.08v5.73h-.95l-3.43-4.06v4.06h-1.08v-5.73h.97Z"/><path class="cls-2" d="M591.75,147.24v5.73h-1.11v-5.73h1.11Z"/><path class="cls-2" d="M596.74,147.24v.87h-2.6v1.51h2.49v.86h-2.49v1.63h2.65v.86h-3.76v-5.73h3.7Z"/><path class="cls-1" d="M547.17,164.74v6.95h3.97v1.24h-5.55v-8.19h1.58Z"/><path class="cls-1" d="M553.09,167.19v5.73h-1.11v-5.73h1.11Z"/><path class="cls-1" d="M559.13,167.19v.87h-2.03v4.86h-1.11v-4.86h-2.03v-.87h5.18Z"/><path class="cls-1" d="M561.04,167.19v3.34c0,.34.05.61.15.82.1.2.27.37.5.5.23.13.5.2.81.2.34,0,.63-.06.86-.19s.41-.29.52-.51c.11-.21.16-.51.16-.89v-3.26h1.11v3.41c0,.77-.23,1.36-.69,1.78-.46.41-1.12.62-1.96.62-.53,0-.99-.09-1.38-.28-.39-.19-.69-.46-.89-.82-.21-.36-.31-.78-.31-1.26v-3.45h1.11Z"/><path class="cls-1" d="M569.2,167.19l2.53,5.73h-1.17l-.6-1.39h-2.55l-.55,1.39h-1.16l2.36-5.73h1.13ZM567.76,170.69h1.85l-.97-2.27-.88,2.27Z"/><path class="cls-1" d="M573.38,167.19l3.4,4v-4h1.08v5.73h-.95l-3.43-4.06v4.06h-1.08v-5.73h.97Z"/><path class="cls-1" d="M580.26,167.19v5.73h-1.11v-5.73h1.11Z"/><path class="cls-1" d="M585.25,167.19v.87h-2.6v1.51h2.49v.86h-2.49v1.63h2.65v.86h-3.76v-5.73h3.7Z"/><path class="cls-2" d="M547.17,164.74v6.95h3.97v1.24h-5.55v-8.19h1.58Z"/><path class="cls-2" d="M553.09,167.19v5.73h-1.11v-5.73h1.11Z"/><path class="cls-2" d="M559.13,167.19v.87h-2.03v4.86h-1.11v-4.86h-2.03v-.87h5.18Z"/><path class="cls-2" d="M561.04,167.19v3.34c0,.34.05.61.15.82.1.2.27.37.5.5.23.13.5.2.81.2.34,0,.63-.06.86-.19s.41-.29.52-.51c.11-.21.16-.51.16-.89v-3.26h1.11v3.41c0,.77-.23,1.36-.69,1.78-.46.41-1.12.62-1.96.62-.53,0-.99-.09-1.38-.28-.39-.19-.69-.46-.89-.82-.21-.36-.31-.78-.31-1.26v-3.45h1.11Z"/><path class="cls-2" d="M569.2,167.19l2.53,5.73h-1.17l-.6-1.39h-2.55l-.55,1.39h-1.16l2.36-5.73h1.13ZM567.76,170.69h1.85l-.97-2.27-.88,2.27Z"/><path class="cls-2" d="M573.38,167.19l3.4,4v-4h1.08v5.73h-.95l-3.43-4.06v4.06h-1.08v-5.73h.97Z"/><path class="cls-2" d="M580.26,167.19v5.73h-1.11v-5.73h1.11Z"/><path class="cls-2" d="M585.25,167.19v.87h-2.6v1.51h2.49v.86h-2.49v1.63h2.65v.86h-3.76v-5.73h3.7Z"/><path class="cls-1" d="M564.8,121.22v1.24h-3.71v2.15h3.55v1.24h-3.55v2.33h3.79v1.24h-5.37v-8.19h5.29Z"/><path class="cls-1" d="M567.75,123.6c.56,0,1.1.14,1.61.42v.98c-.59-.36-1.12-.54-1.58-.54-.28,0-.5.05-.65.16s-.24.25-.24.43c0,.22.15.41.44.6.08.06.4.21.95.46.47.22.81.47,1.02.74.21.27.31.6.31.98,0,.49-.18.89-.53,1.19-.36.3-.81.45-1.38.45-.37,0-.68-.04-.94-.12-.26-.08-.56-.22-.89-.42v-1.09c.61.51,1.19.76,1.73.76.27,0,.49-.06.66-.18.17-.12.25-.27.25-.47,0-.26-.14-.48-.43-.65-.24-.13-.55-.29-.93-.47-.45-.21-.79-.45-1.01-.72s-.33-.59-.33-.95c0-.48.18-.86.54-1.15.36-.29.83-.43,1.42-.43Z"/><path class="cls-1" d="M575.16,123.68v.87h-2.03v4.86h-1.11v-4.86h-2.03v-.87h5.18Z"/><path class="cls-1" d="M578.6,123.6c.59,0,1.13.12,1.6.37s.85.6,1.13,1.06c.28.46.42.97.42,1.52s-.14,1.03-.41,1.49c-.27.46-.65.81-1.13,1.07-.48.25-1.02.38-1.62.38s-1.13-.13-1.62-.39c-.49-.26-.86-.61-1.13-1.06s-.41-.95-.41-1.49.14-1.02.41-1.48c.27-.46.64-.82,1.12-1.08s1.02-.38,1.64-.38ZM576.58,126.54c0,.38.09.72.26,1.03s.41.54.72.71c.31.17.66.25,1.04.25.59,0,1.07-.19,1.45-.55.38-.37.57-.84.57-1.43,0-.38-.09-.72-.26-1.03-.17-.3-.41-.54-.72-.71-.31-.17-.66-.25-1.05-.25s-.74.08-1.05.25c-.31.17-.55.4-.72.71-.17.3-.25.64-.25,1.03Z"/><path class="cls-1" d="M583.77,123.68l3.4,4v-4h1.08v5.73h-.95l-3.42-4.06v4.06h-1.08v-5.73h.97Z"/><path class="cls-1" d="M590.65,123.68v5.73h-1.11v-5.73h1.11Z"/><path class="cls-1" d="M595.64,123.68v.87h-2.6v1.51h2.49v.86h-2.49v1.63h2.65v.86h-3.76v-5.73h3.7Z"/><path class="cls-2" d="M564.8,121.22v1.24h-3.71v2.15h3.55v1.24h-3.55v2.33h3.79v1.24h-5.37v-8.19h5.29Z"/><path class="cls-2" d="M567.75,123.6c.56,0,1.1.14,1.61.42v.98c-.59-.36-1.12-.54-1.58-.54-.28,0-.5.05-.65.16s-.24.25-.24.43c0,.22.15.41.44.6.08.06.4.21.95.46.47.22.81.47,1.02.74.21.27.31.6.31.98,0,.49-.18.89-.53,1.19-.36.3-.81.45-1.38.45-.37,0-.68-.04-.94-.12-.26-.08-.56-.22-.89-.42v-1.09c.61.51,1.19.76,1.73.76.27,0,.49-.06.66-.18.17-.12.25-.27.25-.47,0-.26-.14-.48-.43-.65-.24-.13-.55-.29-.93-.47-.45-.21-.79-.45-1.01-.72s-.33-.59-.33-.95c0-.48.18-.86.54-1.15.36-.29.83-.43,1.42-.43Z"/><path class="cls-2" d="M575.16,123.68v.87h-2.03v4.86h-1.11v-4.86h-2.03v-.87h5.18Z"/><path class="cls-2" d="M578.6,123.6c.59,0,1.13.12,1.6.37s.85.6,1.13,1.06c.28.46.42.97.42,1.52s-.14,1.03-.41,1.49c-.27.46-.65.81-1.13,1.07-.48.25-1.02.38-1.62.38s-1.13-.13-1.62-.39c-.49-.26-.86-.61-1.13-1.06s-.41-.95-.41-1.49.14-1.02.41-1.48c.27-.46.64-.82,1.12-1.08s1.02-.38,1.64-.38ZM576.58,126.54c0,.38.09.72.26,1.03s.41.54.72.71c.31.17.66.25,1.04.25.59,0,1.07-.19,1.45-.55.38-.37.57-.84.57-1.43,0-.38-.09-.72-.26-1.03-.17-.3-.41-.54-.72-.71-.31-.17-.66-.25-1.05-.25s-.74.08-1.05.25c-.31.17-.55.4-.72.71-.17.3-.25.64-.25,1.03Z"/><path class="cls-2" d="M583.77,123.68l3.4,4v-4h1.08v5.73h-.95l-3.42-4.06v4.06h-1.08v-5.73h.97Z"/><path class="cls-2" d="M590.65,123.68v5.73h-1.11v-5.73h1.11Z"/><path class="cls-2" d="M595.64,123.68v.87h-2.6v1.51h2.49v.86h-2.49v1.63h2.65v.86h-3.76v-5.73h3.7Z"/><path class="cls-1" d="M576.07,358.74c.75,0,1.36.2,1.83.59s.71.88.71,1.46c0,.38-.1.71-.3.99-.2.28-.48.51-.86.68v.07c.57.13,1.01.38,1.33.76.32.38.48.83.48,1.34,0,.45-.12.86-.35,1.22-.23.36-.56.63-.97.81-.41.18-.9.27-1.46.27h-3.43v-8.19h3ZM575.65,362.14c.42,0,.75-.1.99-.3s.36-.48.36-.83c0-.32-.11-.57-.33-.75-.22-.19-.52-.28-.88-.28h-1.14v2.16h1ZM576.02,365.69c.53,0,.94-.1,1.21-.3.27-.2.41-.5.41-.89,0-.35-.14-.62-.41-.82-.27-.2-.64-.3-1.09-.3h-1.49v2.31h1.37Z"/><path class="cls-1" d="M581.41,361.19v3.34c0,.34.05.61.15.82.1.2.27.37.5.5s.5.2.81.2c.34,0,.63-.06.86-.19s.41-.29.52-.51c.11-.21.16-.51.16-.89v-3.26h1.11v3.41c0,.77-.23,1.36-.69,1.78-.46.41-1.12.62-1.96.62-.53,0-.99-.09-1.38-.28-.39-.19-.69-.46-.89-.82-.21-.36-.31-.78-.31-1.26v-3.45h1.11Z"/><path class="cls-1" d="M587.86,361.19v4.87h2.78v.86h-3.89v-5.73h1.11Z"/><path class="cls-1" d="M594.24,361.12c.71,0,1.41.16,2.1.47v1.01c-.69-.35-1.38-.53-2.05-.53-.42,0-.79.08-1.12.25-.33.17-.58.41-.76.72-.18.31-.27.66-.27,1.05,0,.58.2,1.06.58,1.41.39.36.9.54,1.54.54.18,0,.34-.02.5-.05.16-.03.35-.09.57-.17v-.95h-.95v-.86h2.06v2.36c-.28.2-.62.35-1.01.46-.4.11-.81.17-1.23.17-.6,0-1.15-.12-1.64-.37-.49-.25-.87-.6-1.15-1.05s-.41-.95-.41-1.5.14-1.07.42-1.52c.28-.45.66-.81,1.16-1.06.5-.25,1.05-.38,1.66-.38Z"/><path class="cls-1" d="M600.54,361.19l2.53,5.73h-1.17l-.6-1.39h-2.55l-.55,1.39h-1.16l2.36-5.73h1.13ZM599.09,364.69h1.85l-.97-2.27-.88,2.27Z"/><path class="cls-1" d="M605.8,361.19c.54,0,.98.15,1.32.45.34.3.51.69.51,1.16,0,.33-.08.61-.25.85-.17.24-.42.43-.75.57.18.1.34.23.49.4.14.17.32.45.53.86.35.69.61,1.17.78,1.44h-1.23c-.09-.13-.2-.33-.34-.6-.32-.61-.55-1.02-.7-1.23s-.29-.36-.43-.45-.29-.13-.47-.13h-.4v2.42h-1.11v-5.73h2.06ZM605.55,363.64c.29,0,.52-.07.68-.22.16-.15.25-.34.25-.59s-.08-.46-.25-.59-.4-.19-.7-.19h-.69v1.59h.71Z"/><path class="cls-1" d="M610.28,361.19v5.73h-1.11v-5.73h1.11Z"/><path class="cls-1" d="M615.27,361.19v.87h-2.6v1.51h2.49v.86h-2.49v1.63h2.65v.86h-3.76v-5.73h3.7Z"/><path class="cls-2" d="M576.07,358.74c.75,0,1.36.2,1.83.59s.71.88.71,1.46c0,.38-.1.71-.3.99-.2.28-.48.51-.86.68v.07c.57.13,1.01.38,1.33.76.32.38.48.83.48,1.34,0,.45-.12.86-.35,1.22-.23.36-.56.63-.97.81-.41.18-.9.27-1.46.27h-3.43v-8.19h3ZM575.65,362.14c.42,0,.75-.1.99-.3s.36-.48.36-.83c0-.32-.11-.57-.33-.75-.22-.19-.52-.28-.88-.28h-1.14v2.16h1ZM576.02,365.69c.53,0,.94-.1,1.21-.3.27-.2.41-.5.41-.89,0-.35-.14-.62-.41-.82-.27-.2-.64-.3-1.09-.3h-1.49v2.31h1.37Z"/><path class="cls-2" d="M581.41,361.19v3.34c0,.34.05.61.15.82.1.2.27.37.5.5s.5.2.81.2c.34,0,.63-.06.86-.19s.41-.29.52-.51c.11-.21.16-.51.16-.89v-3.26h1.11v3.41c0,.77-.23,1.36-.69,1.78-.46.41-1.12.62-1.96.62-.53,0-.99-.09-1.38-.28-.39-.19-.69-.46-.89-.82-.21-.36-.31-.78-.31-1.26v-3.45h1.11Z"/><path class="cls-2" d="M587.86,361.19v4.87h2.78v.86h-3.89v-5.73h1.11Z"/><path class="cls-2" d="M594.24,361.12c.71,0,1.41.16,2.1.47v1.01c-.69-.35-1.38-.53-2.05-.53-.42,0-.79.08-1.12.25-.33.17-.58.41-.76.72-.18.31-.27.66-.27,1.05,0,.58.2,1.06.58,1.41.39.36.9.54,1.54.54.18,0,.34-.02.5-.05.16-.03.35-.09.57-.17v-.95h-.95v-.86h2.06v2.36c-.28.2-.62.35-1.01.46-.4.11-.81.17-1.23.17-.6,0-1.15-.12-1.64-.37-.49-.25-.87-.6-1.15-1.05s-.41-.95-.41-1.5.14-1.07.42-1.52c.28-.45.66-.81,1.16-1.06.5-.25,1.05-.38,1.66-.38Z"/><path class="cls-2" d="M600.54,361.19l2.53,5.73h-1.17l-.6-1.39h-2.55l-.55,1.39h-1.16l2.36-5.73h1.13ZM599.09,364.69h1.85l-.97-2.27-.88,2.27Z"/><path class="cls-2" d="M605.8,361.19c.54,0,.98.15,1.32.45.34.3.51.69.51,1.16,0,.33-.08.61-.25.85-.17.24-.42.43-.75.57.18.1.34.23.49.4.14.17.32.45.53.86.35.69.61,1.17.78,1.44h-1.23c-.09-.13-.2-.33-.34-.6-.32-.61-.55-1.02-.7-1.23s-.29-.36-.43-.45-.29-.13-.47-.13h-.4v2.42h-1.11v-5.73h2.06ZM605.55,363.64c.29,0,.52-.07.68-.22.16-.15.25-.34.25-.59s-.08-.46-.25-.59-.4-.19-.7-.19h-.69v1.59h.71Z"/><path class="cls-2" d="M610.28,361.19v5.73h-1.11v-5.73h1.11Z"/><path class="cls-2" d="M615.27,361.19v.87h-2.6v1.51h2.49v.86h-2.49v1.63h2.65v.86h-3.76v-5.73h3.7Z"/><path class="cls-1" d="M569.18,309.72c.77,0,1.4.21,1.88.64.48.43.73.98.73,1.66,0,.47-.12.87-.36,1.22-.24.34-.6.62-1.07.82.26.14.49.33.7.57.2.24.45.65.76,1.22.5.99.87,1.68,1.11,2.05h-1.76c-.12-.18-.29-.47-.49-.86-.45-.87-.79-1.46-1-1.76-.21-.3-.41-.52-.61-.64-.2-.13-.42-.19-.67-.19h-.57v3.46h-1.58v-8.19h2.95ZM568.82,313.21c.41,0,.74-.1.98-.31.24-.21.36-.49.36-.85s-.12-.66-.35-.84c-.23-.19-.57-.28-1-.28h-.98v2.28h1.01Z"/><path class="cls-1" d="M576.62,312.1c.59,0,1.13.12,1.6.37.47.24.85.6,1.13,1.06.28.46.42.97.42,1.52s-.14,1.03-.41,1.49c-.27.46-.65.81-1.13,1.07-.48.25-1.02.38-1.62.38s-1.13-.13-1.62-.39-.86-.61-1.13-1.06-.41-.95-.41-1.49.13-1.02.41-1.48c.27-.46.64-.82,1.12-1.08s1.02-.38,1.64-.38ZM574.6,315.04c0,.38.09.72.26,1.03s.41.54.72.71c.31.17.66.25,1.04.25.59,0,1.07-.19,1.45-.55s.57-.84.57-1.43c0-.38-.09-.72-.26-1.03s-.41-.54-.72-.71c-.31-.17-.66-.25-1.05-.25s-.74.08-1.05.25c-.31.17-.55.4-.72.71-.17.3-.25.64-.25,1.03Z"/><path class="cls-1" d="M581.89,312.18v3.34c0,.34.05.61.15.82.1.2.27.37.5.5.23.13.5.2.81.2.34,0,.63-.06.86-.19s.41-.29.52-.51c.11-.21.16-.51.16-.89v-3.26h1.11v3.41c0,.77-.23,1.36-.69,1.78-.46.41-1.12.62-1.96.62-.53,0-.99-.09-1.38-.28-.39-.19-.69-.46-.89-.82-.21-.36-.31-.78-.31-1.26v-3.45h1.11Z"/><path class="cls-1" d="M588.23,312.18l1.88,2.26,1.88-2.26h.99v5.73h-1.11v-4.02h-.03l-1.66,2.02h-.16l-1.66-2.02h-.03v4.02h-1.11v-5.73h1Z"/><path class="cls-1" d="M597.15,312.18l2.53,5.73h-1.17l-.6-1.39h-2.55l-.55,1.39h-1.16l2.36-5.73h1.13ZM595.7,315.67h1.85l-.97-2.27-.88,2.27Z"/><path class="cls-1" d="M601.32,312.18l3.4,4v-4h1.08v5.73h-.95l-3.43-4.06v4.06h-1.08v-5.73h.97Z"/><path class="cls-1" d="M608.2,312.18v5.73h-1.11v-5.73h1.11Z"/><path class="cls-1" d="M613.19,312.18v.87h-2.6v1.51h2.49v.86h-2.49v1.63h2.65v.86h-3.76v-5.73h3.7Z"/><path class="cls-2" d="M569.18,309.72c.77,0,1.4.21,1.88.64.48.43.73.98.73,1.66,0,.47-.12.87-.36,1.22-.24.34-.6.62-1.07.82.26.14.49.33.7.57.2.24.45.65.76,1.22.5.99.87,1.68,1.11,2.05h-1.76c-.12-.18-.29-.47-.49-.86-.45-.87-.79-1.46-1-1.76-.21-.3-.41-.52-.61-.64-.2-.13-.42-.19-.67-.19h-.57v3.46h-1.58v-8.19h2.95ZM568.82,313.21c.41,0,.74-.1.98-.31.24-.21.36-.49.36-.85s-.12-.66-.35-.84c-.23-.19-.57-.28-1-.28h-.98v2.28h1.01Z"/><path class="cls-2" d="M576.62,312.1c.59,0,1.13.12,1.6.37.47.24.85.6,1.13,1.06.28.46.42.97.42,1.52s-.14,1.03-.41,1.49c-.27.46-.65.81-1.13,1.07-.48.25-1.02.38-1.62.38s-1.13-.13-1.62-.39-.86-.61-1.13-1.06-.41-.95-.41-1.49.13-1.02.41-1.48c.27-.46.64-.82,1.12-1.08s1.02-.38,1.64-.38ZM574.6,315.04c0,.38.09.72.26,1.03s.41.54.72.71c.31.17.66.25,1.04.25.59,0,1.07-.19,1.45-.55s.57-.84.57-1.43c0-.38-.09-.72-.26-1.03s-.41-.54-.72-.71c-.31-.17-.66-.25-1.05-.25s-.74.08-1.05.25c-.31.17-.55.4-.72.71-.17.3-.25.64-.25,1.03Z"/><path class="cls-2" d="M581.89,312.18v3.34c0,.34.05.61.15.82.1.2.27.37.5.5.23.13.5.2.81.2.34,0,.63-.06.86-.19s.41-.29.52-.51c.11-.21.16-.51.16-.89v-3.26h1.11v3.41c0,.77-.23,1.36-.69,1.78-.46.41-1.12.62-1.96.62-.53,0-.99-.09-1.38-.28-.39-.19-.69-.46-.89-.82-.21-.36-.31-.78-.31-1.26v-3.45h1.11Z"/><path class="cls-2" d="M588.23,312.18l1.88,2.26,1.88-2.26h.99v5.73h-1.11v-4.02h-.03l-1.66,2.02h-.16l-1.66-2.02h-.03v4.02h-1.11v-5.73h1Z"/><path class="cls-2" d="M597.15,312.18l2.53,5.73h-1.17l-.6-1.39h-2.55l-.55,1.39h-1.16l2.36-5.73h1.13ZM595.7,315.67h1.85l-.97-2.27-.88,2.27Z"/><path class="cls-2" d="M601.32,312.18l3.4,4v-4h1.08v5.73h-.95l-3.43-4.06v4.06h-1.08v-5.73h.97Z"/><path class="cls-2" d="M608.2,312.18v5.73h-1.11v-5.73h1.11Z"/><path class="cls-2" d="M613.19,312.18v.87h-2.6v1.51h2.49v.86h-2.49v1.63h2.65v.86h-3.76v-5.73h3.7Z"/><path class="cls-1" d="M486.9,203.47c.77,0,1.39.22,1.87.66.48.44.72,1.01.72,1.71s-.24,1.28-.73,1.72c-.48.44-1.12.66-1.92.66h-1.52v3.43h-1.58v-8.19h3.16ZM486.51,206.98c.42,0,.75-.1.99-.29.24-.19.35-.48.35-.86,0-.75-.48-1.13-1.45-1.13h-1.08v2.28h1.19Z"/><path class="cls-1" d="M493.41,205.85c.59,0,1.13.12,1.6.37s.85.6,1.13,1.06c.28.46.42.97.42,1.52s-.14,1.03-.41,1.49c-.27.46-.65.81-1.13,1.07-.48.25-1.02.38-1.62.38s-1.13-.13-1.62-.39c-.49-.26-.86-.61-1.13-1.06s-.41-.95-.41-1.49.14-1.02.41-1.48c.27-.46.64-.82,1.12-1.08s1.02-.38,1.64-.38ZM491.39,208.79c0,.38.09.72.26,1.03s.41.54.72.71c.31.17.66.25,1.04.25.59,0,1.07-.19,1.45-.55.38-.37.57-.84.57-1.43,0-.38-.09-.72-.26-1.03-.17-.3-.41-.54-.72-.71-.31-.17-.66-.25-1.05-.25s-.74.08-1.05.25c-.31.17-.55.4-.72.71-.17.3-.25.64-.25,1.03Z"/><path class="cls-1" d="M498.71,205.92v4.87h2.78v.86h-3.89v-5.73h1.11Z"/><path class="cls-1" d="M505.02,205.85c.59,0,1.13.12,1.6.37.47.24.85.6,1.13,1.06.28.46.42.97.42,1.52s-.14,1.03-.41,1.49c-.27.46-.65.81-1.13,1.07-.48.25-1.02.38-1.62.38s-1.13-.13-1.62-.39-.86-.61-1.13-1.06-.41-.95-.41-1.49.13-1.02.41-1.48c.27-.46.64-.82,1.12-1.08s1.02-.38,1.64-.38ZM503,208.79c0,.38.09.72.26,1.03s.41.54.72.71c.31.17.66.25,1.04.25.59,0,1.07-.19,1.45-.55s.57-.84.57-1.43c0-.38-.09-.72-.26-1.03s-.41-.54-.72-.71c-.31-.17-.66-.25-1.05-.25s-.74.08-1.05.25c-.31.17-.55.4-.72.71-.17.3-.25.64-.25,1.03Z"/><path class="cls-1" d="M512.22,205.85c.71,0,1.41.16,2.1.47v1.01c-.69-.35-1.38-.53-2.05-.53-.42,0-.79.08-1.12.25-.33.17-.58.41-.76.72s-.27.66-.27,1.05c0,.58.19,1.06.58,1.41.39.36.9.54,1.54.54.17,0,.34-.02.5-.05.16-.03.35-.09.57-.17v-.95h-.95v-.86h2.06v2.36c-.28.2-.62.35-1.02.46-.39.11-.81.17-1.23.17-.6,0-1.15-.12-1.64-.37-.49-.25-.87-.6-1.15-1.05-.28-.45-.41-.95-.41-1.5s.14-1.07.42-1.52c.28-.45.66-.81,1.16-1.06.5-.25,1.05-.38,1.66-.38Z"/><path class="cls-1" d="M516.59,205.92l3.4,4v-4h1.08v5.73h-.95l-3.42-4.06v4.06h-1.08v-5.73h.97Z"/><path class="cls-1" d="M526.04,205.92v.87h-2.6v1.51h2.49v.86h-2.49v1.63h2.65v.86h-3.76v-5.73h3.7Z"/><path class="cls-2" d="M486.9,203.47c.77,0,1.39.22,1.87.66.48.44.72,1.01.72,1.71s-.24,1.28-.73,1.72c-.48.44-1.12.66-1.92.66h-1.52v3.43h-1.58v-8.19h3.16ZM486.51,206.98c.42,0,.75-.1.99-.29.24-.19.35-.48.35-.86,0-.75-.48-1.13-1.45-1.13h-1.08v2.28h1.19Z"/><path class="cls-2" d="M493.41,205.85c.59,0,1.13.12,1.6.37s.85.6,1.13,1.06c.28.46.42.97.42,1.52s-.14,1.03-.41,1.49c-.27.46-.65.81-1.13,1.07-.48.25-1.02.38-1.62.38s-1.13-.13-1.62-.39c-.49-.26-.86-.61-1.13-1.06s-.41-.95-.41-1.49.14-1.02.41-1.48c.27-.46.64-.82,1.12-1.08s1.02-.38,1.64-.38ZM491.39,208.79c0,.38.09.72.26,1.03s.41.54.72.71c.31.17.66.25,1.04.25.59,0,1.07-.19,1.45-.55.38-.37.57-.84.57-1.43,0-.38-.09-.72-.26-1.03-.17-.3-.41-.54-.72-.71-.31-.17-.66-.25-1.05-.25s-.74.08-1.05.25c-.31.17-.55.4-.72.71-.17.3-.25.64-.25,1.03Z"/><path class="cls-2" d="M498.71,205.92v4.87h2.78v.86h-3.89v-5.73h1.11Z"/><path class="cls-2" d="M505.02,205.85c.59,0,1.13.12,1.6.37.47.24.85.6,1.13,1.06.28.46.42.97.42,1.52s-.14,1.03-.41,1.49c-.27.46-.65.81-1.13,1.07-.48.25-1.02.38-1.62.38s-1.13-.13-1.62-.39-.86-.61-1.13-1.06-.41-.95-.41-1.49.13-1.02.41-1.48c.27-.46.64-.82,1.12-1.08s1.02-.38,1.64-.38ZM503,208.79c0,.38.09.72.26,1.03s.41.54.72.71c.31.17.66.25,1.04.25.59,0,1.07-.19,1.45-.55s.57-.84.57-1.43c0-.38-.09-.72-.26-1.03s-.41-.54-.72-.71c-.31-.17-.66-.25-1.05-.25s-.74.08-1.05.25c-.31.17-.55.4-.72.71-.17.3-.25.64-.25,1.03Z"/><path class="cls-2" d="M512.22,205.85c.71,0,1.41.16,2.1.47v1.01c-.69-.35-1.38-.53-2.05-.53-.42,0-.79.08-1.12.25-.33.17-.58.41-.76.72s-.27.66-.27,1.05c0,.58.19,1.06.58,1.41.39.36.9.54,1.54.54.17,0,.34-.02.5-.05.16-.03.35-.09.57-.17v-.95h-.95v-.86h2.06v2.36c-.28.2-.62.35-1.02.46-.39.11-.81.17-1.23.17-.6,0-1.15-.12-1.64-.37-.49-.25-.87-.6-1.15-1.05-.28-.45-.41-.95-.41-1.5s.14-1.07.42-1.52c.28-.45.66-.81,1.16-1.06.5-.25,1.05-.38,1.66-.38Z"/><path class="cls-2" d="M516.59,205.92l3.4,4v-4h1.08v5.73h-.95l-3.42-4.06v4.06h-1.08v-5.73h.97Z"/><path class="cls-2" d="M526.04,205.92v.87h-2.6v1.51h2.49v.86h-2.49v1.63h2.65v.86h-3.76v-5.73h3.7Z"/><path class="cls-1" d="M424.07,303.54c.8,0,1.56.2,2.3.6v1.41c-.85-.51-1.6-.77-2.26-.77-.4,0-.71.08-.94.23-.22.15-.34.36-.34.62,0,.31.21.59.63.86.12.08.57.3,1.35.66.67.32,1.16.67,1.45,1.05.3.39.45.85.45,1.39,0,.7-.25,1.27-.76,1.7-.51.43-1.16.65-1.97.65-.52,0-.97-.06-1.35-.17-.38-.11-.8-.31-1.27-.59v-1.56c.87.73,1.7,1.09,2.47,1.09.39,0,.7-.08.94-.25.24-.17.36-.39.36-.67,0-.38-.21-.69-.62-.93-.34-.19-.79-.41-1.33-.67-.64-.29-1.13-.64-1.44-1.03-.32-.39-.48-.84-.48-1.36,0-.69.26-1.24.77-1.64.51-.41,1.19-.61,2.03-.61Z"/><path class="cls-1" d="M428.95,306.1v4.87h2.78v.86h-3.89v-5.73h1.11Z"/><path class="cls-1" d="M435.26,306.03c.59,0,1.13.12,1.6.37.47.24.85.6,1.13,1.06.28.46.42.97.42,1.52s-.14,1.03-.41,1.49c-.27.46-.65.81-1.13,1.07-.48.25-1.02.38-1.62.38s-1.13-.13-1.62-.39-.86-.61-1.13-1.06-.41-.95-.41-1.49.13-1.02.41-1.48c.27-.46.64-.82,1.12-1.08s1.02-.38,1.64-.38ZM433.23,308.97c0,.38.09.72.26,1.03s.41.54.72.71c.31.17.66.25,1.04.25.59,0,1.07-.19,1.45-.55s.57-.84.57-1.43c0-.38-.09-.72-.26-1.03s-.41-.54-.72-.71c-.31-.17-.66-.25-1.05-.25s-.74.08-1.05.25c-.31.17-.55.4-.72.71-.17.3-.25.64-.25,1.03Z"/><path class="cls-1" d="M439.86,306.1l1.62,3.68,1.58-3.68h1.16l-2.53,5.8h-.39l-2.61-5.8h1.17Z"/><path class="cls-1" d="M448.6,306.1v.87h-2.6v1.51h2.49v.86h-2.49v1.63h2.65v.86h-3.76v-5.73h3.7ZM448.09,304.29l-1.55,1.41h-.62l.78-1.41h1.39Z"/><path class="cls-1" d="M450.66,306.1l3.4,4v-4h1.08v5.73h-.95l-3.43-4.06v4.06h-1.08v-5.73h.97Z"/><path class="cls-1" d="M457.54,306.1v5.73h-1.11v-5.73h1.11Z"/><path class="cls-1" d="M462.53,306.1v.87h-2.6v1.51h2.49v.86h-2.49v1.63h2.65v.86h-3.76v-5.73h3.7Z"/><path class="cls-2" d="M424.07,303.54c.8,0,1.56.2,2.3.6v1.41c-.85-.51-1.6-.77-2.26-.77-.4,0-.71.08-.94.23-.22.15-.34.36-.34.62,0,.31.21.59.63.86.12.08.57.3,1.35.66.67.32,1.16.67,1.45,1.05.3.39.45.85.45,1.39,0,.7-.25,1.27-.76,1.7-.51.43-1.16.65-1.97.65-.52,0-.97-.06-1.35-.17-.38-.11-.8-.31-1.27-.59v-1.56c.87.73,1.7,1.09,2.47,1.09.39,0,.7-.08.94-.25.24-.17.36-.39.36-.67,0-.38-.21-.69-.62-.93-.34-.19-.79-.41-1.33-.67-.64-.29-1.13-.64-1.44-1.03-.32-.39-.48-.84-.48-1.36,0-.69.26-1.24.77-1.64.51-.41,1.19-.61,2.03-.61Z"/><path class="cls-2" d="M428.95,306.1v4.87h2.78v.86h-3.89v-5.73h1.11Z"/><path class="cls-2" d="M435.26,306.03c.59,0,1.13.12,1.6.37.47.24.85.6,1.13,1.06.28.46.42.97.42,1.52s-.14,1.03-.41,1.49c-.27.46-.65.81-1.13,1.07-.48.25-1.02.38-1.62.38s-1.13-.13-1.62-.39-.86-.61-1.13-1.06-.41-.95-.41-1.49.13-1.02.41-1.48c.27-.46.64-.82,1.12-1.08s1.02-.38,1.64-.38ZM433.23,308.97c0,.38.09.72.26,1.03s.41.54.72.71c.31.17.66.25,1.04.25.59,0,1.07-.19,1.45-.55s.57-.84.57-1.43c0-.38-.09-.72-.26-1.03s-.41-.54-.72-.71c-.31-.17-.66-.25-1.05-.25s-.74.08-1.05.25c-.31.17-.55.4-.72.71-.17.3-.25.64-.25,1.03Z"/><path class="cls-2" d="M439.86,306.1l1.62,3.68,1.58-3.68h1.16l-2.53,5.8h-.39l-2.61-5.8h1.17Z"/><path class="cls-2" d="M448.6,306.1v.87h-2.6v1.51h2.49v.86h-2.49v1.63h2.65v.86h-3.76v-5.73h3.7ZM448.09,304.29l-1.55,1.41h-.62l.78-1.41h1.39Z"/><path class="cls-2" d="M450.66,306.1l3.4,4v-4h1.08v5.73h-.95l-3.43-4.06v4.06h-1.08v-5.73h.97Z"/><path class="cls-2" d="M457.54,306.1v5.73h-1.11v-5.73h1.11Z"/><path class="cls-2" d="M462.53,306.1v.87h-2.6v1.51h2.49v.86h-2.49v1.63h2.65v.86h-3.76v-5.73h3.7Z"/><path class="cls-1" d="M502.3,391.84l3.62,8.19h-1.67l-.85-1.99h-3.64l-.79,1.99h-1.66l3.38-8.19h1.62ZM500.24,396.84h2.64l-1.38-3.24-1.26,3.24Z"/><path class="cls-1" d="M507.71,394.3v4.87h2.78v.86h-3.89v-5.73h1.11Z"/><path class="cls-1" d="M513.35,394.3c.52,0,.95.14,1.28.41.33.27.5.62.5,1.03,0,.26-.07.49-.21.69s-.34.36-.6.48v.05c.4.09.71.27.93.54.22.27.33.58.33.94,0,.32-.08.6-.24.85-.16.25-.39.44-.68.56s-.63.19-1.02.19h-2.4v-5.73h2.1ZM513.06,396.68c.29,0,.52-.07.69-.21.17-.14.25-.33.25-.58,0-.22-.08-.4-.23-.53s-.36-.19-.62-.19h-.8v1.51h.7ZM513.32,399.17c.38,0,.66-.07.85-.21.19-.14.29-.35.29-.62,0-.24-.09-.44-.28-.58-.19-.14-.45-.21-.77-.21h-1.04v1.62h.96Z"/><path class="cls-1" d="M519.43,394.3l2.53,5.73h-1.17l-.6-1.39h-2.55l-.55,1.39h-1.16l2.36-5.73h1.13ZM517.99,397.79h1.85l-.97-2.27-.88,2.27Z"/><path class="cls-1" d="M523.61,394.3l3.4,4v-4h1.08v5.73h-.95l-3.43-4.06v4.06h-1.08v-5.73h.97Z"/><path class="cls-1" d="M530.48,394.3v5.73h-1.11v-5.73h1.11Z"/><path class="cls-1" d="M535.48,394.3v.87h-2.6v1.51h2.49v.86h-2.49v1.63h2.65v.86h-3.76v-5.73h3.7Z"/><path class="cls-2" d="M502.3,391.84l3.62,8.19h-1.67l-.85-1.99h-3.64l-.79,1.99h-1.66l3.38-8.19h1.62ZM500.24,396.84h2.64l-1.38-3.24-1.26,3.24Z"/><path class="cls-2" d="M507.71,394.3v4.87h2.78v.86h-3.89v-5.73h1.11Z"/><path class="cls-2" d="M513.35,394.3c.52,0,.95.14,1.28.41.33.27.5.62.5,1.03,0,.26-.07.49-.21.69s-.34.36-.6.48v.05c.4.09.71.27.93.54.22.27.33.58.33.94,0,.32-.08.6-.24.85-.16.25-.39.44-.68.56s-.63.19-1.02.19h-2.4v-5.73h2.1ZM513.06,396.68c.29,0,.52-.07.69-.21.17-.14.25-.33.25-.58,0-.22-.08-.4-.23-.53s-.36-.19-.62-.19h-.8v1.51h.7ZM513.32,399.17c.38,0,.66-.07.85-.21.19-.14.29-.35.29-.62,0-.24-.09-.44-.28-.58-.19-.14-.45-.21-.77-.21h-1.04v1.62h.96Z"/><path class="cls-2" d="M519.43,394.3l2.53,5.73h-1.17l-.6-1.39h-2.55l-.55,1.39h-1.16l2.36-5.73h1.13ZM517.99,397.79h1.85l-.97-2.27-.88,2.27Z"/><path class="cls-2" d="M523.61,394.3l3.4,4v-4h1.08v5.73h-.95l-3.43-4.06v4.06h-1.08v-5.73h.97Z"/><path class="cls-2" d="M530.48,394.3v5.73h-1.11v-5.73h1.11Z"/><path class="cls-2" d="M535.48,394.3v.87h-2.6v1.51h2.49v.86h-2.49v1.63h2.65v.86h-3.76v-5.73h3.7Z"/><path class="cls-1" d="M478.85,357.11l2.69,3.23,2.69-3.23h1.41v8.19h-1.58v-5.75h-.05l-2.37,2.88h-.22l-2.37-2.88h-.05v5.75h-1.58v-8.19h1.42Z"/><path class="cls-1" d="M490.11,359.49c.59,0,1.13.12,1.6.37.47.24.85.6,1.13,1.06.28.46.42.97.42,1.52s-.14,1.03-.41,1.49c-.27.46-.65.81-1.13,1.07-.48.25-1.02.38-1.62.38s-1.13-.13-1.62-.39-.86-.61-1.13-1.06-.41-.95-.41-1.49.13-1.02.41-1.48c.27-.46.64-.82,1.12-1.08s1.02-.38,1.64-.38ZM488.09,362.43c0,.38.09.72.26,1.03s.41.54.72.71c.31.17.66.25,1.04.25.59,0,1.07-.19,1.45-.55s.57-.84.57-1.43c0-.38-.09-.72-.26-1.03s-.41-.54-.72-.71c-.31-.17-.66-.25-1.05-.25s-.74.08-1.05.25c-.31.17-.55.4-.72.71-.17.3-.25.64-.25,1.03Z"/><path class="cls-1" d="M495.28,359.56l3.4,4v-4h1.08v5.73h-.95l-3.43-4.06v4.06h-1.08v-5.73h.97Z"/><path class="cls-1" d="M505.78,359.56v.87h-2.03v4.86h-1.11v-4.86h-2.03v-.87h5.18Z"/><path class="cls-1" d="M510.32,359.56v.87h-2.6v1.51h2.49v.86h-2.49v1.63h2.65v.86h-3.76v-5.73h3.7ZM509.81,357.76l-1.55,1.41h-.62l.78-1.41h1.39Z"/><path class="cls-1" d="M512.39,359.56l3.4,4v-4h1.08v5.73h-.95l-3.42-4.06v4.06h-1.08v-5.73h.97Z"/><path class="cls-1" d="M521.84,359.56v.87h-2.6v1.51h2.49v.86h-2.49v1.63h2.65v.86h-3.76v-5.73h3.7ZM521.32,357.76l-1.55,1.41h-.62l.78-1.41h1.39Z"/><path class="cls-1" d="M525.93,359.49c.71,0,1.41.16,2.1.47v1.01c-.69-.35-1.38-.53-2.05-.53-.42,0-.79.08-1.12.25-.33.17-.58.41-.76.72s-.27.66-.27,1.05c0,.58.19,1.06.58,1.41.39.36.9.54,1.54.54.17,0,.34-.02.5-.05.16-.03.35-.09.57-.17v-.95h-.95v-.86h2.06v2.36c-.28.2-.62.35-1.02.46-.39.11-.81.17-1.23.17-.6,0-1.15-.12-1.64-.37-.49-.25-.87-.6-1.15-1.05-.28-.45-.41-.95-.41-1.5s.14-1.07.42-1.52c.28-.45.66-.81,1.16-1.06.5-.25,1.05-.38,1.66-.38Z"/><path class="cls-1" d="M531.39,359.56c.54,0,.98.15,1.32.45.34.3.51.69.51,1.16,0,.33-.08.61-.25.85-.17.24-.42.43-.75.57.18.1.35.23.49.4.14.17.32.45.53.86.35.69.61,1.17.78,1.44h-1.24c-.08-.13-.2-.33-.34-.6-.32-.61-.55-1.02-.7-1.23s-.29-.36-.43-.45c-.14-.09-.29-.13-.47-.13h-.4v2.42h-1.11v-5.73h2.06ZM531.14,362.01c.29,0,.52-.07.68-.22.17-.15.25-.34.25-.59s-.08-.46-.25-.59-.4-.19-.7-.19h-.69v1.59h.71Z"/><path class="cls-1" d="M537.43,359.49c.59,0,1.13.12,1.6.37.47.24.85.6,1.13,1.06.28.46.42.97.42,1.52s-.14,1.03-.41,1.49c-.27.46-.65.81-1.13,1.07-.48.25-1.02.38-1.62.38s-1.13-.13-1.62-.39-.86-.61-1.13-1.06-.41-.95-.41-1.49.13-1.02.41-1.48c.27-.46.64-.82,1.12-1.08s1.02-.38,1.64-.38ZM535.4,362.43c0,.38.09.72.26,1.03s.41.54.72.71c.31.17.66.25,1.04.25.59,0,1.07-.19,1.45-.55s.57-.84.57-1.43c0-.38-.09-.72-.26-1.03s-.41-.54-.72-.71c-.31-.17-.66-.25-1.05-.25s-.74.08-1.05.25c-.31.17-.55.4-.72.71-.17.3-.25.64-.25,1.03Z"/><path class="cls-2" d="M478.85,357.11l2.69,3.23,2.69-3.23h1.41v8.19h-1.58v-5.75h-.05l-2.37,2.88h-.22l-2.37-2.88h-.05v5.75h-1.58v-8.19h1.42Z"/><path class="cls-2" d="M490.11,359.49c.59,0,1.13.12,1.6.37.47.24.85.6,1.13,1.06.28.46.42.97.42,1.52s-.14,1.03-.41,1.49c-.27.46-.65.81-1.13,1.07-.48.25-1.02.38-1.62.38s-1.13-.13-1.62-.39-.86-.61-1.13-1.06-.41-.95-.41-1.49.13-1.02.41-1.48c.27-.46.64-.82,1.12-1.08s1.02-.38,1.64-.38ZM488.09,362.43c0,.38.09.72.26,1.03s.41.54.72.71c.31.17.66.25,1.04.25.59,0,1.07-.19,1.45-.55s.57-.84.57-1.43c0-.38-.09-.72-.26-1.03s-.41-.54-.72-.71c-.31-.17-.66-.25-1.05-.25s-.74.08-1.05.25c-.31.17-.55.4-.72.71-.17.3-.25.64-.25,1.03Z"/><path class="cls-2" d="M495.28,359.56l3.4,4v-4h1.08v5.73h-.95l-3.43-4.06v4.06h-1.08v-5.73h.97Z"/><path class="cls-2" d="M505.78,359.56v.87h-2.03v4.86h-1.11v-4.86h-2.03v-.87h5.18Z"/><path class="cls-2" d="M510.32,359.56v.87h-2.6v1.51h2.49v.86h-2.49v1.63h2.65v.86h-3.76v-5.73h3.7ZM509.81,357.76l-1.55,1.41h-.62l.78-1.41h1.39Z"/><path class="cls-2" d="M512.39,359.56l3.4,4v-4h1.08v5.73h-.95l-3.42-4.06v4.06h-1.08v-5.73h.97Z"/><path class="cls-2" d="M521.84,359.56v.87h-2.6v1.51h2.49v.86h-2.49v1.63h2.65v.86h-3.76v-5.73h3.7ZM521.32,357.76l-1.55,1.41h-.62l.78-1.41h1.39Z"/><path class="cls-2" d="M525.93,359.49c.71,0,1.41.16,2.1.47v1.01c-.69-.35-1.38-.53-2.05-.53-.42,0-.79.08-1.12.25-.33.17-.58.41-.76.72s-.27.66-.27,1.05c0,.58.19,1.06.58,1.41.39.36.9.54,1.54.54.17,0,.34-.02.5-.05.16-.03.35-.09.57-.17v-.95h-.95v-.86h2.06v2.36c-.28.2-.62.35-1.02.46-.39.11-.81.17-1.23.17-.6,0-1.15-.12-1.64-.37-.49-.25-.87-.6-1.15-1.05-.28-.45-.41-.95-.41-1.5s.14-1.07.42-1.52c.28-.45.66-.81,1.16-1.06.5-.25,1.05-.38,1.66-.38Z"/><path class="cls-2" d="M531.39,359.56c.54,0,.98.15,1.32.45.34.3.51.69.51,1.16,0,.33-.08.61-.25.85-.17.24-.42.43-.75.57.18.1.35.23.49.4.14.17.32.45.53.86.35.69.61,1.17.78,1.44h-1.24c-.08-.13-.2-.33-.34-.6-.32-.61-.55-1.02-.7-1.23s-.29-.36-.43-.45c-.14-.09-.29-.13-.47-.13h-.4v2.42h-1.11v-5.73h2.06ZM531.14,362.01c.29,0,.52-.07.68-.22.17-.15.25-.34.25-.59s-.08-.46-.25-.59-.4-.19-.7-.19h-.69v1.59h.71Z"/><path class="cls-2" d="M537.43,359.49c.59,0,1.13.12,1.6.37.47.24.85.6,1.13,1.06.28.46.42.97.42,1.52s-.14,1.03-.41,1.49c-.27.46-.65.81-1.13,1.07-.48.25-1.02.38-1.62.38s-1.13-.13-1.62-.39-.86-.61-1.13-1.06-.41-.95-.41-1.49.13-1.02.41-1.48c.27-.46.64-.82,1.12-1.08s1.02-.38,1.64-.38ZM535.4,362.43c0,.38.09.72.26,1.03s.41.54.72.71c.31.17.66.25,1.04.25.59,0,1.07-.19,1.45-.55s.57-.84.57-1.43c0-.38-.09-.72-.26-1.03s-.41-.54-.72-.71c-.31-.17-.66-.25-1.05-.25s-.74.08-1.05.25c-.31.17-.55.4-.72.71-.17.3-.25.64-.25,1.03Z"/><path class="cls-1" d="M520.05,377.14l2.69,3.23,2.69-3.23h1.41v8.19h-1.58v-5.75h-.05l-2.37,2.88h-.22l-2.37-2.88h-.05v5.75h-1.58v-8.19h1.42Z"/><path class="cls-1" d="M531.28,379.59l2.53,5.73h-1.17l-.6-1.39h-2.55l-.55,1.39h-1.16l2.36-5.73h1.13ZM529.84,383.09h1.85l-.97-2.27-.88,2.27Z"/><path class="cls-1" d="M537.24,379.52c.33,0,.64.04.96.11s.65.2,1.01.38v1.04c-.35-.2-.68-.35-.98-.44-.3-.09-.61-.13-.94-.13-.41,0-.77.08-1.1.25-.33.17-.58.41-.77.71-.18.31-.27.65-.27,1.02s.09.73.27,1.03c.18.3.43.54.76.7s.7.25,1.11.25c.32,0,.62-.05.9-.14.28-.09.65-.25,1.08-.49v1.04c-.37.19-.71.33-1.03.41s-.68.12-1.09.12c-.6,0-1.14-.12-1.62-.36s-.85-.59-1.12-1.04-.41-.95-.41-1.49c0-.58.14-1.1.42-1.56.28-.46.67-.81,1.16-1.06.49-.25,1.04-.37,1.66-.37Z"/><path class="cls-1" d="M544.03,379.59v.87h-2.6v1.51h2.49v.86h-2.49v1.63h2.65v.86h-3.76v-5.73h3.7ZM543.52,377.79l-1.55,1.41h-.62l.78-1.41h1.39Z"/><path class="cls-1" d="M547.52,379.59c.6,0,1.13.12,1.59.37.47.24.83.58,1.08,1.03.26.44.39.94.39,1.48s-.13,1.06-.39,1.49c-.26.43-.63.77-1.1,1.01-.48.24-1.02.36-1.64.36h-2.33v-5.73h2.4ZM547.4,384.46c.61,0,1.1-.18,1.48-.55.37-.37.56-.85.56-1.45s-.19-1.11-.56-1.46c-.37-.36-.88-.54-1.51-.54h-1.14v4h1.18Z"/><path class="cls-1" d="M554.55,379.52c.59,0,1.13.12,1.6.37s.85.6,1.13,1.06c.28.46.42.97.42,1.52s-.14,1.03-.41,1.49c-.27.46-.65.81-1.13,1.07-.48.25-1.02.38-1.62.38s-1.13-.13-1.62-.39c-.49-.26-.86-.61-1.13-1.06s-.41-.95-.41-1.49.14-1.02.41-1.48c.27-.46.64-.82,1.12-1.08s1.02-.38,1.64-.38ZM552.53,382.46c0,.38.09.72.26,1.03s.41.54.72.71c.31.17.66.25,1.04.25.59,0,1.07-.19,1.45-.55.38-.37.57-.84.57-1.43,0-.38-.09-.72-.26-1.03-.17-.3-.41-.54-.72-.71-.31-.17-.66-.25-1.05-.25s-.74.08-1.05.25c-.31.17-.55.4-.72.71-.17.3-.25.64-.25,1.03Z"/><path class="cls-1" d="M559.88,379.59v5.73h-1.11v-5.73h1.11Z"/><path class="cls-1" d="M562.14,379.59l3.4,4v-4h1.08v5.73h-.95l-3.42-4.06v4.06h-1.08v-5.73h.97Z"/><path class="cls-1" d="M571.59,379.59v.87h-2.6v1.51h2.49v.86h-2.49v1.63h2.65v.86h-3.76v-5.73h3.7Z"/><path class="cls-2" d="M520.05,377.14l2.69,3.23,2.69-3.23h1.41v8.19h-1.58v-5.75h-.05l-2.37,2.88h-.22l-2.37-2.88h-.05v5.75h-1.58v-8.19h1.42Z"/><path class="cls-2" d="M531.28,379.59l2.53,5.73h-1.17l-.6-1.39h-2.55l-.55,1.39h-1.16l2.36-5.73h1.13ZM529.84,383.09h1.85l-.97-2.27-.88,2.27Z"/><path class="cls-2" d="M537.24,379.52c.33,0,.64.04.96.11s.65.2,1.01.38v1.04c-.35-.2-.68-.35-.98-.44-.3-.09-.61-.13-.94-.13-.41,0-.77.08-1.1.25-.33.17-.58.41-.77.71-.18.31-.27.65-.27,1.02s.09.73.27,1.03c.18.3.43.54.76.7s.7.25,1.11.25c.32,0,.62-.05.9-.14.28-.09.65-.25,1.08-.49v1.04c-.37.19-.71.33-1.03.41s-.68.12-1.09.12c-.6,0-1.14-.12-1.62-.36s-.85-.59-1.12-1.04-.41-.95-.41-1.49c0-.58.14-1.1.42-1.56.28-.46.67-.81,1.16-1.06.49-.25,1.04-.37,1.66-.37Z"/><path class="cls-2" d="M544.03,379.59v.87h-2.6v1.51h2.49v.86h-2.49v1.63h2.65v.86h-3.76v-5.73h3.7ZM543.52,377.79l-1.55,1.41h-.62l.78-1.41h1.39Z"/><path class="cls-2" d="M547.52,379.59c.6,0,1.13.12,1.59.37.47.24.83.58,1.08,1.03.26.44.39.94.39,1.48s-.13,1.06-.39,1.49c-.26.43-.63.77-1.1,1.01-.48.24-1.02.36-1.64.36h-2.33v-5.73h2.4ZM547.4,384.46c.61,0,1.1-.18,1.48-.55.37-.37.56-.85.56-1.45s-.19-1.11-.56-1.46c-.37-.36-.88-.54-1.51-.54h-1.14v4h1.18Z"/><path class="cls-2" d="M554.55,379.52c.59,0,1.13.12,1.6.37s.85.6,1.13,1.06c.28.46.42.97.42,1.52s-.14,1.03-.41,1.49c-.27.46-.65.81-1.13,1.07-.48.25-1.02.38-1.62.38s-1.13-.13-1.62-.39c-.49-.26-.86-.61-1.13-1.06s-.41-.95-.41-1.49.14-1.02.41-1.48c.27-.46.64-.82,1.12-1.08s1.02-.38,1.64-.38ZM552.53,382.46c0,.38.09.72.26,1.03s.41.54.72.71c.31.17.66.25,1.04.25.59,0,1.07-.19,1.45-.55.38-.37.57-.84.57-1.43,0-.38-.09-.72-.26-1.03-.17-.3-.41-.54-.72-.71-.31-.17-.66-.25-1.05-.25s-.74.08-1.05.25c-.31.17-.55.4-.72.71-.17.3-.25.64-.25,1.03Z"/><path class="cls-2" d="M559.88,379.59v5.73h-1.11v-5.73h1.11Z"/><path class="cls-2" d="M562.14,379.59l3.4,4v-4h1.08v5.73h-.95l-3.42-4.06v4.06h-1.08v-5.73h.97Z"/><path class="cls-2" d="M571.59,379.59v.87h-2.6v1.51h2.49v.86h-2.49v1.63h2.65v.86h-3.76v-5.73h3.7Z"/><path class="cls-1" d="M188.71,32.79v8.19h-1.58v-8.19h1.58Z"/><path class="cls-1" d="M191.94,35.17c.56,0,1.1.14,1.61.42v.98c-.59-.36-1.12-.54-1.58-.54-.28,0-.5.05-.65.16-.16.11-.24.25-.24.43,0,.22.15.41.44.6.08.06.4.21.95.46.47.22.81.47,1.02.74.21.27.31.6.31.98,0,.49-.18.89-.53,1.19-.35.3-.81.45-1.38.45-.37,0-.68-.04-.95-.12-.26-.08-.56-.22-.89-.42v-1.09c.61.51,1.19.76,1.73.76.27,0,.49-.06.66-.18s.25-.27.25-.47c0-.26-.14-.48-.43-.65-.24-.13-.55-.29-.93-.47-.45-.21-.79-.45-1.01-.72-.22-.27-.33-.59-.33-.95,0-.48.18-.86.54-1.15s.83-.43,1.42-.43Z"/><path class="cls-1" d="M195.87,35.25v4.87h2.78v.86h-3.89v-5.73h1.11Z"/><path class="cls-1" d="M202.31,35.25l2.53,5.73h-1.17l-.59-1.39h-2.55l-.55,1.39h-1.16l2.36-5.73h1.13ZM200.87,38.74h1.85l-.97-2.27-.88,2.27Z"/><path class="cls-1" d="M206.49,35.25l3.4,4v-4h1.08v5.73h-.95l-3.42-4.06v4.06h-1.08v-5.73h.97Z"/><path class="cls-1" d="M214.63,35.25c.6,0,1.13.12,1.59.37s.83.58,1.08,1.03.39.94.39,1.48-.13,1.06-.39,1.49c-.26.43-.63.77-1.1,1.01-.48.24-1.02.36-1.64.36h-2.33v-5.73h2.4ZM214.52,40.11c.61,0,1.1-.18,1.47-.55.37-.37.56-.85.56-1.45s-.19-1.11-.56-1.46c-.37-.36-.88-.54-1.51-.54h-1.14v4h1.18Z"/><path class="cls-1" d="M222.43,35.25v.87h-2.6v1.51h2.49v.86h-2.49v1.63h2.65v.86h-3.76v-5.73h3.7Z"/><path class="cls-2" d="M188.71,32.79v8.19h-1.58v-8.19h1.58Z"/><path class="cls-2" d="M191.94,35.17c.56,0,1.1.14,1.61.42v.98c-.59-.36-1.12-.54-1.58-.54-.28,0-.5.05-.65.16-.16.11-.24.25-.24.43,0,.22.15.41.44.6.08.06.4.21.95.46.47.22.81.47,1.02.74.21.27.31.6.31.98,0,.49-.18.89-.53,1.19-.35.3-.81.45-1.38.45-.37,0-.68-.04-.95-.12-.26-.08-.56-.22-.89-.42v-1.09c.61.51,1.19.76,1.73.76.27,0,.49-.06.66-.18s.25-.27.25-.47c0-.26-.14-.48-.43-.65-.24-.13-.55-.29-.93-.47-.45-.21-.79-.45-1.01-.72-.22-.27-.33-.59-.33-.95,0-.48.18-.86.54-1.15s.83-.43,1.42-.43Z"/><path class="cls-2" d="M195.87,35.25v4.87h2.78v.86h-3.89v-5.73h1.11Z"/><path class="cls-2" d="M202.31,35.25l2.53,5.73h-1.17l-.59-1.39h-2.55l-.55,1.39h-1.16l2.36-5.73h1.13ZM200.87,38.74h1.85l-.97-2.27-.88,2.27Z"/><path class="cls-2" d="M206.49,35.25l3.4,4v-4h1.08v5.73h-.95l-3.42-4.06v4.06h-1.08v-5.73h.97Z"/><path class="cls-2" d="M214.63,35.25c.6,0,1.13.12,1.59.37s.83.58,1.08,1.03.39.94.39,1.48-.13,1.06-.39,1.49c-.26.43-.63.77-1.1,1.01-.48.24-1.02.36-1.64.36h-2.33v-5.73h2.4ZM214.52,40.11c.61,0,1.1-.18,1.47-.55.37-.37.56-.85.56-1.45s-.19-1.11-.56-1.46c-.37-.36-.88-.54-1.51-.54h-1.14v4h1.18Z"/><path class="cls-2" d="M222.43,35.25v.87h-2.6v1.51h2.49v.86h-2.49v1.63h2.65v.86h-3.76v-5.73h3.7Z"/><path class="cls-1" d="M293.95,228.18c.75,0,1.36.2,1.83.59s.71.88.71,1.46c0,.38-.1.71-.3.99s-.48.51-.86.68v.07c.57.13,1.01.38,1.33.76.32.38.48.83.48,1.34,0,.45-.12.86-.35,1.22-.23.36-.55.63-.97.81s-.9.27-1.46.27h-3.43v-8.19h3ZM293.53,231.58c.42,0,.75-.1.99-.3s.36-.48.36-.83c0-.32-.11-.57-.33-.75-.22-.19-.52-.28-.88-.28h-1.14v2.16h1ZM293.9,235.13c.53,0,.94-.1,1.21-.3.27-.2.41-.5.41-.89,0-.35-.14-.62-.41-.82-.27-.2-.64-.3-1.09-.3h-1.49v2.31h1.37Z"/><path class="cls-1" d="M301.92,230.64v.87h-2.6v1.51h2.49v.86h-2.49v1.63h2.65v.86h-3.76v-5.73h3.7Z"/><path class="cls-1" d="M304.11,230.64v4.87h2.78v.86h-3.89v-5.73h1.11Z"/><path class="cls-1" d="M310.49,230.56c.71,0,1.41.16,2.1.47v1.01c-.69-.35-1.38-.53-2.05-.53-.42,0-.79.08-1.12.25-.33.17-.58.41-.76.72-.18.31-.27.66-.27,1.05,0,.58.2,1.06.58,1.41.39.36.9.54,1.54.54.18,0,.34-.02.5-.05.16-.03.35-.09.57-.17v-.95h-.95v-.86h2.05v2.36c-.28.2-.62.35-1.02.46-.39.11-.81.17-1.23.17-.6,0-1.15-.12-1.64-.37-.49-.25-.87-.6-1.15-1.05-.28-.45-.41-.95-.41-1.5s.14-1.07.42-1.52c.28-.45.66-.81,1.16-1.06.5-.25,1.05-.38,1.66-.38Z"/><path class="cls-1" d="M315.02,230.64v5.73h-1.11v-5.73h1.11Z"/><path class="cls-1" d="M319.29,230.56c.58,0,1.1.13,1.58.38.48.26.85.61,1.12,1.06.27.45.41.95.41,1.48,0,.43-.09.85-.28,1.24-.19.39-.45.72-.78,1-.34.28-.72.47-1.15.57v.06c.6.29,1.15.43,1.63.43.18,0,.34-.02.5-.07l.03.05-.92.83c-.93-.06-1.93-.48-2.99-1.26-.45-.09-.86-.27-1.22-.55-.37-.28-.65-.62-.84-1.02-.2-.4-.3-.82-.3-1.27,0-.54.14-1.04.41-1.51.28-.47.66-.83,1.14-1.08.48-.25,1.03-.38,1.66-.38ZM317.22,233.51c0,.58.19,1.06.56,1.42.37.37.87.55,1.48.55.38,0,.72-.08,1.03-.25.31-.17.55-.4.72-.7.17-.3.26-.64.26-1.01s-.08-.73-.25-1.03-.41-.54-.72-.71c-.31-.17-.65-.25-1.03-.25-.61,0-1.1.18-1.48.55-.37.37-.56.85-.56,1.45Z"/><path class="cls-1" d="M324.51,230.64v3.34c0,.34.05.61.15.82.1.2.27.37.5.5s.5.2.81.2c.34,0,.63-.06.86-.19.24-.12.41-.29.52-.51s.16-.51.16-.89v-3.26h1.11v3.41c0,.77-.23,1.36-.69,1.78-.46.41-1.12.62-1.96.62-.53,0-.99-.09-1.38-.28-.39-.19-.69-.46-.89-.82-.21-.36-.31-.78-.31-1.26v-3.45h1.11Z"/><path class="cls-1" d="M333.56,230.64v.87h-2.6v1.51h2.49v.86h-2.49v1.63h2.65v.86h-3.76v-5.73h3.7Z"/><path class="cls-2" d="M293.95,228.18c.75,0,1.36.2,1.83.59s.71.88.71,1.46c0,.38-.1.71-.3.99s-.48.51-.86.68v.07c.57.13,1.01.38,1.33.76.32.38.48.83.48,1.34,0,.45-.12.86-.35,1.22-.23.36-.55.63-.97.81s-.9.27-1.46.27h-3.43v-8.19h3ZM293.53,231.58c.42,0,.75-.1.99-.3s.36-.48.36-.83c0-.32-.11-.57-.33-.75-.22-.19-.52-.28-.88-.28h-1.14v2.16h1ZM293.9,235.13c.53,0,.94-.1,1.21-.3.27-.2.41-.5.41-.89,0-.35-.14-.62-.41-.82-.27-.2-.64-.3-1.09-.3h-1.49v2.31h1.37Z"/><path class="cls-2" d="M301.92,230.64v.87h-2.6v1.51h2.49v.86h-2.49v1.63h2.65v.86h-3.76v-5.73h3.7Z"/><path class="cls-2" d="M304.11,230.64v4.87h2.78v.86h-3.89v-5.73h1.11Z"/><path class="cls-2" d="M310.49,230.56c.71,0,1.41.16,2.1.47v1.01c-.69-.35-1.38-.53-2.05-.53-.42,0-.79.08-1.12.25-.33.17-.58.41-.76.72-.18.31-.27.66-.27,1.05,0,.58.2,1.06.58,1.41.39.36.9.54,1.54.54.18,0,.34-.02.5-.05.16-.03.35-.09.57-.17v-.95h-.95v-.86h2.05v2.36c-.28.2-.62.35-1.02.46-.39.11-.81.17-1.23.17-.6,0-1.15-.12-1.64-.37-.49-.25-.87-.6-1.15-1.05-.28-.45-.41-.95-.41-1.5s.14-1.07.42-1.52c.28-.45.66-.81,1.16-1.06.5-.25,1.05-.38,1.66-.38Z"/><path class="cls-2" d="M315.02,230.64v5.73h-1.11v-5.73h1.11Z"/><path class="cls-2" d="M319.29,230.56c.58,0,1.1.13,1.58.38.48.26.85.61,1.12,1.06.27.45.41.95.41,1.48,0,.43-.09.85-.28,1.24-.19.39-.45.72-.78,1-.34.28-.72.47-1.15.57v.06c.6.29,1.15.43,1.63.43.18,0,.34-.02.5-.07l.03.05-.92.83c-.93-.06-1.93-.48-2.99-1.26-.45-.09-.86-.27-1.22-.55-.37-.28-.65-.62-.84-1.02-.2-.4-.3-.82-.3-1.27,0-.54.14-1.04.41-1.51.28-.47.66-.83,1.14-1.08.48-.25,1.03-.38,1.66-.38ZM317.22,233.51c0,.58.19,1.06.56,1.42.37.37.87.55,1.48.55.38,0,.72-.08,1.03-.25.31-.17.55-.4.72-.7.17-.3.26-.64.26-1.01s-.08-.73-.25-1.03-.41-.54-.72-.71c-.31-.17-.65-.25-1.03-.25-.61,0-1.1.18-1.48.55-.37.37-.56.85-.56,1.45Z"/><path class="cls-2" d="M324.51,230.64v3.34c0,.34.05.61.15.82.1.2.27.37.5.5s.5.2.81.2c.34,0,.63-.06.86-.19.24-.12.41-.29.52-.51s.16-.51.16-.89v-3.26h1.11v3.41c0,.77-.23,1.36-.69,1.78-.46.41-1.12.62-1.96.62-.53,0-.99-.09-1.38-.28-.39-.19-.69-.46-.89-.82-.21-.36-.31-.78-.31-1.26v-3.45h1.11Z"/><path class="cls-2" d="M333.56,230.64v.87h-2.6v1.51h2.49v.86h-2.49v1.63h2.65v.86h-3.76v-5.73h3.7Z"/><path class="cls-1" d="M323.19,247.35v6.95h3.97v1.24h-5.55v-8.19h1.58Z"/><path class="cls-1" d="M329.04,249.81v3.34c0,.34.05.61.15.82.1.2.27.37.5.5s.5.2.81.2c.34,0,.63-.06.86-.19.24-.12.41-.29.52-.51s.16-.51.16-.89v-3.26h1.11v3.41c0,.77-.23,1.36-.69,1.78-.46.41-1.12.62-1.96.62-.53,0-.99-.09-1.38-.28-.39-.19-.69-.46-.89-.82-.21-.36-.31-.78-.31-1.26v-3.45h1.11Z"/><path class="cls-1" d="M335.37,249.81l1.58,1.94,1.55-1.94h1.38l-2.24,2.77,2.45,2.96h-1.4l-1.74-2.14-1.74,2.14h-1.39l2.43-2.96-2.27-2.77h1.39Z"/><path class="cls-1" d="M341.64,253.84c.24,0,.45.09.63.26s.27.39.27.64-.09.45-.26.63c-.18.18-.39.27-.64.27s-.46-.09-.64-.27c-.18-.18-.27-.39-.27-.63s.09-.46.27-.64.39-.26.63-.26Z"/><path class="cls-2" d="M323.19,247.35v6.95h3.97v1.24h-5.55v-8.19h1.58Z"/><path class="cls-2" d="M329.04,249.81v3.34c0,.34.05.61.15.82.1.2.27.37.5.5s.5.2.81.2c.34,0,.63-.06.86-.19.24-.12.41-.29.52-.51s.16-.51.16-.89v-3.26h1.11v3.41c0,.77-.23,1.36-.69,1.78-.46.41-1.12.62-1.96.62-.53,0-.99-.09-1.38-.28-.39-.19-.69-.46-.89-.82-.21-.36-.31-.78-.31-1.26v-3.45h1.11Z"/><path class="cls-2" d="M335.37,249.81l1.58,1.94,1.55-1.94h1.38l-2.24,2.77,2.45,2.96h-1.4l-1.74-2.14-1.74,2.14h-1.39l2.43-2.96-2.27-2.77h1.39Z"/><path class="cls-2" d="M341.64,253.84c.24,0,.45.09.63.26s.27.39.27.64-.09.45-.26.63c-.18.18-.39.27-.64.27s-.46-.09-.64-.27c-.18-.18-.27-.39-.27-.63s.09-.46.27-.64.39-.26.63-.26Z"/><path class="cls-1" d="M318.5,207.13c.77,0,1.39.22,1.87.66.48.44.72,1.01.72,1.71s-.24,1.28-.73,1.72-1.12.66-1.92.66h-1.52v3.43h-1.58v-8.19h3.16ZM318.1,210.65c.42,0,.75-.1.99-.29.24-.19.35-.48.35-.86,0-.75-.48-1.13-1.45-1.13h-1.08v2.28h1.19Z"/><path class="cls-1" d="M324.97,209.59l2.53,5.73h-1.17l-.59-1.39h-2.55l-.55,1.39h-1.16l2.36-5.73h1.13ZM323.53,213.08h1.85l-.97-2.27-.88,2.27Z"/><path class="cls-1" d="M328.34,209.59l1.39,1.92,1.4-1.92h1.32l-2.17,2.89v2.84h-1.11v-2.85l-2.18-2.88h1.35Z"/><path class="cls-1" d="M334.52,209.52c.56,0,1.1.14,1.61.42v.98c-.59-.36-1.12-.54-1.58-.54-.28,0-.5.05-.65.16-.16.11-.24.25-.24.43,0,.22.15.41.44.6.08.06.4.21.95.46.47.22.81.47,1.02.74.21.27.31.6.31.98,0,.49-.18.89-.53,1.19-.35.3-.81.45-1.38.45-.37,0-.68-.04-.95-.12-.26-.08-.56-.22-.89-.42v-1.09c.61.51,1.19.76,1.73.76.27,0,.49-.06.66-.18s.25-.27.25-.47c0-.26-.14-.48-.43-.65-.24-.13-.55-.29-.93-.47-.45-.21-.79-.45-1.01-.72-.22-.27-.33-.59-.33-.95,0-.48.18-.86.54-1.15s.83-.43,1.42-.43Z"/><path class="cls-1" d="M343.95,207.13c.75,0,1.36.2,1.83.59s.71.88.71,1.46c0,.38-.1.71-.3.99s-.48.51-.86.68v.07c.57.13,1.01.38,1.33.76.32.38.48.83.48,1.34,0,.45-.12.86-.35,1.22-.23.36-.55.63-.97.81s-.9.27-1.46.27h-3.43v-8.19h3ZM343.53,210.53c.42,0,.75-.1.99-.3s.36-.48.36-.83c0-.32-.11-.57-.33-.75-.22-.19-.52-.28-.88-.28h-1.14v2.16h1ZM343.9,214.08c.53,0,.94-.1,1.21-.3.27-.2.41-.5.41-.89,0-.35-.14-.62-.41-.82-.27-.2-.64-.3-1.09-.3h-1.49v2.31h1.37Z"/><path class="cls-1" d="M351.12,209.59l2.53,5.73h-1.17l-.59-1.39h-2.55l-.55,1.39h-1.16l2.36-5.73h1.13ZM349.68,213.08h1.85l-.97-2.27-.88,2.27Z"/><path class="cls-1" d="M355.99,209.52c.56,0,1.1.14,1.61.42v.98c-.59-.36-1.12-.54-1.58-.54-.28,0-.5.05-.65.16-.16.11-.24.25-.24.43,0,.22.15.41.44.6.08.06.4.21.95.46.47.22.81.47,1.02.74.21.27.31.6.31.98,0,.49-.18.89-.53,1.19-.35.3-.81.45-1.38.45-.37,0-.68-.04-.95-.12-.26-.08-.56-.22-.89-.42v-1.09c.61.51,1.19.76,1.73.76.27,0,.49-.06.66-.18s.25-.27.25-.47c0-.26-.14-.48-.43-.65-.24-.13-.55-.29-.93-.47-.45-.21-.79-.45-1.01-.72-.22-.27-.33-.59-.33-.95,0-.48.18-.86.54-1.15s.83-.43,1.42-.43Z"/><path class="cls-2" d="M318.5,207.13c.77,0,1.39.22,1.87.66.48.44.72,1.01.72,1.71s-.24,1.28-.73,1.72-1.12.66-1.92.66h-1.52v3.43h-1.58v-8.19h3.16ZM318.1,210.65c.42,0,.75-.1.99-.29.24-.19.35-.48.35-.86,0-.75-.48-1.13-1.45-1.13h-1.08v2.28h1.19Z"/><path class="cls-2" d="M324.97,209.59l2.53,5.73h-1.17l-.59-1.39h-2.55l-.55,1.39h-1.16l2.36-5.73h1.13ZM323.53,213.08h1.85l-.97-2.27-.88,2.27Z"/><path class="cls-2" d="M328.34,209.59l1.39,1.92,1.4-1.92h1.32l-2.17,2.89v2.84h-1.11v-2.85l-2.18-2.88h1.35Z"/><path class="cls-2" d="M334.52,209.52c.56,0,1.1.14,1.61.42v.98c-.59-.36-1.12-.54-1.58-.54-.28,0-.5.05-.65.16-.16.11-.24.25-.24.43,0,.22.15.41.44.6.08.06.4.21.95.46.47.22.81.47,1.02.74.21.27.31.6.31.98,0,.49-.18.89-.53,1.19-.35.3-.81.45-1.38.45-.37,0-.68-.04-.95-.12-.26-.08-.56-.22-.89-.42v-1.09c.61.51,1.19.76,1.73.76.27,0,.49-.06.66-.18s.25-.27.25-.47c0-.26-.14-.48-.43-.65-.24-.13-.55-.29-.93-.47-.45-.21-.79-.45-1.01-.72-.22-.27-.33-.59-.33-.95,0-.48.18-.86.54-1.15s.83-.43,1.42-.43Z"/><path class="cls-2" d="M343.95,207.13c.75,0,1.36.2,1.83.59s.71.88.71,1.46c0,.38-.1.71-.3.99s-.48.51-.86.68v.07c.57.13,1.01.38,1.33.76.32.38.48.83.48,1.34,0,.45-.12.86-.35,1.22-.23.36-.55.63-.97.81s-.9.27-1.46.27h-3.43v-8.19h3ZM343.53,210.53c.42,0,.75-.1.99-.3s.36-.48.36-.83c0-.32-.11-.57-.33-.75-.22-.19-.52-.28-.88-.28h-1.14v2.16h1ZM343.9,214.08c.53,0,.94-.1,1.21-.3.27-.2.41-.5.41-.89,0-.35-.14-.62-.41-.82-.27-.2-.64-.3-1.09-.3h-1.49v2.31h1.37Z"/><path class="cls-2" d="M351.12,209.59l2.53,5.73h-1.17l-.59-1.39h-2.55l-.55,1.39h-1.16l2.36-5.73h1.13ZM349.68,213.08h1.85l-.97-2.27-.88,2.27Z"/><path class="cls-2" d="M355.99,209.52c.56,0,1.1.14,1.61.42v.98c-.59-.36-1.12-.54-1.58-.54-.28,0-.5.05-.65.16-.16.11-.24.25-.24.43,0,.22.15.41.44.6.08.06.4.21.95.46.47.22.81.47,1.02.74.21.27.31.6.31.98,0,.49-.18.89-.53,1.19-.35.3-.81.45-1.38.45-.37,0-.68-.04-.95-.12-.26-.08-.56-.22-.89-.42v-1.09c.61.51,1.19.76,1.73.76.27,0,.49-.06.66-.18s.25-.27.25-.47c0-.26-.14-.48-.43-.65-.24-.13-.55-.29-.93-.47-.45-.21-.79-.45-1.01-.72-.22-.27-.33-.59-.33-.95,0-.48.18-.86.54-1.15s.83-.43,1.42-.43Z"/><path class="cls-1" d="M491.86,286.81v3.45h4.25v-3.45h1.58v8.19h-1.58v-3.46h-4.25v3.46h-1.58v-8.19h1.58Z"/><path class="cls-1" d="M502.16,289.2c.59,0,1.13.12,1.6.37.47.24.85.6,1.13,1.06.28.46.42.97.42,1.52s-.14,1.03-.41,1.49c-.27.46-.65.81-1.13,1.07-.48.25-1.02.38-1.62.38s-1.13-.13-1.62-.39-.86-.61-1.13-1.06-.41-.95-.41-1.49.13-1.02.41-1.48c.27-.46.64-.82,1.12-1.08s1.02-.38,1.64-.38ZM500.14,292.14c0,.38.09.72.26,1.03s.41.54.72.71c.31.17.66.25,1.04.25.59,0,1.07-.19,1.45-.55s.57-.84.57-1.43c0-.38-.09-.72-.26-1.03s-.41-.54-.72-.71c-.31-.17-.66-.25-1.05-.25s-.74.08-1.05.25c-.31.17-.55.4-.72.71-.17.3-.25.64-.25,1.03Z"/><path class="cls-1" d="M507.33,289.27l3.4,4v-4h1.08v5.73h-.95l-3.43-4.06v4.06h-1.08v-5.73h.97Z"/><path class="cls-1" d="M516.09,289.2c.71,0,1.41.16,2.1.47v1.01c-.69-.35-1.38-.53-2.05-.53-.42,0-.79.08-1.12.25-.33.17-.58.41-.76.72s-.27.66-.27,1.05c0,.58.19,1.06.58,1.41.39.36.9.54,1.54.54.17,0,.34-.02.5-.05.16-.03.35-.09.57-.17v-.95h-.95v-.86h2.06v2.36c-.28.2-.62.35-1.02.46-.39.11-.81.17-1.23.17-.6,0-1.15-.12-1.64-.37-.49-.25-.87-.6-1.15-1.05-.28-.45-.41-.95-.41-1.5s.14-1.07.42-1.52c.28-.45.66-.81,1.16-1.06.5-.25,1.05-.38,1.66-.38Z"/><path class="cls-1" d="M521.54,289.27c.54,0,.98.15,1.32.45.34.3.51.69.51,1.16,0,.33-.08.61-.25.85-.17.24-.42.43-.75.57.18.1.35.23.49.4.14.17.32.45.53.86.35.69.61,1.17.78,1.44h-1.24c-.08-.13-.2-.33-.34-.6-.32-.61-.55-1.02-.7-1.23s-.29-.36-.43-.45c-.14-.09-.29-.13-.47-.13h-.4v2.42h-1.11v-5.73h2.06ZM521.29,291.71c.29,0,.52-.07.68-.22.17-.15.25-.34.25-.59s-.08-.46-.25-.59-.4-.19-.7-.19h-.69v1.59h.71Z"/><path class="cls-1" d="M526.02,289.27v5.73h-1.11v-5.73h1.11Z"/><path class="cls-1" d="M531.01,289.27v.87h-2.6v1.51h2.49v.86h-2.49v1.63h2.65v.86h-3.76v-5.73h3.7Z"/><path class="cls-2" d="M491.86,286.81v3.45h4.25v-3.45h1.58v8.19h-1.58v-3.46h-4.25v3.46h-1.58v-8.19h1.58Z"/><path class="cls-2" d="M502.16,289.2c.59,0,1.13.12,1.6.37.47.24.85.6,1.13,1.06.28.46.42.97.42,1.52s-.14,1.03-.41,1.49c-.27.46-.65.81-1.13,1.07-.48.25-1.02.38-1.62.38s-1.13-.13-1.62-.39-.86-.61-1.13-1.06-.41-.95-.41-1.49.13-1.02.41-1.48c.27-.46.64-.82,1.12-1.08s1.02-.38,1.64-.38ZM500.14,292.14c0,.38.09.72.26,1.03s.41.54.72.71c.31.17.66.25,1.04.25.59,0,1.07-.19,1.45-.55s.57-.84.57-1.43c0-.38-.09-.72-.26-1.03s-.41-.54-.72-.71c-.31-.17-.66-.25-1.05-.25s-.74.08-1.05.25c-.31.17-.55.4-.72.71-.17.3-.25.64-.25,1.03Z"/><path class="cls-2" d="M507.33,289.27l3.4,4v-4h1.08v5.73h-.95l-3.43-4.06v4.06h-1.08v-5.73h.97Z"/><path class="cls-2" d="M516.09,289.2c.71,0,1.41.16,2.1.47v1.01c-.69-.35-1.38-.53-2.05-.53-.42,0-.79.08-1.12.25-.33.17-.58.41-.76.72s-.27.66-.27,1.05c0,.58.19,1.06.58,1.41.39.36.9.54,1.54.54.17,0,.34-.02.5-.05.16-.03.35-.09.57-.17v-.95h-.95v-.86h2.06v2.36c-.28.2-.62.35-1.02.46-.39.11-.81.17-1.23.17-.6,0-1.15-.12-1.64-.37-.49-.25-.87-.6-1.15-1.05-.28-.45-.41-.95-.41-1.5s.14-1.07.42-1.52c.28-.45.66-.81,1.16-1.06.5-.25,1.05-.38,1.66-.38Z"/><path class="cls-2" d="M521.54,289.27c.54,0,.98.15,1.32.45.34.3.51.69.51,1.16,0,.33-.08.61-.25.85-.17.24-.42.43-.75.57.18.1.35.23.49.4.14.17.32.45.53.86.35.69.61,1.17.78,1.44h-1.24c-.08-.13-.2-.33-.34-.6-.32-.61-.55-1.02-.7-1.23s-.29-.36-.43-.45c-.14-.09-.29-.13-.47-.13h-.4v2.42h-1.11v-5.73h2.06ZM521.29,291.71c.29,0,.52-.07.68-.22.17-.15.25-.34.25-.59s-.08-.46-.25-.59-.4-.19-.7-.19h-.69v1.59h.71Z"/><path class="cls-2" d="M526.02,289.27v5.73h-1.11v-5.73h1.11Z"/><path class="cls-2" d="M531.01,289.27v.87h-2.6v1.51h2.49v.86h-2.49v1.63h2.65v.86h-3.76v-5.73h3.7Z"/><path class="cls-1" d="M491.9,260.74c.8,0,1.56.2,2.3.6v1.41c-.85-.51-1.6-.77-2.26-.77-.4,0-.71.08-.93.23-.23.15-.34.36-.34.62,0,.31.21.59.63.86.12.08.57.3,1.35.66.67.32,1.16.67,1.45,1.05.3.39.45.85.45,1.39,0,.7-.25,1.27-.76,1.7-.51.43-1.16.65-1.97.65-.52,0-.97-.06-1.35-.17-.38-.11-.8-.31-1.27-.59v-1.56c.88.73,1.7,1.09,2.47,1.09.39,0,.7-.08.94-.25.24-.17.36-.39.36-.67,0-.38-.21-.69-.62-.93-.34-.19-.79-.41-1.33-.67-.64-.29-1.13-.64-1.44-1.03-.32-.39-.48-.84-.48-1.36,0-.69.26-1.24.77-1.64.51-.41,1.19-.61,2.03-.61Z"/><path class="cls-1" d="M496.77,263.3v4.87h2.78v.86h-3.89v-5.73h1.11Z"/><path class="cls-1" d="M503.08,263.23c.59,0,1.13.12,1.6.37s.85.6,1.13,1.06c.28.46.42.97.42,1.52s-.14,1.03-.41,1.49c-.27.46-.65.81-1.13,1.07-.48.25-1.02.38-1.62.38s-1.13-.13-1.62-.39c-.49-.26-.86-.61-1.13-1.06s-.41-.95-.41-1.49.14-1.02.41-1.48c.27-.46.64-.82,1.12-1.08s1.02-.38,1.64-.38ZM501.06,266.17c0,.38.09.72.26,1.03s.41.54.72.71c.31.17.66.25,1.04.25.59,0,1.07-.19,1.45-.55.38-.37.57-.84.57-1.43,0-.38-.09-.72-.26-1.03-.17-.3-.41-.54-.72-.71-.31-.17-.66-.25-1.05-.25s-.74.08-1.05.25c-.31.17-.55.4-.72.71-.17.3-.25.64-.25,1.03Z"/><path class="cls-1" d="M507.69,263.3l1.62,3.68,1.58-3.68h1.16l-2.53,5.8h-.39l-2.61-5.8h1.17Z"/><path class="cls-1" d="M514.95,263.3l2.53,5.73h-1.17l-.59-1.39h-2.55l-.55,1.39h-1.16l2.36-5.73h1.13ZM513.51,266.79h1.85l-.97-2.27-.88,2.27Z"/><path class="cls-1" d="M520.89,263.23c.58,0,1.1.13,1.58.38s.85.61,1.12,1.06.41.95.41,1.48c0,.43-.09.85-.28,1.24-.19.39-.45.72-.78,1-.34.28-.72.47-1.15.57v.06c.6.29,1.15.43,1.63.43.18,0,.34-.02.5-.07l.03.05-.92.83c-.93-.06-1.93-.48-2.99-1.26-.45-.09-.86-.27-1.22-.55-.37-.28-.65-.62-.84-1.02-.2-.4-.3-.82-.3-1.27,0-.54.14-1.04.41-1.51.28-.47.66-.83,1.14-1.08.48-.25,1.03-.38,1.66-.38ZM518.82,266.18c0,.58.19,1.06.56,1.43.38.37.87.55,1.48.55.38,0,.72-.08,1.03-.25.31-.17.55-.4.72-.7.17-.3.26-.64.26-1.01s-.08-.73-.25-1.03c-.17-.31-.41-.54-.72-.71-.31-.17-.65-.25-1.03-.25-.61,0-1.1.18-1.48.55-.37.37-.56.85-.56,1.45Z"/><path class="cls-1" d="M526.1,263.3v3.34c0,.34.05.61.15.82.1.2.27.37.5.5.23.13.5.2.81.2.34,0,.63-.06.86-.19.24-.12.41-.29.52-.51.11-.21.16-.51.16-.89v-3.26h1.11v3.41c0,.77-.23,1.36-.69,1.78-.46.41-1.12.62-1.96.62-.53,0-.99-.09-1.38-.28-.39-.19-.69-.46-.89-.82-.21-.36-.31-.78-.31-1.26v-3.45h1.11Z"/><path class="cls-1" d="M532.58,263.3v5.73h-1.11v-5.73h1.11Z"/><path class="cls-1" d="M537.57,263.3v.87h-2.6v1.51h2.49v.86h-2.49v1.63h2.65v.86h-3.76v-5.73h3.7Z"/><path class="cls-2" d="M491.9,260.74c.8,0,1.56.2,2.3.6v1.41c-.85-.51-1.6-.77-2.26-.77-.4,0-.71.08-.93.23-.23.15-.34.36-.34.62,0,.31.21.59.63.86.12.08.57.3,1.35.66.67.32,1.16.67,1.45,1.05.3.39.45.85.45,1.39,0,.7-.25,1.27-.76,1.7-.51.43-1.16.65-1.97.65-.52,0-.97-.06-1.35-.17-.38-.11-.8-.31-1.27-.59v-1.56c.88.73,1.7,1.09,2.47,1.09.39,0,.7-.08.94-.25.24-.17.36-.39.36-.67,0-.38-.21-.69-.62-.93-.34-.19-.79-.41-1.33-.67-.64-.29-1.13-.64-1.44-1.03-.32-.39-.48-.84-.48-1.36,0-.69.26-1.24.77-1.64.51-.41,1.19-.61,2.03-.61Z"/><path class="cls-2" d="M496.77,263.3v4.87h2.78v.86h-3.89v-5.73h1.11Z"/><path class="cls-2" d="M503.08,263.23c.59,0,1.13.12,1.6.37s.85.6,1.13,1.06c.28.46.42.97.42,1.52s-.14,1.03-.41,1.49c-.27.46-.65.81-1.13,1.07-.48.25-1.02.38-1.62.38s-1.13-.13-1.62-.39c-.49-.26-.86-.61-1.13-1.06s-.41-.95-.41-1.49.14-1.02.41-1.48c.27-.46.64-.82,1.12-1.08s1.02-.38,1.64-.38ZM501.06,266.17c0,.38.09.72.26,1.03s.41.54.72.71c.31.17.66.25,1.04.25.59,0,1.07-.19,1.45-.55.38-.37.57-.84.57-1.43,0-.38-.09-.72-.26-1.03-.17-.3-.41-.54-.72-.71-.31-.17-.66-.25-1.05-.25s-.74.08-1.05.25c-.31.17-.55.4-.72.71-.17.3-.25.64-.25,1.03Z"/><path class="cls-2" d="M507.69,263.3l1.62,3.68,1.58-3.68h1.16l-2.53,5.8h-.39l-2.61-5.8h1.17Z"/><path class="cls-2" d="M514.95,263.3l2.53,5.73h-1.17l-.59-1.39h-2.55l-.55,1.39h-1.16l2.36-5.73h1.13ZM513.51,266.79h1.85l-.97-2.27-.88,2.27Z"/><path class="cls-2" d="M520.89,263.23c.58,0,1.1.13,1.58.38s.85.61,1.12,1.06.41.95.41,1.48c0,.43-.09.85-.28,1.24-.19.39-.45.72-.78,1-.34.28-.72.47-1.15.57v.06c.6.29,1.15.43,1.63.43.18,0,.34-.02.5-.07l.03.05-.92.83c-.93-.06-1.93-.48-2.99-1.26-.45-.09-.86-.27-1.22-.55-.37-.28-.65-.62-.84-1.02-.2-.4-.3-.82-.3-1.27,0-.54.14-1.04.41-1.51.28-.47.66-.83,1.14-1.08.48-.25,1.03-.38,1.66-.38ZM518.82,266.18c0,.58.19,1.06.56,1.43.38.37.87.55,1.48.55.38,0,.72-.08,1.03-.25.31-.17.55-.4.72-.7.17-.3.26-.64.26-1.01s-.08-.73-.25-1.03c-.17-.31-.41-.54-.72-.71-.31-.17-.65-.25-1.03-.25-.61,0-1.1.18-1.48.55-.37.37-.56.85-.56,1.45Z"/><path class="cls-2" d="M526.1,263.3v3.34c0,.34.05.61.15.82.1.2.27.37.5.5.23.13.5.2.81.2.34,0,.63-.06.86-.19.24-.12.41-.29.52-.51.11-.21.16-.51.16-.89v-3.26h1.11v3.41c0,.77-.23,1.36-.69,1.78-.46.41-1.12.62-1.96.62-.53,0-.99-.09-1.38-.28-.39-.19-.69-.46-.89-.82-.21-.36-.31-.78-.31-1.26v-3.45h1.11Z"/><path class="cls-2" d="M532.58,263.3v5.73h-1.11v-5.73h1.11Z"/><path class="cls-2" d="M537.57,263.3v.87h-2.6v1.51h2.49v.86h-2.49v1.63h2.65v.86h-3.76v-5.73h3.7Z"/><path class="cls-1" d="M377.63,101.07l4.86,5.71v-5.71h1.55v8.19h-1.36l-4.89-5.81v5.81h-1.55v-8.19h1.39Z"/><path class="cls-1" d="M388.5,103.45c.59,0,1.13.12,1.6.37.47.24.85.6,1.13,1.06s.42.97.42,1.52-.14,1.03-.41,1.49c-.27.46-.65.81-1.13,1.07-.48.25-1.02.38-1.62.38s-1.13-.13-1.62-.39c-.49-.26-.86-.61-1.13-1.06s-.41-.95-.41-1.49.14-1.02.41-1.48c.27-.46.64-.82,1.12-1.08s1.02-.38,1.64-.38ZM386.48,106.39c0,.38.09.72.26,1.03s.41.54.72.71c.31.17.66.25,1.04.25.59,0,1.07-.19,1.45-.55.38-.37.57-.84.57-1.43,0-.38-.09-.72-.26-1.03-.17-.3-.41-.54-.72-.71-.31-.17-.66-.25-1.05-.25s-.74.08-1.05.25c-.31.17-.55.4-.72.71s-.25.64-.25,1.03Z"/><path class="cls-1" d="M394.76,103.52c.54,0,.98.15,1.32.45s.51.69.51,1.16c0,.33-.08.61-.25.85-.17.24-.42.43-.75.57.18.1.35.23.49.4.14.17.32.45.53.86.35.69.61,1.17.78,1.44h-1.23c-.08-.13-.2-.33-.34-.6-.32-.61-.55-1.02-.7-1.23s-.29-.36-.43-.45-.29-.13-.47-.13h-.4v2.42h-1.11v-5.73h2.06ZM394.51,105.97c.29,0,.52-.07.68-.22.17-.15.25-.34.25-.59s-.08-.46-.25-.59-.4-.19-.7-.19h-.69v1.59h.71Z"/><path class="cls-1" d="M398.27,103.52l1.62,3.68,1.58-3.68h1.16l-2.53,5.8h-.39l-2.61-5.8h1.17Z"/><path class="cls-1" d="M407.01,103.52v.87h-2.6v1.51h2.49v.86h-2.49v1.63h2.65v.86h-3.76v-5.73h3.7ZM405.17,101.72l.78,1.41h-.62l-1.55-1.41h1.39Z"/><path class="cls-1" d="M411.1,103.45c.71,0,1.41.16,2.1.47v1.01c-.69-.35-1.38-.53-2.05-.53-.42,0-.79.08-1.12.25-.33.17-.58.41-.76.72-.18.31-.27.66-.27,1.05,0,.58.2,1.06.58,1.41.39.36.9.54,1.54.54.18,0,.34-.02.5-.05.16-.03.35-.09.57-.17v-.95h-.95v-.86h2.05v2.36c-.28.2-.62.35-1.02.46-.39.11-.81.17-1.23.17-.6,0-1.15-.12-1.64-.37-.49-.25-.87-.6-1.15-1.05-.28-.45-.41-.95-.41-1.5s.14-1.07.42-1.52c.28-.45.66-.81,1.16-1.06.5-.25,1.05-.38,1.66-.38Z"/><path class="cls-1" d="M418.2,103.52v.87h-2.6v1.51h2.49v.86h-2.49v1.63h2.65v.86h-3.76v-5.73h3.7Z"/><path class="cls-2" d="M377.63,101.07l4.86,5.71v-5.71h1.55v8.19h-1.36l-4.89-5.81v5.81h-1.55v-8.19h1.39Z"/><path class="cls-2" d="M388.5,103.45c.59,0,1.13.12,1.6.37.47.24.85.6,1.13,1.06s.42.97.42,1.52-.14,1.03-.41,1.49c-.27.46-.65.81-1.13,1.07-.48.25-1.02.38-1.62.38s-1.13-.13-1.62-.39c-.49-.26-.86-.61-1.13-1.06s-.41-.95-.41-1.49.14-1.02.41-1.48c.27-.46.64-.82,1.12-1.08s1.02-.38,1.64-.38ZM386.48,106.39c0,.38.09.72.26,1.03s.41.54.72.71c.31.17.66.25,1.04.25.59,0,1.07-.19,1.45-.55.38-.37.57-.84.57-1.43,0-.38-.09-.72-.26-1.03-.17-.3-.41-.54-.72-.71-.31-.17-.66-.25-1.05-.25s-.74.08-1.05.25c-.31.17-.55.4-.72.71s-.25.64-.25,1.03Z"/><path class="cls-2" d="M394.76,103.52c.54,0,.98.15,1.32.45s.51.69.51,1.16c0,.33-.08.61-.25.85-.17.24-.42.43-.75.57.18.1.35.23.49.4.14.17.32.45.53.86.35.69.61,1.17.78,1.44h-1.23c-.08-.13-.2-.33-.34-.6-.32-.61-.55-1.02-.7-1.23s-.29-.36-.43-.45-.29-.13-.47-.13h-.4v2.42h-1.11v-5.73h2.06ZM394.51,105.97c.29,0,.52-.07.68-.22.17-.15.25-.34.25-.59s-.08-.46-.25-.59-.4-.19-.7-.19h-.69v1.59h.71Z"/><path class="cls-2" d="M398.27,103.52l1.62,3.68,1.58-3.68h1.16l-2.53,5.8h-.39l-2.61-5.8h1.17Z"/><path class="cls-2" d="M407.01,103.52v.87h-2.6v1.51h2.49v.86h-2.49v1.63h2.65v.86h-3.76v-5.73h3.7ZM405.17,101.72l.78,1.41h-.62l-1.55-1.41h1.39Z"/><path class="cls-2" d="M411.1,103.45c.71,0,1.41.16,2.1.47v1.01c-.69-.35-1.38-.53-2.05-.53-.42,0-.79.08-1.12.25-.33.17-.58.41-.76.72-.18.31-.27.66-.27,1.05,0,.58.2,1.06.58,1.41.39.36.9.54,1.54.54.18,0,.34-.02.5-.05.16-.03.35-.09.57-.17v-.95h-.95v-.86h2.05v2.36c-.28.2-.62.35-1.02.46-.39.11-.81.17-1.23.17-.6,0-1.15-.12-1.64-.37-.49-.25-.87-.6-1.15-1.05-.28-.45-.41-.95-.41-1.5s.14-1.07.42-1.52c.28-.45.66-.81,1.16-1.06.5-.25,1.05-.38,1.66-.38Z"/><path class="cls-2" d="M418.2,103.52v.87h-2.6v1.51h2.49v.86h-2.49v1.63h2.65v.86h-3.76v-5.73h3.7Z"/><path class="cls-1" d="M451.83,91.38c.8,0,1.56.2,2.3.6v1.41c-.85-.51-1.6-.77-2.26-.77-.4,0-.71.08-.94.23-.22.15-.34.36-.34.62,0,.31.21.59.63.86.12.08.57.3,1.35.66.67.32,1.16.67,1.45,1.05.3.39.45.85.45,1.39,0,.7-.25,1.27-.76,1.7-.51.43-1.16.65-1.97.65-.52,0-.97-.06-1.35-.17-.38-.11-.8-.31-1.27-.59v-1.56c.87.73,1.7,1.09,2.47,1.09.39,0,.7-.08.94-.25.24-.17.36-.39.36-.67,0-.38-.21-.69-.62-.93-.34-.19-.79-.41-1.33-.67-.64-.29-1.13-.64-1.44-1.03-.32-.39-.48-.84-.48-1.36,0-.69.26-1.24.77-1.64.51-.41,1.19-.61,2.03-.61Z"/><path class="cls-1" d="M456.67,93.94v3.34c0,.34.05.61.15.82.1.2.27.37.5.5.23.13.5.2.81.2.34,0,.63-.06.86-.19.24-.12.41-.29.52-.51.11-.21.16-.51.16-.89v-3.26h1.11v3.41c0,.77-.23,1.36-.69,1.78-.46.41-1.12.62-1.96.62-.53,0-.99-.09-1.38-.28-.39-.19-.69-.46-.89-.82-.21-.36-.31-.78-.31-1.26v-3.45h1.11Z"/><path class="cls-1" d="M465.71,93.94v.87h-2.6v1.51h2.49v.86h-2.49v1.63h2.65v.86h-3.76v-5.73h3.7ZM463.88,92.13l.78,1.41h-.62l-1.55-1.41h1.39Z"/><path class="cls-1" d="M469.2,93.94c.6,0,1.13.12,1.59.37.47.24.83.58,1.08,1.03.26.44.39.94.39,1.48s-.13,1.06-.39,1.49c-.26.43-.63.77-1.1,1.01-.48.24-1.02.36-1.64.36h-2.33v-5.73h2.4ZM469.09,98.8c.61,0,1.1-.18,1.48-.55.37-.37.56-.85.56-1.45s-.19-1.11-.56-1.46c-.37-.36-.88-.54-1.51-.54h-1.14v4h1.18Z"/><path class="cls-1" d="M477,93.94v.87h-2.6v1.51h2.49v.86h-2.49v1.63h2.65v.86h-3.76v-5.73h3.7Z"/><path class="cls-2" d="M451.83,91.38c.8,0,1.56.2,2.3.6v1.41c-.85-.51-1.6-.77-2.26-.77-.4,0-.71.08-.94.23-.22.15-.34.36-.34.62,0,.31.21.59.63.86.12.08.57.3,1.35.66.67.32,1.16.67,1.45,1.05.3.39.45.85.45,1.39,0,.7-.25,1.27-.76,1.7-.51.43-1.16.65-1.97.65-.52,0-.97-.06-1.35-.17-.38-.11-.8-.31-1.27-.59v-1.56c.87.73,1.7,1.09,2.47,1.09.39,0,.7-.08.94-.25.24-.17.36-.39.36-.67,0-.38-.21-.69-.62-.93-.34-.19-.79-.41-1.33-.67-.64-.29-1.13-.64-1.44-1.03-.32-.39-.48-.84-.48-1.36,0-.69.26-1.24.77-1.64.51-.41,1.19-.61,2.03-.61Z"/><path class="cls-2" d="M456.67,93.94v3.34c0,.34.05.61.15.82.1.2.27.37.5.5.23.13.5.2.81.2.34,0,.63-.06.86-.19.24-.12.41-.29.52-.51.11-.21.16-.51.16-.89v-3.26h1.11v3.41c0,.77-.23,1.36-.69,1.78-.46.41-1.12.62-1.96.62-.53,0-.99-.09-1.38-.28-.39-.19-.69-.46-.89-.82-.21-.36-.31-.78-.31-1.26v-3.45h1.11Z"/><path class="cls-2" d="M465.71,93.94v.87h-2.6v1.51h2.49v.86h-2.49v1.63h2.65v.86h-3.76v-5.73h3.7ZM463.88,92.13l.78,1.41h-.62l-1.55-1.41h1.39Z"/><path class="cls-2" d="M469.2,93.94c.6,0,1.13.12,1.59.37.47.24.83.58,1.08,1.03.26.44.39.94.39,1.48s-.13,1.06-.39,1.49c-.26.43-.63.77-1.1,1.01-.48.24-1.02.36-1.64.36h-2.33v-5.73h2.4ZM469.09,98.8c.61,0,1.1-.18,1.48-.55.37-.37.56-.85.56-1.45s-.19-1.11-.56-1.46c-.37-.36-.88-.54-1.51-.54h-1.14v4h1.18Z"/><path class="cls-2" d="M477,93.94v.87h-2.6v1.51h2.49v.86h-2.49v1.63h2.65v.86h-3.76v-5.73h3.7Z"/><path class="cls-1" d="M556.76,75.4v1.24h-3.41v2.12h3.41v1.25h-3.41v3.59h-1.58v-8.19h4.99Z"/><path class="cls-1" d="M559.06,77.86v5.73h-1.11v-5.73h1.11Z"/><path class="cls-1" d="M561.32,77.86l3.4,4v-4h1.08v5.73h-.95l-3.43-4.06v4.06h-1.08v-5.73h.97Z"/><path class="cls-1" d="M568.17,77.86v4.87h2.78v.86h-3.89v-5.73h1.11Z"/><path class="cls-1" d="M574.62,77.86l2.53,5.73h-1.17l-.6-1.39h-2.55l-.55,1.39h-1.16l2.36-5.73h1.13ZM573.17,81.35h1.85l-.97-2.27-.88,2.27Z"/><path class="cls-1" d="M578.79,77.86l3.4,4v-4h1.08v5.73h-.95l-3.43-4.06v4.06h-1.08v-5.73h.97Z"/><path class="cls-1" d="M586.94,77.86c.6,0,1.13.12,1.59.37.46.24.82.58,1.08,1.03.26.44.39.94.39,1.48s-.13,1.06-.39,1.49c-.26.43-.63.77-1.1,1.01-.48.24-1.02.36-1.64.36h-2.33v-5.73h2.4ZM586.82,82.73c.61,0,1.1-.18,1.47-.55s.56-.85.56-1.45-.19-1.11-.56-1.46c-.37-.36-.88-.54-1.51-.54h-1.14v4h1.18Z"/><path class="cls-1" d="M594.74,77.86v.87h-2.6v1.51h2.49v.86h-2.49v1.63h2.65v.86h-3.76v-5.73h3.7Z"/><path class="cls-2" d="M556.76,75.4v1.24h-3.41v2.12h3.41v1.25h-3.41v3.59h-1.58v-8.19h4.99Z"/><path class="cls-2" d="M559.06,77.86v5.73h-1.11v-5.73h1.11Z"/><path class="cls-2" d="M561.32,77.86l3.4,4v-4h1.08v5.73h-.95l-3.43-4.06v4.06h-1.08v-5.73h.97Z"/><path class="cls-2" d="M568.17,77.86v4.87h2.78v.86h-3.89v-5.73h1.11Z"/><path class="cls-2" d="M574.62,77.86l2.53,5.73h-1.17l-.6-1.39h-2.55l-.55,1.39h-1.16l2.36-5.73h1.13ZM573.17,81.35h1.85l-.97-2.27-.88,2.27Z"/><path class="cls-2" d="M578.79,77.86l3.4,4v-4h1.08v5.73h-.95l-3.43-4.06v4.06h-1.08v-5.73h.97Z"/><path class="cls-2" d="M586.94,77.86c.6,0,1.13.12,1.59.37.46.24.82.58,1.08,1.03.26.44.39.94.39,1.48s-.13,1.06-.39,1.49c-.26.43-.63.77-1.1,1.01-.48.24-1.02.36-1.64.36h-2.33v-5.73h2.4ZM586.82,82.73c.61,0,1.1-.18,1.47-.55s.56-.85.56-1.45-.19-1.11-.56-1.46c-.37-.36-.88-.54-1.51-.54h-1.14v4h1.18Z"/><path class="cls-2" d="M594.74,77.86v.87h-2.6v1.51h2.49v.86h-2.49v1.63h2.65v.86h-3.76v-5.73h3.7Z"/><path class="cls-1" d="M366.55,225.42l3.62,8.19h-1.67l-.85-1.99h-3.64l-.79,1.99h-1.66l3.38-8.19h1.62ZM364.49,230.41h2.64l-1.38-3.24-1.26,3.24Z"/><path class="cls-1" d="M371.96,227.88v4.87h2.78v.86h-3.89v-5.73h1.11Z"/><path class="cls-1" d="M376.61,227.88v4.87h2.78v.86h-3.89v-5.73h1.11Z"/><path class="cls-1" d="M383.85,227.88v.87h-2.6v1.51h2.49v.86h-2.49v1.63h2.65v.86h-3.76v-5.73h3.7Z"/><path class="cls-1" d="M385.94,227.88l1.88,2.26,1.88-2.26h.99v5.73h-1.11v-4.02h-.03l-1.66,2.02h-.16l-1.66-2.02h-.03v4.02h-1.11v-5.73h1Z"/><path class="cls-1" d="M394.86,227.88l2.53,5.73h-1.17l-.59-1.39h-2.55l-.55,1.39h-1.16l2.36-5.73h1.13ZM393.42,231.37h1.85l-.97-2.27-.88,2.27Z"/><path class="cls-1" d="M400.82,227.8c.71,0,1.41.16,2.1.47v1.01c-.69-.35-1.38-.53-2.05-.53-.42,0-.79.08-1.12.25-.33.17-.58.41-.76.72-.18.31-.27.66-.27,1.05,0,.58.2,1.06.58,1.41.39.36.9.54,1.54.54.18,0,.34-.02.5-.05.16-.03.35-.09.57-.17v-.95h-.95v-.86h2.05v2.36c-.28.2-.62.35-1.02.46-.39.11-.81.17-1.23.17-.6,0-1.15-.12-1.64-.37-.49-.25-.87-.6-1.15-1.05-.28-.45-.41-.95-.41-1.5s.14-1.07.42-1.52c.28-.45.66-.81,1.16-1.06.5-.25,1.05-.38,1.66-.38Z"/><path class="cls-1" d="M405.19,227.88l3.4,4v-4h1.08v5.73h-.95l-3.42-4.06v4.06h-1.08v-5.73h.97Z"/><path class="cls-1" d="M414.64,227.88v.87h-2.6v1.51h2.49v.86h-2.49v1.63h2.65v.86h-3.76v-5.73h3.7Z"/><path class="cls-2" d="M366.55,225.42l3.62,8.19h-1.67l-.85-1.99h-3.64l-.79,1.99h-1.66l3.38-8.19h1.62ZM364.49,230.41h2.64l-1.38-3.24-1.26,3.24Z"/><path class="cls-2" d="M371.96,227.88v4.87h2.78v.86h-3.89v-5.73h1.11Z"/><path class="cls-2" d="M376.61,227.88v4.87h2.78v.86h-3.89v-5.73h1.11Z"/><path class="cls-2" d="M383.85,227.88v.87h-2.6v1.51h2.49v.86h-2.49v1.63h2.65v.86h-3.76v-5.73h3.7Z"/><path class="cls-2" d="M385.94,227.88l1.88,2.26,1.88-2.26h.99v5.73h-1.11v-4.02h-.03l-1.66,2.02h-.16l-1.66-2.02h-.03v4.02h-1.11v-5.73h1Z"/><path class="cls-2" d="M394.86,227.88l2.53,5.73h-1.17l-.59-1.39h-2.55l-.55,1.39h-1.16l2.36-5.73h1.13ZM393.42,231.37h1.85l-.97-2.27-.88,2.27Z"/><path class="cls-2" d="M400.82,227.8c.71,0,1.41.16,2.1.47v1.01c-.69-.35-1.38-.53-2.05-.53-.42,0-.79.08-1.12.25-.33.17-.58.41-.76.72-.18.31-.27.66-.27,1.05,0,.58.2,1.06.58,1.41.39.36.9.54,1.54.54.18,0,.34-.02.5-.05.16-.03.35-.09.57-.17v-.95h-.95v-.86h2.05v2.36c-.28.2-.62.35-1.02.46-.39.11-.81.17-1.23.17-.6,0-1.15-.12-1.64-.37-.49-.25-.87-.6-1.15-1.05-.28-.45-.41-.95-.41-1.5s.14-1.07.42-1.52c.28-.45.66-.81,1.16-1.06.5-.25,1.05-.38,1.66-.38Z"/><path class="cls-2" d="M405.19,227.88l3.4,4v-4h1.08v5.73h-.95l-3.42-4.06v4.06h-1.08v-5.73h.97Z"/><path class="cls-2" d="M414.64,227.88v.87h-2.6v1.51h2.49v.86h-2.49v1.63h2.65v.86h-3.76v-5.73h3.7Z"/><path class="cls-1" d="M388.92,352.79v8.19h-1.58v-8.19h1.58Z"/><path class="cls-1" d="M395.24,355.24v.87h-2.03v4.86h-1.11v-4.86h-2.03v-.87h5.18Z"/><path class="cls-1" d="M398.31,355.24l2.53,5.73h-1.17l-.59-1.39h-2.55l-.55,1.39h-1.16l2.36-5.73h1.13ZM396.87,358.74h1.85l-.97-2.27-.88,2.27Z"/><path class="cls-1" d="M402.62,355.24v4.87h2.78v.86h-3.89v-5.73h1.11Z"/><path class="cls-1" d="M407.29,355.24v5.73h-1.11v-5.73h1.11Z"/><path class="cls-1" d="M412.29,355.24v.87h-2.6v1.51h2.49v.86h-2.49v1.63h2.65v.86h-3.76v-5.73h3.7Z"/><path class="cls-2" d="M388.92,352.79v8.19h-1.58v-8.19h1.58Z"/><path class="cls-2" d="M395.24,355.24v.87h-2.03v4.86h-1.11v-4.86h-2.03v-.87h5.18Z"/><path class="cls-2" d="M398.31,355.24l2.53,5.73h-1.17l-.59-1.39h-2.55l-.55,1.39h-1.16l2.36-5.73h1.13ZM396.87,358.74h1.85l-.97-2.27-.88,2.27Z"/><path class="cls-2" d="M402.62,355.24v4.87h2.78v.86h-3.89v-5.73h1.11Z"/><path class="cls-2" d="M407.29,355.24v5.73h-1.11v-5.73h1.11Z"/><path class="cls-2" d="M412.29,355.24v.87h-2.6v1.51h2.49v.86h-2.49v1.63h2.65v.86h-3.76v-5.73h3.7Z"/><path class="cls-1" d="M146.64,384.52v1.24h-3.71v2.15h3.55v1.24h-3.55v2.33h3.79v1.24h-5.37v-8.19h5.29Z"/><path class="cls-1" d="M149.58,386.9c.56,0,1.1.14,1.61.42v.98c-.59-.36-1.12-.54-1.58-.54-.28,0-.5.05-.65.16-.16.11-.24.25-.24.43,0,.22.15.41.44.6.08.06.4.21.95.46.47.22.81.47,1.02.74.21.27.31.6.31.98,0,.49-.18.89-.53,1.19-.35.3-.81.45-1.38.45-.37,0-.68-.04-.95-.12-.26-.08-.56-.22-.89-.42v-1.09c.61.51,1.19.76,1.73.76.27,0,.49-.06.66-.18s.25-.27.25-.47c0-.26-.14-.48-.43-.65-.24-.13-.55-.29-.93-.47-.45-.21-.79-.45-1.01-.72-.22-.27-.33-.59-.33-.95,0-.48.18-.86.54-1.15s.83-.43,1.42-.43Z"/><path class="cls-1" d="M154.63,386.98c.54,0,.97.16,1.31.47.33.31.5.71.5,1.2s-.17.9-.51,1.2-.79.46-1.34.46h-1.07v2.4h-1.11v-5.73h2.21ZM154.35,389.44c.3,0,.53-.07.69-.2.17-.13.25-.34.25-.6,0-.53-.34-.79-1.02-.79h-.75v1.59h.83Z"/><path class="cls-1" d="M159.72,386.98l2.53,5.73h-1.17l-.59-1.39h-2.55l-.55,1.39h-1.16l2.36-5.73h1.13ZM158.27,390.47h1.85l-.97-2.27-.88,2.27Z"/><path class="cls-1" d="M165.68,386.9c.71,0,1.41.16,2.1.47v1.01c-.69-.35-1.38-.53-2.05-.53-.42,0-.79.08-1.12.25-.33.17-.58.41-.76.72-.18.31-.27.66-.27,1.05,0,.58.2,1.06.58,1.41.39.36.9.54,1.54.54.18,0,.34-.02.5-.05.16-.03.35-.09.57-.17v-.95h-.95v-.86h2.05v2.36c-.28.2-.62.35-1.02.46-.39.11-.81.17-1.23.17-.6,0-1.15-.12-1.64-.37-.49-.25-.87-.6-1.15-1.05-.28-.45-.41-.95-.41-1.5s.14-1.07.42-1.52c.28-.45.66-.81,1.16-1.06.5-.25,1.05-.38,1.66-.38Z"/><path class="cls-1" d="M170.04,386.98l3.4,4v-4h1.08v5.73h-.95l-3.42-4.06v4.06h-1.08v-5.73h.97Z"/><path class="cls-1" d="M179.49,386.98v.87h-2.6v1.51h2.49v.86h-2.49v1.63h2.65v.86h-3.76v-5.73h3.7Z"/><path class="cls-2" d="M146.64,384.52v1.24h-3.71v2.15h3.55v1.24h-3.55v2.33h3.79v1.24h-5.37v-8.19h5.29Z"/><path class="cls-2" d="M149.58,386.9c.56,0,1.1.14,1.61.42v.98c-.59-.36-1.12-.54-1.58-.54-.28,0-.5.05-.65.16-.16.11-.24.25-.24.43,0,.22.15.41.44.6.08.06.4.21.95.46.47.22.81.47,1.02.74.21.27.31.6.31.98,0,.49-.18.89-.53,1.19-.35.3-.81.45-1.38.45-.37,0-.68-.04-.95-.12-.26-.08-.56-.22-.89-.42v-1.09c.61.51,1.19.76,1.73.76.27,0,.49-.06.66-.18s.25-.27.25-.47c0-.26-.14-.48-.43-.65-.24-.13-.55-.29-.93-.47-.45-.21-.79-.45-1.01-.72-.22-.27-.33-.59-.33-.95,0-.48.18-.86.54-1.15s.83-.43,1.42-.43Z"/><path class="cls-2" d="M154.63,386.98c.54,0,.97.16,1.31.47.33.31.5.71.5,1.2s-.17.9-.51,1.2-.79.46-1.34.46h-1.07v2.4h-1.11v-5.73h2.21ZM154.35,389.44c.3,0,.53-.07.69-.2.17-.13.25-.34.25-.6,0-.53-.34-.79-1.02-.79h-.75v1.59h.83Z"/><path class="cls-2" d="M159.72,386.98l2.53,5.73h-1.17l-.59-1.39h-2.55l-.55,1.39h-1.16l2.36-5.73h1.13ZM158.27,390.47h1.85l-.97-2.27-.88,2.27Z"/><path class="cls-2" d="M165.68,386.9c.71,0,1.41.16,2.1.47v1.01c-.69-.35-1.38-.53-2.05-.53-.42,0-.79.08-1.12.25-.33.17-.58.41-.76.72-.18.31-.27.66-.27,1.05,0,.58.2,1.06.58,1.41.39.36.9.54,1.54.54.18,0,.34-.02.5-.05.16-.03.35-.09.57-.17v-.95h-.95v-.86h2.05v2.36c-.28.2-.62.35-1.02.46-.39.11-.81.17-1.23.17-.6,0-1.15-.12-1.64-.37-.49-.25-.87-.6-1.15-1.05-.28-.45-.41-.95-.41-1.5s.14-1.07.42-1.52c.28-.45.66-.81,1.16-1.06.5-.25,1.05-.38,1.66-.38Z"/><path class="cls-2" d="M170.04,386.98l3.4,4v-4h1.08v5.73h-.95l-3.42-4.06v4.06h-1.08v-5.73h.97Z"/><path class="cls-2" d="M179.49,386.98v.87h-2.6v1.51h2.49v.86h-2.49v1.63h2.65v.86h-3.76v-5.73h3.7Z"/><path class="cls-1" d="M68.28,396.78c.77,0,1.39.22,1.87.66.48.44.72,1.01.72,1.71s-.24,1.28-.73,1.72-1.12.66-1.92.66h-1.52v3.43h-1.58v-8.19h3.16ZM67.88,400.3c.42,0,.75-.1.99-.29.24-.19.35-.48.35-.86,0-.75-.48-1.13-1.45-1.13h-1.08v2.28h1.19Z"/><path class="cls-1" d="M74.79,399.17c.59,0,1.13.12,1.6.37.47.24.85.6,1.13,1.06s.42.97.42,1.52-.14,1.03-.41,1.49c-.27.46-.65.81-1.13,1.07-.48.25-1.02.38-1.62.38s-1.13-.13-1.62-.39c-.49-.26-.86-.61-1.13-1.06s-.41-.95-.41-1.49.14-1.02.41-1.48c.27-.46.64-.82,1.12-1.08s1.02-.38,1.64-.38ZM72.76,402.11c0,.38.09.72.26,1.03s.41.54.72.71c.31.17.66.25,1.04.25.59,0,1.07-.19,1.45-.55.38-.37.57-.84.57-1.43,0-.38-.09-.72-.26-1.03-.17-.3-.41-.54-.72-.71-.31-.17-.66-.25-1.05-.25s-.74.08-1.05.25c-.31.17-.55.4-.72.71s-.25.64-.25,1.03Z"/><path class="cls-1" d="M81.04,399.24c.54,0,.98.15,1.32.45s.51.69.51,1.16c0,.33-.08.61-.25.85-.17.24-.42.43-.75.57.18.1.35.23.49.4.14.17.32.45.53.86.35.69.61,1.17.78,1.44h-1.23c-.08-.13-.2-.33-.34-.6-.32-.61-.55-1.02-.7-1.23s-.29-.36-.43-.45-.29-.13-.47-.13h-.4v2.42h-1.11v-5.73h2.06ZM80.79,401.68c.29,0,.52-.07.68-.22.17-.15.25-.34.25-.59s-.08-.46-.25-.59-.4-.19-.7-.19h-.69v1.59h.71Z"/><path class="cls-1" d="M88.73,399.24v.87h-2.03v4.86h-1.11v-4.86h-2.03v-.87h5.18Z"/><path class="cls-1" d="M90.63,399.24v3.34c0,.34.05.61.15.82.1.2.27.37.5.5s.5.2.81.2c.34,0,.63-.06.86-.19.24-.12.41-.29.52-.51s.16-.51.16-.89v-3.26h1.11v3.41c0,.77-.23,1.36-.69,1.78-.46.41-1.12.62-1.96.62-.53,0-.99-.09-1.38-.28-.39-.19-.69-.46-.89-.82-.21-.36-.31-.78-.31-1.26v-3.45h1.11Z"/><path class="cls-1" d="M98.98,399.17c.71,0,1.41.16,2.1.47v1.01c-.69-.35-1.38-.53-2.05-.53-.42,0-.79.08-1.12.25-.33.17-.58.41-.76.72-.18.31-.27.66-.27,1.05,0,.58.2,1.06.58,1.41.39.36.9.54,1.54.54.18,0,.34-.02.5-.05.16-.03.35-.09.57-.17v-.95h-.95v-.86h2.05v2.36c-.28.2-.62.35-1.02.46-.39.11-.81.17-1.23.17-.6,0-1.15-.12-1.64-.37-.49-.25-.87-.6-1.15-1.05-.28-.45-.41-.95-.41-1.5s.14-1.07.42-1.52c.28-.45.66-.81,1.16-1.06.5-.25,1.05-.38,1.66-.38Z"/><path class="cls-1" d="M105.28,399.24l2.53,5.73h-1.17l-.59-1.39h-2.55l-.55,1.39h-1.16l2.36-5.73h1.13ZM103.84,402.73h1.85l-.97-2.27-.88,2.27Z"/><path class="cls-1" d="M109.6,399.24v4.87h2.78v.86h-3.89v-5.73h1.11Z"/><path class="cls-2" d="M68.28,396.78c.77,0,1.39.22,1.87.66.48.44.72,1.01.72,1.71s-.24,1.28-.73,1.72-1.12.66-1.92.66h-1.52v3.43h-1.58v-8.19h3.16ZM67.88,400.3c.42,0,.75-.1.99-.29.24-.19.35-.48.35-.86,0-.75-.48-1.13-1.45-1.13h-1.08v2.28h1.19Z"/><path class="cls-2" d="M74.79,399.17c.59,0,1.13.12,1.6.37.47.24.85.6,1.13,1.06s.42.97.42,1.52-.14,1.03-.41,1.49c-.27.46-.65.81-1.13,1.07-.48.25-1.02.38-1.62.38s-1.13-.13-1.62-.39c-.49-.26-.86-.61-1.13-1.06s-.41-.95-.41-1.49.14-1.02.41-1.48c.27-.46.64-.82,1.12-1.08s1.02-.38,1.64-.38ZM72.76,402.11c0,.38.09.72.26,1.03s.41.54.72.71c.31.17.66.25,1.04.25.59,0,1.07-.19,1.45-.55.38-.37.57-.84.57-1.43,0-.38-.09-.72-.26-1.03-.17-.3-.41-.54-.72-.71-.31-.17-.66-.25-1.05-.25s-.74.08-1.05.25c-.31.17-.55.4-.72.71s-.25.64-.25,1.03Z"/><path class="cls-2" d="M81.04,399.24c.54,0,.98.15,1.32.45s.51.69.51,1.16c0,.33-.08.61-.25.85-.17.24-.42.43-.75.57.18.1.35.23.49.4.14.17.32.45.53.86.35.69.61,1.17.78,1.44h-1.23c-.08-.13-.2-.33-.34-.6-.32-.61-.55-1.02-.7-1.23s-.29-.36-.43-.45-.29-.13-.47-.13h-.4v2.42h-1.11v-5.73h2.06ZM80.79,401.68c.29,0,.52-.07.68-.22.17-.15.25-.34.25-.59s-.08-.46-.25-.59-.4-.19-.7-.19h-.69v1.59h.71Z"/><path class="cls-2" d="M88.73,399.24v.87h-2.03v4.86h-1.11v-4.86h-2.03v-.87h5.18Z"/><path class="cls-2" d="M90.63,399.24v3.34c0,.34.05.61.15.82.1.2.27.37.5.5s.5.2.81.2c.34,0,.63-.06.86-.19.24-.12.41-.29.52-.51s.16-.51.16-.89v-3.26h1.11v3.41c0,.77-.23,1.36-.69,1.78-.46.41-1.12.62-1.96.62-.53,0-.99-.09-1.38-.28-.39-.19-.69-.46-.89-.82-.21-.36-.31-.78-.31-1.26v-3.45h1.11Z"/><path class="cls-2" d="M98.98,399.17c.71,0,1.41.16,2.1.47v1.01c-.69-.35-1.38-.53-2.05-.53-.42,0-.79.08-1.12.25-.33.17-.58.41-.76.72-.18.31-.27.66-.27,1.05,0,.58.2,1.06.58,1.41.39.36.9.54,1.54.54.18,0,.34-.02.5-.05.16-.03.35-.09.57-.17v-.95h-.95v-.86h2.05v2.36c-.28.2-.62.35-1.02.46-.39.11-.81.17-1.23.17-.6,0-1.15-.12-1.64-.37-.49-.25-.87-.6-1.15-1.05-.28-.45-.41-.95-.41-1.5s.14-1.07.42-1.52c.28-.45.66-.81,1.16-1.06.5-.25,1.05-.38,1.66-.38Z"/><path class="cls-2" d="M105.28,399.24l2.53,5.73h-1.17l-.59-1.39h-2.55l-.55,1.39h-1.16l2.36-5.73h1.13ZM103.84,402.73h1.85l-.97-2.27-.88,2.27Z"/><path class="cls-2" d="M109.6,399.24v4.87h2.78v.86h-3.89v-5.73h1.11Z"/><path class="cls-1" d="M220.65,203.84c.77,0,1.4.21,1.88.64s.73.98.73,1.66c0,.47-.12.87-.36,1.22-.24.34-.6.62-1.07.82.26.14.49.33.7.57s.46.65.76,1.22c.5.99.87,1.68,1.11,2.05h-1.76c-.12-.18-.29-.47-.49-.86-.45-.87-.79-1.46-1-1.76-.21-.3-.41-.52-.61-.64-.2-.13-.42-.19-.67-.19h-.57v3.46h-1.58v-8.19h2.95ZM220.29,207.33c.41,0,.74-.1.98-.31s.35-.49.35-.85-.12-.66-.35-.84c-.23-.19-.57-.28-1-.28h-.98v2.28h1.01Z"/><path class="cls-1" d="M228.1,206.22c.59,0,1.13.12,1.6.37.47.24.85.6,1.13,1.06s.42.97.42,1.52-.14,1.03-.41,1.49c-.27.46-.65.81-1.13,1.07-.48.25-1.02.38-1.62.38s-1.13-.13-1.62-.39c-.49-.26-.86-.61-1.13-1.06s-.41-.95-.41-1.49.14-1.02.41-1.48c.27-.46.64-.82,1.12-1.08s1.02-.38,1.64-.38ZM226.07,209.16c0,.38.09.72.26,1.03s.41.54.72.71c.31.17.66.25,1.04.25.59,0,1.07-.19,1.45-.55.38-.37.57-.84.57-1.43,0-.38-.09-.72-.26-1.03-.17-.3-.41-.54-.72-.71-.31-.17-.66-.25-1.05-.25s-.74.08-1.05.25c-.31.17-.55.4-.72.71s-.25.64-.25,1.03Z"/><path class="cls-1" d="M232.62,206.29l1.39,1.92,1.4-1.92h1.32l-2.17,2.89v2.84h-1.11v-2.85l-2.18-2.88h1.35Z"/><path class="cls-1" d="M239.71,206.29l2.53,5.73h-1.17l-.59-1.39h-2.55l-.55,1.39h-1.16l2.36-5.73h1.13ZM238.27,209.79h1.85l-.97-2.27-.88,2.27Z"/><path class="cls-1" d="M243.9,206.29v3.34c0,.34.05.61.15.82.1.2.27.37.5.5s.5.2.81.2c.34,0,.63-.06.86-.19.24-.12.41-.29.52-.51s.16-.51.16-.89v-3.26h1.11v3.41c0,.77-.23,1.36-.69,1.78-.46.41-1.12.62-1.96.62-.53,0-.99-.09-1.38-.28-.39-.19-.69-.46-.89-.82-.21-.36-.31-.78-.31-1.26v-3.45h1.11Z"/><path class="cls-1" d="M250.24,206.29l1.88,2.26,1.88-2.26h.99v5.73h-1.11v-4.02h-.03l-1.66,2.02h-.16l-1.66-2.02h-.03v4.02h-1.11v-5.73h1Z"/><path class="cls-1" d="M259.96,206.29v.87h-2.6v1.51h2.49v.86h-2.49v1.63h2.65v.86h-3.76v-5.73h3.7Z"/><path class="cls-1" d="M263.91,208.61v1.38h-3.04v-1.38h3.04Z"/><path class="cls-1" d="M266.8,203.84v4.76c0,.49.07.88.22,1.17s.39.53.72.71.72.28,1.16.28c.48,0,.9-.09,1.23-.27.34-.18.58-.42.74-.73.16-.31.23-.73.23-1.27v-4.66h1.58v4.86c0,1.1-.33,1.95-.99,2.54-.66.59-1.59.89-2.8.89-.76,0-1.42-.13-1.97-.4s-.98-.66-1.27-1.17c-.29-.51-.44-1.11-.44-1.8v-4.92h1.59Z"/><path class="cls-1" d="M275.13,206.29l3.4,4v-4h1.08v5.73h-.95l-3.42-4.06v4.06h-1.08v-5.73h.97Z"/><path class="cls-1" d="M282.01,206.29v5.73h-1.11v-5.73h1.11Z"/><path class="cls-2" d="M220.65,203.84c.77,0,1.4.21,1.88.64s.73.98.73,1.66c0,.47-.12.87-.36,1.22-.24.34-.6.62-1.07.82.26.14.49.33.7.57s.46.65.76,1.22c.5.99.87,1.68,1.11,2.05h-1.76c-.12-.18-.29-.47-.49-.86-.45-.87-.79-1.46-1-1.76-.21-.3-.41-.52-.61-.64-.2-.13-.42-.19-.67-.19h-.57v3.46h-1.58v-8.19h2.95ZM220.29,207.33c.41,0,.74-.1.98-.31s.35-.49.35-.85-.12-.66-.35-.84c-.23-.19-.57-.28-1-.28h-.98v2.28h1.01Z"/><path class="cls-2" d="M228.1,206.22c.59,0,1.13.12,1.6.37.47.24.85.6,1.13,1.06s.42.97.42,1.52-.14,1.03-.41,1.49c-.27.46-.65.81-1.13,1.07-.48.25-1.02.38-1.62.38s-1.13-.13-1.62-.39c-.49-.26-.86-.61-1.13-1.06s-.41-.95-.41-1.49.14-1.02.41-1.48c.27-.46.64-.82,1.12-1.08s1.02-.38,1.64-.38ZM226.07,209.16c0,.38.09.72.26,1.03s.41.54.72.71c.31.17.66.25,1.04.25.59,0,1.07-.19,1.45-.55.38-.37.57-.84.57-1.43,0-.38-.09-.72-.26-1.03-.17-.3-.41-.54-.72-.71-.31-.17-.66-.25-1.05-.25s-.74.08-1.05.25c-.31.17-.55.4-.72.71s-.25.64-.25,1.03Z"/><path class="cls-2" d="M232.62,206.29l1.39,1.92,1.4-1.92h1.32l-2.17,2.89v2.84h-1.11v-2.85l-2.18-2.88h1.35Z"/><path class="cls-2" d="M239.71,206.29l2.53,5.73h-1.17l-.59-1.39h-2.55l-.55,1.39h-1.16l2.36-5.73h1.13ZM238.27,209.79h1.85l-.97-2.27-.88,2.27Z"/><path class="cls-2" d="M243.9,206.29v3.34c0,.34.05.61.15.82.1.2.27.37.5.5s.5.2.81.2c.34,0,.63-.06.86-.19.24-.12.41-.29.52-.51s.16-.51.16-.89v-3.26h1.11v3.41c0,.77-.23,1.36-.69,1.78-.46.41-1.12.62-1.96.62-.53,0-.99-.09-1.38-.28-.39-.19-.69-.46-.89-.82-.21-.36-.31-.78-.31-1.26v-3.45h1.11Z"/><path class="cls-2" d="M250.24,206.29l1.88,2.26,1.88-2.26h.99v5.73h-1.11v-4.02h-.03l-1.66,2.02h-.16l-1.66-2.02h-.03v4.02h-1.11v-5.73h1Z"/><path class="cls-2" d="M259.96,206.29v.87h-2.6v1.51h2.49v.86h-2.49v1.63h2.65v.86h-3.76v-5.73h3.7Z"/><path class="cls-2" d="M263.91,208.61v1.38h-3.04v-1.38h3.04Z"/><path class="cls-2" d="M266.8,203.84v4.76c0,.49.07.88.22,1.17s.39.53.72.71.72.28,1.16.28c.48,0,.9-.09,1.23-.27.34-.18.58-.42.74-.73.16-.31.23-.73.23-1.27v-4.66h1.58v4.86c0,1.1-.33,1.95-.99,2.54-.66.59-1.59.89-2.8.89-.76,0-1.42-.13-1.97-.4s-.98-.66-1.27-1.17c-.29-.51-.44-1.11-.44-1.8v-4.92h1.59Z"/><path class="cls-2" d="M275.13,206.29l3.4,4v-4h1.08v5.73h-.95l-3.42-4.06v4.06h-1.08v-5.73h.97Z"/><path class="cls-2" d="M282.01,206.29v5.73h-1.11v-5.73h1.11Z"/><path class="cls-1" d="M459.29,313.05c.47,0,.92.05,1.37.16s.93.28,1.44.54v1.49c-.5-.29-.97-.5-1.4-.63s-.87-.19-1.34-.19c-.58,0-1.11.12-1.58.36-.47.24-.83.58-1.09,1.02-.26.44-.39.92-.39,1.46s.13,1.04.39,1.47.62.77,1.09,1c.47.24,1,.36,1.58.36.45,0,.88-.06,1.29-.19.41-.13.92-.36,1.54-.7v1.49c-.53.28-1.02.47-1.46.59s-.96.18-1.56.18c-.86,0-1.63-.17-2.31-.52s-1.21-.84-1.6-1.49c-.39-.65-.58-1.35-.58-2.12,0-.82.2-1.56.6-2.22.4-.66.95-1.16,1.65-1.52.7-.36,1.49-.53,2.37-.53Z"/><path class="cls-1" d="M465.49,315.61c.54,0,.98.15,1.32.45.34.3.51.69.51,1.16,0,.33-.08.61-.25.85-.17.24-.42.43-.75.57.18.1.35.23.49.4.14.17.32.45.53.86.35.69.61,1.17.78,1.44h-1.23c-.09-.13-.2-.33-.34-.6-.32-.61-.55-1.02-.7-1.23s-.29-.36-.43-.45c-.14-.09-.29-.13-.47-.13h-.4v2.42h-1.11v-5.73h2.06ZM465.24,318.06c.29,0,.52-.07.68-.22s.25-.34.25-.59-.08-.46-.25-.59-.4-.19-.7-.19h-.69v1.59h.71Z"/><path class="cls-1" d="M471.52,315.54c.59,0,1.13.12,1.6.37s.85.6,1.13,1.06c.28.46.42.97.42,1.52s-.14,1.03-.41,1.49c-.27.46-.65.81-1.13,1.07-.48.25-1.02.38-1.62.38s-1.13-.13-1.62-.39c-.49-.26-.86-.61-1.13-1.06s-.41-.95-.41-1.49.14-1.02.41-1.48c.27-.46.64-.82,1.12-1.08s1.02-.38,1.64-.38ZM469.5,318.48c0,.38.09.72.26,1.03s.41.54.72.71c.31.17.66.25,1.04.25.59,0,1.07-.19,1.45-.55.38-.37.57-.84.57-1.43,0-.38-.09-.72-.26-1.03-.17-.3-.41-.54-.72-.71-.31-.17-.66-.25-1.05-.25s-.74.08-1.05.25c-.31.17-.55.4-.72.71-.17.3-.25.64-.25,1.03Z"/><path class="cls-1" d="M478.45,315.61l2.53,5.73h-1.17l-.59-1.39h-2.55l-.55,1.39h-1.16l2.36-5.73h1.13ZM477.01,319.11h1.85l-.97-2.27-.88,2.27Z"/><path class="cls-1" d="M485.74,315.61v.87h-2.03v4.86h-1.11v-4.86h-2.03v-.87h5.18Z"/><path class="cls-1" d="M487.71,315.61v5.73h-1.11v-5.73h1.11Z"/><path class="cls-1" d="M492.7,315.61v.87h-2.6v1.51h2.49v.86h-2.49v1.63h2.65v.86h-3.76v-5.73h3.7Z"/><path class="cls-2" d="M459.29,313.05c.47,0,.92.05,1.37.16s.93.28,1.44.54v1.49c-.5-.29-.97-.5-1.4-.63s-.87-.19-1.34-.19c-.58,0-1.11.12-1.58.36-.47.24-.83.58-1.09,1.02-.26.44-.39.92-.39,1.46s.13,1.04.39,1.47.62.77,1.09,1c.47.24,1,.36,1.58.36.45,0,.88-.06,1.29-.19.41-.13.92-.36,1.54-.7v1.49c-.53.28-1.02.47-1.46.59s-.96.18-1.56.18c-.86,0-1.63-.17-2.31-.52s-1.21-.84-1.6-1.49c-.39-.65-.58-1.35-.58-2.12,0-.82.2-1.56.6-2.22.4-.66.95-1.16,1.65-1.52.7-.36,1.49-.53,2.37-.53Z"/><path class="cls-2" d="M465.49,315.61c.54,0,.98.15,1.32.45.34.3.51.69.51,1.16,0,.33-.08.61-.25.85-.17.24-.42.43-.75.57.18.1.35.23.49.4.14.17.32.45.53.86.35.69.61,1.17.78,1.44h-1.23c-.09-.13-.2-.33-.34-.6-.32-.61-.55-1.02-.7-1.23s-.29-.36-.43-.45c-.14-.09-.29-.13-.47-.13h-.4v2.42h-1.11v-5.73h2.06ZM465.24,318.06c.29,0,.52-.07.68-.22s.25-.34.25-.59-.08-.46-.25-.59-.4-.19-.7-.19h-.69v1.59h.71Z"/><path class="cls-2" d="M471.52,315.54c.59,0,1.13.12,1.6.37s.85.6,1.13,1.06c.28.46.42.97.42,1.52s-.14,1.03-.41,1.49c-.27.46-.65.81-1.13,1.07-.48.25-1.02.38-1.62.38s-1.13-.13-1.62-.39c-.49-.26-.86-.61-1.13-1.06s-.41-.95-.41-1.49.14-1.02.41-1.48c.27-.46.64-.82,1.12-1.08s1.02-.38,1.64-.38ZM469.5,318.48c0,.38.09.72.26,1.03s.41.54.72.71c.31.17.66.25,1.04.25.59,0,1.07-.19,1.45-.55.38-.37.57-.84.57-1.43,0-.38-.09-.72-.26-1.03-.17-.3-.41-.54-.72-.71-.31-.17-.66-.25-1.05-.25s-.74.08-1.05.25c-.31.17-.55.4-.72.71-.17.3-.25.64-.25,1.03Z"/><path class="cls-2" d="M478.45,315.61l2.53,5.73h-1.17l-.59-1.39h-2.55l-.55,1.39h-1.16l2.36-5.73h1.13ZM477.01,319.11h1.85l-.97-2.27-.88,2.27Z"/><path class="cls-2" d="M485.74,315.61v.87h-2.03v4.86h-1.11v-4.86h-2.03v-.87h5.18Z"/><path class="cls-2" d="M487.71,315.61v5.73h-1.11v-5.73h1.11Z"/><path class="cls-2" d="M492.7,315.61v.87h-2.6v1.51h2.49v.86h-2.49v1.63h2.65v.86h-3.76v-5.73h3.7Z"/><path class="cls-1" d="M533.26,416.54c1.01,0,2.01.23,3,.67v1.45c-.99-.5-1.97-.76-2.93-.76-.6,0-1.13.12-1.59.36-.47.24-.82.58-1.08,1.03-.26.45-.38.95-.38,1.5,0,.84.28,1.51.83,2.02.56.51,1.29.77,2.2.77.25,0,.49-.02.72-.06s.5-.13.82-.25v-1.36h-1.35v-1.24h2.94v3.38c-.4.28-.89.5-1.45.66-.56.16-1.15.24-1.76.24-.86,0-1.65-.18-2.35-.53-.7-.36-1.25-.85-1.64-1.49s-.59-1.36-.59-2.14.2-1.53.59-2.17c.4-.65.95-1.15,1.66-1.51s1.5-.54,2.37-.54Z"/><path class="cls-1" d="M539.91,419.1c.54,0,.98.15,1.32.45.34.3.51.69.51,1.16,0,.33-.08.61-.25.85-.17.24-.42.43-.75.57.18.1.35.23.49.4.14.17.32.45.53.86.35.69.61,1.17.78,1.44h-1.24c-.08-.13-.2-.33-.34-.6-.32-.61-.55-1.02-.7-1.23s-.29-.36-.43-.45c-.14-.09-.29-.13-.47-.13h-.4v2.42h-1.11v-5.73h2.06ZM539.66,421.54c.29,0,.52-.07.68-.22.17-.15.25-.34.25-.59s-.08-.46-.25-.59-.4-.19-.7-.19h-.69v1.59h.71Z"/><path class="cls-1" d="M546.96,419.1v.87h-2.6v1.51h2.49v.86h-2.49v1.63h2.65v.86h-3.76v-5.73h3.7ZM545.12,417.29l.78,1.41h-.62l-1.55-1.41h1.39Z"/><path class="cls-1" d="M551.05,419.02c.33,0,.64.04.96.11s.65.2,1.01.38v1.04c-.35-.2-.68-.35-.98-.44-.3-.09-.61-.13-.94-.13-.41,0-.77.08-1.1.25-.33.17-.58.41-.77.71-.18.31-.27.65-.27,1.02s.09.73.27,1.03c.18.3.43.54.76.7s.7.25,1.11.25c.32,0,.62-.05.9-.14.28-.09.65-.25,1.08-.49v1.04c-.37.19-.71.33-1.03.41s-.68.12-1.09.12c-.6,0-1.14-.12-1.62-.36s-.85-.59-1.12-1.04-.41-.95-.41-1.49c0-.58.14-1.1.42-1.56.28-.46.67-.81,1.16-1.06.49-.25,1.04-.37,1.66-.37Z"/><path class="cls-1" d="M557.84,419.1v.87h-2.6v1.51h2.49v.86h-2.49v1.63h2.65v.86h-3.76v-5.73h3.7Z"/><path class="cls-2" d="M533.26,416.54c1.01,0,2.01.23,3,.67v1.45c-.99-.5-1.97-.76-2.93-.76-.6,0-1.13.12-1.59.36-.47.24-.82.58-1.08,1.03-.26.45-.38.95-.38,1.5,0,.84.28,1.51.83,2.02.56.51,1.29.77,2.2.77.25,0,.49-.02.72-.06s.5-.13.82-.25v-1.36h-1.35v-1.24h2.94v3.38c-.4.28-.89.5-1.45.66-.56.16-1.15.24-1.76.24-.86,0-1.65-.18-2.35-.53-.7-.36-1.25-.85-1.64-1.49s-.59-1.36-.59-2.14.2-1.53.59-2.17c.4-.65.95-1.15,1.66-1.51s1.5-.54,2.37-.54Z"/><path class="cls-2" d="M539.91,419.1c.54,0,.98.15,1.32.45.34.3.51.69.51,1.16,0,.33-.08.61-.25.85-.17.24-.42.43-.75.57.18.1.35.23.49.4.14.17.32.45.53.86.35.69.61,1.17.78,1.44h-1.24c-.08-.13-.2-.33-.34-.6-.32-.61-.55-1.02-.7-1.23s-.29-.36-.43-.45c-.14-.09-.29-.13-.47-.13h-.4v2.42h-1.11v-5.73h2.06ZM539.66,421.54c.29,0,.52-.07.68-.22.17-.15.25-.34.25-.59s-.08-.46-.25-.59-.4-.19-.7-.19h-.69v1.59h.71Z"/><path class="cls-2" d="M546.96,419.1v.87h-2.6v1.51h2.49v.86h-2.49v1.63h2.65v.86h-3.76v-5.73h3.7ZM545.12,417.29l.78,1.41h-.62l-1.55-1.41h1.39Z"/><path class="cls-2" d="M551.05,419.02c.33,0,.64.04.96.11s.65.2,1.01.38v1.04c-.35-.2-.68-.35-.98-.44-.3-.09-.61-.13-.94-.13-.41,0-.77.08-1.1.25-.33.17-.58.41-.77.71-.18.31-.27.65-.27,1.02s.09.73.27,1.03c.18.3.43.54.76.7s.7.25,1.11.25c.32,0,.62-.05.9-.14.28-.09.65-.25,1.08-.49v1.04c-.37.19-.71.33-1.03.41s-.68.12-1.09.12c-.6,0-1.14-.12-1.62-.36s-.85-.59-1.12-1.04-.41-.95-.41-1.49c0-.58.14-1.1.42-1.56.28-.46.67-.81,1.16-1.06.49-.25,1.04-.37,1.66-.37Z"/><path class="cls-2" d="M557.84,419.1v.87h-2.6v1.51h2.49v.86h-2.49v1.63h2.65v.86h-3.76v-5.73h3.7Z"/><path class="cls-1" d="M728.85,410.58v1.24h-2.91v6.95h-1.58v-6.95h-2.91v-1.24h7.39Z"/><path class="cls-1" d="M730.85,413.03v3.34c0,.34.05.61.15.82.1.2.27.37.5.5.23.13.5.2.81.2.34,0,.63-.06.86-.19s.41-.29.52-.51c.11-.21.16-.51.16-.89v-3.26h1.11v3.41c0,.77-.23,1.36-.69,1.78-.46.41-1.12.62-1.96.62-.53,0-.99-.09-1.38-.28-.39-.19-.69-.46-.89-.82-.21-.36-.31-.78-.31-1.26v-3.45h1.11Z"/><path class="cls-1" d="M738.25,413.03c.54,0,.98.15,1.32.45.34.3.51.69.51,1.16,0,.33-.08.61-.25.85-.17.24-.42.43-.75.57.18.1.35.23.49.4.14.17.32.45.53.86.35.69.61,1.17.78,1.44h-1.24c-.08-.13-.2-.33-.34-.6-.32-.61-.55-1.02-.7-1.23s-.29-.36-.43-.45c-.14-.09-.29-.13-.47-.13h-.4v2.42h-1.11v-5.73h2.06ZM738,415.48c.29,0,.52-.07.68-.22.17-.15.25-.34.25-.59s-.08-.46-.25-.59-.4-.19-.7-.19h-.69v1.59h.71Z"/><path class="cls-1" d="M744.33,412.96c.58,0,1.1.13,1.58.38.48.26.85.61,1.12,1.06.27.45.41.95.41,1.48,0,.43-.09.85-.28,1.24-.19.39-.45.72-.78,1s-.72.47-1.15.57v.06c.6.29,1.15.43,1.63.43.18,0,.34-.02.5-.07l.03.05-.92.83c-.93-.06-1.93-.48-2.99-1.26-.45-.09-.86-.27-1.22-.55-.37-.28-.65-.62-.84-1.02-.2-.4-.3-.82-.3-1.27,0-.54.14-1.04.41-1.51.28-.47.66-.83,1.14-1.08.48-.25,1.03-.38,1.66-.38ZM742.26,415.91c0,.58.19,1.06.56,1.42.37.37.87.55,1.48.55.38,0,.72-.08,1.03-.25.31-.17.55-.4.72-.7s.26-.64.26-1.01-.09-.73-.25-1.03c-.17-.31-.41-.54-.72-.71-.31-.17-.65-.25-1.03-.25-.61,0-1.1.18-1.48.55-.38.37-.56.85-.56,1.45Z"/><path class="cls-1" d="M749.55,413.03v3.34c0,.34.05.61.15.82.1.2.27.37.5.5.23.13.5.2.81.2.34,0,.63-.06.86-.19s.41-.29.52-.51c.11-.21.16-.51.16-.89v-3.26h1.11v3.41c0,.77-.23,1.36-.69,1.78-.46.41-1.12.62-1.96.62-.53,0-.99-.09-1.38-.28-.39-.19-.69-.46-.89-.82-.21-.36-.31-.78-.31-1.26v-3.45h1.11Z"/><path class="cls-1" d="M756.03,413.03v5.73h-1.11v-5.73h1.11Z"/><path class="cls-1" d="M761.02,413.03v.87h-2.6v1.51h2.49v.86h-2.49v1.63h2.65v.86h-3.76v-5.73h3.7Z"/><path class="cls-2" d="M728.85,410.58v1.24h-2.91v6.95h-1.58v-6.95h-2.91v-1.24h7.39Z"/><path class="cls-2" d="M730.85,413.03v3.34c0,.34.05.61.15.82.1.2.27.37.5.5.23.13.5.2.81.2.34,0,.63-.06.86-.19s.41-.29.52-.51c.11-.21.16-.51.16-.89v-3.26h1.11v3.41c0,.77-.23,1.36-.69,1.78-.46.41-1.12.62-1.96.62-.53,0-.99-.09-1.38-.28-.39-.19-.69-.46-.89-.82-.21-.36-.31-.78-.31-1.26v-3.45h1.11Z"/><path class="cls-2" d="M738.25,413.03c.54,0,.98.15,1.32.45.34.3.51.69.51,1.16,0,.33-.08.61-.25.85-.17.24-.42.43-.75.57.18.1.35.23.49.4.14.17.32.45.53.86.35.69.61,1.17.78,1.44h-1.24c-.08-.13-.2-.33-.34-.6-.32-.61-.55-1.02-.7-1.23s-.29-.36-.43-.45c-.14-.09-.29-.13-.47-.13h-.4v2.42h-1.11v-5.73h2.06ZM738,415.48c.29,0,.52-.07.68-.22.17-.15.25-.34.25-.59s-.08-.46-.25-.59-.4-.19-.7-.19h-.69v1.59h.71Z"/><path class="cls-2" d="M744.33,412.96c.58,0,1.1.13,1.58.38.48.26.85.61,1.12,1.06.27.45.41.95.41,1.48,0,.43-.09.85-.28,1.24-.19.39-.45.72-.78,1s-.72.47-1.15.57v.06c.6.29,1.15.43,1.63.43.18,0,.34-.02.5-.07l.03.05-.92.83c-.93-.06-1.93-.48-2.99-1.26-.45-.09-.86-.27-1.22-.55-.37-.28-.65-.62-.84-1.02-.2-.4-.3-.82-.3-1.27,0-.54.14-1.04.41-1.51.28-.47.66-.83,1.14-1.08.48-.25,1.03-.38,1.66-.38ZM742.26,415.91c0,.58.19,1.06.56,1.42.37.37.87.55,1.48.55.38,0,.72-.08,1.03-.25.31-.17.55-.4.72-.7s.26-.64.26-1.01-.09-.73-.25-1.03c-.17-.31-.41-.54-.72-.71-.31-.17-.65-.25-1.03-.25-.61,0-1.1.18-1.48.55-.38.37-.56.85-.56,1.45Z"/><path class="cls-2" d="M749.55,413.03v3.34c0,.34.05.61.15.82.1.2.27.37.5.5.23.13.5.2.81.2.34,0,.63-.06.86-.19s.41-.29.52-.51c.11-.21.16-.51.16-.89v-3.26h1.11v3.41c0,.77-.23,1.36-.69,1.78-.46.41-1.12.62-1.96.62-.53,0-.99-.09-1.38-.28-.39-.19-.69-.46-.89-.82-.21-.36-.31-.78-.31-1.26v-3.45h1.11Z"/><path class="cls-2" d="M756.03,413.03v5.73h-1.11v-5.73h1.11Z"/><path class="cls-2" d="M761.02,413.03v.87h-2.6v1.51h2.49v.86h-2.49v1.63h2.65v.86h-3.76v-5.73h3.7Z"/><path class="cls-1" d="M425.63,249.29v-8.19h2.05c.83,0,1.49.21,1.97.62.49.41.73.96.73,1.66,0,.48-.12.89-.36,1.24s-.58.61-1.03.78c.26.17.52.41.77.7s.6.81,1.05,1.55c.29.47.51.81.69,1.05l.43.59h-1.39l-.36-.54s-.04-.05-.07-.1l-.23-.32-.36-.6-.39-.64c-.24-.34-.46-.6-.67-.8-.2-.2-.38-.34-.55-.43-.16-.09-.43-.13-.82-.13h-.3v3.56h-1.17ZM427.15,242.1h-.35v2.58h.45c.59,0,1-.05,1.22-.15.22-.1.39-.26.52-.46.12-.21.19-.44.19-.7s-.07-.49-.21-.7c-.14-.21-.33-.36-.58-.44-.25-.09-.66-.13-1.23-.13Z"/><path class="cls-1" d="M432.57,243.56h3.25v.73h-2.43v1.75h2.35v.73h-2.35v1.78h2.51v.73h-3.33v-5.72ZM434.95,241.91l-.93,1.23h-.46l.55-1.23h.83Z"/><path class="cls-1" d="M436.72,249.29v-5.74h1.82c.55,0,.98.15,1.31.44.33.3.49.69.49,1.19,0,.33-.08.63-.25.89-.17.26-.4.44-.69.56s-.71.17-1.25.17h-.61v2.49h-.82ZM438.4,244.28h-.85v1.79h.9c.33,0,.59-.08.77-.24s.27-.38.27-.68c0-.59-.36-.88-1.09-.88Z"/><path class="cls-1" d="M445.04,243.56h.83v3.25c0,.44-.03.77-.1,1-.06.23-.14.41-.24.56-.09.15-.21.28-.35.4-.45.39-1.05.59-1.78.59s-1.35-.19-1.8-.58c-.14-.12-.25-.26-.35-.4-.09-.15-.17-.33-.23-.55-.06-.22-.09-.56-.09-1.02v-3.24h.83v3.25c0,.54.06.91.19,1.12.12.21.31.38.56.51.25.13.55.19.89.19.49,0,.88-.13,1.19-.38.16-.14.28-.3.35-.48.07-.19.11-.51.11-.96v-3.25Z"/><path class="cls-1" d="M448.94,249.29h-1.94v-5.73h1.5c.47,0,.84.06,1.11.19.27.13.47.3.61.52s.21.48.21.77c0,.56-.29.97-.87,1.21.42.08.75.25,1,.52.25.27.37.58.37.95,0,.29-.08.55-.23.78-.15.23-.37.42-.66.56-.29.15-.66.22-1.09.22ZM448.52,244.29h-.71v1.72h.54c.44,0,.75-.08.93-.25.18-.17.28-.38.28-.65,0-.55-.35-.82-1.05-.82ZM448.58,246.75h-.77v1.82h.81c.45,0,.75-.04.91-.1.16-.07.29-.18.39-.33.1-.15.15-.31.15-.48s-.05-.34-.15-.48c-.1-.15-.25-.25-.44-.32-.19-.07-.49-.11-.89-.11Z"/><path class="cls-1" d="M451.73,243.56h.82v4.98h2.58v.75h-3.4v-5.73Z"/><path class="cls-1" d="M455.85,243.56h.82v5.73h-.82v-5.73Z"/><path class="cls-1" d="M463.72,249.65l-.82.8c-.26-.01-.52-.06-.81-.14-.28-.08-.56-.19-.85-.32-.29-.14-.67-.37-1.15-.7-.7-.13-1.27-.46-1.72-.99s-.68-1.15-.68-1.85c0-.86.29-1.56.87-2.12.58-.56,1.32-.84,2.21-.84s1.62.28,2.21.84.88,1.26.88,2.1c0,.71-.22,1.33-.66,1.87-.44.54-1.01.87-1.72,1.01l.22.08c.68.26,1.16.39,1.46.39.16,0,.36-.04.57-.11ZM460.76,244.26c-.64,0-1.18.21-1.6.62-.42.41-.63.94-.63,1.57s.21,1.13.64,1.54c.42.41.96.61,1.59.61s1.16-.21,1.59-.63c.43-.42.65-.93.65-1.55s-.21-1.14-.64-1.56c-.42-.41-.96-.61-1.61-.61Z"/><path class="cls-1" d="M468.85,243.56h.82v3.25c0,.44-.03.77-.1,1-.06.23-.14.41-.24.56s-.21.28-.35.4c-.45.39-1.05.59-1.78.59s-1.35-.19-1.8-.58c-.14-.12-.25-.26-.35-.4s-.17-.33-.23-.55c-.06-.22-.09-.56-.09-1.02v-3.24h.82v3.25c0,.54.06.91.18,1.12s.31.38.56.51c.25.13.55.19.89.19.49,0,.88-.13,1.19-.38.16-.14.28-.3.35-.48.07-.19.11-.51.11-.96v-3.25Z"/><path class="cls-1" d="M470.81,243.56h3.25v.73h-2.43v1.75h2.35v.73h-2.35v1.78h2.51v.73h-3.33v-5.72Z"/><path class="cls-1" d="M429.45,255.5h6.84v1.04h-2.85v7.15h-1.18v-7.15h-2.81v-1.04Z"/><path class="cls-1" d="M442.06,262.36v.9c-.6.33-1.3.49-2.08.49-.64,0-1.18-.13-1.63-.39-.45-.26-.8-.61-1.06-1.06-.26-.45-.39-.94-.39-1.46,0-.83.3-1.54.89-2.1.6-.57,1.33-.85,2.2-.85.6,0,1.27.16,2.01.47v.88c-.67-.38-1.32-.57-1.96-.57s-1.2.21-1.63.62c-.43.41-.65.93-.65,1.56s.21,1.15.64,1.55.97.61,1.64.61,1.37-.21,2.03-.64Z"/><path class="cls-1" d="M447.11,257.96h.82v5.73h-.82v-2.49h-3.22v2.49h-.82v-5.73h.82v2.48h3.22v-2.48Z"/><path class="cls-1" d="M449.19,257.96h3.25v.73h-2.43v1.75h2.35v.73h-2.35v1.78h2.51v.73h-3.33v-5.72ZM450.59,256.31l.57,1.23h-.46l-.94-1.23h.84Z"/><path class="cls-1" d="M459.17,264.05l-.82.8c-.26-.01-.53-.06-.8-.14-.28-.08-.56-.19-.85-.32-.29-.14-.67-.37-1.15-.7-.7-.13-1.27-.46-1.72-.99s-.68-1.15-.68-1.85c0-.86.29-1.56.87-2.12.58-.56,1.32-.84,2.21-.84s1.62.28,2.21.84c.59.56.88,1.26.88,2.1,0,.71-.22,1.33-.66,1.87-.44.54-1.02.87-1.72,1.01l.22.08c.67.26,1.16.39,1.46.39.16,0,.36-.04.57-.11ZM456.21,258.66c-.64,0-1.18.21-1.6.62-.42.41-.63.94-.63,1.57s.21,1.13.64,1.54c.42.41.95.61,1.59.61s1.16-.21,1.59-.63c.43-.42.65-.93.65-1.55s-.21-1.14-.64-1.56c-.42-.41-.96-.61-1.61-.61Z"/><path class="cls-1" d="M464.29,257.96h.82v3.25c0,.44-.03.77-.1,1-.06.23-.14.41-.24.56-.09.15-.21.28-.35.4-.45.39-1.05.59-1.78.59s-1.35-.19-1.8-.58c-.14-.12-.25-.26-.35-.4-.1-.15-.17-.33-.23-.55s-.09-.56-.09-1.02v-3.24h.82v3.25c0,.54.06.91.19,1.12s.31.38.56.51c.25.13.55.19.89.19.49,0,.88-.13,1.19-.38.16-.14.28-.3.35-.48.07-.19.11-.51.11-.96v-3.25Z"/><path class="cls-1" d="M466.25,257.96h3.25v.73h-2.43v1.75h2.35v.73h-2.35v1.78h2.51v.73h-3.33v-5.72Z"/><path class="cls-2" d="M425.63,249.29v-8.19h2.05c.83,0,1.49.21,1.97.62.49.41.73.96.73,1.66,0,.48-.12.89-.36,1.24s-.58.61-1.03.78c.26.17.52.41.77.7s.6.81,1.05,1.55c.29.47.51.81.69,1.05l.43.59h-1.39l-.36-.54s-.04-.05-.07-.1l-.23-.32-.36-.6-.39-.64c-.24-.34-.46-.6-.67-.8-.2-.2-.38-.34-.55-.43-.16-.09-.43-.13-.82-.13h-.3v3.56h-1.17ZM427.15,242.1h-.35v2.58h.45c.59,0,1-.05,1.22-.15.22-.1.39-.26.52-.46.12-.21.19-.44.19-.7s-.07-.49-.21-.7c-.14-.21-.33-.36-.58-.44-.25-.09-.66-.13-1.23-.13Z"/><path class="cls-2" d="M432.57,243.56h3.25v.73h-2.43v1.75h2.35v.73h-2.35v1.78h2.51v.73h-3.33v-5.72ZM434.95,241.91l-.93,1.23h-.46l.55-1.23h.83Z"/><path class="cls-2" d="M436.72,249.29v-5.74h1.82c.55,0,.98.15,1.31.44.33.3.49.69.49,1.19,0,.33-.08.63-.25.89-.17.26-.4.44-.69.56s-.71.17-1.25.17h-.61v2.49h-.82ZM438.4,244.28h-.85v1.79h.9c.33,0,.59-.08.77-.24s.27-.38.27-.68c0-.59-.36-.88-1.09-.88Z"/><path class="cls-2" d="M445.04,243.56h.83v3.25c0,.44-.03.77-.1,1-.06.23-.14.41-.24.56-.09.15-.21.28-.35.4-.45.39-1.05.59-1.78.59s-1.35-.19-1.8-.58c-.14-.12-.25-.26-.35-.4-.09-.15-.17-.33-.23-.55-.06-.22-.09-.56-.09-1.02v-3.24h.83v3.25c0,.54.06.91.19,1.12.12.21.31.38.56.51.25.13.55.19.89.19.49,0,.88-.13,1.19-.38.16-.14.28-.3.35-.48.07-.19.11-.51.11-.96v-3.25Z"/><path class="cls-2" d="M448.94,249.29h-1.94v-5.73h1.5c.47,0,.84.06,1.11.19.27.13.47.3.61.52s.21.48.21.77c0,.56-.29.97-.87,1.21.42.08.75.25,1,.52.25.27.37.58.37.95,0,.29-.08.55-.23.78-.15.23-.37.42-.66.56-.29.15-.66.22-1.09.22ZM448.52,244.29h-.71v1.72h.54c.44,0,.75-.08.93-.25.18-.17.28-.38.28-.65,0-.55-.35-.82-1.05-.82ZM448.58,246.75h-.77v1.82h.81c.45,0,.75-.04.91-.1.16-.07.29-.18.39-.33.1-.15.15-.31.15-.48s-.05-.34-.15-.48c-.1-.15-.25-.25-.44-.32-.19-.07-.49-.11-.89-.11Z"/><path class="cls-2" d="M451.73,243.56h.82v4.98h2.58v.75h-3.4v-5.73Z"/><path class="cls-2" d="M455.85,243.56h.82v5.73h-.82v-5.73Z"/><path class="cls-2" d="M463.72,249.65l-.82.8c-.26-.01-.52-.06-.81-.14-.28-.08-.56-.19-.85-.32-.29-.14-.67-.37-1.15-.7-.7-.13-1.27-.46-1.72-.99s-.68-1.15-.68-1.85c0-.86.29-1.56.87-2.12.58-.56,1.32-.84,2.21-.84s1.62.28,2.21.84.88,1.26.88,2.1c0,.71-.22,1.33-.66,1.87-.44.54-1.01.87-1.72,1.01l.22.08c.68.26,1.16.39,1.46.39.16,0,.36-.04.57-.11ZM460.76,244.26c-.64,0-1.18.21-1.6.62-.42.41-.63.94-.63,1.57s.21,1.13.64,1.54c.42.41.96.61,1.59.61s1.16-.21,1.59-.63c.43-.42.65-.93.65-1.55s-.21-1.14-.64-1.56c-.42-.41-.96-.61-1.61-.61Z"/><path class="cls-2" d="M468.85,243.56h.82v3.25c0,.44-.03.77-.1,1-.06.23-.14.41-.24.56s-.21.28-.35.4c-.45.39-1.05.59-1.78.59s-1.35-.19-1.8-.58c-.14-.12-.25-.26-.35-.4s-.17-.33-.23-.55c-.06-.22-.09-.56-.09-1.02v-3.24h.82v3.25c0,.54.06.91.18,1.12s.31.38.56.51c.25.13.55.19.89.19.49,0,.88-.13,1.19-.38.16-.14.28-.3.35-.48.07-.19.11-.51.11-.96v-3.25Z"/><path class="cls-2" d="M470.81,243.56h3.25v.73h-2.43v1.75h2.35v.73h-2.35v1.78h2.51v.73h-3.33v-5.72Z"/><path class="cls-2" d="M429.45,255.5h6.84v1.04h-2.85v7.15h-1.18v-7.15h-2.81v-1.04Z"/><path class="cls-2" d="M442.06,262.36v.9c-.6.33-1.3.49-2.08.49-.64,0-1.18-.13-1.63-.39-.45-.26-.8-.61-1.06-1.06-.26-.45-.39-.94-.39-1.46,0-.83.3-1.54.89-2.1.6-.57,1.33-.85,2.2-.85.6,0,1.27.16,2.01.47v.88c-.67-.38-1.32-.57-1.96-.57s-1.2.21-1.63.62c-.43.41-.65.93-.65,1.56s.21,1.15.64,1.55.97.61,1.64.61,1.37-.21,2.03-.64Z"/><path class="cls-2" d="M447.11,257.96h.82v5.73h-.82v-2.49h-3.22v2.49h-.82v-5.73h.82v2.48h3.22v-2.48Z"/><path class="cls-2" d="M449.19,257.96h3.25v.73h-2.43v1.75h2.35v.73h-2.35v1.78h2.51v.73h-3.33v-5.72ZM450.59,256.31l.57,1.23h-.46l-.94-1.23h.84Z"/><path class="cls-2" d="M459.17,264.05l-.82.8c-.26-.01-.53-.06-.8-.14-.28-.08-.56-.19-.85-.32-.29-.14-.67-.37-1.15-.7-.7-.13-1.27-.46-1.72-.99s-.68-1.15-.68-1.85c0-.86.29-1.56.87-2.12.58-.56,1.32-.84,2.21-.84s1.62.28,2.21.84c.59.56.88,1.26.88,2.1,0,.71-.22,1.33-.66,1.87-.44.54-1.02.87-1.72,1.01l.22.08c.67.26,1.16.39,1.46.39.16,0,.36-.04.57-.11ZM456.21,258.66c-.64,0-1.18.21-1.6.62-.42.41-.63.94-.63,1.57s.21,1.13.64,1.54c.42.41.95.61,1.59.61s1.16-.21,1.59-.63c.43-.42.65-.93.65-1.55s-.21-1.14-.64-1.56c-.42-.41-.96-.61-1.61-.61Z"/><path class="cls-2" d="M464.29,257.96h.82v3.25c0,.44-.03.77-.1,1-.06.23-.14.41-.24.56-.09.15-.21.28-.35.4-.45.39-1.05.59-1.78.59s-1.35-.19-1.8-.58c-.14-.12-.25-.26-.35-.4-.1-.15-.17-.33-.23-.55s-.09-.56-.09-1.02v-3.24h.82v3.25c0,.54.06.91.19,1.12s.31.38.56.51c.25.13.55.19.89.19.49,0,.88-.13,1.19-.38.16-.14.28-.3.35-.48.07-.19.11-.51.11-.96v-3.25Z"/><path class="cls-2" d="M466.25,257.96h3.25v.73h-2.43v1.75h2.35v.73h-2.35v1.78h2.51v.73h-3.33v-5.72Z"/></g></svg>