<?xml version="1.0" encoding="UTF-8"?><svg id="Calque_2" xmlns="http://www.w3.org/2000/svg" viewBox="0 0 841.81 594.3"><defs><style>.cls-1{fill:none;opacity:0;stroke:#c16868;stroke-miterlimit:10;stroke-width:.1px;}</style></defs><g id="Ligne_de_front"><rect id="Cadre" class="cls-1" x=".05" y=".05" width="841.71" height="594.2"/></g><g id="Ville"><path d="M94.12,447.46c.51,0,.93.14,1.25.43s.48.65.48,1.11c0,.31-.08.58-.24.81s-.4.41-.71.54c.17.09.33.22.46.38s.3.43.5.82c.33.66.58,1.12.74,1.37h-1.18c-.08-.12-.19-.31-.33-.57-.3-.58-.52-.97-.66-1.17s-.28-.34-.41-.43-.28-.13-.45-.13h-.38v2.3h-1.05v-5.46h1.96ZM93.88,449.79c.28,0,.49-.07.65-.21s.24-.33.24-.57-.08-.44-.23-.56-.38-.19-.67-.19h-.66v1.52h.67Z"/><path d="M98.83,449.2c.38,0,.73.08,1.04.24s.55.38.72.67.25.61.25.97-.08.71-.24.99-.4.51-.72.67-.66.25-1.04.25-.73-.08-1.04-.25-.55-.39-.71-.67-.24-.61-.24-.99.09-.69.26-.98.41-.51.72-.66.65-.24,1.02-.24ZM97.84,451.08c0,.36.09.66.27.87s.42.33.72.33.56-.1.74-.31.27-.51.27-.89-.09-.66-.27-.86-.43-.3-.74-.3c-.29,0-.53.11-.71.32s-.27.5-.27.85Z"/><path d="M102.61,448.3h.08v.97h1.25v.73h-1.25v1.68c0,.16.05.3.15.4s.23.15.41.15c.22,0,.48-.08.77-.24v.77c-.35.15-.67.23-.98.23-.41,0-.73-.11-.96-.34s-.35-.53-.35-.91v-1.75h-.57v-.16l1.45-1.54Z"/><path d="M105.87,449.2c.47,0,.83.1,1.07.3s.37.48.37.83v1.79c0,.14.06.21.17.21.05,0,.11-.02.2-.06s.16-.09.21-.14v.55c-.34.21-.64.31-.92.31-.17,0-.3-.03-.4-.09s-.16-.16-.19-.3c-.37.26-.74.39-1.11.39-.26,0-.49-.09-.68-.27s-.28-.39-.28-.64c0-.32.09-.56.28-.75s.52-.34.98-.48l.78-.23v-.17c0-.36-.22-.54-.65-.54-.22,0-.44.05-.66.15s-.42.25-.6.45v-.86c.4-.32.87-.47,1.42-.47ZM105.29,451.94c0,.13.04.24.13.32s.19.12.31.12c.21,0,.42-.1.63-.29v-.96c-.27.09-.48.18-.63.26s-.26.16-.34.25-.11.18-.11.3Z"/></g></svg>