<?xml version="1.0" encoding="UTF-8"?><svg xmlns="http://www.w3.org/2000/svg" viewBox="0 0 841.71 594.2"><defs><style>.cls-1{mix-blend-mode:multiply;opacity:.8;}.cls-2{isolation:isolate;}.cls-3{fill:#85a7cc;}</style></defs><g class="cls-2"><g id="Calque_2"><g id="Noms_de_mer"><path class="cls-3" d="M317,157.43v4.77h-.63v-3.64s-1.93,3.64-1.93,3.64l-.84-3.65-1.17,3.65h-.63l1.57-4.77h.55l.75,3.23,1.71-3.23h.63Z"/><path class="cls-3" d="M322.31,161.39l-.09.57c-.32.23-.67.35-1.05.35s-.71-.14-.96-.42c-.24-.28-.36-.65-.36-1.11,0-.51.14-.94.43-1.29.29-.35.64-.52,1.06-.52.32,0,.58.12.8.37.21.25.32.56.32.95,0,.1,0,.19-.02.29h-1.96c-.02.1-.03.21-.03.3,0,.29.08.52.24.69.16.17.36.25.6.25.29,0,.63-.14,1.02-.43ZM320.57,160.16h1.32c0-.22-.05-.39-.15-.52-.1-.13-.24-.19-.42-.19-.34,0-.59.24-.75.71Z"/><path class="cls-3" d="M326.05,159.06l-.09.6h.01c.19-.25.33-.43.44-.52.11-.09.24-.13.39-.13.09,0,.18.02.26.05v.67c-.13-.07-.25-.11-.37-.11s-.22.03-.31.09c-.09.06-.2.18-.33.37-.13.19-.2.31-.2.35l-.25,1.77h-.59l.44-3.14h.59Z"/><path class="cls-3" d="M336.44,157.43l-.67,4.77c-.23.07-.5.1-.8.1-.53,0-.94-.13-1.23-.38-.29-.25-.43-.61-.43-1.08s.19-.88.56-1.28c.37-.4.88-.6,1.51-.6h.25l.21-1.53h.59ZM335.24,161.8l.33-2.34h-.15c-.45,0-.8.14-1.08.4-.27.27-.41.59-.41.97,0,.31.09.55.27.72.18.17.44.25.77.25.12,0,.21,0,.27-.01Z"/><path class="cls-3" d="M341.55,159.06l-.45,3.14h-.59l.05-.53c-.36.39-.71.58-1.04.58-.21,0-.39-.08-.54-.23-.15-.15-.22-.37-.22-.65,0-.08,0-.16.02-.24l.29-2.07h.59l-.29,2.07c0,.07-.01.13-.01.19,0,.31.12.47.35.47.24,0,.56-.23.95-.69l.29-2.04h.59Z"/><path class="cls-3" d="M321.74,165.83l-.67,4.77h-.34l-2.38-3.49-.49,3.49h-.59l.67-4.77h.32l2.38,3.51.5-3.51h.6Z"/><path class="cls-3" d="M325.66,167.37c.35,0,.64.12.85.37.21.25.32.58.32,1,0,.57-.14,1.05-.43,1.42s-.64.55-1.06.55c-.37,0-.66-.12-.87-.37s-.31-.59-.31-1.04c0-.55.14-1.01.43-1.38s.65-.55,1.07-.55ZM325.66,167.83c-.24,0-.45.15-.63.45-.18.3-.26.66-.26,1.07,0,.25.05.45.16.6.11.15.24.23.39.23.25,0,.46-.14.64-.42.18-.28.26-.64.26-1.07,0-.26-.05-.48-.15-.63s-.24-.24-.41-.24Z"/><path class="cls-3" d="M330.44,167.46l-.09.6h.01c.19-.25.33-.43.44-.52.11-.09.24-.13.39-.13.09,0,.18.02.26.05v.67c-.13-.07-.25-.11-.37-.11s-.22.03-.31.09c-.09.06-.2.18-.33.37-.13.19-.2.31-.2.35l-.25,1.77h-.59l.44-3.14h.59Z"/><path class="cls-3" d="M336.64,165.83l-.67,4.77c-.23.07-.5.1-.8.1-.53,0-.94-.13-1.23-.38-.29-.25-.43-.61-.43-1.08s.19-.88.56-1.28c.37-.4.88-.6,1.51-.6h.25l.21-1.53h.59ZM335.43,170.2l.33-2.34h-.15c-.45,0-.8.14-1.08.4-.27.27-.41.59-.41.97,0,.31.09.55.27.72.18.17.44.25.77.25.12,0,.21,0,.27-.01Z"/><g class="cls-1"><path class="cls-3" d="M259.17,443.41l.87,6.77-.9.12-.66-5.15-2.07,5.5-1.86-5.03-1,5.39-.89.12,1.37-7.05.77-.1,1.64,4.45,1.84-4.89.89-.11Z"/><path class="cls-3" d="M267.41,448.05l-.02.82c-.41.39-.88.62-1.42.69-.56.07-1.04-.07-1.43-.42-.39-.35-.63-.85-.71-1.5-.09-.73.03-1.36.38-1.91.35-.55.81-.86,1.4-.94.45-.06.85.07,1.2.38.34.31.55.74.62,1.29.02.14.02.28.02.42l-2.78.35c0,.15,0,.3.02.43.05.41.21.72.46.93.25.21.55.29.89.25.41-.05.87-.32,1.37-.79ZM264.73,446.63l1.86-.24c-.04-.31-.14-.55-.3-.71-.16-.16-.37-.23-.63-.19-.49.06-.8.44-.93,1.14Z"/><path class="cls-3" d="M272.3,444.08l-.02.86.02.02c.22-.41.39-.69.53-.83.14-.14.32-.23.53-.25.13-.02.26,0,.38.02l.12.95c-.19-.08-.37-.11-.54-.08-.17.02-.31.08-.43.18-.12.1-.25.29-.4.59-.15.29-.22.47-.22.53l-.03,2.55-.84.11.05-4.54.84-.11Z"/><path class="cls-3" d="M289.36,439.55l.87,6.77-.9.12-.66-5.15-2.07,5.5-1.86-5.03-1,5.39-.89.12,1.37-7.05.77-.1,1.64,4.45,1.84-4.89.89-.11Z"/><path class="cls-3" d="M297.6,444.65l-.1.81c-.45.34-.94.52-1.49.54-.57.01-1.03-.18-1.38-.56-.35-.39-.54-.91-.55-1.57-.02-.73.18-1.35.58-1.86.4-.51.9-.77,1.49-.78.46-.01.84.16,1.15.5.31.34.47.79.48,1.34,0,.14,0,.28-.02.42l-2.8.06c-.02.15-.03.29-.03.43,0,.41.13.74.36.97.23.23.52.35.86.34.42,0,.9-.22,1.45-.64ZM295.08,442.96l1.88-.04c0-.31-.08-.56-.23-.73-.15-.18-.35-.26-.6-.26-.49.01-.84.36-1.05,1.03ZM296.38,439.15l1.01-.02-1.1,1.48h-.56s.65-1.46.65-1.46Z"/><path class="cls-3" d="M305.99,439.23l-1.12,6.8c-.33.09-.72.12-1.15.11-.76-.02-1.34-.21-1.74-.58s-.59-.89-.58-1.55c.02-.65.3-1.26.84-1.81.55-.56,1.27-.83,2.18-.8h.36s.36-2.18.36-2.18l.85.02ZM304.12,445.43l.55-3.33h-.22c-.64-.02-1.15.16-1.55.54-.4.38-.61.83-.62,1.37-.01.45.11.79.36,1.04.25.25.62.38,1.09.39.17,0,.3,0,.39,0Z"/><path class="cls-3" d="M310.55,441.67l-.74,4.47-.85-.02.74-4.48.85.02ZM309.82,440.25c0-.14.05-.25.15-.35.1-.09.21-.14.35-.14.13,0,.25.05.34.15.09.1.14.22.14.35,0,.13-.05.25-.15.34-.1.09-.21.14-.35.14-.13,0-.25-.05-.34-.15-.09-.1-.14-.21-.14-.35Z"/><path class="cls-3" d="M316.58,441.82l-.11.66-.89-.02-.5,2.44c-.03.12-.04.23-.04.31,0,.29.15.44.46.45.23,0,.51-.08.83-.25l-.07.83c-.32.12-.63.19-.94.18-.37,0-.66-.11-.87-.3-.21-.19-.31-.44-.3-.75,0-.08.01-.15.03-.23l.54-2.71-.79-.02.12-.66.82.02.19-.91.84.02-.19.91.87.02Z"/><path class="cls-3" d="M323.34,445.3l-.14.81c-.46.32-.97.48-1.51.47-.57-.01-1.02-.22-1.35-.62-.33-.4-.49-.94-.48-1.59.02-.73.24-1.34.66-1.83.42-.49.93-.73,1.53-.71.46.01.83.2,1.12.55s.43.81.42,1.37c0,.14-.02.28-.04.42l-2.8-.07c-.03.15-.05.29-.05.43,0,.41.09.74.32.99s.5.37.84.38c.42,0,.91-.18,1.47-.57ZM320.9,443.49l1.88.05c0-.31-.06-.56-.19-.75-.14-.18-.33-.28-.59-.29-.49-.01-.85.32-1.09.98Z"/><path class="cls-3" d="M328.75,442.11l-.15.85.02.02c.28-.38.49-.62.65-.74.16-.12.35-.18.56-.17.13,0,.26.03.37.08l-.02.96c-.18-.11-.35-.16-.52-.16-.17,0-.32.03-.45.11-.13.08-.29.25-.49.52-.19.27-.29.43-.3.49l-.41,2.52-.85-.02.74-4.48.85.02Z"/><path class="cls-3" d="M334.9,442.26l-.15.85.02.02c.28-.38.49-.62.65-.74.16-.12.35-.18.56-.17.13,0,.26.03.37.08l-.02.96c-.18-.11-.35-.16-.52-.17-.17,0-.32.03-.45.12-.13.08-.29.25-.49.52-.19.27-.29.43-.3.49l-.41,2.52-.85-.02.74-4.48.85.02Z"/><path class="cls-3" d="M343.42,442.47l-.74,4.47-.85-.02.1-.51-.02-.03c-.4.41-.81.61-1.23.6-.41,0-.75-.19-1.03-.55-.28-.35-.41-.78-.4-1.27.02-.85.3-1.55.85-2.09.55-.54,1.3-.8,2.26-.78.39,0,.74.06,1.06.16ZM342.04,445.63l.43-2.58c-.09,0-.18-.01-.26-.02-.67-.02-1.18.19-1.54.6s-.54.88-.56,1.41c0,.36.07.66.23.89.16.23.37.35.63.36.21,0,.43-.09.68-.29s.38-.32.39-.38Z"/><path class="cls-3" d="M348.74,443.03l-.22.77.02.02c.55-.52,1.08-.74,1.59-.67.35.05.6.21.75.49.16.28.21.62.15,1.02-.02.11-.04.23-.08.35l-.81,2.75-.83-.11.79-2.78c.03-.1.05-.19.06-.27.03-.23,0-.42-.07-.55-.08-.14-.19-.21-.34-.23-.08-.01-.18,0-.29.03s-.23.08-.36.15c-.13.07-.3.18-.5.34-.2.15-.31.25-.32.3l-.79,2.78-.83-.11,1.23-4.37.85.11Z"/><path class="cls-3" d="M357.99,447.64l-.23.79c-.5.27-1.02.37-1.55.3-.56-.08-.99-.33-1.27-.77-.29-.44-.39-.98-.3-1.63.1-.73.39-1.31.86-1.75.48-.44,1.01-.62,1.6-.54.45.06.8.29,1.06.67.25.39.34.86.27,1.41-.02.14-.05.27-.09.41l-2.78-.38c-.05.15-.08.29-.1.42-.06.41.01.75.21,1.02.19.27.46.42.79.47.41.06.92-.08,1.53-.41ZM355.76,445.57l1.86.25c.04-.31,0-.56-.11-.76s-.3-.31-.56-.35c-.48-.06-.88.22-1.2.86ZM357.64,442.01l1,.14-1.32,1.29-.55-.08.87-1.36Z"/><path class="cls-3" d="M365.3,448.63l-.23.79c-.5.27-1.01.37-1.55.3-.56-.08-.99-.33-1.27-.77-.29-.44-.39-.98-.3-1.63.1-.73.38-1.31.86-1.75.47-.44,1.01-.62,1.6-.54.45.06.8.29,1.06.67.25.39.34.86.27,1.4-.02.13-.05.27-.09.41l-2.78-.38c-.05.14-.08.29-.1.42-.06.41.01.75.21,1.02.19.27.46.42.8.47.41.06.92-.08,1.53-.41ZM363.08,446.56l1.86.25c.04-.31,0-.56-.11-.76-.12-.2-.3-.31-.56-.35-.48-.06-.88.22-1.2.86Z"/></g><g class="cls-1"><path class="cls-3" d="M707.47,346.23l.37,6.81-.9.05-.29-5.19-2.47,5.34-1.49-5.15-1.39,5.3-.9.05,1.88-6.93.78-.04,1.32,4.56,2.19-4.75.9-.05Z"/><path class="cls-3" d="M715.33,351.46l-.08.82c-.44.36-.93.55-1.47.58-.57.03-1.03-.14-1.39-.52-.36-.38-.56-.89-.6-1.55-.04-.73.13-1.36.52-1.88.38-.52.87-.8,1.47-.83.46-.02.84.13,1.16.46.32.33.5.78.53,1.33,0,.14,0,.28,0,.42l-2.8.15c-.02.15-.02.29-.02.43.02.41.15.73.39.96s.53.33.87.31c.42-.02.89-.25,1.42-.69ZM712.76,349.85l1.88-.1c-.02-.31-.1-.55-.25-.73-.15-.17-.36-.25-.61-.24-.49.03-.83.38-1.02,1.07Z"/><path class="cls-3" d="M720.77,348.15l-.17.85.02.02c.28-.37.51-.61.67-.73.16-.12.35-.17.56-.16.13,0,.26.03.37.08l-.04.96c-.18-.11-.35-.17-.52-.17-.17,0-.32.03-.45.1-.13.08-.3.25-.5.51s-.3.42-.31.48l-.47,2.51-.85-.04.83-4.46.85.04Z"/><path class="cls-3" d="M737.93,347.42l-1.62,6.7-.49-.05-2.89-5.29-1.18,4.89-.84-.08,1.61-6.7.46.05,2.9,5.32,1.19-4.92.85.08Z"/><path class="cls-3" d="M743.28,350.14c.5.05.89.27,1.16.65.27.38.38.87.32,1.46-.08.82-.35,1.47-.81,1.95-.46.49-.99.7-1.58.64-.52-.05-.92-.27-1.18-.65-.26-.38-.37-.89-.3-1.52.08-.78.35-1.41.81-1.9.46-.49,1-.7,1.6-.64ZM743.22,350.81c-.35-.03-.67.15-.96.56-.29.41-.47.9-.53,1.49-.04.35.01.64.14.88.13.24.31.36.53.38.35.04.68-.14.96-.51.29-.38.47-.87.52-1.48.04-.38,0-.68-.13-.92s-.31-.37-.55-.39Z"/><path class="cls-3" d="M749.95,350.93l-1.06,4.41-.84-.08,1.06-4.41.84.08ZM749.33,349.46c.01-.13.07-.25.18-.33.11-.09.22-.12.36-.11.13.01.24.07.33.18.09.1.12.23.11.36-.01.13-.07.24-.18.33-.11.09-.22.12-.36.11-.13-.01-.24-.07-.33-.18-.09-.11-.12-.22-.11-.36Z"/><path class="cls-3" d="M754.93,351.42l-.21.84.02.02c.3-.35.54-.58.71-.69.17-.11.36-.15.57-.13.13.01.25.05.36.1l-.09.96c-.17-.12-.34-.18-.5-.2-.17-.02-.32,0-.45.08-.14.07-.31.23-.52.48-.21.25-.32.41-.33.47l-.59,2.48-.85-.08,1.06-4.41.84.08Z"/><path class="cls-3" d="M762.64,355.51l-.2.79c-.49.29-1,.41-1.54.36-.56-.06-1-.3-1.3-.72-.3-.43-.42-.97-.36-1.62.07-.73.34-1.32.79-1.78s.98-.66,1.58-.6c.45.04.81.26,1.08.63.27.38.37.84.32,1.39-.01.14-.04.27-.07.42l-2.79-.27c-.04.15-.07.29-.08.42-.04.41.04.75.24,1.01.2.26.47.41.81.44.42.04.92-.11,1.51-.46ZM760.34,353.52l1.87.18c.03-.31-.02-.56-.14-.76-.12-.19-.31-.3-.57-.33-.49-.05-.87.25-1.16.9Z"/></g><path class="cls-3" d="M71.62,268c.72,0,1.3.26,1.75.79s.67,1.22.67,2.07c0,1.19-.32,2.17-.97,2.96s-1.42,1.18-2.32,1.18c-.71,0-1.29-.27-1.75-.81s-.68-1.23-.68-2.07c0-1.05.31-2,.93-2.85s1.41-1.27,2.38-1.27ZM70.76,274.17c.63,0,1.18-.34,1.65-1.02s.7-1.5.7-2.46c0-.59-.14-1.05-.41-1.38s-.63-.5-1.09-.5c-.7,0-1.28.35-1.72,1.05s-.66,1.49-.66,2.38c0,.6.14,1.07.42,1.41s.65.52,1.11.52Z"/><path class="cls-3" d="M80.93,273.9l-.1.82c-.39.21-.81.32-1.25.32-.6,0-1.08-.19-1.44-.56s-.54-.88-.54-1.51c0-.76.27-1.4.82-1.92s1.24-.78,2.09-.78c.21,0,.47.03.77.08l-.11.75c-.21-.05-.43-.07-.65-.07-.59,0-1.08.19-1.47.57s-.58.82-.58,1.32c0,.42.11.76.33,1s.52.36.9.36c.4,0,.81-.13,1.23-.38Z"/><path class="cls-3" d="M88.09,273.73l-.12.81c-.46.34-.96.5-1.5.5s-1.02-.2-1.36-.59-.52-.92-.52-1.58c0-.73.21-1.35.62-1.85s.92-.75,1.51-.75c.46,0,.83.17,1.14.52s.45.8.45,1.35c0,.14,0,.28-.03.42h-2.8c-.03.15-.04.29-.04.43,0,.41.11.74.34.98s.51.36.85.36c.42,0,.9-.2,1.46-.61ZM85.61,271.98h1.88c0-.31-.07-.56-.21-.74s-.34-.27-.6-.27c-.49,0-.85.34-1.07,1.01ZM86.99,268.21h1.01l-1.13,1.46h-.56l.68-1.46Z"/><path class="cls-3" d="M96.05,270.41l-.63,4.49h-.85l.08-.52-.02-.02c-.39.42-.8.63-1.21.63s-.76-.17-1.05-.52c-.29-.35-.43-.77-.43-1.26,0-.85.27-1.56.8-2.11s1.28-.83,2.24-.83c.39,0,.74.05,1.06.14ZM94.75,273.61l.37-2.59c-.09,0-.18,0-.26,0-.67,0-1.18.21-1.52.64s-.52.9-.52,1.42c0,.36.08.66.25.89s.38.34.64.34c.21,0,.43-.1.68-.31.24-.2.37-.33.38-.38Z"/><path class="cls-3" d="M101.06,270.41l-.11.79.02.02c.48-.59.97-.88,1.49-.88.35,0,.62.13.81.38.19.26.29.58.29.99,0,.11,0,.23-.03.36l-.43,2.83h-.84l.41-2.86c.02-.1.02-.19.02-.28,0-.23-.05-.41-.15-.54-.1-.12-.22-.19-.37-.19-.08,0-.18.02-.29.06-.11.04-.22.11-.34.2-.12.09-.27.22-.45.4s-.27.29-.28.34l-.41,2.86h-.84l.63-4.49h.85Z"/><path class="cls-3" d="M57.05,288.04l1.32,6.86h-.84l-.4-2.14h-2.15l-.9,2.14h-.91l3.02-6.86h.86ZM55.29,292.04h1.7l-.53-2.8-1.18,2.8Z"/><path class="cls-3" d="M64.58,290.41l-.09.66h-.89l-.44,2.46c-.02.12-.03.23-.03.31,0,.29.16.44.47.44.23,0,.51-.09.82-.27l-.05.83c-.31.13-.62.2-.93.2-.37,0-.66-.09-.87-.28s-.32-.43-.32-.74c0-.07,0-.15.02-.23l.47-2.72h-.79l.1-.66h.82l.16-.92h.84l-.16.92h.87Z"/><path class="cls-3" d="M69.58,288.08l-.96,6.82h-.85l.96-6.82h.85Z"/><path class="cls-3" d="M76.88,290.41l-.63,4.49h-.85l.08-.52-.02-.02c-.39.42-.8.63-1.21.63s-.76-.17-1.05-.52c-.29-.35-.43-.77-.43-1.26,0-.85.27-1.56.8-2.11s1.28-.83,2.24-.83c.39,0,.74.05,1.06.14ZM75.58,293.61l.37-2.59c-.09,0-.18,0-.26,0-.67,0-1.18.21-1.52.64s-.52.9-.52,1.42c0,.36.08.66.25.89s.38.34.64.34c.21,0,.43-.1.68-.31.24-.2.37-.33.38-.38Z"/><path class="cls-3" d="M81.89,290.41l-.11.79.02.02c.48-.59.97-.88,1.49-.88.35,0,.62.13.81.38.19.26.29.58.29.99,0,.11,0,.23-.03.36l-.43,2.83h-.84l.41-2.86c.02-.1.02-.19.02-.28,0-.23-.05-.41-.15-.54-.1-.12-.22-.19-.37-.19-.08,0-.18.02-.29.06-.11.04-.22.11-.34.2-.12.09-.27.22-.45.4s-.27.29-.28.34l-.41,2.86h-.84l.63-4.49h.85Z"/><path class="cls-3" d="M90.66,290.41l-.09.66h-.89l-.44,2.46c-.02.12-.03.23-.03.31,0,.29.16.44.47.44.23,0,.51-.09.82-.27l-.05.83c-.31.13-.62.2-.93.2-.37,0-.66-.09-.87-.28s-.32-.43-.32-.74c0-.07,0-.15.02-.23l.47-2.72h-.79l.1-.66h.82l.16-.92h.84l-.16.92h.87Z"/><path class="cls-3" d="M95.32,290.41l-.63,4.49h-.85l.63-4.49h.85ZM94.56,289.01c0-.14.05-.25.14-.35s.21-.14.34-.14.25.05.34.14.14.21.14.35-.05.25-.14.34-.21.14-.34.14-.25-.05-.34-.14-.14-.21-.14-.34Z"/><path class="cls-3" d="M102.93,290.28l-.97,6.93h-.85l.34-2.43c-.37.18-.68.27-.93.27-.51,0-.93-.19-1.25-.56s-.48-.86-.48-1.46c0-.78.28-1.44.83-1.96s1.34-.79,2.35-.79h.95ZM101.54,294.14l.44-3.17c-.73-.04-1.29.14-1.7.52s-.61.91-.61,1.57c0,.38.11.69.32.92s.5.35.85.35c.19,0,.42-.07.7-.2Z"/><path class="cls-3" d="M110.57,290.41l-.64,4.49h-.84l.08-.76c-.52.55-1.01.83-1.48.83-.3,0-.56-.11-.77-.32s-.31-.52-.31-.93c0-.11,0-.23.02-.35l.42-2.96h.85l-.42,2.96c-.01.1-.02.19-.02.27,0,.45.17.67.5.67s.8-.33,1.35-.99l.41-2.92h.85Z"/><path class="cls-3" d="M117.76,293.73l-.12.81c-.46.34-.96.5-1.5.5s-1.02-.2-1.36-.59-.52-.92-.52-1.58c0-.73.21-1.35.62-1.85s.92-.75,1.51-.75c.46,0,.83.17,1.14.52s.45.8.45,1.35c0,.14,0,.28-.03.42h-2.8c-.03.15-.04.29-.04.43,0,.41.11.74.34.98s.51.36.85.36c.42,0,.9-.2,1.46-.61ZM115.28,291.98h1.88c0-.31-.07-.56-.21-.74s-.34-.27-.6-.27c-.49,0-.85.34-1.07,1.01Z"/><path class="cls-3" d="M499.94,155.44v4.77h-.63v-3.64s-1.93,3.64-1.93,3.64l-.84-3.65-1.17,3.65h-.63l1.58-4.77h.55l.75,3.23,1.71-3.23h.63Z"/><path class="cls-3" d="M505.25,159.39l-.09.57c-.32.23-.67.35-1.05.35s-.71-.14-.96-.42c-.24-.28-.36-.65-.36-1.11,0-.51.14-.94.43-1.29.29-.35.64-.52,1.06-.52.32,0,.58.12.8.37.21.25.32.56.32.95,0,.1,0,.19-.02.29h-1.96c-.02.1-.03.21-.03.3,0,.29.08.52.24.69.16.17.36.25.6.25.29,0,.63-.14,1.02-.43ZM503.51,158.17h1.32c0-.22-.05-.39-.15-.52-.1-.13-.24-.19-.42-.19-.34,0-.59.24-.75.71Z"/><path class="cls-3" d="M508.99,157.07l-.09.6h.01c.19-.25.33-.43.45-.52.11-.09.24-.13.39-.13.09,0,.18.02.26.05v.67c-.12-.07-.25-.11-.37-.11s-.22.03-.31.09c-.09.06-.2.18-.33.37-.13.19-.2.31-.2.35l-.25,1.77h-.59l.44-3.14h.59Z"/><path class="cls-3" d="M485.36,163.84h.7c.49,0,.87.11,1.12.32s.39.51.39.89c0,.41-.22.73-.66.94.66.23.99.66.99,1.28,0,.4-.16.72-.48.97-.32.25-.73.37-1.24.37h-1.48l.66-4.77ZM485.65,166.28l-.25,1.8h.72c.37,0,.65-.07.85-.22s.29-.35.29-.62-.11-.5-.34-.69-.5-.28-.81-.28h-.47ZM485.91,164.38l-.19,1.36h.34c.26,0,.47-.07.63-.2.16-.13.23-.3.23-.52,0-.44-.27-.66-.82-.66-.06,0-.13,0-.2.01Z"/><path class="cls-3" d="M493.21,165.47l-.44,3.14h-.59l.06-.36v-.02c-.29.29-.57.44-.86.44s-.53-.12-.73-.36c-.2-.24-.3-.54-.3-.88,0-.6.19-1.09.56-1.48s.9-.58,1.57-.58c.27,0,.52.03.74.1ZM492.31,167.7l.26-1.82c-.06,0-.13,0-.18,0-.47,0-.82.15-1.07.45-.24.3-.37.63-.37,1,0,.25.06.46.18.62.12.16.27.24.45.24.14,0,.3-.07.47-.21.17-.14.26-.23.26-.27Z"/><path class="cls-3" d="M496.9,163.84l-.67,4.77h-.59l.67-4.77h.59Z"/><path class="cls-3" d="M500.89,165.47l-.06.46h-.63l-.31,1.72c-.02.09-.02.16-.02.22,0,.21.11.31.33.31.17,0,.36-.06.58-.19l-.03.58c-.22.09-.44.14-.65.14-.26,0-.46-.07-.61-.2-.15-.13-.22-.3-.22-.52,0-.05,0-.11.01-.16l.33-1.9h-.55l.07-.46h.58l.12-.64h.59l-.11.64h.61Z"/><path class="cls-3" d="M504.15,165.47l-.44,3.14h-.59l.44-3.14h.59ZM503.62,164.48c0-.1.03-.18.1-.24.07-.07.15-.1.24-.1s.17.03.24.1c.07.07.1.15.1.24s-.03.17-.1.24c-.07.07-.15.1-.24.1s-.17-.03-.24-.1c-.07-.07-.1-.15-.1-.24Z"/><path class="cls-3" d="M509.48,165.37l-.68,4.85h-.59l.24-1.7c-.26.13-.47.19-.65.19-.36,0-.65-.13-.87-.39-.22-.26-.34-.6-.34-1.02,0-.55.19-1.01.58-1.37.39-.37.94-.55,1.64-.55h.66ZM508.51,168.08l.31-2.22c-.51-.02-.9.1-1.19.37-.28.27-.43.64-.43,1.1,0,.27.07.48.22.65.15.16.35.24.59.24.13,0,.29-.05.49-.14Z"/><path class="cls-3" d="M514.83,165.47l-.45,3.14h-.59l.05-.53c-.36.39-.71.58-1.04.58-.21,0-.39-.08-.54-.23-.15-.15-.22-.37-.22-.65,0-.08,0-.16.02-.24l.29-2.07h.59l-.29,2.07c0,.07-.01.13-.01.19,0,.31.12.47.35.47.24,0,.56-.23.95-.69l.29-2.04h.59Z"/><path class="cls-3" d="M519.86,167.79l-.08.57c-.32.23-.67.35-1.05.35s-.71-.14-.96-.42c-.24-.28-.36-.65-.36-1.11,0-.51.14-.94.43-1.29.29-.35.64-.52,1.06-.52.32,0,.58.12.8.37.21.25.32.56.32.95,0,.1,0,.19-.02.29h-1.96c-.02.1-.03.21-.03.3,0,.29.08.52.24.69.16.17.36.25.6.25.29,0,.63-.14,1.02-.43ZM518.12,166.57h1.32c0-.22-.05-.39-.15-.52-.1-.13-.24-.19-.42-.19-.34,0-.59.24-.75.71Z"/></g></g></g></svg>