<?xml version="1.0" encoding="UTF-8"?><svg id="Calque_2" xmlns="http://www.w3.org/2000/svg" xmlns:xlink="http://www.w3.org/1999/xlink" viewBox="0 0 388.8 691.25"><defs><style>.cls-1{filter:url(#drop-shadow-1);}.cls-2{filter:url(#drop-shadow-2);}.cls-3{fill:#fff;fill-rule:evenodd;stroke:#232323;stroke-linecap:square;stroke-linejoin:bevel;}.cls-4{fill:#176084;stroke:#fff;stroke-miterlimit:10;}</style><filter id="drop-shadow-1" x="191.29" y="261.15" width="21.36" height="21.36" filterUnits="userSpaceOnUse"><feOffset dx="1.42" dy="1.42"/><feGaussianBlur result="blur" stdDeviation="2.83"/><feFlood flood-color="#000" flood-opacity=".5"/><feComposite in2="blur" operator="in"/><feComposite in="SourceGraphic"/></filter><filter id="drop-shadow-2" x="250.27" y="353.52" width="21.6" height="21.36" filterUnits="userSpaceOnUse"><feOffset dx="1.42" dy="1.42"/><feGaussianBlur result="blur-2" stdDeviation="2.83"/><feFlood flood-color="#000" flood-opacity=".5"/><feComposite in2="blur-2" operator="in"/><feComposite in="SourceGraphic"/></filter></defs><g id="Picto"><g class="cls-1"><rect class="cls-4" x="199.06" y="268.77" width="3.12" height="3.12"/></g><g class="cls-2"><rect class="cls-4" x="258.06" y="361.16" width="3.12" height="3.12"/></g></g><g id="Radar"><path class="cls-3" d="M374.65,390.41c0,1.79-1.45,3.23-3.23,3.23s-3.23-1.45-3.23-3.23,1.45-3.23,3.23-3.23,3.23,1.45,3.23,3.23" vector-effect="non-scaling-stroke"/><path d="M371.91,392.03c-.2.22-.67.24-1.14.05v.29h-.7v-.78c-.55-.6-.69-1.46-.33-1.73l.88.88.45-.32c-.02-.05-.03-.11-.03-.16,0-.23.19-.42.42-.42s.42.19.42.42-.19.42-.42.42c-.07,0-.14-.02-.19-.05l-.32.44.97.97ZM371.47,389.16c.62,0,1.12.5,1.12,1.12,0,.23-.07.44-.19.62.03-.11.05-.22.05-.34,0-.69-.56-1.26-1.26-1.26-.12,0-.23.02-.34.05.18-.12.39-.19.62-.19ZM371.67,388.46c.89,0,1.62.76,1.62,1.71,0,.35-.1.67-.27.94.04-.16.07-.34.07-.52,0-1.06-.81-1.92-1.82-1.92-.17,0-.33.02-.49.07.26-.18.56-.28.89-.28Z"/></g></svg>