<?xml version="1.0" encoding="UTF-8"?><svg id="Calque_2" xmlns="http://www.w3.org/2000/svg" viewBox="0 0 841.71 594.2"><defs><style>.cls-1{fill:#fff;}.cls-2{fill:none;stroke:#825402;stroke-width:2px;}</style></defs><g id="Nom_de_Pays"><path class="cls-2" d="M660.81,261.8v4.76c0,.49.07.88.22,1.17s.39.53.72.71c.33.19.72.28,1.16.28.48,0,.9-.09,1.23-.27.34-.18.58-.42.74-.73.16-.31.23-.73.23-1.27v-4.66h1.58v4.86c0,1.1-.33,1.95-.99,2.54-.66.59-1.59.89-2.8.89-.76,0-1.42-.13-1.97-.4s-.98-.66-1.27-1.17c-.29-.51-.44-1.11-.44-1.8v-4.92h1.59Z"/><path class="cls-2" d="M669.28,264.25v2.65h.02l2.1-2.65h1.26l-2.13,2.7,2.76,3.03h-1.42l-2.6-2.81v2.81h-1.11v-5.73h1.11Z"/><path class="cls-2" d="M675.95,264.25c.54,0,.98.15,1.32.45.34.3.51.69.51,1.16,0,.33-.08.61-.25.85-.17.24-.42.43-.75.57.18.1.35.23.49.4.14.17.32.45.53.86.35.69.61,1.17.78,1.44h-1.23c-.09-.13-.2-.33-.34-.6-.32-.61-.55-1.02-.7-1.23s-.29-.36-.43-.45c-.14-.09-.29-.13-.47-.13h-.4v2.42h-1.11v-5.73h2.06ZM675.7,266.7c.29,0,.52-.07.68-.22s.25-.34.25-.59-.08-.46-.25-.59-.4-.19-.7-.19h-.69v1.59h.71Z"/><path class="cls-2" d="M682.2,264.25l2.53,5.73h-1.17l-.6-1.39h-2.55l-.55,1.39h-1.16l2.36-5.73h1.13ZM680.76,267.75h1.85l-.97-2.27-.88,2.27Z"/><path class="cls-2" d="M686.54,264.25v5.73h-1.11v-5.73h1.11Z"/><path class="cls-2" d="M688.8,264.25l3.4,4v-4h1.08v5.73h-.95l-3.43-4.06v4.06h-1.08v-5.73h.97Z"/><path class="cls-2" d="M698.25,264.25v.87h-2.6v1.51h2.49v.86h-2.49v1.63h2.65v.86h-3.76v-5.73h3.7Z"/><path class="cls-1" d="M660.81,261.8v4.76c0,.49.07.88.22,1.17s.39.53.72.71c.33.19.72.28,1.16.28.48,0,.9-.09,1.23-.27.34-.18.58-.42.74-.73.16-.31.23-.73.23-1.27v-4.66h1.58v4.86c0,1.1-.33,1.95-.99,2.54-.66.59-1.59.89-2.8.89-.76,0-1.42-.13-1.97-.4s-.98-.66-1.27-1.17c-.29-.51-.44-1.11-.44-1.8v-4.92h1.59Z"/><path class="cls-1" d="M669.28,264.25v2.65h.02l2.1-2.65h1.26l-2.13,2.7,2.76,3.03h-1.42l-2.6-2.81v2.81h-1.11v-5.73h1.11Z"/><path class="cls-1" d="M675.95,264.25c.54,0,.98.15,1.32.45.34.3.51.69.51,1.16,0,.33-.08.61-.25.85-.17.24-.42.43-.75.57.18.1.35.23.49.4.14.17.32.45.53.86.35.69.61,1.17.78,1.44h-1.23c-.09-.13-.2-.33-.34-.6-.32-.61-.55-1.02-.7-1.23s-.29-.36-.43-.45c-.14-.09-.29-.13-.47-.13h-.4v2.42h-1.11v-5.73h2.06ZM675.7,266.7c.29,0,.52-.07.68-.22s.25-.34.25-.59-.08-.46-.25-.59-.4-.19-.7-.19h-.69v1.59h.71Z"/><path class="cls-1" d="M682.2,264.25l2.53,5.73h-1.17l-.6-1.39h-2.55l-.55,1.39h-1.16l2.36-5.73h1.13ZM680.76,267.75h1.85l-.97-2.27-.88,2.27Z"/><path class="cls-1" d="M686.54,264.25v5.73h-1.11v-5.73h1.11Z"/><path class="cls-1" d="M688.8,264.25l3.4,4v-4h1.08v5.73h-.95l-3.43-4.06v4.06h-1.08v-5.73h.97Z"/><path class="cls-1" d="M698.25,264.25v.87h-2.6v1.51h2.49v.86h-2.49v1.63h2.65v.86h-3.76v-5.73h3.7Z"/><path class="cls-1" d="M660.81,261.8v4.76c0,.49.07.88.22,1.17s.39.53.72.71c.33.19.72.28,1.16.28.48,0,.9-.09,1.23-.27.34-.18.58-.42.74-.73.16-.31.23-.73.23-1.27v-4.66h1.58v4.86c0,1.1-.33,1.95-.99,2.54-.66.59-1.59.89-2.8.89-.76,0-1.42-.13-1.97-.4s-.98-.66-1.27-1.17c-.29-.51-.44-1.11-.44-1.8v-4.92h1.59Z"/><path class="cls-1" d="M669.28,264.25v2.65h.02l2.1-2.65h1.26l-2.13,2.7,2.76,3.03h-1.42l-2.6-2.81v2.81h-1.11v-5.73h1.11Z"/><path class="cls-1" d="M675.95,264.25c.54,0,.98.15,1.32.45.34.3.51.69.51,1.16,0,.33-.08.61-.25.85-.17.24-.42.43-.75.57.18.1.35.23.49.4.14.17.32.45.53.86.35.69.61,1.17.78,1.44h-1.23c-.09-.13-.2-.33-.34-.6-.32-.61-.55-1.02-.7-1.23s-.29-.36-.43-.45c-.14-.09-.29-.13-.47-.13h-.4v2.42h-1.11v-5.73h2.06ZM675.7,266.7c.29,0,.52-.07.68-.22s.25-.34.25-.59-.08-.46-.25-.59-.4-.19-.7-.19h-.69v1.59h.71Z"/><path class="cls-1" d="M682.2,264.25l2.53,5.73h-1.17l-.6-1.39h-2.55l-.55,1.39h-1.16l2.36-5.73h1.13ZM680.76,267.75h1.85l-.97-2.27-.88,2.27Z"/><path class="cls-1" d="M686.54,264.25v5.73h-1.11v-5.73h1.11Z"/><path class="cls-1" d="M688.8,264.25l3.4,4v-4h1.08v5.73h-.95l-3.43-4.06v4.06h-1.08v-5.73h.97Z"/><path class="cls-1" d="M698.25,264.25v.87h-2.6v1.51h2.49v.86h-2.49v1.63h2.65v.86h-3.76v-5.73h3.7Z"/><path class="cls-2" d="M463.96,334.03c.75,0,1.36.2,1.83.59.47.39.71.88.71,1.46,0,.38-.1.71-.3.99-.2.28-.48.51-.86.68v.07c.57.13,1.01.38,1.33.76.32.38.48.83.48,1.34,0,.45-.12.86-.35,1.22-.23.36-.56.63-.97.81-.41.18-.9.27-1.46.27h-3.43v-8.19h3ZM463.54,337.42c.42,0,.75-.1.99-.3.24-.2.36-.48.36-.83,0-.32-.11-.57-.33-.75-.22-.19-.52-.28-.88-.28h-1.14v2.16h1ZM463.9,340.98c.54,0,.94-.1,1.21-.3.27-.2.41-.5.41-.89,0-.35-.14-.62-.41-.82-.27-.2-.64-.3-1.09-.3h-1.49v2.31h1.37Z"/><path class="cls-2" d="M471.16,336.41c.59,0,1.13.12,1.6.37s.85.6,1.13,1.06c.28.46.42.97.42,1.52s-.14,1.03-.41,1.49c-.27.46-.65.81-1.13,1.07-.48.25-1.02.38-1.62.38s-1.13-.13-1.62-.39c-.49-.26-.86-.61-1.13-1.06s-.41-.95-.41-1.49.14-1.02.41-1.48c.27-.46.64-.82,1.12-1.08s1.02-.38,1.64-.38ZM469.14,339.35c0,.38.09.72.26,1.03s.41.54.72.71c.31.17.66.25,1.04.25.59,0,1.07-.19,1.45-.55.38-.37.57-.84.57-1.43,0-.38-.09-.72-.26-1.03-.17-.3-.41-.54-.72-.71-.31-.17-.66-.25-1.05-.25s-.74.08-1.05.25c-.31.17-.55.4-.72.71-.17.3-.25.64-.25,1.03Z"/><path class="cls-2" d="M477.02,336.41c.56,0,1.1.14,1.61.42v.98c-.59-.36-1.12-.54-1.58-.54-.28,0-.5.05-.65.16s-.24.25-.24.43c0,.22.15.41.44.6.08.06.4.21.95.46.47.22.81.47,1.02.74.21.27.31.6.31.98,0,.49-.18.89-.53,1.19-.36.3-.81.45-1.38.45-.37,0-.68-.04-.94-.12-.26-.08-.56-.22-.89-.42v-1.09c.61.51,1.19.76,1.73.76.27,0,.49-.06.66-.18.17-.12.25-.27.25-.47,0-.26-.14-.48-.43-.65-.24-.13-.55-.29-.93-.47-.45-.21-.79-.45-1.01-.72s-.33-.59-.33-.95c0-.48.18-.86.54-1.15.36-.29.83-.43,1.42-.43Z"/><path class="cls-2" d="M480.81,336.48l3.4,4v-4h1.08v5.73h-.95l-3.42-4.06v4.06h-1.08v-5.73h.97Z"/><path class="cls-2" d="M487.69,336.48v5.73h-1.11v-5.73h1.11Z"/><path class="cls-2" d="M492.68,336.48v.87h-2.6v1.51h2.49v.86h-2.49v1.63h2.65v.86h-3.76v-5.73h3.7Z"/><path class="cls-2" d="M496.64,338.8v1.38h-3.04v-1.38h3.04Z"/><path class="cls-2" d="M499.58,334.03v3.45h4.25v-3.45h1.58v8.19h-1.58v-3.46h-4.25v3.46h-1.58v-8.19h1.58Z"/><path class="cls-2" d="M507.79,340.52c.24,0,.45.09.63.26s.27.39.27.64-.09.45-.26.63c-.18.18-.39.27-.64.27s-.46-.09-.64-.27c-.18-.18-.27-.39-.27-.63s.09-.46.27-.64c.18-.18.39-.26.63-.26Z"/><path class="cls-1" d="M463.96,334.03c.75,0,1.36.2,1.83.59.47.39.71.88.71,1.46,0,.38-.1.71-.3.99-.2.28-.48.51-.86.68v.07c.57.13,1.01.38,1.33.76.32.38.48.83.48,1.34,0,.45-.12.86-.35,1.22-.23.36-.56.63-.97.81-.41.18-.9.27-1.46.27h-3.43v-8.19h3ZM463.54,337.42c.42,0,.75-.1.99-.3.24-.2.36-.48.36-.83,0-.32-.11-.57-.33-.75-.22-.19-.52-.28-.88-.28h-1.14v2.16h1ZM463.9,340.98c.54,0,.94-.1,1.21-.3.27-.2.41-.5.41-.89,0-.35-.14-.62-.41-.82-.27-.2-.64-.3-1.09-.3h-1.49v2.31h1.37Z"/><path class="cls-1" d="M471.16,336.41c.59,0,1.13.12,1.6.37s.85.6,1.13,1.06c.28.46.42.97.42,1.52s-.14,1.03-.41,1.49c-.27.46-.65.81-1.13,1.07-.48.25-1.02.38-1.62.38s-1.13-.13-1.62-.39c-.49-.26-.86-.61-1.13-1.06s-.41-.95-.41-1.49.14-1.02.41-1.48c.27-.46.64-.82,1.12-1.08s1.02-.38,1.64-.38ZM469.14,339.35c0,.38.09.72.26,1.03s.41.54.72.71c.31.17.66.25,1.04.25.59,0,1.07-.19,1.45-.55.38-.37.57-.84.57-1.43,0-.38-.09-.72-.26-1.03-.17-.3-.41-.54-.72-.71-.31-.17-.66-.25-1.05-.25s-.74.08-1.05.25c-.31.17-.55.4-.72.71-.17.3-.25.64-.25,1.03Z"/><path class="cls-1" d="M477.02,336.41c.56,0,1.1.14,1.61.42v.98c-.59-.36-1.12-.54-1.58-.54-.28,0-.5.05-.65.16s-.24.25-.24.43c0,.22.15.41.44.6.08.06.4.21.95.46.47.22.81.47,1.02.74.21.27.31.6.31.98,0,.49-.18.89-.53,1.19-.36.3-.81.45-1.38.45-.37,0-.68-.04-.94-.12-.26-.08-.56-.22-.89-.42v-1.09c.61.51,1.19.76,1.73.76.27,0,.49-.06.66-.18.17-.12.25-.27.25-.47,0-.26-.14-.48-.43-.65-.24-.13-.55-.29-.93-.47-.45-.21-.79-.45-1.01-.72s-.33-.59-.33-.95c0-.48.18-.86.54-1.15.36-.29.83-.43,1.42-.43Z"/><path class="cls-1" d="M480.81,336.48l3.4,4v-4h1.08v5.73h-.95l-3.42-4.06v4.06h-1.08v-5.73h.97Z"/><path class="cls-1" d="M487.69,336.48v5.73h-1.11v-5.73h1.11Z"/><path class="cls-1" d="M492.68,336.48v.87h-2.6v1.51h2.49v.86h-2.49v1.63h2.65v.86h-3.76v-5.73h3.7Z"/><path class="cls-1" d="M496.64,338.8v1.38h-3.04v-1.38h3.04Z"/><path class="cls-1" d="M499.58,334.03v3.45h4.25v-3.45h1.58v8.19h-1.58v-3.46h-4.25v3.46h-1.58v-8.19h1.58Z"/><path class="cls-1" d="M507.79,340.52c.24,0,.45.09.63.26s.27.39.27.64-.09.45-.26.63c-.18.18-.39.27-.64.27s-.46-.09-.64-.27c-.18-.18-.27-.39-.27-.63s.09-.46.27-.64c.18-.18.39-.26.63-.26Z"/><path class="cls-1" d="M463.96,334.03c.75,0,1.36.2,1.83.59.47.39.71.88.71,1.46,0,.38-.1.71-.3.99-.2.28-.48.51-.86.68v.07c.57.13,1.01.38,1.33.76.32.38.48.83.48,1.34,0,.45-.12.86-.35,1.22-.23.36-.56.63-.97.81-.41.18-.9.27-1.46.27h-3.43v-8.19h3ZM463.54,337.42c.42,0,.75-.1.99-.3.24-.2.36-.48.36-.83,0-.32-.11-.57-.33-.75-.22-.19-.52-.28-.88-.28h-1.14v2.16h1ZM463.9,340.98c.54,0,.94-.1,1.21-.3.27-.2.41-.5.41-.89,0-.35-.14-.62-.41-.82-.27-.2-.64-.3-1.09-.3h-1.49v2.31h1.37Z"/><path class="cls-1" d="M471.16,336.41c.59,0,1.13.12,1.6.37s.85.6,1.13,1.06c.28.46.42.97.42,1.52s-.14,1.03-.41,1.49c-.27.46-.65.81-1.13,1.07-.48.25-1.02.38-1.62.38s-1.13-.13-1.62-.39c-.49-.26-.86-.61-1.13-1.06s-.41-.95-.41-1.49.14-1.02.41-1.48c.27-.46.64-.82,1.12-1.08s1.02-.38,1.64-.38ZM469.14,339.35c0,.38.09.72.26,1.03s.41.54.72.71c.31.17.66.25,1.04.25.59,0,1.07-.19,1.45-.55.38-.37.57-.84.57-1.43,0-.38-.09-.72-.26-1.03-.17-.3-.41-.54-.72-.71-.31-.17-.66-.25-1.05-.25s-.74.08-1.05.25c-.31.17-.55.4-.72.71-.17.3-.25.64-.25,1.03Z"/><path class="cls-1" d="M477.02,336.41c.56,0,1.1.14,1.61.42v.98c-.59-.36-1.12-.54-1.58-.54-.28,0-.5.05-.65.16s-.24.25-.24.43c0,.22.15.41.44.6.08.06.4.21.95.46.47.22.81.47,1.02.74.21.27.31.6.31.98,0,.49-.18.89-.53,1.19-.36.3-.81.45-1.38.45-.37,0-.68-.04-.94-.12-.26-.08-.56-.22-.89-.42v-1.09c.61.51,1.19.76,1.73.76.27,0,.49-.06.66-.18.17-.12.25-.27.25-.47,0-.26-.14-.48-.43-.65-.24-.13-.55-.29-.93-.47-.45-.21-.79-.45-1.01-.72s-.33-.59-.33-.95c0-.48.18-.86.54-1.15.36-.29.83-.43,1.42-.43Z"/><path class="cls-1" d="M480.81,336.48l3.4,4v-4h1.08v5.73h-.95l-3.42-4.06v4.06h-1.08v-5.73h.97Z"/><path class="cls-1" d="M487.69,336.48v5.73h-1.11v-5.73h1.11Z"/><path class="cls-1" d="M492.68,336.48v.87h-2.6v1.51h2.49v.86h-2.49v1.63h2.65v.86h-3.76v-5.73h3.7Z"/><path class="cls-1" d="M496.64,338.8v1.38h-3.04v-1.38h3.04Z"/><path class="cls-1" d="M499.58,334.03v3.45h4.25v-3.45h1.58v8.19h-1.58v-3.46h-4.25v3.46h-1.58v-8.19h1.58Z"/><path class="cls-1" d="M507.79,340.52c.24,0,.45.09.63.26s.27.39.27.64-.09.45-.26.63c-.18.18-.39.27-.64.27s-.46-.09-.64-.27c-.18-.18-.27-.39-.27-.63s.09-.46.27-.64c.18-.18.39-.26.63-.26Z"/></g></svg>