<?xml version="1.0" encoding="UTF-8"?><svg id="Calque_2" xmlns="http://www.w3.org/2000/svg" viewBox="0 0 389.8 692.25"><defs><style>.cls-1{fill:none;stroke:#fff;stroke-miterlimit:10;}</style></defs><g id="Calque_5"><rect class="cls-1" x=".5" y=".5" width="388.8" height="691.25"/></g><g id="Ville"><path d="M190.81,275.23c.31,0,.56.08.75.26.19.17.29.39.29.67,0,.19-.05.35-.14.49s-.24.25-.43.33c.1.06.2.13.28.23.08.1.18.26.3.49.2.4.35.67.45.82h-.71c-.05-.07-.11-.19-.2-.34-.18-.35-.31-.58-.4-.7s-.17-.21-.24-.26c-.08-.05-.17-.08-.27-.08h-.23v1.38h-.63v-3.27h1.18ZM190.67,276.63c.17,0,.3-.04.39-.12.09-.08.14-.2.14-.34s-.05-.26-.14-.34-.23-.11-.4-.11h-.39v.91h.4Z"/><path d="M193.54,276.28c.32,0,.58.1.76.31s.28.49.28.86v.09h-1.55c.02.2.1.35.22.45.12.11.29.16.51.16.14,0,.27-.02.4-.07.13-.05.26-.12.39-.22v.43c-.26.18-.57.27-.93.27-.35,0-.63-.1-.85-.31-.22-.21-.33-.48-.33-.83s.1-.6.3-.82c.2-.21.47-.32.79-.32ZM194.04,277.18c-.02-.16-.06-.28-.15-.37-.08-.09-.19-.13-.34-.13s-.26.04-.35.13c-.09.09-.14.21-.17.38h1Z"/><path d="M196.51,276.37v-1.13h.57v3.27h-1.01c-.35,0-.63-.1-.84-.3-.21-.2-.32-.48-.32-.82,0-.21.05-.39.15-.56.1-.17.23-.3.4-.4s.36-.14.55-.14c.15,0,.32.03.49.09ZM196.21,278.07h.3v-1.27c-.12-.06-.24-.09-.37-.09-.19,0-.35.06-.46.18s-.17.28-.17.47c0,.47.23.71.7.71Z"/><path d="M199.55,276.32l-1.14,1.76h1.14v.43h-2.1l1.14-1.75h-1.05v-.44h2.01Z"/><path d="M200.25,275.31c.09,0,.17.03.23.1s.1.14.1.23-.03.16-.09.23-.14.1-.23.1-.16-.03-.23-.1c-.06-.07-.1-.14-.1-.23,0-.09.03-.17.1-.23s.14-.09.23-.09ZM200.54,276.32v2.19h-.58v-2.19h.58Z"/><path d="M201.71,275.23v3.27h-.58v-3.27h.58ZM203.3,276.32l-.89,1.08,1,1.11h-.73l-.96-1.11.9-1.08h.68Z"/><path d="M204.7,276.28c.23,0,.44.05.62.14s.33.23.43.4.15.37.15.58-.05.42-.15.6-.24.3-.43.4-.4.15-.63.15-.44-.05-.63-.15-.33-.23-.43-.4-.15-.37-.15-.6.05-.42.15-.59.25-.3.43-.4.39-.14.61-.14ZM204.11,277.4c0,.22.05.39.16.52s.25.2.43.2.34-.06.44-.19.16-.3.16-.54-.05-.39-.16-.51-.26-.18-.44-.18c-.18,0-.32.06-.43.19s-.16.3-.16.51Z"/><path d="M206.68,276.32l.51,1.26.52-1.26h.38l.51,1.26.51-1.26h.6l-.98,2.23h-.24l-.59-1.34-.59,1.34h-.24l-.98-2.23h.6Z"/><path d="M211.08,276.28c.23,0,.44.05.62.14s.33.23.43.4.15.37.15.58-.05.42-.15.6-.24.3-.43.4-.4.15-.63.15-.44-.05-.63-.15-.33-.23-.43-.4-.15-.37-.15-.6.05-.42.15-.59.25-.3.43-.4.39-.14.61-.14ZM210.48,277.4c0,.22.05.39.16.52s.25.2.43.2.34-.06.44-.19.16-.3.16-.54-.05-.39-.16-.51-.26-.18-.44-.18c-.18,0-.32.06-.43.19s-.16.3-.16.51Z"/><path d="M252.81,356.42c.34,0,.64.07.91.21.27.14.47.33.62.59.15.25.22.53.22.85s-.07.6-.22.85-.36.44-.63.58-.58.2-.94.2h-1.33v-3.27h1.37ZM252.75,359.2c.35,0,.63-.1.84-.32.21-.21.32-.49.32-.83s-.11-.63-.32-.84-.5-.31-.86-.31h-.65v2.29h.67Z"/><path d="M256.06,357.46c.32,0,.58.1.76.31s.28.49.28.86v.09h-1.55c.02.2.1.35.22.45.12.11.29.16.51.16.14,0,.27-.02.4-.07.13-.05.26-.12.39-.22v.43c-.26.18-.57.27-.93.27-.35,0-.63-.1-.85-.31-.22-.21-.33-.48-.33-.83s.1-.6.3-.82c.2-.21.47-.32.79-.32ZM256.56,358.37c-.02-.16-.06-.28-.15-.37-.08-.09-.19-.13-.34-.13s-.26.04-.35.13c-.09.09-.14.21-.17.38h1Z"/><path d="M257.9,357.5l.52,1.27.51-1.27h.61l-.99,2.23h-.28l-1-2.23h.62Z"/><path d="M260.83,357.46c.32,0,.58.1.76.31s.28.49.28.86v.09h-1.55c.02.2.1.35.22.45.12.11.29.16.51.16.14,0,.27-.02.4-.07.13-.05.26-.12.39-.22v.43c-.26.18-.57.27-.93.27-.35,0-.63-.1-.85-.31-.22-.21-.33-.48-.33-.83s.1-.6.3-.82c.2-.21.47-.32.79-.32ZM261.33,358.37c-.02-.16-.06-.28-.15-.37-.08-.09-.19-.13-.34-.13s-.26.04-.35.13c-.09.09-.14.21-.17.38h1Z"/><path d="M263.04,357.46c.12,0,.23.01.34.04s.22.07.34.13v.46c-.11-.07-.23-.13-.35-.17s-.24-.06-.34-.06c-.08,0-.15.02-.19.05s-.07.08-.07.13c0,.03.02.07.06.1s.15.09.32.18c.25.13.43.24.53.35s.15.24.15.39c0,.21-.07.38-.22.5s-.35.18-.6.18c-.16,0-.3-.02-.44-.05s-.25-.08-.34-.12v-.48c.28.16.52.23.71.23.1,0,.18-.02.24-.05s.09-.08.09-.14c0-.03-.01-.07-.03-.09s-.05-.06-.1-.09-.18-.1-.41-.21c-.18-.08-.31-.18-.39-.28s-.13-.22-.13-.35c0-.19.08-.35.23-.46s.35-.17.6-.17Z"/><path d="M265.24,357.46c.32,0,.58.1.76.31s.28.49.28.86v.09h-1.55c.02.2.1.35.22.45s.29.16.51.16c.14,0,.27-.02.4-.07s.26-.12.39-.22v.43c-.26.18-.57.27-.93.27-.35,0-.63-.1-.85-.31s-.33-.48-.33-.83.1-.6.3-.82.47-.32.79-.32ZM265.75,358.37c-.02-.16-.06-.28-.15-.37s-.19-.13-.34-.13-.26.04-.35.13-.14.21-.17.38h1Z"/><path d="M267.34,356.42v3.27h-.58v-3.27h.58Z"/><path d="M268.49,357.5v1.35c0,.14.04.25.11.32s.17.11.28.11c.1,0,.19-.03.28-.09s.16-.14.22-.25v-1.45h.58v2.19h-.58v-.3c-.21.23-.43.34-.67.34s-.42-.08-.57-.23-.22-.35-.22-.6v-1.4h.57Z"/><path d="M364.06,395.65v1.51h.01l1.2-1.51h.72l-1.22,1.54,1.58,1.73h-.81l-1.48-1.61v1.61h-.63v-3.27h.63Z"/><path d="M367.18,396.73v1.35c0,.14.04.25.11.32.07.07.17.11.28.11.1,0,.19-.03.28-.09s.16-.14.22-.25v-1.45h.58v2.19h-.58v-.3c-.21.23-.43.34-.68.34s-.42-.08-.57-.23c-.14-.15-.22-.35-.22-.6v-1.4h.57ZM367.17,395.83c.07,0,.14.03.19.08.05.05.08.12.08.19s-.03.14-.08.19c-.05.05-.12.08-.19.08s-.14-.03-.19-.08-.08-.12-.08-.19.03-.14.08-.19c.05-.05.12-.08.19-.08ZM368.11,395.83c.07,0,.14.03.19.08.05.05.08.12.08.19s-.03.14-.08.19-.12.08-.19.08-.13-.03-.19-.08-.08-.12-.08-.19.03-.14.08-.19c.05-.05.12-.08.19-.08Z"/><path d="M370.47,396.69c.08,0,.15.02.23.05.07.03.16.09.26.17l-.21.5c-.17-.12-.3-.19-.4-.19-.09,0-.18.03-.26.1s-.16.15-.21.26c-.05.11-.08.22-.08.33v1h-.58v-2.19h.58v.56h0c.1-.21.21-.36.32-.46.11-.09.22-.14.35-.14Z"/><path d="M372.11,396.69c.32,0,.58.1.76.31s.28.49.28.86v.09h-1.55c.02.2.1.35.22.45.12.11.29.16.51.16.14,0,.27-.02.4-.07.13-.05.26-.12.39-.22v.43c-.26.18-.57.27-.93.27-.35,0-.63-.1-.85-.31-.22-.21-.33-.48-.33-.83s.1-.6.3-.82c.2-.21.47-.32.79-.32ZM372.61,397.59c-.02-.16-.06-.28-.15-.37-.08-.09-.19-.13-.34-.13s-.26.04-.35.13c-.09.09-.14.21-.17.38h1Z"/><path d="M374.65,396.69c.25,0,.49.05.69.15v.49c-.2-.12-.4-.18-.58-.18-.2,0-.36.06-.48.18s-.19.29-.19.5.06.37.19.49c.13.12.29.19.5.19.16,0,.36-.05.6-.15v.47c-.23.09-.46.14-.7.14-.35,0-.64-.1-.86-.3-.22-.2-.33-.47-.33-.81s.11-.63.32-.84c.22-.21.5-.32.84-.32Z"/><path d="M376.12,395.72c.09,0,.17.03.23.1s.1.14.1.23-.03.16-.09.23-.14.1-.23.1-.16-.03-.23-.1-.1-.14-.1-.23c0-.09.03-.17.1-.23s.14-.09.23-.09ZM376.41,396.73v2.19h-.58v-2.19h.58Z"/><path d="M377.58,395.65v3.27h-.58v-3.27h.58ZM379.17,396.73l-.89,1.08,1,1.11h-.73l-.96-1.11.9-1.08h.68Z"/></g></svg>