<?xml version="1.0" encoding="UTF-8"?><svg id="Calque_2" xmlns="http://www.w3.org/2000/svg" viewBox="0 0 841.81 594.3"><defs><style>.cls-1{fill:#fff;}.cls-2{stroke:#89741b;}.cls-2,.cls-3{fill:none;}.cls-3{opacity:0;stroke:#c16868;stroke-miterlimit:10;stroke-width:.1px;}</style></defs><g id="Ligne_de_front"><rect id="Cadre" class="cls-3" x=".05" y=".05" width="841.71" height="594.2"/></g><g id="Nom_de_Pays"><path class="cls-2" d="M663.85,262.54v3.97c0,.41.06.73.18.97s.32.44.6.6c.28.16.6.23.97.23.4,0,.75-.07,1.03-.22.28-.15.49-.35.62-.61.13-.26.2-.61.2-1.06v-3.88h1.32v4.05c0,.92-.28,1.62-.83,2.12-.55.49-1.33.74-2.33.74-.63,0-1.18-.11-1.64-.34s-.82-.55-1.06-.97c-.24-.43-.37-.92-.37-1.5v-4.1h1.32Z"/><path class="cls-2" d="M670.91,264.58v2.21h.02l1.75-2.21h1.05l-1.78,2.25,2.3,2.53h-1.18l-2.16-2.34v2.34h-.92v-4.78h.92Z"/><path class="cls-2" d="M676.47,264.58c.45,0,.81.12,1.1.37.28.25.42.57.42.97,0,.27-.07.51-.21.71-.14.2-.35.36-.62.48.15.08.29.19.41.34.12.14.27.38.44.71.29.58.51.98.65,1.2h-1.03c-.07-.1-.17-.27-.29-.5-.26-.51-.46-.85-.58-1.03s-.24-.3-.36-.38c-.11-.07-.25-.11-.39-.11h-.33v2.02h-.92v-4.78h1.72ZM676.26,266.62c.24,0,.43-.06.57-.18s.21-.29.21-.5-.07-.38-.21-.49-.33-.16-.58-.16h-.57v1.33h.59Z"/><path class="cls-2" d="M681.68,264.58l2.11,4.78h-.97l-.5-1.16h-2.12l-.46,1.16h-.97l1.97-4.78h.94ZM680.47,267.49h1.54l-.81-1.89-.73,1.89Z"/><path class="cls-2" d="M685.29,264.58v4.78h-.92v-4.78h.92Z"/><path class="cls-2" d="M687.17,264.58l2.84,3.33v-3.33h.9v4.78h-.79l-2.85-3.39v3.39h-.9v-4.78h.81Z"/><path class="cls-2" d="M695.05,264.58v.72h-2.16v1.25h2.07v.72h-2.07v1.36h2.21v.72h-3.13v-4.78h3.09Z"/><path class="cls-1" d="M663.85,262.54v3.97c0,.41.06.73.18.97s.32.44.6.6c.28.16.6.23.97.23.4,0,.75-.07,1.03-.22.28-.15.49-.35.62-.61.13-.26.2-.61.2-1.06v-3.88h1.32v4.05c0,.92-.28,1.62-.83,2.12-.55.49-1.33.74-2.33.74-.63,0-1.18-.11-1.64-.34s-.82-.55-1.06-.97c-.24-.43-.37-.92-.37-1.5v-4.1h1.32Z"/><path class="cls-1" d="M670.91,264.58v2.21h.02l1.75-2.21h1.05l-1.78,2.25,2.3,2.53h-1.18l-2.16-2.34v2.34h-.92v-4.78h.92Z"/><path class="cls-1" d="M676.47,264.58c.45,0,.81.12,1.1.37.28.25.42.57.42.97,0,.27-.07.51-.21.71-.14.2-.35.36-.62.48.15.08.29.19.41.34.12.14.27.38.44.71.29.58.51.98.65,1.2h-1.03c-.07-.1-.17-.27-.29-.5-.26-.51-.46-.85-.58-1.03s-.24-.3-.36-.38c-.11-.07-.25-.11-.39-.11h-.33v2.02h-.92v-4.78h1.72ZM676.26,266.62c.24,0,.43-.06.57-.18s.21-.29.21-.5-.07-.38-.21-.49-.33-.16-.58-.16h-.57v1.33h.59Z"/><path class="cls-1" d="M681.68,264.58l2.11,4.78h-.97l-.5-1.16h-2.12l-.46,1.16h-.97l1.97-4.78h.94ZM680.47,267.49h1.54l-.81-1.89-.73,1.89Z"/><path class="cls-1" d="M685.29,264.58v4.78h-.92v-4.78h.92Z"/><path class="cls-1" d="M687.17,264.58l2.84,3.33v-3.33h.9v4.78h-.79l-2.85-3.39v3.39h-.9v-4.78h.81Z"/><path class="cls-1" d="M695.05,264.58v.72h-2.16v1.25h2.07v.72h-2.07v1.36h2.21v.72h-3.13v-4.78h3.09Z"/><path class="cls-1" d="M663.85,262.54v3.97c0,.41.06.73.18.97s.32.44.6.6c.28.16.6.23.97.23.4,0,.75-.07,1.03-.22.28-.15.49-.35.62-.61.13-.26.2-.61.2-1.06v-3.88h1.32v4.05c0,.92-.28,1.62-.83,2.12-.55.49-1.33.74-2.33.74-.63,0-1.18-.11-1.64-.34s-.82-.55-1.06-.97c-.24-.43-.37-.92-.37-1.5v-4.1h1.32Z"/><path class="cls-1" d="M670.91,264.58v2.21h.02l1.75-2.21h1.05l-1.78,2.25,2.3,2.53h-1.18l-2.16-2.34v2.34h-.92v-4.78h.92Z"/><path class="cls-1" d="M676.47,264.58c.45,0,.81.12,1.1.37.28.25.42.57.42.97,0,.27-.07.51-.21.71-.14.2-.35.36-.62.48.15.08.29.19.41.34.12.14.27.38.44.71.29.58.51.98.65,1.2h-1.03c-.07-.1-.17-.27-.29-.5-.26-.51-.46-.85-.58-1.03s-.24-.3-.36-.38c-.11-.07-.25-.11-.39-.11h-.33v2.02h-.92v-4.78h1.72ZM676.26,266.62c.24,0,.43-.06.57-.18s.21-.29.21-.5-.07-.38-.21-.49-.33-.16-.58-.16h-.57v1.33h.59Z"/><path class="cls-1" d="M681.68,264.58l2.11,4.78h-.97l-.5-1.16h-2.12l-.46,1.16h-.97l1.97-4.78h.94ZM680.47,267.49h1.54l-.81-1.89-.73,1.89Z"/><path class="cls-1" d="M685.29,264.58v4.78h-.92v-4.78h.92Z"/><path class="cls-1" d="M687.17,264.58l2.84,3.33v-3.33h.9v4.78h-.79l-2.85-3.39v3.39h-.9v-4.78h.81Z"/><path class="cls-1" d="M695.05,264.58v.72h-2.16v1.25h2.07v.72h-2.07v1.36h2.21v.72h-3.13v-4.78h3.09Z"/><path class="cls-2" d="M467.48,334.77c.62,0,1.13.16,1.53.49.39.33.59.73.59,1.22,0,.31-.08.59-.25.83-.17.24-.4.43-.72.57v.06c.48.11.85.32,1.11.64.26.32.4.69.4,1.12,0,.38-.1.72-.29,1.01-.19.3-.46.52-.81.67-.34.15-.75.22-1.21.22h-2.86v-6.82h2.5ZM467.13,337.6c.35,0,.62-.08.83-.25.2-.17.3-.4.3-.69,0-.26-.09-.47-.28-.63-.19-.16-.43-.23-.73-.23h-.95v1.8h.83ZM467.44,340.56c.45,0,.78-.08,1.01-.25.23-.17.34-.42.34-.74,0-.29-.11-.52-.34-.69-.23-.17-.53-.25-.91-.25h-1.24v1.93h1.14Z"/><path class="cls-2" d="M473.49,336.75c.5,0,.94.1,1.33.31s.71.5.95.88c.23.38.35.8.35,1.26s-.11.86-.34,1.24c-.23.38-.54.68-.94.89-.4.21-.85.32-1.35.32s-.94-.11-1.35-.32c-.4-.21-.72-.51-.94-.88s-.34-.79-.34-1.24.11-.85.34-1.23c.23-.39.54-.68.93-.9s.85-.32,1.37-.32ZM471.8,339.2c0,.32.07.6.21.85s.34.45.6.59c.26.14.55.21.87.21.49,0,.89-.15,1.21-.46.32-.31.47-.7.47-1.19,0-.32-.07-.6-.21-.86-.14-.25-.34-.45-.6-.59-.26-.14-.55-.21-.87-.21s-.61.07-.87.21c-.26.14-.46.34-.6.59-.14.25-.21.54-.21.86Z"/><path class="cls-2" d="M478.37,336.75c.46,0,.91.12,1.34.35v.82c-.5-.3-.93-.45-1.32-.45-.23,0-.41.04-.54.13s-.2.21-.2.36c0,.18.12.35.37.5.07.05.33.17.79.38.39.19.67.39.85.62.17.23.26.5.26.81,0,.41-.15.74-.44.99-.3.25-.68.38-1.15.38-.3,0-.57-.03-.79-.1-.22-.07-.47-.18-.74-.35v-.91c.51.42.99.63,1.44.63.23,0,.41-.05.55-.15.14-.1.21-.23.21-.39,0-.22-.12-.4-.36-.54-.2-.11-.46-.24-.78-.39-.38-.17-.66-.37-.84-.6s-.28-.49-.28-.79c0-.4.15-.72.45-.96.3-.24.69-.36,1.18-.36Z"/><path class="cls-2" d="M481.53,336.81l2.84,3.33v-3.33h.9v4.78h-.79l-2.85-3.39v3.39h-.9v-4.78h.81Z"/><path class="cls-2" d="M487.26,336.81v4.78h-.92v-4.78h.92Z"/><path class="cls-2" d="M491.42,336.81v.72h-2.16v1.25h2.07v.72h-2.07v1.36h2.21v.72h-3.13v-4.78h3.09Z"/><path class="cls-2" d="M494.72,338.75v1.15h-2.53v-1.15h2.53Z"/><path class="cls-2" d="M497.17,334.77v2.87h3.54v-2.87h1.32v6.82h-1.32v-2.88h-3.54v2.88h-1.32v-6.82h1.32Z"/><path class="cls-2" d="M504.01,340.18c.2,0,.37.07.53.22s.23.32.23.53-.07.38-.22.52c-.15.15-.32.22-.53.22s-.38-.07-.53-.22c-.15-.15-.22-.32-.22-.52s.08-.39.22-.53c.15-.15.33-.22.53-.22Z"/><path class="cls-1" d="M467.48,334.77c.62,0,1.13.16,1.53.49.39.33.59.73.59,1.22,0,.31-.08.59-.25.83-.17.24-.4.43-.72.57v.06c.48.11.85.32,1.11.64.26.32.4.69.4,1.12,0,.38-.1.72-.29,1.01-.19.3-.46.52-.81.67-.34.15-.75.22-1.21.22h-2.86v-6.82h2.5ZM467.13,337.6c.35,0,.62-.08.83-.25.2-.17.3-.4.3-.69,0-.26-.09-.47-.28-.63-.19-.16-.43-.23-.73-.23h-.95v1.8h.83ZM467.44,340.56c.45,0,.78-.08,1.01-.25.23-.17.34-.42.34-.74,0-.29-.11-.52-.34-.69-.23-.17-.53-.25-.91-.25h-1.24v1.93h1.14Z"/><path class="cls-1" d="M473.49,336.75c.5,0,.94.1,1.33.31s.71.5.95.88c.23.38.35.8.35,1.26s-.11.86-.34,1.24c-.23.38-.54.68-.94.89-.4.21-.85.32-1.35.32s-.94-.11-1.35-.32c-.4-.21-.72-.51-.94-.88s-.34-.79-.34-1.24.11-.85.34-1.23c.23-.39.54-.68.93-.9s.85-.32,1.37-.32ZM471.8,339.2c0,.32.07.6.21.85s.34.45.6.59c.26.14.55.21.87.21.49,0,.89-.15,1.21-.46.32-.31.47-.7.47-1.19,0-.32-.07-.6-.21-.86-.14-.25-.34-.45-.6-.59-.26-.14-.55-.21-.87-.21s-.61.07-.87.21c-.26.14-.46.34-.6.59-.14.25-.21.54-.21.86Z"/><path class="cls-1" d="M478.37,336.75c.46,0,.91.12,1.34.35v.82c-.5-.3-.93-.45-1.32-.45-.23,0-.41.04-.54.13s-.2.21-.2.36c0,.18.12.35.37.5.07.05.33.17.79.38.39.19.67.39.85.62.17.23.26.5.26.81,0,.41-.15.74-.44.99-.3.25-.68.38-1.15.38-.3,0-.57-.03-.79-.1-.22-.07-.47-.18-.74-.35v-.91c.51.42.99.63,1.44.63.23,0,.41-.05.55-.15.14-.1.21-.23.21-.39,0-.22-.12-.4-.36-.54-.2-.11-.46-.24-.78-.39-.38-.17-.66-.37-.84-.6s-.28-.49-.28-.79c0-.4.15-.72.45-.96.3-.24.69-.36,1.18-.36Z"/><path class="cls-1" d="M481.53,336.81l2.84,3.33v-3.33h.9v4.78h-.79l-2.85-3.39v3.39h-.9v-4.78h.81Z"/><path class="cls-1" d="M487.26,336.81v4.78h-.92v-4.78h.92Z"/><path class="cls-1" d="M491.42,336.81v.72h-2.16v1.25h2.07v.72h-2.07v1.36h2.21v.72h-3.13v-4.78h3.09Z"/><path class="cls-1" d="M494.72,338.75v1.15h-2.53v-1.15h2.53Z"/><path class="cls-1" d="M497.17,334.77v2.87h3.54v-2.87h1.32v6.82h-1.32v-2.88h-3.54v2.88h-1.32v-6.82h1.32Z"/><path class="cls-1" d="M504.01,340.18c.2,0,.37.07.53.22s.23.32.23.53-.07.38-.22.52c-.15.15-.32.22-.53.22s-.38-.07-.53-.22c-.15-.15-.22-.32-.22-.52s.08-.39.22-.53c.15-.15.33-.22.53-.22Z"/><path class="cls-1" d="M467.48,334.77c.62,0,1.13.16,1.53.49.39.33.59.73.59,1.22,0,.31-.08.59-.25.83-.17.24-.4.43-.72.57v.06c.48.11.85.32,1.11.64.26.32.4.69.4,1.12,0,.38-.1.72-.29,1.01-.19.3-.46.52-.81.67-.34.15-.75.22-1.21.22h-2.86v-6.82h2.5ZM467.13,337.6c.35,0,.62-.08.83-.25.2-.17.3-.4.3-.69,0-.26-.09-.47-.28-.63-.19-.16-.43-.23-.73-.23h-.95v1.8h.83ZM467.44,340.56c.45,0,.78-.08,1.01-.25.23-.17.34-.42.34-.74,0-.29-.11-.52-.34-.69-.23-.17-.53-.25-.91-.25h-1.24v1.93h1.14Z"/><path class="cls-1" d="M473.49,336.75c.5,0,.94.1,1.33.31s.71.5.95.88c.23.38.35.8.35,1.26s-.11.86-.34,1.24c-.23.38-.54.68-.94.89-.4.21-.85.32-1.35.32s-.94-.11-1.35-.32c-.4-.21-.72-.51-.94-.88s-.34-.79-.34-1.24.11-.85.34-1.23c.23-.39.54-.68.93-.9s.85-.32,1.37-.32ZM471.8,339.2c0,.32.07.6.21.85s.34.45.6.59c.26.14.55.21.87.21.49,0,.89-.15,1.21-.46.32-.31.47-.7.47-1.19,0-.32-.07-.6-.21-.86-.14-.25-.34-.45-.6-.59-.26-.14-.55-.21-.87-.21s-.61.07-.87.21c-.26.14-.46.34-.6.59-.14.25-.21.54-.21.86Z"/><path class="cls-1" d="M478.37,336.75c.46,0,.91.12,1.34.35v.82c-.5-.3-.93-.45-1.32-.45-.23,0-.41.04-.54.13s-.2.21-.2.36c0,.18.12.35.37.5.07.05.33.17.79.38.39.19.67.39.85.62.17.23.26.5.26.81,0,.41-.15.74-.44.99-.3.25-.68.38-1.15.38-.3,0-.57-.03-.79-.1-.22-.07-.47-.18-.74-.35v-.91c.51.42.99.63,1.44.63.23,0,.41-.05.55-.15.14-.1.21-.23.21-.39,0-.22-.12-.4-.36-.54-.2-.11-.46-.24-.78-.39-.38-.17-.66-.37-.84-.6s-.28-.49-.28-.79c0-.4.15-.72.45-.96.3-.24.69-.36,1.18-.36Z"/><path class="cls-1" d="M481.53,336.81l2.84,3.33v-3.33h.9v4.78h-.79l-2.85-3.39v3.39h-.9v-4.78h.81Z"/><path class="cls-1" d="M487.26,336.81v4.78h-.92v-4.78h.92Z"/><path class="cls-1" d="M491.42,336.81v.72h-2.16v1.25h2.07v.72h-2.07v1.36h2.21v.72h-3.13v-4.78h3.09Z"/><path class="cls-1" d="M494.72,338.75v1.15h-2.53v-1.15h2.53Z"/><path class="cls-1" d="M497.17,334.77v2.87h3.54v-2.87h1.32v6.82h-1.32v-2.88h-3.54v2.88h-1.32v-6.82h1.32Z"/><path class="cls-1" d="M504.01,340.18c.2,0,.37.07.53.22s.23.32.23.53-.07.38-.22.52c-.15.15-.32.22-.53.22s-.38-.07-.53-.22c-.15-.15-.22-.32-.22-.52s.08-.39.22-.53c.15-.15.33-.22.53-.22Z"/></g></svg>