<?xml version="1.0" encoding="UTF-8"?><svg id="Calque_2" xmlns="http://www.w3.org/2000/svg" viewBox="0 0 136.2 36.58"><defs><style>.cls-1{fill:#6f9fd4;fill-rule:evenodd;}.cls-2{stroke:#000;stroke-linecap:round;stroke-linejoin:round;stroke-width:3px;}.cls-2,.cls-3{fill:none;}.cls-4{fill:#fff;}.cls-5{fill:#a3b4d6;}.cls-3{stroke:#fff;stroke-linecap:square;stroke-linejoin:bevel;}</style></defs><g id="légende"><path class="cls-4" d="M18,5.54h-1.85V.09h1.43c.45,0,.8.06,1.05.18s.45.29.58.5.2.46.2.74c0,.54-.28.92-.83,1.15.4.08.72.24.95.49s.35.55.35.91c0,.28-.07.53-.21.75s-.35.4-.63.54-.62.21-1.04.21ZM17.61.78h-.67v1.64h.52c.42,0,.71-.08.89-.24s.26-.36.26-.62c0-.52-.33-.79-1-.79ZM17.67,3.12h-.73v1.73h.77c.43,0,.72-.03.87-.1s.27-.17.37-.31.14-.29.14-.45-.05-.32-.15-.46-.24-.24-.42-.31-.46-.1-.85-.1Z"/><path class="cls-4" d="M22.82,3.38v1.53c0,.12.04.18.12.18s.22-.06.4-.19v.43c-.16.1-.29.17-.39.21s-.2.06-.31.06c-.3,0-.48-.12-.54-.36-.3.23-.62.35-.96.35-.25,0-.46-.08-.62-.25s-.25-.37-.25-.62c0-.23.08-.43.24-.61s.39-.32.69-.42l.91-.31v-.19c0-.43-.22-.65-.65-.65-.39,0-.77.2-1.13.6v-.78c.28-.33.67-.49,1.19-.49.39,0,.7.1.93.3.08.07.15.15.21.26s.1.22.12.32.03.31.03.62ZM22.12,4.83v-1.07l-.48.18c-.24.1-.41.19-.51.29s-.15.22-.15.37.05.27.14.36.22.14.37.14c.23,0,.44-.09.63-.28Z"/><path class="cls-4" d="M23.8,5.29v-.77c.2.14.41.25.62.34s.39.13.53.13.28-.04.38-.11.16-.16.16-.26-.03-.19-.1-.26-.22-.17-.45-.3c-.46-.25-.76-.47-.9-.65s-.21-.38-.21-.59c0-.28.11-.5.32-.68s.49-.26.83-.26.71.1,1.08.3v.7c-.42-.25-.77-.38-1.04-.38-.14,0-.25.03-.33.09s-.13.14-.13.23c0,.08.04.16.12.24.08.08.21.17.4.27l.25.14c.6.34.9.71.9,1.12,0,.29-.12.54-.35.72s-.53.28-.89.28c-.21,0-.4-.02-.57-.07s-.38-.13-.63-.25Z"/><path class="cls-4" d="M30.12,3.81h-2.53c.02.34.13.62.35.82s.49.3.82.3c.47,0,.9-.15,1.3-.44v.7c-.22.15-.44.25-.65.31s-.47.09-.76.09c-.4,0-.72-.08-.96-.25s-.44-.38-.59-.66-.22-.6-.22-.96c0-.55.15-.99.46-1.33s.71-.51,1.21-.51.86.17,1.14.5.43.78.43,1.34v.09ZM27.6,3.38h1.81c-.02-.28-.1-.5-.25-.66s-.35-.23-.61-.23-.46.08-.63.23-.27.37-.32.66Z"/><path class="cls-4" d="M35.51.09h.71v5.46h-1.52c-.53,0-.96-.17-1.27-.5s-.47-.79-.47-1.35c0-.53.17-.96.5-1.3s.76-.51,1.27-.51c.24,0,.5.05.78.15V.09ZM35.51,4.93v-2.28c-.22-.11-.45-.17-.67-.17-.35,0-.64.12-.85.35s-.31.54-.31.94c0,.37.09.66.27.86.11.12.23.2.35.24s.34.06.66.06h.55Z"/><path class="cls-4" d="M37.07,2v-.15c.12-.11.2-.23.25-.34s.07-.27.08-.46c-.28-.09-.41-.26-.41-.51,0-.14.05-.27.14-.37s.21-.15.34-.15c.16,0,.29.07.39.21s.15.32.15.54c0,.29-.08.55-.25.77s-.4.38-.69.47Z"/><path class="cls-4" d="M40.66,1.94c.55,0,1,.18,1.36.53s.54.8.54,1.33-.18.95-.55,1.29-.83.51-1.39.51-.99-.17-1.35-.52-.54-.78-.54-1.3.18-.96.55-1.31.82-.53,1.38-.53ZM40.62,2.58c-.34,0-.62.11-.84.34s-.33.51-.33.86.11.62.34.84.51.33.86.33.63-.11.86-.33.33-.5.33-.85-.12-.62-.35-.85-.52-.34-.88-.34Z"/><path class="cls-4" d="M43.31,7.38V1.95h1.24c.64,0,1.13.16,1.49.48s.53.76.53,1.33c0,.54-.17.98-.5,1.33-.33.35-.76.52-1.28.52-.23,0-.48-.05-.76-.15v1.92h-.73ZM44.54,2.61h-.5v2.21c.22.11.45.17.69.17.33,0,.6-.12.82-.35.21-.23.32-.53.32-.89,0-.23-.05-.44-.15-.62s-.24-.31-.41-.39-.43-.12-.76-.12Z"/><path class="cls-4" d="M50.42,3.81h-2.53c.02.34.13.62.35.82s.49.3.82.3c.47,0,.9-.15,1.3-.44v.7c-.22.15-.44.25-.65.31s-.47.09-.76.09c-.4,0-.72-.08-.96-.25s-.44-.38-.59-.66-.22-.6-.22-.96c0-.55.15-.99.46-1.33s.71-.51,1.21-.51.86.17,1.14.5.43.78.43,1.34v.09ZM47.9,3.38h1.81c-.02-.28-.1-.5-.25-.66s-.35-.23-.61-.23-.46.08-.63.23-.27.37-.32.66ZM49.64,0l-.88,1.17h-.44l.53-1.17h.79Z"/><path class="cls-4" d="M51.95,1.95v.82l.04-.06c.34-.55.69-.83,1.03-.83.27,0,.55.14.84.41l-.38.62c-.25-.23-.48-.35-.69-.35-.23,0-.43.11-.6.33s-.25.48-.25.78v1.88h-.71V1.95h.71Z"/><path class="cls-4" d="M56.61,3.38v1.53c0,.12.04.18.12.18s.22-.06.4-.19v.43c-.16.1-.29.17-.39.21s-.2.06-.31.06c-.3,0-.48-.12-.54-.36-.3.23-.62.35-.96.35-.25,0-.46-.08-.62-.25s-.25-.37-.25-.62c0-.23.08-.43.24-.61s.39-.32.69-.42l.91-.31v-.19c0-.43-.22-.65-.65-.65-.39,0-.77.2-1.13.6v-.78c.28-.33.67-.49,1.19-.49.39,0,.7.1.93.3.08.07.15.15.21.26s.1.22.12.32.03.31.03.62ZM55.91,4.83v-1.07l-.48.18c-.24.1-.41.19-.51.29s-.15.22-.15.37.05.27.14.36.22.14.37.14c.23,0,.44-.09.63-.28Z"/><path class="cls-4" d="M57.26,2.52l1.34-1.31v.74h1.14v.64h-1.14v1.76c0,.41.17.62.51.62.26,0,.52-.08.81-.25v.66c-.27.15-.57.23-.89.23s-.6-.09-.81-.29c-.07-.06-.12-.12-.17-.19s-.08-.17-.11-.28-.04-.34-.04-.66v-1.59h-.62v-.07Z"/><path class="cls-4" d="M60.8.44c.12,0,.22.04.3.12s.12.18.12.3-.04.21-.12.3-.18.12-.3.12c-.11,0-.21-.04-.29-.13s-.12-.18-.12-.29.04-.21.12-.29.18-.13.29-.13ZM60.45,1.95h.71v3.59h-.71V1.95Z"/><path class="cls-4" d="M63.9,1.94c.55,0,1,.18,1.36.53s.54.8.54,1.33-.18.95-.55,1.29-.83.51-1.39.51-.99-.17-1.35-.52-.54-.78-.54-1.3.18-.96.55-1.31.82-.53,1.38-.53ZM63.87,2.58c-.34,0-.62.11-.84.34s-.33.51-.33.86.11.62.34.84.51.33.86.33.63-.11.86-.33.33-.5.33-.85-.12-.62-.35-.85-.52-.34-.88-.34Z"/><path class="cls-4" d="M67.31,1.95v.46c.32-.35.68-.53,1.08-.53.22,0,.43.06.62.17s.34.27.44.48.15.52.15.96v2.05h-.71v-2.05c0-.37-.06-.63-.17-.79s-.3-.24-.56-.24c-.34,0-.62.17-.86.5v2.57h-.73V1.95h.73Z"/><path class="cls-4" d="M70.42,5.29v-.77c.2.14.41.25.62.34s.39.13.53.13.28-.04.38-.11.16-.16.16-.26-.03-.19-.1-.26-.22-.17-.45-.3c-.46-.25-.76-.47-.9-.65s-.21-.38-.21-.59c0-.28.11-.5.32-.68s.49-.26.83-.26.71.1,1.08.3v.7c-.42-.25-.77-.38-1.04-.38-.14,0-.25.03-.33.09s-.13.14-.13.23c0,.08.04.16.12.24.08.08.21.17.4.27l.25.14c.6.34.9.71.9,1.12,0,.29-.12.54-.35.72s-.53.28-.89.28c-.21,0-.4-.02-.57-.07s-.38-.13-.63-.25Z"/><path class="cls-4" d="M78.16,3.38v1.53c0,.12.04.18.12.18s.22-.06.4-.19v.43c-.16.1-.29.17-.39.21s-.2.06-.31.06c-.3,0-.48-.12-.54-.36-.3.23-.62.35-.96.35-.25,0-.46-.08-.62-.25s-.25-.37-.25-.62c0-.23.08-.43.24-.61s.39-.32.69-.42l.91-.31v-.19c0-.43-.22-.65-.65-.65-.39,0-.77.2-1.13.6v-.78c.28-.33.67-.49,1.19-.49.39,0,.7.1.93.3.08.07.15.15.21.26s.1.22.12.32.03.31.03.62ZM77.46,4.83v-1.07l-.48.18c-.24.1-.41.19-.51.29s-.15.22-.15.37.05.27.14.36.22.14.37.14c.23,0,.44-.09.63-.28Z"/><path class="cls-4" d="M81.23,1.95h.77l-1.59,3.66h-.24l-1.62-3.66h.78l.97,2.21.93-2.21Z"/><path class="cls-4" d="M84.79,3.38v1.53c0,.12.04.18.12.18s.22-.06.4-.19v.43c-.16.1-.29.17-.39.21s-.2.06-.31.06c-.3,0-.48-.12-.54-.36-.3.23-.62.35-.96.35-.25,0-.46-.08-.62-.25s-.25-.37-.25-.62c0-.23.08-.43.24-.61s.39-.32.69-.42l.91-.31v-.19c0-.43-.22-.65-.65-.65-.39,0-.77.2-1.13.6v-.78c.28-.33.67-.49,1.19-.49.39,0,.7.1.93.3.08.07.15.15.21.26s.1.22.12.32.03.31.03.62ZM84.1,4.83v-1.07l-.48.18c-.24.1-.41.19-.51.29s-.15.22-.15.37.05.27.14.36.22.14.37.14c.23,0,.44-.09.63-.28Z"/><path class="cls-4" d="M86.66,1.95v.46c.32-.35.68-.53,1.08-.53.22,0,.43.06.62.17s.34.27.44.48.15.52.15.96v2.05h-.71v-2.05c0-.37-.06-.63-.17-.79s-.3-.24-.56-.24c-.34,0-.62.17-.86.5v2.57h-.73V1.95h.73Z"/><path class="cls-4" d="M92.65,4.7v.7c-.36.13-.71.2-1.05.2-.56,0-1.01-.17-1.35-.5s-.5-.78-.5-1.34.16-1.02.49-1.37.75-.52,1.29-.52c.19,0,.35.02.5.05s.33.1.54.2v.76c-.36-.23-.69-.34-1-.34s-.58.11-.79.34-.31.51-.31.86c0,.37.11.66.33.88s.52.32.9.32c.27,0,.59-.08.94-.24Z"/><path class="cls-4" d="M96.52,3.81h-2.53c.02.34.13.62.35.82s.49.3.82.3c.47,0,.9-.15,1.3-.44v.7c-.22.15-.44.25-.65.31s-.47.09-.76.09c-.4,0-.72-.08-.96-.25s-.44-.38-.59-.66-.22-.6-.22-.96c0-.55.15-.99.46-1.33s.71-.51,1.21-.51.86.17,1.14.5.43.78.43,1.34v.09ZM94.01,3.38h1.81c-.02-.28-.1-.5-.25-.66s-.35-.23-.61-.23-.46.08-.63.23-.27.37-.32.66ZM95.74,0l-.88,1.17h-.44l.53-1.17h.79Z"/><path class="cls-4" d="M100.35,3.81h-2.53c.02.34.13.62.35.82s.49.3.82.3c.47,0,.9-.15,1.3-.44v.7c-.22.15-.44.25-.65.31s-.47.09-.76.09c-.4,0-.72-.08-.96-.25s-.44-.38-.59-.66-.22-.6-.22-.96c0-.55.15-.99.46-1.33s.71-.51,1.21-.51.86.17,1.14.5.43.78.43,1.34v.09ZM97.84,3.38h1.81c-.02-.28-.1-.5-.25-.66s-.35-.23-.61-.23-.46.08-.63.23-.27.37-.32.66Z"/><path class="cls-4" d="M100.94,5.29v-.77c.2.14.41.25.62.34s.39.13.53.13.28-.04.38-.11.16-.16.16-.26-.03-.19-.1-.26-.22-.17-.45-.3c-.46-.25-.76-.47-.9-.65s-.21-.38-.21-.59c0-.28.11-.5.32-.68s.49-.26.83-.26.71.1,1.08.3v.7c-.42-.25-.77-.38-1.04-.38-.14,0-.25.03-.33.09s-.13.14-.13.23c0,.08.04.16.12.24.08.08.21.17.4.27l.25.14c.6.34.9.71.9,1.12,0,.29-.12.54-.35.72s-.53.28-.89.28c-.21,0-.4-.02-.57-.07s-.38-.13-.63-.25Z"/><path class="cls-4" d="M106.37,7.38V1.95h1.24c.64,0,1.13.16,1.49.48s.53.76.53,1.33c0,.54-.17.98-.5,1.33-.33.35-.76.52-1.28.52-.23,0-.48-.05-.76-.15v1.92h-.73ZM107.6,2.61h-.5v2.21c.22.11.45.17.69.17.33,0,.6-.12.82-.35.21-.23.32-.53.32-.89,0-.23-.05-.44-.15-.62s-.24-.31-.41-.39-.43-.12-.76-.12Z"/><path class="cls-4" d="M112.14,1.94c.55,0,1,.18,1.36.53s.54.8.54,1.33-.18.95-.55,1.29-.83.51-1.39.51-.99-.17-1.35-.52-.54-.78-.54-1.3.18-.96.55-1.31.82-.53,1.38-.53ZM112.1,2.58c-.34,0-.62.11-.84.34s-.33.51-.33.86.11.62.34.84.51.33.86.33.63-.11.86-.33.33-.5.33-.85-.12-.62-.35-.85-.52-.34-.88-.34Z"/><path class="cls-4" d="M117.12,5.54v-.46c-.15.17-.32.29-.52.39s-.39.14-.58.14c-.23,0-.44-.06-.63-.17s-.34-.27-.43-.46-.15-.52-.15-.97V1.95h.71v2.05c0,.38.05.64.16.79s.3.22.57.22c.34,0,.63-.17.86-.5V1.95h.71v3.59h-.71Z"/><path class="cls-4" d="M119.6,1.95v.82l.04-.06c.34-.55.69-.83,1.03-.83.27,0,.55.14.84.41l-.38.62c-.25-.23-.48-.35-.69-.35-.23,0-.43.11-.6.33s-.25.48-.25.78v1.88h-.71V1.95h.71Z"/><path class="cls-4" d="M124.24.09h.71v5.46h-.71V.09Z"/><path class="cls-4" d="M129.04,3.81h-2.53c.02.34.13.62.35.82s.49.3.82.3c.47,0,.9-.15,1.3-.44v.7c-.22.15-.44.25-.65.31s-.47.09-.76.09c-.4,0-.72-.08-.96-.25s-.44-.38-.59-.66-.22-.6-.22-.96c0-.55.15-.99.46-1.33s.71-.51,1.21-.51.86.17,1.14.5.43.78.43,1.34v.09ZM126.53,3.38h1.81c-.02-.28-.1-.5-.25-.66s-.35-.23-.61-.23-.46.08-.63.23-.27.37-.32.66Z"/><path class="cls-4" d="M129.63,5.29v-.77c.2.14.41.25.62.34s.39.13.53.13.28-.04.38-.11.16-.16.16-.26-.03-.19-.1-.26-.22-.17-.45-.3c-.46-.25-.76-.47-.9-.65s-.21-.38-.21-.59c0-.28.11-.5.32-.68s.49-.26.83-.26.71.1,1.08.3v.7c-.42-.25-.77-.38-1.04-.38-.14,0-.25.03-.33.09s-.13.14-.13.23c0,.08.04.16.12.24.08.08.21.17.4.27l.25.14c.6.34.9.71.9,1.12,0,.29-.12.54-.35.72s-.53.28-.89.28c-.21,0-.4-.02-.57-.07s-.38-.13-.63-.25Z"/><path class="cls-4" d="M18.37,9.65l1.06,5.49h-.67l-.32-1.71h-1.72l-.72,1.71h-.73l2.42-5.49h.69ZM16.96,12.85h1.36l-.42-2.24-.94,2.24Z"/><path class="cls-4" d="M27.13,9.69l-2.65,5.5h-.27l-1.06-3.87-1.86,3.87h-.28l-1.29-5.5h.69l.91,3.86,1.84-3.86h.28l1.07,3.93,1.88-3.93h.75Z"/><path class="cls-4" d="M29.31,9.65l1.06,5.49h-.67l-.32-1.71h-1.72l-.72,1.71h-.73l2.42-5.49h.69ZM27.91,12.85h1.36l-.42-2.24-.94,2.24Z"/><path class="cls-4" d="M34.98,9.62l-.14.69h-.4c-.94,0-1.67.25-2.17.76s-.76,1.12-.76,1.84c0,.5.13.89.39,1.19s.61.44,1.04.44c.22,0,.49-.06.79-.18s.58-.28.84-.49l-.12.88c-.56.32-1.1.48-1.62.48-.62,0-1.12-.21-1.52-.63s-.59-.97-.59-1.63c0-.98.34-1.78,1.02-2.4s1.58-.93,2.71-.93h.52Z"/><path class="cls-4" d="M38.27,9.83l-.11.75c-.29-.19-.61-.29-.96-.29-.29,0-.52.08-.7.23s-.26.35-.26.6c0,.12.04.25.12.39s.33.37.73.69.67.61.8.85.19.49.19.73c0,.39-.15.73-.44,1.01s-.69.43-1.18.43c-.44,0-.88-.13-1.32-.39l.11-.8c.5.35.92.52,1.28.52.19,0,.38-.06.55-.19s.26-.3.26-.51c0-.14-.04-.28-.13-.43-.09-.15-.33-.39-.74-.72-.4-.33-.67-.62-.79-.86-.12-.24-.19-.49-.19-.72,0-.42.17-.78.52-1.06s.76-.43,1.23-.43c.33,0,.66.07,1,.21Z"/><g vector-effect="non-scaling-stroke"><path class="cls-2" d="M7.96,7.89c0,1.78-1.45,3.23-3.23,3.23s-3.23-1.45-3.23-3.23,1.45-3.23,3.23-3.23,3.23,1.45,3.23,3.23"/><path class="cls-1" d="M7.96,7.89c0,1.78-1.45,3.23-3.23,3.23s-3.23-1.45-3.23-3.23,1.45-3.23,3.23-3.23,3.23,1.45,3.23,3.23"/><path class="cls-3" d="M7.96,7.89c0,1.78-1.45,3.23-3.23,3.23s-3.23-1.45-3.23-3.23,1.45-3.23,3.23-3.23,3.23,1.45,3.23,3.23"/></g><path class="cls-4" d="M16.16,19.69h2.91v.7h-2.13v1.52h2.13v.7h-2.13v2.54h-.78v-5.46Z"/><path class="cls-4" d="M21.41,21.55c.55,0,1,.18,1.36.53s.54.8.54,1.33-.18.95-.55,1.29-.83.51-1.39.51-.99-.17-1.35-.52-.54-.78-.54-1.3.18-.96.55-1.31.82-.53,1.38-.53ZM21.37,22.19c-.34,0-.62.11-.84.34s-.33.51-.33.86.11.62.34.84.51.33.86.33.63-.11.86-.33.33-.5.33-.85-.12-.62-.35-.85-.52-.34-.88-.34Z"/><path class="cls-4" d="M24.87,21.56v.82l.04-.06c.34-.55.69-.83,1.03-.83.27,0,.55.14.84.41l-.38.62c-.25-.23-.48-.35-.69-.35-.23,0-.43.11-.6.33s-.25.48-.25.78v1.88h-.71v-3.59h.71Z"/><path class="cls-4" d="M29.77,24.31v.7c-.36.13-.71.2-1.05.2-.56,0-1.01-.17-1.35-.5s-.5-.78-.5-1.34.16-1.02.49-1.37.75-.52,1.29-.52c.19,0,.35.02.5.05s.33.1.54.2v.76c-.36-.23-.69-.34-1-.34s-.58.11-.79.34-.31.51-.31.86c0,.37.11.66.33.88s.52.32.9.32c.27,0,.59-.08.94-.24Z"/><path class="cls-4" d="M33.64,23.42h-2.53c.02.34.13.62.35.82s.49.3.82.3c.47,0,.9-.15,1.3-.44v.7c-.22.15-.44.25-.65.31s-.47.09-.76.09c-.4,0-.72-.08-.96-.25s-.44-.38-.59-.66-.22-.6-.22-.96c0-.55.15-.99.46-1.33s.71-.51,1.21-.51.86.17,1.14.5.43.78.43,1.34v.09ZM31.13,22.99h1.81c-.02-.28-.1-.5-.25-.66s-.35-.23-.61-.23-.46.08-.63.23-.27.37-.32.66Z"/><path class="cls-4" d="M39.03,19.69h.71v5.46h-1.52c-.53,0-.96-.17-1.27-.5s-.47-.79-.47-1.35c0-.53.17-.96.5-1.3s.76-.51,1.27-.51c.24,0,.5.05.78.15v-1.94ZM39.03,24.54v-2.28c-.22-.11-.45-.17-.67-.17-.35,0-.64.12-.85.35s-.31.54-.31.94c0,.37.09.66.27.86.11.12.23.2.35.24s.34.06.66.06h.55Z"/><path class="cls-4" d="M43.77,23.42h-2.53c.02.34.13.62.35.82s.49.3.82.3c.47,0,.9-.15,1.3-.44v.7c-.22.15-.44.25-.65.31s-.47.09-.76.09c-.4,0-.72-.08-.96-.25s-.44-.38-.59-.66-.22-.6-.22-.96c0-.55.15-.99.46-1.33s.71-.51,1.21-.51.86.17,1.14.5.43.78.43,1.34v.09ZM41.26,22.99h1.81c-.02-.28-.1-.5-.25-.66s-.35-.23-.61-.23-.46.08-.63.23-.27.37-.32.66Z"/><path class="cls-4" d="M47.53,21.56v.82l.04-.06c.34-.55.69-.83,1.03-.83.27,0,.55.14.84.41l-.38.62c-.25-.23-.48-.35-.69-.35-.23,0-.43.11-.6.33s-.25.48-.25.78v1.88h-.71v-3.59h.71Z"/><path class="cls-4" d="M52.83,23.42h-2.53c.02.34.13.62.35.82s.49.3.82.3c.47,0,.9-.15,1.3-.44v.7c-.22.15-.44.25-.65.31s-.47.09-.76.09c-.4,0-.72-.08-.96-.25s-.44-.38-.59-.66-.22-.6-.22-.96c0-.55.15-.99.46-1.33s.71-.51,1.21-.51.86.17,1.14.5.43.78.43,1.34v.09ZM50.32,22.99h1.81c-.02-.28-.1-.5-.25-.66s-.35-.23-.61-.23-.46.08-.63.23-.27.37-.32.66Z"/><path class="cls-4" d="M54.31,21.56v.46c.32-.35.68-.53,1.08-.53.22,0,.43.06.62.17s.34.27.44.48.15.52.15.96v2.05h-.71v-2.05c0-.37-.06-.63-.17-.79s-.3-.24-.56-.24c-.34,0-.62.17-.86.5v2.57h-.73v-3.59h.73Z"/><path class="cls-4" d="M57.43,24.89v-.77c.2.14.41.25.62.34s.39.13.53.13.28-.04.38-.11.16-.16.16-.26-.03-.19-.1-.26-.22-.17-.45-.3c-.46-.25-.76-.47-.9-.65s-.21-.38-.21-.59c0-.28.11-.5.32-.68s.49-.26.83-.26.71.1,1.08.3v.7c-.42-.25-.77-.38-1.04-.38-.14,0-.25.03-.33.09s-.13.14-.13.23c0,.08.04.16.12.24.08.08.21.17.4.27l.25.14c.6.34.9.71.9,1.12,0,.29-.12.54-.35.72s-.53.28-.89.28c-.21,0-.4-.02-.57-.07s-.38-.13-.63-.25Z"/><path class="cls-4" d="M63.74,23.42h-2.53c.02.34.13.62.35.82s.49.3.82.3c.47,0,.9-.15,1.3-.44v.7c-.22.15-.44.25-.65.31s-.47.09-.76.09c-.4,0-.72-.08-.96-.25s-.44-.38-.59-.66-.22-.6-.22-.96c0-.55.15-.99.46-1.33s.71-.51,1.21-.51.86.17,1.14.5.43.78.43,1.34v.09ZM61.23,22.99h1.81c-.02-.28-.1-.5-.25-.66s-.35-.23-.61-.23-.46.08-.63.23-.27.37-.32.66Z"/><path class="cls-4" d="M64.88,20.05c.12,0,.22.04.3.12s.12.18.12.3-.04.21-.12.3-.18.12-.3.12c-.11,0-.21-.04-.29-.13s-.12-.18-.12-.29.04-.21.12-.29.18-.13.29-.13ZM64.53,21.56h.71v3.59h-.71v-3.59Z"/><path class="cls-4" d="M66.08,22.8c0-.38.14-.69.42-.91s.66-.33,1.15-.33h1.48v.55h-.73c.14.14.24.27.29.39s.08.25.08.4c0,.19-.05.37-.16.55s-.24.32-.41.42-.44.17-.83.23c-.27.04-.4.13-.4.28,0,.08.05.15.15.21s.28.11.54.17c.44.1.72.17.85.23s.24.13.34.23c.17.17.26.39.26.65,0,.34-.15.61-.46.82s-.71.3-1.22.3-.92-.1-1.23-.31-.46-.48-.46-.82c0-.49.3-.8.9-.94-.24-.15-.36-.31-.36-.46,0-.11.05-.22.15-.31s.24-.16.42-.21c-.53-.23-.79-.61-.79-1.14ZM67.25,25.32c-.24,0-.44.05-.59.15s-.23.23-.23.39c0,.37.33.55,1,.55.31,0,.56-.05.73-.14s.26-.22.26-.39-.11-.3-.33-.41-.5-.16-.85-.16ZM67.42,22.17c-.19,0-.36.07-.49.2s-.2.29-.2.47.07.34.2.46.3.18.5.18.37-.06.5-.19.2-.28.2-.46-.07-.34-.2-.47-.3-.19-.51-.19Z"/><path class="cls-4" d="M70.39,21.56v.46c.32-.35.68-.53,1.08-.53.22,0,.43.06.62.17.19.12.34.27.44.48s.15.52.15.96v2.05h-.71v-2.05c0-.37-.06-.63-.17-.79s-.3-.24-.56-.24c-.34,0-.62.17-.86.5v2.57h-.73v-3.59h.73Z"/><path class="cls-4" d="M76.74,23.42h-2.53c.02.34.13.62.35.82s.49.3.82.3c.47,0,.9-.15,1.3-.44v.7c-.22.15-.44.25-.65.31s-.47.09-.76.09c-.4,0-.72-.08-.96-.25s-.44-.38-.59-.66-.22-.6-.22-.96c0-.55.16-.99.46-1.33s.71-.51,1.21-.51.86.17,1.14.5.43.78.43,1.34v.09ZM74.23,22.99h1.81c-.02-.28-.1-.5-.25-.66s-.35-.23-.61-.23-.46.08-.63.23-.27.37-.32.66Z"/><path class="cls-4" d="M80.46,22.54v2.61h-.71v-2c0-.4-.05-.68-.16-.83s-.29-.24-.56-.24c-.15,0-.28.03-.41.1s-.26.19-.42.36v2.61h-.71v-3.59h.71v.47c.36-.36.72-.54,1.06-.54.46,0,.81.22,1.06.65.38-.44.78-.66,1.19-.66.35,0,.64.13.86.38s.34.64.34,1.17v2.12h-.71v-2.13c0-.3-.06-.53-.18-.69s-.3-.24-.53-.24c-.29,0-.57.15-.82.45Z"/><path class="cls-4" d="M86.74,23.42h-2.53c.02.34.13.62.35.82s.49.3.82.3c.47,0,.9-.15,1.3-.44v.7c-.22.15-.44.25-.65.31s-.47.09-.76.09c-.4,0-.72-.08-.96-.25s-.44-.38-.59-.66-.22-.6-.22-.96c0-.55.16-.99.46-1.33s.71-.51,1.21-.51.86.17,1.14.5.43.78.43,1.34v.09ZM84.23,22.99h1.81c-.02-.28-.1-.5-.25-.66s-.35-.23-.61-.23-.46.08-.63.23-.27.37-.32.66Z"/><path class="cls-4" d="M88.22,21.56v.46c.32-.35.68-.53,1.08-.53.22,0,.43.06.62.17s.34.27.44.48.15.52.15.96v2.05h-.71v-2.05c0-.37-.06-.63-.17-.79s-.3-.24-.56-.24c-.34,0-.62.17-.86.5v2.57h-.73v-3.59h.73Z"/><path class="cls-4" d="M91.01,22.13l1.34-1.31v.74h1.14v.64h-1.14v1.76c0,.41.17.62.51.62.25,0,.52-.08.81-.25v.66c-.27.15-.57.23-.89.23s-.6-.09-.81-.29c-.07-.06-.12-.12-.17-.19s-.08-.17-.11-.28-.04-.34-.04-.66v-1.59h-.62v-.07Z"/><path class="cls-4" d="M94.06,26.1v-.14c.12-.11.2-.22.25-.34s.07-.27.08-.46c-.28-.08-.41-.25-.41-.51,0-.14.05-.26.14-.37s.21-.15.34-.15c.16,0,.29.07.39.21s.15.32.15.54c0,.29-.08.54-.25.76s-.4.37-.69.46Z"/><path class="cls-4" d="M97.18,24.89v-.77c.2.14.41.25.62.34s.39.13.53.13.28-.04.38-.11.16-.16.16-.26-.03-.19-.1-.26-.22-.17-.45-.3c-.46-.25-.76-.47-.9-.65s-.21-.38-.21-.59c0-.28.11-.5.32-.68s.49-.26.83-.26.71.1,1.08.3v.7c-.42-.25-.77-.38-1.04-.38-.14,0-.25.03-.33.09s-.13.14-.13.23c0,.08.04.16.12.24.08.08.21.17.4.27l.25.14c.6.34.9.71.9,1.12,0,.29-.12.54-.35.72s-.53.28-.89.28c-.21,0-.4-.02-.57-.07s-.38-.13-.63-.25Z"/><path class="cls-4" d="M102.72,25.15v-.46c-.15.17-.32.29-.52.39s-.39.14-.58.14c-.23,0-.44-.06-.63-.17s-.34-.27-.43-.46-.15-.52-.15-.97v-2.06h.71v2.05c0,.38.05.64.16.79s.3.22.57.22c.34,0,.63-.17.86-.5v-2.57h.71v3.59h-.71Z"/><path class="cls-4" d="M105.19,21.56v.82l.04-.06c.34-.55.69-.83,1.03-.83.27,0,.55.14.84.41l-.38.62c-.25-.23-.48-.35-.69-.35-.23,0-.43.11-.6.33s-.25.48-.25.78v1.88h-.71v-3.59h.71Z"/><path class="cls-4" d="M110.04,21.56h.77l-1.59,3.66h-.24l-1.62-3.66h.78l.97,2.21.93-2.21Z"/><path class="cls-4" d="M114.24,23.42h-2.53c.02.34.13.62.35.82s.49.3.82.3c.47,0,.9-.15,1.3-.44v.7c-.22.15-.44.25-.65.31s-.47.09-.76.09c-.4,0-.72-.08-.96-.25s-.44-.38-.59-.66-.22-.6-.22-.96c0-.55.16-.99.46-1.33s.71-.51,1.21-.51.86.17,1.14.5.43.78.43,1.34v.09ZM111.73,22.99h1.81c-.02-.28-.1-.5-.25-.66s-.35-.23-.61-.23-.46.08-.63.23-.27.37-.32.66Z"/><path class="cls-4" d="M115.38,20.05c.12,0,.22.04.3.12s.12.18.12.3-.04.21-.12.3-.18.12-.3.12c-.11,0-.21-.04-.29-.13s-.12-.18-.12-.29.04-.21.12-.29.18-.13.29-.13ZM115.03,21.56h.71v3.59h-.71v-3.59Z"/><path class="cls-4" d="M116.78,19.69h.71v5.46h-.71v-5.46Z"/><path class="cls-4" d="M118.54,19.69h.71v5.46h-.71v-5.46Z"/><path class="cls-4" d="M122.53,22.99v1.53c0,.12.04.18.12.18s.22-.06.4-.19v.43c-.16.1-.29.17-.39.21s-.2.06-.31.06c-.3,0-.48-.12-.54-.36-.3.23-.62.35-.96.35-.25,0-.46-.08-.62-.25s-.25-.37-.25-.62c0-.23.08-.43.24-.61s.39-.32.69-.42l.91-.31v-.19c0-.43-.22-.65-.65-.65-.39,0-.77.2-1.13.6v-.78c.28-.33.67-.49,1.19-.49.39,0,.7.1.93.3.08.07.15.15.21.26s.1.22.12.32.03.31.03.62ZM121.83,24.44v-1.07l-.48.18c-.24.1-.41.19-.51.29s-.15.22-.15.37.05.27.14.36.22.14.37.14c.23,0,.44-.09.63-.28Z"/><path class="cls-4" d="M124.4,21.56v.46c.32-.35.68-.53,1.08-.53.22,0,.43.06.62.17s.34.27.44.48.15.52.15.96v2.05h-.71v-2.05c0-.37-.06-.63-.17-.79s-.3-.24-.56-.24c-.34,0-.62.17-.86.5v2.57h-.73v-3.59h.73Z"/><path class="cls-4" d="M130.38,24.31v.7c-.36.13-.71.2-1.05.2-.56,0-1.01-.17-1.35-.5s-.5-.78-.5-1.34.16-1.02.49-1.37.75-.52,1.29-.52c.18,0,.35.02.5.05s.33.1.54.2v.76c-.36-.23-.69-.34-1-.34s-.58.11-.79.34-.31.51-.31.86c0,.37.11.66.33.88s.52.32.9.32c.27,0,.59-.08.94-.24Z"/><path class="cls-4" d="M134.26,23.42h-2.53c.02.34.13.62.35.82s.49.3.82.3c.47,0,.9-.15,1.3-.44v.7c-.22.15-.44.25-.65.31s-.47.09-.76.09c-.4,0-.72-.08-.96-.25s-.44-.38-.59-.66-.22-.6-.22-.96c0-.55.16-.99.46-1.33s.71-.51,1.21-.51.86.17,1.14.5.43.78.43,1.34v.09ZM131.74,22.99h1.81c-.02-.28-.1-.5-.25-.66s-.35-.23-.61-.23-.46.08-.63.23-.27.37-.32.66Z"/><path class="cls-4" d="M19.12,33.02h-2.53c.02.34.13.62.35.82s.49.3.82.3c.47,0,.9-.15,1.3-.44v.7c-.22.15-.44.25-.65.31s-.47.09-.76.09c-.4,0-.72-.08-.96-.25s-.44-.38-.59-.66-.22-.6-.22-.96c0-.55.15-.99.46-1.33s.71-.51,1.21-.51.86.17,1.14.5.43.78.43,1.34v.09ZM16.61,32.59h1.81c-.02-.28-.1-.5-.25-.66s-.35-.23-.61-.23-.46.08-.63.23-.27.37-.32.66Z"/><path class="cls-4" d="M19.38,31.73l1.34-1.31v.74h1.14v.64h-1.14v1.76c0,.41.17.62.51.62.26,0,.52-.08.81-.25v.66c-.27.15-.57.23-.89.23s-.6-.09-.81-.29c-.07-.06-.12-.12-.17-.19s-.08-.17-.11-.28-.04-.34-.04-.66v-1.59h-.62v-.07Z"/><path class="cls-4" d="M25.54,31.16v.82l.04-.06c.34-.55.69-.83,1.03-.83.27,0,.55.14.84.41l-.38.62c-.25-.23-.48-.35-.69-.35-.23,0-.43.11-.6.33s-.25.48-.25.78v1.88h-.71v-3.59h.71Z"/><path class="cls-4" d="M30.85,33.02h-2.53c.02.34.13.62.35.82s.49.3.82.3c.47,0,.9-.15,1.3-.44v.7c-.22.15-.44.25-.65.31s-.47.09-.76.09c-.4,0-.72-.08-.96-.25s-.44-.38-.59-.66-.22-.6-.22-.96c0-.55.15-.99.46-1.33s.71-.51,1.21-.51.86.17,1.14.5.43.78.43,1.34v.09ZM28.33,32.59h1.81c-.02-.28-.1-.5-.25-.66s-.35-.23-.61-.23-.46.08-.63.23-.27.37-.32.66Z"/><path class="cls-4" d="M34.31,33.91v.7c-.36.13-.71.2-1.05.2-.56,0-1.01-.17-1.35-.5s-.5-.78-.5-1.34.16-1.02.49-1.37.75-.52,1.29-.52c.19,0,.35.02.5.05s.33.1.54.2v.76c-.36-.23-.69-.34-1-.34s-.58.11-.79.34-.31.51-.31.86c0,.37.11.66.33.88s.52.32.9.32c.27,0,.59-.08.94-.24Z"/><path class="cls-4" d="M36.84,31.15c.55,0,1,.18,1.36.53s.54.8.54,1.33-.18.95-.55,1.29-.83.51-1.39.51-.99-.17-1.35-.52-.54-.78-.54-1.3.18-.96.55-1.31.82-.53,1.38-.53ZM36.8,31.79c-.34,0-.62.11-.84.34s-.33.51-.33.86.11.62.34.84.51.33.86.33.63-.11.86-.33.33-.5.33-.85-.12-.62-.35-.85-.52-.34-.88-.34Z"/><path class="cls-4" d="M40.24,31.16v.46c.32-.35.68-.53,1.08-.53.22,0,.43.06.62.17s.34.27.44.48.15.52.15.96v2.05h-.71v-2.05c0-.37-.06-.63-.17-.79s-.3-.24-.56-.24c-.34,0-.62.17-.86.5v2.57h-.73v-3.59h.73Z"/><path class="cls-4" d="M44.24,31.16v.46c.32-.35.68-.53,1.08-.53.22,0,.43.06.62.17s.34.27.44.48.15.52.15.96v2.05h-.71v-2.05c0-.37-.06-.63-.17-.79s-.3-.24-.56-.24c-.34,0-.62.17-.86.5v2.57h-.73v-3.59h.73Z"/><path class="cls-4" d="M49.79,32.59v1.53c0,.12.04.18.12.18s.22-.06.4-.19v.43c-.16.1-.29.17-.39.21s-.2.06-.31.06c-.3,0-.48-.12-.54-.36-.3.23-.62.35-.96.35-.25,0-.46-.08-.62-.25s-.25-.37-.25-.62c0-.23.08-.43.24-.61s.39-.32.69-.42l.91-.31v-.19c0-.43-.22-.65-.65-.65-.39,0-.77.2-1.13.6v-.78c.28-.33.67-.49,1.19-.49.39,0,.7.1.93.3.08.07.15.15.21.26s.1.22.12.32.03.31.03.62ZM49.09,34.04v-1.07l-.48.18c-.24.1-.41.19-.51.29s-.15.22-.15.37.05.27.14.36.22.14.37.14c.23,0,.44-.09.63-.28Z"/><path class="cls-4" d="M51.31,29.65c.12,0,.22.04.3.12s.12.18.12.3-.04.21-.12.3-.18.12-.3.12c-.11,0-.21-.04-.29-.13s-.12-.18-.12-.29.04-.21.12-.29.18-.13.29-.13ZM50.96,31.16h.71v3.59h-.71v-3.59Z"/><path class="cls-4" d="M52.53,34.49v-.77c.2.14.41.25.62.34s.39.13.53.13.28-.04.38-.11.16-.16.16-.26-.03-.19-.1-.26-.22-.17-.45-.3c-.46-.25-.76-.47-.9-.65s-.21-.38-.21-.59c0-.28.11-.5.32-.68s.49-.26.83-.26.71.1,1.08.3v.7c-.42-.25-.77-.38-1.04-.38-.14,0-.25.03-.33.09s-.13.14-.13.23c0,.08.04.16.12.24.08.08.21.17.4.27l.25.14c.6.34.9.71.9,1.12,0,.29-.12.54-.35.72s-.53.28-.89.28c-.21,0-.4-.02-.57-.07s-.38-.13-.63-.25Z"/><path class="cls-4" d="M55.6,34.49v-.77c.2.14.41.25.62.34s.39.13.53.13.28-.04.38-.11.16-.16.16-.26-.03-.19-.1-.26-.22-.17-.45-.3c-.46-.25-.76-.47-.9-.65s-.21-.38-.21-.59c0-.28.11-.5.32-.68s.49-.26.83-.26.71.1,1.08.3v.7c-.42-.25-.77-.38-1.04-.38-.14,0-.25.03-.33.09s-.13.14-.13.23c0,.08.04.16.12.24.08.08.21.17.4.27l.25.14c.6.34.9.71.9,1.12,0,.29-.12.54-.35.72s-.53.28-.89.28c-.21,0-.4-.02-.57-.07s-.38-.13-.63-.25Z"/><path class="cls-4" d="M61.12,32.59v1.53c0,.12.04.18.12.18s.22-.06.4-.19v.43c-.16.1-.29.17-.39.21s-.2.06-.31.06c-.3,0-.48-.12-.54-.36-.3.23-.62.35-.96.35-.25,0-.46-.08-.62-.25s-.25-.37-.25-.62c0-.23.08-.43.24-.61s.39-.32.69-.42l.91-.31v-.19c0-.43-.22-.65-.65-.65-.39,0-.77.2-1.13.6v-.78c.28-.33.67-.49,1.19-.49.39,0,.7.1.93.3.08.07.15.15.21.26s.1.22.12.32.03.31.03.62ZM60.42,34.04v-1.07l-.48.18c-.24.1-.41.19-.51.29s-.15.22-.15.37.05.27.14.36.22.14.37.14c.23,0,.44-.09.63-.28Z"/><path class="cls-4" d="M62.98,31.16v.46c.32-.35.68-.53,1.08-.53.22,0,.43.06.62.17s.34.27.44.48.15.52.15.96v2.05h-.71v-2.05c0-.37-.06-.63-.17-.79s-.3-.24-.56-.24c-.34,0-.62.17-.86.5v2.57h-.73v-3.59h.73Z"/><path class="cls-4" d="M68.97,33.91v.7c-.36.13-.71.2-1.05.2-.56,0-1.01-.17-1.35-.5s-.5-.78-.5-1.34.16-1.02.49-1.37.75-.52,1.29-.52c.19,0,.35.02.5.05s.33.1.54.2v.76c-.36-.23-.69-.34-1-.34s-.58.11-.79.34-.31.51-.31.86c0,.37.11.66.33.88s.52.32.9.32c.27,0,.59-.08.94-.24Z"/><path class="cls-4" d="M72.84,33.02h-2.53c.02.34.13.62.35.82s.49.3.82.3c.47,0,.9-.15,1.3-.44v.7c-.22.15-.44.25-.65.31s-.47.09-.76.09c-.4,0-.72-.08-.96-.25s-.44-.38-.59-.66-.22-.6-.22-.96c0-.55.15-.99.46-1.33s.71-.51,1.21-.51.86.17,1.14.5c.28.33.43.78.43,1.34v.09ZM70.33,32.59h1.81c-.02-.28-.1-.5-.25-.66s-.35-.23-.61-.23-.46.08-.63.23-.27.37-.32.66Z"/><path class="cls-4" d="M78.23,29.29h.71v5.46h-1.52c-.53,0-.96-.17-1.27-.5s-.47-.79-.47-1.35c0-.53.17-.96.5-1.3s.76-.51,1.27-.51c.24,0,.5.05.78.15v-1.94ZM78.23,34.14v-2.28c-.22-.11-.45-.17-.67-.17-.35,0-.64.12-.85.35s-.31.54-.31.94c0,.37.09.66.27.86.11.12.23.2.35.24s.34.06.66.06h.55Z"/><path class="cls-4" d="M82.97,33.02h-2.53c.02.34.13.62.35.82s.49.3.82.3c.47,0,.9-.15,1.3-.44v.7c-.22.15-.44.25-.65.31s-.47.09-.76.09c-.4,0-.72-.08-.96-.25s-.44-.38-.59-.66-.22-.6-.22-.96c0-.55.16-.99.46-1.33s.71-.51,1.21-.51.86.17,1.14.5.43.78.43,1.34v.09ZM80.46,32.59h1.81c-.02-.28-.1-.5-.25-.66s-.35-.23-.61-.23-.46.08-.63.23-.27.37-.32.66Z"/><path class="cls-4" d="M85.98,29.29h.71v5.46h-.71v-5.46Z"/><path class="cls-4" d="M87.6,31.21v-.15c.12-.11.2-.23.25-.34s.07-.27.08-.46c-.28-.09-.41-.26-.41-.51,0-.14.05-.27.14-.37s.21-.15.34-.15c.16,0,.29.07.39.21s.15.32.15.54c0,.29-.08.55-.25.77s-.4.38-.69.47Z"/><path class="cls-4" d="M92.25,29.22c.84,0,1.54.27,2.11.8.56.53.84,1.2.84,2.01s-.28,1.47-.85,2c-.57.53-1.28.79-2.14.79s-1.51-.26-2.06-.79-.82-1.19-.82-1.98.28-1.49.83-2.02,1.25-.8,2.09-.8ZM92.28,29.96c-.62,0-1.14.2-1.54.59-.4.39-.6.89-.6,1.5s.2,1.08.6,1.47.91.59,1.51.59,1.12-.2,1.52-.6.61-.89.61-1.49-.2-1.06-.61-1.46-.91-.59-1.5-.59Z"/><path class="cls-4" d="M95.17,29.29h4.56v.7h-1.9v4.77h-.79v-4.77h-1.87v-.7Z"/><path class="cls-4" d="M101.41,29.26h.55l2.45,5.49h-.8l-.73-1.62h-2.33l-.68,1.62h-.8l2.34-5.49ZM102.56,32.44l-.88-1.98-.82,1.98h1.7Z"/><path class="cls-4" d="M109.34,29.29h.74v5.46h-.67l-3.65-4.2v4.2h-.73v-5.46h.63l3.68,4.24v-4.24Z"/><path class="cls-4" d="M114.92,29.22h.44c-.33.48-.56.9-.71,1.24s-.26.74-.33,1.18-.11.87-.11,1.29c0,1.42.38,2.64,1.15,3.65h-.44l-.12-.14c-.29-.35-.51-.64-.65-.87s-.28-.52-.42-.88c-.23-.58-.34-1.17-.34-1.77s.11-1.21.34-1.78.62-1.21,1.2-1.91Z"/><path class="cls-4" d="M120.88,29.29l-.77,5.46h-.39l-2.72-3.99-.56,3.99h-.68l.77-5.46h.37l2.72,4.01.57-4.01h.69Z"/><path class="cls-4" d="M122.79,29.29l-.77,5.46h-.75l.77-5.46h.75Z"/><path class="cls-4" d="M126.39,29.44l-.11.75c-.29-.19-.61-.29-.96-.29-.29,0-.52.08-.7.23s-.26.35-.26.6c0,.12.04.25.12.39s.33.37.73.69.67.61.8.85.19.49.19.73c0,.39-.15.73-.44,1.01s-.69.43-1.18.43c-.43,0-.88-.13-1.32-.39l.11-.8c.5.35.92.52,1.28.52.19,0,.38-.06.55-.19s.26-.3.26-.51c0-.14-.04-.28-.13-.43-.09-.15-.33-.39-.74-.72s-.67-.62-.79-.86c-.12-.24-.18-.49-.18-.72,0-.42.17-.78.52-1.06s.76-.43,1.23-.43c.33,0,.66.07,1,.21Z"/><path class="cls-4" d="M127.6,29.29h.98c.72,0,1.21.14,1.47.43s.39.64.39,1.05c0,.32-.1.6-.29.84-.2.24-.47.4-.82.5.16.1.31.31.45.6l.98,2.04h-.78l-.63-1.3c-.2-.41-.37-.7-.5-.86-.14-.17-.35-.25-.63-.25h-.29l-.34,2.41h-.75l.77-5.46ZM128.25,29.94l-.24,1.75h.38c.41,0,.73-.09.94-.26s.32-.41.32-.7c0-.53-.33-.79-.99-.79h-.43Z"/><path class="cls-4" d="M134.43,29.29l-.09.65h-1.9l-.24,1.71h1.75l-.1.65h-1.74l-.35,2.45h-.73l.79-5.46h2.6Z"/><path class="cls-4" d="M134.66,36.58h-.44c.34-.51.58-.94.72-1.3s.25-.75.32-1.17.11-.83.11-1.22c0-.45-.04-.89-.12-1.32s-.2-.83-.37-1.21-.38-.76-.66-1.14h.44l.12.14c.29.35.51.63.65.86s.28.52.42.89c.23.58.34,1.17.34,1.79s-.1,1.16-.31,1.7c-.1.27-.23.54-.38.81s-.44.66-.84,1.17Z"/><path d="M6.2,26.04v2.93h-2.93v-2.93h2.93M9.2,23.04H.27v8.93h8.93v-8.93h0Z"/><rect class="cls-4" x="2.27" y="25.04" width="4.93" height="4.93"/><path class="cls-5" d="M6.2,26.04v2.93h-2.93v-2.93h2.93M8.2,24.04H1.27v6.93h6.93v-6.93h0Z"/></g></svg>