<?xml version="1.0" encoding="UTF-8"?><svg id="Calque_2" xmlns="http://www.w3.org/2000/svg" viewBox="0 0 95.49 52.78"><defs><style>.cls-1{stroke:#e8d480;}.cls-1,.cls-2{fill:none;stroke-dasharray:.1 3;stroke-linecap:round;stroke-linejoin:round;stroke-width:2px;}.cls-3{fill:#fff;}.cls-2{stroke:#677c89;}</style></defs><g id="pays"><circle class="cls-2" cx="12.77" cy="12.77" r="11.77"/><circle class="cls-1" cx="12.77" cy="40.01" r="11.77"/><path class="cls-3" d="M30.07,7.12l-.59-.36c-.37-.23-.64-.45-.79-.67s-.24-.47-.24-.76c0-.43.15-.78.45-1.05s.69-.4,1.16-.4.87.13,1.25.38v.89c-.39-.38-.82-.57-1.27-.57-.26,0-.46.06-.63.18s-.25.27-.25.45c0,.16.06.32.18.46.12.14.32.29.58.45l.6.35c.67.4,1,.9,1,1.52,0,.44-.15.79-.44,1.07s-.67.41-1.14.41c-.54,0-1.03-.17-1.47-.5v-.99c.42.53.91.8,1.46.8.24,0,.45-.07.61-.2.16-.14.24-.31.24-.51,0-.33-.24-.65-.72-.95Z"/><path class="cls-3" d="M36.72,3.95h.73v5.46h-.79v-4.25l-1.68,2.11h-.14l-1.7-2.11v4.25h-.78V3.95h.74l1.81,2.24,1.8-2.24Z"/><path class="cls-3" d="M38.34,7.25h1.95v.76h-1.95v-.76Z"/><path class="cls-3" d="M42.05,6.23h.05c.34,0,.6-.07.78-.21s.27-.34.27-.61c0-.24-.09-.44-.26-.59s-.4-.23-.68-.23-.6.09-.95.27v-.75c.32-.16.66-.24,1.04-.24.5,0,.9.13,1.19.39s.44.62.44,1.08c0,.28-.06.51-.17.7-.11.19-.29.35-.54.49.21.08.37.19.47.31s.18.27.23.44c.05.17.08.35.08.55,0,.48-.16.87-.48,1.18s-.72.47-1.2.47c-.41,0-.81-.1-1.2-.3v-.85c.41.26.81.39,1.2.39.26,0,.47-.08.63-.23s.24-.36.24-.62c0-.22-.07-.41-.2-.57-.08-.09-.16-.16-.26-.2s-.3-.08-.62-.12h-.07v-.73Z"/><path class="cls-3" d="M47.3,3.95h.71v2.12c.31-.22.64-.34.98-.34.46,0,.83.17,1.12.52s.43.79.43,1.32c0,.58-.17,1.04-.52,1.38s-.81.51-1.38.51c-.23,0-.48-.02-.73-.07s-.46-.11-.61-.19V3.95ZM48.02,6.75v1.95c.24.07.49.11.75.11.31,0,.57-.11.77-.34s.3-.51.3-.86-.09-.65-.28-.87-.43-.34-.73-.34c-.27,0-.54.12-.81.35Z"/><path class="cls-3" d="M51.35,3.95h.71v5.46h-.71V3.95Z"/><path class="cls-3" d="M54.81,5.8c.55,0,1,.18,1.36.53s.54.8.54,1.33-.18.95-.55,1.29-.83.51-1.39.51-.99-.17-1.35-.52-.54-.78-.54-1.3.18-.96.55-1.31.82-.53,1.38-.53ZM54.77,6.44c-.34,0-.62.11-.84.34s-.33.51-.33.86.11.62.34.84.51.33.86.33.63-.11.86-.33.33-.5.33-.85-.12-.62-.35-.85-.52-.34-.88-.34Z"/><path class="cls-3" d="M60.2,8.57v.7c-.36.13-.71.2-1.05.2-.56,0-1.01-.17-1.35-.5s-.5-.78-.5-1.34.16-1.02.49-1.37.75-.52,1.29-.52c.19,0,.35.02.5.05s.33.1.54.2v.76c-.36-.23-.69-.34-1-.34s-.58.11-.79.34-.31.51-.31.86c0,.37.11.66.33.88s.52.32.9.32c.27,0,.59-.08.94-.24Z"/><path class="cls-3" d="M61.01,3.95h.71v5.46h-.71V3.95ZM63.35,5.81h.84l-1.53,1.76,1.85,1.84h-.95l-1.8-1.83,1.6-1.76Z"/><path class="cls-3" d="M67.17,3.95h.78v5.46h-.78V3.95Z"/><path class="cls-3" d="M69.17,3.95h.78v5.46h-.78V3.95Z"/><path class="cls-3" d="M72.9,3.92h.55l2.45,5.49h-.8l-.73-1.62h-2.33l-.68,1.62h-.8l2.34-5.49ZM74.05,7.09l-.88-1.98-.82,1.98h1.7Z"/><path class="cls-3" d="M76.28,10.35v-.14c.12-.11.2-.22.25-.34s.07-.27.08-.46c-.28-.08-.41-.25-.41-.51,0-.14.05-.26.14-.37s.21-.15.34-.15c.16,0,.29.07.39.21s.15.32.15.54c0,.29-.08.54-.25.76s-.4.37-.69.46Z"/><path class="cls-3" d="M28.57,21.24v-5.43h1.24c.64,0,1.13.16,1.49.48s.53.76.53,1.33c0,.54-.17.98-.5,1.33-.33.35-.76.52-1.28.52-.23,0-.48-.05-.76-.15v1.92h-.73ZM29.8,16.48h-.5v2.21c.22.11.45.17.69.17.33,0,.6-.12.82-.35.21-.23.32-.53.32-.89,0-.23-.05-.44-.15-.62s-.24-.31-.41-.39-.43-.12-.76-.12Z"/><path class="cls-3" d="M34.34,15.8c.55,0,1,.18,1.36.53s.54.8.54,1.33-.18.95-.55,1.29-.83.51-1.39.51-.99-.17-1.35-.52-.54-.78-.54-1.3.18-.96.55-1.31.82-.53,1.38-.53ZM34.3,16.44c-.34,0-.62.11-.84.34s-.33.51-.33.86.11.62.34.84.51.33.86.33.63-.11.86-.33.33-.5.33-.85-.12-.62-.35-.85-.52-.34-.88-.34Z"/><path class="cls-3" d="M37.79,15.81v.82l.04-.06c.34-.55.69-.83,1.03-.83.27,0,.55.14.84.41l-.38.62c-.25-.23-.48-.35-.69-.35-.23,0-.43.11-.6.33s-.25.48-.25.78v1.88h-.71v-3.59h.71Z"/><path class="cls-3" d="M39.85,16.38l1.34-1.31v.74h1.14v.64h-1.14v1.76c0,.41.17.62.51.62.26,0,.52-.08.81-.25v.66c-.27.15-.57.23-.89.23s-.6-.09-.81-.29c-.07-.06-.12-.12-.17-.19s-.08-.17-.11-.28-.04-.34-.04-.66v-1.59h-.62v-.07Z"/><path class="cls-3" d="M46.09,17.67h-2.53c.02.34.13.62.35.82s.49.3.82.3c.47,0,.9-.15,1.3-.44v.7c-.22.15-.44.25-.65.31s-.47.09-.76.09c-.4,0-.72-.08-.96-.25s-.44-.38-.59-.66-.22-.6-.22-.96c0-.55.15-.99.46-1.33s.71-.51,1.21-.51.86.17,1.14.5.43.78.43,1.34v.09ZM43.57,17.24h1.81c-.02-.28-.1-.5-.25-.66s-.35-.23-.61-.23-.46.08-.63.23-.27.37-.32.66ZM45.31,13.86l-.88,1.17h-.44l.53-1.17h.79Z"/><path class="cls-3" d="M49.92,17.67h-2.53c.02.34.13.62.35.82s.49.3.82.3c.47,0,.9-.15,1.3-.44v.7c-.22.15-.44.25-.65.31s-.47.09-.76.09c-.4,0-.72-.08-.96-.25s-.44-.38-.59-.66-.22-.6-.22-.96c0-.55.15-.99.46-1.33s.71-.51,1.21-.51.86.17,1.14.5.43.78.43,1.34v.09ZM47.41,17.24h1.81c-.02-.28-.1-.5-.25-.66s-.35-.23-.61-.23-.46.08-.63.23-.27.37-.32.66Z"/><path class="cls-3" d="M55.85,16.8v2.61h-.71v-2c0-.4-.05-.68-.16-.83s-.29-.24-.56-.24c-.15,0-.28.03-.41.1s-.27.19-.42.36v2.61h-.71v-3.59h.71v.47c.36-.36.72-.54,1.06-.54.46,0,.81.22,1.06.65.38-.44.78-.66,1.19-.66.35,0,.64.13.86.38s.34.64.34,1.17v2.12h-.71v-2.13c0-.3-.06-.53-.18-.69s-.3-.24-.53-.24c-.29,0-.57.15-.82.45Z"/><path class="cls-3" d="M61.34,17.24v1.53c0,.12.04.18.12.18s.22-.06.4-.19v.43c-.16.1-.29.17-.39.21s-.2.06-.31.06c-.3,0-.48-.12-.54-.36-.3.23-.62.35-.96.35-.25,0-.46-.08-.62-.25s-.25-.37-.25-.62c0-.23.08-.43.24-.61s.39-.32.69-.42l.91-.31v-.19c0-.43-.22-.65-.65-.65-.39,0-.77.2-1.13.6v-.78c.28-.33.67-.49,1.19-.49.39,0,.7.1.93.3.08.07.15.15.21.26s.1.22.12.32.03.31.03.62ZM60.64,18.69v-1.07l-.48.18c-.24.1-.41.19-.51.29s-.15.22-.15.37.05.27.14.36.22.14.37.14c.23,0,.44-.09.63-.28Z"/><path class="cls-3" d="M64.97,15.81h.91l-1.48,1.77,1.58,1.82h-.91l-1.13-1.29-1.07,1.29h-.89l1.51-1.82-1.51-1.77h.9l1.06,1.23,1.02-1.23Z"/><path class="cls-3" d="M66.86,18.53c.13,0,.25.05.34.14s.14.2.14.34-.05.24-.14.33-.21.13-.34.13-.24-.04-.34-.13-.14-.2-.14-.33.05-.25.14-.34.2-.14.34-.14Z"/><path class="cls-3" d="M69.36,13.95h.78v5.46h-.78v-5.46Z"/><path class="cls-3" d="M73.77,13.88c.5,0,.91.26,1.24.79s.49,1.19.49,2-.16,1.5-.49,2.02-.75.78-1.27.78-.95-.25-1.27-.76-.48-1.18-.48-2.02.17-1.5.5-2.02.76-.78,1.29-.78ZM73.78,14.62h-.04c-.3,0-.54.18-.71.55s-.26.87-.26,1.5.09,1.15.26,1.52.41.55.71.55.54-.18.71-.55.26-.87.26-1.5-.08-1.14-.25-1.51-.39-.56-.68-.56Z"/><path class="cls-3" d="M77.77,13.88c.5,0,.91.26,1.24.79s.49,1.19.49,2-.16,1.5-.49,2.02-.75.78-1.27.78-.95-.25-1.27-.76-.48-1.18-.48-2.02.17-1.5.5-2.02.76-.78,1.29-.78ZM77.78,14.62h-.04c-.3,0-.54.18-.71.55s-.26.87-.26,1.5.09,1.15.26,1.52.41.55.71.55.54-.18.71-.55.26-.87.26-1.5-.08-1.14-.25-1.51-.39-.56-.68-.56Z"/><path class="cls-3" d="M81.77,13.88c.5,0,.91.26,1.24.79s.49,1.19.49,2-.16,1.5-.49,2.02-.75.78-1.27.78-.95-.25-1.27-.76-.48-1.18-.48-2.02.17-1.5.5-2.02.76-.78,1.29-.78ZM81.78,14.62h-.04c-.3,0-.54.18-.71.55s-.26.87-.26,1.5.09,1.15.26,1.52.41.55.71.55.54-.18.71-.55.26-.87.26-1.5-.08-1.14-.25-1.51-.39-.56-.68-.56Z"/><path class="cls-3" d="M86.47,13.95h.71v5.46h-.71v-5.46ZM88.81,15.81h.84l-1.53,1.76,1.85,1.84h-.95l-1.8-1.83,1.6-1.76Z"/><path class="cls-3" d="M93.25,16.8v2.61h-.71v-2c0-.4-.05-.68-.16-.83s-.29-.24-.56-.24c-.15,0-.28.03-.41.1s-.27.19-.42.36v2.61h-.71v-3.59h.71v.47c.36-.36.72-.54,1.06-.54.46,0,.81.22,1.06.65.38-.44.78-.66,1.19-.66.35,0,.64.13.86.38s.34.64.34,1.17v2.12h-.71v-2.13c0-.3-.06-.53-.18-.69s-.3-.24-.53-.24c-.29,0-.57.15-.82.45Z"/><path class="cls-3" d="M30.07,36.08l-.59-.36c-.37-.23-.64-.45-.79-.67s-.24-.47-.24-.76c0-.43.15-.78.45-1.05s.69-.4,1.16-.4.87.13,1.25.38v.89c-.39-.38-.82-.57-1.27-.57-.26,0-.46.06-.63.18s-.25.27-.25.45c0,.16.06.32.18.46.12.14.32.29.58.45l.6.35c.67.4,1,.9,1,1.52,0,.44-.15.79-.44,1.07s-.67.41-1.14.41c-.54,0-1.03-.17-1.47-.5v-.99c.42.53.91.8,1.46.8.24,0,.45-.07.61-.2.16-.14.24-.31.24-.51,0-.33-.24-.65-.72-.95Z"/><path class="cls-3" d="M36.72,32.91h.73v5.46h-.79v-4.25l-1.68,2.11h-.14l-1.7-2.11v4.25h-.78v-5.46h.74l1.81,2.24,1.8-2.24Z"/><path class="cls-3" d="M38.34,36.21h1.95v.76h-1.95v-.76Z"/><path class="cls-3" d="M42.05,35.19h.05c.34,0,.6-.07.78-.21s.27-.34.27-.61c0-.24-.09-.44-.26-.59s-.4-.23-.68-.23-.6.09-.95.27v-.75c.32-.16.66-.24,1.04-.24.5,0,.9.13,1.19.39s.44.62.44,1.08c0,.28-.06.51-.17.7-.11.19-.29.35-.54.49.21.08.37.19.47.31s.18.27.23.44c.05.17.08.35.08.55,0,.48-.16.87-.48,1.18s-.72.47-1.2.47c-.41,0-.81-.1-1.2-.3v-.85c.41.26.81.39,1.2.39.26,0,.47-.08.63-.23s.24-.36.24-.62c0-.22-.07-.41-.2-.57-.08-.09-.16-.16-.26-.2s-.3-.08-.62-.12h-.07v-.73Z"/><path class="cls-3" d="M47.3,32.91h.71v2.12c.31-.22.64-.34.98-.34.46,0,.83.17,1.12.52s.43.79.43,1.32c0,.58-.17,1.04-.52,1.38s-.81.51-1.38.51c-.23,0-.48-.02-.73-.07s-.46-.11-.61-.19v-5.26ZM48.02,35.71v1.95c.24.07.49.11.75.11.31,0,.57-.11.77-.34s.3-.51.3-.86-.09-.65-.28-.87-.43-.34-.73-.34c-.27,0-.54.12-.81.35Z"/><path class="cls-3" d="M51.35,32.91h.71v5.46h-.71v-5.46Z"/><path class="cls-3" d="M54.81,34.76c.55,0,1,.18,1.36.53s.54.8.54,1.33-.18.95-.55,1.29-.83.51-1.39.51-.99-.17-1.35-.52-.54-.78-.54-1.3.18-.96.55-1.31.82-.53,1.38-.53ZM54.77,35.4c-.34,0-.62.11-.84.34s-.33.51-.33.86.11.62.34.84.51.33.86.33.63-.11.86-.33.33-.5.33-.85-.12-.62-.35-.85-.52-.34-.88-.34Z"/><path class="cls-3" d="M60.2,37.53v.7c-.36.13-.71.2-1.05.2-.56,0-1.01-.17-1.35-.5s-.5-.78-.5-1.34.16-1.02.49-1.37.75-.52,1.29-.52c.19,0,.35.02.5.05s.33.1.54.2v.76c-.36-.23-.69-.34-1-.34s-.58.11-.79.34-.31.51-.31.86c0,.37.11.66.33.88s.52.32.9.32c.27,0,.59-.08.94-.24Z"/><path class="cls-3" d="M61.01,32.91h.71v5.46h-.71v-5.46ZM63.35,34.77h.84l-1.53,1.76,1.85,1.84h-.95l-1.8-1.83,1.6-1.76Z"/><path class="cls-3" d="M67.17,32.91h.78v5.46h-.78v-5.46Z"/><path class="cls-3" d="M69.17,32.91h.78v5.46h-.78v-5.46Z"/><path class="cls-3" d="M73.01,38.36h-1.85v-5.46h1.43c.45,0,.8.06,1.05.18s.45.29.58.5.2.46.2.74c0,.54-.28.92-.83,1.15.4.08.72.24.95.49s.35.55.35.91c0,.28-.07.53-.21.75s-.35.4-.63.54-.62.21-1.04.21ZM72.61,33.6h-.67v1.64h.52c.42,0,.71-.08.89-.24s.26-.36.26-.62c0-.52-.33-.79-1-.79ZM72.67,35.94h-.73v1.73h.77c.43,0,.72-.03.87-.1s.27-.17.37-.31.14-.29.14-.45-.05-.32-.15-.46-.24-.24-.42-.31-.46-.1-.85-.1Z"/><path class="cls-3" d="M75.45,39.31v-.14c.12-.11.2-.22.25-.34s.07-.27.08-.46c-.28-.08-.41-.25-.41-.51,0-.14.05-.26.14-.37s.21-.15.34-.15c.16,0,.29.07.39.21s.15.32.15.54c0,.29-.08.54-.25.76s-.4.37-.69.46Z"/><path class="cls-3" d="M28.57,50.2v-5.43h1.24c.64,0,1.13.16,1.49.48s.53.76.53,1.33c0,.54-.17.98-.5,1.33-.33.35-.76.52-1.28.52-.23,0-.48-.05-.76-.15v1.92h-.73ZM29.8,45.44h-.5v2.21c.22.11.45.17.69.17.33,0,.6-.12.82-.35.21-.23.32-.53.32-.89,0-.23-.05-.44-.15-.62s-.24-.31-.41-.39-.43-.12-.76-.12Z"/><path class="cls-3" d="M34.34,44.76c.55,0,1,.18,1.36.53s.54.8.54,1.33-.18.95-.55,1.29-.83.51-1.39.51-.99-.17-1.35-.52-.54-.78-.54-1.3.18-.96.55-1.31.82-.53,1.38-.53ZM34.3,45.4c-.34,0-.62.11-.84.34s-.33.51-.33.86.11.62.34.84.51.33.86.33.63-.11.86-.33.33-.5.33-.85-.12-.62-.35-.85-.52-.34-.88-.34Z"/><path class="cls-3" d="M37.79,44.77v.82l.04-.06c.34-.55.69-.83,1.03-.83.27,0,.55.14.84.41l-.38.62c-.25-.23-.48-.35-.69-.35-.23,0-.43.11-.6.33s-.25.48-.25.78v1.88h-.71v-3.59h.71Z"/><path class="cls-3" d="M39.85,45.34l1.34-1.31v.74h1.14v.64h-1.14v1.76c0,.41.17.62.51.62.26,0,.52-.08.81-.25v.66c-.27.15-.57.23-.89.23s-.6-.09-.81-.29c-.07-.06-.12-.12-.17-.19s-.08-.17-.11-.28-.04-.34-.04-.66v-1.59h-.62v-.07Z"/><path class="cls-3" d="M46.09,46.63h-2.53c.02.34.13.62.35.82s.49.3.82.3c.47,0,.9-.15,1.3-.44v.7c-.22.15-.44.25-.65.31s-.47.09-.76.09c-.4,0-.72-.08-.96-.25s-.44-.38-.59-.66-.22-.6-.22-.96c0-.55.15-.99.46-1.33s.71-.51,1.21-.51.86.17,1.14.5.43.78.43,1.34v.09ZM43.57,46.2h1.81c-.02-.28-.1-.5-.25-.66s-.35-.23-.61-.23-.46.08-.63.23-.27.37-.32.66ZM45.31,42.82l-.88,1.17h-.44l.53-1.17h.79Z"/><path class="cls-3" d="M49.92,46.63h-2.53c.02.34.13.62.35.82s.49.3.82.3c.47,0,.9-.15,1.3-.44v.7c-.22.15-.44.25-.65.31s-.47.09-.76.09c-.4,0-.72-.08-.96-.25s-.44-.38-.59-.66-.22-.6-.22-.96c0-.55.15-.99.46-1.33s.71-.51,1.21-.51.86.17,1.14.5.43.78.43,1.34v.09ZM47.41,46.2h1.81c-.02-.28-.1-.5-.25-.66s-.35-.23-.61-.23-.46.08-.63.23-.27.37-.32.66Z"/><path class="cls-3" d="M55.85,45.76v2.61h-.71v-2c0-.4-.05-.68-.16-.83s-.29-.24-.56-.24c-.15,0-.28.03-.41.1s-.27.19-.42.36v2.61h-.71v-3.59h.71v.47c.36-.36.72-.54,1.06-.54.46,0,.81.22,1.06.65.38-.44.78-.66,1.19-.66.35,0,.64.13.86.38s.34.64.34,1.17v2.12h-.71v-2.13c0-.3-.06-.53-.18-.69s-.3-.24-.53-.24c-.29,0-.57.15-.82.45Z"/><path class="cls-3" d="M61.34,46.2v1.53c0,.12.04.18.12.18s.22-.06.4-.19v.43c-.16.1-.29.17-.39.21s-.2.06-.31.06c-.3,0-.48-.12-.54-.36-.3.23-.62.35-.96.35-.25,0-.46-.08-.62-.25s-.25-.37-.25-.62c0-.23.08-.43.24-.61s.39-.32.69-.42l.91-.31v-.19c0-.43-.22-.65-.65-.65-.39,0-.77.2-1.13.6v-.78c.28-.33.67-.49,1.19-.49.39,0,.7.1.93.3.08.07.15.15.21.26s.1.22.12.32.03.31.03.62ZM60.64,47.65v-1.07l-.48.18c-.24.1-.41.19-.51.29s-.15.22-.15.37.05.27.14.36.22.14.37.14c.23,0,.44-.09.63-.28Z"/><path class="cls-3" d="M64.97,44.77h.91l-1.48,1.77,1.58,1.82h-.91l-1.13-1.29-1.07,1.29h-.89l1.51-1.82-1.51-1.77h.9l1.06,1.23,1.02-1.23Z"/><path class="cls-3" d="M66.86,47.49c.13,0,.25.05.34.14s.14.2.14.34-.05.24-.14.33-.21.13-.34.13-.24-.04-.34-.13-.14-.2-.14-.33.05-.25.14-.34.2-.14.34-.14Z"/><path class="cls-3" d="M68.13,42.91h3.53l-2.47,5.52-.7-.29,2-4.48h-2.36v-.75Z"/><path class="cls-3" d="M73.77,42.84c.5,0,.91.26,1.24.79s.49,1.19.49,2-.16,1.5-.49,2.02-.75.78-1.27.78-.95-.25-1.27-.76-.48-1.18-.48-2.02.17-1.5.5-2.02.76-.78,1.29-.78ZM73.78,43.58h-.04c-.3,0-.54.18-.71.55s-.26.87-.26,1.5.09,1.15.26,1.52.41.55.71.55.54-.18.71-.55.26-.87.26-1.5-.08-1.14-.25-1.51-.39-.56-.68-.56Z"/><path class="cls-3" d="M77.77,42.84c.5,0,.91.26,1.24.79s.49,1.19.49,2-.16,1.5-.49,2.02-.75.78-1.27.78-.95-.25-1.27-.76-.48-1.18-.48-2.02.17-1.5.5-2.02.76-.78,1.29-.78ZM77.78,43.58h-.04c-.3,0-.54.18-.71.55s-.26.87-.26,1.5.09,1.15.26,1.52.41.55.71.55.54-.18.71-.55.26-.87.26-1.5-.08-1.14-.25-1.51-.39-.56-.68-.56Z"/><path class="cls-3" d="M82.47,42.91h.71v5.46h-.71v-5.46ZM84.81,44.77h.84l-1.53,1.76,1.85,1.84h-.95l-1.8-1.83,1.6-1.76Z"/><path class="cls-3" d="M89.25,45.76v2.61h-.71v-2c0-.4-.05-.68-.16-.83s-.29-.24-.56-.24c-.15,0-.28.03-.41.1s-.27.19-.42.36v2.61h-.71v-3.59h.71v.47c.36-.36.72-.54,1.06-.54.46,0,.81.22,1.06.65.38-.44.78-.66,1.19-.66.35,0,.64.13.86.38s.34.64.34,1.17v2.12h-.71v-2.13c0-.3-.06-.53-.18-.69s-.3-.24-.53-.24c-.29,0-.57.15-.82.45Z"/></g></svg>