<?xml version="1.0" encoding="UTF-8"?><svg id="Calque_2" xmlns="http://www.w3.org/2000/svg" viewBox="0 0 110.57 28.01"><defs><style>.cls-1{fill:#7ba7db;stroke-linecap:round;stroke-linejoin:round;stroke-width:.75px;}.cls-1,.cls-2{stroke:#fff;}.cls-3{fill:#fff;}.cls-4{stroke:#000;stroke-width:2px;}.cls-4,.cls-2{fill:none;stroke-linecap:square;stroke-linejoin:bevel;}.cls-5{fill:#d78873;fill-rule:evenodd;}</style></defs><g id="légende"><polygon class="cls-1" points="4.74 9.1 3.85 5.62 .38 4.74 3.85 3.85 4.74 .38 5.62 3.85 9.1 4.74 5.62 5.62 4.74 9.1"/><path class="cls-3" d="M21.34,7.53l-.78.76c-.24-.01-.5-.06-.77-.13-.27-.07-.54-.18-.81-.31-.27-.13-.64-.35-1.1-.67-.66-.12-1.21-.43-1.64-.95s-.65-1.1-.65-1.77c0-.82.28-1.49.83-2.02s1.26-.8,2.1-.8,1.54.26,2.1.79.84,1.2.84,2c0,.67-.21,1.27-.63,1.78-.42.51-.97.83-1.64.96l.21.08c.64.25,1.11.37,1.39.37.16,0,.34-.04.55-.11ZM18.53,2.39c-.61,0-1.12.2-1.52.59-.4.4-.6.89-.6,1.5s.2,1.07.6,1.46.91.58,1.52.58,1.11-.2,1.52-.6.62-.89.62-1.47-.2-1.09-.6-1.48-.91-.59-1.53-.59Z"/><path class="cls-3" d="M24.62,7.19v-.46c-.15.17-.32.29-.52.39s-.39.14-.58.14c-.23,0-.44-.06-.63-.17s-.34-.27-.43-.46-.15-.52-.15-.97v-2.06h.71v2.05c0,.38.05.64.16.79s.3.22.57.22c.34,0,.63-.17.86-.5v-2.57h.71v3.59h-.71Z"/><path class="cls-3" d="M28.59,5.03v1.53c0,.12.04.18.12.18s.22-.06.4-.19v.43c-.16.1-.29.17-.39.21s-.2.06-.31.06c-.3,0-.48-.12-.54-.36-.3.23-.62.35-.96.35-.25,0-.46-.08-.62-.25s-.25-.37-.25-.62c0-.23.08-.43.24-.61s.39-.32.69-.42l.91-.31v-.19c0-.43-.22-.65-.65-.65-.39,0-.77.2-1.13.6v-.78c.28-.33.67-.49,1.19-.49.39,0,.7.1.93.3.08.07.15.15.21.26s.1.22.12.32.03.31.03.62ZM27.89,6.47v-1.07l-.48.18c-.24.1-.41.19-.51.29s-.15.22-.15.37.05.27.14.36.22.14.37.14c.23,0,.44-.09.63-.28Z"/><path class="cls-3" d="M30.51,3.59v.82l.04-.06c.34-.55.69-.83,1.03-.83.27,0,.55.14.84.41l-.38.62c-.25-.23-.48-.35-.69-.35-.23,0-.43.11-.6.33s-.25.48-.25.78v1.88h-.71v-3.59h.71Z"/><path class="cls-3" d="M32.57,4.16l1.34-1.31v.74h1.14v.64h-1.14v1.76c0,.41.17.62.51.62.26,0,.52-.08.81-.25v.66c-.27.15-.57.23-.89.23s-.6-.09-.81-.29c-.07-.06-.12-.12-.17-.19s-.08-.17-.11-.28-.04-.34-.04-.66v-1.59h-.62v-.07Z"/><path class="cls-3" d="M36.1,2.08c.12,0,.22.04.3.12s.12.18.12.3-.04.21-.12.3-.18.12-.3.12c-.11,0-.21-.04-.29-.13s-.12-.18-.12-.29.04-.21.12-.29.18-.13.29-.13ZM35.75,3.59h.71v3.59h-.71v-3.59Z"/><path class="cls-3" d="M40.55,5.45h-2.53c.02.34.13.62.35.82s.49.3.82.3c.47,0,.9-.15,1.3-.44v.7c-.22.15-.44.25-.65.31s-.47.09-.76.09c-.4,0-.72-.08-.96-.25s-.44-.38-.59-.66-.22-.6-.22-.96c0-.55.15-.99.46-1.33s.71-.51,1.21-.51.86.17,1.14.5.43.78.43,1.34v.09ZM38.04,5.03h1.81c-.02-.28-.1-.5-.25-.66s-.35-.23-.61-.23-.46.08-.63.23-.27.37-.32.66Z"/><path class="cls-3" d="M42.08,3.59v.82l.04-.06c.34-.55.69-.83,1.03-.83.27,0,.55.14.84.41l-.38.62c-.25-.23-.48-.35-.69-.35-.23,0-.43.11-.6.33s-.25.48-.25.78v1.88h-.71v-3.59h.71Z"/><path class="cls-3" d="M46.53,4.83c0-.38.14-.69.42-.91s.66-.33,1.15-.33h1.48v.55h-.73c.14.14.24.27.29.39s.08.25.08.4c0,.19-.05.37-.16.55s-.24.32-.41.42-.44.17-.83.23c-.27.04-.4.13-.4.28,0,.08.05.15.15.21s.28.11.54.17c.44.1.72.17.85.23s.24.13.34.23c.17.17.26.39.26.65,0,.34-.15.61-.46.82s-.71.3-1.22.3-.92-.1-1.23-.31-.46-.48-.46-.82c0-.49.3-.8.9-.94-.24-.15-.36-.31-.36-.46,0-.11.05-.22.15-.31s.24-.16.42-.21c-.53-.23-.79-.61-.79-1.14ZM47.7,7.35c-.24,0-.44.05-.59.15s-.23.23-.23.39c0,.37.33.55,1,.55.31,0,.56-.05.73-.14s.26-.22.26-.39-.11-.3-.33-.41-.5-.16-.85-.16ZM47.87,4.21c-.19,0-.36.07-.49.2s-.2.29-.2.47.07.34.2.46.3.18.5.18.37-.06.5-.19.2-.28.2-.46-.07-.34-.2-.47-.3-.19-.51-.19Z"/><path class="cls-3" d="M53.19,5.45h-2.53c.02.34.13.62.35.82s.49.3.82.3c.47,0,.9-.15,1.3-.44v.7c-.22.15-.44.25-.65.31s-.47.09-.76.09c-.4,0-.72-.08-.96-.25s-.44-.38-.59-.66-.22-.6-.22-.96c0-.55.15-.99.46-1.33s.71-.51,1.21-.51.86.17,1.14.5.43.78.43,1.34v.09ZM50.68,5.03h1.81c-.02-.28-.1-.5-.25-.66s-.35-.23-.61-.23-.46.08-.63.23-.27.37-.32.66ZM52.42,1.64l-.88,1.17h-.44l.53-1.17h.79Z"/><path class="cls-3" d="M54.67,3.59v.46c.32-.35.68-.53,1.08-.53.22,0,.43.06.62.17s.34.27.44.48.15.52.15.96v2.05h-.71v-2.05c0-.37-.06-.63-.17-.79s-.3-.24-.56-.24c-.34,0-.62.17-.86.5v2.57h-.73v-3.59h.73Z"/><path class="cls-3" d="M61.02,5.45h-2.53c.02.34.13.62.35.82s.49.3.82.3c.47,0,.9-.15,1.3-.44v.7c-.22.15-.44.25-.65.31s-.47.09-.76.09c-.4,0-.72-.08-.96-.25s-.44-.38-.59-.66-.22-.6-.22-.96c0-.55.15-.99.46-1.33s.71-.51,1.21-.51.86.17,1.14.5.43.78.43,1.34v.09ZM58.51,5.03h1.81c-.02-.28-.1-.5-.25-.66s-.35-.23-.61-.23-.46.08-.63.23-.27.37-.32.66ZM60.25,1.64l-.88,1.17h-.44l.53-1.17h.79Z"/><path class="cls-3" d="M62.55,3.59v.82l.04-.06c.34-.55.69-.83,1.03-.83.27,0,.55.14.84.41l-.38.62c-.25-.23-.48-.35-.69-.35-.23,0-.43.11-.6.33s-.25.48-.25.78v1.88h-.71v-3.59h.71Z"/><path class="cls-3" d="M67.22,5.03v1.53c0,.12.04.18.12.18s.22-.06.4-.19v.43c-.16.1-.29.17-.39.21s-.2.06-.31.06c-.3,0-.48-.12-.54-.36-.3.23-.62.35-.96.35-.25,0-.46-.08-.62-.25s-.25-.37-.25-.62c0-.23.08-.43.24-.61s.39-.32.69-.42l.91-.31v-.19c0-.43-.22-.65-.65-.65-.39,0-.77.2-1.13.6v-.78c.28-.33.67-.49,1.19-.49.39,0,.7.1.93.3.08.07.15.15.21.26s.1.22.12.32.03.31.03.62ZM66.52,6.47v-1.07l-.48.18c-.24.1-.41.19-.51.29s-.15.22-.15.37.05.27.14.36.22.14.37.14c.23,0,.44-.09.63-.28Z"/><path class="cls-3" d="M68.39,1.73h.71v5.46h-.71V1.73Z"/><path class="cls-3" d="M74.75,1.73h.71v5.46h-1.52c-.53,0-.96-.17-1.27-.5s-.47-.79-.47-1.35c0-.53.17-.96.5-1.3s.76-.51,1.27-.51c.24,0,.5.05.78.15v-1.94ZM74.75,6.58v-2.28c-.22-.11-.45-.17-.67-.17-.35,0-.64.12-.85.35s-.31.54-.31.94c0,.37.09.66.27.86.11.12.23.2.35.24s.34.06.66.06h.55Z"/><path class="cls-3" d="M79.49,5.45h-2.53c.02.34.13.62.35.82s.49.3.82.3c.47,0,.9-.15,1.3-.44v.7c-.22.15-.44.25-.65.31s-.47.09-.76.09c-.4,0-.72-.08-.96-.25s-.44-.38-.59-.66-.22-.6-.22-.96c0-.55.15-.99.46-1.33s.71-.51,1.21-.51.86.17,1.14.5.43.78.43,1.34v.09ZM76.98,5.03h1.81c-.02-.28-.1-.5-.25-.66s-.35-.23-.61-.23-.46.08-.63.23-.27.37-.32.66Z"/><path class="cls-3" d="M82.5,1.73h.71v5.46h-.71V1.73Z"/><path class="cls-3" d="M84.12,3.64v-.15c.12-.11.2-.23.25-.34s.07-.27.08-.46c-.28-.09-.41-.26-.41-.51,0-.14.05-.27.14-.37s.21-.15.34-.15c.16,0,.29.07.39.21s.15.32.15.54c0,.29-.08.55-.25.77s-.4.38-.69.47Z"/><path class="cls-3" d="M87.83,1.7h.55l2.45,5.49h-.8l-.73-1.62h-2.33l-.68,1.62h-.8l2.34-5.49ZM88.98,4.87l-.88-1.98-.82,1.98h1.7Z"/><path class="cls-3" d="M91.34,1.73h.71v5.46h-.71V1.73Z"/><path class="cls-3" d="M93.1,1.73h.71v5.46h-.71V1.73Z"/><path class="cls-3" d="M95.2,2.08c.12,0,.22.04.3.12s.12.18.12.3-.04.21-.12.3-.18.12-.3.12c-.11,0-.21-.04-.29-.13s-.12-.18-.12-.29.04-.21.12-.29.18-.13.29-.13ZM94.85,3.59h.71v3.59h-.71v-3.59Z"/><path class="cls-3" d="M98.85,5.03v1.53c0,.12.04.18.12.18s.22-.06.4-.19v.43c-.16.1-.29.17-.39.21s-.2.06-.31.06c-.3,0-.48-.12-.54-.36-.3.23-.62.35-.96.35-.25,0-.46-.08-.62-.25s-.25-.37-.25-.62c0-.23.08-.43.24-.61s.39-.32.69-.42l.91-.31v-.19c0-.43-.22-.65-.65-.65-.39,0-.77.2-1.13.6v-.78c.28-.33.67-.49,1.19-.49.39,0,.7.1.93.3.08.07.15.15.21.26s.1.22.12.32.03.31.03.62ZM98.15,6.47v-1.07l-.48.18c-.24.1-.41.19-.51.29s-.15.22-.15.37.05.27.14.36.22.14.37.14c.23,0,.44-.09.63-.28Z"/><path class="cls-3" d="M100.71,3.59v.46c.32-.35.68-.53,1.08-.53.22,0,.43.06.62.17s.34.27.44.48.15.52.15.96v2.05h-.71v-2.05c0-.37-.06-.63-.17-.79s-.3-.24-.56-.24c-.34,0-.62.17-.86.5v2.57h-.73v-3.59h.73Z"/><path class="cls-3" d="M106.7,6.35v.7c-.36.13-.71.2-1.05.2-.56,0-1.01-.17-1.35-.5s-.5-.78-.5-1.34.16-1.02.49-1.37.75-.52,1.29-.52c.19,0,.35.02.5.05s.33.1.54.2v.76c-.36-.23-.69-.34-1-.34s-.58.11-.79.34-.31.51-.31.86c0,.37.11.66.33.88s.52.32.9.32c.27,0,.59-.08.94-.24Z"/><path class="cls-3" d="M110.57,5.45h-2.53c.02.34.13.62.35.82s.49.3.82.3c.47,0,.9-.15,1.3-.44v.7c-.22.15-.44.25-.65.31s-.47.09-.76.09c-.4,0-.72-.08-.96-.25s-.44-.38-.59-.66-.22-.6-.22-.96c0-.55.15-.99.46-1.33s.71-.51,1.21-.51.86.17,1.14.5.43.78.43,1.34v.09ZM108.06,5.03h1.81c-.02-.28-.1-.5-.25-.66s-.35-.23-.61-.23-.46.08-.63.23-.27.37-.32.66Z"/><g vector-effect="non-scaling-stroke"><path class="cls-4" d="M7.97,20.78c0,1.79-1.45,3.23-3.23,3.23s-3.23-1.45-3.23-3.23,1.45-3.23,3.23-3.23,3.23,1.45,3.23,3.23"/><path class="cls-5" d="M7.97,20.78c0,1.79-1.45,3.23-3.23,3.23s-3.23-1.45-3.23-3.23,1.45-3.23,3.23-3.23,3.23,1.45,3.23,3.23"/><path class="cls-2" d="M7.97,20.78c0,1.79-1.45,3.23-3.23,3.23s-3.23-1.45-3.23-3.23,1.45-3.23,3.23-3.23,3.23,1.45,3.23,3.23"/></g><path class="cls-3" d="M20.54,17.08v.86c-.57.31-1.23.47-1.98.47-.61,0-1.13-.12-1.55-.37s-.76-.58-1.01-1.01-.37-.89-.37-1.39c0-.79.28-1.46.85-2s1.27-.81,2.1-.81c.57,0,1.21.15,1.91.45v.84c-.64-.36-1.26-.55-1.87-.55s-1.14.2-1.56.59-.62.89-.62,1.48.2,1.09.61,1.48.93.58,1.56.58,1.31-.2,1.94-.61Z"/><path class="cls-3" d="M23.13,14.75c.55,0,1,.18,1.36.53s.54.8.54,1.33-.18.95-.55,1.29-.83.51-1.39.51-.99-.17-1.35-.52-.54-.78-.54-1.3.18-.96.55-1.31.82-.53,1.38-.53ZM23.09,15.39c-.34,0-.62.11-.84.34s-.33.51-.33.86.11.62.34.84.51.33.86.33.63-.11.86-.33.33-.5.33-.85-.12-.62-.35-.85-.52-.34-.88-.34Z"/><path class="cls-3" d="M28.77,15.74v2.61h-.71v-2c0-.4-.05-.68-.16-.83s-.29-.24-.56-.24c-.15,0-.28.03-.41.1s-.27.19-.42.36v2.61h-.71v-3.59h.71v.47c.36-.36.72-.54,1.06-.54.46,0,.81.22,1.06.65.38-.44.78-.66,1.19-.66.35,0,.64.13.86.38s.34.64.34,1.17v2.12h-.71v-2.13c0-.3-.06-.53-.18-.69s-.3-.24-.53-.24c-.29,0-.57.15-.82.45Z"/><path class="cls-3" d="M34.94,15.74v2.61h-.71v-2c0-.4-.05-.68-.16-.83s-.29-.24-.56-.24c-.15,0-.28.03-.41.1s-.27.19-.42.36v2.61h-.71v-3.59h.71v.47c.36-.36.72-.54,1.06-.54.46,0,.81.22,1.06.65.38-.44.78-.66,1.19-.66.35,0,.64.13.86.38s.34.64.34,1.17v2.12h-.71v-2.13c0-.3-.06-.53-.18-.69s-.3-.24-.53-.24c-.29,0-.57.15-.82.45Z"/><path class="cls-3" d="M40.42,16.19v1.53c0,.12.04.18.12.18s.22-.06.4-.19v.43c-.16.1-.29.17-.39.21s-.2.06-.31.06c-.3,0-.48-.12-.54-.36-.3.23-.62.35-.96.35-.25,0-.46-.08-.62-.25s-.25-.37-.25-.62c0-.23.08-.43.24-.61s.39-.32.69-.42l.91-.31v-.19c0-.43-.22-.65-.65-.65-.39,0-.77.2-1.13.6v-.78c.28-.33.67-.49,1.19-.49.39,0,.7.1.93.3.08.07.15.15.21.26s.1.22.12.32.03.31.03.62ZM39.72,17.64v-1.07l-.48.18c-.24.1-.41.19-.51.29s-.15.22-.15.37.05.27.14.36.22.14.37.14c.23,0,.44-.09.63-.28Z"/><path class="cls-3" d="M42.28,14.75v.46c.32-.35.68-.53,1.08-.53.22,0,.43.06.62.17s.34.27.44.48.15.52.15.96v2.05h-.71v-2.05c0-.37-.06-.63-.17-.79s-.3-.24-.56-.24c-.34,0-.62.17-.86.5v2.57h-.73v-3.59h.73Z"/><path class="cls-3" d="M47.97,12.89h.71v5.46h-1.52c-.53,0-.96-.17-1.27-.5s-.47-.79-.47-1.35c0-.53.17-.96.5-1.3s.76-.51,1.27-.51c.24,0,.5.05.78.15v-1.94ZM47.97,17.74v-2.28c-.22-.11-.45-.17-.67-.17-.35,0-.64.12-.85.35s-.31.54-.31.94c0,.37.09.66.27.86.11.12.23.2.35.24s.34.06.66.06h.55Z"/><path class="cls-3" d="M52.71,16.61h-2.53c.02.34.13.62.35.82s.49.3.82.3c.47,0,.9-.15,1.3-.44v.7c-.22.15-.44.25-.65.31s-.47.09-.76.09c-.4,0-.72-.08-.96-.25s-.44-.38-.59-.66-.22-.6-.22-.96c0-.55.15-.99.46-1.33s.71-.51,1.21-.51.86.17,1.14.5.43.78.43,1.34v.09ZM50.2,16.19h1.81c-.02-.28-.1-.5-.25-.66s-.35-.23-.61-.23-.46.08-.63.23-.27.37-.32.66Z"/><path class="cls-3" d="M56.43,15.74v2.61h-.71v-2c0-.4-.05-.68-.16-.83s-.29-.24-.56-.24c-.15,0-.28.03-.41.1s-.27.19-.42.36v2.61h-.71v-3.59h.71v.47c.36-.36.72-.54,1.06-.54.46,0,.81.22,1.06.65.38-.44.78-.66,1.19-.66.35,0,.64.13.86.38s.34.64.34,1.17v2.12h-.71v-2.13c0-.3-.06-.53-.18-.69s-.3-.24-.53-.24c-.29,0-.57.15-.82.45Z"/><path class="cls-3" d="M62.71,16.61h-2.53c.02.34.13.62.35.82s.49.3.82.3c.47,0,.9-.15,1.3-.44v.7c-.22.15-.44.25-.65.31s-.47.09-.76.09c-.4,0-.72-.08-.96-.25s-.44-.38-.59-.66-.22-.6-.22-.96c0-.55.15-.99.46-1.33s.71-.51,1.21-.51.86.17,1.14.5.43.78.43,1.34v.09ZM60.2,16.19h1.81c-.02-.28-.1-.5-.25-.66s-.35-.23-.61-.23-.46.08-.63.23-.27.37-.32.66Z"/><path class="cls-3" d="M64.19,14.75v.46c.32-.35.68-.53,1.08-.53.22,0,.43.06.62.17s.34.27.44.48.15.52.15.96v2.05h-.71v-2.05c0-.37-.06-.63-.17-.79s-.3-.24-.56-.24c-.34,0-.62.17-.86.5v2.57h-.73v-3.59h.73Z"/><path class="cls-3" d="M66.98,15.33l1.34-1.31v.74h1.14v.64h-1.14v1.76c0,.41.17.62.51.62.26,0,.52-.08.81-.25v.66c-.27.15-.57.23-.89.23s-.6-.09-.81-.29c-.07-.06-.12-.12-.17-.19s-.08-.17-.11-.28-.04-.34-.04-.66v-1.59h-.62v-.07Z"/><path class="cls-3" d="M74.77,12.89h.71v5.46h-1.52c-.53,0-.96-.17-1.27-.5s-.47-.79-.47-1.35c0-.53.17-.96.5-1.3s.76-.51,1.27-.51c.24,0,.5.05.78.15v-1.94ZM74.77,17.74v-2.28c-.22-.11-.45-.17-.67-.17-.35,0-.64.12-.85.35s-.31.54-.31.94c0,.37.09.66.27.86.11.12.23.2.35.24s.34.06.66.06h.55Z"/><path class="cls-3" d="M79.51,16.61h-2.53c.02.34.13.62.35.82s.49.3.82.3c.47,0,.9-.15,1.3-.44v.7c-.22.15-.44.25-.65.31s-.47.09-.76.09c-.4,0-.72-.08-.96-.25s-.44-.38-.59-.66-.22-.6-.22-.96c0-.55.15-.99.46-1.33s.71-.51,1.21-.51.86.17,1.14.5.43.78.43,1.34v.09ZM77,16.19h1.81c-.02-.28-.1-.5-.25-.66s-.35-.23-.61-.23-.46.08-.63.23-.27.37-.32.66Z"/><path class="cls-3" d="M80.1,18.09v-.77c.2.14.41.25.62.34s.39.13.53.13.28-.04.38-.11.16-.16.16-.26-.03-.19-.1-.26-.22-.17-.45-.3c-.46-.25-.76-.47-.9-.65s-.21-.38-.21-.59c0-.28.11-.5.32-.68s.49-.26.83-.26.71.1,1.08.3v.7c-.42-.25-.77-.38-1.04-.38-.14,0-.25.03-.33.09s-.13.14-.13.23c0,.08.04.16.12.24.08.08.21.17.4.27l.25.14c.6.34.9.71.9,1.12,0,.29-.12.54-.35.72s-.53.28-.89.28c-.21,0-.4-.02-.57-.07s-.38-.13-.63-.25Z"/><path class="cls-3" d="M85.66,14.75v-.21c0-.58.12-1.01.37-1.29s.54-.43.88-.43c.15,0,.32.02.53.07v.7c-.11-.04-.22-.06-.33-.06-.28,0-.47.07-.58.22s-.16.41-.16.79v.21h.64v.64h-.64v2.95h-.71v-2.95h-.52v-.64h.52Z"/><path class="cls-3" d="M89.22,14.75c.55,0,1,.18,1.36.53s.54.8.54,1.33-.18.95-.55,1.29-.83.51-1.39.51-.99-.17-1.35-.52-.54-.78-.54-1.3.18-.96.55-1.31.82-.53,1.38-.53ZM89.18,15.39c-.34,0-.62.11-.84.34s-.33.51-.33.86.11.62.34.84.51.33.86.33.63-.11.86-.33.33-.5.33-.85-.12-.62-.35-.85-.52-.34-.88-.34Z"/><path class="cls-3" d="M92.68,14.75v.82l.04-.06c.34-.55.69-.83,1.03-.83.27,0,.55.14.84.41l-.38.62c-.25-.23-.48-.35-.69-.35-.23,0-.43.11-.6.33s-.25.48-.25.78v1.88h-.71v-3.59h.71Z"/><path class="cls-3" d="M97.58,17.51v.7c-.36.13-.71.2-1.05.2-.56,0-1.01-.17-1.35-.5s-.5-.78-.5-1.34.16-1.02.49-1.37.75-.52,1.29-.52c.19,0,.35.02.5.05s.33.1.54.2v.76c-.36-.23-.69-.34-1-.34s-.58.11-.79.34-.31.51-.31.86c0,.37.11.66.33.88s.52.32.9.32c.27,0,.59-.08.94-.24Z"/><path class="cls-3" d="M101.45,16.61h-2.53c.02.34.13.62.35.82s.49.3.82.3c.47,0,.9-.15,1.3-.44v.7c-.22.15-.44.25-.65.31s-.47.09-.76.09c-.4,0-.72-.08-.96-.25s-.44-.38-.59-.66-.22-.6-.22-.96c0-.55.15-.99.46-1.33s.71-.51,1.21-.51.86.17,1.14.5.43.78.43,1.34v.09ZM98.94,16.19h1.81c-.02-.28-.1-.5-.25-.66s-.35-.23-.61-.23-.46.08-.63.23-.27.37-.32.66Z"/><path class="cls-3" d="M102.04,18.09v-.77c.2.14.41.25.62.34s.39.13.53.13.28-.04.38-.11.16-.16.16-.26-.03-.19-.1-.26-.22-.17-.45-.3c-.46-.25-.76-.47-.9-.65s-.21-.38-.21-.59c0-.28.11-.5.32-.68s.49-.26.83-.26.71.1,1.08.3v.7c-.42-.25-.77-.38-1.04-.38-.14,0-.25.03-.33.09s-.13.14-.13.23c0,.08.04.16.12.24.08.08.21.17.4.27l.25.14c.6.34.9.71.9,1.12,0,.29-.12.54-.35.72s-.53.28-.89.28c-.21,0-.4-.02-.57-.07s-.38-.13-.63-.25Z"/><path class="cls-3" d="M16.11,22.84c.12,0,.22.04.3.12s.12.18.12.3-.04.21-.12.3-.18.12-.3.12c-.11,0-.21-.04-.29-.13s-.12-.18-.12-.29.04-.21.12-.29.18-.13.29-.13ZM15.76,24.35h.71v3.59h-.71v-3.59Z"/><path class="cls-3" d="M18.21,24.35v.46c.32-.35.68-.53,1.08-.53.22,0,.43.06.62.17s.34.27.44.48.15.52.15.96v2.05h-.71v-2.05c0-.37-.06-.63-.17-.79s-.3-.24-.56-.24c-.34,0-.62.17-.86.5v2.57h-.73v-3.59h.73Z"/><path class="cls-3" d="M20.99,24.92l1.34-1.31v.74h1.14v.64h-1.14v1.76c0,.41.17.62.51.62.26,0,.52-.08.81-.25v.66c-.27.15-.57.23-.89.23s-.6-.09-.81-.29c-.07-.06-.12-.12-.17-.19s-.08-.17-.11-.28-.04-.34-.04-.66v-1.59h-.62v-.07Z"/><path class="cls-3" d="M27.22,26.21h-2.53c.02.34.13.62.35.82s.49.3.82.3c.47,0,.9-.15,1.3-.44v.7c-.22.15-.44.25-.65.31s-.47.09-.76.09c-.4,0-.72-.08-.96-.25s-.44-.38-.59-.66-.22-.6-.22-.96c0-.55.15-.99.46-1.33s.71-.51,1.21-.51.86.17,1.14.5.43.78.43,1.34v.09ZM24.71,25.79h1.81c-.02-.28-.1-.5-.25-.66s-.35-.23-.61-.23-.46.08-.63.23-.27.37-.32.66Z"/><path class="cls-3" d="M28.76,24.35v.82l.04-.06c.34-.55.69-.83,1.03-.83.27,0,.55.14.84.41l-.38.62c-.25-.23-.48-.35-.69-.35-.23,0-.43.11-.6.33s-.25.48-.25.78v1.88h-.71v-3.59h.71Z"/><path class="cls-3" d="M33.42,25.79v1.53c0,.12.04.18.12.18s.22-.06.4-.19v.43c-.16.1-.29.17-.39.21s-.2.06-.31.06c-.3,0-.48-.12-.54-.36-.3.23-.62.35-.96.35-.25,0-.46-.08-.62-.25s-.25-.37-.25-.62c0-.23.08-.43.24-.61s.39-.32.69-.42l.91-.31v-.19c0-.43-.22-.65-.65-.65-.39,0-.77.2-1.13.6v-.78c.28-.33.67-.49,1.19-.49.39,0,.7.1.93.3.08.07.15.15.21.26s.1.22.12.32.03.31.03.62ZM32.72,27.24v-1.07l-.48.18c-.24.1-.41.19-.51.29s-.15.22-.15.37.05.27.14.36.22.14.37.14c.23,0,.44-.09.63-.28Z"/><path class="cls-3" d="M34.59,22.49h.71v5.46h-.71v-5.46Z"/><path class="cls-3" d="M36.35,22.49h.71v5.46h-.71v-5.46Z"/><path class="cls-3" d="M38.45,22.84c.12,0,.22.04.3.12s.12.18.12.3-.04.21-.12.3-.18.12-.3.12c-.11,0-.21-.04-.29-.13s-.12-.18-.12-.29.04-.21.12-.29.18-.13.29-.13ZM38.1,24.35h.71v3.59h-.71v-3.59Z"/><path class="cls-3" d="M42.9,26.21h-2.53c.02.34.13.62.35.82s.49.3.82.3c.47,0,.9-.15,1.3-.44v.7c-.22.15-.44.25-.65.31s-.47.09-.76.09c-.4,0-.72-.08-.96-.25s-.44-.38-.59-.66-.22-.6-.22-.96c0-.55.15-.99.46-1.33s.71-.51,1.21-.51.86.17,1.14.5.43.78.43,1.34v.09ZM40.39,25.79h1.81c-.02-.28-.1-.5-.25-.66s-.35-.23-.61-.23-.46.08-.63.23-.27.37-.32.66ZM42.13,22.41l-.88,1.17h-.44l.53-1.17h.79Z"/><path class="cls-3" d="M46.73,26.21h-2.53c.02.34.13.62.35.82s.49.3.82.3c.47,0,.9-.15,1.3-.44v.7c-.22.15-.44.25-.65.31s-.47.09-.76.09c-.4,0-.72-.08-.96-.25s-.44-.38-.59-.66-.22-.6-.22-.96c0-.55.15-.99.46-1.33s.71-.51,1.21-.51.86.17,1.14.5.43.78.43,1.34v.09ZM44.22,25.79h1.81c-.02-.28-.1-.5-.25-.66s-.35-.23-.61-.23-.46.08-.63.23-.27.37-.32.66Z"/><path class="cls-3" d="M47.33,27.69v-.77c.2.14.41.25.62.34s.39.13.53.13.28-.04.38-.11.16-.16.16-.26-.03-.19-.1-.26-.22-.17-.45-.3c-.46-.25-.76-.47-.9-.65s-.21-.38-.21-.59c0-.28.11-.5.32-.68s.49-.26.83-.26.71.1,1.08.3v.7c-.42-.25-.77-.38-1.04-.38-.14,0-.25.03-.33.09s-.13.14-.13.23c0,.08.04.16.12.24.08.08.21.17.4.27l.25.14c.6.34.9.71.9,1.12,0,.29-.12.54-.35.72s-.53.28-.89.28c-.21,0-.4-.02-.57-.07s-.38-.13-.63-.25Z"/></g></svg>