<?xml version="1.0" encoding="UTF-8"?><svg id="Calque_2" xmlns="http://www.w3.org/2000/svg" viewBox="0 0 119.14 33.02"><defs><style>.cls-1{fill:#d78873;}.cls-2{fill:#fff;}.cls-3{fill:#7ba7db;}</style></defs><g id="Calque_24"><rect class="cls-2" x="64.59" y="21.75" width="8.75" height="8.75" transform="translate(1.73 56.42) rotate(-45)"/><path class="cls-1" d="M68.97,20.65l5.48,5.48-5.48,5.48-5.48-5.48,5.48-5.48M68.97,19.23l-.71.71-5.48,5.48-.71.71.71.71,5.48,5.48.71.71.71-.71,5.48-5.48.71-.71-.71-.71-5.48-5.48-.71-.71h0Z"/><path class="cls-1" d="M69.49,23.62c-.07,0-.14-.04-.18-.11-.1.05-.22.07-.34.07s-.24-.03-.34-.07c-.03.06-.1.1-.17.11.02.28.25.49.52.49s.5-.22.52-.49h0Z"/><path class="cls-1" d="M69.67,26.05l-.49.18c-.01.06-.04.12-.07.17-.14.21-.39.29-.62.19-.02.01-.16.12-.18.13,0,.04,0-.14,0,2.55,0,.18.14.33.32.33s.32-.15.32-.33v-2.49h.09v2.49c0,.18.14.33.32.33s.32-.15.32-.33c0-2.72,0-3.23,0-3.23Z"/><path class="cls-1" d="M70.88,25.61l-.32-.14-.38.14c0,.06,0,.11-.02.17-.02.03-.04.07-.07.09l.58.25c.14.06.29,0,.35-.15.06-.14,0-.3-.14-.36Z"/><path class="cls-1" d="M67.96,26.23l-.81.29c-.08.03-.12.12-.09.2l.12.34c.03.1.15.14.23.08l.93-.65-.37-.26Z"/><path class="cls-1" d="M71.08,24.99c-.02-.06-.09-.1-.15-.07l-.17.06-.03-.1c-.02-.06-.09-.1-.15-.07-.06.02-.09.09-.07.15l.03.1-1.62.58.04.03c.13.09.2.23.22.38l.76-.27c.06-.02.09-.09.07-.15-.02-.05-.06-.08-.11-.08l1.1-.4c.06-.02.09-.09.07-.15Z"/><path class="cls-1" d="M70.26,24.9c0-.35-.28-.63-.61-.63h-1.27c-.23,0-.44.13-.55.33-.24.43-.13.24-.37.67-.07.12-.03.28.08.36l.98.69c.12.09.29.05.37-.07.08-.13.05-.3-.07-.38l-.78-.55c.27-.49.25-.46.26-.47v.35l.45.32.88-.32v-.32s.02-.05.05-.05.05.02.05.05c0,0,0,0,0,.01v.27s.53-.19.53-.19v-.08Z"/><path class="cls-1" d="M69.62,23.41c-.02-.12-.08-.42-.08-.44,0-.25-.25-.45-.57-.45s-.54.18-.56.42h0l-.08.47s.02.05.04.05h.09s.03,0,.04-.02l.08-.15c.1.08.25.14.41.14s.3-.05.4-.14l.08.15s.02.02.04.02h.09s.05-.02.04-.05Z"/><rect class="cls-2" x="6.01" y="21.75" width="8.75" height="8.75" transform="translate(-15.43 15) rotate(-45)"/><path class="cls-3" d="M10.38,20.65l5.48,5.48-5.48,5.48-5.48-5.48,5.48-5.48M10.38,19.23l-.71.71-5.48,5.48-.71.71.71.71,5.48,5.48.71.71.71-.71,5.48-5.48.71-.71-.71-.71-5.48-5.48-.71-.71h0Z"/><path class="cls-3" d="M10.91,23.62c-.07,0-.14-.04-.18-.11-.1.05-.22.07-.34.07s-.24-.03-.34-.07c-.03.06-.1.1-.17.11.02.28.25.49.52.49s.5-.22.52-.49h0Z"/><path class="cls-3" d="M11.08,26.05l-.49.18c-.01.06-.04.12-.07.17-.14.21-.39.29-.62.19-.02.01-.16.12-.18.13,0,.04,0-.14,0,2.55,0,.18.14.33.32.33s.32-.15.32-.33v-2.49h.09v2.49c0,.18.14.33.32.33s.32-.15.32-.33c0-2.72,0-3.23,0-3.23Z"/><path class="cls-3" d="M12.29,25.61l-.32-.14-.38.14c0,.06,0,.11-.02.17-.02.03-.04.07-.07.09l.58.25c.14.06.29,0,.35-.15.06-.14,0-.3-.14-.36Z"/><path class="cls-3" d="M9.37,26.23l-.81.29c-.08.03-.12.12-.09.2l.12.34c.03.1.15.14.23.08l.93-.65-.37-.26Z"/><path class="cls-3" d="M12.49,24.99c-.02-.06-.09-.1-.15-.07l-.17.06-.03-.1c-.02-.06-.09-.1-.15-.07-.06.02-.09.09-.07.15l.03.1-1.62.58.04.03c.13.09.2.23.22.38l.76-.27c.06-.02.09-.09.07-.15-.02-.05-.06-.08-.11-.08l1.1-.4c.06-.02.09-.09.07-.15Z"/><path class="cls-3" d="M11.68,24.9c0-.35-.28-.63-.61-.63h-1.27c-.23,0-.44.13-.55.33-.24.43-.13.24-.37.67-.07.12-.03.28.08.36l.98.69c.12.09.29.05.37-.07.08-.13.05-.3-.07-.38l-.78-.55c.27-.49.25-.46.26-.47v.35l.45.32.88-.32v-.32s.02-.05.05-.05.05.02.05.05c0,0,0,0,0,.01v.27s.53-.19.53-.19v-.08Z"/><path class="cls-3" d="M11.03,23.41c-.02-.12-.08-.42-.08-.44,0-.25-.25-.45-.57-.45s-.54.18-.56.42h0l-.08.47s.02.05.04.05h.09s.03,0,.04-.02l.08-.15c.1.08.25.14.41.14s.3-.05.4-.14l.08.15s.02.02.04.02h.09s.05-.02.04-.05Z"/><path class="cls-2" d="M20.93,23h.55l2.45,5.49h-.8l-.73-1.62h-2.33l-.68,1.62h-.8l2.34-5.49ZM22.08,26.18l-.88-1.98-.82,1.98h1.7Z"/><path class="cls-2" d="M26.43,24.9h.77l-1.59,3.66h-.24l-1.62-3.66h.78l.97,2.21.93-2.21Z"/><path class="cls-2" d="M29.99,26.33v1.53c0,.12.04.18.12.18s.22-.06.4-.19v.43c-.16.1-.29.17-.39.21s-.2.06-.31.06c-.3,0-.48-.12-.54-.36-.3.23-.62.35-.96.35-.25,0-.46-.08-.62-.25s-.25-.37-.25-.62c0-.23.08-.43.24-.61s.39-.32.69-.42l.91-.31v-.19c0-.43-.22-.65-.65-.65-.39,0-.77.2-1.13.6v-.78c.28-.33.67-.49,1.19-.49.39,0,.7.1.93.3.08.07.15.15.21.26s.1.22.12.32.03.31.03.62ZM29.29,27.78v-1.07l-.48.18c-.24.1-.41.19-.51.29s-.15.22-.15.37.05.27.14.36.22.14.37.14c.23,0,.44-.09.63-.28Z"/><path class="cls-2" d="M31.85,24.9v.46c.32-.35.68-.53,1.08-.53.22,0,.43.06.62.17s.34.27.44.48.15.52.15.96v2.05h-.71v-2.05c0-.37-.06-.63-.17-.79s-.3-.24-.56-.24c-.34,0-.62.17-.86.5v2.57h-.73v-3.59h.73Z"/><path class="cls-2" d="M34.64,25.47l1.34-1.31v.74h1.14v.64h-1.14v1.76c0,.41.17.62.51.62.25,0,.52-.08.81-.25v.66c-.27.15-.57.23-.89.23s-.6-.09-.81-.29c-.07-.06-.12-.12-.17-.19s-.08-.17-.11-.28-.04-.34-.04-.66v-1.59h-.62v-.07Z"/><path class="cls-2" d="M41.17,27.74h2.08v.75h-3.45v-.05l.33-.39c.51-.64.92-1.17,1.22-1.62s.5-.78.59-1,.14-.45.14-.67c0-.31-.09-.55-.26-.74s-.41-.28-.7-.28c-.22,0-.43.06-.65.19s-.4.31-.57.54v-.99c.42-.35.86-.52,1.31-.52.48,0,.87.16,1.18.48s.46.72.46,1.21c0,.22-.04.45-.12.7-.08.25-.21.54-.41.86s-.53.77-1,1.33l-.17.2Z"/><path class="cls-2" d="M45.56,22.96c.5,0,.91.26,1.24.79s.49,1.19.49,2-.16,1.5-.49,2.02-.75.78-1.27.78-.95-.25-1.27-.76-.48-1.18-.48-2.02.17-1.5.5-2.02.76-.78,1.29-.78ZM45.56,23.7h-.04c-.3,0-.54.18-.71.55s-.26.87-.26,1.5.09,1.15.26,1.52.41.55.71.55.54-.18.71-.55.26-.87.26-1.5-.08-1.14-.25-1.51-.39-.56-.68-.56Z"/><path class="cls-2" d="M49.17,27.74h2.08v.75h-3.45v-.05l.33-.39c.51-.64.92-1.17,1.22-1.62s.5-.78.59-1,.14-.45.14-.67c0-.31-.09-.55-.26-.74s-.41-.28-.7-.28c-.22,0-.43.06-.65.19s-.4.31-.57.54v-.99c.42-.35.86-.52,1.31-.52.48,0,.87.16,1.18.48s.46.72.46,1.21c0,.22-.04.45-.12.7-.08.25-.21.54-.41.86s-.53.77-1,1.33l-.17.2Z"/><path class="cls-2" d="M53.17,27.74h2.08v.75h-3.45v-.05l.33-.39c.51-.64.92-1.17,1.22-1.62s.5-.78.59-1,.14-.45.14-.67c0-.31-.09-.55-.26-.74s-.41-.28-.7-.28c-.22,0-.43.06-.65.19s-.4.31-.57.54v-.99c.42-.35.86-.52,1.31-.52.48,0,.87.16,1.18.48s.46.72.46,1.21c0,.22-.04.45-.12.7-.08.25-.21.54-.41.86s-.53.77-1,1.33l-.17.2Z"/><path class="cls-2" d="M80.25,23h.55l2.45,5.49h-.8l-.73-1.62h-2.33l-.68,1.62h-.8l2.34-5.49ZM81.4,26.18l-.88-1.98-.82,1.98h1.7Z"/><path class="cls-2" d="M83.7,30.32v-5.43h1.24c.64,0,1.13.16,1.49.48.35.32.53.76.53,1.33,0,.54-.17.98-.5,1.33s-.76.52-1.28.52c-.23,0-.48-.05-.76-.15v1.92h-.73ZM84.93,25.56h-.5v2.21c.22.11.45.17.69.17.33,0,.61-.12.82-.35s.32-.53.32-.89c0-.23-.05-.44-.15-.62-.1-.18-.24-.31-.41-.39s-.42-.12-.76-.12Z"/><path class="cls-2" d="M88.51,24.9v.82l.04-.06c.34-.55.69-.83,1.03-.83.27,0,.55.14.84.41l-.38.62c-.25-.23-.48-.35-.69-.35-.23,0-.43.11-.6.33s-.25.48-.25.78v1.88h-.71v-3.59h.71Z"/><path class="cls-2" d="M93.98,26.75h-2.53c.02.34.13.62.35.82s.49.3.82.3c.47,0,.9-.15,1.3-.44v.7c-.22.15-.44.25-.65.31s-.47.09-.76.09c-.4,0-.72-.08-.96-.25s-.44-.38-.59-.66-.22-.6-.22-.96c0-.55.16-.99.46-1.33s.71-.51,1.21-.51.86.17,1.14.5.43.78.43,1.34v.09ZM91.46,26.33h1.81c-.02-.28-.1-.5-.25-.66s-.35-.23-.61-.23-.46.08-.63.23-.27.37-.32.66ZM92.27,22.95l.54,1.17h-.44l-.9-1.17h.8Z"/><path class="cls-2" d="M94.57,28.23v-.77c.2.14.41.25.62.34s.39.13.53.13.28-.04.38-.11.16-.16.16-.26-.03-.19-.1-.26-.22-.17-.45-.3c-.46-.25-.76-.47-.9-.65s-.21-.38-.21-.59c0-.28.11-.5.32-.68s.49-.26.83-.26.71.1,1.08.3v.7c-.42-.25-.77-.38-1.04-.38-.14,0-.25.03-.33.09s-.13.14-.13.23c0,.08.04.16.12.24.08.08.21.17.4.27l.25.14c.6.34.9.71.9,1.12,0,.29-.12.54-.35.72s-.53.28-.89.28c-.21,0-.4-.02-.57-.07s-.38-.13-.63-.25Z"/><path class="cls-2" d="M101.19,27.74h2.08v.75h-3.45v-.05l.33-.39c.51-.64.92-1.17,1.22-1.62s.5-.78.59-1,.14-.45.14-.67c0-.31-.09-.55-.26-.74s-.41-.28-.7-.28c-.22,0-.43.06-.65.19s-.4.31-.57.54v-.99c.42-.35.86-.52,1.31-.52.48,0,.87.16,1.18.48s.46.72.46,1.21c0,.22-.04.45-.12.7-.08.25-.21.54-.41.86s-.53.77-1,1.33l-.17.2Z"/><path class="cls-2" d="M105.57,22.96c.5,0,.91.26,1.24.79s.49,1.19.49,2-.16,1.5-.49,2.02-.75.78-1.27.78-.95-.25-1.27-.76-.48-1.18-.48-2.02.17-1.5.5-2.02.76-.78,1.29-.78ZM105.58,23.7h-.04c-.3,0-.54.18-.71.55s-.26.87-.26,1.5.09,1.15.26,1.52.41.55.71.55.54-.18.71-.55.26-.87.26-1.5-.08-1.14-.25-1.51-.39-.56-.68-.56Z"/><path class="cls-2" d="M109.19,27.74h2.08v.75h-3.45v-.05l.33-.39c.51-.64.92-1.17,1.22-1.62s.5-.78.59-1,.14-.45.14-.67c0-.31-.09-.55-.26-.74s-.41-.28-.7-.28c-.22,0-.43.06-.65.19s-.4.31-.57.54v-.99c.42-.35.86-.52,1.31-.52.48,0,.87.16,1.18.48s.46.72.46,1.21c0,.22-.04.45-.12.7-.08.25-.21.54-.41.86s-.53.77-1,1.33l-.17.2Z"/><path class="cls-2" d="M113.19,27.74h2.08v.75h-3.45v-.05l.33-.39c.51-.64.92-1.17,1.22-1.62s.5-.78.59-1,.14-.45.14-.67c0-.31-.09-.55-.26-.74s-.41-.28-.7-.28c-.22,0-.43.06-.65.19s-.4.31-.57.54v-.99c.42-.35.86-.52,1.31-.52.48,0,.87.16,1.18.48s.46.72.46,1.21c0,.22-.04.45-.12.7-.08.25-.21.54-.41.86s-.53.77-1,1.33l-.17.2Z"/><path class="cls-2" d="M2.29,0c.57,0,1.07.12,1.52.35s.79.56,1.03.98.37.89.37,1.41-.12,1.01-.37,1.42-.6.73-1.05.96-.97.34-1.56.34H0V0h2.29ZM2.18,4.63c.58,0,1.05-.17,1.4-.53s.53-.81.53-1.38-.18-1.05-.53-1.39-.83-.51-1.44-.51h-1.09v3.81h1.12Z"/><path class="cls-2" d="M7.7,1.74c.54,0,.96.17,1.27.52s.47.82.47,1.43v.14h-2.58c.04.33.16.58.37.75s.49.26.84.26c.23,0,.45-.04.66-.12s.43-.2.66-.36v.71c-.43.3-.95.45-1.55.45-.58,0-1.05-.17-1.41-.52s-.55-.81-.55-1.38.17-1.01.51-1.36.78-.53,1.32-.53ZM8.54,3.24c-.03-.27-.11-.47-.24-.62s-.32-.22-.56-.22-.44.07-.58.21-.24.35-.28.63h1.66ZM8.85.13l-1.13,1.17h-.52l.57-1.17h1.08Z"/><path class="cls-2" d="M12.07,1.74c.52,0,.94.17,1.26.52s.48.8.48,1.36c0,.37-.08.7-.22.98s-.36.51-.64.68-.59.24-.94.24c-.28,0-.57-.07-.86-.21v1.98h-.96V1.81h.95v.23c.29-.2.6-.3.93-.3ZM11.15,4.61c.24.14.46.21.67.21.3,0,.54-.11.73-.32s.27-.5.27-.84c0-.37-.08-.66-.24-.88s-.39-.32-.69-.32c-.11,0-.22.02-.32.06s-.24.12-.41.24v1.85Z"/><path class="cls-2" d="M15.57,0v5.46h-.96V0h.96Z"/><path class="cls-2" d="M18.37,1.74c.38,0,.73.08,1.04.24s.55.38.72.67.25.61.25.97-.08.71-.24.99-.4.51-.72.67-.67.25-1.04.25-.73-.08-1.04-.25-.55-.39-.71-.67-.24-.61-.24-.99.09-.69.26-.98.41-.51.72-.66.65-.24,1.02-.24ZM17.38,3.62c0,.36.09.66.27.87s.42.33.72.33.56-.1.74-.31.27-.51.27-.89-.09-.66-.27-.86-.43-.3-.74-.3c-.29,0-.53.11-.71.32s-.27.5-.27.85Z"/><path class="cls-2" d="M21.66.12c.15,0,.28.05.38.16s.16.23.16.38-.05.27-.16.38-.23.17-.38.17-.27-.06-.38-.17-.16-.24-.16-.38c0-.15.05-.28.16-.38s.24-.16.38-.16ZM22.14,1.81v3.65h-.96V1.81h.96Z"/><path class="cls-2" d="M24.76,1.74c.54,0,.96.17,1.27.52s.47.82.47,1.43v.14h-2.58c.04.33.16.58.37.75s.49.26.84.26c.23,0,.45-.04.66-.12s.43-.2.66-.36v.71c-.43.3-.95.45-1.55.45-.58,0-1.05-.17-1.41-.52s-.55-.81-.55-1.38.17-1.01.51-1.36.78-.53,1.32-.53ZM25.6,3.24c-.03-.27-.11-.47-.24-.62s-.32-.22-.56-.22-.44.07-.58.21-.24.35-.28.63h1.66Z"/><path class="cls-2" d="M29.37,1.74c.28,0,.52.07.71.2s.34.31.44.53c.21-.25.41-.44.62-.55s.43-.17.67-.17c.39,0,.7.13.93.38s.36.59.36,1.01v2.34h-.96v-2.18c0-.25-.05-.45-.16-.6s-.26-.22-.47-.22c-.29,0-.58.19-.85.57v2.43h-.96v-2.19c0-.25-.06-.45-.17-.59s-.27-.21-.46-.21c-.16,0-.3.04-.43.13s-.27.23-.42.43v2.43h-.96V1.81h.96v.51c.17-.2.35-.34.53-.44s.39-.14.62-.14Z"/><path class="cls-2" d="M35.66,1.74c.54,0,.96.17,1.27.52s.47.82.47,1.43v.14h-2.58c.04.33.16.58.37.75s.49.26.84.26c.23,0,.45-.04.66-.12s.43-.2.66-.36v.71c-.43.3-.95.45-1.55.45-.58,0-1.05-.17-1.41-.52s-.55-.81-.55-1.38.17-1.01.51-1.36.78-.53,1.32-.53ZM36.5,3.24c-.03-.27-.11-.47-.24-.62s-.32-.22-.56-.22-.44.07-.58.21-.24.35-.28.63h1.66Z"/><path class="cls-2" d="M40.27,1.74c.39,0,.7.13.94.38s.35.59.35,1.01v2.32h-.96v-2.22c0-.24-.06-.42-.17-.56s-.27-.21-.46-.21c-.15,0-.29.04-.42.13s-.27.23-.43.44v2.43h-.96V1.81h.96v.51c.18-.21.36-.36.54-.45s.39-.13.61-.13Z"/><path class="cls-2" d="M43.48.84h.08v.97h1.25v.73h-1.25v1.68c0,.16.05.3.15.4s.23.15.41.15c.22,0,.48-.08.77-.24v.77c-.35.15-.67.23-.98.23-.41,0-.73-.11-.96-.34s-.35-.53-.35-.91v-1.75h-.57v-.16l1.45-1.54Z"/><path class="cls-2" d="M50.12,1.89V0h.96v5.46h-1.69c-.58,0-1.05-.17-1.4-.5s-.53-.79-.53-1.38c0-.34.08-.66.24-.94s.39-.5.67-.66.59-.24.92-.24c.25,0,.53.05.82.15ZM49.62,4.72h.5v-2.11c-.2-.1-.4-.15-.62-.15-.32,0-.58.1-.77.3s-.29.46-.29.79c0,.78.39,1.18,1.17,1.18Z"/><path class="cls-2" d="M53.68,1.74c.54,0,.96.17,1.27.52s.47.82.47,1.43v.14h-2.58c.04.33.16.58.37.75s.49.26.84.26c.23,0,.45-.04.66-.12s.43-.2.66-.36v.71c-.43.3-.95.45-1.55.45-.58,0-1.05-.17-1.41-.52s-.55-.81-.55-1.38.17-1.01.51-1.36.78-.53,1.32-.53ZM54.52,3.24c-.03-.27-.11-.47-.24-.62s-.32-.22-.56-.22-.44.07-.58.21-.24.35-.28.63h1.66Z"/><path class="cls-2" d="M61.76,1.81v.68h-.62c.1.12.17.24.21.35s.06.22.06.34c0,.29-.11.56-.33.8-.19.21-.52.35-.99.41-.25.03-.42.07-.5.11s-.12.1-.12.19c0,.08.05.13.15.17s.26.08.48.12c.55.09.95.22,1.21.41s.39.42.39.72c0,.39-.16.68-.47.89s-.77.31-1.36.31c-.56,0-1-.1-1.34-.29s-.5-.46-.5-.79c0-.46.32-.78.96-.96-.28-.12-.41-.28-.41-.47,0-.25.21-.43.62-.53v-.02c-.28-.08-.51-.22-.68-.42s-.25-.43-.25-.7c0-.39.15-.71.45-.95s.68-.36,1.16-.36h1.88ZM58.93,6.18c0,.33.33.49.98.49.28,0,.5-.04.66-.13s.24-.21.24-.35c0-.16-.09-.28-.27-.37s-.44-.12-.77-.12c-.25,0-.45.05-.61.14s-.23.21-.23.35ZM59.16,3.13c0,.19.07.35.2.47s.3.19.49.19.36-.07.49-.2.19-.3.19-.5c0-.18-.07-.33-.2-.45s-.29-.18-.48-.18-.36.07-.49.2-.2.29-.2.47Z"/><path class="cls-2" d="M64.4,1.74c.13,0,.25.03.38.09s.27.15.43.29l-.34.84c-.28-.21-.5-.31-.67-.31-.15,0-.29.06-.44.17s-.26.26-.35.44-.13.36-.13.55v1.66h-.96V1.81h.96v.93h.02c.17-.35.35-.61.53-.76s.37-.24.58-.24Z"/><path class="cls-2" d="M67.31,1.74c.38,0,.73.08,1.04.24s.55.38.72.67.25.61.25.97-.08.71-.24.99-.4.51-.72.67-.67.25-1.04.25-.73-.08-1.04-.25-.55-.39-.71-.67-.24-.61-.24-.99.09-.69.26-.98.41-.51.72-.66.65-.24,1.02-.24ZM66.32,3.62c0,.36.09.66.27.87s.42.33.72.33.56-.1.74-.31.27-.51.27-.89-.09-.66-.27-.86-.43-.3-.74-.3c-.29,0-.53.11-.71.32s-.27.5-.27.85Z"/><path class="cls-2" d="M71.01,1.81v2.26c0,.24.06.42.18.54s.28.19.47.19c.16,0,.32-.05.46-.15s.27-.24.36-.42V1.81h.96v3.65h-.96v-.5c-.35.38-.72.57-1.12.57s-.71-.13-.95-.38-.36-.59-.36-1V1.81h.96Z"/><path class="cls-2" d="M76.29,1.74c.52,0,.94.17,1.26.52s.48.8.48,1.36c0,.37-.08.7-.22.98s-.36.51-.64.68-.59.24-.94.24c-.28,0-.57-.07-.86-.21v1.98h-.96V1.81h.95v.23c.29-.2.6-.3.93-.3ZM75.37,4.61c.24.14.46.21.67.21.3,0,.54-.11.73-.32s.27-.5.27-.84c0-.37-.08-.66-.24-.88s-.39-.32-.69-.32c-.11,0-.22.02-.32.06s-.24.12-.41.24v1.85Z"/><path class="cls-2" d="M80.42,1.74c.54,0,.96.17,1.27.52s.47.82.47,1.43v.14h-2.58c.04.33.16.58.37.75s.49.26.84.26c.23,0,.45-.04.66-.12s.43-.2.66-.36v.71c-.43.3-.95.45-1.55.45-.58,0-1.05-.17-1.41-.52s-.55-.81-.55-1.38.17-1.01.51-1.36.78-.53,1.32-.53ZM81.26,3.24c-.03-.27-.11-.47-.24-.62s-.32-.22-.56-.22-.44.07-.58.21-.24.35-.28.63h1.66Z"/><path class="cls-2" d="M84.1,1.74c.2,0,.39.02.57.07s.36.12.56.22v.77c-.18-.12-.38-.21-.59-.28s-.39-.11-.56-.11c-.14,0-.25.03-.32.08s-.12.13-.12.22c0,.05.03.11.1.16s.24.16.54.3c.42.21.71.41.88.58s.25.39.25.64c0,.35-.12.63-.37.83s-.58.3-.99.3c-.26,0-.5-.03-.73-.09s-.41-.13-.56-.21v-.8c.47.26.86.39,1.18.39.16,0,.3-.03.4-.09s.15-.14.15-.23c0-.06-.02-.11-.05-.16s-.09-.09-.16-.14-.3-.17-.68-.36c-.29-.14-.51-.29-.65-.46s-.21-.36-.21-.59c0-.32.13-.58.38-.77s.58-.29,1-.29Z"/><path class="cls-2" d="M89.37.84h.08v.97h1.25v.73h-1.25v1.68c0,.16.05.3.15.4s.23.15.41.15c.22,0,.48-.08.77-.24v.77c-.35.15-.67.23-.98.23-.41,0-.73-.11-.96-.34s-.35-.53-.35-.91v-1.75h-.57v-.16l1.45-1.54Z"/><path class="cls-2" d="M92.64,1.74c.47,0,.83.1,1.07.3s.37.48.37.83v1.79c0,.14.06.21.17.21.05,0,.11-.02.2-.06s.16-.09.21-.14v.55c-.34.21-.64.31-.92.31-.17,0-.3-.03-.4-.09s-.16-.16-.19-.3c-.37.26-.74.39-1.11.39-.26,0-.49-.09-.68-.27s-.28-.39-.28-.64c0-.32.09-.56.28-.75s.52-.34.98-.48l.78-.23v-.17c0-.36-.22-.54-.65-.54-.22,0-.44.05-.66.15s-.42.25-.6.45v-.86c.4-.32.87-.47,1.42-.47ZM92.05,4.48c0,.13.04.24.13.32s.19.12.31.12c.21,0,.42-.1.63-.29v-.96c-.27.09-.48.18-.63.26s-.26.16-.34.25-.11.18-.11.3Z"/><path class="cls-2" d="M96.94,1.74c.42,0,.81.08,1.15.25v.82c-.34-.2-.66-.3-.97-.3-.33,0-.6.1-.8.31s-.31.48-.31.83.1.62.31.82.49.31.84.31c.26,0,.59-.09,1-.26v.78c-.38.15-.77.23-1.17.23-.59,0-1.07-.17-1.44-.51s-.55-.79-.55-1.35.18-1.05.54-1.4.83-.53,1.4-.53Z"/><path class="cls-2" d="M99.88.84h.08v.97h1.25v.73h-1.25v1.68c0,.16.05.3.15.4s.23.15.41.15c.22,0,.48-.08.77-.24v.77c-.35.15-.67.23-.98.23-.41,0-.73-.11-.96-.34s-.35-.53-.35-.91v-1.75h-.57v-.16l1.45-1.54Z"/><path class="cls-2" d="M102.34.12c.15,0,.28.05.38.16s.16.23.16.38-.05.27-.16.38-.23.17-.38.17-.27-.06-.38-.17-.16-.24-.16-.38c0-.15.05-.28.16-.38s.24-.16.38-.16ZM102.82,1.81v3.65h-.96V1.81h.96Z"/><path class="cls-2" d="M106.28,5.38c-.28.1-.55.15-.82.15-.33,0-.64-.08-.92-.24s-.51-.38-.67-.66-.24-.59-.24-.94c0-.38.08-.72.24-1s.38-.5.68-.65.63-.23,1.01-.23h1.69v5.49h-.96v-1.92ZM105.77,2.55c-.78,0-1.17.39-1.17,1.18,0,.33.1.59.29.79s.45.3.77.3c.21,0,.42-.05.62-.15v-2.11h-.5Z"/><path class="cls-2" d="M109.13,1.81v2.26c0,.24.06.42.18.54s.28.19.47.19c.16,0,.32-.05.46-.15s.27-.24.36-.42V1.81h.96v3.65h-.96v-.5c-.35.38-.72.57-1.12.57s-.71-.13-.95-.38-.36-.59-.36-1V1.81h.96Z"/><path class="cls-2" d="M114.16,1.74c.54,0,.96.17,1.27.52s.47.82.47,1.43v.14h-2.58c.04.33.16.58.37.75s.49.26.84.26c.23,0,.45-.04.66-.12s.43-.2.66-.36v.71c-.43.3-.95.45-1.55.45-.58,0-1.05-.17-1.41-.52s-.55-.81-.55-1.38.17-1.01.51-1.36.78-.53,1.32-.53ZM115,3.24c-.03-.27-.11-.47-.24-.62s-.32-.22-.56-.22-.44.07-.58.21-.24.35-.28.63h1.66Z"/><path class="cls-2" d="M117.84,1.74c.2,0,.39.02.57.07s.36.12.56.22v.77c-.18-.12-.38-.21-.59-.28s-.39-.11-.56-.11c-.14,0-.25.03-.32.08s-.12.13-.12.22c0,.05.03.11.1.16s.24.16.54.3c.42.21.71.41.88.58s.25.39.25.64c0,.35-.12.63-.37.83s-.58.3-.99.3c-.26,0-.5-.03-.73-.09s-.41-.13-.56-.21v-.8c.47.26.86.39,1.18.39.16,0,.3-.03.4-.09s.15-.14.15-.23c0-.06-.02-.11-.05-.16s-.09-.09-.16-.14-.3-.17-.68-.36c-.29-.14-.51-.29-.65-.46s-.21-.36-.21-.59c0-.32.13-.58.38-.77s.58-.29,1-.29Z"/><path class="cls-2" d="M35.76,11.74c.28,0,.52.07.71.2s.34.31.44.53c.21-.25.41-.44.62-.55s.43-.17.67-.17c.39,0,.7.13.93.38s.36.59.36,1.01v2.34h-.96v-2.18c0-.25-.05-.45-.16-.6s-.26-.22-.47-.22c-.29,0-.58.19-.85.57v2.43h-.96v-2.19c0-.25-.06-.45-.17-.59s-.27-.21-.46-.21c-.16,0-.3.04-.43.13s-.27.23-.42.43v2.43h-.96v-3.65h.96v.51c.17-.2.35-.34.53-.44s.39-.14.62-.14Z"/><path class="cls-2" d="M41.34,11.81v2.26c0,.24.06.42.18.54s.28.19.47.19c.16,0,.32-.05.46-.15s.27-.24.36-.42v-2.42h.96v3.65h-.96v-.5c-.35.38-.72.57-1.12.57s-.71-.13-.95-.38-.36-.59-.36-1v-2.34h.96Z"/><path class="cls-2" d="M45.73,10v5.46h-.96v-5.46h.96Z"/><path class="cls-2" d="M47.72,10.84h.08v.97h1.25v.73h-1.25v1.68c0,.16.05.3.15.4s.23.15.41.15c.22,0,.48-.08.77-.24v.77c-.35.15-.67.23-.98.23-.41,0-.73-.11-.96-.34s-.35-.53-.35-.91v-1.75h-.57v-.16l1.45-1.54Z"/><path class="cls-2" d="M50.19,10.12c.15,0,.28.05.38.16s.16.23.16.38-.05.27-.16.38-.23.17-.38.17-.27-.06-.38-.17-.16-.24-.16-.38c0-.15.05-.28.16-.38s.24-.16.38-.16ZM50.67,11.81v3.65h-.96v-3.65h.96Z"/><path class="cls-2" d="M53.77,11.74c.39,0,.7.13.94.38s.35.59.35,1.01v2.32h-.96v-2.22c0-.24-.06-.42-.17-.56s-.27-.21-.46-.21c-.15,0-.29.04-.42.13s-.27.23-.43.44v2.43h-.96v-3.65h.96v.51c.18-.21.36-.36.54-.45s.39-.13.61-.13Z"/><path class="cls-2" d="M57.3,11.74c.47,0,.83.1,1.07.3s.37.48.37.83v1.79c0,.14.06.21.17.21.05,0,.11-.02.2-.06s.16-.09.21-.14v.55c-.34.21-.64.31-.92.31-.17,0-.3-.03-.4-.09s-.16-.16-.19-.3c-.37.26-.74.39-1.11.39-.26,0-.49-.09-.68-.27s-.28-.39-.28-.64c0-.32.09-.56.28-.75s.52-.34.98-.48l.78-.23v-.17c0-.36-.22-.54-.65-.54-.22,0-.44.05-.66.15s-.42.25-.6.45v-.86c.4-.32.87-.47,1.42-.47ZM56.71,14.48c0,.13.04.24.13.32s.19.12.31.12c.21,0,.42-.1.63-.29v-.96c-.27.09-.48.18-.63.26s-.26.16-.34.25-.11.18-.11.3Z"/><path class="cls-2" d="M60.85,10.84h.08v.97h1.25v.73h-1.25v1.68c0,.16.05.3.15.4s.23.15.41.15c.22,0,.48-.08.77-.24v.77c-.35.15-.67.23-.98.23-.41,0-.73-.11-.96-.34s-.35-.53-.35-.91v-1.75h-.57v-.16l1.45-1.54Z"/><path class="cls-2" d="M63.31,10.12c.15,0,.28.05.38.16s.16.23.16.38-.05.27-.16.38-.23.17-.38.17-.27-.06-.38-.17-.16-.24-.16-.38c0-.15.05-.28.16-.38s.24-.16.38-.16ZM63.79,11.81v3.65h-.96v-3.65h.96Z"/><path class="cls-2" d="M66.6,11.74c.38,0,.73.08,1.04.24s.55.38.72.67.25.61.25.97-.08.71-.24.99-.4.51-.72.67-.67.25-1.04.25-.73-.08-1.04-.25-.55-.39-.71-.67-.24-.61-.24-.99.09-.69.26-.98.41-.51.72-.66.65-.24,1.02-.24ZM65.6,13.62c0,.36.09.66.27.87s.42.33.72.33.56-.1.74-.31.27-.51.27-.89-.09-.66-.27-.86-.43-.3-.74-.3c-.29,0-.53.11-.71.32s-.27.5-.27.85Z"/><path class="cls-2" d="M71.49,11.74c.39,0,.7.13.94.38s.35.59.35,1.01v2.32h-.96v-2.22c0-.24-.06-.42-.17-.56s-.27-.21-.46-.21c-.15,0-.29.04-.42.13s-.27.23-.43.44v2.43h-.96v-3.65h.96v.51c.18-.21.36-.36.54-.45s.39-.13.61-.13Z"/><path class="cls-2" d="M75.01,11.74c.47,0,.83.1,1.07.3s.37.48.37.83v1.79c0,.14.06.21.17.21.05,0,.11-.02.2-.06s.16-.09.21-.14v.55c-.34.21-.64.31-.92.31-.17,0-.3-.03-.4-.09s-.16-.16-.19-.3c-.37.26-.74.39-1.11.39-.26,0-.49-.09-.68-.27s-.28-.39-.28-.64c0-.32.09-.56.28-.75s.52-.34.98-.48l.78-.23v-.17c0-.36-.22-.54-.65-.54-.22,0-.44.05-.66.15s-.42.25-.6.45v-.86c.4-.32.87-.47,1.42-.47ZM74.43,14.48c0,.13.04.24.13.32s.19.12.31.12c.21,0,.42-.1.63-.29v-.96c-.27.09-.48.18-.63.26s-.26.16-.34.25-.11.18-.11.3Z"/><path class="cls-2" d="M78.49,11.81v2.26c0,.24.06.42.18.54s.28.19.47.19c.16,0,.32-.05.46-.15s.27-.24.36-.42v-2.42h.96v3.65h-.96v-.5c-.35.38-.72.57-1.12.57s-.71-.13-.95-.38-.36-.59-.36-1v-2.34h.96Z"/><path class="cls-2" d="M82.57,11.81l.91,1.14.88-1.14h1.15l-1.46,1.79,1.57,1.86h-1.15l-.98-1.21-.94,1.21h-1.12l1.51-1.86-1.51-1.79h1.15Z"/></g></svg>